<svg width="24" height="24" viewBox="0 0 24 24" fill="none" xmlns="http://www.w3.org/2000/svg">
<g id="information-circle">
<path id="Vector" fill-rule="evenodd" clip-rule="evenodd" d="M7.31673 3.76858C10.4043 3.4235 13.5957 3.4235 16.6832 3.76858C18.5096 3.9727 19.9845 5.41135 20.1994 7.24831C20.5686 10.4052 20.5686 13.5944 20.1994 16.7513C19.9845 18.5883 18.5096 20.0269 16.6832 20.2311C13.5957 20.5761 10.4043 20.5761 7.31673 20.2311C5.49035 20.0269 4.01545 18.5883 3.8006 16.7513C3.43137 13.5944 3.43137 10.4052 3.8006 7.24831C4.01545 5.41135 5.49035 3.9727 7.31673 3.76858ZM13 7.99983C13 8.5521 12.5523 8.99983 12 8.99983C11.4477 8.99983 11 8.5521 11 7.99983C11 7.44754 11.4477 6.99983 12 6.99983C12.5523 6.99983 13 7.44754 13 7.99983ZM12 10.7498C12.4142 10.7498 12.75 11.0856 12.75 11.4998V16.4998C12.75 16.914 12.4142 17.2498 12 17.2498C11.5858 17.2498 11.25 16.914 11.25 16.4998V11.4998C11.25 11.0856 11.5858 10.7498 12 10.7498Z" fill="#7B61FF"/>
</g>
</svg>
