<svg width="181" height="181" viewBox="0 0 181 181" fill="none" xmlns="http://www.w3.org/2000/svg">
<path d="M86.3181 78.4774C86.1421 78.3717 85.8995 78.4422 85.7938 78.6182C85.4065 79.3537 84.7061 79.9131 83.7279 80.1947C82.1863 80.6485 80.2574 80.3708 79.3809 79.8427C79.2048 79.737 78.9623 79.8075 78.8566 79.9835C78.751 80.1595 78.8214 80.406 78.9975 80.5077C79.6978 80.895 80.8208 81.1727 82.0455 81.1727C82.6754 81.1727 83.3406 81.1023 83.9392 80.9263C85.0974 80.5742 85.9738 79.9092 86.4981 78.9977C86.5686 78.7864 86.4981 78.5791 86.3221 78.4735L86.3181 78.4774Z" fill="#454138"/>
<path d="M179.718 179.955H179.053C178.736 176.838 178.564 176.345 177.93 174.279C177.719 173.544 177.406 172.632 177.019 171.337C176.072 167.449 173.794 160.09 169.205 154.762C165.664 150.416 161.951 147.474 157.291 145.162C156.696 144.775 156.066 144.356 155.432 143.937C153.961 142.955 152.419 141.907 150.702 141.132C148.424 140.01 146.042 138.996 143.412 138.05C142.677 137.768 141.906 137.526 141.135 137.244C141.1 137.209 141.065 137.173 141.029 137.138C140.959 137.103 140.853 137.068 140.748 137.103C139.453 136.614 138.048 136.156 136.366 135.667C132.476 133.809 126.236 130.903 121.822 128.903C119.858 127.679 117.898 126.451 115.898 125.293C115.687 125.187 115.511 125.046 115.303 124.941H115.339C115.515 124.941 115.691 124.8 115.726 124.624C115.726 124.483 115.761 124.342 115.761 124.201C116.567 117.16 116.532 109.766 115.55 101.566C114.85 98.1666 114.044 94.8375 113.238 91.614C111.626 84.9557 110.084 78.6495 109.348 71.7448C109.313 71.5335 109.172 71.3927 108.93 71.3927C108.906 71.3927 108.883 71.4044 108.859 71.4279C108.894 71.3927 108.965 71.3575 109 71.3223C109.106 71.2871 109.176 71.2167 109.211 71.111C112.752 67.6411 115.065 62.1408 111.7 58.0762C110.299 56.7109 108.511 56.2179 106.688 56.6052C105.635 56.8517 104.551 57.3759 103.534 58.1818C103.464 58.2522 103.393 58.3226 103.323 58.3578C102.341 47.811 97.1915 29.4831 84.2561 25.4185C87.1985 25.665 90.1448 26.7134 92.9463 28.642C93.1928 28.8181 93.4353 28.9941 93.6818 29.1663C93.7171 29.2015 93.7523 29.2367 93.8227 29.2719C93.8579 29.3071 93.9283 29.3423 93.9636 29.3775C97.9936 31.9008 100.936 35.895 102.759 41.3249C105.565 46.1249 106.406 49.3484 106.578 55.8307C106.578 56.0419 106.754 56.2179 106.965 56.2179C107.177 56.2179 107.353 56.0419 107.353 55.8307C107.212 50.0487 106.582 46.3362 103.464 41.0432C101.57 35.4372 98.4866 31.267 94.2453 28.6733C90.1056 25.532 85.5826 24.2019 81.0634 24.7613C80.4334 24.6909 79.7683 24.6205 79.0992 24.6205H79.0288C74.2983 25.6024 69.0044 27.9144 64.8335 30.7858C57.4385 36.8847 52.3911 47.3259 51.8668 57.4502H51.3425C50.3252 57.4502 49.4135 57.6615 48.5723 58.1505C46.8898 59.4102 45.943 61.1275 45.8725 63.1266C45.7669 65.5442 46.9603 68.3139 48.991 70.6964C49.48 71.2558 50.0083 71.7839 50.5678 72.3081C50.6734 72.4137 50.7791 72.4842 50.8847 72.5546C50.8495 72.5898 50.8495 72.6602 50.8143 72.6954C50.6734 74.0607 50.603 75.3595 50.5678 76.584C50.4973 78.0549 50.4621 79.4593 50.2156 80.719C49.9339 81.7361 49.6209 82.6828 49.3392 83.6256C48.0441 87.9367 46.8859 91.6844 46.3968 96.5197C45.4147 108.013 45.6965 117.195 47.2029 124.483C47.4493 125.57 47.6919 126.654 47.9737 127.671C48.0089 127.847 48.0793 128.023 48.1145 128.231C44.5031 130.754 40.473 133.031 35.7425 135.167C34.69 135.726 33.7431 136.219 32.765 136.673C12.3681 147.29 3.53708 155.666 2.03069 179.736V179.842H0.387358C0.176072 179.842 0 180.018 0 180.229C0 180.441 0.176072 180.617 0.387358 180.617H179.581C179.793 180.617 179.969 180.441 179.969 180.229C180.074 180.088 179.933 179.948 179.722 179.948L179.718 179.955ZM47.2772 96.6996C47.7663 91.9348 48.8892 88.2536 50.1843 83.9464C50.466 82.9997 50.7438 82.0178 51.0608 80.9694C51.3073 79.6041 51.3425 78.1996 51.4129 76.6583C51.4481 75.5355 51.5186 74.3463 51.6242 73.1531C52.7824 74.0294 54.0423 74.6945 55.3726 75.1522C55.4078 75.1522 55.443 75.1874 55.4782 75.1874C55.6543 75.1874 55.7951 75.0818 55.8304 74.9409C55.9008 74.7297 55.7951 74.5184 55.5839 74.4519C53.9718 73.9277 52.395 72.981 51.1312 71.823C48.2593 69.2998 46.5768 66.0411 46.6786 63.24C46.749 61.4522 47.555 59.9461 49.0262 58.8586C49.7265 58.4713 50.4973 58.2639 51.409 58.2639C51.7259 58.2639 51.9685 58.2639 52.2855 58.3344C53.7566 58.5456 55.1261 59.3867 55.9321 60.5759C56.0025 60.6816 56.1082 60.7168 56.249 60.752V60.8928C56.1082 65.5168 56.2138 70.0744 56.566 75.6803C56.7772 78.2036 57.0198 80.7268 57.2663 83.4574L57.4776 85.7342C58.2132 92.3221 57.9667 99.4693 57.7241 106.374L57.6537 108.757L57.372 110.685C56.7772 114.891 56.1786 119.237 54.9187 123.231C54.8483 123.442 54.7778 123.618 54.7074 123.79C54.2535 124.213 53.9014 124.455 53.2715 124.808C52.7824 125.124 52.0781 125.508 51.0647 126.208C50.5404 126.631 50.0474 126.979 49.5935 127.331L49.0692 127.718C48.9988 127.753 48.9636 127.789 48.8931 127.824C46.6864 120.219 46.1582 110.024 47.2811 96.7075L47.2772 96.6996ZM114.74 179.955H41.7407V179.92C41.2164 163.31 38.6223 149.715 33.751 138.398C33.6805 138.222 33.434 138.116 33.2619 138.187C33.0858 138.257 32.9802 138.504 33.0506 138.676C37.8515 149.923 40.4456 163.415 40.9699 179.952H2.94235V179.846C4.48396 155.106 13.8784 147.572 33.258 137.483C34.2401 136.994 35.1869 136.501 36.2003 135.976C40.966 133.84 45.0313 131.525 48.6779 128.97H48.7836C48.8892 128.935 48.9949 128.829 49.0301 128.723C49.1709 128.618 49.347 128.512 49.484 128.407L50.0083 127.984C50.4621 127.632 50.9551 127.249 51.4794 126.861C52.4615 126.196 53.1619 125.774 53.651 125.496C53.8623 125.39 54.0383 125.285 54.1753 125.179C53.651 126.439 53.0523 127.562 52.3872 128.544C51.9685 129.209 51.4755 129.803 50.9864 130.331C50.8456 130.472 50.8456 130.683 50.9864 130.82C51.0569 130.891 51.1625 130.961 51.2681 130.961C51.3386 130.961 51.409 130.926 51.4794 130.891C53.3732 129.631 55.0909 128.262 56.562 126.721C57.6498 125.633 58.5966 124.444 59.434 123.215C60.3456 123.88 61.3629 124.545 62.482 125.144C67.7758 128.019 75.2021 130.014 83.6497 130.014C84.7022 130.014 85.7508 129.979 86.8385 129.909C91.8859 129.627 97.2463 128.614 102.681 126.721C102.892 126.65 103.135 126.544 103.346 126.474C103.381 126.721 103.417 126.998 103.452 127.245C103.734 129.275 104.047 131.309 104.399 133.273C104.293 133.797 104.187 134.29 104.117 134.815L104.047 135.096C103.558 137.514 103.065 140.002 102.505 142.42C102.47 142.631 102.575 142.842 102.787 142.873H102.857C103.033 142.873 103.174 142.768 103.244 142.592C103.804 140.139 104.332 137.651 104.786 135.233L104.857 134.951V134.881C104.892 134.916 104.962 134.951 104.997 134.951H105.068C105.279 134.916 105.42 134.705 105.385 134.498C105.314 134.11 105.244 133.692 105.173 133.273C105.592 130.996 105.979 128.755 106.367 126.509C106.437 126.056 106.508 125.598 106.578 125.109C107.455 124.721 108.331 124.303 109.172 123.814C109.348 123.708 109.419 123.497 109.313 123.29C109.207 123.114 108.996 123.043 108.789 123.149C108.088 123.536 107.388 123.884 106.688 124.201C106.864 123.043 107.04 121.889 107.177 120.731C107.948 114.703 108.37 108.921 108.37 103.491C107.564 93.1553 106.128 83.5865 104.094 74.9683C103.182 71.0445 102.305 67.7858 101.359 64.7696C101.288 64.5584 101.077 64.4528 100.905 64.5232C100.693 64.5936 100.588 64.8049 100.658 64.977C101.57 67.9892 102.446 71.2128 103.358 75.1404C105.393 83.7234 106.829 93.2923 107.599 103.522C107.599 108.917 107.212 114.664 106.441 120.657C106.3 121.952 106.089 123.251 105.882 124.581C105.846 124.581 105.811 124.616 105.776 124.616C105.181 124.898 104.583 125.14 103.988 125.387L103.917 124.898C103.636 122.621 103.358 120.481 103.147 118.274C102.971 116.209 102.971 113.999 102.971 111.827C102.971 109.969 103.006 108.15 103.041 106.292C103.111 102.157 103.182 97.8811 102.9 93.8165C103.182 88.2809 102.971 82.6398 102.27 76.1223C102.235 75.7351 102.2 75.3517 102.129 74.9644C102.235 74.6123 102.305 74.2289 102.376 73.8769C102.411 73.6656 102.27 73.4543 102.094 73.4231H101.953C101.535 70.1995 101.006 67.1169 100.517 64.4528C100.517 64.3471 100.482 64.2767 100.482 64.2063C100.482 64.1711 100.447 64.1007 100.447 63.9951L99.9226 61.3662C99.7465 60.5251 99.5705 59.6488 99.3983 58.8077C99.3631 58.5965 99.1518 58.4556 98.9444 58.4908C98.7371 58.526 98.5923 58.7373 98.6275 58.9446C98.8036 59.8209 98.9797 60.662 99.1518 61.5383C99.324 62.4146 99.504 63.2557 99.6761 64.0968C99.6761 64.2376 99.7113 64.3784 99.7465 64.4841L99.7818 64.5897C100.341 67.6372 100.975 71.248 101.394 74.9605C101.323 75.2774 101.218 75.5903 101.112 75.9072C100.165 79.0251 98.4827 81.9708 96.2408 84.4902C96.1703 84.455 96.0999 84.4198 96.0295 84.455C95.8182 84.455 95.6773 84.6662 95.6773 84.8775V85.1239C92.0307 88.9773 87.5467 91.2228 83.0589 91.4653C78.571 91.3597 74.2631 89.6775 70.9334 86.7357C67.6389 83.8956 65.4321 80.0422 64.5557 75.5942C64.5205 75.383 64.3092 75.2774 64.1018 75.3126C64.137 74.1194 64.1722 72.9301 64.1722 71.7018C64.2075 68.1262 64.2779 64.4489 64.7318 60.9085C64.7318 60.8028 64.767 60.6972 64.767 60.5916C68.7971 52.3568 77.452 43.6682 88.071 42.4398C88.2823 42.4046 88.4232 42.2285 88.388 42.0173C88.3527 41.806 88.1767 41.6652 87.9693 41.6652C77.8745 42.8232 69.5718 50.4946 65.0839 58.3109C66.4846 50.3577 69.9904 45.276 76.2273 42.0525C76.4034 41.9469 76.4738 41.7356 76.4034 41.5283C76.2977 41.3522 76.0864 41.2818 75.8791 41.3522C66.872 46.0115 64.7357 54.3167 64.0001 60.3099C63.9297 60.4508 63.8592 60.6268 63.7888 60.7637C63.7184 60.9398 63.7536 61.1158 63.8944 61.2175C63.4758 64.6523 63.4054 68.1888 63.3701 71.6235C63.3349 73.0944 63.3349 74.5302 63.2645 76.005C63.4406 78.2466 63.6519 80.4882 63.8592 82.9097C64.6652 91.4927 65.4713 100.326 64.1762 108.561C63.2645 113.956 61.6525 118.372 59.2344 122.05C59.1992 122.12 59.1288 122.19 59.0936 122.261C58.9879 122.261 58.8823 122.331 58.8118 122.402C58.7414 122.507 58.7062 122.613 58.7414 122.719C57.7241 124.189 56.5699 125.523 55.2708 126.818C54.5705 127.483 53.8349 128.148 53.0289 128.782C53.2754 128.43 53.4827 128.047 53.694 127.659C54.2535 126.642 54.7818 125.488 55.2356 124.225C55.4821 123.978 55.7951 123.63 56.1473 123.208C56.2529 123.102 56.3586 122.996 56.4642 122.785C56.5699 122.609 56.4994 122.363 56.2881 122.261C56.1121 122.155 55.9008 122.226 55.7991 122.402C56.8868 118.654 57.4463 114.656 57.9706 110.802L58.2523 108.839L58.3228 106.421C58.5693 99.485 58.8118 92.2986 58.0762 85.6755L57.865 83.3987C57.6185 80.6994 57.3759 78.141 57.1646 75.6529C56.7772 70.047 56.6755 65.5247 56.8124 61.0063C56.9181 60.5525 56.9181 60.0596 56.8829 59.7114C59.1953 46.7117 67.678 31.224 83.9744 30.4181C84.1857 30.4181 84.3618 30.2421 84.3266 30.0308C84.3266 29.8196 84.1153 29.6787 83.9392 29.6787C67.185 30.5198 58.4949 46.3244 56.1473 59.6371V59.8483C55.2356 58.7256 53.9405 57.9197 52.5006 57.6771C52.9897 47.7249 57.9315 37.4598 65.1543 31.5017C67.1537 30.1012 69.4661 28.8377 71.8138 27.8244C74.0557 26.8425 76.4034 26.0718 78.614 25.5828V25.7237C78.6492 25.9349 78.8605 26.0406 79.0679 26.0053C79.6979 25.8293 80.3278 25.7237 80.9617 25.6533C95.9277 27.4763 101.605 47.9753 102.517 59.0111C102.517 59.0816 102.552 59.1168 102.587 59.152C101.394 60.4468 100.658 62.0273 100.521 63.7056C100.521 63.9168 100.662 64.0929 100.873 64.1281C101.085 64.1281 101.261 63.9872 101.292 63.776C101.433 61.9178 102.415 60.1652 103.921 58.9055C105.639 57.4698 108.409 56.5583 110.686 58.3813C110.792 58.4869 110.933 58.5925 111.039 58.6982C114.087 62.3755 111.88 67.5276 108.515 70.7511C108.515 70.7511 108.48 70.7863 108.48 70.8216C108.48 70.8216 108.444 70.8216 108.444 70.8568C108.409 70.892 108.374 70.9272 108.304 70.9624C107.11 72.0851 105.709 72.9614 104.309 73.5913C104.133 73.6617 104.027 73.9081 104.097 74.0803C104.168 74.2211 104.309 74.3267 104.45 74.3267C104.485 74.3267 104.555 74.3267 104.59 74.2915C105.886 73.7321 107.185 72.9262 108.304 71.9795C108.374 71.9091 108.444 71.8739 108.515 71.8035C108.48 71.8739 108.48 71.9091 108.48 71.9795C109.215 78.9507 110.757 85.2609 112.404 91.9543C113.175 95.1778 114.016 98.507 114.681 101.836C115.628 109.965 115.699 117.324 114.857 124.33C114.857 124.436 114.822 124.542 114.822 124.647C114.822 124.753 114.822 124.823 114.893 124.894C114.857 124.858 114.822 124.858 114.752 124.823C114.505 124.682 114.263 124.506 114.016 124.369C111.88 123.075 109.81 121.741 108.057 120.41C107.881 120.27 107.638 120.305 107.533 120.481C107.392 120.657 107.427 120.903 107.603 121.005C109.145 122.163 110.968 123.352 112.827 124.51C113.668 125.034 114.509 125.563 115.386 126.087C117.35 127.245 119.345 128.434 121.345 129.698C125.833 131.728 132.034 134.638 135.994 136.497C137.606 136.986 138.901 137.408 140.13 137.862C136.905 143.362 134.417 148.409 132.245 153.702C129.44 162.672 128.215 172.167 127.48 179.596C127.48 179.736 127.445 179.877 127.445 180.018H114.756V179.948L114.74 179.955ZM64.7278 82.7885C64.5518 80.8598 64.3757 79.0407 64.2388 77.2529C65.2561 80.8989 67.1811 84.0872 69.8457 86.6418C69.8104 86.677 69.8104 86.7474 69.8104 86.7826C69.4583 95.5065 68.5506 102.165 65.1152 108.123C66.3086 99.9231 65.5339 91.1993 64.7278 82.7885ZM65.0096 108.964L65.0448 108.999C65.1152 109.034 65.1856 109.069 65.2561 109.069C65.3969 109.069 65.5026 108.999 65.573 108.893C69.2196 102.83 70.1978 96.105 70.5852 87.3068C74.0557 90.3543 78.5045 92.0717 83.1684 92.1773C87.6876 91.9309 92.1402 89.7597 95.8534 86.0785L95.8886 86.3601C96.5538 95.2248 97.2189 104.371 101.812 111.87C101.883 111.976 102.024 112.047 102.129 112.047C102.2 112.047 102.27 112.047 102.341 111.976L102.376 111.941C102.376 114.077 102.376 116.287 102.552 118.353C102.763 120.559 103.041 122.699 103.323 125.011L103.393 125.676C103.111 125.782 102.869 125.887 102.587 125.993C95.6812 128.411 88.9905 129.357 82.8554 129.252C75.0065 129.111 68.171 127.253 63.1589 124.592C62.0007 123.963 60.9521 123.298 59.97 122.593C60.0052 122.523 60.0404 122.488 60.0756 122.417C62.4233 118.705 64.0705 114.323 65.0174 108.964H65.0096ZM101.632 76.7952C102.298 83.031 102.474 88.4648 102.192 93.8243C102.474 97.8889 102.403 102.165 102.333 106.3C102.298 107.982 102.298 109.629 102.262 111.276C97.8802 103.953 97.215 94.947 96.5499 86.2584L96.4794 85.3117L96.5146 85.2765C98.8271 82.7885 100.58 79.8818 101.632 76.7952ZM105.592 126.693C105.346 128.129 105.103 129.6 104.857 131.039C104.645 129.709 104.438 128.375 104.262 127.01C104.227 126.728 104.191 126.451 104.156 126.134C104.716 125.922 105.279 125.68 105.803 125.433C105.698 125.887 105.663 126.31 105.592 126.693ZM128.337 179.955V179.92C128.337 179.815 128.372 179.674 128.372 179.568C129.107 172.21 130.336 162.786 133.102 153.917C135.239 148.659 137.762 143.617 140.986 138.077C141.933 138.394 142.81 138.707 143.686 139.024C146.034 139.9 148.241 140.847 150.346 141.864C152.028 142.635 153.534 143.652 154.97 144.634C155.6 145.056 156.23 145.475 156.864 145.858C161.489 148.135 165.1 151.01 168.571 155.282C173.059 160.47 175.301 167.687 176.212 171.541C176.6 172.836 176.878 173.782 177.124 174.518C177.754 176.548 177.895 177.006 178.212 179.948H128.341L128.337 179.955Z" fill="#454138"/>
</svg>
