<svg width="279" height="176" viewBox="0 0 279 176" fill="none" xmlns="http://www.w3.org/2000/svg">
<path d="M204.478 174.757C202.399 174.757 202.399 174.629 200.316 174.629C200.219 174.629 200.094 174.629 200.063 174.505C199.683 173.02 199.779 172.989 199.399 171.539C199.022 170.054 198.959 170.085 198.579 168.604C198.202 167.12 198.295 167.088 197.918 165.635C197.537 164.154 197.506 164.154 197.129 162.7C196.748 161.219 196.655 161.25 196.274 159.766C195.897 158.285 195.897 158.285 195.52 156.831C195.392 156.326 195.738 155.758 196.243 155.758C197.852 155.758 197.852 155.727 199.461 155.727C201.073 155.727 201.073 155.886 202.682 155.886C203.091 155.886 203.565 156.17 203.596 156.61C203.689 158.094 203.437 158.126 203.565 159.61C203.658 161.091 203.88 161.091 203.973 162.576C204.07 164.06 204.008 164.06 204.132 165.573C204.226 167.057 204.323 167.057 204.416 168.538C204.513 170.023 204.447 170.023 204.544 171.539C204.637 173.02 204.762 173.02 204.859 174.505C204.89 174.567 204.637 174.757 204.478 174.757Z" fill="#F5F3F1"/>
<path d="M186.084 174.788C184.001 174.788 184.001 174.726 181.918 174.726C181.824 174.726 181.696 174.629 181.665 174.505C181.288 173.02 181.444 172.989 181.067 171.508C180.689 170.023 180.499 170.086 180.118 168.604C179.741 167.12 179.741 167.12 179.364 165.635C178.984 164.154 179.015 164.154 178.606 162.669C178.226 161.188 178.164 161.219 177.786 159.735C177.406 158.254 177.468 158.254 177.091 156.769C176.966 156.264 177.312 155.634 177.849 155.634C179.458 155.634 179.458 155.79 181.067 155.79C182.676 155.79 182.676 155.821 184.285 155.821C184.696 155.821 185.136 156.074 185.167 156.516C185.264 158.001 185.167 158.001 185.264 159.513C185.357 160.998 185.295 160.998 185.388 162.514C185.485 163.995 185.454 163.995 185.547 165.511C185.641 166.995 185.707 166.995 185.8 168.476C185.894 169.961 186.053 169.961 186.146 171.442C186.24 172.923 186.274 172.927 186.368 174.411C186.399 174.567 186.243 174.788 186.084 174.788Z" fill="#F5F3F1"/>
<path d="M94.2963 174.788C96.2201 174.788 96.2201 174.536 98.1751 174.536C98.3343 174.536 98.5869 174.598 98.618 174.411C98.9952 172.958 99.0263 172.958 99.4069 171.473C99.7841 170.023 99.5626 169.961 99.9433 168.476C100.32 167.026 100.48 167.057 100.857 165.573C101.237 164.123 101.14 164.092 101.521 162.607C101.898 161.157 101.836 161.122 102.213 159.672C102.594 158.219 102.846 158.254 103.223 156.8C103.352 156.295 102.815 155.758 102.31 155.758C100.701 155.758 100.701 155.727 99.0921 155.727C97.4831 155.727 97.4831 155.665 95.8706 155.665C95.4623 155.665 95.0506 156.105 95.0194 156.516C94.926 158.001 94.8949 158.001 94.798 159.482C94.7046 160.967 94.6111 160.967 94.5143 162.417C94.4208 163.901 94.4831 163.901 94.3897 165.386C94.2963 166.867 94.3897 166.867 94.2963 168.352C94.1994 169.833 94.0091 169.802 93.9157 171.286C93.8222 172.771 94.0748 172.767 93.9779 174.252C94.0437 174.505 94.0748 174.788 94.2963 174.788Z" fill="#F5F3F1"/>
<path d="M75.8981 174.788C77.8219 174.788 77.8219 174.567 79.7804 174.567C79.9361 174.567 80.0018 174.536 80.033 174.377C80.4101 172.927 80.5693 172.958 80.9465 171.473C81.3271 170.023 81.2302 169.992 81.6108 168.507C81.988 167.057 82.0503 167.057 82.4309 165.604C82.808 164.154 82.8703 164.154 83.2509 162.701C83.6281 161.251 83.725 161.251 84.1333 159.797C84.5139 158.347 84.4793 158.316 84.8599 156.862C84.9845 156.357 84.5139 155.918 84.0087 155.918C82.3997 155.918 82.3997 155.887 80.7908 155.887C79.1818 155.887 79.1783 155.759 77.5693 155.759C77.161 155.759 76.9085 156.17 76.8773 156.579C76.7804 158.063 76.7493 158.063 76.6559 159.544C76.5624 161.029 76.3098 160.998 76.213 162.483C76.1195 163.964 76.3098 163.964 76.213 165.448C76.1195 166.929 75.9292 166.898 75.8358 168.383C75.7389 169.864 75.8981 169.864 75.8047 171.349C75.7112 172.833 75.7735 172.833 75.6766 174.314C75.5832 174.505 75.6766 174.788 75.8981 174.788Z" fill="#F5F3F1"/>
<path d="M187.787 1.94849C187.787 3.36734 187.755 3.36734 187.755 4.78618C187.755 6.2085 187.915 6.20849 187.915 7.62734C187.915 9.04965 187.787 9.04966 187.787 10.4685C187.787 11.8874 187.755 11.8874 187.755 13.3097C187.755 14.7285 187.662 14.7285 187.662 16.1474C187.662 17.5697 187.631 17.5697 187.631 18.9885C187.631 20.4074 187.883 20.4074 187.883 21.8297C187.883 23.2485 187.821 23.2485 187.821 24.6674C187.821 26.0897 187.724 26.0897 187.724 27.5085C187.724 28.9309 187.724 28.9309 187.724 30.3497C187.724 31.7686 187.631 31.7686 187.631 33.1909C187.631 34.6097 187.852 34.6097 187.852 36.0286C187.852 37.4509 187.662 37.4509 187.662 38.8697C187.662 40.2886 187.662 40.2886 187.662 41.7109C187.662 43.1297 187.883 43.1297 187.883 44.5486C187.883 45.9709 187.755 45.9709 187.755 47.3897C187.755 48.8121 187.755 48.8121 187.755 50.2309C187.755 51.6498 187.724 51.6498 187.724 53.0721C187.724 54.4909 187.787 54.4909 187.787 55.9098C187.787 57.3321 187.631 57.3321 187.631 58.7509C187.631 60.1698 187.724 60.1698 187.724 61.5921C187.724 63.0109 187.724 63.0109 187.724 64.4332C187.724 65.8521 187.662 65.8521 187.662 67.2709C187.662 68.6933 187.883 68.6933 187.883 70.1121C187.883 71.531 187.883 71.531 187.883 72.9533C187.883 74.3721 187.755 74.3721 187.755 75.791C187.755 77.2133 187.693 77.2133 187.693 78.6321C187.693 80.051 187.693 80.051 187.693 81.4733C187.693 82.8921 187.821 82.8921 187.821 84.3144C187.821 85.7333 187.662 85.7333 187.662 87.1522C187.662 88.5745 187.852 88.5745 187.852 89.9933C187.852 91.4122 187.852 91.4122 187.852 92.8345C187.852 94.2533 187.755 94.2533 187.755 95.6722C187.755 97.0945 187.852 97.0945 187.852 98.5133C187.852 99.9357 187.755 99.9356 187.755 101.354C187.755 102.773 187.946 102.773 187.946 104.196C187.946 105.615 187.852 105.615 187.852 107.033C187.852 108.456 187.883 108.456 187.883 109.875C187.883 111.293 187.821 111.293 187.821 112.716C187.821 114.135 187.755 114.135 187.755 115.553C187.755 116.976 187.977 116.976 187.977 118.395C187.977 119.817 187.787 119.817 187.787 121.236C187.787 122.655 187.977 122.655 187.977 124.077C187.977 125.496 187.693 125.496 187.693 126.915C187.693 128.337 187.662 128.337 187.662 129.756C187.662 131.175 187.883 131.175 187.883 132.597C187.883 134.016 187.724 134.016 187.724 135.435C187.724 136.853 187.883 136.857 187.883 138.276C187.883 139.698 187.755 139.698 187.755 141.117C187.755 142.536 187.946 142.536 187.946 143.958C187.946 145.377 187.821 145.377 187.821 146.796C187.821 148.218 187.787 148.218 187.787 149.637C187.787 151.056 187.946 151.056 187.946 152.478C187.946 153.897 187.787 153.897 187.787 155.319" stroke="#2E3343" stroke-width="1.00174" stroke-linecap="round" stroke-linejoin="round"/>
<path d="M204.478 174.757C202.399 174.757 202.399 174.629 200.316 174.629C200.219 174.629 200.094 174.629 200.063 174.505C199.683 173.02 199.779 172.989 199.399 171.539C199.022 170.054 198.959 170.085 198.579 168.604C198.202 167.12 198.295 167.088 197.918 165.635C197.537 164.154 197.506 164.154 197.129 162.7C196.748 161.219 196.655 161.25 196.274 159.766C195.897 158.285 195.897 158.285 195.52 156.831C195.392 156.326 195.738 155.758 196.243 155.758C197.852 155.758 197.852 155.727 199.461 155.727C201.073 155.727 201.073 155.886 202.682 155.886C203.091 155.886 203.565 156.17 203.596 156.61C203.689 158.094 203.437 158.126 203.565 159.61C203.658 161.091 203.88 161.091 203.973 162.576C204.07 164.06 204.008 164.06 204.132 165.573C204.226 167.057 204.323 167.057 204.416 168.538C204.513 170.023 204.447 170.023 204.544 171.539C204.637 173.02 204.762 173.02 204.859 174.505C204.89 174.567 204.637 174.757 204.478 174.757Z" stroke="#2E3343" stroke-width="1.00174" stroke-linecap="round" stroke-linejoin="round"/>
<path d="M186.084 174.788C184.001 174.788 184.001 174.726 181.918 174.726C181.824 174.726 181.696 174.629 181.665 174.505C181.288 173.02 181.444 172.989 181.067 171.508C180.689 170.023 180.499 170.086 180.118 168.604C179.741 167.12 179.741 167.12 179.364 165.635C178.984 164.154 179.015 164.154 178.606 162.669C178.226 161.188 178.164 161.219 177.786 159.735C177.406 158.254 177.468 158.254 177.091 156.769C176.966 156.264 177.312 155.634 177.849 155.634C179.458 155.634 179.458 155.79 181.067 155.79C182.676 155.79 182.676 155.821 184.285 155.821C184.696 155.821 185.136 156.074 185.167 156.516C185.264 158.001 185.167 158.001 185.264 159.513C185.357 160.998 185.295 160.998 185.388 162.514C185.485 163.995 185.454 163.995 185.547 165.511C185.641 166.995 185.707 166.995 185.8 168.476C185.894 169.961 186.053 169.961 186.146 171.442C186.24 172.923 186.274 172.927 186.368 174.411C186.399 174.567 186.243 174.788 186.084 174.788Z" stroke="#2E3343" stroke-width="1.00174" stroke-linecap="round" stroke-linejoin="round"/>
<path d="M94.2963 174.788C96.2201 174.788 96.2201 174.536 98.1751 174.536C98.3343 174.536 98.5869 174.598 98.618 174.411C98.9952 172.958 99.0263 172.958 99.4069 171.473C99.7841 170.023 99.5626 169.961 99.9433 168.476C100.32 167.026 100.48 167.057 100.857 165.573C101.237 164.123 101.14 164.092 101.521 162.607C101.898 161.157 101.836 161.122 102.213 159.672C102.594 158.219 102.846 158.254 103.223 156.8C103.352 156.295 102.815 155.758 102.31 155.758C100.701 155.758 100.701 155.727 99.0921 155.727C97.4831 155.727 97.4831 155.665 95.8706 155.665C95.4623 155.665 95.0506 156.105 95.0194 156.516C94.926 158.001 94.8949 158.001 94.798 159.482C94.7046 160.967 94.6111 160.967 94.5143 162.417C94.4208 163.901 94.4831 163.901 94.3897 165.386C94.2963 166.867 94.3897 166.867 94.2963 168.352C94.1994 169.833 94.0091 169.802 93.9157 171.286C93.8222 172.771 94.0748 172.767 93.9779 174.252C94.0437 174.505 94.0748 174.788 94.2963 174.788Z" stroke="#2E3343" stroke-width="1.00174" stroke-linecap="round" stroke-linejoin="round"/>
<path d="M75.8981 174.788C77.8219 174.788 77.8219 174.567 79.7804 174.567C79.9361 174.567 80.0018 174.536 80.033 174.377C80.4101 172.927 80.5693 172.958 80.9465 171.473C81.3271 170.023 81.2302 169.992 81.6108 168.507C81.988 167.057 82.0503 167.057 82.4309 165.604C82.808 164.154 82.8703 164.154 83.2509 162.701C83.6281 161.251 83.725 161.251 84.1333 159.797C84.5139 158.347 84.4793 158.316 84.8599 156.862C84.9845 156.357 84.5139 155.918 84.0087 155.918C82.3997 155.918 82.3997 155.887 80.7908 155.887C79.1818 155.887 79.1783 155.759 77.5693 155.759C77.161 155.759 76.9085 156.17 76.8773 156.579C76.7804 158.063 76.7493 158.063 76.6559 159.544C76.5624 161.029 76.3098 160.998 76.213 162.483C76.1195 163.964 76.3098 163.964 76.213 165.448C76.1195 166.929 75.9292 166.898 75.8358 168.383C75.7389 169.864 75.8981 169.864 75.8047 171.349C75.7112 172.833 75.7735 172.833 75.6766 174.314C75.5832 174.505 75.6766 174.788 75.8981 174.788Z" stroke="#2E3343" stroke-width="1.00174" stroke-linecap="round" stroke-linejoin="round"/>
<path d="M79.1788 150.235C78.9297 150.235 78.6113 150.111 78.6113 149.858C78.6113 148.439 78.7394 148.439 78.7394 147.017C78.7394 145.598 78.6425 145.598 78.6425 144.176C78.6425 142.757 78.7082 142.757 78.7082 141.369C78.7082 139.951 78.6771 139.951 78.6771 138.559C78.6771 137.141 78.8639 137.141 78.8639 135.722C78.8639 134.299 78.8328 134.299 78.8328 132.881C78.8328 131.458 78.9297 131.458 78.9297 130.039C78.9297 128.621 78.7394 128.621 78.7394 127.198C78.7394 125.779 78.7082 125.779 78.7082 124.361C78.7082 122.938 78.6425 122.938 78.6425 121.519C78.6425 120.101 78.7705 120.101 78.7705 118.678C78.7705 117.259 78.6771 117.259 78.6771 115.84C78.6771 114.418 78.6771 114.418 78.6771 112.999C78.6771 111.577 78.7394 111.577 78.7394 110.158C78.7394 108.739 78.6771 108.739 78.6771 107.317C78.6771 105.898 78.8951 105.898 78.8951 104.479C78.8951 103.057 78.7082 103.057 78.7082 101.669C78.7082 100.25 78.7082 100.25 78.7082 98.8281C78.7082 97.4093 78.7705 97.4093 78.7705 95.9904C78.7705 94.5681 78.7394 94.5681 78.7394 93.1493C78.7394 91.7304 78.7394 91.7304 78.7394 90.3081C78.7394 88.8893 78.7705 88.8893 78.7705 87.467C78.7705 86.0447 78.8016 86.0481 78.8016 84.6293C78.8016 83.207 78.6425 83.207 78.6425 81.7881C78.6425 81.5355 78.9608 81.314 79.1788 81.314C80.6009 81.314 80.6009 81.314 82.0196 81.314C83.4417 81.314 83.4417 81.2517 84.8604 81.2517C86.2791 81.2517 86.2791 81.2829 87.7012 81.2829C89.1199 81.2829 89.1198 81.3763 90.5385 81.3763C91.9572 81.3763 91.9607 81.2517 93.3793 81.2517C94.798 81.2517 94.798 81.2517 96.2201 81.2517C96.535 81.2517 96.7876 81.2517 96.9779 81.2829C97.009 81.2829 97.009 81.314 97.009 81.314V81.3763C97.009 82.7986 97.1647 82.7986 97.1647 84.2486C97.1647 85.6709 97.009 85.6709 97.009 87.1209C97.009 88.5432 97.1647 88.5432 97.1647 89.9932C97.1647 91.4121 97.1959 91.4121 97.1959 92.8655C97.1959 94.2844 97.1959 94.2844 97.1959 95.7378C97.1959 97.1567 96.9467 97.1567 96.9467 98.6101C96.9467 100.029 97.0713 100.029 97.0713 101.479C97.0713 102.901 96.9779 102.901 96.9779 104.351C96.9779 105.774 97.1647 105.774 97.1647 107.224C97.1647 108.642 97.2305 108.642 97.2305 110.096C97.2305 111.515 97.009 111.515 97.009 112.968C97.009 114.387 97.1025 114.387 97.1025 115.84C97.1025 117.259 97.1025 117.259 97.1025 118.709C97.1025 120.132 97.0402 120.132 97.0402 121.582C97.0402 123.004 97.009 123.004 97.009 124.454C97.009 125.873 97.1959 125.873 97.1959 127.326C97.1959 128.745 97.1025 128.745 97.1025 130.199C97.1025 131.617 96.9779 131.617 96.9779 133.071C96.9779 134.49 97.1959 134.49 97.1959 135.94C97.1959 137.362 97.0402 137.362 97.0402 138.812C97.0402 140.234 97.2928 140.234 97.2928 141.684C97.2928 143.103 97.009 143.103 97.009 144.557C97.009 145.975 97.0402 145.975 97.0402 147.429C97.0402 148.848 97.009 148.848 97.009 150.301V150.395C97.009 150.426 97.009 150.426 96.9779 150.426C96.7876 150.426 96.5661 150.457 96.2513 150.457C94.8326 150.457 94.8326 150.395 93.4105 150.395C91.9883 150.395 91.9918 150.235 90.5697 150.235C89.151 150.235 89.151 150.173 87.7323 150.173C86.3137 150.173 86.3102 150.204 84.8915 150.204C83.4729 150.204 83.4729 150.204 82.0507 150.204C80.6009 150.173 80.6009 150.235 79.1788 150.235Z" fill="#F5F3F1"/>
<path d="M133.704 150.426C133.452 150.426 133.23 150.111 133.23 149.889C133.23 148.471 133.23 148.471 133.23 147.048C133.23 145.629 133.168 145.629 133.168 144.211C133.168 142.788 133.199 142.788 133.199 141.401C133.199 139.982 133.296 139.982 133.296 138.591C133.296 137.172 133.168 137.172 133.168 135.753C133.168 134.331 133.168 134.33 133.168 132.912C133.168 131.493 133.389 131.493 133.389 130.07C133.389 128.652 133.327 128.652 133.327 127.233C133.327 125.81 133.389 125.81 133.389 124.392C133.389 122.969 133.327 122.969 133.327 121.55C133.327 120.132 133.199 120.132 133.199 118.709C133.199 117.29 133.358 117.29 133.358 115.872C133.358 114.449 133.265 114.449 133.265 113.03C133.265 111.612 133.421 111.612 133.421 110.189C133.421 108.767 133.358 108.77 133.358 107.348C133.358 105.929 133.389 105.929 133.389 104.51C133.389 103.088 133.358 103.088 133.358 101.7C133.358 100.282 133.168 100.282 133.168 98.8593C133.168 97.4404 133.327 97.4404 133.327 96.0216C133.327 94.5992 133.296 94.5992 133.296 93.1804C133.296 91.7615 133.389 91.7615 133.389 90.3392C133.389 88.9204 133.358 88.9204 133.358 87.5015C133.358 86.0827 133.199 86.0792 133.199 84.6604C133.199 83.2415 133.358 83.2415 133.358 81.8192C133.358 81.5666 133.452 81.3451 133.704 81.3451C135.126 81.3451 135.126 81.314 136.545 81.314C137.964 81.314 137.964 81.314 139.386 81.314C140.805 81.314 140.805 81.5666 142.223 81.5666C143.645 81.5666 143.645 81.4731 145.064 81.4731C146.483 81.4731 146.483 81.5666 147.905 81.5666C149.323 81.5666 149.323 81.3763 150.746 81.3763C151.092 81.3763 151.375 81.3763 151.597 81.3763C151.628 81.3763 151.628 81.3763 151.628 81.4109V81.442C151.628 82.8609 151.721 82.8609 151.721 84.3143C151.721 85.7332 151.69 85.7332 151.69 87.1832C151.69 88.6055 151.628 88.6055 151.628 90.0555C151.628 91.4778 151.69 91.4778 151.69 92.9278C151.69 94.3466 151.469 94.3466 151.469 95.8001C151.469 97.2189 151.659 97.2189 151.659 98.6724C151.659 100.091 151.659 100.091 151.659 101.545C151.659 102.964 151.597 102.964 151.597 104.414C151.597 105.836 151.628 105.836 151.628 107.286C151.628 108.708 151.628 108.708 151.628 110.158C151.628 111.577 151.597 111.577 151.597 113.03C151.597 114.449 151.566 114.449 151.566 115.903C151.566 117.322 151.721 117.322 151.721 118.775C151.721 120.194 151.535 120.194 151.535 121.644C151.535 123.066 151.5 123.066 151.5 124.516C151.5 125.939 151.69 125.939 151.69 127.389C151.69 128.807 151.784 128.807 151.784 130.261C151.784 131.68 151.784 131.68 151.784 133.133C151.784 134.552 151.535 134.552 151.535 136.005C151.535 137.424 151.721 137.424 151.721 138.874C151.721 140.297 151.628 140.297 151.628 141.747C151.628 143.169 151.721 143.169 151.721 144.619C151.721 146.041 151.566 146.041 151.566 147.491C151.566 148.91 151.69 148.91 151.69 150.363V150.426C151.69 150.457 151.69 150.457 151.659 150.457C151.406 150.457 151.123 150.457 150.746 150.457C149.323 150.457 149.323 150.395 147.905 150.395C146.483 150.395 146.483 150.426 145.064 150.426C143.645 150.426 143.645 150.426 142.223 150.426C140.801 150.426 140.805 150.395 139.386 150.395C137.964 150.395 137.964 150.363 136.545 150.363C135.092 150.235 135.092 150.426 133.704 150.426Z" fill="#F5F3F1"/>
<path d="M133.704 76.0435C133.452 76.0435 133.168 75.9189 133.168 75.6974C133.168 74.2786 133.327 74.2786 133.327 72.8874C133.327 71.4686 133.296 71.4685 133.296 70.0497C133.296 68.6274 133.389 68.6274 133.389 67.2397C133.389 65.8208 133.358 65.8208 133.358 64.3985C133.358 62.9797 133.199 62.9797 133.199 61.5608C133.199 60.1385 133.358 60.1385 133.358 58.7197C133.358 57.3008 133.199 57.3008 133.199 55.8785C133.199 54.4597 133.168 54.4596 133.168 53.0719C133.168 51.6496 133.168 51.6496 133.168 50.2308C133.168 48.8119 133.421 48.8119 133.421 47.3896C133.421 45.9708 133.327 45.9708 133.327 44.5485C133.327 43.1296 133.421 43.1296 133.421 41.7108C133.421 40.2885 133.23 40.2884 133.23 38.8696C133.23 37.4507 133.168 37.4508 133.168 36.0284C133.168 34.6061 133.389 34.6096 133.389 33.1907C133.389 31.7684 133.296 31.7684 133.296 30.3496C133.296 28.9307 133.296 28.9307 133.296 27.5084C133.296 26.0896 133.358 26.0896 133.358 24.6673C133.358 23.2484 133.389 23.2484 133.389 21.8296C133.389 20.4072 133.199 20.4072 133.199 19.0195C133.199 17.6318 133.296 17.6007 133.296 16.1784C133.296 14.7595 133.389 14.7595 133.389 13.3407C133.389 11.9184 133.168 11.9184 133.168 10.4995C133.168 9.08067 133.327 9.08067 133.327 7.65835C133.327 7.40573 133.421 7.09082 133.642 7.09082C135.061 7.09082 135.061 7.37459 136.483 7.37459C137.901 7.37459 137.901 7.34345 139.32 7.34345C140.742 7.34345 140.742 7.37459 142.161 7.37459C143.583 7.37459 143.583 7.21886 145.002 7.21886C146.42 7.21886 146.42 7.28115 147.843 7.28115C149.261 7.28115 149.261 7.12196 150.68 7.12196C151.06 7.12196 151.313 7.12196 151.535 7.15311C151.566 7.15311 151.566 7.15311 151.566 7.18425V7.25001C151.566 8.66886 151.5 8.66886 151.5 10.1223C151.5 11.5412 151.659 11.5412 151.659 12.9912C151.659 14.4412 151.535 14.4135 151.535 15.8635C151.535 17.3135 151.597 17.2858 151.597 18.7358C151.597 20.1546 151.628 20.1546 151.628 21.6081C151.628 23.0269 151.5 23.0269 151.5 24.4804C151.5 25.8992 151.721 25.8992 151.721 27.3527C151.721 28.7715 151.628 28.7715 151.628 30.2215C151.628 31.6438 151.469 31.6438 151.469 33.0938C151.469 34.5161 151.406 34.5162 151.406 35.9662C151.406 37.385 151.438 37.385 151.438 38.8385C151.438 40.2573 151.438 40.2573 151.438 41.7108C151.438 43.1296 151.5 43.1296 151.5 44.5831C151.5 46.0019 151.69 46.0019 151.69 47.4519C151.69 48.8742 151.566 48.8742 151.566 50.3242C151.566 51.7465 151.659 51.7465 151.659 53.1965C151.659 54.6154 151.597 54.6154 151.597 56.0688C151.597 57.4877 151.628 57.4877 151.628 58.9411C151.628 60.36 151.438 60.36 151.438 61.8134C151.438 63.2323 151.5 63.2323 151.5 64.6823C151.5 66.1046 151.406 66.1046 151.406 67.5546C151.406 68.9769 151.597 68.9769 151.597 70.4269C151.597 71.8492 151.628 71.8492 151.628 73.2992C151.628 74.7181 151.69 74.7181 151.69 76.1404C151.69 76.1715 151.69 76.1715 151.721 76.1715C151.753 76.1715 151.753 76.2338 151.721 76.2338C151.469 76.2649 151.154 76.2649 150.68 76.2649C149.261 76.2649 149.261 76.1092 147.843 76.1092C146.42 76.1092 146.42 76.2027 145.002 76.2027C143.583 76.2027 143.583 76.0435 142.161 76.0435C140.739 76.0435 140.742 76.1092 139.32 76.1092C137.901 76.1092 137.901 76.0746 136.483 76.0746C135.092 76.0123 135.092 76.0435 133.704 76.0435Z" fill="#F5F3F1"/>
<path d="M82.0196 76.1715C80.6009 76.1715 80.6009 76.0123 79.1788 76.0123C78.9297 76.0123 78.6113 75.9189 78.6113 75.6974C78.6113 74.2786 78.8951 74.2786 78.8951 72.8874C78.8951 71.4685 78.8639 71.4685 78.8639 70.0497C78.8639 68.6274 78.8951 68.6274 78.8951 67.2397C78.8951 65.8208 78.7394 65.8208 78.7394 64.3985C78.7394 62.9797 78.8016 62.9797 78.8016 61.5608C78.8016 60.1385 78.6425 60.1385 78.6425 58.7197C78.6425 57.3008 78.8016 57.3008 78.8016 55.8785C78.8016 54.4596 78.7705 54.4596 78.7705 53.0719C78.7705 51.6496 78.7394 51.6496 78.7394 50.2308C78.7394 48.8119 78.8639 48.8119 78.8639 47.3896C78.8639 45.9708 78.6425 45.9708 78.6425 44.5485C78.6425 43.1296 78.7394 43.1296 78.7394 41.7108C78.7394 40.2885 78.8951 40.2884 78.8951 38.8696C78.8951 37.4507 78.9608 37.4507 78.9608 36.0284C78.9608 34.6061 78.9297 34.6096 78.9297 33.1907C78.9297 31.7684 78.9297 31.7684 78.9297 30.3496C78.9297 28.9307 78.8639 28.9307 78.8639 27.5084C78.8639 26.0896 78.6771 26.0896 78.6771 24.6673C78.6771 23.2484 78.8016 23.2484 78.8016 21.8296C78.8016 20.4072 78.7082 20.4072 78.7082 19.0195C78.7082 17.6318 78.7705 17.6007 78.7705 16.1784C78.7705 14.7595 78.7394 14.7595 78.7394 13.3407C78.7394 11.9184 78.9297 11.9184 78.9297 10.4995C78.9297 9.08067 78.8951 9.08067 78.8951 7.65835C78.8951 7.40573 79.0231 7.37459 79.2757 7.37459C80.6944 7.37459 80.6943 7.18425 82.1165 7.18425C83.5351 7.18425 83.5351 7.15311 84.9538 7.15311C86.3759 7.15311 86.3759 7.09082 87.7946 7.09082C89.2133 7.09082 89.2133 7.21886 90.6354 7.21886C92.0575 7.21886 92.0541 7.12196 93.4727 7.12196C94.8949 7.12196 94.8949 7.12196 96.3135 7.12196C96.5973 7.12196 96.8187 7.12196 97.009 7.12196C97.0402 7.12196 97.0402 7.12196 97.0402 7.15311V7.21886C97.0402 8.63771 97.2305 8.63771 97.2305 10.0877C97.2305 11.51 97.1336 11.51 97.1336 12.96C97.1336 14.41 97.2616 14.3823 97.2616 15.8323C97.2616 17.2823 97.2616 17.2512 97.2616 18.7046C97.2616 20.1235 97.3239 20.1235 97.3239 21.5769C97.3239 22.9958 97.2928 22.9958 97.2928 24.4492C97.2928 25.8681 97.1959 25.8681 97.1959 27.3181C97.1959 28.7404 97.3239 28.7404 97.3239 30.1904C97.3239 31.6127 97.3239 31.6127 97.3239 33.0627C97.3239 34.485 97.1025 34.485 97.1025 35.935C97.1025 37.3539 97.1647 37.3538 97.1647 38.8073C97.1647 40.2262 97.1025 40.2262 97.1025 41.6796C97.1025 43.0985 97.1336 43.0985 97.1336 44.5485C97.1336 45.9708 97.2616 45.9708 97.2616 47.4208C97.2616 48.8431 97.1336 48.8431 97.1336 50.2931C97.1336 51.7154 97.2305 51.7154 97.2305 53.1654C97.2305 54.5842 97.0713 54.5842 97.0713 56.0377C97.0713 57.4565 97.1336 57.4565 97.1336 58.91C97.1336 60.3288 97.1025 60.3288 97.1025 61.7823C97.1025 63.2011 97.1336 63.2011 97.1336 64.6511C97.1336 66.0734 97.3239 66.0735 97.3239 67.5234C97.3239 68.9458 97.1647 68.9458 97.1647 70.3957C97.1647 71.8146 97.1959 71.8146 97.1959 73.2681C97.1959 74.6558 97.1025 74.6869 97.1025 76.0123C97.1025 76.0435 97.1025 76.0435 97.0713 76.0435C96.881 76.0435 96.6284 76.0435 96.3447 76.0435C94.926 76.0435 94.926 76.0123 93.5073 76.0123C92.0887 76.0123 92.0852 76.2027 90.6666 76.2027C89.2444 76.2027 89.2444 76.1092 87.8257 76.1092C86.4071 76.1092 86.4071 75.9812 84.985 75.9812C83.4417 75.95 83.4417 76.1715 82.0196 76.1715Z" fill="#F5F3F1"/>
<path d="M133.168 53.1031C133.168 54.522 133.199 54.522 133.199 55.9097C133.199 57.332 133.358 57.332 133.358 58.7508C133.358 60.1697 133.199 60.1697 133.199 61.592C133.199 63.0108 133.358 63.0108 133.358 64.4331C133.358 65.852 133.389 65.852 133.389 67.2709C133.389 68.6932 133.296 68.6932 133.296 70.0809C133.296 71.4997 133.327 71.4997 133.327 72.922C133.327 74.3409 133.168 74.3409 133.168 75.7286C133.168 75.9812 133.483 76.0746 133.704 76.0746C135.126 76.0746 135.126 76.0435 136.545 76.0435C137.964 76.0435 137.963 76.0746 139.386 76.0746C140.804 76.0746 140.804 76.0124 142.223 76.0124C143.642 76.0124 143.645 76.1715 145.064 76.1715C146.482 76.1715 146.482 76.0746 147.905 76.0746C149.323 76.0746 149.323 76.2338 150.745 76.2338C151.628 76.2338 151.974 76.2027 152.417 76.1404C152.7 76.1092 153.015 76.1093 153.552 76.1093C154.974 76.1093 154.974 76.0746 156.392 76.0746C157.811 76.0746 157.811 76.1404 159.233 76.1404C160.652 76.1404 160.652 76.0746 162.07 76.0746C163.493 76.0746 163.493 76.2961 164.911 76.2961C166.33 76.2961 166.33 76.2961 167.752 76.2961C169.171 76.2961 169.171 76.1715 170.589 76.1715C172.012 76.1715 172.012 76.265 173.43 76.265C174.852 76.265 174.852 76.2961 176.271 76.2961C177.69 76.2961 177.69 76.2338 179.112 76.2338C180.53 76.2338 180.53 76.2338 181.949 76.2338C182.202 76.2338 182.485 75.9812 182.485 75.7597C182.485 74.3409 182.33 74.3409 182.33 72.922C182.33 71.4997 182.361 71.4997 182.361 70.0809C182.361 68.6586 182.392 68.6586 182.392 67.2397C182.392 65.8209 182.392 65.8209 182.392 64.3985C182.392 62.9797 182.361 62.9797 182.361 61.5608C182.361 60.1385 182.423 60.1385 182.423 58.7197C182.423 57.3008 182.423 57.3008 182.423 55.8785C182.423 54.4597 182.233 54.4597 182.233 53.0408C182.233 51.6185 182.454 51.6185 182.454 50.2308C182.454 48.812 182.392 48.812 182.392 47.3896C182.392 45.9708 182.454 45.9708 182.454 44.5485C182.454 43.1296 182.454 43.1296 182.454 41.7108C182.454 40.2885 182.361 40.2885 182.361 38.9008C182.361 37.4819 182.485 37.4819 182.485 36.0596C182.485 34.6408 182.423 34.6408 182.423 33.2219C182.423 31.7996 182.392 31.7996 182.392 30.3808C182.392 28.9619 182.202 28.9619 182.202 27.5707C182.202 26.1519 182.299 26.1519 182.299 24.733C182.299 23.3107 182.233 23.3107 182.233 21.8919C182.233 20.473 182.423 20.473 182.423 19.0507C182.423 17.6319 182.392 17.6319 182.392 16.2442C182.392 14.8219 182.454 14.8219 182.454 13.403C182.454 11.9842 182.361 11.9842 182.361 10.593C182.361 9.17414 182.485 9.17414 182.485 7.75529C182.485 7.50266 182.171 7.37463 181.918 7.37463C180.499 7.37463 180.499 7.43692 179.081 7.43692C177.662 7.43692 177.659 7.43692 176.24 7.43692C174.818 7.43692 174.818 7.47153 173.399 7.47153C171.98 7.47153 171.98 7.40577 170.558 7.40577C169.14 7.40577 169.14 7.25004 167.721 7.25004C166.299 7.25004 166.299 7.15315 164.88 7.15315C163.461 7.15315 163.461 7.37463 162.039 7.37463C160.621 7.37463 160.621 7.25004 159.199 7.25004C157.78 7.25004 157.78 7.28119 156.361 7.28119C154.939 7.28119 154.939 7.31233 153.52 7.31233C152.479 7.31233 152.195 7.25004 151.597 7.18429C151.375 7.18429 151.091 7.15315 150.711 7.15315C149.292 7.15315 149.292 7.31233 147.873 7.31233C146.451 7.31233 146.451 7.25004 145.033 7.25004C143.614 7.25004 143.614 7.40577 142.192 7.40577C140.773 7.40577 140.773 7.37463 139.354 7.37463C137.932 7.37463 137.932 7.40577 136.514 7.40577C135.092 7.40577 135.092 7.122 133.673 7.122C133.42 7.122 133.358 7.47153 133.358 7.68955C133.358 9.11186 133.199 9.11185 133.199 10.5307C133.199 11.9496 133.42 11.9496 133.42 13.3719C133.42 14.7907 133.327 14.7907 133.327 16.213C133.327 17.6319 133.23 17.6319 133.23 19.0507C133.23 20.4696 133.42 20.473 133.42 21.8607C133.42 23.2796 133.389 23.2796 133.389 24.7019C133.389 26.1207 133.327 26.1207 133.327 27.5396C133.327 28.9619 133.327 28.9619 133.327 30.3808C133.327 31.7996 133.42 31.7996 133.42 33.2219C133.42 34.6408 133.199 34.6408 133.199 36.0596C133.199 37.4785 133.265 37.4819 133.265 38.9008C133.265 40.3231 133.451 40.3231 133.451 41.7419C133.451 43.1608 133.358 43.1608 133.358 44.5831C133.358 46.0019 133.451 46.0019 133.451 47.4208C133.451 48.8431 133.199 48.8431 133.199 50.262C133.168 51.6808 133.168 51.6808 133.168 53.1031ZM133.23 138.591C133.23 140.013 133.137 140.013 133.137 141.401C133.137 142.819 133.105 142.819 133.105 144.211C133.105 145.629 133.168 145.629 133.168 147.048C133.168 148.471 133.168 148.471 133.168 149.889C133.168 150.142 133.42 150.426 133.642 150.426C135.06 150.426 135.06 150.267 136.483 150.267C137.901 150.267 137.901 150.301 139.32 150.301C140.742 150.301 140.742 150.332 142.161 150.332C143.579 150.332 143.583 150.332 145.001 150.332C146.42 150.332 146.42 150.301 147.842 150.301C149.261 150.301 149.261 150.364 150.68 150.364C151.091 150.364 151.375 150.364 151.628 150.364C152.226 150.364 152.51 150.364 153.52 150.364C154.939 150.364 154.939 150.173 156.361 150.173C157.78 150.173 157.78 150.395 159.199 150.395C160.621 150.395 160.621 150.332 162.039 150.332C163.461 150.332 163.461 150.395 164.88 150.395C166.299 150.395 166.299 150.395 167.721 150.395C169.14 150.395 169.14 150.301 170.558 150.301C171.98 150.301 171.98 150.426 173.399 150.426C174.818 150.426 174.818 150.364 176.24 150.364C177.659 150.364 177.658 150.332 179.081 150.332C180.499 150.332 180.499 150.142 181.918 150.142C182.171 150.142 182.299 150.111 182.299 149.858C182.299 148.439 182.233 148.439 182.233 147.017C182.233 145.598 182.423 145.598 182.423 144.176C182.423 142.757 182.392 142.757 182.392 141.338C182.392 139.919 182.454 139.916 182.454 138.497C182.454 137.078 182.361 137.078 182.361 135.687C182.361 134.268 182.485 134.268 182.485 132.849C182.485 131.427 182.299 131.427 182.299 130.008C182.299 128.589 182.233 128.589 182.233 127.167C182.233 125.748 182.267 125.748 182.267 124.361C182.267 122.938 182.233 122.938 182.233 121.519C182.233 120.101 182.299 120.101 182.299 118.678C182.299 117.256 182.454 117.259 182.454 115.84C182.454 114.418 182.551 114.418 182.551 112.999C182.551 111.577 182.33 111.577 182.33 110.158C182.33 108.739 182.454 108.739 182.454 107.317C182.454 105.898 182.423 105.898 182.423 104.479C182.423 103.057 182.392 103.057 182.392 101.638C182.392 100.219 182.551 100.219 182.551 98.797C182.551 97.3781 182.361 97.3782 182.361 95.9593C182.361 94.537 182.423 94.537 182.423 93.1493C182.423 91.7304 182.267 91.7304 182.267 90.3081C182.267 88.8893 182.299 88.8893 182.299 87.467C182.299 86.0481 182.267 86.0481 182.267 84.6604C182.267 83.2416 182.551 83.2416 182.551 81.8193C182.551 81.5666 182.202 81.5043 181.98 81.5043C180.562 81.5043 180.562 81.3452 179.143 81.3452C177.724 81.3452 177.721 81.5666 176.302 81.5666C174.883 81.5666 174.883 81.442 173.461 81.442C172.039 81.442 172.043 81.3452 170.624 81.3452C169.202 81.3452 169.202 81.5355 167.783 81.5355C166.365 81.5355 166.365 81.5043 164.942 81.5043C163.52 81.5043 163.524 81.442 162.102 81.442C160.683 81.442 160.683 81.442 159.264 81.442C157.842 81.442 157.842 81.5355 156.423 81.5355C155.005 81.5355 155.005 81.314 153.583 81.314C152.541 81.314 152.257 81.3452 151.628 81.3763C151.406 81.3763 151.123 81.3763 150.745 81.3763C149.323 81.3763 149.323 81.5666 147.905 81.5666C146.482 81.5666 146.482 81.4732 145.064 81.4732C143.645 81.4732 143.645 81.5666 142.223 81.5666C140.804 81.5666 140.804 81.314 139.386 81.314C137.963 81.314 137.964 81.314 136.545 81.314C135.126 81.314 135.126 81.3452 133.704 81.3452C133.451 81.3452 133.358 81.5978 133.358 81.8193C133.358 83.2416 133.199 83.2416 133.199 84.6604C133.199 86.0793 133.358 86.0793 133.358 87.5016C133.358 88.9239 133.389 88.9204 133.389 90.3393C133.389 91.7616 133.296 91.7616 133.296 93.1804C133.296 94.5993 133.327 94.5993 133.327 96.0216C133.327 97.4404 133.168 97.4405 133.168 98.8593C133.168 100.282 133.358 100.282 133.358 101.7C133.358 103.123 133.389 103.123 133.389 104.51C133.389 105.929 133.358 105.929 133.358 107.348C133.358 108.77 133.42 108.77 133.42 110.189C133.42 111.608 133.265 111.612 133.265 113.03C133.265 114.449 133.358 114.449 133.358 115.872C133.358 117.29 133.199 117.291 133.199 118.709C133.199 120.132 133.327 120.132 133.327 121.55C133.327 122.969 133.389 122.969 133.389 124.392C133.389 125.811 133.327 125.811 133.327 127.233C133.327 128.652 133.389 128.652 133.389 130.071C133.389 131.493 133.168 131.493 133.168 132.912C133.168 134.331 133.168 134.331 133.168 135.753C133.105 137.172 133.23 137.172 133.23 138.591ZM78.7393 22.0165C78.7393 23.4388 78.6113 23.4388 78.6113 24.8576C78.6113 26.2799 78.8016 26.2799 78.8016 27.6988C78.8016 29.1176 78.8639 29.1176 78.8639 30.5399C78.8639 31.9588 78.8639 31.9588 78.8639 33.3776C78.8639 34.8 78.895 34.7999 78.895 36.2188C78.895 37.6376 78.8327 37.6377 78.8327 39.06C78.8327 40.4788 78.677 40.4788 78.677 41.8977C78.677 43.32 78.5801 43.32 78.5801 44.7388C78.5801 46.1611 78.8016 46.1611 78.8016 47.58C78.8016 48.9988 78.677 48.9988 78.677 50.4211C78.677 51.84 78.7082 51.84 78.7082 53.2588C78.7082 54.6812 78.7393 54.6812 78.7393 56.0689C78.7393 57.4877 78.5801 57.4877 78.5801 58.91C78.5801 60.3289 78.7393 60.3289 78.7393 61.7477C78.7393 63.17 78.677 63.17 78.677 64.5889C78.677 66.0077 78.8327 66.0077 78.8327 67.43C78.8327 68.8489 78.8016 68.8489 78.8016 70.2366C78.8016 71.6589 78.8327 71.6589 78.8327 73.0778C78.8327 74.5001 78.549 74.5001 78.549 75.8878C78.549 76.1404 78.895 76.2027 79.1165 76.2027C80.5386 76.2027 80.5386 76.3619 81.9573 76.3619C83.3759 76.3619 83.3759 76.1404 84.7981 76.1404C86.2167 76.1404 86.2167 76.265 87.6354 76.265C89.0541 76.265 89.0575 76.3619 90.4762 76.3619C91.8949 76.3619 91.8949 76.1715 93.317 76.1715C94.7391 76.1715 94.7357 76.2027 96.1578 76.2027C96.4727 76.2027 96.6941 76.2027 96.9121 76.2027C97.6387 76.2338 97.8913 76.265 98.9951 76.265C100.417 76.265 100.417 76.265 101.836 76.265C103.255 76.265 103.255 76.1715 104.677 76.1715C106.095 76.1715 106.095 76.393 107.514 76.393C108.933 76.393 108.936 76.3273 110.355 76.3273C111.774 76.3273 111.774 76.1404 113.196 76.1404C114.614 76.1404 114.614 76.2338 116.036 76.2338C117.455 76.2338 117.455 76.1404 118.874 76.1404C120.296 76.1404 120.296 76.393 121.715 76.393C123.133 76.393 123.133 76.393 124.555 76.393C125.974 76.393 125.974 76.3619 127.393 76.3619C127.645 76.3619 127.742 76.1092 127.742 75.8878C127.742 74.4655 127.898 74.4655 127.898 73.0466C127.898 71.6278 127.742 71.6278 127.742 70.2055C127.742 68.7866 127.711 68.7866 127.711 67.3677C127.711 65.9454 127.804 65.9454 127.804 64.5266C127.804 63.1077 127.773 63.1077 127.773 61.6854C127.773 60.2666 127.929 60.2666 127.929 58.8443C127.929 57.422 127.742 57.4254 127.742 56.0066C127.742 54.5843 127.711 54.5843 127.711 53.1654C127.711 51.7466 127.742 51.7466 127.742 50.3554C127.742 48.9365 127.68 48.9365 127.68 47.5177C127.68 46.0954 127.836 46.0954 127.836 44.6765C127.836 43.2577 127.742 43.2577 127.742 41.8354C127.742 40.4165 127.898 40.4165 127.898 39.0288C127.898 37.6065 127.773 37.6065 127.773 36.1877C127.773 34.7688 127.742 34.7688 127.742 33.3465C127.742 31.9276 127.804 31.9277 127.804 30.5053C127.804 29.0865 127.742 29.0865 127.742 27.6988C127.742 26.2799 127.964 26.2799 127.964 24.8576C127.964 23.4388 127.964 23.4388 127.964 22.0165C127.964 20.5976 127.836 20.5976 127.836 19.1788C127.836 17.7565 127.929 17.7565 127.929 16.3687C127.929 14.9499 127.964 14.9499 127.964 13.5276C127.964 12.1053 127.898 12.1087 127.898 10.721C127.898 9.29872 127.898 9.29873 127.898 7.87988C127.898 7.62725 127.645 7.34349 127.393 7.34349C125.974 7.34349 125.974 7.50267 124.555 7.50267C123.137 7.50267 123.133 7.47153 121.715 7.47153C120.296 7.47153 120.296 7.43692 118.874 7.43692C117.455 7.43692 117.455 7.43692 116.036 7.43692C114.618 7.43692 114.614 7.47153 113.196 7.47153C111.774 7.47153 111.774 7.40577 110.355 7.40577C108.936 7.40577 108.936 7.40577 107.514 7.40577C106.095 7.40577 106.095 7.5961 104.677 7.5961C103.258 7.5961 103.255 7.37463 101.836 7.37463C100.417 7.37463 100.417 7.43692 98.9951 7.43692C97.8913 7.43692 97.6387 7.40578 96.9121 7.37463C96.7253 7.37463 96.4727 7.37463 96.1889 7.37463C94.7668 7.37463 94.7668 7.37463 93.3481 7.37463C91.9295 7.37463 91.9295 7.47153 90.5073 7.47153C89.0852 7.47153 89.0887 7.34349 87.6665 7.34349C86.2479 7.34349 86.2479 7.40577 84.8292 7.40577C83.4071 7.40577 83.4071 7.43692 81.9884 7.43692C80.5697 7.43692 80.5697 7.62725 79.1476 7.62725C78.895 7.62725 78.7705 7.6584 78.7705 7.91102C78.7705 9.33333 78.8016 9.33333 78.8016 10.7522C78.8016 12.171 78.6113 12.171 78.6113 13.5933C78.6113 15.0122 78.6424 15.0122 78.6424 16.431C78.6424 17.8533 78.5801 17.8533 78.5801 19.2722C78.5801 20.691 78.7393 20.5976 78.7393 22.0165ZM78.7393 118.806C78.7393 120.225 78.6113 120.225 78.6113 121.644C78.6113 123.063 78.677 123.066 78.677 124.485C78.677 125.907 78.7082 125.907 78.7082 127.326C78.7082 128.745 78.895 128.745 78.895 130.167C78.895 131.586 78.8016 131.586 78.8016 133.005C78.8016 134.427 78.8327 134.427 78.8327 135.846C78.8327 137.265 78.6424 137.265 78.6424 138.687C78.6424 140.106 78.677 140.106 78.677 141.494C78.677 142.916 78.6113 142.916 78.6113 144.304C78.6113 145.723 78.7082 145.723 78.7082 147.145C78.7082 148.564 78.5801 148.564 78.5801 149.983C78.5801 150.236 78.895 150.364 79.1476 150.364C80.5697 150.364 80.5697 150.301 81.9884 150.301C83.4071 150.301 83.4071 150.301 84.8292 150.301C86.2479 150.301 86.2479 150.267 87.6665 150.267C89.0852 150.267 89.0887 150.332 90.5073 150.332C91.9295 150.332 91.9295 150.488 93.3481 150.488C94.7668 150.488 94.7668 150.554 96.1889 150.554C96.5038 150.554 96.7253 150.554 96.9121 150.519C97.6387 150.457 97.8913 150.332 98.9951 150.332C100.417 150.332 100.417 150.457 101.836 150.457C103.255 150.457 103.255 150.426 104.677 150.426C106.095 150.426 106.095 150.395 107.514 150.395C108.933 150.395 108.936 150.554 110.355 150.554C111.774 150.554 111.774 150.364 113.196 150.364C114.614 150.364 114.614 150.426 116.036 150.426C117.455 150.426 117.455 150.267 118.874 150.267C120.296 150.267 120.296 150.301 121.715 150.301C123.133 150.301 123.133 150.267 124.555 150.267C125.974 150.267 125.974 150.554 127.393 150.554C127.645 150.554 127.711 150.204 127.711 149.983C127.711 148.564 127.867 148.564 127.867 147.145C127.867 145.723 127.645 145.723 127.645 144.304C127.645 142.885 127.742 142.885 127.742 141.463C127.742 140.041 127.836 140.044 127.836 138.625C127.836 137.203 127.645 137.203 127.645 135.815C127.645 134.396 127.68 134.396 127.68 132.974C127.68 131.555 127.742 131.555 127.742 130.133C127.742 128.714 127.742 128.714 127.742 127.295C127.742 125.873 127.645 125.873 127.645 124.485C127.645 123.066 127.867 123.066 127.867 121.644C127.867 120.225 127.804 120.225 127.804 118.806C127.804 117.387 127.614 117.384 127.614 115.965C127.614 114.546 127.742 114.546 127.742 113.124C127.742 111.705 127.614 111.705 127.614 110.286C127.614 108.867 127.867 108.864 127.867 107.445C127.867 106.023 127.867 106.023 127.867 104.604C127.867 103.185 127.836 103.185 127.836 101.763C127.836 100.344 127.68 100.344 127.68 98.9251C127.68 97.5027 127.836 97.5027 127.836 96.0839C127.836 94.665 127.68 94.665 127.68 93.2739C127.68 91.855 127.645 91.855 127.645 90.4362C127.645 89.0139 127.742 89.0139 127.742 87.595C127.742 86.1762 127.711 86.1762 127.711 84.785C127.711 83.3661 127.867 83.3661 127.867 81.9473C127.867 81.6947 127.552 81.5978 127.33 81.5978C125.912 81.5978 125.912 81.6289 124.49 81.6289C123.067 81.6289 123.071 81.5978 121.652 81.5978C120.234 81.5978 120.23 81.6635 118.811 81.6635C117.393 81.6635 117.393 81.5043 115.971 81.5043C114.549 81.5043 114.552 81.5978 113.133 81.5978C111.711 81.5978 111.711 81.442 110.293 81.442C108.874 81.442 108.874 81.5666 107.452 81.5666C106.033 81.5666 106.033 81.5978 104.611 81.5978C103.189 81.5978 103.192 81.5355 101.774 81.5355C100.352 81.5355 100.352 81.5978 98.9328 81.5978C97.8602 81.5978 97.6076 81.4732 96.9121 81.4109C96.6941 81.3763 96.4415 81.3763 96.1232 81.3763C94.7045 81.3763 94.7045 81.3763 93.2858 81.3763C91.8637 81.3763 91.8637 81.5043 90.4451 81.5043C89.0264 81.5043 89.0264 81.4109 87.6043 81.4109C86.1856 81.4109 86.1856 81.3763 84.7669 81.3763C83.3448 81.3763 83.3448 81.442 81.9261 81.442C80.504 81.442 80.504 81.442 79.0853 81.442C78.8327 81.442 78.549 81.6947 78.549 81.9162C78.549 83.335 78.7082 83.335 78.7082 84.7538C78.7082 86.1762 78.677 86.1762 78.677 87.595C78.677 89.0139 78.6424 89.0139 78.6424 90.4362C78.6424 91.855 78.6424 91.855 78.6424 93.2739C78.6424 94.6962 78.677 94.6962 78.677 96.115C78.677 97.5339 78.6113 97.5339 78.6113 98.9562C78.6113 100.375 78.6113 100.375 78.6113 101.797C78.6113 103.216 78.8016 103.216 78.8016 104.604C78.8016 106.023 78.5801 106.023 78.5801 107.445C78.5801 108.864 78.6424 108.864 78.6424 110.286C78.6424 111.709 78.5801 111.705 78.5801 113.124C78.5801 114.546 78.5801 114.546 78.5801 115.965C78.6424 117.384 78.7393 117.384 78.7393 118.806ZM73.6598 1.7892C75.0785 1.7892 75.0785 2.07297 76.5283 2.07297C77.9781 2.07297 77.9504 2.07297 79.4002 2.07297C80.8223 2.07297 80.8223 1.7892 82.2721 1.7892C83.722 1.7892 83.6908 2.01068 85.1441 2.01068C86.5627 2.01068 86.5628 1.85149 88.016 1.85149C89.4693 1.85149 89.4347 1.97954 90.888 1.97954C92.3378 1.97954 92.3378 1.7892 93.7564 1.7892C95.1786 1.7892 95.1786 2.01068 96.6284 2.01068C98.0505 2.01068 98.0505 1.82035 99.5003 1.82035C100.95 1.82035 100.922 1.85149 102.372 1.85149C103.791 1.85149 103.791 1.97954 105.244 1.97954C106.663 1.97954 106.663 2.07297 108.116 2.07297C109.535 2.07297 109.535 1.97954 110.988 1.97954C112.441 1.97954 112.407 1.97954 113.857 1.97954C115.279 1.97954 115.279 2.10412 116.728 2.10412C118.151 2.10412 118.151 1.91725 119.6 1.91725C121.019 1.91725 121.019 2.04183 122.472 2.04183C123.891 2.04183 123.891 2.07297 125.344 2.07297C126.763 2.07297 126.763 1.82035 128.216 1.82035C129.666 1.82035 129.666 1.85149 131.085 1.85149C132.507 1.85149 132.507 2.07297 133.957 2.07297C135.379 2.07297 135.379 2.04183 136.829 2.04183C138.278 2.04183 138.247 1.88264 139.701 1.88264C141.119 1.88264 141.119 2.07297 142.572 2.07297C144.022 2.07297 144.022 2.01068 145.444 2.01068C146.894 2.01068 146.894 1.82035 148.313 1.82035C149.735 1.82035 149.735 1.94839 151.185 1.94839C152.638 1.94839 152.638 1.97954 154.057 1.97954C155.51 1.97954 155.51 2.04183 156.929 2.04183C158.347 2.04183 158.347 1.82035 159.801 1.82035C161.219 1.82035 161.219 1.75806 162.673 1.75806C164.122 1.75806 164.122 1.91725 165.541 1.91725C166.963 1.91725 166.963 1.88264 168.413 1.88264C169.835 1.88264 169.835 1.91725 171.285 1.91725C172.704 1.91725 172.704 1.91725 174.157 1.91725C175.575 1.91725 175.575 1.85149 177.029 1.85149C178.479 1.85149 178.479 2.10412 179.901 2.10412C181.319 2.10412 181.319 1.7892 182.769 1.7892C184.222 1.7892 184.222 1.88264 185.641 1.88264C187.094 1.88264 187.094 1.88264 188.513 1.88264C189.932 1.88264 189.932 1.7892 191.385 1.7892C192.804 1.7892 192.804 1.85149 194.257 1.85149C195.71 1.85149 195.676 1.91725 197.129 1.91725C198.548 1.91725 198.548 2.01068 199.997 2.01068C201.419 2.01068 201.419 1.75806 202.869 1.75806C204.291 1.75806 204.291 1.91725 205.741 1.91725C205.994 1.91725 206.246 2.07297 206.246 2.3256C206.246 3.74791 206.246 3.74791 206.246 5.16676C206.246 6.58561 206.309 6.58561 206.309 8.00792C206.309 9.42677 206.309 9.42677 206.309 10.8456C206.309 12.2679 206.122 12.2679 206.122 13.6868C206.122 15.1056 206.215 15.1056 206.215 16.5279C206.215 17.9468 206.056 17.9468 206.056 19.3656C206.056 20.7845 206.215 20.7879 206.215 22.2068C206.215 23.6256 206.184 23.6291 206.184 25.048C206.184 26.4668 206.056 26.4668 206.056 27.8891C206.056 29.3114 206.246 29.308 206.246 30.7268C206.246 32.1491 206.122 32.1491 206.122 33.568C206.122 34.9868 206.278 34.9868 206.278 36.4091C206.278 37.8315 206.122 37.828 206.122 39.2468C206.122 40.6657 206.309 40.6692 206.309 42.088C206.309 43.5103 206.278 43.5103 206.278 44.9292C206.278 46.348 205.994 46.348 205.994 47.7703C205.994 49.1926 206.184 49.1892 206.184 50.608C206.184 52.0269 205.994 52.0303 205.994 53.4492C205.994 54.868 206.215 54.868 206.215 56.2903C206.215 57.7092 206.153 57.7092 206.153 59.1315C206.153 60.5504 206.087 60.5503 206.087 61.9692C206.087 63.388 206.122 63.3915 206.122 64.8104C206.122 66.2292 206.025 66.2292 206.025 67.6515C206.025 69.0704 206.215 69.0704 206.215 70.4892C206.215 71.9081 206.122 71.9115 206.122 73.3304C206.122 74.7492 206.215 74.7492 206.215 76.1715C206.215 77.5904 206.122 77.5904 206.122 79.0127C206.122 80.435 206.122 80.4315 206.122 81.8504C206.122 83.2692 206.309 83.2727 206.309 84.6916C206.309 86.1104 206.153 86.1104 206.153 87.5327C206.153 88.955 206.278 88.9516 206.278 90.3704C206.278 91.7893 206.278 91.7927 206.278 93.2116C206.278 94.6304 206.215 94.6304 206.215 96.0527C206.215 97.475 206.087 97.4716 206.087 98.8939C206.087 100.316 206.087 100.313 206.087 101.732C206.087 103.154 206.309 103.154 206.309 104.573C206.309 105.992 206.246 105.992 206.246 107.414C206.246 108.836 206.246 108.833 206.246 110.252C206.246 111.674 206.34 111.674 206.34 113.093C206.34 114.512 206.184 114.515 206.184 115.934C206.184 117.353 206.246 117.353 206.246 118.775C206.246 120.194 206.215 120.194 206.215 121.613C206.215 123.032 206.215 123.035 206.215 124.454C206.215 125.873 206.087 125.873 206.087 127.295C206.087 128.714 206.309 128.714 206.309 130.133C206.309 131.555 206.309 131.555 206.309 132.974C206.309 134.396 206.122 134.396 206.122 135.815C206.122 137.234 206.34 137.234 206.34 138.656C206.34 140.079 206.246 140.075 206.246 141.494C206.246 142.916 206.246 142.916 206.246 144.335C206.246 145.754 206.153 145.754 206.153 147.176C206.153 148.599 206.087 148.595 206.087 150.017C206.087 151.436 206.34 151.436 206.34 152.855C206.34 154.274 206.34 154.277 206.34 155.696C206.34 155.949 206.025 156.139 205.803 156.139C204.354 156.139 204.354 156.105 202.935 156.105C201.513 156.105 201.513 155.98 200.063 155.98C198.641 155.98 198.641 156.139 197.191 156.139C195.738 156.139 195.738 156.105 194.319 156.105C192.901 156.105 192.901 156.042 191.447 156.042C190.029 156.042 190.029 156.17 188.575 156.17C187.157 156.17 187.157 156.011 185.707 156.011C184.285 156.011 184.285 156.105 182.835 156.105C181.413 156.105 181.413 156.011 179.963 156.011C178.541 156.011 178.541 156.202 177.091 156.202C175.672 156.202 175.672 155.949 174.219 155.949C172.769 155.949 172.769 155.949 171.347 155.949C169.928 155.949 169.928 156.042 168.475 156.042C167.057 156.042 167.057 156.233 165.607 156.233C164.185 156.233 164.185 156.202 162.735 156.202C161.313 156.202 161.313 155.98 159.863 155.98C158.444 155.98 158.444 156.139 156.991 156.139C155.572 156.139 155.572 156.105 154.119 156.105C152.7 156.105 152.7 156.074 151.247 156.074C149.828 156.074 149.828 156.074 148.379 156.074C146.956 156.074 146.956 156.105 145.507 156.105C144.085 156.105 144.085 156.042 142.635 156.042C141.181 156.042 141.181 156.042 139.763 156.042C138.344 156.042 138.344 156.233 136.891 156.233C135.472 156.233 135.472 156.011 134.019 156.011C132.569 156.011 132.569 156.074 131.15 156.074C129.728 156.074 129.728 156.011 128.278 156.011C126.856 156.011 126.856 156.011 125.407 156.011C123.988 156.011 123.988 156.105 122.535 156.105C121.116 156.105 121.116 155.98 119.663 155.98C118.244 155.98 118.244 156.042 116.791 156.042C115.372 156.042 115.372 156.074 113.922 156.074C112.5 156.074 112.5 156.264 111.05 156.264C109.628 156.264 109.628 156.17 108.178 156.17C106.76 156.17 106.76 156.233 105.306 156.233C103.888 156.233 103.888 156.042 102.435 156.042C101.016 156.042 101.016 156.074 99.5626 156.074C98.1439 156.074 98.1439 156.011 96.6941 156.011C95.272 156.011 95.272 156.105 93.8222 156.105C92.4001 156.105 92.4 155.98 90.9502 155.98C89.5316 155.98 89.5316 156.17 88.0783 156.17C86.6596 156.17 86.6596 156.233 85.2064 156.233C83.7877 156.233 83.7877 156.233 82.3344 156.233C80.9158 156.233 80.9158 156.264 79.4659 156.264C78.0438 156.264 78.0438 156.202 76.594 156.202C75.1719 156.202 75.1719 156.042 73.7221 156.042C73.4695 156.042 73.4383 155.918 73.4383 155.696C73.4383 154.277 73.2169 154.277 73.2169 152.855C73.2169 151.436 73.3415 151.436 73.3415 150.017C73.3415 148.599 73.3103 148.595 73.3103 147.176C73.3103 145.754 73.2792 145.754 73.2792 144.335C73.2792 142.916 73.4383 142.916 73.4383 141.494C73.4383 140.072 73.248 140.075 73.248 138.656C73.248 137.234 73.3103 137.234 73.3103 135.815C73.3103 134.396 73.1546 134.396 73.1546 132.974C73.1546 131.555 73.1858 131.555 73.1858 130.133C73.1858 128.711 73.1546 128.714 73.1546 127.295C73.1546 125.876 73.4383 125.873 73.4383 124.454C73.4383 123.035 73.1858 123.035 73.1858 121.613C73.1858 120.19 73.3415 120.194 73.3415 118.775C73.3415 117.353 73.1235 117.353 73.1235 115.934C73.1235 114.515 73.248 114.515 73.248 113.093C73.248 111.67 73.3415 111.674 73.3415 110.252C73.3415 108.829 73.1546 108.833 73.1546 107.414C73.1546 105.992 73.1858 105.992 73.1858 104.573C73.1858 103.154 73.248 103.154 73.248 101.732C73.248 100.309 73.248 100.313 73.248 98.8939C73.248 97.4716 73.1546 97.4716 73.1546 96.0527C73.1546 94.6304 73.3761 94.6304 73.3761 93.2116C73.3761 91.7927 73.3103 91.7927 73.3103 90.3704C73.3103 88.9516 73.1235 88.9516 73.1235 87.5327C73.1235 86.1139 73.2169 86.1104 73.2169 84.6916C73.2169 83.2727 73.0889 83.2727 73.0889 81.8504C73.0889 80.4315 73.3415 80.4315 73.3415 79.0127C73.3415 77.5938 73.3415 77.5904 73.3415 76.1715C73.3415 74.7527 73.3103 74.7492 73.3103 73.3304C73.3103 71.9115 73.1546 71.9115 73.1546 70.4892C73.1546 69.0669 73.3103 69.0704 73.3103 67.6515C73.3103 66.2327 73.1546 66.2292 73.1546 64.8104C73.1546 63.3915 73.1235 63.3915 73.1235 61.9692C73.1235 60.5503 73.2169 60.5504 73.2169 59.1315C73.2169 57.7127 73.1858 57.7092 73.1858 56.2903C73.1858 54.868 73.3415 54.868 73.3415 53.4492C73.3415 52.0303 73.1546 52.0303 73.1546 50.608C73.1546 49.1857 73.1235 49.1892 73.1235 47.7703C73.1235 46.348 73.1546 46.348 73.1546 44.9292C73.1546 43.5103 73.0889 43.5103 73.0889 42.088C73.0889 40.6692 73.248 40.6691 73.248 39.2468C73.248 37.8245 73.1546 37.828 73.1546 36.4091C73.1546 34.9903 73.2792 34.9868 73.2792 33.568C73.2792 32.1491 73.1546 32.1491 73.1546 30.7268C73.1546 29.308 73.1235 29.308 73.1235 27.8891C73.1235 26.4703 73.1858 26.4668 73.1858 25.048C73.1858 23.6291 73.1235 23.6291 73.1235 22.2068C73.1235 20.7879 73.3415 20.7879 73.3415 19.3656C73.3415 17.9468 73.3415 17.9468 73.3415 16.5279C73.3415 15.1091 73.2169 15.1056 73.2169 13.6868C73.2169 12.2679 73.3103 12.2679 73.3103 10.8456C73.3103 9.42677 73.3415 9.42677 73.3415 8.00792C73.3415 6.58561 73.2792 6.58561 73.2792 5.16676C73.2792 3.74791 73.2792 3.74791 73.2792 2.3256C73.3103 2.13526 73.4383 1.7892 73.6598 1.7892Z" fill="#F5F3F1"/>
<path d="M151.565 81.6289C151.565 83.0512 151.659 83.0512 151.659 84.5012C151.659 85.9235 151.628 85.9235 151.628 87.3735C151.628 88.7924 151.565 88.7924 151.565 90.2458C151.565 91.6647 151.628 91.6647 151.628 93.1181C151.628 94.537 151.406 94.537 151.406 95.9904C151.406 97.4093 151.597 97.4093 151.597 98.8593C151.597 100.282 151.597 100.282 151.597 101.732C151.597 103.154 151.534 103.154 151.534 104.604C151.534 106.023 151.565 106.023 151.565 107.476C151.565 108.895 151.565 108.895 151.565 110.349C151.565 111.767 151.534 111.767 151.534 113.221C151.534 114.64 151.5 114.64 151.5 116.09C151.5 117.512 151.659 117.512 151.659 118.962C151.659 120.384 151.469 120.384 151.469 121.834C151.469 123.257 151.437 123.257 151.437 124.707C151.437 126.125 151.628 126.125 151.628 127.579C151.628 128.998 151.721 128.998 151.721 130.451C151.721 131.87 151.721 131.87 151.721 133.323C151.721 134.742 151.469 134.742 151.469 136.192C151.469 137.615 151.659 137.615 151.659 139.065C151.659 140.487 151.565 140.487 151.565 141.937C151.565 143.356 151.659 143.356 151.659 144.809C151.659 146.228 151.5 146.228 151.5 147.682C151.5 149.1 151.628 149.1 151.628 150.554" stroke="#2E3343" stroke-width="1.00174" stroke-linecap="round" stroke-linejoin="round"/>
<path d="M151.565 7.43701C151.565 8.85932 151.5 8.85932 151.5 10.3093C151.5 11.7316 151.659 11.7316 151.659 13.1816C151.659 14.6316 151.534 14.6005 151.534 16.0539C151.534 17.5074 151.597 17.4728 151.597 18.9262C151.597 20.3451 151.628 20.3451 151.628 21.7985C151.628 23.2174 151.5 23.2174 151.5 24.6674C151.5 26.0897 151.721 26.0897 151.721 27.5397C151.721 28.962 151.628 28.962 151.628 30.412C151.628 31.8308 151.469 31.8308 151.469 33.2843C151.469 34.7032 151.406 34.7032 151.406 36.1566C151.406 37.5755 151.437 37.5755 151.437 39.0289C151.437 40.4478 151.437 40.4478 151.437 41.8978C151.437 43.3201 151.5 43.3201 151.5 44.7701C151.5 46.1924 151.69 46.1924 151.69 47.6424C151.69 49.0647 151.565 49.0647 151.565 50.5147C151.565 51.9335 151.659 51.9335 151.659 53.387C151.659 54.8058 151.597 54.8058 151.597 56.2593C151.597 57.6781 151.628 57.6781 151.628 59.1316C151.628 60.5504 151.437 60.5504 151.437 62.0004C151.437 63.4227 151.5 63.4228 151.5 64.8727C151.5 66.2951 151.406 66.2951 151.406 67.7451C151.406 69.1639 151.597 69.1639 151.597 70.6174C151.597 72.0362 151.628 72.0362 151.628 73.4897C151.628 74.9085 151.69 74.9085 151.69 76.362" stroke="#2E3343" stroke-width="1.00174" stroke-linecap="round" stroke-linejoin="round"/>
<path d="M96.9466 81.6289C96.9466 83.0512 97.1023 83.0512 97.1023 84.5012C97.1023 85.9235 96.9466 85.9235 96.9466 87.3735C96.9466 88.7924 97.1023 88.7924 97.1023 90.2458C97.1023 91.6647 97.1335 91.6647 97.1335 93.1181C97.1335 94.537 97.1335 94.537 97.1335 95.9904C97.1335 97.4093 96.8809 97.4093 96.8809 98.8593C96.8809 100.282 97.0089 100.282 97.0089 101.732C97.0089 103.154 96.912 103.154 96.912 104.604C96.912 106.023 97.1023 106.023 97.1023 107.476C97.1023 108.895 97.1646 108.895 97.1646 110.349C97.1646 111.767 96.9466 111.767 96.9466 113.221C96.9466 114.64 97.04 114.64 97.04 116.09C97.04 117.512 97.04 117.512 97.04 118.962C97.04 120.384 96.9777 120.384 96.9777 121.834C96.9777 123.257 96.9466 123.257 96.9466 124.707C96.9466 126.125 97.1335 126.125 97.1335 127.579C97.1335 128.998 97.04 128.998 97.04 130.451C97.04 131.87 96.912 131.87 96.912 133.323C96.912 134.742 97.1335 134.742 97.1335 136.192C97.1335 137.615 96.9777 137.615 96.9777 139.065C96.9777 140.487 97.2303 140.487 97.2303 141.937C97.2303 143.356 96.9466 143.356 96.9466 144.809C96.9466 146.228 96.9777 146.228 96.9777 147.682C96.9777 149.1 96.9466 149.1 96.9466 150.554" stroke="#2E3343" stroke-width="1.00174" stroke-linecap="round" stroke-linejoin="round"/>
<path d="M96.9121 7.43701C96.9121 8.85932 97.1024 8.85932 97.1024 10.3093C97.1024 11.7316 97.009 11.7316 97.009 13.1816C97.009 14.6316 97.1336 14.6005 97.1336 16.0539C97.1336 17.5074 97.1336 17.4728 97.1336 18.9262C97.1336 20.3451 97.1958 20.3451 97.1958 21.7985C97.1958 23.2174 97.1647 23.2174 97.1647 24.6674C97.1647 26.0897 97.0713 26.0897 97.0713 27.5397C97.0713 28.962 97.1958 28.962 97.1958 30.412C97.1958 31.8308 97.1958 31.8308 97.1958 33.2843C97.1958 34.7032 96.9779 34.7032 96.9779 36.1566C96.9779 37.5755 97.0401 37.5755 97.0401 39.0289C97.0401 40.4478 96.9779 40.4478 96.9779 41.8978C96.9779 43.3201 97.009 43.3201 97.009 44.7701C97.009 46.1924 97.1336 46.1924 97.1336 47.6424C97.1336 49.0647 97.009 49.0647 97.009 50.5147C97.009 51.9335 97.1024 51.9335 97.1024 53.387C97.1024 54.8058 96.9467 54.8058 96.9467 56.2593C96.9467 57.6781 97.009 57.6781 97.009 59.1316C97.009 60.5504 96.9779 60.5504 96.9779 62.0004C96.9779 63.4227 97.009 63.4228 97.009 64.8727C97.009 66.2951 97.1958 66.2951 97.1958 67.7451C97.1958 69.1639 97.0401 69.1639 97.0401 70.6174C97.0401 72.0362 97.0713 72.0362 97.0713 73.4897C97.0713 74.9085 96.9779 74.9085 96.9779 76.2651C96.9779 76.2962 96.9779 76.3274 96.9779 76.3274" stroke="#2E3343" stroke-width="1.00174" stroke-linecap="round" stroke-linejoin="round"/>
<path d="M73.3099 2.35685C73.3099 3.77916 73.3099 3.77916 73.3099 5.19801C73.3099 6.61686 73.3756 6.61686 73.3756 8.03917C73.3756 9.45802 73.341 9.45802 73.341 10.8769C73.341 12.2992 73.2476 12.2992 73.2476 13.718C73.2476 15.1369 73.3756 15.1369 73.3756 16.5592C73.3756 17.9815 73.3756 17.978 73.3756 19.4004C73.3756 20.8192 73.1542 20.8192 73.1542 22.238C73.1542 23.6604 73.2165 23.6604 73.2165 25.0792C73.2165 26.4981 73.1542 26.4981 73.1542 27.9204C73.1542 29.3427 73.1853 29.3392 73.1853 30.7581C73.1853 32.1804 73.3099 32.1804 73.3099 33.5992C73.3099 35.0181 73.1853 35.0215 73.1853 36.4404C73.1853 37.8592 73.2788 37.8592 73.2788 39.2815C73.2788 40.7039 73.123 40.7004 73.123 42.1193C73.123 43.5416 73.1853 43.5416 73.1853 44.9604C73.1853 46.3793 73.1542 46.3793 73.1542 47.8016C73.1542 49.2204 73.1853 49.2204 73.1853 50.6393C73.1853 52.0581 73.3756 52.0616 73.3756 53.4804C73.3756 54.8993 73.2165 54.9027 73.2165 56.3216C73.2165 57.7404 73.2476 57.7404 73.2476 59.1628C73.2476 60.5851 73.1542 60.5816 73.1542 62.0004C73.1542 63.4228 73.1853 63.4228 73.1853 64.8416C73.1853 66.2605 73.341 66.2605 73.341 67.6828C73.341 69.1051 73.1853 69.1016 73.1853 70.5239C73.1853 71.9462 73.341 71.9428 73.341 73.3616C73.341 74.7839 73.3756 74.7839 73.3756 76.2028C73.3756 77.6216 73.3756 77.6216 73.3756 79.0439C73.3756 80.4663 73.123 80.4628 73.123 81.8816C73.123 83.304 73.2476 83.304 73.2476 84.7228C73.2476 86.1417 73.1542 86.1417 73.1542 87.564C73.1542 88.9863 73.341 88.9828 73.341 90.4051C73.341 91.824 73.4068 91.824 73.4068 93.2428C73.4068 94.6617 73.1853 94.6651 73.1853 96.084C73.1853 97.5028 73.2788 97.5029 73.2788 98.9252C73.2788 100.344 73.2788 100.344 73.2788 101.763C73.2788 103.182 73.2165 103.185 73.2165 104.604C73.2165 106.023 73.1853 106.023 73.1853 107.445C73.1853 108.864 73.3756 108.864 73.3756 110.286C73.3756 111.709 73.2788 111.705 73.2788 113.124C73.2788 114.543 73.1542 114.546 73.1542 115.965C73.1542 117.384 73.3756 117.384 73.3756 118.806C73.3756 120.225 73.2165 120.225 73.2165 121.644C73.2165 123.063 73.4691 123.066 73.4691 124.485C73.4691 125.908 73.1853 125.908 73.1853 127.326C73.1853 128.745 73.2165 128.745 73.2165 130.168C73.2165 131.59 73.1853 131.586 73.1853 133.005C73.1853 134.428 73.341 134.428 73.341 135.846C73.341 137.265 73.2788 137.265 73.2788 138.688C73.2788 140.106 73.4691 140.106 73.4691 141.525C73.4691 142.944 73.3099 142.948 73.3099 144.366C73.3099 145.789 73.341 145.789 73.341 147.208C73.341 148.626 73.3756 148.626 73.3756 150.049C73.3756 151.471 73.2476 151.468 73.2476 152.886C73.2476 154.309 73.4691 154.309 73.4691 155.728C73.4691 155.98 73.5002 156.074 73.7528 156.074C75.1715 156.074 75.1715 156.233 76.6247 156.233C78.0434 156.233 78.0434 156.295 79.4967 156.295C80.9153 156.295 80.9153 156.264 82.3651 156.264C83.7873 156.264 83.7873 156.264 85.2371 156.264C86.6592 156.264 86.6592 156.202 88.109 156.202C89.5311 156.202 89.5311 156.011 90.981 156.011C92.3996 156.011 92.3996 156.139 93.8529 156.139C95.2716 156.139 95.2716 156.043 96.7248 156.043C98.1746 156.043 98.1746 156.105 99.5968 156.105C101.015 156.105 101.015 156.074 102.465 156.074C103.887 156.074 103.887 156.264 105.337 156.264C106.759 156.264 106.759 156.202 108.209 156.202C109.628 156.202 109.628 156.295 111.081 156.295C112.5 156.295 112.5 156.105 113.953 156.105C115.372 156.105 115.372 156.074 116.825 156.074C118.275 156.074 118.275 156.011 119.693 156.011C121.116 156.011 121.116 156.139 122.565 156.139C124.019 156.139 124.019 156.043 125.437 156.043C126.856 156.043 126.856 156.043 128.309 156.043C129.728 156.043 129.728 156.105 131.181 156.105C132.6 156.105 132.6 156.043 134.053 156.043C135.472 156.043 135.472 156.264 136.922 156.264C138.344 156.264 138.344 156.074 139.794 156.074C141.216 156.074 141.216 156.074 142.665 156.074C144.084 156.074 144.084 156.139 145.537 156.139C146.987 156.139 146.987 156.105 148.409 156.105C149.859 156.105 149.859 156.105 151.281 156.105C152.7 156.105 152.7 156.139 154.15 156.139C155.572 156.139 155.572 156.171 157.022 156.171C158.475 156.171 158.475 156.011 159.894 156.011C161.347 156.011 161.347 156.233 162.766 156.233C164.184 156.233 164.184 156.264 165.637 156.264C167.087 156.264 167.087 156.074 168.509 156.074C169.928 156.074 169.928 155.98 171.378 155.98C172.8 155.98 172.8 155.98 174.25 155.98C175.672 155.98 175.672 156.233 177.122 156.233C178.575 156.233 178.575 156.043 179.994 156.043C181.412 156.043 181.412 156.139 182.866 156.139C184.315 156.139 184.315 156.043 185.738 156.043C187.156 156.043 187.156 156.202 188.606 156.202C190.059 156.202 190.059 156.074 191.478 156.074C192.9 156.074 192.9 156.139 194.35 156.139C195.803 156.139 195.803 156.171 197.222 156.171C198.641 156.171 198.641 156.011 200.094 156.011C201.544 156.011 201.544 156.139 202.966 156.139C204.416 156.139 204.416 156.171 205.838 156.171C206.087 156.171 206.374 155.949 206.374 155.728C206.374 154.309 206.374 154.309 206.374 152.886C206.374 151.464 206.121 151.468 206.121 150.049C206.121 148.626 206.184 148.626 206.184 147.208C206.184 145.789 206.277 145.789 206.277 144.366C206.277 142.944 206.277 142.948 206.277 141.525C206.277 140.106 206.374 140.106 206.374 138.688C206.374 137.269 206.153 137.265 206.153 135.846C206.153 134.428 206.339 134.428 206.339 133.005C206.339 131.586 206.339 131.586 206.339 130.168C206.339 128.745 206.121 128.745 206.121 127.326C206.121 125.908 206.246 125.908 206.246 124.485C206.246 123.063 206.246 123.066 206.246 121.644C206.246 120.222 206.277 120.225 206.277 118.806C206.277 117.384 206.215 117.384 206.215 115.965C206.215 114.546 206.374 114.546 206.374 113.124C206.374 111.702 206.277 111.705 206.277 110.286C206.277 108.864 206.277 108.864 206.277 107.445C206.277 106.026 206.339 106.023 206.339 104.604C206.339 103.185 206.121 103.185 206.121 101.763C206.121 100.344 206.121 100.344 206.121 98.9252C206.121 97.5063 206.246 97.5028 206.246 96.084C206.246 94.6651 206.308 94.6651 206.308 93.2428C206.308 91.824 206.308 91.824 206.308 90.4051C206.308 88.9863 206.184 88.9828 206.184 87.564C206.184 86.1451 206.339 86.1417 206.339 84.7228C206.339 83.304 206.153 83.304 206.153 81.8816C206.153 80.4593 206.153 80.4628 206.153 79.0439C206.153 77.6251 206.246 77.6216 206.246 76.2028C206.246 74.7839 206.153 74.7839 206.153 73.3616C206.153 71.9393 206.246 71.9428 206.246 70.5239C206.246 69.1051 206.056 69.1016 206.056 67.6828C206.056 66.2605 206.153 66.2605 206.153 64.8416C206.153 63.4228 206.121 63.4228 206.121 62.0004C206.121 60.5781 206.184 60.5816 206.184 59.1628C206.184 57.7404 206.246 57.7404 206.246 56.3216C206.246 54.9027 206.025 54.9027 206.025 53.4804C206.025 52.0616 206.215 52.0616 206.215 50.6393C206.215 49.217 206.025 49.2204 206.025 47.8016C206.025 46.3827 206.308 46.3793 206.308 44.9604C206.308 43.5416 206.339 43.5416 206.339 42.1193C206.339 40.7004 206.153 40.7004 206.153 39.2815C206.153 37.8627 206.308 37.8592 206.308 36.4404C206.308 35.0215 206.153 35.0215 206.153 33.5992C206.153 32.1804 206.277 32.1804 206.277 30.7581C206.277 29.3392 206.087 29.3392 206.087 27.9204C206.087 26.5015 206.215 26.4981 206.215 25.0792C206.215 23.6604 206.246 23.6604 206.246 22.238C206.246 20.8157 206.087 20.8192 206.087 19.4004C206.087 17.9815 206.246 17.978 206.246 16.5592C206.246 15.1369 206.153 15.1369 206.153 13.718C206.153 12.2992 206.339 12.2992 206.339 10.8769C206.339 9.45802 206.339 9.45802 206.339 8.03917C206.339 6.61686 206.277 6.61686 206.277 5.19801C206.277 3.77916 206.277 3.77916 206.277 2.35685C206.277 2.10422 206.025 1.9485 205.772 1.9485C204.353 1.9485 204.353 1.78931 202.9 1.78931C201.45 1.78931 201.45 2.04193 200.032 2.04193C198.578 2.04193 198.578 1.9485 197.16 1.9485C195.737 1.9485 195.737 1.88274 194.288 1.88274C192.838 1.88274 192.869 1.82045 191.416 1.82045C189.997 1.82045 189.997 1.91735 188.544 1.91735C187.125 1.91735 187.125 1.91735 185.672 1.91735C184.253 1.91735 184.253 1.82045 182.803 1.82045C181.381 1.82045 181.381 2.13537 179.931 2.13537C178.509 2.13537 178.509 1.88274 177.059 1.88274C175.641 1.88274 175.641 1.9485 174.188 1.9485C172.769 1.9485 172.769 1.9485 171.316 1.9485C169.866 1.9485 169.866 1.91735 168.444 1.91735C166.994 1.91735 166.994 1.9485 165.575 1.9485C164.153 1.9485 164.153 1.78931 162.703 1.78931C161.281 1.78931 161.281 1.8516 159.831 1.8516C158.378 1.8516 158.378 2.07308 156.959 2.07308C155.541 2.07308 155.541 2.01079 154.087 2.01079C152.669 2.01079 152.669 1.97964 151.216 1.97964C149.797 1.97964 149.797 1.8516 148.347 1.8516C146.925 1.8516 146.925 2.04193 145.475 2.04193C144.053 2.04193 144.053 2.10422 142.603 2.10422C141.181 2.10422 141.181 1.91735 139.731 1.91735C138.281 1.91735 138.281 2.07308 136.859 2.07308C135.437 2.07308 135.441 2.10422 133.987 2.10422C132.569 2.10422 132.569 1.88274 131.115 1.88274C129.697 1.88274 129.697 1.8516 128.247 1.8516C126.825 1.8516 126.825 2.10422 125.375 2.10422C123.953 2.10422 123.953 2.07308 122.503 2.07308C121.084 2.07308 121.084 1.9485 119.631 1.9485C118.212 1.9485 118.212 2.13537 116.759 2.13537C115.341 2.13537 115.341 2.01079 113.887 2.01079C112.469 2.01079 112.469 2.01079 111.019 2.01079C109.569 2.01079 109.597 2.10422 108.147 2.10422C106.694 2.10422 106.694 2.01079 105.275 2.01079C103.856 2.01079 103.856 1.88274 102.403 1.88274C100.984 1.88274 100.984 1.8516 99.531 1.8516C98.0778 1.8516 98.1124 2.04193 96.6591 2.04193C95.2404 2.04193 95.2404 1.82045 93.7906 1.82045C92.3685 1.82045 92.3685 2.01079 90.9187 2.01079C89.4965 2.01079 89.4965 1.88274 88.0467 1.88274C86.5969 1.88274 86.6281 2.04193 85.1748 2.04193C83.7561 2.04193 83.7561 1.82045 82.3029 1.82045C80.8496 1.82045 80.8842 2.10422 79.4309 2.10422C77.9811 2.10422 77.9811 2.10422 76.5625 2.10422C75.1438 2.10422 75.1403 1.82045 73.6905 1.82045C73.4379 1.78931 73.3099 2.13537 73.3099 2.35685Z" stroke="#2E3343" stroke-width="1.00174" stroke-linecap="round" stroke-linejoin="round"/>
<path d="M96.9119 7.37469C97.6697 7.37469 97.8911 7.43698 98.9949 7.43698C100.417 7.43698 100.417 7.37469 101.836 7.37469C103.254 7.37469 103.254 7.59617 104.677 7.59617C106.099 7.59617 106.095 7.40584 107.514 7.40584C108.936 7.40584 108.936 7.40584 110.355 7.40584C111.773 7.40584 111.773 7.47159 113.195 7.47159C114.614 7.47159 114.614 7.43698 116.036 7.43698C117.458 7.43698 117.455 7.43698 118.874 7.43698C120.296 7.43698 120.296 7.47159 121.714 7.47159C123.133 7.47159 123.133 7.50273 124.555 7.50273C125.977 7.50273 125.974 7.34355 127.393 7.34355C127.645 7.34355 127.898 7.65846 127.898 7.87994C127.898 9.29879 127.898 9.29879 127.898 10.7211C127.898 12.1399 127.963 12.14 127.963 13.5277C127.963 14.9154 127.929 14.95 127.929 16.3688C127.929 17.7911 127.835 17.7911 127.835 19.1788C127.835 20.5977 127.963 20.5977 127.963 22.0165C127.963 23.4388 127.963 23.4388 127.963 24.8577C127.963 26.28 127.742 26.28 127.742 27.6988C127.742 29.1177 127.804 29.1177 127.804 30.5054C127.804 31.9277 127.742 31.9277 127.742 33.3466C127.742 34.7689 127.773 34.7689 127.773 36.1877C127.773 37.6066 127.898 37.6066 127.898 39.0289C127.898 40.4477 127.742 40.4477 127.742 41.8354C127.742 43.2577 127.835 43.2577 127.835 44.6766C127.835 46.0954 127.68 46.0955 127.68 47.5178C127.68 48.9366 127.742 48.9366 127.742 50.3555C127.742 51.7778 127.711 51.7778 127.711 53.1655C127.711 54.5843 127.742 54.5843 127.742 56.0066C127.742 57.4255 127.929 57.4255 127.929 58.8443C127.929 60.2632 127.773 60.2667 127.773 61.6855C127.773 63.1078 127.804 63.1078 127.804 64.5267C127.804 65.9455 127.711 65.9455 127.711 67.3678C127.711 68.7867 127.742 68.7867 127.742 70.2055C127.742 71.6278 127.898 71.6278 127.898 73.0467C127.898 74.4655 127.742 74.4655 127.742 75.8878C127.742 76.1405 127.645 76.3619 127.393 76.3619C125.974 76.3619 125.974 76.3931 124.555 76.3931C123.133 76.3931 123.133 76.3931 121.714 76.3931C120.296 76.3931 120.296 76.1405 118.874 76.1405C117.455 76.1405 117.455 76.2339 116.036 76.2339C114.614 76.2339 114.614 76.1405 113.195 76.1405C111.773 76.1405 111.773 76.3273 110.355 76.3273C108.936 76.3273 108.936 76.3931 107.514 76.3931C106.092 76.3931 106.095 76.1716 104.677 76.1716C103.254 76.1716 103.254 76.265 101.836 76.265C100.417 76.265 100.417 76.265 98.9949 76.265C97.8911 76.265 97.6386 76.2339 96.9119 76.2028C96.6939 76.2028 96.4725 76.2028 96.1576 76.2028C94.7355 76.2028 94.7355 76.1716 93.3168 76.1716C91.8981 76.1716 91.8947 76.3619 90.476 76.3619C89.0573 76.3619 89.0574 76.265 87.6352 76.265C86.2131 76.265 86.2166 76.1405 84.7979 76.1405C83.3758 76.1405 83.3758 76.3619 81.9571 76.3619C80.5384 76.3619 80.5384 76.2028 79.1163 76.2028C78.8637 76.2028 78.5488 76.1093 78.5488 75.8878C78.5488 74.4655 78.8326 74.4655 78.8326 73.0778C78.8326 71.659 78.8014 71.659 78.8014 70.2367C78.8014 68.8178 78.8326 68.8178 78.8326 67.4301C78.8326 66.0078 78.6769 66.0078 78.6769 64.5889C78.6769 63.1701 78.7391 63.1701 78.7391 61.7478C78.7391 60.3289 78.58 60.3289 78.58 58.9101C78.58 57.4878 78.7391 57.4878 78.7391 56.0689C78.7391 54.6501 78.708 54.6501 78.708 53.2589C78.708 51.8401 78.6769 51.8401 78.6769 50.4212C78.6769 48.9989 78.8014 48.9989 78.8014 47.5801C78.8014 46.1612 78.58 46.1612 78.58 44.7389C78.58 43.32 78.6769 43.32 78.6769 41.8977C78.6769 40.4789 78.8326 40.4789 78.8326 39.06C78.8326 37.6377 78.8948 37.6377 78.8948 36.2189C78.8948 34.8 78.8637 34.8 78.8637 33.3777C78.8637 31.9589 78.8637 31.9589 78.8637 30.54C78.8637 29.1177 78.8014 29.1177 78.8014 27.6988C78.8014 26.28 78.6111 26.28 78.6111 24.8577C78.6111 23.4388 78.7391 23.4388 78.7391 22.0165C78.7391 20.5977 78.6423 20.5977 78.6423 19.21C78.6423 17.8223 78.708 17.7911 78.708 16.3688C78.708 14.95 78.6769 14.95 78.6769 13.5277C78.6769 12.1088 78.8637 12.1088 78.8637 10.69C78.8637 9.26764 78.8326 9.26764 78.8326 7.8488C78.8326 7.59617 78.9606 7.56502 79.2132 7.56502C80.6319 7.56502 80.6318 7.37469 82.0505 7.37469C83.4726 7.37469 83.4726 7.34355 84.8913 7.34355C86.31 7.34355 86.31 7.28125 87.7321 7.28125C89.1508 7.28125 89.1508 7.40584 90.5694 7.40584C91.9881 7.40584 91.9916 7.31239 93.4102 7.31239C94.8324 7.31239 94.8324 7.31239 96.251 7.31239C96.4725 7.37469 96.6939 7.37469 96.9119 7.37469Z" stroke="#2E3343" stroke-width="1.00174" stroke-linecap="round" stroke-linejoin="round"/>
<path d="M96.9119 150.426C96.7251 150.426 96.4725 150.457 96.1576 150.457C94.7355 150.457 94.7355 150.395 93.3168 150.395C91.8981 150.395 91.8947 150.236 90.476 150.236C89.0573 150.236 89.0574 150.173 87.6352 150.173C86.2131 150.173 86.2166 150.205 84.7979 150.205C83.3758 150.205 83.3758 150.205 81.9571 150.205C80.5384 150.205 80.5384 150.267 79.1163 150.267C78.8637 150.267 78.5488 150.142 78.5488 149.89C78.5488 148.471 78.6769 148.471 78.6769 147.049C78.6769 145.63 78.58 145.63 78.58 144.211C78.58 142.788 78.6423 142.789 78.6423 141.401C78.6423 139.982 78.6111 139.982 78.6111 138.591C78.6111 137.172 78.8014 137.172 78.8014 135.753C78.8014 134.331 78.7703 134.331 78.7703 132.912C78.7703 131.493 78.8637 131.493 78.8637 130.071C78.8637 128.652 78.6769 128.652 78.6769 127.233C78.6769 125.811 78.6423 125.811 78.6423 124.392C78.6423 122.97 78.58 122.97 78.58 121.551C78.58 120.132 78.708 120.132 78.708 118.71C78.708 117.291 78.6111 117.291 78.6111 115.872C78.6111 114.45 78.6111 114.45 78.6111 113.031C78.6111 111.612 78.6769 111.612 78.6769 110.19C78.6769 108.767 78.6111 108.771 78.6111 107.348C78.6111 105.93 78.8326 105.93 78.8326 104.511C78.8326 103.088 78.6423 103.088 78.6423 101.701C78.6423 100.282 78.6423 100.282 78.6423 98.8595C78.6423 97.4407 78.708 97.4407 78.708 96.0218C78.708 94.5995 78.6769 94.5995 78.6769 93.1807C78.6769 91.7618 78.6769 91.7618 78.6769 90.3395C78.6769 88.9207 78.708 88.9206 78.708 87.5018C78.708 86.0829 78.7391 86.0795 78.7391 84.6606C78.7391 83.2418 78.58 83.2418 78.58 81.8195C78.58 81.5669 78.8948 81.3454 79.1163 81.3454C80.5384 81.3454 80.5384 81.3454 81.9571 81.3454C83.3758 81.3454 83.3758 81.2831 84.7979 81.2831C86.2166 81.2831 86.2166 81.3142 87.6352 81.3142C89.0574 81.3142 89.0573 81.4111 90.476 81.4111C91.8947 81.4111 91.8947 81.2831 93.3168 81.2831C94.7355 81.2831 94.7355 81.2831 96.1576 81.2831C96.5036 81.2831 96.7562 81.2831 96.9465 81.3142C97.6386 81.3765 97.8912 81.5046 98.9638 81.5046C100.382 81.5046 100.382 81.4423 101.805 81.4423C103.223 81.4423 103.223 81.5046 104.645 81.5046C106.068 81.5046 106.064 81.4734 107.483 81.4734C108.905 81.4734 108.905 81.3454 110.324 81.3454C111.742 81.3454 111.742 81.5046 113.164 81.5046C114.583 81.5046 114.583 81.4111 116.002 81.4111C117.42 81.4111 117.424 81.5669 118.842 81.5669C120.265 81.5669 120.265 81.5046 121.683 81.5046C123.102 81.5046 123.102 81.5357 124.524 81.5357C125.946 81.5357 125.943 81.5046 127.361 81.5046C127.614 81.5046 127.898 81.6291 127.898 81.8506C127.898 83.2729 127.742 83.2729 127.742 84.6918C127.742 86.1106 127.773 86.1106 127.773 87.5018C127.773 88.9206 127.68 88.9207 127.68 90.3395C127.68 91.7618 127.711 91.7618 127.711 93.1807C127.711 94.5995 127.867 94.5995 127.867 95.9907C127.867 97.4095 127.711 97.4095 127.711 98.8284C127.711 100.251 127.867 100.251 127.867 101.67C127.867 103.088 127.898 103.088 127.898 104.511C127.898 105.93 127.898 105.93 127.898 107.348C127.898 108.771 127.645 108.771 127.645 110.19C127.645 111.608 127.773 111.612 127.773 113.031C127.773 114.45 127.645 114.45 127.645 115.872C127.645 117.291 127.835 117.291 127.835 118.71C127.835 120.128 127.898 120.132 127.898 121.551C127.898 122.97 127.68 122.97 127.68 124.392C127.68 125.811 127.773 125.811 127.773 127.198C127.773 128.621 127.773 128.621 127.773 130.04C127.773 131.458 127.711 131.458 127.711 132.881C127.711 134.3 127.68 134.3 127.68 135.722C127.68 137.141 127.867 137.141 127.867 138.528C127.867 139.951 127.773 139.951 127.773 141.37C127.773 142.788 127.68 142.788 127.68 144.211C127.68 145.63 127.898 145.63 127.898 147.049C127.898 148.471 127.742 148.471 127.742 149.89C127.742 150.142 127.645 150.457 127.427 150.457C126.005 150.457 126.005 150.173 124.586 150.173C123.164 150.173 123.164 150.205 121.746 150.205C120.327 150.205 120.327 150.173 118.905 150.173C117.486 150.173 117.486 150.333 116.067 150.333C114.645 150.333 114.645 150.267 113.227 150.267C111.808 150.267 111.808 150.457 110.386 150.457C108.967 150.457 108.967 150.301 107.548 150.301C106.13 150.301 106.126 150.333 104.708 150.333C103.286 150.333 103.286 150.364 101.867 150.364C100.448 150.364 100.448 150.236 99.0261 150.236C97.8911 150.236 97.6697 150.364 96.9119 150.426Z" stroke="#2E3343" stroke-width="1.00174" stroke-linecap="round" stroke-linejoin="round"/>
<path d="M151.628 150.363C151.375 150.363 151.091 150.363 150.68 150.363C149.261 150.363 149.261 150.301 147.842 150.301C146.42 150.301 146.42 150.332 145.002 150.332C143.583 150.332 143.583 150.332 142.161 150.332C140.739 150.332 140.742 150.301 139.32 150.301C137.901 150.301 137.901 150.267 136.483 150.267C135.06 150.267 135.06 150.426 133.642 150.426C133.389 150.426 133.168 150.111 133.168 149.889C133.168 148.471 133.168 148.471 133.168 147.048C133.168 145.629 133.105 145.629 133.105 144.211C133.105 142.788 133.137 142.788 133.137 141.401C133.137 139.982 133.23 139.982 133.23 138.591C133.23 137.172 133.105 137.172 133.105 135.753C133.105 134.33 133.105 134.33 133.105 132.912C133.105 131.493 133.327 131.493 133.327 130.07C133.327 128.652 133.265 128.652 133.265 127.233C133.265 125.81 133.327 125.81 133.327 124.392C133.327 122.969 133.265 122.969 133.265 121.55C133.265 120.132 133.137 120.132 133.137 118.709C133.137 117.29 133.296 117.29 133.296 115.872C133.296 114.449 133.199 114.449 133.199 113.03C133.199 111.612 133.358 111.612 133.358 110.189C133.358 108.767 133.296 108.77 133.296 107.348C133.296 105.929 133.327 105.929 133.327 104.51C133.327 103.088 133.296 103.088 133.296 101.7C133.296 100.282 133.105 100.282 133.105 98.8593C133.105 97.4404 133.265 97.4404 133.265 96.0216C133.265 94.5992 133.23 94.5992 133.23 93.1804C133.23 91.7615 133.327 91.7615 133.327 90.3392C133.327 88.9204 133.296 88.9204 133.296 87.5015C133.296 86.0827 133.137 86.0792 133.137 84.6604C133.137 83.2415 133.296 83.2415 133.296 81.8192C133.296 81.5666 133.389 81.3451 133.642 81.3451C135.06 81.3451 135.06 81.314 136.483 81.314C137.901 81.314 137.901 81.314 139.32 81.314C140.742 81.314 140.742 81.5666 142.161 81.5666C143.583 81.5666 143.583 81.4731 145.002 81.4731C146.42 81.4731 146.42 81.5666 147.842 81.5666C149.261 81.5666 149.261 81.3763 150.68 81.3763C151.06 81.3763 151.344 81.3763 151.565 81.3763C152.195 81.3451 152.479 81.314 153.52 81.314C154.939 81.314 154.939 81.5354 156.361 81.5354C157.78 81.5354 157.78 81.442 159.199 81.442C160.621 81.442 160.621 81.442 162.039 81.442C163.461 81.442 163.461 81.5043 164.88 81.5043C166.299 81.5043 166.299 81.5354 167.721 81.5354C169.14 81.5354 169.14 81.3451 170.558 81.3451C171.98 81.3451 171.98 81.442 173.399 81.442C174.818 81.442 174.818 81.5666 176.24 81.5666C177.659 81.5666 177.659 81.3451 179.081 81.3451C180.503 81.3451 180.499 81.5043 181.918 81.5043C182.171 81.5043 182.485 81.5977 182.485 81.8192C182.485 83.2415 182.202 83.2415 182.202 84.6604C182.202 86.0792 182.233 86.0792 182.233 87.4669C182.233 88.8892 182.202 88.8892 182.202 90.3081C182.202 91.7304 182.361 91.7304 182.361 93.1493C182.361 94.5681 182.299 94.5681 182.299 95.9593C182.299 97.3781 182.485 97.3781 182.485 98.7969C182.485 100.219 182.33 100.219 182.33 101.638C182.33 103.057 182.361 103.057 182.361 104.479C182.361 105.898 182.392 105.898 182.392 107.317C182.392 108.739 182.267 108.739 182.267 110.158C182.267 111.577 182.485 111.577 182.485 112.999C182.485 114.418 182.392 114.418 182.392 115.84C182.392 117.259 182.233 117.259 182.233 118.678C182.233 120.097 182.171 120.1 182.171 121.519C182.171 122.938 182.202 122.938 182.202 124.36C182.202 125.779 182.171 125.779 182.171 127.167C182.171 128.589 182.233 128.589 182.233 130.008C182.233 131.427 182.423 131.427 182.423 132.849C182.423 134.268 182.299 134.268 182.299 135.687C182.299 137.109 182.392 137.109 182.392 138.497C182.392 139.916 182.33 139.916 182.33 141.338C182.33 142.761 182.361 142.757 182.361 144.176C182.361 145.598 182.171 145.598 182.171 147.017C182.171 148.439 182.233 148.439 182.233 149.858C182.233 150.111 182.108 150.142 181.856 150.142C180.437 150.142 180.437 150.332 179.015 150.332C177.596 150.332 177.596 150.363 176.178 150.363C174.755 150.363 174.755 150.426 173.337 150.426C171.915 150.426 171.915 150.301 170.496 150.301C169.077 150.301 169.077 150.395 167.655 150.395C166.237 150.395 166.237 150.395 164.818 150.395C163.396 150.395 163.396 150.332 161.977 150.332C160.558 150.332 160.558 150.395 159.136 150.395C157.718 150.395 157.718 150.173 156.299 150.173C154.877 150.173 154.877 150.363 153.458 150.363C152.51 150.363 152.226 150.363 151.628 150.363Z" stroke="#2E3343" stroke-width="1.00174" stroke-linecap="round" stroke-linejoin="round"/>
<path d="M151.566 7.34355C152.195 7.37469 152.479 7.47159 153.521 7.47159C154.939 7.47159 154.939 7.43698 156.361 7.43698C157.78 7.43698 157.78 7.40584 159.199 7.40584C160.621 7.40584 160.621 7.53388 162.039 7.53388C163.462 7.53388 163.462 7.31239 164.88 7.31239C166.299 7.31239 166.299 7.40584 167.721 7.40584C169.14 7.40584 169.14 7.56502 170.558 7.56502C171.981 7.56502 171.981 7.62731 173.399 7.62731C174.818 7.62731 174.818 7.59617 176.24 7.59617C177.659 7.59617 177.659 7.59617 179.081 7.59617C180.503 7.59617 180.499 7.53388 181.918 7.53388C182.171 7.53388 182.486 7.65846 182.486 7.91108C182.486 9.33339 182.361 9.33339 182.361 10.7522C182.361 12.1711 182.454 12.1711 182.454 13.5623C182.454 14.9534 182.392 14.9811 182.392 16.4C182.392 17.8223 182.423 17.8223 182.423 19.21C182.423 20.6288 182.233 20.6288 182.233 22.0511C182.233 23.47 182.299 23.47 182.299 24.8888C182.299 26.3111 182.202 26.3111 182.202 27.73C182.202 29.1488 182.392 29.1488 182.392 30.54C182.392 31.9589 182.423 31.9589 182.423 33.3777C182.423 34.8 182.486 34.8 182.486 36.2189C182.486 37.6377 182.361 37.6377 182.361 39.06C182.361 40.4789 182.454 40.4789 182.454 41.8666C182.454 43.2889 182.454 43.2889 182.454 44.7077C182.454 46.1266 182.392 46.1266 182.392 47.5489C182.392 48.9678 182.454 48.9678 182.454 50.3901C182.454 51.8089 182.233 51.8089 182.233 53.1966C182.233 54.6155 182.423 54.6155 182.423 56.0378C182.423 57.4566 182.423 57.4566 182.423 58.8789C182.423 60.3012 182.361 60.2978 182.361 61.7166C182.361 63.139 182.392 63.1389 182.392 64.5578C182.392 65.9766 182.392 65.9766 182.392 67.399C182.392 68.8178 182.361 68.8178 182.361 70.2367C182.361 71.659 182.33 71.659 182.33 73.0778C182.33 74.5001 182.486 74.5001 182.486 75.919C182.486 76.1716 182.171 76.3931 181.949 76.3931C180.531 76.3931 180.531 76.3931 179.112 76.3931C177.69 76.3931 177.69 76.4554 176.271 76.4554C174.852 76.4554 174.852 76.4242 173.43 76.4242C172.012 76.4242 172.012 76.3273 170.59 76.3273C169.171 76.3273 169.171 76.4554 167.752 76.4554C166.33 76.4554 166.33 76.4554 164.911 76.4554C163.493 76.4554 163.493 76.2339 162.071 76.2339C160.652 76.2339 160.652 76.2962 159.233 76.2962C157.811 76.2962 157.811 76.2339 156.392 76.2339C154.974 76.2339 154.974 76.265 153.552 76.265C153.015 76.265 152.7 76.265 152.417 76.2962C151.943 76.3273 151.628 76.3931 150.711 76.3931C149.292 76.3931 149.292 76.2339 147.874 76.2339C146.451 76.2339 146.451 76.3273 145.033 76.3273C143.614 76.3273 143.614 76.1716 142.192 76.1716C140.77 76.1716 140.773 76.2339 139.355 76.2339C137.933 76.2339 137.933 76.2027 136.514 76.2027C135.092 76.2027 135.092 76.2339 133.673 76.2339C133.42 76.2339 133.137 76.1093 133.137 75.8878C133.137 74.4655 133.296 74.4655 133.296 73.0778C133.296 71.659 133.265 71.659 133.265 70.2367C133.265 68.8178 133.358 68.8178 133.358 67.4301C133.358 66.0078 133.327 66.0078 133.327 64.5889C133.327 63.1701 133.168 63.1701 133.168 61.7478C133.168 60.3289 133.327 60.3289 133.327 58.9101C133.327 57.4878 133.168 57.4878 133.168 56.0689C133.168 54.6501 133.137 54.6501 133.137 53.2589C133.137 51.8401 133.137 51.8401 133.137 50.4212C133.137 48.9989 133.389 48.9989 133.389 47.58C133.389 46.1612 133.296 46.1612 133.296 44.7389C133.296 43.32 133.389 43.32 133.389 41.8977C133.389 40.4789 133.199 40.4789 133.199 39.06C133.199 37.6377 133.137 37.6377 133.137 36.2189C133.137 34.8 133.358 34.8 133.358 33.3777C133.358 31.9589 133.265 31.9589 133.265 30.54C133.265 29.1177 133.265 29.1177 133.265 27.6988C133.265 26.28 133.327 26.28 133.327 24.8577C133.327 23.4388 133.358 23.4388 133.358 22.0165C133.358 20.5977 133.168 20.5977 133.168 19.21C133.168 17.8223 133.265 17.7911 133.265 16.3688C133.265 14.95 133.358 14.95 133.358 13.5277C133.358 12.1088 133.137 12.1088 133.137 10.69C133.137 9.26764 133.296 9.26764 133.296 7.84879C133.296 7.59617 133.389 7.28125 133.611 7.28125C135.029 7.28125 135.029 7.56502 136.452 7.56502C137.87 7.56502 137.87 7.53388 139.289 7.53388C140.711 7.53388 140.711 7.56502 142.13 7.56502C143.548 7.56502 143.548 7.40584 144.97 7.40584C146.389 7.40584 146.389 7.47159 147.808 7.47159C149.23 7.47159 149.23 7.31239 150.649 7.31239C151.06 7.34354 151.344 7.34355 151.566 7.34355Z" stroke="#2E3343" stroke-width="1.00174" stroke-linecap="round" stroke-linejoin="round"/>
</svg>
