<svg width="180" height="180" viewBox="0 0 180 180" fill="none" xmlns="http://www.w3.org/2000/svg">
<path d="M139.248 48.3765L135.47 44.3906L135.502 44.5639L139.213 48.4474L139.248 48.3765Z" fill="#F5B731" fill-opacity="0.8"/>
<path d="M136.846 43.5792L140.167 47.0334L144.97 42.5907L141.685 39.1326L136.846 43.5792Z" fill="#F5B731" fill-opacity="0.8"/>
<path d="M135.47 44.3552V44.3906L139.248 48.3765L139.812 47.8448L136.034 43.8235L135.47 44.3552Z" fill="#F5B731" fill-opacity="0.8"/>
<path d="M122.965 26.3597C122.929 26.2888 122.929 26.2179 122.929 26.147C122.929 26.2533 122.929 26.3597 122.965 26.5014C123.319 27.5255 123.812 28.581 124.305 29.6405H124.376C123.812 28.5456 123.351 27.4191 122.965 26.3597Z" fill="#F5B731" fill-opacity="0.8"/>
<path d="M125.082 31.0545C124.834 30.5977 124.589 30.1014 124.341 29.6445H124.27C124.518 30.1369 124.727 30.6331 125.011 31.1254L125.082 31.0545Z" fill="#F5B731" fill-opacity="0.8"/>
<path d="M124.376 29.6406C124.731 29.7115 125.047 29.8178 125.402 29.9241C124.66 28.4787 124.025 27.0293 123.493 25.6193C123.457 25.5484 123.457 25.5129 123.457 25.442C123.174 25.5484 122.965 25.7965 122.929 26.1116C122.929 26.1825 122.929 26.2534 122.965 26.3243C123.355 27.4192 123.812 28.5456 124.376 29.6406Z" fill="#F5B731" fill-opacity="0.8"/>
<path d="M125.579 30.452C125.508 30.3811 125.473 30.2747 125.508 30.1684C125.473 30.0975 125.437 30.0266 125.402 29.9557C125.047 29.8494 124.731 29.743 124.376 29.6721C124.589 30.129 124.834 30.6253 125.118 31.0821L125.717 30.5544C125.646 30.4835 125.611 30.4835 125.575 30.448L125.579 30.452Z" fill="#F5B731" fill-opacity="0.8"/>
<path d="M124.27 25.5838C124.763 26.8874 125.331 28.1951 126.037 29.5342L128.154 27.557C126.849 26.8166 125.54 26.147 124.27 25.5798V25.5838Z" fill="#F5B731" fill-opacity="0.8"/>
<path d="M66.1989 39.5895C67.2243 39.4832 67.8947 39.3768 68.8846 39.1996C69.275 39.1641 69.4485 39.1641 69.626 39.1641C69.768 39.1641 69.9099 39.1641 70.19 39.1287C70.0835 38.7388 70.0125 38.53 69.977 38.3173C69.906 38.1047 69.835 37.892 69.7285 37.4351C69.6221 37.0097 69.5511 36.801 69.4801 36.5883C69.4091 36.3756 69.3381 36.1629 69.2316 35.7061C68.9477 35.7769 68.7742 35.7769 68.5967 35.8124C68.4192 35.8124 68.2773 35.8478 67.9263 35.8833C67.6068 35.9187 67.4333 35.9542 67.2913 35.9896C67.1494 36.0251 66.9719 36.0605 66.6919 36.096C66.6564 36.2023 66.5499 36.3087 66.4434 36.3441H66.337C66.195 36.3441 66.0885 36.2732 66.0175 36.1314C65.8046 36.1314 65.6271 36.1314 65.2051 36.1669C64.8857 36.2023 64.7122 36.2378 64.5347 36.2732C64.4992 36.2732 64.4282 36.2732 64.3927 36.3087V36.3441C64.5347 36.9323 64.6872 37.5086 64.8502 38.0732C65.0631 38.8845 65.0631 38.9554 65.2406 39.6604C65.3471 39.6604 65.4181 39.6604 65.4891 39.625C65.702 39.6604 65.8795 39.625 66.195 39.5895H66.1989Z" fill="#F5B731" fill-opacity="0.8"/>
<path d="M70.19 36.4149C70.2609 36.6276 70.3319 36.8403 70.4384 37.2972C70.5449 37.7226 70.6159 37.9313 70.6869 38.144C70.7578 38.3567 70.8288 38.5694 70.9353 39.0262C70.9708 39.168 70.9353 39.3453 70.8643 39.4831C70.9353 39.4831 71.0063 39.4477 71.0773 39.4477C71.2193 39.4122 71.3257 39.3413 71.2902 39.1641C71.1483 38.5759 71.0076 37.9996 70.8683 37.435C70.6553 36.5528 70.6908 36.5528 70.4778 35.6705C70.4424 35.4933 70.1939 35.387 70.0559 35.387H69.9139C69.9494 35.4224 69.9849 35.4933 69.9849 35.5288C70.0914 35.9856 70.1269 36.1983 70.1978 36.411L70.19 36.4149Z" fill="#F5B731" fill-opacity="0.8"/>
<path d="M111.591 117.239C111.626 117.345 111.662 117.416 111.662 117.522L111.804 117.877C112.088 118.511 112.368 119.216 112.829 119.992L113.042 120.382C113.22 120.701 113.397 121.051 113.606 121.37C113.855 121.725 113.926 122.076 113.89 122.43L113.784 122.784C113.606 123.419 113.393 124.23 113.149 124.829C112.936 125.183 112.727 125.463 112.443 125.64C112.052 125.888 111.63 125.994 111.24 126.065C111.311 126.207 111.382 126.349 111.453 126.491C111.559 126.703 111.63 126.948 111.701 127.16C111.772 127.373 111.843 127.617 111.95 127.83C112.056 128.042 112.198 128.255 112.305 128.464C112.94 129.63 113.575 130.685 112.904 132.237C112.34 133.647 111.599 135.097 110.715 136.294C109.797 138.094 108.385 140.315 106.089 140.741C105.525 140.918 104.993 141.095 104.465 141.13C104.287 141.13 104.145 141.166 104.007 141.166C103.759 141.166 103.55 141.166 103.337 141.13C103.159 141.13 102.982 141.095 102.844 141.13H102.808C103.763 141.658 105.916 140.953 106.906 140.705C108.247 140.351 109.414 139.752 110.404 138.799C111.607 137.633 112.242 136.258 113.019 134.848C113.511 133.966 114.186 132.907 114.15 131.887C114.044 129.909 111.536 128.007 111.891 125.994V125.959C113.196 125.994 113.693 124.97 114.079 123.946C114.47 122.958 114.998 122.359 114.328 121.406C113.799 120.665 113.231 119.996 113.022 119.078C112.916 118.409 112.739 117.775 112.494 117.207H112.001C111.895 117.278 111.753 117.243 111.611 117.243L111.591 117.239Z" fill="#F5B731" fill-opacity="0.8"/>
<path d="M106.539 111.701H106.504C106.681 111.843 106.894 111.985 107.103 112.127C107.951 112.725 108.834 113.328 109.469 113.927C110.424 114.809 110.775 115.408 111.271 116.432C111.413 116.715 111.52 116.995 111.626 117.278H112.581C111.449 114.703 109.012 113.08 106.539 111.705V111.701Z" fill="#F5B731" fill-opacity="0.8"/>
<path d="M102.442 108.629C102.371 108.523 102.335 108.417 102.264 108.31C102.264 108.417 102.229 108.523 102.229 108.629C102.335 108.594 102.406 108.594 102.442 108.629Z" fill="#F5B731" fill-opacity="0.8"/>
<path d="M103.569 110.252C103.676 110.358 103.924 110.429 104.204 110.5C103.956 110.043 103.92 109.511 103.285 109.196C103.262 109.196 103.238 109.185 103.214 109.161C103.321 109.338 103.356 109.515 103.356 109.689C103.392 109.901 103.427 110.079 103.569 110.252Z" fill="#F5B731" fill-opacity="0.8"/>
<path d="M110.637 123.801C110.566 124.226 110.566 124.647 110.814 125.282C110.814 125.317 110.849 125.352 110.849 125.388C111.098 125.352 111.342 125.317 111.52 125.246C111.2 124.754 110.885 124.258 110.637 123.801Z" fill="#F5B731" fill-opacity="0.8"/>
<path d="M107.387 117.203C106.61 117.203 106.61 117.168 105.833 117.168C104.666 117.203 103.889 117.239 102.725 117.239C101.949 117.239 101.949 117.133 101.172 117.133H100.679C100.572 117.203 100.43 117.31 100.324 117.381C100.253 117.416 100.217 117.416 100.146 117.416C100.004 117.416 99.8978 117.345 99.8269 117.239C99.8269 117.203 99.7914 117.168 99.7914 117.168C99.2629 117.168 98.7305 117.203 98.0956 117.239H97.9891C98.3795 117.664 98.908 117.944 99.2235 118.44C99.7164 119.287 99.9649 120.311 100.426 121.193C101.132 122.532 102.016 123.84 101.98 125.392C101.945 126.908 103.112 127.192 103.534 128.531C103.818 129.413 103.889 130.295 103.889 131.107C106.22 130.437 108.799 129.874 110.885 131.071C111.062 131.178 111.133 131.39 111.027 131.599C110.92 131.776 110.708 131.847 110.498 131.741C109.58 131.248 108.554 131.107 107.462 131.178C107.919 131.284 108.381 131.426 108.838 131.634C109.016 131.705 109.122 131.953 109.051 132.127C108.98 132.269 108.838 132.339 108.696 132.339C108.661 132.339 108.59 132.339 108.554 132.304C107.213 131.741 105.691 131.528 104.528 131.741H104.457C104.244 131.812 104.035 131.847 103.822 131.918C103.68 132.907 103.4 133.86 102.938 134.813C102.268 136.223 101.598 138.763 102.339 140.351C102.481 140.386 102.623 140.421 102.832 140.386H103.467C103.751 140.421 104.102 140.421 104.492 140.386C104.914 140.351 105.447 140.209 105.975 140.032C107.99 139.642 109.26 137.633 110.144 135.939C110.991 134.738 111.733 133.328 112.261 131.989C112.79 130.788 112.332 129.976 111.697 128.885C111.591 128.673 111.449 128.428 111.307 128.216C111.2 127.968 111.094 127.688 111.023 127.44C110.952 127.227 110.881 127.014 110.81 126.841C110.704 126.628 110.597 126.416 110.491 126.207L110.384 125.994C110.313 125.817 110.242 125.675 110.171 125.502C109.714 124.269 109.923 123.667 110.207 122.714L110.349 122.257C110.877 120.776 111.339 119.188 110.984 117.708C110.948 117.53 110.877 117.353 110.842 117.18C110.242 117.144 109.674 117.144 109.004 117.109C108.156 117.144 108.156 117.215 107.379 117.215L107.387 117.203Z" fill="#F5B731" fill-opacity="0.8"/>
<path d="M112.47 124.541C112.683 124.013 112.892 123.273 113.034 122.635L113.141 122.28C113.176 122.139 113.105 121.997 112.999 121.788C112.75 121.434 112.577 121.048 112.399 120.693L112.186 120.303C112.044 120.055 111.902 119.811 111.796 119.563C111.69 120.551 111.374 121.54 111.019 122.458L110.984 122.599C111.232 123.269 111.654 124.009 112.218 124.785C112.289 124.785 112.395 124.679 112.466 124.537L112.47 124.541Z" fill="#F5B731" fill-opacity="0.8"/>
<path d="M99.9333 116.782C100.604 116.392 101.168 115.9 101.7 115.372C101.381 115.514 101.03 115.656 100.639 115.762C99.9333 116.081 99.2274 116.254 98.557 116.325C98.344 116.609 98.1666 116.888 97.9575 117.172C97.9575 117.207 97.922 117.207 97.8866 117.207C97.922 117.243 97.9575 117.278 97.9575 117.314H98.064C98.699 117.278 99.2314 117.278 99.7598 117.243C99.7243 117.03 99.7953 116.857 99.9373 116.786L99.9333 116.782Z" fill="#F5B731" fill-opacity="0.8"/>
<path d="M108.941 114.45C108.377 113.923 107.458 113.285 106.681 112.721C106.117 112.331 105.549 111.945 105.163 111.591C104.95 111.378 104.563 111.307 104.208 111.236C103.751 111.13 103.254 111.059 102.974 110.673C102.725 110.319 102.654 110.004 102.619 109.791C102.583 109.649 102.583 109.543 102.548 109.507C102.406 109.366 102.371 109.33 102.193 109.33C102.264 109.472 102.335 109.614 102.406 109.72C102.513 109.897 102.442 110.145 102.229 110.212C102.158 110.248 102.122 110.248 102.051 110.248C101.98 110.248 101.909 110.212 101.874 110.212C101.803 110.39 101.767 110.602 101.696 110.776C101.803 110.705 101.909 110.669 102.051 110.705C102.264 110.74 102.371 110.953 102.335 111.162C102.264 111.445 101.98 111.831 101.345 112.501C101.203 112.678 100.888 113.029 100.533 113.312C100.111 114.017 99.6849 114.722 99.1919 115.427C99.5823 115.321 100.004 115.214 100.426 115.037C101.732 114.58 102.651 114.12 103.147 113.663C103.289 113.521 103.502 113.521 103.64 113.663C103.778 113.804 103.818 114.017 103.711 114.155C103.005 115.144 102.016 116.341 100.746 117.188H101.239C102.016 117.188 102.016 117.294 102.793 117.294C103.96 117.259 104.737 117.259 105.9 117.223C106.677 117.223 106.677 117.259 107.454 117.259C108.231 117.259 108.231 117.188 109.008 117.188C109.714 117.223 110.278 117.223 110.846 117.259C110.775 117.081 110.704 116.94 110.633 116.766C110.104 115.778 109.82 115.214 108.937 114.439L108.941 114.45Z" fill="#F5B731" fill-opacity="0.8"/>
<path d="M100.497 103.974C101.026 104.998 101.523 106.053 101.909 107.113C102.051 107.467 102.158 107.889 102.3 108.279C102.3 108.243 102.3 108.208 102.335 108.137V108.101C101.878 106.691 101.31 105.313 100.568 103.903C100.497 103.796 100.426 103.726 100.32 103.655C100.32 103.69 100.284 103.69 100.284 103.726C100.355 103.796 100.462 103.867 100.497 103.974Z" fill="#F5B731" fill-opacity="0.8"/>
<path d="M94.562 109.511L94.5975 109.476C95.055 109.228 95.4454 108.877 95.8003 108.558C95.4454 108.806 95.0589 109.086 94.704 109.37C94.704 109.405 94.633 109.476 94.562 109.511Z" fill="#F5B731" fill-opacity="0.8"/>
<path d="M97.6026 116.321H97.5316C97.5316 116.569 97.6026 116.778 97.8511 117.133C97.8511 117.168 97.8866 117.168 97.922 117.168C97.8984 117.144 97.8747 117.121 97.8511 117.097C97.6381 116.778 97.6026 116.569 97.6026 116.321Z" fill="#F5B731" fill-opacity="0.8"/>
<path d="M97.5671 115.545C97.4961 115.018 97.2122 114.592 96.9322 114.171C96.1198 112.903 95.1299 111.701 94.353 110.433C94.211 110.185 94.2465 109.905 94.3885 109.693C94.353 109.728 94.3175 109.764 94.2465 109.799C94.211 109.834 94.211 109.905 94.1755 109.941C94.1045 110.366 94.4595 110.823 94.775 111.244C94.8815 111.422 95.0234 111.563 95.0944 111.701C95.5874 112.371 96.2617 113.253 96.8612 114.206L96.9322 114.313C97.1806 114.738 97.4606 115.089 97.4961 115.581C97.5316 115.581 97.5671 115.581 97.5671 115.545Z" fill="#F5B731" fill-opacity="0.8"/>
<path d="M99.5784 103.761C99.5784 103.796 99.6139 103.832 99.6139 103.832C99.7914 103.655 100.071 103.619 100.284 103.761C100.284 103.726 100.32 103.726 100.32 103.69C100.213 103.619 100.107 103.584 100 103.584C99.8229 103.584 99.6809 103.655 99.5784 103.761Z" fill="#F5B731" fill-opacity="0.8"/>
<path d="M94.562 109.511C94.633 109.441 94.6685 109.405 94.7395 109.334C95.0944 109.015 95.4454 108.771 95.8358 108.523C97.0702 107.322 98.2375 106.018 99.1209 104.537C99.1209 104.502 99.0854 104.502 99.0854 104.466C98.6635 105.207 98.202 105.841 97.6736 106.408C97.4961 106.585 97.3187 106.798 97.1451 107.006C96.3682 107.889 95.5558 108.806 94.5305 109.405C94.3885 109.511 94.282 109.618 94.2465 109.76C94.282 109.724 94.3175 109.689 94.3885 109.653C94.4595 109.618 94.495 109.547 94.566 109.511H94.562Z" fill="#F5B731" fill-opacity="0.8"/>
<path d="M100.497 103.974C100.462 103.867 100.355 103.796 100.284 103.761C100.178 103.974 100.036 104.186 99.8939 104.395C100.142 104.852 100.351 105.313 100.564 105.699C100.742 106.089 100.919 106.475 101.093 106.9C101.341 107.463 101.586 108.066 101.834 108.629C101.976 108.629 102.118 108.594 102.225 108.594C102.225 108.487 102.26 108.381 102.26 108.275C102.118 107.885 102.012 107.463 101.87 107.109C101.515 106.014 101.022 104.994 100.493 103.97L100.497 103.974Z" fill="#F5B731" fill-opacity="0.8"/>
<path d="M101.732 110.079C101.59 109.83 101.448 109.515 101.31 109.196C101.026 108.598 100.71 107.857 100.426 107.184C100.249 106.758 100.071 106.372 99.9333 106.018C99.7914 105.734 99.5784 105.384 99.4049 105.029C98.628 105.982 97.7091 106.829 97.0741 107.534C96.6837 107.924 96.2618 108.239 95.8713 108.523C95.4809 108.877 95.0944 109.192 94.6685 109.441L94.633 109.476C94.562 109.511 94.5265 109.582 94.4555 109.618C94.3136 109.83 94.2781 110.11 94.42 110.358C95.1969 111.662 96.1868 112.828 96.9992 114.096C97.2832 114.553 97.5632 114.943 97.6342 115.471V115.506C98.0916 115.541 98.624 115.506 99.2235 115.364C99.6809 114.659 100.142 113.99 100.564 113.249C100.107 113.639 99.468 114.025 98.7621 114.131H98.6911C98.5136 114.131 98.3361 113.99 98.3006 113.812C98.2651 113.6 98.4071 113.422 98.6201 113.387C99.3615 113.281 100.174 112.717 100.809 111.906C101.444 111.237 101.621 110.988 101.621 110.882C101.657 110.811 101.692 110.74 101.728 110.705C101.799 110.528 101.87 110.315 101.905 110.142C101.799 110.212 101.763 110.142 101.728 110.071L101.732 110.079Z" fill="#F5B731" fill-opacity="0.8"/>
<path d="M98.553 116.286C98.1981 116.321 97.8826 116.321 97.5987 116.321C97.5987 116.569 97.6342 116.778 97.8471 117.097C97.8471 117.133 97.8826 117.133 97.9181 117.168C97.9418 117.168 97.9654 117.156 97.9891 117.133C98.1311 116.849 98.344 116.569 98.553 116.286Z" fill="#F5B731" fill-opacity="0.8"/>
<path d="M100.284 103.761C100.071 103.619 99.7914 103.655 99.6139 103.832C99.6849 104.009 99.7914 104.186 99.8978 104.36C100.04 104.183 100.182 103.97 100.288 103.761H100.284Z" fill="#F5B731" fill-opacity="0.8"/>
<path d="M97.0702 107.538C97.7051 106.833 98.624 105.986 99.4009 105.033C99.3299 104.856 99.2235 104.714 99.1525 104.541C98.2691 106.022 97.0702 107.294 95.8674 108.527C96.2578 108.243 96.6798 107.928 97.0702 107.538Z" fill="#F5B731" fill-opacity="0.8"/>
<path d="M68.6006 67.9907C68.3167 68.1325 67.7173 68.3098 67.0823 68.554V68.6249H67.1178C67.2953 68.554 67.5082 68.4831 67.6818 68.4122C68.1037 68.2704 68.4587 68.1286 68.6361 68.0222C68.7426 67.9868 68.8491 67.9159 68.9556 67.845C69.0266 67.8096 69.133 67.7741 69.204 67.7032V67.6323C68.9911 67.8096 68.7821 67.9159 68.6046 67.9868L68.6006 67.9907Z" fill="#F5B731" fill-opacity="0.8"/>
<path d="M70.8604 65.3794C70.8959 65.2376 70.9314 65.0958 70.9314 64.954C70.9314 63.5794 71.0733 62.2009 71.2863 60.8263C71.2863 60.6137 71.3218 60.401 71.3218 60.1922C71.3573 59.8732 71.4638 59.5227 71.5702 59.1328C71.6057 58.991 71.6057 58.8137 71.6412 58.6759C71.6412 58.6522 71.6294 58.6286 71.6057 58.605H71.5348C71.2508 58.7468 71.0063 58.8531 70.7224 58.9949V59.0658C71.0063 58.9595 71.2863 58.8177 71.5702 58.6759C71.2153 60.8618 70.7578 63.1226 70.8643 65.3794H70.8604Z" fill="#F5B731" fill-opacity="0.8"/>
<path d="M68.9871 59.5581C69.3066 59.5227 69.6221 59.4163 69.9415 59.31V59.2745C69.6221 59.3809 69.3066 59.4872 68.9871 59.5581Z" fill="#F5B731" fill-opacity="0.8"/>
<path d="M70.7184 66.7185C70.5055 66.8957 70.2609 67.073 69.977 67.2463V67.3526C70.2609 67.1754 70.5055 66.9981 70.7184 66.8248V66.7185Z" fill="#F5B731" fill-opacity="0.8"/>
<path d="M68.6006 67.459C68.1077 67.6717 67.5043 67.9159 67.0113 68.164C67.0468 68.3058 67.0823 68.4121 67.0823 68.5539C67.7173 68.3058 68.3167 68.1285 68.6006 67.9907C68.7781 67.8844 68.9911 67.778 69.2001 67.6717V67.073C69.0936 67.1793 68.9161 67.2857 68.6006 67.4629V67.459Z" fill="#F5B731" fill-opacity="0.8"/>
<path d="M67.1494 59.9126C67.0784 59.9835 67.0074 60.0544 66.9364 60.1253C66.7589 60.3025 66.546 60.4798 66.3015 60.6531C65.7375 61.11 65.0986 61.6062 64.9251 62.134C64.7831 62.4885 65.1381 63.158 65.4181 63.6858C65.4891 63.863 65.5955 64.0048 65.631 64.1112C66.0215 65.1352 66.4789 66.2262 66.7984 67.4275C67.2913 67.1793 67.8237 66.9706 68.2812 66.7933C68.5651 66.6516 68.6716 66.5452 68.7742 66.4743C68.8806 66.4034 68.9871 66.2971 69.2316 66.1907C69.2671 65.0958 69.3381 63.9694 69.4446 62.9099C69.5511 62.2403 69.6575 61.6062 69.764 60.9327L69.9415 59.8732C69.9415 59.696 69.9415 59.5188 69.977 59.3455C69.6576 59.4518 69.3421 59.5227 69.0226 59.5936C68.3877 59.6999 67.7527 59.8063 67.1494 59.9126Z" fill="#F5B731" fill-opacity="0.8"/>
<path d="M70.7184 66.1198C70.7894 65.8717 70.8249 65.5921 70.8604 65.3439C70.7539 63.0871 71.2153 60.8303 71.5663 58.605C71.2824 58.7468 71.0024 58.8886 70.7184 58.9949C70.6829 59.2785 70.6474 59.5936 70.6474 59.8772L70.47 61.0075C70.3635 61.6416 70.257 62.2758 70.186 62.9138C70.115 64.0087 70.0085 65.2061 69.973 66.3719V67.1832C70.257 67.006 70.5015 66.8288 70.7145 66.6555V66.1277L70.7184 66.1198Z" fill="#F5B731" fill-opacity="0.8"/>
<path d="M71.5663 59.1013C71.4598 59.4912 71.3533 59.8418 71.3178 60.1608C71.2824 60.3735 71.2824 60.5862 71.2824 60.7949C71.3533 60.338 71.4243 59.8772 71.4953 59.4558C71.5308 59.3494 71.5663 59.2431 71.5663 59.1013Z" fill="#F5B731" fill-opacity="0.8"/>
<path d="M71.0379 66.4743L71.0024 66.2971C71.0024 66.2262 71.0024 66.1199 70.9669 66.049C70.9314 65.659 70.9314 65.2731 70.9314 64.9186C70.8959 65.0604 70.8604 65.2022 70.8604 65.3439C70.8604 65.5921 70.8959 65.8008 70.8959 66.049C70.8959 66.1908 70.9314 66.3325 70.9314 66.4743C70.8604 66.5452 70.7894 66.6516 70.6829 66.7225V66.8288C70.7894 66.7225 70.8959 66.6516 71.0024 66.5452C71.026 66.5216 71.0379 66.498 71.0379 66.4743Z" fill="#F5B731" fill-opacity="0.8"/>
<path d="M70.9669 66.4744C70.9669 66.3326 70.9314 66.1908 70.9314 66.049C70.8959 65.8009 70.8959 65.5921 70.8959 65.344C70.8604 65.5921 70.8249 65.8718 70.7539 66.1199C70.7539 66.3326 70.7539 66.5098 70.7184 66.7186C70.7894 66.6477 70.8959 66.5768 70.9669 66.4704V66.4744Z" fill="#F5B731" fill-opacity="0.8"/>
<path d="M66.9403 60.1213C66.3764 60.6491 65.1736 61.3896 64.8896 62.134C64.7122 62.5908 65.3826 63.6149 65.5955 64.1111C66.0175 65.1706 66.4434 66.2971 66.7629 67.4274C66.4434 66.2262 65.986 65.1352 65.5955 64.1111C65.5246 64.0048 65.4536 63.8276 65.3826 63.6858C65.0986 63.158 64.7476 62.4845 64.8896 62.134C65.0671 61.6416 65.702 61.1099 66.266 60.6531C66.5499 60.4758 66.7589 60.2986 66.9364 60.1253C67.0074 60.0544 67.0784 59.9835 67.1494 59.9126H67.1139C67.0784 59.9835 67.0074 60.0544 66.9364 60.1253L66.9403 60.1213Z" fill="#F5B731" fill-opacity="0.8"/>
<path d="M66.7274 68.3058C66.6919 68.3058 66.6919 68.3412 66.6564 68.3412C66.6564 68.3767 66.6919 68.3767 66.6919 68.4121C66.8339 68.5894 66.9403 68.6603 67.0468 68.6603H67.0823V68.5894C66.9758 68.5539 66.8694 68.483 66.7274 68.3058Z" fill="#F5B731" fill-opacity="0.8"/>
<path d="M66.2699 67.6717C66.2936 67.6717 66.3172 67.6599 66.3409 67.6362C66.3054 67.5653 66.2699 67.5299 66.2699 67.459V67.6717Z" fill="#F5B731" fill-opacity="0.8"/>
<path d="M64.5741 61.8504C64.9961 61.5668 65.3865 61.2872 65.8085 60.9682C66.2305 60.6846 66.6209 60.2986 67.0113 59.9087C66.9758 59.9087 66.9403 59.9087 66.8694 59.9441C66.5144 60.2986 66.1279 60.6491 65.7375 60.9327C65.631 61.0036 65.5246 61.0745 65.4181 61.1809C65.1341 61.3935 64.8186 61.6062 64.4992 61.815L64.4637 61.8504C64.3927 62.1694 64.5702 63.0517 64.8541 64.0718C64.9251 64.1781 64.9606 64.2845 65.0316 64.3554C64.7122 63.225 64.4676 62.2049 64.5741 61.8504Z" fill="#F5B731" fill-opacity="0.8"/>
<path d="M66.7274 68.3057C66.8694 68.483 66.9758 68.5893 67.0823 68.5539C67.0468 68.4121 67.0113 68.3057 67.0113 68.1639C66.9048 68.1994 66.7984 68.2703 66.7274 68.3057Z" fill="#F5B731" fill-opacity="0.8"/>
<path d="M64.8896 62.134C65.1381 61.3935 66.3725 60.6885 66.9403 60.1214C67.0113 60.0505 67.0823 59.9796 67.1533 59.9087C67.1178 59.9087 67.0468 59.9087 67.0113 59.9441C66.6209 60.3341 66.2344 60.6846 65.8085 61.0036C65.4181 61.3226 64.9961 61.6023 64.5741 61.8859C64.5031 62.2403 64.7161 63.2604 65.0671 64.3908C65.5601 65.3794 65.9505 66.4034 66.2699 67.4235V67.4944C66.3054 67.5653 66.3409 67.6008 66.3409 67.6717C66.4829 67.6008 66.6603 67.5299 66.7984 67.459C66.4789 66.3286 66.057 65.2022 65.631 64.1427C65.3826 63.6149 64.7476 62.5909 64.8896 62.1301V62.134Z" fill="#F5B731" fill-opacity="0.8"/>
<path d="M90.078 61.8858C90.3975 62.3427 90.6775 62.9453 90.9614 63.6149C91.3834 64.3908 91.8093 65.3439 92.0933 66.2616C92.1642 66.4743 92.2707 66.687 92.3772 66.8957C92.4837 67.1439 92.5902 67.3526 92.6611 67.5653C92.8386 68.0576 92.9451 68.5893 92.9806 69.0462C93.0161 69.4716 92.8031 69.893 92.4166 70.2475C92.1682 70.4602 91.8882 70.6374 91.5687 70.7398C92.4521 70.7753 93.513 70.3499 93.935 69.6449C93.793 68.164 93.229 66.75 92.7321 65.3754C91.9907 63.8591 91.3203 62.2364 90.2594 60.8933C90.2594 60.9642 90.2239 60.9997 90.2239 61.0705C90.1884 61.3541 90.1175 61.6338 90.082 61.8819L90.078 61.8858Z" fill="#F5B731" fill-opacity="0.8"/>
<path d="M88.6977 68.5539C89.1197 69.0816 89.5456 69.6134 90.0741 70.0702C90.2161 70.1411 90.3935 70.1766 90.567 70.212C91.0245 70.2829 91.5569 70.0702 91.9434 69.7551C92.1564 69.5425 92.2628 69.3298 92.2628 69.1565C92.2273 68.9438 92.1564 68.4515 91.9789 67.8528C91.9079 67.6756 91.8369 67.4629 91.7304 67.2896C91.624 67.0769 91.5175 66.8327 91.411 66.5846C91.127 65.7023 90.7406 64.7846 90.3146 64.0087C90.1727 63.6543 89.9952 63.3037 89.8572 63.0201C89.4352 64.8201 89.0803 66.6909 88.6898 68.5578C88.6898 68.5342 88.6898 68.5342 88.6898 68.5578L88.6977 68.5539Z" fill="#F5B731" fill-opacity="0.8"/>
<path d="M90.2516 61.0746C90.2516 61.0037 90.287 60.9682 90.287 60.8973C90.2515 61.0037 90.2516 61.0391 90.2516 61.0746Z" fill="#F5B731" fill-opacity="0.8"/>
</svg>
