<svg width="178" height="133" viewBox="0 0 178 133" fill="none" xmlns="http://www.w3.org/2000/svg">
<g clip-path="url(#clip0_931_19736)">
<path d="M121.225 96.4323C121.225 96.1575 121.191 96.0202 121.156 95.9209C121.122 95.7836 121.122 95.6118 121.087 95.3065V94.9974C121.019 95.0318 120.95 95.0318 120.881 95.0318C120.846 95.1005 120.812 95.1348 120.778 95.2035C120.743 95.2722 120.674 95.3065 120.606 95.3065C120.537 95.3409 120.468 95.3065 120.399 95.2722C120.399 95.8866 120.434 96.5353 120.468 97.1879V97.2909C120.674 97.2909 120.846 97.2909 121.049 97.2566H121.221V96.9475C121.221 96.8101 121.256 96.6727 121.221 96.4361L121.225 96.4323Z" fill="#F5B731" fill-opacity="0.8"/>
<path d="M121.294 65.8383C121.259 65.7353 121.191 65.5979 121.156 65.4949C121.225 66.1093 121.328 66.6588 121.259 67.2732H121.978C121.806 66.9641 121.668 66.6588 121.535 66.384C121.466 66.2123 121.397 66.0406 121.294 65.8383Z" fill="#F5B731" fill-opacity="0.8"/>
<path d="M126.363 88.7047C126.225 88.8421 126.157 88.9108 125.985 89.1168C126.053 89.1512 126.122 89.1855 126.157 89.2199C126.191 89.2199 126.191 89.2542 126.225 89.2542C126.26 89.2886 126.294 89.3229 126.329 89.3572C126.397 89.3916 126.432 89.4603 126.501 89.4603C126.604 89.529 126.81 89.632 126.81 89.8037C125.988 91.2729 125.885 91.3416 126.057 93.0856C126.023 93.8717 126.332 94.3144 126.776 94.6235C126.81 93.9748 127.017 93.4596 127.219 93.0169C127.391 92.6429 127.529 92.2995 127.563 91.9217C127.598 91.479 127.667 90.8608 127.667 90.5555C127.701 90.2464 127.976 90.0441 128.282 90.0785C128.454 90.0785 128.557 90.1128 128.691 90.1128C128.691 89.9755 128.691 89.8724 128.726 89.7694V89.4946C128.485 89.529 128.248 89.529 127.973 89.5633C127.8 89.5633 127.663 89.4603 127.663 89.2886C127.663 89.2199 127.628 89.0481 127.628 88.8115C127.284 88.6742 126.944 88.5024 126.669 88.3002C126.566 88.5062 126.462 88.6093 126.359 88.7085L126.363 88.7047Z" fill="#F5B731" fill-opacity="0.8"/>
<path d="M132.357 97.2528H132.633C132.53 97.2184 132.461 97.2184 132.357 97.1841V97.2528Z" fill="#F5B731" fill-opacity="0.8"/>
<path d="M83.0105 117.761C82.9417 117.452 82.9073 117.318 82.8729 117.181C82.8385 117.078 82.8041 116.94 82.7697 116.704C82.7008 116.463 82.6664 116.36 82.5976 116.261C82.5288 116.124 82.4944 115.986 82.3912 115.681C82.3224 115.406 82.288 115.238 82.288 115.101C82.288 114.964 82.2536 114.86 82.1847 114.624C82.1159 114.383 82.0815 114.25 82.0471 114.147C82.0127 114.009 81.9439 113.872 81.8751 113.567C81.8063 113.292 81.7719 113.155 81.7375 113.021C81.703 112.884 81.703 112.746 81.6342 112.51C81.5654 112.269 81.531 112.136 81.4966 111.998C81.4622 111.861 81.4278 111.758 81.359 111.521C80.2618 111.521 79.2028 111.521 78.14 111.556H77.2837C76.4961 111.556 75.9839 111.556 75.3301 111.59V111.659C75.3301 111.762 75.3301 111.83 75.3646 111.968C75.5022 112.38 75.6054 112.617 75.7086 112.823C75.7774 112.96 75.8462 113.097 75.9151 113.265C75.9495 113.368 75.9839 113.403 75.9839 113.471C76.0527 113.712 76.1903 114.189 76.2591 114.635C76.2935 114.91 76.3279 115.078 76.3279 115.215C76.3279 115.387 76.3279 115.49 76.4312 115.761V115.864C76.4656 115.967 76.5344 116.036 76.5688 116.139C76.6376 116.242 76.7064 116.379 76.8096 116.616C76.9129 116.856 76.9129 116.959 76.9473 117.093C76.9817 117.196 76.9817 117.299 77.0849 117.505C77.1537 117.642 77.1537 117.814 77.0849 117.948C77.0161 118.085 76.8784 118.223 76.7064 118.291C76.6376 118.326 76.5688 118.36 76.4656 118.394C76.3623 118.429 76.2247 118.497 76.1215 118.566C76.2935 118.566 76.5 118.566 76.7026 118.6C76.8746 118.6 76.9434 118.6 77.0123 118.635C77.1155 118.635 77.3563 118.669 77.4901 118.635C77.5933 118.6 77.6622 118.6 77.8342 118.6C78.2777 118.566 78.5873 118.6 79.0308 118.635C79.4093 118.6 79.7151 118.566 80.1624 118.566H80.3344C80.7129 118.6 80.9499 118.635 81.3284 118.635C81.4316 118.635 81.466 118.635 81.5348 118.6C81.6036 118.566 81.7413 118.566 81.9133 118.566C82.223 118.566 82.46 118.566 82.7008 118.6L83.0793 118.635H83.1137C83.0793 118.532 83.0793 118.463 83.0449 118.36C83.0793 118.188 83.0793 118.055 83.0105 117.78V117.761Z" fill="#F5B731" fill-opacity="0.8"/>
<path d="M88.7985 77.8363C89.0393 77.9393 89.3108 78.0767 89.586 78.2141C89.6548 78.2485 89.7236 78.2828 89.7925 78.3171C89.6204 77.7371 89.414 77.1227 89.177 76.4358C88.9705 76.8785 88.8329 77.2906 88.6647 77.7333L88.8023 77.8363H88.7985Z" fill="#F5B731" fill-opacity="0.8"/>
<path d="M121.225 70.0781H121.122V70.1125C121.122 70.1125 121.156 70.0781 121.225 70.0781Z" fill="#F5B731" fill-opacity="0.8"/>
<path d="M122.288 95.2685L121.944 94.8945C121.875 94.8258 121.806 94.7571 121.737 94.7228V95.2685C121.737 95.5433 121.772 95.6806 121.806 95.8142C121.84 95.9516 121.84 96.1233 121.875 96.3942C121.909 96.7034 121.875 96.8713 121.875 97.0086V97.3521H122.15C122.391 97.3521 122.494 97.3521 122.628 97.3178C122.766 97.3178 122.903 97.2834 123.175 97.2834C123.446 97.2834 123.584 97.2834 123.721 97.3178C123.859 97.3178 123.962 97.3521 124.234 97.3521H124.475C123.549 96.7034 122.899 95.9859 122.284 95.2685H122.288Z" fill="#F5B731" fill-opacity="0.8"/>
<path d="M120.747 88.2277C120.77 88.2277 120.77 88.2277 120.747 88.2277C120.747 88.056 120.747 87.9529 120.713 87.8499C120.678 87.7125 120.644 87.5408 120.644 87.2355V86.6211C120.644 86.4837 120.678 86.3463 120.644 86.0754C120.644 85.8006 120.609 85.6976 120.575 85.564C120.541 85.3923 120.506 85.2549 120.472 84.9496C120.472 84.1635 120.437 83.5834 120.403 82.866C120.093 82.866 119.753 82.866 119.375 82.8317C119.099 82.8317 118.828 82.866 118.518 82.866C118.109 82.866 117.696 82.9004 117.287 82.9004C117.322 83.5834 117.322 84.1635 117.322 84.9496C117.322 85.8044 117.322 86.3845 117.287 87.2393C117.287 87.8194 117.322 88.3002 117.322 88.8459L117.356 89.4946C117.8 89.4946 118.247 89.5633 118.656 89.8037H118.828C119.512 89.1894 120.128 88.6055 120.747 88.2315V88.2277Z" fill="#F5B731" fill-opacity="0.8"/>
<path d="M48.1526 97.9703C47.1242 97.9703 46.0997 97.9703 45.1745 97.9359H44.4558C44.4902 98.0389 44.5246 98.142 44.5246 98.245H44.9337C45.4459 98.245 45.4459 98.1763 45.962 98.1763C46.7152 98.1763 47.2618 98.2107 48.015 98.245H48.1182V98.039C48.1182 98.0046 48.1526 98.0046 48.1526 97.9703Z" fill="#F5B731" fill-opacity="0.8"/>
<path d="M54.8657 78.7598C56.0317 80.4351 57.1939 82.1791 58.0159 84.0223C58.2223 84.4993 58.7002 84.8427 58.8378 85.3197C58.941 85.6288 58.8722 85.6288 58.6314 85.7968C58.941 86.2394 59.2813 86.7203 59.6598 87.1629C60.0038 87.1973 60.172 87.266 60.3097 87.3003C60.4473 87.3347 60.5849 87.4034 60.8219 87.4377L61.0972 87.5064C61.2004 87.5407 61.338 87.5407 61.4413 87.5751C61.7509 87.0294 62.1944 86.5142 62.6723 86.0715C63.0163 85.7968 63.391 85.6937 63.7695 85.5945L63.8727 85.5602C64.2167 85.4228 64.5914 85.2511 65.0387 85.2511H65.2795C65.9638 85.2854 66.4761 85.3197 67.1643 85.3197C67.9518 85.3197 68.4985 85.3197 69.286 85.2854C70.0391 85.251 70.7234 85.251 71.4422 85.2854H72.5394C73.9424 85.3197 75.3148 85.3197 76.6835 85.3197C76.6491 85.0793 76.6491 84.8084 76.9587 84.6023C77.1652 84.4649 77.4366 84.4306 77.7807 84.4649C77.8495 83.9536 77.9183 83.5071 77.9871 83.1331C77.5436 83.1331 77.1308 83.0987 76.6185 83.0644H76.412C75.8654 83.0644 75.4181 83.0988 74.9402 83.1331L74.2903 83.1674H73.4339C72.8873 83.1674 72.3712 83.1331 71.8589 83.1331C71.7557 83.3048 71.5836 83.4765 71.4154 83.6101C71.1057 83.8849 70.6623 84.0528 70.2494 84.0528C70.043 84.0528 69.8403 84.0184 69.6339 83.9497C69.0528 83.7437 68.6743 83.2323 68.6399 82.6179C68.5711 82.1752 68.984 81.08 69.3242 80.3969C69.0834 79.7482 68.9152 79.0994 68.7087 78.4812C68.5711 78.0691 68.4335 77.6264 68.2997 77.2181C68.2309 76.9777 68.1621 76.8746 68.0932 76.7411C68.0244 76.6075 67.9556 76.4663 67.8868 76.1954C67.7836 75.8862 67.8524 75.581 68.0244 75.3405C68.2309 75.0658 68.5367 74.8979 68.8808 74.8979C69.1216 74.8979 69.2592 74.8635 69.3586 74.8635C69.4963 74.8292 69.6683 74.8292 69.9397 74.8292C70.2112 74.8292 70.3832 74.8635 70.5208 74.8635C70.6585 74.8635 70.7617 74.8979 71.0331 74.8979C71.274 74.8979 71.4116 74.8979 71.5454 74.8635C71.6792 74.8292 71.8206 74.8292 72.1265 74.8292C72.914 74.8635 73.4607 74.8635 74.2826 74.8292C75.1046 74.8635 75.6513 74.8292 76.4388 74.7948C76.542 74.7948 76.6452 74.8292 76.7485 74.8292C77.0581 74.2148 77.2607 73.566 77.5016 72.8486C77.9795 71.2764 78.4612 69.6698 80.0362 68.8149C80.4147 68.6089 80.8238 68.4372 81.2328 68.2692C81.4737 68.1662 81.7107 68.0632 81.9515 67.9601C82.0548 67.8914 82.1924 67.7884 82.33 67.7197C82.3988 67.4106 82.502 67.1053 82.6053 66.7962C82.7085 66.4184 82.8461 66.0101 82.9837 65.6323C83.087 65.3232 83.1902 65.0179 83.2934 64.7088C83.1558 64.5371 83.0525 64.3653 83.0181 64.1631C82.9837 63.9913 83.0181 63.8196 83.0526 63.6174C82.7773 63.2739 82.6741 62.9343 82.6741 62.5908C82.6741 62.1138 82.8805 61.7704 83.0831 61.633C83.1175 61.5986 83.152 61.5986 83.2208 61.5643C83.2208 61.1865 83.2896 60.8812 83.3928 60.6064C83.4616 60.4004 83.5992 60.1943 83.7369 59.992C84.3868 59.2059 85.5184 58.6946 86.6461 58.6602H86.8182C87.4337 58.6602 87.9842 58.7632 88.4277 59.0037C88.3932 58.0802 88.3932 57.191 88.4277 56.3018C88.4621 55.4814 88.4621 54.6609 88.4277 53.8061C88.4277 53.497 88.4277 53.3634 88.4621 53.226C88.4621 53.0886 88.4965 52.9513 88.4965 52.7147C88.4965 52.4781 88.4621 52.3712 88.4277 52.2376C88.3932 52.1041 88.3588 51.9285 88.3588 51.6232C88.3588 51.318 88.3932 51.1462 88.4277 51.0088C88.4621 50.8715 88.4965 50.7684 88.4965 50.4975C88.4621 50.154 88.4621 49.8144 88.4621 49.4709C87.9154 49.6083 87.9154 49.677 87.3305 49.7801C87.1584 49.8144 87.0208 49.8487 86.9214 49.8487C86.8526 49.8831 86.7838 49.8831 86.715 49.9174C86.4053 49.9861 86.2371 50.0205 86.0651 50.0205C85.9618 50.0205 85.8242 50.0548 85.6866 50.0892C85.549 50.1579 85.4113 50.2609 85.1055 50.3296C84.8302 50.3983 84.6964 50.3983 84.5588 50.4326C84.5244 50.4326 84.49 50.4326 84.4556 50.467C83.7369 50.6387 83.1902 50.7417 82.5364 50.8791L82.3644 50.9134C82.2956 50.9478 82.2612 50.9821 82.2268 50.9821V51.6652C82.2268 51.94 82.2268 52.043 82.2612 52.1766C82.2612 52.314 82.2956 52.4857 82.2956 52.791C82.2956 53.0963 82.2612 53.2337 82.2612 53.371C82.2612 53.4741 82.2268 53.6115 82.2268 53.7832C82.2268 53.8175 82.2612 53.8519 82.2612 53.8862C82.2612 53.9206 82.2268 53.9206 82.2268 53.9549C82.2268 54.161 82.2268 54.264 82.2612 54.3671C82.2956 54.5044 82.2956 54.6762 82.2956 54.9815V56.111C82.33 56.9658 82.2956 57.5459 82.2612 58.332C82.33 59.5265 82.3644 60.4843 82.33 61.6482C82.3644 62.4687 82.3988 63.0144 82.3988 63.8692C82.3644 64.7927 81.5769 65.6132 80.6517 65.6132C79.2143 65.6819 77.8762 65.6819 76.2362 65.6132H75.2766C74.4891 65.6132 73.736 65.6476 72.914 65.5789C71.4766 65.6819 70.0391 65.6819 68.4985 65.5789C67.3669 65.6132 66.3767 65.6476 65.2107 65.6476C64.9011 65.6476 64.7673 65.6132 64.6296 65.6132C64.492 65.5789 64.3888 65.5789 64.1173 65.5789C63.8765 65.5789 63.7389 65.5789 63.6051 65.6132C63.4713 65.6476 63.2954 65.6476 63.024 65.6476C62.7143 65.6476 62.5805 65.6132 62.4429 65.6132C62.3053 65.6132 62.202 65.5789 61.9306 65.5789C61.6898 65.5789 61.5521 65.5789 61.4183 65.6132C61.2845 65.6476 61.1087 65.6476 60.8372 65.6476H59.74C58.9525 65.6819 58.4058 65.6819 57.5151 65.6132C56.7275 65.6132 56.0432 65.5789 55.3245 65.6132C55.1869 65.7849 55.0492 65.9223 54.881 66.0902C54.7778 66.2276 54.6402 66.3306 54.5714 66.468C54.2617 66.8115 53.9559 67.1855 53.6462 67.5633V67.5976C53.5086 67.7693 53.3366 67.9754 53.2027 68.1433C53.0307 68.315 52.8587 68.5211 52.6905 68.689C52.3808 68.9981 52.075 69.3378 51.8685 69.6812C51.8341 69.7499 51.7997 69.8186 51.7653 69.8873L51.7309 69.9216C51.6965 69.9216 51.6965 69.956 51.6965 69.956C51.5589 70.5017 51.6965 71.1848 51.6277 71.6999C51.5933 72.0777 51.5933 72.4517 51.4901 72.8295C51.4212 73.0356 51.2836 73.2417 51.2492 73.4096C51.3524 73.4783 51.4212 73.5813 51.4901 73.7187C51.6621 73.753 51.7997 73.65 51.9335 73.8904C52.0367 74.0278 52.0023 74.3674 51.9679 74.5392C51.9335 74.8826 51.4556 75.4627 51.5589 75.7679C51.5589 75.8023 51.5933 75.8023 51.5933 75.8366C51.6277 75.871 51.6621 75.871 51.6965 75.9053C52.075 76.1457 52.4496 76.3823 52.8625 76.6571C53.1034 76.7601 53.306 76.8632 53.4436 76.9662C53.7877 77.4089 54.3688 78.092 54.881 78.7751L54.8657 78.7598ZM61.5445 71.9556C61.6477 71.8182 61.8541 71.7839 61.9879 71.8869C62.4314 72.2304 62.6379 72.4326 62.8443 72.6387C62.9131 72.7074 62.9819 72.7761 63.0851 72.8791V72.6044C63.0851 72.0587 63.1195 71.7839 63.154 71.5091C63.1884 71.2687 63.2228 71.0321 63.2228 70.5169C63.2228 70.3452 63.3604 70.2078 63.5324 70.2078C63.7045 70.2078 63.8421 70.3452 63.8421 70.5169C63.8421 71.0627 63.8077 71.3374 63.7733 71.6122C63.7389 71.8526 63.7045 72.0892 63.7045 72.57V72.8448C63.9109 72.7074 64.0829 72.6044 64.2511 72.5357C64.492 72.3983 64.6946 72.2953 65.1419 71.99C65.2795 71.8869 65.486 71.9213 65.5854 72.0587C65.6886 72.196 65.6542 72.4021 65.5166 72.5013C65.0731 72.8448 64.7978 72.9784 64.557 73.1157C64.3505 73.2188 64.1785 73.3218 63.8727 73.5279C64.1823 73.7339 64.3505 73.8713 64.557 74.0049C64.7634 74.1385 65.0005 74.2797 65.4133 74.5849C65.551 74.688 65.5854 74.8941 65.4821 75.0276C65.4133 75.1307 65.3101 75.165 65.2069 75.165C65.1381 75.165 65.0693 75.1307 65.0349 75.0963C64.6258 74.8215 64.4194 74.6536 64.2129 74.5163C64.0753 74.4132 63.9377 74.3445 63.7695 74.2071C63.8039 75.0276 63.8039 75.8137 63.7695 76.6686C63.7695 76.8403 63.6318 76.9777 63.4598 76.9777C63.2878 76.9777 63.1501 76.8403 63.1501 76.6342C63.1501 75.7107 63.1845 74.9246 63.1501 74.0698C63.0469 74.1385 62.9781 74.2071 62.8749 74.2758C62.6684 74.4476 62.4314 74.6193 61.9841 74.9589C61.9153 74.9933 61.8465 75.0276 61.7777 75.0276C61.6745 75.0276 61.5712 74.9933 61.5024 74.8902C61.3992 74.7529 61.4336 74.5468 61.5712 74.4476C62.0147 74.1385 62.2211 73.9705 62.4276 73.7988C62.5308 73.6958 62.6684 73.6271 62.8061 73.4897C62.634 73.3523 62.4964 73.215 62.397 73.0776C62.1906 72.8715 62.0185 72.6998 61.6095 72.3945C61.4718 72.2914 61.4374 72.1197 61.5407 71.9518L61.5445 71.9556Z" fill="#F5B731" fill-opacity="0.8"/>
<path d="M58.1153 118.001C57.8056 117.387 57.8056 117.112 58.1841 116.566C58.2185 116.532 58.2529 116.498 58.2873 116.463C58.3217 116.429 58.3561 116.395 58.3905 116.36C58.6314 116.017 59.0404 115.986 59.4189 115.948H59.6942C60.172 115.845 60.5505 115.708 60.9596 115.471C60.994 115.471 61.0284 115.437 61.0628 115.402C61.0284 115.231 61.1316 115.059 61.3036 115.028C61.4069 114.994 61.5101 114.994 61.5789 114.994V114.925C61.5445 114.754 61.6477 114.616 61.8197 114.582C61.9574 114.548 62.095 114.548 62.2632 114.548L62.332 114.479C62.1944 114.445 62.0912 114.341 62.0912 114.238C62.0568 114.101 62.1256 113.964 62.2632 113.895C62.332 113.861 62.5729 113.758 62.9131 113.655C62.9131 113.552 62.9475 113.483 63.0163 113.414C63.1884 113.242 63.4598 113.139 63.7006 113.071C63.6662 112.899 63.7695 112.762 63.9415 112.697C64.1479 112.662 64.3505 112.697 64.5914 112.834C64.6258 112.8 64.6258 112.765 64.6602 112.731C64.7978 112.491 64.8322 112.388 64.8666 112.254C64.9011 112.12 64.9355 111.979 65.0387 111.743C65.0731 111.674 65.0731 111.64 65.1075 111.571C64.3888 111.571 63.8765 111.571 63.1196 111.605C62.8099 111.571 62.6761 111.605 62.5385 111.571C62.4008 111.571 62.2976 111.537 62.0262 111.537C61.7853 111.537 61.6477 111.571 61.5483 111.571C61.4107 111.605 61.2386 111.605 60.9672 111.605H58.7766C57.9547 111.571 57.4424 111.571 56.6205 111.605H55.4239C54.7396 111.605 54.0897 111.605 53.3365 111.571C53.0957 111.571 52.9581 111.571 52.8587 111.605C52.7899 111.605 52.7211 111.605 52.6522 111.64C52.6178 111.777 52.6178 111.88 52.5834 111.983C52.5834 112.12 52.549 112.292 52.4802 112.563C52.4114 112.872 52.3426 113.006 52.2738 113.143C52.2394 113.246 52.1705 113.384 52.1017 113.586L51.8265 114.647C51.5512 115.742 51.3142 116.696 51.0389 117.826C50.9701 118.1 50.9357 118.238 50.9013 118.371C50.8669 118.44 50.8669 118.509 50.8325 118.612H51.2416C51.3448 118.577 51.4136 118.577 51.5856 118.577C51.9947 118.612 52.3732 118.612 52.7516 118.612C53.1301 118.612 53.5392 118.612 53.9176 118.646C54.0209 118.646 54.0553 118.646 54.1241 118.612C54.1929 118.577 54.2961 118.577 54.5026 118.577C54.6746 118.577 54.7778 118.577 54.8466 118.612C54.9499 118.646 55.1907 118.646 55.2901 118.612C55.3933 118.612 55.4621 118.577 55.6342 118.577C55.8406 118.577 55.9438 118.612 56.0126 118.646C56.1847 118.68 56.3911 118.68 56.5249 118.68C56.6587 118.68 56.869 118.68 57.0372 118.646C57.106 118.612 57.2092 118.612 57.4157 118.612C57.5877 118.612 57.6565 118.612 57.7597 118.646C57.863 118.68 58.1038 118.68 58.2376 118.646C58.3064 118.646 58.4096 118.612 58.5473 118.612C58.4096 118.44 58.272 118.268 58.1382 117.997L58.1153 118.001Z" fill="#F5B731" fill-opacity="0.8"/>
<path d="M37.777 91.6812C37.777 91.5438 37.777 91.4064 37.7426 91.2691C37.5706 91.1317 37.5018 91.063 37.433 90.9943C37.3297 90.8913 37.2609 90.8226 37.0545 90.6509C36.9513 90.5822 36.8825 90.5135 36.8136 90.4791C36.7792 90.5135 36.7792 90.5478 36.7448 90.5822C36.676 90.7195 36.5728 90.8569 36.504 90.96C36.4008 91.0973 36.3319 91.2004 36.2631 91.2691C36.0567 91.5095 35.9535 91.643 35.8847 91.9522L35.8503 91.9865C35.9191 92.1239 35.9535 92.2613 35.9191 92.4292C35.8847 92.6352 35.8503 92.7383 35.7814 92.8413C35.747 92.91 35.7126 92.9787 35.6782 93.1504C35.6438 93.7992 35.5062 94.4823 34.9251 95.1005C34.7531 95.3065 34.6842 95.4096 34.581 95.5126C34.5122 95.6156 34.4434 95.7187 34.2714 95.8866C34.2714 95.9209 34.3058 95.9553 34.3402 95.9896C34.409 96.0583 34.4434 96.1614 34.4434 96.23C34.4434 96.3331 34.409 96.4361 34.3402 96.4705C34.1681 96.7109 34.0305 96.8444 33.8967 96.9475C33.7935 97.0505 33.6903 97.1536 33.5871 97.2909H33.7247C33.9655 97.2909 34.0687 97.2909 34.2026 97.2566C34.3364 97.2222 34.4778 97.2222 34.7836 97.2222C35.5712 97.2566 36.0835 97.2566 36.871 97.2566H38.1708V97.1879C37.9644 95.4439 37.8267 93.5969 37.7617 91.685L37.777 91.6812Z" fill="#F5B731" fill-opacity="0.8"/>
<path d="M48.187 117.726C48.2214 117.486 48.187 117.383 48.187 117.249V116.669C48.2214 116.395 48.2214 116.257 48.2558 116.124C48.2558 115.986 48.2902 115.849 48.3246 115.612C48.359 115.337 48.3934 115.2 48.4279 115.067C48.4623 114.929 48.4967 114.826 48.4967 114.555C48.5311 113.803 48.5311 113.258 48.6343 112.437C48.6687 112.162 48.6687 112.025 48.6687 111.891C48.6687 111.788 48.6687 111.685 48.7031 111.518C48.359 111.414 48.122 111.105 48.122 110.697C48.122 110.422 48.122 110.285 48.0876 110.151C48.0876 110.014 48.0532 109.842 48.0532 109.537C48.122 108.171 48.0876 106.904 48.0532 105.572L48.0188 104.958C48.122 103.794 48.0876 102.84 48.0532 101.779H47.9844C47.6403 101.744 47.3345 101.744 46.9904 101.744C47.2313 102.805 46.9904 104.412 46.8528 105.232C46.7152 106.328 46.4093 107.419 46.1685 108.514C45.8932 109.197 45.6218 109.915 45.3465 110.598C45.2433 110.804 45.1745 110.941 45.1057 111.075L45.1401 111.178V111.212C45.1057 111.281 45.0369 111.35 45.0025 111.418H45.8244C46.1685 111.418 46.4055 111.727 46.4055 112.033V114.219C46.4055 114.494 46.4055 114.631 46.4399 114.731C46.4399 114.868 46.4743 115.005 46.4743 115.311C46.4743 115.616 46.4743 115.753 46.4399 115.891C46.4399 116.028 46.4055 116.131 46.4055 116.402V117.497C46.3711 117.94 46.1991 118.318 45.8932 118.627C46.4055 118.661 46.8872 118.661 47.3995 118.593C47.6059 118.593 47.6747 118.593 47.7779 118.627H48.0532C48.0876 118.49 48.0876 118.387 48.122 118.284C48.1564 118.112 48.1908 117.974 48.1908 117.738L48.187 117.726Z" fill="#F5B731" fill-opacity="0.8"/>
<path d="M50.584 94.448C51.1995 94.2419 51.7156 94.2419 52.2279 94.2419H52.809C53.0842 94.2419 53.2524 94.2763 53.3901 94.2763C53.5277 94.3106 53.6309 94.3106 53.8679 94.3106C54.105 94.3106 54.2464 94.3106 54.3802 94.2763C54.5179 94.2763 54.6555 94.2419 54.9613 94.2419C55.2366 94.2419 55.4048 94.2763 55.5424 94.2763C55.68 94.2763 55.7833 94.3106 56.0203 94.3106H56.1923C56.1923 94.2419 56.1923 94.1732 56.2267 94.1045C56.2955 93.9328 56.4332 93.8641 56.5708 93.7954C56.3299 93.7611 56.1273 93.658 56.0929 93.452C56.0585 93.3489 56.0585 93.1429 56.2649 92.975C56.3682 92.9063 56.5058 92.8376 56.609 92.8032C56.5402 92.7689 56.4714 92.7002 56.4026 92.6315C56.2994 92.4941 56.3338 92.3224 56.437 92.2194C56.5402 92.1507 56.609 92.082 56.7122 92.0476C56.6778 91.9446 56.6434 91.8416 56.609 91.7729C56.5746 91.6698 56.5058 91.5668 56.4026 91.3302C56.2994 90.9868 56.4026 90.7845 56.4714 90.6471C56.5746 90.5097 56.7466 90.4067 56.9149 90.338C56.7772 90.0289 56.6396 89.861 56.4026 89.5175C56.2994 89.4145 56.1961 89.2771 56.0929 89.1054C55.9209 88.8993 55.7833 88.6627 55.6494 88.4567C55.615 88.4223 55.615 88.388 55.5806 88.388C55.4086 88.5253 55.2366 88.6627 55.1028 88.6627L55.0684 88.6284C55.0339 88.594 54.9995 88.5253 54.9995 88.491C54.7587 88.6627 54.5561 88.7658 54.3496 88.9031C54.2808 88.9375 54.212 88.9718 54.1432 88.9718C54.04 88.9718 53.9712 88.9375 53.9024 88.8688C53.8679 88.8345 53.8335 88.8001 53.8335 88.7658C53.5927 88.2544 53.046 87.5026 52.6025 86.8157C52.3961 86.5066 52.1935 86.2013 52.0214 85.9609C51.7118 85.4152 51.3027 84.8313 50.9242 84.2513C50.649 83.8391 50.3776 83.4651 50.1711 83.1217C49.6244 82.1638 48.8025 81.2403 47.9806 80.3512C47.5715 79.8742 47.1586 79.462 46.784 79.0193L46.5087 78.7446C46.2679 78.4698 46.1302 78.3019 46.0308 78.1989C45.9276 78.0615 45.8588 77.9928 45.8244 77.8898C45.5147 78.3019 45.5147 78.7102 45.5147 79.1873C45.5147 79.5994 45.5491 80.0764 45.3427 80.6221C44.4864 82.5378 43.2554 84.3467 42.0549 86.0563C41.6765 86.602 41.3362 87.1172 40.9577 87.6629C41.3018 88.449 41.5732 89.3382 41.7453 90.193C42.0205 91.8683 42.3264 93.5436 42.5672 95.2188H42.636C42.6704 95.2188 42.6704 95.2532 42.6704 95.2532V95.3562C42.6704 95.4593 42.7048 95.5623 42.7048 95.6653C42.7393 96.0393 42.7737 96.4171 42.8425 96.7949C43.0145 96.8293 43.1865 96.9666 43.3548 97.2376C43.5956 97.0659 43.8326 97.0659 44.0047 97.2032H45.0674C46.1302 97.2376 47.1204 97.2719 48.08 97.2719C48.3896 96.1118 49.311 94.9822 50.5802 94.4365L50.584 94.448Z" fill="#F5B731" fill-opacity="0.8"/>
<path d="M144.889 54.1496C144.067 54.1839 143.486 54.1496 142.63 54.1152C141.67 54.1496 140.814 54.1152 139.889 54.1152C139.923 54.764 139.923 55.4127 139.923 56.0653V59.0381C140.504 59.0381 141.02 59.0037 141.705 59.0381H142.836C143.215 59.0381 143.521 59.2098 143.727 59.5151C143.933 59.8204 143.968 60.1982 143.83 60.576C143.727 60.8164 143.693 60.9538 143.658 61.053C143.624 61.1904 143.589 61.3621 143.486 61.633C142.974 62.6596 142.63 63.5487 142.221 64.7088L141.777 65.7354C141.468 66.3841 141.196 67.0329 140.887 67.7503C140.887 67.7846 140.852 67.7846 140.852 67.819V68.0937C141.231 68.0937 141.571 68.0937 141.984 68.0594C142.53 68.0937 143.012 68.0594 143.49 68.0594C143.49 67.9907 143.49 67.8877 143.524 67.819C143.524 67.6473 143.559 67.4412 143.559 67.2046C143.559 66.7924 143.903 66.4528 144.278 66.4528H146.365C146.606 66.4528 146.743 66.4528 146.843 66.4872C146.843 66.075 146.877 65.701 146.877 65.2927L146.912 64.644C146.912 64.4035 146.877 64.2662 146.877 64.1669C146.843 64.0296 146.843 63.8922 146.843 63.5869V62.4917C146.912 61.6368 146.912 61.1255 146.877 60.3394C146.877 60.0303 146.877 59.8967 146.912 59.7593C146.912 59.6219 146.946 59.5189 146.946 59.2479C146.946 59.0075 146.946 58.8701 146.912 58.7366C146.912 58.5992 146.877 58.4618 146.877 58.1565C146.877 57.3361 146.912 56.8247 146.946 56.0042V55.7295C146.912 55.1838 146.877 54.7373 146.877 54.1916C146.158 54.1572 145.612 54.1916 144.889 54.1572V54.1496Z" fill="#F5B731" fill-opacity="0.8"/>
<path d="M83.2513 39.0415C83.561 39.3162 83.7636 39.4841 83.9357 39.6559C84.2109 39.7246 84.5512 39.6559 84.9984 39.5528C85.1705 39.5185 85.3425 39.4498 85.5107 39.4498L86.5391 39.2094C86.9176 39.1407 87.2578 39.0376 87.7051 38.9346C87.9804 38.8659 88.1142 38.8316 88.2518 38.7972C88.3206 38.7972 88.355 38.7629 88.4238 38.7629V38.3507C88.3894 37.7707 88.3894 37.2555 88.3894 36.7098C88.3894 36.1641 88.3894 35.6489 88.355 35.0689V34.8971H87.8427C87.7739 34.9658 87.7051 35.0002 87.6707 35.0002H87.5675C87.4643 35.0002 87.361 34.9658 87.2234 34.8628C86.6079 34.8628 86.0574 34.8628 85.4419 34.8971C85.1323 34.8971 84.8264 34.9315 84.5168 34.9315C84.2759 34.8971 84.0733 34.8971 83.9013 34.8971H82.1542V35.0689C82.1886 35.8893 82.1886 36.4694 82.1542 37.2899V38.3164C82.4294 38.3851 82.7008 38.5568 83.0105 38.8278C83.0105 38.8278 83.1137 38.9308 83.2513 39.0338V39.0415Z" fill="#F5B731" fill-opacity="0.8"/>
<path d="M116.809 88.8764C116.775 88.3307 116.775 87.8499 116.775 87.2355C116.809 86.3807 116.809 85.8006 116.809 84.9458C116.809 84.091 116.809 83.5796 116.775 82.8965C116.534 82.8965 116.297 82.8622 116.091 82.8622H114.994C114.718 82.8622 114.584 82.8622 114.481 82.8965C114.344 82.9309 114.172 82.9309 113.866 82.9309H112.6C111.916 82.9309 111.232 82.8965 110.513 82.9309H110.169C109.519 82.8965 109.003 82.8622 108.353 82.8622V83.24C108.353 83.4117 108.387 83.5491 108.353 83.8544C108.25 84.7779 108.181 85.3236 108.181 86.1097V86.3845C108.147 87.4454 108.078 88.4681 108.009 89.529C108.147 89.529 108.25 89.529 108.353 89.5633C108.491 89.5633 108.663 89.5977 108.934 89.5977C109.244 89.5977 109.378 89.5633 109.515 89.5633C109.687 89.529 109.859 89.529 110.2 89.529C110.54 89.529 110.712 89.5633 110.849 89.5633C110.987 89.5633 111.159 89.5977 111.431 89.5977C111.74 89.5977 111.874 89.5977 112.046 89.5633C112.218 89.529 112.39 89.529 112.696 89.529C113.04 89.529 113.208 89.5633 113.38 89.5633C113.518 89.5977 113.655 89.5977 113.961 89.5977C114.267 89.5977 114.439 89.5977 114.577 89.5633C114.749 89.5633 114.886 89.529 115.227 89.529H116.871V89.4946L116.802 88.8802L116.809 88.8764Z" fill="#F5B731" fill-opacity="0.8"/>
<path d="M121.707 80.2977C122.219 80.2977 122.597 80.6755 122.597 81.1525C122.597 81.2556 122.597 81.3586 122.632 81.4616C122.666 81.8051 122.735 82.2134 122.46 82.5225C122.322 82.7286 122.051 82.8316 121.741 82.866H121.091C121.126 83.5834 121.16 84.1635 121.16 84.9496C121.16 85.19 121.194 85.3274 121.229 85.4266C121.263 85.5983 121.298 85.7357 121.332 86.041C121.366 86.3463 121.332 86.518 121.332 86.6898C121.332 86.8271 121.298 86.9645 121.332 87.2011C121.332 87.4759 121.366 87.5789 121.401 87.7125C121.401 87.7468 121.401 87.8155 121.435 87.8499C121.642 87.7468 121.814 87.6094 121.982 87.4377C122.12 87.266 122.391 87.2316 122.597 87.3347C122.907 86.892 123.282 86.4112 123.66 85.9685C123.557 85.8655 123.419 85.7281 123.557 85.4571C124 84.4993 124.551 83.6101 125.063 82.721C125.304 82.3432 125.541 81.9348 125.748 81.557C125.954 81.2136 126.157 80.874 126.363 80.4962C126.772 79.7787 127.185 79.0956 127.628 78.4469C127.456 78.4812 127.284 78.5499 127.116 78.5843C126.707 78.6873 126.294 78.8247 125.95 78.8934C124.887 79.0995 123.794 79.3361 122.731 79.5765C121.806 79.7825 120.846 79.9886 119.891 80.1909C120.506 80.2939 120.988 80.2939 121.707 80.2939V80.2977Z" fill="#F5B731" fill-opacity="0.8"/>
<path d="M1 0.620605V133.621H178V0.620605H1ZM135.951 18.7358C136.02 18.6328 136.158 18.5297 136.36 18.5297C136.67 18.5297 136.804 18.5297 136.941 18.4954C137.079 18.4954 137.251 18.461 137.557 18.461C137.901 18.461 138.172 18.4954 138.482 18.4954C139.338 18.5297 140.16 18.5641 141.051 18.5297C141.361 18.5297 141.563 18.7358 141.563 19.0068C141.563 19.2128 141.563 19.3159 141.598 19.4189C141.598 19.5219 141.632 19.6593 141.632 19.8959V20.7851C141.632 20.8881 141.598 21.0255 141.494 21.1629C141.391 21.2659 141.254 21.3346 141.15 21.3346C140.638 21.3346 140.191 21.3689 139.713 21.3689C139.029 21.3689 138.344 21.3346 137.591 21.3003H136.425C136.15 21.3003 135.913 21.0598 135.913 20.7889C135.913 20.5485 135.913 20.4454 135.947 20.3119C135.947 20.2088 135.982 20.1058 135.982 19.8997C135.982 19.7967 135.982 19.6593 135.947 19.5563C135.844 19.2815 135.775 18.9762 135.947 18.7358H135.951ZM122.494 23.4869H123.591C123.867 23.4869 123.97 23.4526 124.104 23.4526C124.241 23.4182 124.413 23.4182 124.685 23.4182C124.994 23.4182 125.163 23.4526 125.3 23.4869C125.438 23.5212 125.541 23.5212 125.813 23.5212C127.353 23.5212 128.722 23.4869 130.262 23.4526C130.538 23.4526 130.74 23.693 130.74 23.9983C130.74 24.2043 130.74 24.3074 130.775 24.4104C130.775 24.5134 130.809 24.6508 130.809 24.8874C130.809 25.124 130.809 25.2652 130.775 25.3644C130.775 25.4675 130.74 25.5705 130.74 25.7766C130.74 26.0513 130.534 26.2536 130.262 26.2536C129.372 26.3223 128.584 26.2879 127.728 26.2536L126.872 26.2193C126.084 26.2193 125.503 26.2536 124.715 26.2536H124.612C123.549 26.1849 122.594 26.1849 121.29 26.2536C120.778 26.2879 120.365 26.2879 119.99 26.2879H119.031C118.755 26.2879 118.553 26.0475 118.553 25.7422C118.518 25.0935 118.518 24.647 118.518 23.9639C118.518 23.6892 118.759 23.4869 119.031 23.4869H120.128C121.087 23.4526 121.634 23.4526 122.49 23.4869H122.494ZM37.5362 18.8388C37.9147 16.8888 38.8016 15.8317 40.7551 14.8739C42.5022 14.1908 44.0773 14.3282 45.8932 15.3165C46.1685 15.4883 46.3367 15.6943 46.5087 15.8623L46.6808 16.0683C46.7496 16.137 46.8184 16.2057 46.8872 16.2744C47.0248 16.4118 47.1624 16.5492 47.2962 16.7171C47.5027 16.9231 47.7397 17.0949 47.8773 17.3315C48.3552 18.2206 48.6993 19.1785 48.7681 20.2012C48.6649 23.3114 46.1302 25.4637 43.2554 25.2957C43.1177 25.2957 42.9457 25.3301 42.8119 25.3301C42.1276 25.3301 41.4089 25.1927 40.7246 24.9523C39.528 24.4066 38.706 23.7235 38.2931 22.8343C37.5056 21.7735 37.1959 20.2355 37.54 18.835L37.5362 18.8388ZM28.0514 17.4383C28.2234 17.3696 28.3955 17.4383 28.4604 17.61C29.1792 19.354 29.7603 20.5485 30.7198 22.3268C30.7886 22.4985 30.7542 22.6702 30.5822 22.7695C30.5478 22.8038 30.479 22.8038 30.4446 22.8038C30.3413 22.8038 30.2037 22.7351 30.1693 22.6321C29.1753 20.8194 28.6287 19.625 27.8755 17.881C27.8067 17.6749 27.8755 17.507 28.0476 17.4383H28.0514ZM19.8664 19.728C19.9696 19.5906 20.1761 19.5563 20.3099 19.6593C20.8565 20.0715 21.1318 20.2737 21.4071 20.5141C21.6479 20.7202 21.9193 20.9568 22.4698 21.3346C24.2513 22.4985 25.3791 23.2846 26.9198 24.4447C27.0574 24.5478 27.0918 24.7539 26.9886 24.8874C26.9198 24.9905 26.8166 25.0248 26.7133 25.0248C26.6445 25.0248 26.5757 24.9905 26.5069 24.9561C24.9662 23.8265 23.8346 23.0404 22.057 21.8803C21.4759 21.4682 21.235 21.2659 20.9598 21.0255C20.7189 20.8194 20.4475 20.5828 19.897 20.205C19.7938 20.0676 19.7593 19.8616 19.8626 19.728H19.8664ZM24.0449 29.6767C24.0449 29.8484 23.8729 29.9858 23.7008 29.9858C22.9477 29.9514 22.5692 29.9858 22.1946 29.9858H21.5447C21.2694 29.9858 20.9292 29.9858 20.4819 29.9514C20.3099 29.9514 20.1722 29.7797 20.1722 29.608C20.1722 29.4363 20.3099 29.3332 20.5163 29.2989C21.3382 29.3332 21.7473 29.3332 22.1602 29.2989C22.5387 29.2989 22.9477 29.2645 23.7008 29.2989C23.9073 29.3676 24.0793 29.5049 24.0449 29.6767ZM111.912 122.413C111.912 122.756 111.74 123.061 111.503 123.061H110.337C110.062 123.061 110.062 122.993 109.756 122.993C109.481 122.993 109.481 123.061 109.175 123.061C108.869 123.061 108.9 122.993 108.594 122.993C108.288 122.993 108.319 123.027 108.013 123.027C107.569 122.993 107.294 123.027 106.847 123.061C106.572 123.061 106.572 122.993 106.266 122.993C105.822 123.027 105.547 122.993 105.1 122.958C104.824 122.958 104.824 123.027 104.519 123.027C104.243 123.027 104.243 122.993 103.937 122.993C103.494 122.993 103.219 122.993 102.771 123.027H102.19C101.915 123.027 101.915 122.958 101.609 122.958C100.994 122.958 100.478 122.924 99.8622 122.993C99.4187 122.993 99.1435 122.993 98.6962 122.958C98.4209 122.958 98.4209 123.027 98.1151 123.027C97.1211 123.027 96.1959 122.924 95.2058 123.027C94.9305 123.027 94.9305 122.958 94.6247 122.958C94.1812 122.958 93.906 122.993 93.4587 123.027C93.1834 123.027 93.1834 122.958 92.8776 122.958H91.7116C91.4363 122.958 91.4363 123.027 91.1305 123.027C90.8552 123.027 90.8553 122.993 90.5494 122.993C90.2742 122.993 90.2742 123.027 89.9683 123.027C89.6931 123.027 89.6931 122.924 89.3872 122.924C89.112 122.924 89.112 122.958 88.8061 122.958H87.6401C86.6462 123.096 85.721 122.89 84.7308 122.958C84.2874 122.993 84.0121 123.027 83.5648 123.027C83.2896 123.027 83.2896 122.958 82.9837 122.958C82.1962 122.958 81.4431 123.027 80.6555 123.027C80.04 123.027 79.5239 122.993 78.9084 123.027C78.6332 123.027 78.6332 122.993 78.3274 122.993C77.8839 123.027 77.6086 122.993 77.1613 122.958C76.7179 122.993 76.4426 122.993 75.9953 122.958C75.7201 122.958 75.7201 122.993 75.4142 122.993C75.139 122.993 75.139 122.958 74.8332 122.958C74.5579 122.958 74.5579 123.027 74.2521 123.027C73.9768 123.027 73.9768 122.958 73.671 122.958C73.2275 122.993 72.9522 122.993 72.505 122.993C72.2297 122.993 72.2297 122.958 71.9239 122.958C71.6486 122.958 71.6486 123.027 71.3428 123.027C71.0675 123.027 71.0675 122.958 70.7617 122.958H70.1806C69.7371 122.958 69.4619 122.993 69.0146 123.027C68.5711 122.993 68.2959 122.993 67.8486 122.958H67.2675C66.9922 122.958 66.9922 123.061 66.6864 123.061C65.8989 123.061 65.1457 123.061 64.3582 122.993C63.9147 123.027 63.6395 123.061 63.1922 123.061C62.7487 123.027 62.4735 122.993 62.0262 122.993C61.7509 122.993 61.7509 123.027 61.4451 123.027C61.1698 123.027 61.1698 122.958 60.864 122.958C60.4205 122.958 60.1453 122.993 59.698 123.027C59.0825 123.027 58.5664 123.027 57.9509 122.993C57.5074 122.993 57.2322 122.993 56.7849 123.027C56.5096 123.027 56.5096 122.958 56.2038 122.958C55.5883 122.924 55.0722 122.958 54.4567 123.027C54.1814 123.027 54.1814 122.958 53.8756 122.958C53.6003 122.958 53.6003 122.993 53.2945 122.993C52.851 123.027 52.5758 123.027 52.1285 122.993C51.8532 122.993 51.8532 123.027 51.5474 123.027C51.2721 123.027 51.2721 122.993 50.9663 122.993C50.6911 122.993 50.6911 123.027 50.3852 123.027C50.11 123.027 50.11 122.993 49.8041 122.993C49.1886 123.027 48.6725 123.061 48.057 123.027C47.6136 123.061 47.3383 123.027 46.891 122.993C46.6158 122.993 46.6158 123.027 46.3099 123.027C45.6944 122.958 45.1783 122.993 44.5628 123.061C44.1194 123.027 43.8441 122.993 43.3968 122.993C42.7813 123.027 42.2652 122.993 41.6497 122.958C41.3745 122.958 41.3745 123.027 41.0686 123.027C40.6252 122.993 40.3499 122.993 39.9026 123.027C39.4591 122.993 39.1839 122.958 38.7366 122.993C38.2931 123.027 38.0179 123.027 37.5706 123.027C37.1271 122.993 36.8519 122.958 36.4046 122.993C36.1293 122.993 36.1293 123.061 35.8235 123.061C35.5482 123.061 35.5482 122.993 35.2424 122.993H34.0764C33.8011 122.993 33.8011 123.061 33.4953 123.061C33.0518 123.061 32.7766 123.027 32.3293 123.027C31.7138 122.958 31.1977 122.993 30.5822 122.993C29.9667 123.027 29.4506 123.027 28.8351 122.993C28.5598 122.993 28.5598 123.061 28.254 123.061C27.9482 123.061 27.9787 123.027 27.6729 123.027C27.4321 123.027 27.2944 122.752 27.2944 122.378C27.2944 121.833 27.26 121.833 27.26 121.283V120.188C27.26 119.814 27.4665 119.505 27.6691 119.505C27.9443 119.505 27.9443 119.47 28.2502 119.47C28.5254 119.47 28.5254 119.539 28.8313 119.539H29.9973C30.4407 119.505 30.716 119.47 31.1633 119.47C31.6068 119.505 31.882 119.505 32.3293 119.505C32.6045 119.505 32.6046 119.539 32.9104 119.539C33.1856 119.539 33.1856 119.505 33.4915 119.505C33.7667 119.505 33.7667 119.539 34.0726 119.539C34.3478 119.539 34.3478 119.505 34.6537 119.505C35.0971 119.47 35.3724 119.47 35.8197 119.505C36.0949 119.505 36.0949 119.573 36.4008 119.573C36.8442 119.573 37.1195 119.539 37.5668 119.539C37.842 119.539 37.842 119.573 38.1479 119.573C38.4231 119.573 38.4231 119.539 38.729 119.539C39.1724 119.505 39.4477 119.47 39.895 119.47C40.3423 119.47 40.6137 119.505 41.061 119.539C41.6765 119.539 42.1926 119.539 42.8081 119.505C43.0833 119.505 43.0833 119.573 43.3892 119.573C43.6644 119.573 43.6644 119.539 43.9703 119.539H44.5514C44.8266 119.539 44.8266 119.47 45.1324 119.47C45.5759 119.47 45.8512 119.505 46.2985 119.539C46.7419 119.539 47.0172 119.505 47.4645 119.505C47.9118 119.505 48.1832 119.539 48.6305 119.539C49.6244 119.505 50.5496 119.573 51.5398 119.505C51.9832 119.539 52.2585 119.539 52.7058 119.539C53.3213 119.573 53.8374 119.573 54.4529 119.47C55.0684 119.539 55.5845 119.539 56.2 119.47C56.8155 119.505 57.3316 119.47 57.9471 119.47C58.2223 119.47 58.2223 119.539 58.5282 119.539C58.8034 119.539 58.8034 119.505 59.1092 119.505C59.3845 119.505 59.3845 119.573 59.6903 119.573C59.9656 119.573 59.9656 119.505 60.2714 119.505C60.7149 119.505 60.9902 119.539 61.4374 119.539C61.8847 119.539 62.1562 119.505 62.6035 119.47C62.8787 119.47 62.8787 119.539 63.1845 119.539C63.4598 119.539 63.4598 119.505 63.7656 119.505C64.3811 119.539 64.8972 119.505 65.5127 119.47C65.9562 119.505 66.2315 119.539 66.6787 119.505C66.954 119.505 66.954 119.47 67.2598 119.47C67.5351 119.47 67.5351 119.505 67.8409 119.505H69.0069C69.2822 119.505 69.2822 119.47 69.588 119.47C70.3756 119.539 71.1287 119.539 71.9162 119.539C72.7038 119.539 73.4569 119.505 74.2444 119.505C74.8599 119.539 75.376 119.505 75.9915 119.539C76.435 119.539 76.7102 119.539 77.1575 119.573C77.4328 119.573 77.4328 119.505 77.7386 119.505C78.3541 119.539 78.8702 119.573 79.4857 119.47H80.0668C80.3421 119.47 80.3421 119.539 80.6479 119.539C80.9232 119.539 80.9232 119.505 81.229 119.505C81.5042 119.505 81.5042 119.539 81.8101 119.539C82.4256 119.47 82.9417 119.505 83.5572 119.539C84.3447 119.539 85.0978 119.505 85.8854 119.505C86.1606 119.505 86.1606 119.573 86.4665 119.573H87.0476C87.8351 119.539 88.5882 119.505 89.3758 119.573C89.651 119.573 89.651 119.505 89.9568 119.505C90.4003 119.539 90.6756 119.539 91.1229 119.539C91.7384 119.505 92.2545 119.539 92.87 119.573C93.1452 119.573 93.1452 119.539 93.451 119.539C93.7263 119.539 93.7263 119.573 94.0321 119.573C94.3074 119.573 94.3074 119.539 94.6132 119.539C94.8885 119.539 94.8885 119.573 95.1943 119.573C95.4696 119.573 95.4696 119.608 95.7754 119.608C96.0507 119.608 96.0507 119.539 96.3565 119.539H96.9376C97.9316 119.539 98.8567 119.608 99.8469 119.573C100.29 119.539 100.566 119.539 101.013 119.608C101.456 119.573 101.732 119.573 102.179 119.573C102.454 119.573 102.454 119.539 102.76 119.539C103.035 119.539 103.035 119.608 103.341 119.608C103.957 119.539 104.473 119.539 105.088 119.608C106.082 119.608 107.007 119.47 107.997 119.539C108.273 119.539 108.273 119.505 108.579 119.505C108.854 119.505 108.854 119.573 109.16 119.573H109.741C110.016 119.573 110.016 119.505 110.322 119.505H110.903C111.178 119.505 111.178 119.539 111.484 119.539C111.725 119.539 111.893 119.814 111.893 120.188C111.928 121.008 111.928 121.588 111.893 122.409L111.912 122.413ZM164.337 101.153C164.337 101.462 163.993 101.802 163.584 101.802H161.531C161.018 101.802 161.018 101.733 160.502 101.733C159.986 101.733 159.99 101.802 159.474 101.802C158.958 101.802 158.962 101.733 158.445 101.733C157.929 101.733 157.933 101.767 157.417 101.767C156.664 101.733 156.117 101.767 155.364 101.767C154.852 101.767 154.852 101.733 154.336 101.733C153.583 101.767 153.036 101.733 152.283 101.699C151.771 101.699 151.771 101.767 151.254 101.767C150.738 101.767 150.742 101.733 150.226 101.733C149.473 101.733 148.926 101.733 148.173 101.767H147.145C146.632 101.767 146.632 101.699 146.116 101.699C145.019 101.699 144.098 101.664 143.001 101.733C142.248 101.733 141.701 101.733 140.948 101.699C140.435 101.699 140.435 101.767 139.919 101.767C138.172 101.767 136.494 101.699 134.747 101.767C134.235 101.767 134.235 101.699 133.718 101.699C132.965 101.699 132.419 101.733 131.666 101.767C131.153 101.767 131.153 101.699 130.637 101.699H128.584C128.072 101.699 128.072 101.767 127.556 101.767C127.04 101.767 127.044 101.733 126.527 101.733C126.011 101.733 126.015 101.767 125.499 101.767C124.983 101.767 124.987 101.699 124.471 101.699C123.955 101.699 123.958 101.733 123.442 101.733H121.389C121.011 101.767 120.602 101.767 120.223 101.767C120.189 102.622 120.155 103.374 120.155 104.263C120.189 105.015 120.155 105.526 120.155 106.282C120.223 107.343 120.223 108.262 120.155 109.323C120.189 110.384 120.155 111.304 120.189 112.365V113.391C120.155 114.074 119.47 114.654 118.648 114.723C118.339 114.964 117.93 115.097 117.482 115.097C117.138 115.097 116.97 115.097 116.832 115.063C116.695 115.063 116.523 115.028 116.251 115.028H115.808C115.567 115.028 115.261 115.028 114.986 114.994H113.514C113.17 114.994 112.864 115.028 112.486 115.028C112.107 114.994 111.801 114.994 111.423 114.994H111.113C110.872 114.994 110.735 114.994 110.635 114.96C109.917 114.96 109.198 114.96 108.479 114.994C108.101 114.994 107.795 114.994 107.451 115.028C107.107 115.028 106.939 114.994 106.766 114.96C106.629 114.925 106.491 114.925 106.185 114.925H104.098C103.926 114.925 103.754 114.925 103.62 114.891C102.97 114.925 102.424 114.925 101.804 114.925C101.804 115.028 101.839 115.166 101.839 115.269L101.873 115.441C101.942 116.124 101.942 116.604 101.976 117.185V117.597C102.011 117.837 102.045 117.94 102.045 118.074C102.08 118.177 102.08 118.314 102.114 118.448H102.458C102.527 118.448 102.63 118.413 102.802 118.413H103.383C103.555 118.413 103.658 118.448 103.762 118.448C103.865 118.482 104.071 118.482 104.205 118.448C104.274 118.413 104.377 118.413 104.584 118.413C104.756 118.413 104.859 118.448 104.962 118.448C105.1 118.482 105.341 118.482 105.474 118.482C105.608 118.482 105.818 118.482 105.987 118.448C106.055 118.413 106.159 118.413 106.365 118.413C106.537 118.413 106.64 118.413 106.709 118.448C106.847 118.482 107.088 118.482 107.221 118.448H108.112C108.284 118.448 108.387 118.482 108.491 118.482C108.559 118.482 108.594 118.516 108.697 118.516C108.869 118.516 109.007 118.654 109.007 118.825C109.007 118.997 108.869 119.135 108.697 119.135C108.525 119.135 108.387 119.1 108.319 119.1C108.181 119.066 107.94 119.066 107.841 119.066H106.916C106.744 119.066 106.675 119.066 106.572 119.032C106.468 118.997 106.262 118.997 106.128 119.032C106.059 119.066 105.956 119.066 105.75 119.066H105.168C104.996 119.066 104.893 119.032 104.79 119.032C104.652 118.997 104.48 118.997 104.381 119.032C104.312 119.066 104.209 119.066 104.002 119.066C103.83 119.066 103.727 119.066 103.658 119.032C103.521 118.997 103.28 118.997 103.146 119.032H102.836C102.733 119.032 102.664 119.032 102.596 119.066C102.492 119.066 102.424 119.1 102.252 119.1C102.08 119.1 101.976 119.066 101.873 119.066C101.77 119.032 101.529 119.032 101.43 119.066C101.33 119.1 101.258 119.1 101.086 119.1C100.913 119.1 100.81 119.066 100.707 119.066C100.535 119.032 100.329 119.032 100.195 119.032C100.061 119.032 99.8163 119.032 99.6825 119.066C99.5793 119.066 99.5105 119.1 99.3384 119.1C99.1664 119.1 99.0976 119.1 98.9944 119.066H98.7535C98.3101 119.032 98.0348 119.066 97.6219 119.1C97.1441 119.135 96.6968 119.1 96.2533 119.1C95.7066 119.066 95.2249 119.066 94.6782 119.1C94.1659 119.066 93.8907 119.032 93.4816 119.066C93.0726 119.1 92.7629 119.135 92.3156 119.135C92.1092 119.135 92.006 119.1 91.9371 119.1C91.8683 119.066 91.8339 119.066 91.7307 119.066H91.1496C91.0464 119.066 90.9776 119.066 90.9088 119.1C90.84 119.135 90.7367 119.135 90.5303 119.135C90.3583 119.135 90.255 119.135 90.1862 119.1C90.0486 119.066 89.8422 119.066 89.7084 119.1C89.6051 119.1 89.5363 119.135 89.3643 119.135C89.1923 119.135 89.1234 119.135 89.0202 119.1H88.5424C88.4391 119.1 88.3703 119.135 88.1983 119.135C88.0262 119.135 87.923 119.1 87.8198 119.1C87.751 119.1 87.7166 119.066 87.6134 119.066C87.0323 119.169 86.4474 119.135 85.8319 119.1C85.6942 119.1 85.591 119.1 85.4534 119.066C85.419 119.066 85.3846 119.1 85.3158 119.1H84.8723C84.5282 119.1 84.188 119.1 83.8439 119.066H83.4654C83.3622 119.066 83.2934 119.066 83.2246 119.1C83.1214 119.1 83.0526 119.135 82.8805 119.135L82.4715 119.1C82.2306 119.1 81.9936 119.066 81.7183 119.066C81.6151 119.066 81.5807 119.066 81.5119 119.1C81.4431 119.135 81.3399 119.135 81.1334 119.135C80.7244 119.169 80.4147 119.1 80.0706 119.066H79.933C79.5545 119.066 79.2487 119.1 78.8358 119.135C78.3579 119.1 78.0827 119.066 77.6392 119.1C77.5016 119.1 77.4328 119.1 77.3984 119.135C77.2952 119.135 77.2263 119.169 77.0543 119.169C76.8823 119.169 76.8135 119.169 76.7102 119.135H76.4694C76.2285 119.135 76.0603 119.135 75.8539 119.1C75.6819 119.1 75.5098 119.1 75.3072 119.066C75.204 119.066 75.1696 119.066 75.1008 119.1C75.032 119.135 74.9287 119.135 74.7223 119.135C74.3132 119.169 74.0036 119.135 73.5257 119.1H71.2319C71.0599 119.1 70.9567 119.066 70.8878 119.066H70.41C70.3412 119.1 70.2379 119.1 70.0659 119.1H69.4504C68.4564 119.1 67.4969 119.135 66.5067 119.066C66.4379 119.066 66.3691 119.066 66.3003 119.1C66.2315 119.135 66.1282 119.135 65.9218 119.135C65.7498 119.135 65.6465 119.135 65.5777 119.1C65.4401 119.066 65.1992 119.066 65.0654 119.1H63.9683C63.5592 119.1 63.1119 119.1 62.7028 119.066H61.8465C61.7089 119.066 61.6401 119.066 61.5712 119.032H60.0994C59.9274 119.032 59.8586 119.032 59.7897 118.997H59.3119C59.2086 118.997 59.1398 119.032 58.9678 119.032C58.7958 119.032 58.727 119.032 58.6237 118.997H58.1459C58.0426 118.997 57.9738 119.032 57.8018 119.032C57.6298 119.032 57.5265 119.032 57.4577 118.997C57.3545 118.963 57.1137 118.963 57.0143 118.997C56.9454 119.032 56.8422 119.032 56.6358 119.032H56.0547C55.8482 119.032 55.745 118.997 55.6762 118.963C55.5386 118.928 55.3666 118.928 55.2672 118.963C55.1639 118.997 55.0951 118.997 54.9231 118.997C54.7511 118.997 54.6478 118.963 54.5446 118.963C54.4414 118.928 54.235 118.928 54.1011 118.963C54.0323 118.997 53.9291 118.997 53.7227 118.997C53.3136 118.963 52.9351 118.963 52.5567 118.963C52.1782 118.963 51.7691 118.963 51.3601 118.928C51.2569 118.928 51.2225 118.928 51.1536 118.963C51.0504 118.997 50.9816 118.997 50.8096 118.997H50.2285C50.022 119.032 49.8194 119.032 49.6474 118.997H49.1351C49.0319 118.997 48.9287 118.997 48.8254 118.963H48.4814C48.3437 118.963 48.3093 118.963 48.2405 118.997C48.1373 119.032 48.0685 119.032 47.8965 119.032C47.7244 119.032 47.6212 119.032 47.5524 118.997C47.4836 118.997 47.4492 118.963 47.3115 118.963C46.4896 119.032 45.6677 118.997 44.9489 118.928H44.4023C44.299 118.928 44.2302 118.928 44.1958 118.963C44.127 118.997 44.0238 118.997 43.8173 118.997H43.2363C42.7928 118.997 42.5175 118.997 42.0702 119.032C41.8982 119.032 41.795 119.032 41.6918 118.997C41.6574 118.997 41.5885 118.997 41.5197 118.963H41.3821C41.0036 118.997 40.6978 118.997 40.2505 118.963C39.872 118.963 39.6006 118.963 39.2221 118.928H39.0501C38.9813 118.928 38.9469 118.928 38.8781 118.963C38.8092 118.997 38.706 118.997 38.4996 118.997H37.9185C37.7465 118.997 37.6432 118.997 37.5744 118.963C37.4712 118.928 37.2648 118.928 37.131 118.963C37.0621 118.997 36.9589 118.997 36.7525 118.997C36.4428 118.963 36.2058 118.963 35.9305 118.963C35.6209 118.963 35.315 118.963 34.971 118.928H34.6957C34.5581 118.928 34.3517 118.894 34.2178 118.963C34.149 118.997 34.0458 118.997 33.8394 118.997H33.2583C33.0174 118.997 32.7804 118.997 32.574 118.963C32.2299 118.963 31.8897 118.963 31.4768 118.928C31.0677 118.963 30.7581 118.963 30.3108 118.963C30.1387 118.963 30.0011 118.791 30.0011 118.619C30.0011 118.448 30.1731 118.31 30.3452 118.31C30.7542 118.345 31.0295 118.31 31.4768 118.276C31.8858 118.31 32.2299 118.31 32.574 118.31C32.8148 118.31 33.0174 118.31 33.2583 118.345H33.5335C33.6712 118.345 33.8776 118.379 34.0114 118.31C34.0802 118.276 34.1834 118.276 34.3899 118.276H34.971C35.315 118.31 35.6209 118.31 35.8961 118.31C36.1714 118.31 36.4428 118.31 36.7181 118.345C36.8213 118.345 36.8557 118.345 36.9245 118.31C36.9933 118.276 37.0965 118.276 37.303 118.276C37.4406 118.276 37.5094 118.276 37.6126 118.31C37.4062 118.07 37.2686 117.696 37.2686 117.215C37.1998 115.746 37.1654 114.345 37.2686 112.842C37.2686 112.67 37.2686 112.498 37.2342 112.365C37.1998 111.853 37.1998 111.579 37.4062 111.373C37.6127 111.166 37.8841 111.166 38.3658 111.166H38.9125C39.1533 111.166 39.2909 111.166 39.3903 111.201C39.1151 110.621 38.8437 110.006 38.534 109.422C38.3275 108.877 38.1249 108.362 37.9185 107.885C37.6776 107.305 37.475 106.755 37.2342 106.209C37.131 105.797 36.9933 105.423 36.8557 105.015C36.6149 104.297 36.3778 103.546 36.2746 102.794C36.2058 102.519 36.1026 102.008 36.1026 101.531C35.4871 101.496 35.0054 101.496 34.3211 101.496C33.5335 101.531 33.0213 101.531 32.2681 101.531C31.4806 101.496 30.9683 101.462 30.2152 101.496C29.7029 101.496 29.7029 101.565 29.1868 101.565C28.6707 101.565 28.6745 101.496 28.1584 101.496H26.1055C25.5932 101.496 25.5932 101.565 25.0771 101.565C24.2896 101.565 23.7773 101.531 23.0242 101.531C21.927 101.462 21.0056 101.496 19.9084 101.496C18.8112 101.531 17.8899 101.531 16.7927 101.496C16.2804 101.496 16.2804 101.565 15.7643 101.565C15.2482 101.565 15.2521 101.531 14.736 101.531C14.3269 101.531 14.0516 101.256 14.0516 100.882C14.0516 100.336 13.9828 100.336 13.9828 99.7867V98.6915C13.9828 98.3175 14.3269 98.0084 14.736 98.0084C15.2482 98.0084 15.2482 97.9741 15.7643 97.9741C16.2804 97.9741 16.2766 98.0428 16.7927 98.0428H18.8457C19.5988 98.0084 20.1455 97.9741 20.8986 97.9741C21.6517 98.0084 22.1984 98.0084 22.9515 98.0084C23.4638 98.0084 23.4638 98.0428 23.9799 98.0428C24.496 98.0428 24.4922 98.0084 25.0083 98.0084C25.5244 98.0084 25.5206 98.0428 26.0367 98.0428C26.5528 98.0428 26.549 98.0084 27.0651 98.0084C27.8182 97.9741 28.3649 97.9741 29.118 98.0084C29.6303 98.0084 29.6303 98.0771 30.1464 98.0771C30.8995 98.0771 31.4462 98.0428 32.1993 98.0428C32.7116 98.0428 32.7116 98.0771 33.2277 98.0771C33.7438 98.0771 33.74 98.0428 34.2561 98.0428C35.0092 98.0084 35.5559 97.9741 36.309 98.0084C36.9245 98.0084 37.4062 98.0428 37.9873 98.0428C37.9873 97.9397 37.9529 97.871 37.9529 97.768H36.5499C35.7967 97.768 35.25 97.768 34.4625 97.7337C34.2217 97.7337 34.1185 97.7337 33.9846 97.768C33.8508 97.8024 33.7094 97.8024 33.438 97.8024H32.4096C32.1343 97.8024 32.0005 97.8024 31.8629 97.768C31.7253 97.768 31.622 97.7337 31.385 97.7337C31.148 97.7337 31.0065 97.7337 30.9072 97.768C30.7695 97.8024 30.6319 97.8024 30.3605 97.8024C29.8482 97.768 29.3665 97.768 28.8886 97.768C28.3419 97.768 27.7914 97.768 27.2103 97.7337H26.1819C25.9411 97.7337 25.8035 97.768 25.7041 97.768C25.5665 97.8024 25.4288 97.8024 25.1574 97.8024H24.0946C23.6511 97.8024 23.2383 97.8024 22.8292 97.768C22.2137 97.768 21.5982 97.768 20.9445 97.7337C20.1569 97.768 19.6103 97.768 18.8571 97.768C18.6851 97.768 18.5475 97.6306 18.5475 97.4246C18.5475 97.2528 18.6851 97.1498 18.8915 97.1154C19.6103 97.1154 20.1569 97.1154 20.9445 97.0811C21.6288 97.1154 22.2099 97.1154 22.8292 97.1154C23.2383 97.1154 23.6511 97.1154 24.0946 97.1498H25.123C25.3638 97.1498 25.4671 97.1154 25.6009 97.1154C25.7385 97.0811 25.8761 97.0811 26.1819 97.0811H27.2103C27.7914 97.1154 28.3419 97.1154 28.8886 97.1154C29.3665 97.1154 29.8482 97.1154 30.3605 97.1498C30.6013 97.1498 30.7045 97.1498 30.8039 97.1154C30.9416 97.0811 31.0792 97.0811 31.385 97.0811C31.6603 97.0811 31.7941 97.0811 31.9317 97.1154C32.0349 97.1154 32.1726 97.1498 32.3752 97.1498L31.6565 96.6041C31.3812 96.398 31.278 96.2606 31.1786 96.1614C31.0792 96.0622 30.9721 95.9553 30.7695 95.7874C30.5287 95.6157 30.391 95.5127 30.2917 95.444C30.154 95.3753 30.0164 95.2723 29.7794 95.1005C29.7106 95.0662 29.6761 94.9975 29.6417 94.9288C29.6073 94.8258 29.6417 94.6884 29.6762 94.6197C29.8138 94.448 29.8482 94.3793 29.917 94.3106L29.9514 94.2762C29.3703 93.8641 28.3763 93.5932 27.9979 93.4901C26.354 92.9788 25.1918 91.6088 24.1978 90.38C24.0258 90.1739 23.8538 89.9678 23.72 89.7999C23.3759 89.2542 22.898 88.3994 22.7604 88.0559C22.6916 87.9186 22.7948 87.7125 22.898 87.6438C23.0356 87.5064 23.1045 87.5064 23.1733 87.4721C23.2077 87.4721 23.2421 87.4377 23.2765 87.4034C23.3453 87.3347 23.4141 87.3003 23.4829 87.3003C23.5861 87.3003 23.6894 87.3347 23.7582 87.369C23.827 87.4377 23.8614 87.4721 23.8958 87.4721C24.1367 87.369 24.5801 87.266 24.8898 87.266C25.6429 87.4034 26.1552 87.9491 26.6369 88.4604C26.9465 88.7696 27.218 89.0748 27.562 89.2809C27.5965 88.9718 27.6309 88.7696 27.7685 88.6322C27.8029 88.5635 27.8717 88.5291 27.9405 88.4948C28.1126 88.4261 28.2846 88.4948 28.3496 88.6665C28.4184 88.8039 28.3496 88.9756 28.2464 89.0443C28.2464 89.0787 28.212 89.1474 28.212 89.2847C28.3152 89.2847 28.384 89.2847 28.4872 89.2504V89.1474C28.4528 88.9756 28.5904 88.8039 28.7625 88.8039H28.8313C29.0033 88.8039 29.1065 88.8726 29.1409 89.01C29.1753 88.8726 29.2097 88.7009 29.2442 88.5978C29.2786 88.5291 29.3474 88.4604 29.4162 88.4261C29.485 88.3918 29.5882 88.3918 29.657 88.4261C29.7603 88.4604 29.8291 88.5291 29.8635 88.5978C29.8979 88.5635 29.9667 88.5291 30.0011 88.5291C30.1387 88.4948 30.3108 88.5635 30.3796 88.7009C30.414 88.7352 30.4484 88.8039 30.4828 88.8382C30.5172 88.9069 30.5172 88.9756 30.4828 89.0443C30.7925 89.01 31.0983 88.9413 31.3391 88.8726C31.5456 88.8039 31.7482 88.8382 31.9202 88.9756C32.0579 88.9413 32.1611 88.9069 32.2643 88.9069C32.3331 88.9069 32.3675 88.9069 32.4707 88.8726L33.2239 87.743C33.1551 87.64 33.1551 87.5026 33.2239 87.3996C33.3959 87.0905 33.6023 86.7852 33.805 86.4417C34.3861 85.4839 34.971 84.4917 35.5865 83.6063C35.6553 83.5033 35.7241 83.3316 35.7585 83.1942C35.8273 82.9881 35.9305 82.8164 36.0338 82.6141C36.137 82.4424 36.2402 82.2707 36.3778 82.1371C36.481 81.9997 36.5843 81.8623 36.6875 81.725C37.0316 81.0419 37.4406 80.3244 37.8535 79.6414C38.1976 79.0613 38.5378 78.4774 38.8475 77.8974L39.1227 77.386C39.5662 76.5999 40.0823 75.6764 40.3193 74.9933C40.4569 74.5506 40.5602 74.0354 40.6978 73.5241C40.973 72.4289 41.2101 71.3031 41.6918 70.3796C41.967 69.5935 42.204 69.1508 42.7201 68.296C42.789 68.1929 42.8234 68.0212 42.8922 67.8838C42.961 67.6778 43.0298 67.4717 43.1674 67.3038C43.2707 67.1321 43.3739 66.9947 43.4771 66.8268C43.5803 66.6589 43.6835 66.5177 43.7868 66.3498L44.299 65.3919C43.4083 65.3919 42.5175 65.3919 41.5924 65.3232C41.3515 65.3232 41.2139 65.3232 41.1145 65.3576C40.9769 65.3919 40.8048 65.3919 40.5334 65.3919C40.2237 65.3919 40.0899 65.3919 39.9523 65.3576C39.8147 65.3576 39.6771 65.3232 39.44 65.3232C39.203 65.3232 39.0616 65.3232 38.9278 65.3576C38.7939 65.3919 38.6181 65.3919 38.3467 65.3919C37.5935 65.3576 36.8748 65.3576 36.1905 65.3576C35.4374 65.3576 34.6842 65.3576 33.8967 65.3232H33.4533C32.8378 65.3576 32.1534 65.3919 31.5685 64.8805C31.0562 64.3348 31.0562 63.6861 31.0562 63.1366C31.0562 62.9305 31.0562 62.7588 31.0218 62.5565C31.0218 62.2131 31.0562 62.0795 31.0562 61.9421C31.0562 61.8047 31.0907 61.7017 31.0907 61.4308C31.0907 61.1903 31.0562 61.0529 31.0562 60.9194C31.0218 60.782 31.0218 60.6103 31.0218 60.305V59.2098C31.0562 58.3893 31.0562 57.8436 31.0218 57.0231C31.0218 56.5461 31.0218 56.0653 31.0562 55.6226C31.0562 55.0082 31.0907 54.3594 31.0907 53.7069C31.0907 53.4665 31.0562 53.3291 31.0562 53.1955C31.0218 53.0581 31.0218 52.9208 31.0218 52.6842C29.9246 52.9933 28.6248 52.8902 28.2158 52.8559C27.2218 52.6498 25.9908 52.2071 25.4747 51.215C24.9968 50.4632 24.756 49.5397 24.7904 48.5475C24.7904 48.4444 24.756 48.3414 24.756 48.204C24.7216 47.8606 24.6872 47.5553 24.756 47.2118C24.9624 46.2883 25.3027 45.4335 25.7844 44.6817C26.5031 43.6895 27.7723 43.3155 28.4566 43.1782C29.3818 43.1095 30.3069 43.2125 31.0945 43.4529V41.5372C31.0945 41.2968 31.0601 41.1594 31.0601 41.0602C31.0257 40.9228 31.0257 40.7511 31.0257 40.4458V39.3506C31.0257 39.0415 31.0601 38.9079 31.0601 38.7362C31.0945 38.5988 31.0945 38.4958 31.0945 38.2248V37.1296C31.0945 36.8892 31.0945 36.7518 31.0601 36.6182C31.0257 36.4847 31.0257 36.3091 31.0257 36.0038C31.0257 35.6985 31.0601 35.5612 31.0601 35.3894C31.0945 35.252 31.0945 35.149 31.0945 34.8781C31.0945 34.6071 31.0945 34.5003 31.0601 34.3667C31.0601 34.2293 31.0257 34.0576 31.0257 33.7867C31.0601 32.9318 31.0601 32.3518 31.0257 31.6V31.123C30.9913 30.5086 30.9568 29.8255 31.6412 29.276C32.1878 28.6616 32.8722 28.7303 33.4571 28.7646C33.5947 28.7646 33.7667 28.799 33.9005 28.799C34.1414 28.799 34.279 28.7646 34.4128 28.7646C34.5504 28.7303 34.7225 28.7303 34.9939 28.7303C35.8503 28.7303 36.4314 28.7646 37.2189 28.8333C37.9032 28.7646 38.5531 28.7646 39.2374 28.7646C39.6465 28.7646 40.0594 28.7646 40.5028 28.7303C40.8125 28.7303 40.9463 28.7646 41.1183 28.7646C41.2559 28.799 41.3592 28.799 41.6306 28.799C41.902 28.799 42.0397 28.799 42.1429 28.7646C42.2805 28.7646 42.4181 28.7303 42.724 28.7303C42.9992 28.7303 43.1674 28.7303 43.3051 28.7646C43.4427 28.7646 43.5803 28.799 43.8173 28.799C44.0544 28.799 44.1958 28.7646 44.3296 28.7646C44.4672 28.7303 44.6393 28.7303 44.9107 28.7303C45.2204 28.7303 45.3542 28.7646 45.4918 28.7646C45.6294 28.799 45.7327 28.799 46.0041 28.799C46.2449 28.799 46.3826 28.7646 46.5164 28.7646C46.654 28.7303 46.826 28.7303 47.1319 28.7303C47.4377 28.7303 47.5753 28.7646 47.7474 28.799C47.885 28.8333 47.9882 28.8333 48.2252 28.8333C49.5939 28.8333 50.9663 28.8333 52.6408 28.799C53.8718 28.8333 54.8657 28.799 55.9285 28.7646C56.4752 28.7646 56.9225 28.799 57.4004 28.799C57.6412 28.799 57.8783 28.8333 58.1535 28.8333C58.3944 28.8333 58.532 28.799 58.6314 28.799C58.769 28.7646 58.941 28.7646 59.2125 28.7646C59.5221 28.7646 59.6559 28.799 59.7936 28.799C59.8624 28.799 59.9312 28.799 60 28.8333V28.6959C60.0344 27.5663 60.0344 26.6123 60.0344 25.4484V24.3532C60.0344 24.1127 60 23.9754 60 23.8761C59.9656 23.7388 59.9656 23.567 59.9656 23.2961V20.0486C60.0344 18.919 60.0688 17.9649 59.9656 16.8354C60.0688 15.6715 60.0688 14.7518 60.0344 13.5535C60.0344 12.63 60.8219 11.8439 61.7471 11.8095H64.3161C64.4194 11.8095 64.4882 11.8095 64.557 11.8439C64.6946 11.8439 64.8322 11.8782 65.0693 11.8782C65.8912 11.8439 66.4723 11.8439 67.2942 11.8439C67.5695 11.8439 67.7033 11.8439 67.8409 11.8095C68.0474 11.7752 68.185 11.7752 68.422 11.7752C68.7317 11.7752 68.8655 11.7752 69.0375 11.8095H69.1407C69.244 11.8095 69.3472 11.8439 69.5192 11.8439C69.8289 11.8439 69.9283 11.8439 70.1003 11.8095C70.2723 11.8095 70.5094 11.7752 70.7846 11.8095H72.9408C73.2848 11.8095 73.6251 11.8095 73.9692 11.8439H75.0664C75.8539 11.8095 76.435 11.8095 77.2913 11.8095C77.5322 11.8095 77.6354 11.8095 77.7348 11.7752C77.9412 11.7408 78.1133 11.7065 78.3847 11.7065C78.6944 11.7065 78.8626 11.7065 79.0002 11.7408H79.069C79.1722 11.7408 79.2755 11.7752 79.4781 11.7752L81.703 11.7408C82.4218 11.7408 82.934 11.7408 83.5534 11.7752H83.9318C84.1727 11.7752 84.3103 11.7752 84.4097 11.7408C84.5817 11.7065 84.7194 11.7065 85.0252 11.7065H85.6407C85.7783 11.7065 85.916 11.7408 86.153 11.7408L87.3496 11.7065C88.4812 11.6721 89.5057 11.6721 90.6029 11.7408C90.9126 11.7408 91.0464 11.7408 91.2184 11.7065H91.7307C92.5871 11.7408 93.1337 11.7752 93.9557 11.7408H94.7432C94.9841 11.7408 95.2211 11.7408 95.4619 11.7752C95.806 11.8439 96.0774 11.9812 96.3183 12.2178C96.3527 12.2522 96.3527 12.2865 96.3871 12.2865C96.8306 12.4926 97.1402 12.9696 97.1402 13.481V14.5762C97.1402 15.1219 97.0714 15.1219 97.0714 15.6714C97.0714 16.0149 97.0714 16.1485 97.1058 16.2858H98.3712C98.6465 16.2858 98.7803 16.2858 98.9179 16.2515C99.0899 16.2172 99.2276 16.2172 99.5678 16.2172C99.8087 16.2172 99.9463 16.3889 100.011 16.5606C100.114 16.5606 100.149 16.6636 100.149 16.7667C100.115 17.3467 100.183 17.7932 100.218 18.3733C100.355 18.3733 100.459 18.4076 100.527 18.4076C100.665 18.442 100.768 18.442 101.04 18.442C101.311 18.442 101.449 18.442 101.586 18.4076C101.724 18.4076 101.862 18.3733 102.167 18.3733C102.443 18.3733 102.576 18.3733 102.714 18.3389C102.852 18.3389 102.989 18.3046 103.295 18.3046C103.601 18.3046 103.739 18.3389 103.911 18.3389C104.048 18.3733 104.152 18.3733 104.423 18.3733C104.694 18.3733 104.801 18.3389 104.935 18.3389C105.073 18.3046 105.245 18.3046 105.516 18.3046C105.826 18.3046 105.994 18.3389 106.132 18.3733C106.269 18.4076 106.373 18.4076 106.61 18.4076C106.885 18.4076 107.019 18.4076 107.122 18.3733C107.26 18.3733 107.432 18.3389 107.703 18.3389C108.013 18.3389 108.147 18.3389 108.284 18.3733C108.422 18.3733 108.559 18.4076 108.796 18.4076C109.034 18.4076 109.175 18.3733 109.309 18.3733C109.412 18.3733 109.481 18.3389 109.584 18.3389C109.584 18.2702 109.584 18.1672 109.55 18.1329C109.515 17.9955 109.515 17.8924 109.515 17.6558V16.7667C109.515 16.4919 109.722 16.221 110.027 16.221H112.252C112.562 16.221 112.696 16.2553 112.868 16.2553C113.006 16.2897 113.109 16.2897 113.38 16.2897C114.546 16.2897 115.536 16.2553 116.702 16.1866C117.012 16.221 117.18 16.221 117.318 16.221C117.456 16.2553 117.559 16.2553 117.83 16.2553H121.187C121.393 16.2553 121.531 16.3584 121.596 16.5301C121.699 16.5301 121.733 16.5644 121.905 16.5644C122.009 16.5644 122.112 16.6331 122.112 16.7362V17.0796C122.112 17.2513 122.043 17.2513 122.043 17.4574C122.043 17.6291 122.077 17.6291 122.077 17.8009V18.5526C122.077 18.6557 122.009 18.69 121.905 18.69H121.665C121.63 18.7587 121.63 18.8274 121.561 18.8961C121.458 18.9991 121.355 19.0678 121.217 19.0678H118.992C118.136 19.1022 117.589 19.1365 116.767 19.1022C116.492 19.1022 116.324 19.1022 116.186 19.0678C116.049 19.0678 115.911 19.0335 115.674 19.0335C115.399 19.0335 115.265 19.0335 115.162 19.0678C115.024 19.0678 114.852 19.1022 114.581 19.1022C113.724 19.0678 113.143 19.0678 112.356 19.0678H112.115V19.2739C112.115 19.4456 112.046 19.4456 112.046 19.6517C112.046 19.8234 112.012 19.8234 112.012 19.9951V20.3729C112.012 20.5447 112.046 20.5447 112.046 20.7164C112.046 20.8194 111.977 20.8881 111.874 20.8881C111.668 20.8881 111.668 20.9225 111.495 20.9225H111.461C111.323 21.2316 111.151 21.2659 111.052 21.2316H110.914C110.161 21.1972 109.615 21.1629 108.861 21.1629H107.695C106.977 21.1629 106.292 21.1285 105.539 21.1629C105.264 21.1972 105.096 21.1629 104.924 21.1285C104.786 21.1285 104.649 21.0942 104.412 21.0942C103.555 21.1285 102.974 21.1629 102.187 21.1285C101.468 21.1629 100.956 21.1972 100.267 21.1972H99.9578C99.7513 21.1972 99.5143 21.0255 99.5143 20.6515C99.5143 20.0715 99.5143 19.625 99.4455 19.0793C98.658 19.0449 97.9048 19.0449 97.1173 19.0106V21.0942C97.1173 21.6399 97.0485 21.6399 97.0485 22.1894C97.0485 22.7389 97.1173 22.7351 97.1173 23.2846C97.1173 23.8342 97.0829 23.8304 97.0829 24.3799C97.1861 25.8834 97.0829 27.3526 97.0829 28.8219H97.4919C97.7328 28.8219 97.8704 28.8219 98.0042 28.7875C98.138 28.7532 98.3139 28.7532 98.5853 28.7532C98.9944 28.7532 99.3384 28.7875 99.7169 28.7875C100.061 28.7875 100.401 28.8219 100.814 28.8219C101.055 28.8219 101.193 28.7875 101.326 28.7875C101.464 28.7532 101.636 28.7532 101.907 28.7532C102.217 28.7532 102.351 28.7532 102.489 28.7875C102.626 28.7875 102.764 28.8219 103.001 28.8219C103.238 28.8219 103.379 28.8219 103.513 28.7875C103.647 28.7532 103.823 28.7532 104.094 28.7532H106.285C106.594 28.7532 106.763 28.7875 106.935 28.8219C107.072 28.8562 107.176 28.8905 107.413 28.8905C108.235 28.8562 109.022 28.8219 109.81 28.8219L110.7 28.7875C110.976 28.7875 111.109 28.7875 111.213 28.7532C111.35 28.7532 111.522 28.7188 111.794 28.7188C112.103 28.7188 112.272 28.7532 112.409 28.7875C112.547 28.8219 112.65 28.8562 112.887 28.8562C113.124 28.8562 113.266 28.8219 113.365 28.8219C113.503 28.7875 113.675 28.7532 113.98 28.7532C114.256 28.7532 114.389 28.7532 114.527 28.7188C114.665 28.7188 114.802 28.6845 115.108 28.6845H117.299C117.608 28.6845 117.777 28.7188 117.914 28.7532C118.052 28.7875 118.155 28.7875 118.392 28.7875C118.629 28.7875 118.771 28.7532 118.904 28.7532C119.042 28.7188 119.214 28.7188 119.52 28.7188C119.826 28.7188 119.963 28.7532 120.101 28.7532C120.239 28.7532 120.342 28.7875 120.613 28.7875C121.676 28.7188 122.735 28.6845 123.935 28.7188C124.723 28.7532 125.27 28.7875 126.126 28.7188H127.46C128.145 28.7188 128.76 28.6845 129.479 28.7532H130.576C130.817 28.7532 130.954 28.7532 131.088 28.7188C131.222 28.6845 131.398 28.6845 131.669 28.6845H132.801C133.933 28.6845 134.992 28.6845 136.123 28.7875C136.261 28.7875 136.398 28.7532 136.567 28.7532C137.148 28.6845 137.798 28.6501 138.348 29.131C138.998 29.234 139.545 29.7797 139.545 30.4628C139.51 31.2833 139.476 31.8633 139.51 32.6494C139.51 33.1952 139.476 33.1952 139.476 33.7447C139.476 34.2942 139.545 34.2904 139.545 34.8743C139.51 35.6947 139.476 36.2748 139.51 37.0609C139.51 37.6066 139.579 37.6066 139.579 38.1561C139.579 38.7057 139.476 38.7018 139.476 39.2514V40.3809C139.476 40.7931 139.476 41.2014 139.51 41.5754C139.751 41.5754 139.889 41.5754 140.023 41.541C140.16 41.541 140.298 41.5067 140.569 41.5067H140.913C140.982 41.1976 141.12 40.8923 141.357 40.6862C141.666 40.3771 142.076 40.2092 142.523 40.2092C143.345 40.2436 144.132 41.0297 144.201 41.8158V41.8502C144.201 42.2623 144.063 42.6019 143.857 42.8767C143.891 42.9797 143.926 43.0828 143.926 43.1858C143.857 43.7659 143.891 43.7659 143.857 44.3154C143.754 45.1358 143.651 45.7159 143.513 46.5707C143.375 47.2195 143.616 48.246 142.76 48.3147C141.972 48.349 141.426 48.3834 140.638 48.3834C140.26 48.349 139.885 48.349 139.506 48.3147C139.541 48.6238 139.61 48.7268 139.61 49.2038C139.61 49.7496 139.506 49.7495 139.506 50.2991V52.3827C139.713 52.3827 139.885 52.3827 140.088 52.417C140.565 52.417 141.047 52.417 141.525 52.3827C142.14 52.3827 142.756 52.3483 143.444 52.3827C144.266 52.3483 144.847 52.3483 145.669 52.3827C145.944 52.3827 146.078 52.3827 146.216 52.3483C146.353 52.3483 146.491 52.314 146.797 52.314C147.344 52.314 147.619 52.7261 147.619 53.0658C147.619 53.3749 147.447 53.6802 147.072 53.8176C147.072 54.3633 147.107 54.8098 147.141 55.3898V55.6989C147.107 56.5537 147.072 57.0651 147.072 57.8856C147.072 58.126 147.072 58.2634 147.107 58.3969C147.107 58.5343 147.141 58.6717 147.141 58.977C147.141 59.2517 147.141 59.4196 147.107 59.557C147.107 59.6944 147.072 59.7974 147.072 60.0684C147.107 60.8545 147.107 61.4002 147.038 62.255V63.3159C147.038 63.5563 147.072 63.6937 147.072 63.7929C147.107 63.9303 147.107 64.102 147.107 64.373L147.072 65.0217C147.072 65.4339 147.038 65.8079 147.038 66.2162C147.21 66.2162 147.313 66.2162 147.416 66.1818C147.554 66.1475 147.691 66.1475 147.963 66.1475C148.716 66.1475 149.228 66.1475 149.981 66.2162C150.459 66.2162 150.769 66.5253 150.769 66.9336V67.8228H150.975C151.113 67.8228 151.251 67.8571 151.488 67.8571C151.797 67.8571 151.966 68.0632 151.966 68.2998V69.292C152 69.4294 151.966 69.5324 151.897 69.6354C151.794 69.7385 151.656 69.8072 151.488 69.8072C151.079 69.8072 150.735 69.8415 150.39 69.8415C150.046 69.8415 149.706 69.8759 149.293 69.8759C148.984 69.8759 148.85 69.8415 148.712 69.8415C148.575 69.8415 148.471 69.8072 148.2 69.8072H147.103L146.487 69.8415C145.596 69.8759 144.74 69.9102 143.781 69.8759C142.718 69.9445 141.728 69.9102 140.665 69.9102C140.256 69.9102 139.808 69.9102 139.399 69.8759C139.124 69.8759 139.021 69.8759 138.887 69.9102C138.749 69.9102 138.612 69.9445 138.306 69.9445C137.759 69.9445 137.346 69.9102 136.869 69.9102L136.081 69.8759C135.84 69.8759 135.703 69.8759 135.569 69.9102C135.435 69.9445 135.259 69.9445 134.988 69.9445C134.678 69.9445 134.544 69.9445 134.407 69.9102C134.269 69.9102 134.131 69.8759 133.894 69.8759C133.657 69.8759 133.516 69.8759 133.382 69.9102C133.248 69.9445 133.072 69.9445 132.801 69.9445C132.491 69.9445 132.357 69.9102 132.185 69.8759C132.048 69.8415 131.945 69.8415 131.673 69.8415C131.432 69.8415 131.295 69.8759 131.161 69.8759C131.023 69.9102 130.851 69.9102 130.545 69.9102C130.24 69.9102 130.102 69.8759 129.93 69.8759C129.792 69.8415 129.689 69.8415 129.418 69.8415H128.389C129.349 70.0132 130.343 70.185 131.402 70.4559L131.505 70.4903C131.505 70.4903 131.574 70.5246 131.608 70.5246C131.643 70.5246 131.643 70.559 131.643 70.559C132.086 70.5933 132.499 70.7307 132.874 70.9367C133.114 71.0741 133.351 71.2458 133.558 71.4138C133.696 71.4825 133.833 71.5168 133.967 71.5855C134.514 71.7916 135.03 71.9633 135.508 72.4746C136.054 73.2608 136.261 74.6613 136.158 75.5848C136.123 76.5427 135.542 77.4662 135.026 78.3897C134.716 78.8667 134.445 79.3475 134.307 79.7558C134.307 79.7902 134.273 79.8245 134.238 79.8589C134.204 80.168 134.135 80.4733 134.135 80.748C133.963 82.1829 133.86 83.7551 133.86 85.1213L133.791 85.9075C133.722 86.7623 133.653 87.8575 133.653 88.4375C133.653 88.5406 133.653 88.6093 133.585 88.7123C133.516 88.781 133.413 88.8153 133.344 88.8153C133.069 88.8497 132.935 88.8497 132.763 88.8497H132.728V89.3267C132.832 89.3611 132.935 89.3954 133.004 89.4641C133.072 89.5328 133.107 89.6015 133.176 89.6702C133.382 89.6358 133.52 89.6358 133.585 89.7389C133.688 89.9106 133.688 90.2846 133.722 90.4906C133.757 91.8225 134.751 92.952 135.844 93.6351C136.154 93.8412 136.46 94.1121 136.769 94.3526C136.941 94.3869 137.113 94.3869 137.281 94.4213C138.035 94.4899 138.96 94.5586 139.541 95.1387C139.816 95.2761 140.088 95.4821 140.294 95.7874C140.328 95.7874 140.363 95.8218 140.432 95.8561C140.466 95.8905 140.466 95.9248 140.466 95.9248C140.535 95.9592 140.638 95.9935 140.741 95.9935C140.844 95.9592 141.017 96.0278 141.051 96.1309C141.12 96.2339 141.189 96.3713 141.154 96.44C141.12 96.5774 140.913 96.6804 140.676 96.7148C140.642 96.8178 140.573 96.8865 140.47 96.9208L140.091 97.0582C140.057 97.0582 140.023 97.0926 139.988 97.0926H140.367C140.642 97.0926 140.745 97.0926 140.879 97.1269C141.017 97.1269 141.12 97.1612 141.391 97.1612C141.632 97.1612 141.735 97.1612 141.869 97.1269C142.007 97.1269 142.144 97.0926 142.416 97.0926H143.444C143.719 97.0926 143.888 97.1269 144.025 97.1269C144.128 97.1269 144.266 97.1612 144.503 97.1612C144.74 97.1612 144.847 97.1612 144.981 97.1269C145.119 97.1269 145.256 97.0926 145.528 97.0926C145.799 97.0926 145.937 97.0926 146.074 97.1269C146.212 97.1269 146.315 97.1612 146.552 97.1612C146.789 97.1612 146.931 97.1612 147.03 97.1269C147.168 97.1269 147.305 97.0926 147.577 97.0926H148.605C148.88 97.0926 149.014 97.0926 149.152 97.1269C149.289 97.1269 149.393 97.1612 149.63 97.1612C149.867 97.1612 150.008 97.1269 150.108 97.1269C150.245 97.0926 150.383 97.0926 150.654 97.0926C150.926 97.0926 151.063 97.1269 151.201 97.1269C151.339 97.1269 151.442 97.1612 151.679 97.1612H152.707C152.948 97.1612 153.086 97.1612 153.185 97.1269C153.323 97.0926 153.46 97.0926 153.732 97.0926C154.003 97.0926 154.141 97.0926 154.278 97.1269C154.416 97.1269 154.519 97.1612 154.756 97.1612H156.844C157.119 97.1612 157.253 97.1956 157.425 97.1956C157.528 97.2299 157.666 97.2299 157.903 97.2299C158.075 97.2299 158.212 97.3673 158.212 97.539C158.212 97.7108 158.075 97.8481 157.903 97.8481C157.627 97.8481 157.494 97.8138 157.322 97.8138C157.218 97.7795 157.081 97.7795 156.844 97.7795H154.756C154.481 97.7795 154.347 97.7794 154.21 97.7451C154.072 97.7451 153.969 97.7108 153.732 97.7108C153.495 97.7108 153.388 97.7108 153.254 97.7451C153.12 97.7794 152.979 97.7795 152.673 97.7795H151.61C151.335 97.7795 151.201 97.7451 151.029 97.7451C150.926 97.7451 150.788 97.7108 150.551 97.7108C150.314 97.7108 150.207 97.7451 150.073 97.7451C149.936 97.7794 149.798 97.7795 149.492 97.7795C149.217 97.7795 149.083 97.7794 148.945 97.7451C148.808 97.7451 148.705 97.7108 148.468 97.7108H147.405C147.164 97.7108 147.026 97.7108 146.927 97.7451C146.789 97.7451 146.652 97.7795 146.38 97.7795C146.109 97.7795 145.971 97.7794 145.833 97.7451C145.696 97.7451 145.593 97.7108 145.356 97.7108C145.119 97.7108 144.977 97.7108 144.878 97.7451C144.74 97.7451 144.602 97.7795 144.331 97.7795C144.06 97.7795 143.922 97.7451 143.784 97.7451C143.681 97.7108 143.544 97.7108 143.306 97.7108H142.244C142.003 97.7108 141.865 97.7108 141.766 97.7451C141.628 97.7451 141.491 97.7795 141.219 97.7795C140.948 97.7795 140.81 97.7794 140.672 97.7451C140.535 97.7451 140.432 97.7108 140.195 97.7108C139.373 97.7108 138.895 97.7108 138.142 97.7451C137.354 97.7794 136.567 97.7451 135.813 97.7108C134.888 97.6764 133.929 97.6764 132.939 97.7108C132.185 97.6764 131.639 97.6421 130.851 97.6764C130.098 97.7108 129.586 97.7451 128.764 97.7451C128.454 97.7451 128.32 97.7108 128.183 97.7108C128.08 97.6764 127.942 97.6764 127.739 97.6764H126.711C126.47 97.6764 126.367 97.7108 126.233 97.7108C126.095 97.7451 125.958 97.7451 125.686 97.7451C125.415 97.7451 125.277 97.7451 125.14 97.7108C125.002 97.7108 124.899 97.6764 124.662 97.6764C124.425 97.6764 124.283 97.6764 124.184 97.7108C124.046 97.7108 123.909 97.7451 123.637 97.7451C123.366 97.7451 123.228 97.7451 123.091 97.7108C122.953 97.7108 122.85 97.6764 122.613 97.6764C122.376 97.6764 122.234 97.6764 122.135 97.7108C121.997 97.7108 121.86 97.7451 121.588 97.7451C121.317 97.7451 121.179 97.7108 121.007 97.7108C120.904 97.7108 120.766 97.6764 120.529 97.6764C120.288 97.7108 120.086 97.6764 119.845 97.7108V98.0542H120.051C121.489 98.0199 122.792 97.9855 124.195 98.0542C124.708 98.0542 124.708 97.9855 125.224 97.9855C126.011 98.0199 126.524 98.0199 127.277 98.0199C128.374 97.9855 129.295 97.9855 130.392 98.0542C130.905 98.0542 130.905 98.0199 131.421 98.0199C131.937 98.0199 131.933 98.0542 132.449 98.0542C132.965 98.0542 132.962 98.0199 133.478 98.0199C133.994 98.0199 133.99 98.0542 134.506 98.0542C135.022 98.0542 135.018 98.0886 135.534 98.0886C136.05 98.0886 136.047 98.0199 136.563 98.0199H137.591C139.338 98.0199 141.017 98.0886 142.764 98.0886C143.551 98.0542 144.063 98.0542 144.817 98.1229C145.604 98.0886 146.116 98.0886 146.87 98.0886C147.382 98.0886 147.382 98.0542 147.898 98.0542C148.414 98.0542 148.41 98.1229 148.926 98.1229C150.023 98.0542 150.945 98.0542 152.042 98.1229C153.824 98.1229 155.467 97.9855 157.214 98.0542C157.727 98.0542 157.727 98.0199 158.243 98.0199C158.759 98.0199 158.755 98.1229 159.271 98.1229H160.3C160.812 98.1229 160.812 98.0542 161.328 98.0542C161.844 98.0542 161.84 98.0886 162.356 98.0886C162.872 98.0886 162.869 98.1229 163.385 98.1229C163.794 98.1229 164.138 98.3977 164.138 98.7717C164.344 99.8287 164.31 100.374 164.276 101.195L164.337 101.153Z" fill="#F5B731" fill-opacity="0.8"/>
<path d="M99.4149 117.761C99.3461 117.486 99.3117 117.387 99.2429 117.249C99.2085 117.112 99.1396 116.975 99.0708 116.704C99.002 116.433 98.9676 116.261 98.9676 116.124C98.9676 115.986 98.9332 115.883 98.8644 115.647C98.7956 115.41 98.7612 115.273 98.6923 115.17C98.6923 115.135 98.6579 115.101 98.6579 115.067C97.6296 115.101 96.5706 115.135 95.5422 115.135H93.3861C92.2545 115.135 91.0923 115.101 89.9263 115.135C89.3108 115.101 88.7297 115.135 88.1792 115.135C87.5293 115.135 86.8794 115.17 86.1606 115.135H85.5795C85.614 116.024 85.6828 116.845 85.786 117.734C85.8204 118.009 85.8548 118.28 85.8548 118.589H86.0956C86.6767 118.623 87.2272 118.658 87.7739 118.589C88.0148 118.589 88.118 118.623 88.183 118.623C88.3206 118.658 88.5271 118.658 88.6265 118.623C88.7259 118.589 88.7985 118.589 88.9705 118.589C89.1426 118.589 89.2114 118.589 89.3146 118.623H89.7925C89.8957 118.623 89.9645 118.589 90.1365 118.589C90.3086 118.589 90.4118 118.589 90.4806 118.623C90.5838 118.658 90.7903 118.658 90.9241 118.623C90.9929 118.589 91.0961 118.589 91.3025 118.589H91.8836C92.0557 118.589 92.1589 118.623 92.2621 118.623C92.3309 118.623 92.3653 118.658 92.4685 118.658C92.912 118.658 93.1873 118.623 93.6001 118.589C94.1124 118.589 94.4221 118.589 94.8311 118.623C95.3434 118.589 95.8939 118.589 96.4062 118.623C96.8153 118.658 97.2626 118.658 97.706 118.658C98.1151 118.623 98.4247 118.589 98.9026 118.623C99.0746 118.623 99.1435 118.623 99.2123 118.658H99.5563C99.5219 118.554 99.5219 118.451 99.4875 118.383C99.4875 118.146 99.4875 118.043 99.4187 117.768L99.4149 117.761Z" fill="#F5B731" fill-opacity="0.8"/>
<path d="M106.877 72.7113C106.809 72.3335 106.809 71.6847 106.809 71.4825C106.809 71.2077 106.877 71.0398 106.877 70.9368C106.912 70.765 106.946 70.6964 106.843 70.4598C106.74 70.2193 106.602 70.0171 106.499 69.8797C106.09 69.2653 105.987 68.9562 106.533 67.9297C106.942 67.2466 107.046 66.8688 107.149 65.9796C107.149 65.8422 107.183 65.7049 107.218 65.6018H107.183C106.636 65.6018 106.086 65.6018 105.505 65.5675C104.752 65.6018 104.067 65.6018 103.349 65.5675C102.97 65.5675 102.596 65.5331 102.217 65.5331C101.976 65.5331 101.873 65.5675 101.739 65.6018C101.605 65.6362 101.43 65.6705 101.124 65.6705C100.818 65.6705 100.68 65.6362 100.543 65.6362C100.405 65.6018 100.302 65.6018 100.03 65.6018C99.2085 65.6018 98.6618 65.6018 97.8398 65.6362C96.9491 65.6018 96.4368 65.6018 95.6493 65.6362H93.4243C93.1146 65.6362 92.9464 65.6018 92.8088 65.5675C92.6712 65.5331 92.5679 65.4988 92.3309 65.4988C92.0939 65.4988 91.9868 65.5331 91.853 65.5675C91.7192 65.6018 91.5434 65.6705 91.2031 65.6705C90.8935 65.6705 90.7597 65.6362 90.622 65.6362C90.4844 65.6018 90.3812 65.6018 90.1098 65.6018H90.041C90.1098 65.7735 90.1786 65.9453 90.2474 66.1475C90.6259 67.0023 90.9661 67.8915 90.7941 68.9524C91.1726 69.2615 91.5472 69.5324 91.8225 69.8072C92.4724 70.5246 92.5756 71.1734 92.7132 72.0282C92.7476 72.3716 92.782 72.6769 92.8164 72.986C92.8508 73.5661 92.9197 74.1805 93.0229 74.5926C93.2981 75.3788 93.604 76.6419 93.8448 77.6341L93.9136 77.8745C93.9824 78.3515 94.0857 78.798 94.1889 79.275C94.3953 80.3359 94.6324 81.4273 94.5674 82.4882C94.4297 83.4461 94.1583 84.0261 93.6766 84.3352C93.4358 84.507 93.1643 84.5757 92.8203 84.5757C92.545 84.5757 92.2736 84.5413 91.9639 84.4383C91.3484 84.2322 90.6297 83.9613 89.9454 83.5835C89.7389 83.4461 89.5669 83.3087 89.3987 83.1408L89.3643 83.1064C89.4331 83.2782 89.5019 83.4499 89.5707 83.5835C89.6739 83.8926 89.8116 84.1979 89.9148 84.507V84.5413H89.8804C89.9148 84.6787 89.9836 84.8161 90.018 84.9534C90.0524 85.1252 90.1212 85.2626 90.1901 85.4305C90.5685 85.4305 90.8744 85.4305 91.2184 85.4648L91.9372 85.4992C92.9655 85.4992 93.8907 85.4992 95.1217 85.4648C95.4314 85.4648 95.5652 85.4992 95.7028 85.4992C95.8404 85.5335 95.9436 85.5335 96.1807 85.5335H97.2434C97.4843 85.5335 97.6219 85.4992 97.7213 85.4992C97.8589 85.4648 98.031 85.4648 98.3024 85.4648H99.0899C99.1932 85.4648 99.262 85.4305 99.3652 85.3961C99.4684 85.3961 99.5372 85.4305 99.606 85.4648C100.015 85.4992 100.428 85.6022 100.738 85.7739C101.525 86.3196 102.037 87.2431 102.072 88.1666V89.5672C102.209 89.5672 102.347 89.5328 102.55 89.5328C103.44 89.4985 104.09 89.4985 105.084 89.5328C105.428 89.5328 105.597 89.5328 105.769 89.5672C105.906 89.5672 106.044 89.6015 106.35 89.6015C106.656 89.6015 106.793 89.6015 106.965 89.5672C107.068 89.5672 107.172 89.5328 107.309 89.5328C107.378 88.4719 107.447 87.4492 107.481 86.354V86.0792C107.516 85.2587 107.55 84.6443 107.653 83.7895V83.2782C107.653 83.1751 107.619 83.0377 107.619 82.866C107.21 82.9004 106.763 82.9347 106.453 82.6943C106.281 82.5226 106.143 82.3165 106.143 82.0112C106.143 81.8051 106.143 81.7021 106.109 81.6334C106.109 81.5304 106.075 81.393 106.075 81.1907C106.143 80.2329 107.137 80.3016 107.65 80.3359C107.822 80.3359 107.959 80.3703 108.093 80.3359C108.403 80.3359 108.537 80.3359 108.64 80.3016C108.777 80.3016 108.949 80.2672 109.255 80.2672C109.974 80.2329 110.486 80.2329 111.106 80.2672C110.662 80.0955 110.249 79.8894 109.875 79.6185C109.328 79.1415 108.881 78.592 108.472 77.9776C108.162 77.3975 107.925 76.7488 107.718 75.997C107.581 75.3826 107.478 74.7338 107.443 73.9134V73.7416C107.099 73.4325 107.034 73.299 106.896 72.7151L106.877 72.7113Z" fill="#F5B731" fill-opacity="0.8"/>
</g>
<defs>
<clipPath id="clip0_931_19736">
<rect width="178" height="133" fill="white"/>
</clipPath>
</defs>
</svg>
