<svg width="100" height="133" viewBox="0 0 100 133" fill="none" xmlns="http://www.w3.org/2000/svg">
<path d="M19.0234 9.99399C18.8813 9.63874 18.4589 9.46506 18.0681 9.60322C17.7129 9.74532 17.5392 10.1677 17.6773 10.5584C18.3484 12.1137 19.1615 14.2017 19.8681 16.2504C19.9746 16.5701 20.2588 16.7438 20.5391 16.7438C20.6101 16.7438 20.6812 16.7438 20.7878 16.7082C21.1785 16.5661 21.3522 16.1793 21.2456 15.7885C20.5391 13.6689 19.6904 11.5808 19.0194 9.99005L19.0234 9.99399Z" fill="#454138"/>
<path d="M35.5702 94.1057H42.7107C43.1015 94.1057 43.4173 93.786 43.4173 93.3992C43.4173 93.0124 43.0976 92.6926 42.7107 92.6926H35.5702C35.1794 92.6926 34.8636 93.0124 34.8636 93.3992C34.8636 93.786 35.1834 94.1057 35.5702 94.1057Z" fill="#454138"/>
<path d="M51.6196 82.0469H64.985C65.3757 82.0469 65.6915 81.7272 65.6915 81.3403C65.6915 80.9535 65.3718 80.6338 64.985 80.6338H51.6196C51.2288 80.6338 50.9131 80.9535 50.9131 81.3403C50.9131 81.7272 51.2328 82.0469 51.6196 82.0469Z" fill="#454138"/>
<path d="M60.3549 85.335C60.3549 84.9442 60.0352 84.6284 59.6483 84.6284H35.5702C35.1794 84.6284 34.8636 84.9481 34.8636 85.335C34.8636 85.7218 35.1834 86.0415 35.5702 86.0415H59.6483C60.0391 86.0415 60.3549 85.7218 60.3549 85.335Z" fill="#454138"/>
<path d="M99.3497 106.693C95.7064 106.236 93.9775 106.093 91.9604 105.951C90.5473 105.845 88.9921 105.703 86.4817 105.458C84.7843 105.28 82.416 105 79.7635 104.716C76.1202 104.294 71.9163 103.796 68.4507 103.48C67.4599 103.374 66.5047 103.303 65.656 103.232C65.8336 102.17 65.9757 101.112 66.0784 99.8016C66.3626 96.5846 66.6428 93.8255 67.4915 90.5729C67.8823 88.2401 68.0204 86.6849 68.1625 84.3166C68.2336 83.539 68.3401 83.1837 68.4467 82.7614C68.5178 82.4061 68.6243 81.9837 68.7309 81.2417C68.8375 80.4641 68.9085 80.0733 68.9796 79.722C69.0506 79.3312 69.1217 78.9444 69.2283 78.1312V77.9536C69.1572 77.2826 68.9085 76.8208 68.5217 76.505C67.4954 75.6208 65.5534 75.7274 63.9942 75.8339C63.2877 75.8695 62.5811 75.9405 62.0127 75.905C58.9023 75.8339 56.7431 75.7984 53.4196 75.7984C49.7092 75.5853 46.4882 75.5497 43.0975 75.6208C43.062 75.23 43.0265 74.9853 42.9554 74.7366C42.9199 74.4879 42.8489 74.2432 42.8133 73.888C43.7686 72.5459 45.1817 71.7683 46.9856 71.413C48.7895 71.0578 50.9802 71.1288 53.4551 71.3775C54.1972 71.4486 55.0103 71.5196 55.7879 71.5907C59.3602 71.9104 63.4258 72.2972 66.9231 71.2354C70.2467 70.1736 70.8466 68.796 70.7756 67.8408C70.7045 66.6369 69.6072 65.5435 67.2033 64.3041C65.7547 63.4554 64.1995 62.8909 62.5022 62.6423C61.3338 62.4646 60.0983 62.4291 58.7918 62.5712C54.7261 62.7844 50.6605 64.3396 47.3014 66.8145C45.8882 67.8408 44.6133 69.0052 43.4844 70.3157C44.1909 68.6894 45.0396 67.0987 45.9948 65.6145C48.8605 62.2554 52.1486 59.5674 55.7879 57.6964C59.6404 55.928 63.8837 54.8307 67.9849 53.7373L68.3757 53.6307L69.5441 53.4886C72.2321 53.1689 74.9873 52.8176 77.3596 52.0045C79.87 51.4045 83.4778 50.3071 85.7396 47.9388C86.8724 46.5967 87.0816 44.9705 87.1172 43.5889C87.1882 42.385 86.904 41.3627 86.233 40.5496C86.1975 40.514 86.1975 40.4785 86.1619 40.4785C85.1356 39.3101 83.4028 38.6391 80.9279 38.497C76.8978 38.2483 72.4058 39.2036 68.5178 40.1233C68.4822 40.1233 68.4467 40.1588 68.4112 40.1588C63.4258 42.2429 59.6088 44.5442 56.8142 47.0901C52.3578 50.2361 48.6474 54.7636 45.7106 60.42C44.4751 62.5041 43.591 64.4501 43.0581 66.3606C42.8449 67.0671 42.7028 67.7737 42.6002 68.4802C42.5291 67.3119 42.4581 66.0764 42.4226 64.8725C42.387 63.7751 42.3515 62.6462 42.2805 61.5489C42.5291 60.6292 42.7739 59.7095 43.0225 58.7898C43.2357 57.9056 43.4804 57.0214 43.7291 56.1372C44.6488 52.8847 45.7461 49.6677 47.7948 46.9441C47.8303 46.9086 47.8303 46.873 47.8658 46.8375C48.6789 45.2823 49.6697 43.8337 50.696 42.4166C51.4736 41.3548 52.2867 40.3325 53.0643 39.3062C55.3261 36.4089 57.6234 33.4366 59.147 29.971C59.8891 28.4158 60.7022 26.825 61.4798 25.2698C61.8706 24.5277 62.2574 23.7501 62.6482 22.937C62.9679 21.9462 63.0706 20.9555 63.1772 20.1068C63.2127 19.7516 63.2482 19.4003 63.3193 19.0095C63.7771 15.1925 62.8614 12.3979 60.6312 10.7005C59.7115 9.99398 58.5786 9.46505 57.201 9.14533C53.2419 8.4743 49.2829 10.594 46.0659 15.157C44.6528 17.2095 43.5554 19.716 42.7423 22.5107C41.0095 26.6474 40.0897 30.1131 39.774 33.3656C39.7384 33.6143 39.7384 33.859 39.7029 34.1077C39.5963 34.9919 39.4898 35.9116 39.3477 36.7957C39.2411 37.4312 39.17 38.1023 39.099 38.7417C38.3569 34.7826 37.2596 30.8591 36.2333 27.0737C35.9136 25.9053 35.5978 24.7764 35.2781 23.608C35.2781 23.5725 35.2425 23.537 35.2425 23.5014C34.7491 22.4041 34.2518 21.3107 33.7584 20.2134C31.6032 15.3346 29.3375 10.2427 25.7336 6.0349C23.1521 3.1021 20.7127 1.22716 18.522 0.449557C17.2865 0.0272026 16.1537 -0.0793729 15.0919 0.165356C12.5104 0.765337 10.6354 3.34683 9.471 7.83879C8.51577 11.9044 9.15128 16.2188 9.92888 20.6042C10.5289 25.4119 12.3683 29.9039 13.7459 32.7301C16.0787 39.8706 20.8864 45.6691 25.5205 51.29C25.8402 51.6808 26.1205 52.0321 26.4402 52.4229C26.227 52.4939 26.0178 52.6005 25.8047 52.7071C25.3823 52.9557 25.0271 53.2005 24.6718 53.4847H24.6363C24.1429 53.907 23.7166 54.3689 23.3653 54.8978C21.1746 52.7426 18.5931 50.4414 15.6563 48.6414C15.6208 48.6059 15.5853 48.6059 15.5498 48.5704C13.288 47.1928 10.8486 46.131 8.19605 45.6731C4.65932 45.0731 1.51337 46.1665 0.416035 48.4322C-0.539197 50.3782 0.167359 52.6755 2.36202 54.6886C4.80142 57.199 8.30262 58.7898 10.7775 59.6739C14.6656 61.5134 19.3352 62.7844 23.4363 63.9172L23.7916 64.0238H23.8271C23.8982 64.1304 23.9337 64.237 24.0047 64.308C21.6364 64.0238 19.0194 63.9883 16.4024 64.5567C10.9236 64.8409 6.0448 67.4224 3.95671 71.1328C3.95671 71.1683 3.92118 71.2038 3.92118 71.2394C3.28568 72.9367 3.35673 74.1722 4.20539 74.8827C5.30272 75.8024 7.45791 75.4471 9.43943 74.7406C11.8078 73.9274 13.9985 72.688 13.9985 72.688C15.5892 72.017 16.8287 71.1683 18.0641 70.3552C19.2681 69.5776 20.3614 68.8355 21.7746 68.2C22.0943 68.0579 22.4456 67.9513 22.8008 67.8092C22.9074 67.8447 22.9785 67.8803 23.085 67.8803C23.3337 67.8803 23.5429 67.9158 23.7561 67.9158C25.0981 68.0224 26.1244 68.4092 27.3638 68.9421C27.577 69.0486 27.8217 69.1197 28.0704 69.2263C28.6704 70.3947 30.7585 71.7367 33.6557 73.5051C34.682 74.1406 35.6728 74.7406 36.1307 75.0958C36.553 75.4155 36.8727 75.6247 37.1214 75.7668C34.2241 75.8024 31.394 75.7313 28.5993 75.6603C25.4179 75.5892 22.1298 75.5182 18.7707 75.5892C17.6734 75.6958 16.8958 76.0116 16.4734 76.651C15.8024 77.5707 16.0826 78.7707 16.3313 79.8325C16.4379 80.2904 16.5445 80.7522 16.5445 81.139C16.7221 82.3429 16.8287 83.3653 16.9668 84.3916C17.0734 85.3113 17.18 86.2665 17.3576 87.3599C17.4642 88.173 17.5707 88.5954 17.6418 89.0217C17.7128 89.3769 17.8194 89.7638 17.926 90.4703C18.0326 91.1769 17.997 91.5321 17.997 91.919C17.9615 92.3413 17.9615 92.7676 18.0681 93.6163C18.4233 95.9491 18.6325 97.5043 18.9523 99.8726C19.201 101.215 19.3746 102.49 19.5523 103.725C19.8009 105.458 20.0457 107.226 20.5075 109.133C20.5075 111.217 20.6141 113.021 21.5338 114.718C21.4627 114.789 21.3917 114.825 21.2851 114.896L21.143 114.967C20.7206 115.216 20.6496 115.358 20.472 115.887L20.4364 115.993C20.4009 116.064 19.7654 117.975 20.4364 118.926C20.9654 119.704 21.9206 119.597 22.489 119.561C22.9469 119.526 23.2311 119.526 23.6219 119.561C24.6126 119.597 25.706 119.597 26.7678 119.348C27.3678 119.633 27.9717 119.913 28.6072 120.126C28.6427 120.339 28.6783 120.584 28.6783 120.975C28.6783 121.894 28.8914 122.565 29.1717 123.272C29.2072 123.343 29.2072 123.378 29.2072 123.414C29.3493 123.907 29.7006 124.014 29.9493 124.085C30.2335 124.192 30.5493 124.156 30.7979 124.156H32.5308C33.3439 124.156 34.1215 123.801 34.8991 123.45C36.632 122.672 37.2675 122.53 37.903 123.84C38.0451 124.124 38.1161 124.44 38.2227 124.76C38.4359 125.431 38.6451 126.138 39.1779 126.67C40.1687 127.697 41.3687 127.519 42.3239 127.377C43.2436 127.235 43.7725 127.164 44.2699 127.661C44.4475 127.803 44.5896 127.981 44.7633 128.155C45.2922 128.684 45.8606 129.287 46.6737 129.497C47.7711 129.781 48.8289 129.177 49.3973 128.861C50.8105 128.084 52.2275 127.199 53.6051 126.315C58.4839 123.24 63.0469 120.339 68.3836 121.685C73.8268 123.027 78.1411 124.582 82.7397 126.848C87.5829 129.216 96.9537 132.153 97.3405 132.256C97.4116 132.291 97.4826 132.291 97.5537 132.291C97.8734 132.291 98.1536 132.078 98.2602 131.798C98.3668 131.407 98.1536 131.02 97.8023 130.878C97.8023 130.878 97.7313 130.843 97.6247 130.843C96.3892 130.452 87.7961 127.732 83.3752 125.538C78.7451 123.24 74.2176 121.614 68.7388 120.268C62.8337 118.784 57.7773 122.001 52.863 125.076C51.521 125.924 50.1394 126.809 48.7263 127.586C48.1974 127.906 47.5579 128.222 47.0645 128.08C46.6737 127.973 46.2514 127.586 45.8606 127.16C45.683 126.982 45.5054 126.769 45.3317 126.631C44.2699 125.64 43.1054 125.818 42.1857 125.96C41.266 126.102 40.7726 126.173 40.3108 125.676C40.0266 125.392 39.8529 124.863 39.7108 124.334C39.6042 123.978 39.4621 123.592 39.2885 123.201C37.9819 120.513 35.8228 121.468 34.3741 122.103C33.7386 122.388 33.1031 122.668 32.5703 122.668H31.015C30.9085 122.668 30.8019 122.668 30.6953 122.703H30.5532C30.3045 122.139 30.1624 121.642 30.1624 120.971V120.58C30.1624 120.122 30.0914 119.696 29.8782 119.202C29.8427 119.131 29.8072 119.06 29.7717 118.954C29.523 118.496 28.923 117.647 28.1454 117.54C27.652 117.434 27.2967 117.612 27.1191 117.718C27.0836 117.754 27.0481 117.754 27.0125 117.789C26.3415 118.038 25.5639 118.109 24.7863 118.109H23.76C23.3377 118.109 22.9824 118.073 22.4535 118.144C22.2403 118.18 21.818 118.215 21.7469 118.144C21.6403 117.967 21.6759 117.118 21.889 116.483L21.9245 116.376C21.9245 116.341 21.9601 116.269 21.9601 116.234L22.1022 116.127C22.2087 116.056 22.2798 115.985 22.3864 115.914C22.4219 115.879 22.4929 115.843 22.5285 115.808C22.635 115.737 22.7061 115.666 22.8482 115.594C23.0969 115.417 23.3771 115.275 23.6258 115.137C24.2968 114.781 24.9679 114.43 25.71 114.146C26.5941 113.791 27.4783 113.51 28.398 113.191C29.6335 112.768 30.9085 112.342 32.144 111.813L33.3479 111.284C35.0096 110.542 36.7425 109.764 38.4753 109.129C39.7108 108.707 40.9502 108.316 42.2213 108.103C42.7502 108.032 43.141 107.854 43.4252 107.68C44.1672 107.151 44.1672 106.374 44.1672 106.09C43.9541 104.037 36.2846 102.344 35.6807 102.344C35.3965 102.344 35.1162 102.344 34.832 102.379C34.232 102.415 33.5965 102.415 33.0281 102.344C32.6729 102.273 31.4019 101.673 30.9756 101.073C30.94 101.002 30.869 100.931 30.869 100.859C31.0111 100.682 31.7177 100.504 32.0019 100.402C32.144 100.366 32.2505 100.331 32.3571 100.295C32.7479 100.153 33.1347 100.082 33.561 100.011C34.5162 99.8332 35.5425 99.7621 36.6004 99.6911C37.7688 99.62 39.0043 99.549 40.1726 99.3003L41.1989 99.0516C43.5673 98.5227 46.0067 97.9543 48.4461 98.0253C49.5789 98.0609 50.2144 98.3095 51.0631 98.6608C51.4854 98.8385 51.9828 99.0516 52.6183 99.2608C53.3248 99.5095 53.9603 99.7542 54.5287 100.038C55.2708 100.394 55.8708 100.781 56.4392 101.171C56.7589 101.42 57.0747 101.629 57.3944 101.878C59.0562 103.113 60.647 104.282 63.9705 104.495C64.3929 104.53 64.8903 104.566 65.4192 104.601C66.2678 104.672 67.1875 104.744 68.2138 104.85C71.6795 105.205 75.9583 105.663 79.6332 106.086C82.2857 106.405 84.6541 106.65 86.3514 106.828C88.8618 107.076 90.4526 107.218 91.8657 107.321C93.9498 107.499 95.5761 107.605 99.1839 108.063H99.2194C99.6102 108.099 99.926 107.814 99.997 107.428C100.033 107.108 99.7483 106.757 99.3615 106.686L99.3497 106.693ZM38.2898 73.4577C38.1832 73.1025 38.1122 72.7867 38.0767 72.4669C38.3253 72.538 38.5701 72.609 38.8187 72.6446C38.8898 72.6446 38.9253 72.6801 38.9964 72.6801H39.0674C39.6674 73.2446 40.1647 73.884 40.5871 74.5195C40.5161 74.7327 40.4805 74.9774 40.4095 75.1906C40.3739 75.3682 40.3384 75.5458 40.2674 75.7195C39.9121 75.7195 39.5608 75.755 39.2056 75.755C38.9924 75.3642 38.8503 75.155 38.6056 74.9774C38.5701 74.6932 38.499 74.484 38.4635 74.2708C38.3924 73.9511 38.3214 73.7064 38.2859 73.4577H38.2898ZM38.3964 70.2407C38.2898 69.2855 38.2543 68.2592 38.2543 67.2013C38.7477 68.5434 39.2806 69.9604 39.774 71.338C39.3516 70.9828 38.8898 70.596 38.3964 70.2407ZM46.8829 69.0368C48.5092 67.6592 50.3131 66.5264 52.2551 65.6777C54.4103 64.7225 56.7116 64.1225 59.0089 64.0159C61.839 63.7317 64.3811 64.2646 66.5757 65.5711C69.0862 66.8777 69.4059 67.6553 69.4059 67.9395C69.4414 68.4329 68.5928 69.246 66.5757 69.8855C63.3587 70.8762 59.6088 70.521 56.005 70.1697C55.1919 70.0986 54.4143 70.0276 53.6722 69.9565C52.4012 69.8144 51.1262 69.7434 49.9263 69.7434C48.3355 69.7434 46.8514 69.8855 45.5054 70.3078C45.9632 69.8499 46.3895 69.4236 46.8829 69.0368ZM84.7843 46.9046C83.2647 48.4598 80.8608 49.6282 77.0754 50.5479C74.7781 51.3255 72.0545 51.6808 69.473 51.9966L68.2375 52.1742L67.7441 52.3163C63.5719 53.4136 59.2931 54.5425 55.2629 56.3819C51.6907 58.2569 48.4026 60.8029 45.5054 64.0909C45.9277 63.1357 46.4606 62.1094 47.0606 61.0871C49.8907 55.5728 53.4946 51.2584 57.8089 48.1835C60.5325 45.7086 64.2074 43.5179 69.0151 41.5009C72.7966 40.6167 77.1109 39.697 80.9674 39.9456C83.0199 40.0877 84.4686 40.5811 85.2106 41.4298C85.6685 41.9587 85.8817 42.6337 85.8106 43.5139C85.7751 44.6823 85.5975 45.9533 84.7843 46.9086V46.9046ZM40.9068 37.0049C41.0489 36.0852 41.1555 35.1655 41.2621 34.2458C41.4752 30.9223 42.4305 27.35 44.2304 23.0041C45.008 20.2805 46.0698 17.9121 47.3764 15.9701C49.3934 13.0728 52.717 9.78478 57.0274 10.5269C57.2405 10.5624 57.3826 10.6334 57.5918 10.7045C61.0575 11.7308 62.5061 14.3478 61.9772 18.8003C61.9061 19.1555 61.8706 19.5424 61.8351 19.9331C61.764 20.7818 61.6575 21.6304 61.4127 22.3725C61.0575 23.1146 60.6707 23.8567 60.2799 24.5988C59.5023 26.154 58.6536 27.7802 57.9115 29.371C56.4629 32.6946 54.3038 35.4537 52.0065 38.3865C51.5131 39.022 51.0157 39.6575 50.4868 40.3325C49.1092 42.1364 47.7632 44.0113 46.6698 46.0599C45.1501 48.077 44.1594 50.3387 43.3462 52.636C42.7818 54.2623 42.3199 55.8885 41.8976 57.5148C41.5779 55.4622 41.3331 53.0584 41.2621 50.4098V50.2677C40.9424 48.8901 40.6621 47.5441 40.4134 46.1665C40.4845 46.0244 40.52 45.8823 40.4845 45.7086C40.0621 43.1626 40.3424 40.439 40.7331 37.7904C40.8397 37.5418 40.8752 37.297 40.9108 37.0128L40.9068 37.0049ZM26.7283 50.3348C26.3731 49.8769 25.9863 49.4506 25.631 48.9927C25.3823 48.673 25.1376 48.3927 24.8889 48.073C24.1113 47.1178 23.3692 46.1981 22.6627 45.2428C22.5916 45.1363 22.4851 45.0297 22.414 44.9231C19.4102 40.9996 16.7931 36.9339 15.2024 32.1577C13.8248 29.3631 12.092 25.0172 11.492 20.3476C10.7144 16.1043 10.1144 11.9676 10.9986 8.18615C12.0249 4.26259 13.5446 2.06793 15.5576 1.57452C16.0155 1.46795 16.4774 1.46795 17.0063 1.50347H17.0418C17.0773 1.50347 17.1129 1.50347 17.1484 1.539C19.3036 1.89425 21.9561 3.76524 24.7863 6.98224C28.252 11.0124 30.4427 15.9977 32.5663 20.7699C33.0597 21.8673 33.5215 22.9607 34.0149 24.0225C34.3347 25.1553 34.6505 26.2842 34.9702 27.4526C36.3478 32.4735 37.8003 37.6365 38.4359 42.9021C38.8582 45.4126 39.3556 47.9585 39.9555 50.54C40.0621 53.5084 40.3108 56.1254 40.6976 58.3556C40.8397 59.3108 40.9463 60.3016 41.0173 61.3594C40.9818 61.5015 40.9818 61.6436 41.0529 61.7818C41.1239 62.8081 41.1594 63.8343 41.195 64.8567C41.2305 66.3053 41.3015 67.825 41.4081 69.2065C41.4436 69.9486 41.4436 70.6552 41.4436 71.3262V71.5038C40.7016 69.4513 39.924 67.4026 39.1819 65.4567L38.4043 63.4396C38.4398 61.6712 38.4398 59.9029 38.1201 58.2766C37.8359 56.2596 36.5649 54.4241 34.5478 53.2202C34.5123 53.2202 34.4768 53.1847 34.4768 53.1847C33.3794 49.4743 31.9308 45.4402 30.5177 41.5522C29.5269 38.8286 28.5007 36.0023 27.5849 33.2432C25.781 29.4262 24.1192 25.183 23.0258 21.5397C22.9193 21.1489 22.4969 20.9397 22.1061 21.0463C21.7153 21.1528 21.5061 21.5752 21.6127 21.966C22.7456 25.6448 24.4429 29.9907 26.2073 33.7761C27.0915 36.4642 28.1178 39.2904 29.1046 42.0495C30.3401 45.4797 31.615 49.0164 32.6413 52.3716C31.4374 51.9492 30.1664 51.7716 28.9309 51.8781C28.6112 51.9137 28.3309 51.9492 28.0112 51.9847C27.6204 51.4203 27.1625 50.8874 26.7402 50.3229L26.7283 50.3348ZM11.4209 58.2885C8.06184 57.0846 5.23562 55.4228 3.46725 53.6228C1.76994 52.0321 1.16996 50.3703 1.80546 49.0282C2.58307 47.473 4.84484 46.6954 7.46186 46.9757C7.63948 47.0112 7.85264 47.0112 8.02631 47.0467C8.73287 47.1888 9.4039 47.3309 10.0789 47.5401C15.1353 49.0953 19.4141 52.8807 22.7377 56.2004C22.5601 56.6938 22.418 57.2267 22.3469 57.7911C22.1693 59.2398 22.3824 60.7594 22.9824 62.2475C22.7693 62.1765 22.5245 62.1054 22.3114 62.0699C21.9206 61.9633 21.4982 61.8568 21.1075 61.7147C17.8194 60.7594 14.3893 59.6976 11.4209 58.2845V58.2885ZM25.1731 63.3094C25.1376 63.2738 25.1376 63.2383 25.1021 63.2028C24.0758 61.541 23.5469 59.7016 23.7955 58.0043C23.9732 56.5556 24.7152 55.3162 25.8481 54.432H25.8836C26.0968 54.2544 26.3415 54.1123 26.5902 53.9741C27.5099 53.5163 28.6072 53.2676 29.7006 53.3031C30.9361 53.3031 32.2111 53.6228 33.3439 54.2228C35.2189 55.2136 36.4188 56.7688 36.6675 58.5371C37.0227 60.5187 36.9517 62.7094 36.8806 64.8646C36.8096 66.2422 36.7741 67.6947 36.8451 69.0723C35.0412 67.7658 33.0992 66.8461 31.4729 66.175C30.944 65.9264 30.3756 65.7527 29.8111 65.6461C28.7849 65.3264 27.6204 65.0106 26.381 64.7619C26.3455 64.7619 26.2744 64.7619 26.2389 64.7264C25.8165 64.233 25.4968 63.7712 25.1771 63.3133L25.1731 63.3094ZM21.2496 66.8816C19.7299 67.5526 18.4904 68.3658 17.2905 69.1434C16.0866 69.9565 14.9221 70.6986 13.4025 71.3696C11.563 72.4669 8.84339 73.5959 7.00398 73.9156C6.19085 74.0577 5.51982 74.0222 5.20009 73.738C4.88036 73.4893 4.91589 72.7472 5.30667 71.7564C6.15532 70.2368 7.56843 68.9618 9.30127 67.975C11.3538 66.8066 13.8959 66.0645 16.5839 65.958H16.6905C19.4141 65.3935 22.0982 65.4646 24.5376 65.8159C23.2666 66.1001 22.1338 66.5224 21.2496 66.8777V66.8816ZM27.8612 67.5171C27.3678 67.304 26.8704 67.0948 26.3415 66.9171C27.3678 66.775 28.4257 66.7395 29.4519 66.9527C29.7717 67.0592 30.0874 67.1658 30.3716 67.2724C30.4782 67.3079 30.5848 67.3079 30.6558 67.3079C30.7269 67.3434 30.7979 67.379 30.9045 67.4145C32.6018 68.121 34.686 69.1118 36.4899 70.5249C34.5439 69.9605 32.6018 69.321 30.4427 68.5079C30.2295 68.4368 30.0519 68.3658 29.8427 68.2947C29.2072 68.0816 28.6072 67.8368 28.0388 67.5882C27.9678 67.5882 27.8967 67.5526 27.8612 67.5171ZM34.5084 72.2893C33.6952 71.7959 32.6689 71.1565 31.7848 70.5565C32.8821 70.9473 33.9399 71.2986 35.0018 71.6183C35.5307 71.7959 36.0636 71.938 36.5925 72.0762C36.628 72.3604 36.6635 72.6406 36.6991 72.8893C36.7701 73.209 36.8056 73.4893 36.9122 73.7735C36.3122 73.3827 35.4636 72.8538 34.5084 72.2893ZM19.5523 93.4663C19.4457 92.7597 19.4812 92.44 19.4812 92.0532C19.5167 91.6624 19.5167 91.2045 19.4102 90.3203C19.4102 90.2137 19.3746 90.1782 19.3746 90.0716H49.8157C50.2065 90.0716 50.5223 89.7519 50.5223 89.3651C50.5223 88.9783 50.2026 88.6585 49.8157 88.6585H19.0944C19.0233 88.3033 18.9523 87.952 18.8457 87.2454C18.7747 86.8231 18.7391 86.4678 18.7036 86.077H28.4257C28.8164 86.077 29.1322 85.7573 29.1322 85.3705C29.1322 84.9837 28.8125 84.6639 28.4257 84.6639H18.6681C18.6325 84.6639 18.597 84.6639 18.5615 84.6994C18.5615 84.5574 18.526 84.4508 18.526 84.3087C18.4194 83.6021 18.3483 82.86 18.2418 82.118H48.9671C49.3579 82.118 49.6736 81.7982 49.6736 81.4114C49.6736 81.0246 49.3539 80.7048 48.9671 80.7048H18.0326C17.997 80.3496 17.926 79.9983 17.8194 79.643C17.6418 78.901 17.4286 78.0168 17.7128 77.626C17.926 77.3063 18.526 77.2036 18.9167 77.1681H20.7206C23.4087 77.1681 26.0613 77.2036 28.6388 77.2392C32.4913 77.3457 36.4543 77.4168 40.52 77.2392H40.591C40.6621 77.2747 40.7687 77.3457 40.8397 77.3457H40.9818C41.1595 77.3457 41.3015 77.2747 41.4397 77.1681H41.8621C41.9686 77.2747 42.1463 77.3102 42.2844 77.3102C42.3555 77.3102 42.4265 77.3102 42.4976 77.2747H42.5331C42.6752 77.2747 42.7818 77.2036 42.8528 77.1326C46.3185 77.026 49.571 77.0615 53.4235 77.2747C56.7471 77.2747 58.9378 77.3102 62.0167 77.3813C62.6522 77.4168 63.3943 77.3813 64.1363 77.3102C66.5047 77.1681 67.6731 77.2392 67.8152 78.0523C67.7086 78.7233 67.6375 79.0786 67.5665 79.4654C67.4954 79.8522 67.4244 80.2785 67.2823 81.0917C67.1757 81.7627 67.1047 82.1535 66.9981 82.4693C66.8915 82.8916 66.7849 83.3179 66.6784 84.2376C66.5362 86.606 66.4297 88.1257 66.0428 90.3203C65.1587 93.6439 64.8745 96.4741 64.5942 99.7266C64.4521 101.069 64.3455 102.13 64.1719 103.192H64.0298C61.097 103.015 59.822 102.059 58.1957 100.859C56.9247 99.9042 55.4721 98.8424 52.9972 98.0293C52.4328 97.8517 52.0065 97.674 51.5841 97.5003C50.6999 97.1096 49.8513 96.7583 48.4382 96.7583C45.8567 96.6872 43.3107 97.2517 40.8358 97.8201L39.8095 98.0332C38.7477 98.2464 37.6543 98.3174 36.4859 98.3885C34.9307 98.4595 33.34 98.5661 31.8913 99.0595C31.8203 99.095 31.7137 99.1306 31.5716 99.1306C30.9361 99.3082 30.0164 99.5529 29.6256 100.192C29.3414 100.65 29.3059 101.148 29.519 101.641C30.048 102.876 32.1716 103.761 32.736 103.867C33.4071 103.974 34.1492 103.974 34.8202 103.938C35.1044 103.938 35.3491 103.903 35.6333 103.903C36.6241 103.903 42.0318 105.6 42.6673 106.413C42.6673 106.52 42.5607 106.697 41.9252 106.768C41.7476 106.804 41.6055 106.84 41.4318 106.875C41.2897 106.697 41.0766 106.591 40.8318 106.626C37.1885 106.946 34.7491 106.733 31.1098 106.307C29.8032 106.307 29.1638 106.378 28.5283 106.484C27.9283 106.555 27.3599 106.626 26.1955 106.626C25.2758 106.626 24.7468 106.484 24.2495 106.342C24.1429 106.307 24.0363 106.271 23.9297 106.236C23.3298 106.022 22.6232 105.778 21.3127 105.778C21.2062 105.071 21.0996 104.329 20.993 103.623C20.9219 103.165 20.8509 102.667 20.7798 102.174C21.9127 102.032 22.7258 102.103 23.5745 102.174H23.6455C24.1745 102.209 24.7074 102.28 25.3429 102.28C25.7336 102.28 26.1915 102.245 26.6849 102.209C27.0757 102.174 27.356 101.819 27.3204 101.432C27.2849 101.045 26.9296 100.761 26.5428 100.796C25.3389 100.903 24.5258 100.832 23.6771 100.761C23.5705 100.761 23.464 100.761 23.3574 100.725C22.5798 100.654 21.6956 100.619 20.5272 100.761C20.4562 100.441 20.4206 100.125 20.3496 99.77C20.1009 97.3661 19.8917 95.8109 19.5365 93.4781L19.5523 93.4663ZM32.7045 109.978L31.5006 110.507C30.3677 111.035 29.0967 111.426 27.8928 111.849C26.9731 112.168 26.0534 112.449 25.1337 112.804C24.3205 113.124 23.5074 113.51 22.7653 113.937C22.0588 112.524 21.9522 110.968 21.9522 109.058C21.9522 108.987 21.9522 108.951 21.9167 108.88C21.7746 108.28 21.668 107.712 21.5614 107.147C22.4456 107.183 22.9035 107.325 23.4363 107.503C23.7561 107.609 24.1074 107.716 24.5337 107.822C24.96 107.929 25.4889 107.964 26.1599 107.964C27.4309 107.964 28.0704 107.893 28.6704 107.787C29.2704 107.716 29.8743 107.645 30.9677 107.645C33.0202 107.893 34.7847 108.067 36.6241 108.103C36.5885 108.138 36.5885 108.209 36.5885 108.245C35.3175 108.809 34.007 109.378 32.7005 109.978H32.7045Z" fill="#454138"/>
</svg>
