<svg width="99" height="131" viewBox="0 0 99 131" fill="none" xmlns="http://www.w3.org/2000/svg">
<path d="M27.781 107.822C27.1455 107.893 26.51 108 25.2705 108C24.5995 108 24.0666 107.929 23.6443 107.858C23.7153 108.249 23.7864 108.671 23.8929 109.062C23.8929 110.439 23.9285 111.679 24.2127 112.808C25.1324 112.453 26.0521 112.137 26.9718 111.853C28.1757 111.462 29.4112 111.039 30.5796 110.51L31.7835 109.982C33.09 109.382 34.4005 108.813 35.7425 108.284C35.7425 108.249 35.7781 108.178 35.7781 108.142C33.9387 108.107 32.2058 107.929 30.1217 107.684C28.9533 107.684 28.3888 107.755 27.7889 107.826L27.781 107.822Z" fill="#DCEADE"/>
<path d="M65.7534 84.206C65.86 83.2863 65.9665 82.864 66.0731 82.4377C66.1442 82.0824 66.2507 81.7311 66.3573 81.0601C66.4639 80.247 66.5349 79.8562 66.6415 79.4338C66.7126 79.0786 66.7836 78.7273 66.8902 78.0207C66.7481 77.2076 65.5836 77.1365 63.2114 77.2786C62.4338 77.3142 61.7272 77.3852 61.0917 77.3497C58.0168 77.2786 55.8221 77.2431 52.4985 77.2431C48.6816 77.03 45.3935 76.9944 41.9278 77.101C41.8213 77.1721 41.7147 77.2076 41.6081 77.2431H41.5726C41.5015 77.2786 41.4305 77.2786 41.3594 77.2786C41.2173 77.2786 41.0397 77.2431 40.9371 77.1365H40.5147C40.3726 77.2431 40.2305 77.3142 40.0568 77.3142H39.9147C39.8082 77.2786 39.7371 77.2431 39.6661 77.2076H39.595C35.5649 77.3852 31.5703 77.2786 27.7138 77.2076C25.1323 77.1365 22.4798 77.101 19.7957 77.1365C19.1246 78.0207 19.7601 79.5049 19.9378 80.6733H48.0105C48.4013 80.6733 48.7171 80.993 48.7171 81.3798C48.7171 81.7666 48.3974 82.0864 48.0105 82.0864H20.1075C20.2141 83.0061 20.3206 83.8192 20.4272 84.6679H27.4967C27.8875 84.6679 28.2033 84.9876 28.2033 85.3744C28.2033 85.7613 27.8836 86.081 27.4967 86.081H20.6009C20.6364 86.4718 20.7075 86.8941 20.7785 87.3165C20.8496 87.952 20.9562 88.3072 21.0272 88.623H48.9223C49.3131 88.623 49.6289 88.9427 49.6289 89.3296C49.6289 89.7164 49.3092 90.0361 48.9223 90.0361H21.3114C21.3114 90.1427 21.3469 90.2493 21.3469 90.3914C21.5601 91.9466 21.2759 91.9821 21.489 93.5373C21.8443 95.8701 22.0535 97.4609 22.3732 99.7582C22.4443 100.042 22.4798 100.323 22.5153 100.607C22.6219 100.607 22.7285 100.607 22.835 100.642C23.6837 100.713 24.4968 100.784 25.7007 100.678C26.0915 100.642 26.4428 100.927 26.4783 101.313C26.5139 101.704 26.2297 102.055 25.8428 102.091C25.3494 102.127 24.8876 102.162 24.5008 102.162C23.8653 102.162 23.2969 102.127 22.8035 102.055C23.0166 103.469 23.1942 104.85 23.439 106.228C23.9324 106.405 24.4297 106.512 25.385 106.512C26.5533 106.512 27.1178 106.441 27.7178 106.37C28.3533 106.299 28.9888 106.192 30.2993 106.192C33.9426 106.615 36.382 106.828 40.0213 106.512C40.27 106.476 40.4792 106.583 40.6213 106.761C40.7989 106.725 40.941 106.69 41.1147 106.654C41.7502 106.547 41.8213 106.405 41.8568 106.299C41.2213 105.45 35.8096 103.788 34.8228 103.788C34.5741 103.788 34.2939 103.788 34.0097 103.824C33.3031 103.859 32.5966 103.859 31.9255 103.753C31.3256 103.646 29.2375 102.798 28.7085 101.527C28.4954 101.033 28.5309 100.5 28.8151 100.078C29.2375 99.4424 30.1216 99.1937 30.7611 99.0161C30.8677 98.9806 30.9742 98.945 31.0808 98.945C32.5295 98.4516 34.1557 98.3806 35.6754 98.274C36.8438 98.203 37.9727 98.1319 38.999 97.9188L40.0253 97.7056C42.5002 97.1411 45.0462 96.5727 47.6277 96.6438C49.0408 96.6793 49.8894 97.0346 50.7736 97.3859C51.196 97.5635 51.6578 97.7411 52.1867 97.9148C54.6616 98.7279 56.1103 99.7897 57.3852 100.745C59.0115 101.949 60.2825 102.9 63.2193 103.078H63.3614C63.539 102.016 63.6811 100.958 63.7837 99.6121C64.1034 96.3596 64.3482 93.5294 65.2323 90.2058C65.481 88.0862 65.6231 86.527 65.7613 84.1942L65.7534 84.206ZM41.7107 94.1057H34.5702C34.1794 94.1057 33.8636 93.786 33.8636 93.3992C33.8636 93.0123 34.1834 92.6926 34.5702 92.6926H41.7107C42.1015 92.6926 42.4173 93.0123 42.4173 93.3992C42.4173 93.786 42.0976 94.1057 41.7107 94.1057ZM58.6444 86.0455H34.5662C34.1755 86.0455 33.8597 85.7257 33.8597 85.3389C33.8597 84.9521 34.1794 84.6323 34.5662 84.6323H58.6444C59.0352 84.6323 59.351 84.9521 59.351 85.3389C59.351 85.7257 59.0312 86.0455 58.6444 86.0455ZM63.985 82.0508H50.6197C50.2289 82.0508 49.9131 81.7311 49.9131 81.3443C49.9131 80.9575 50.2328 80.6377 50.6197 80.6377H63.985C64.3758 80.6377 64.6916 80.9575 64.6916 81.3443C64.6916 81.7311 64.4074 82.0508 63.985 82.0508Z" fill="#DCEADE"/>
<path d="M67.5928 76.4971C67.9836 76.8168 68.2283 77.2747 68.2994 77.9457V78.1233C68.1928 78.9009 68.1217 79.2917 68.0507 79.7141C67.9796 80.1049 67.9086 80.4917 67.802 81.2338C67.6954 81.9758 67.5889 82.4021 67.5178 82.7534C67.4112 83.1758 67.3402 83.5311 67.2336 84.3087C67.0915 86.677 66.9494 88.2322 66.5626 90.565C65.6784 93.8176 65.4297 96.6122 65.1495 99.7937C65.0429 101.1 64.9008 102.162 64.7271 103.224C65.5758 103.295 66.4955 103.366 67.5218 103.473C67.7349 102.269 67.877 101.14 68.0152 99.7266C68.3349 96.4741 68.5796 93.6439 69.4638 90.4269C69.8546 88.1296 69.9927 86.5389 70.1348 84.206C70.3125 82.6508 70.4901 82.6508 70.6993 81.0956C70.9085 79.5404 71.019 79.5404 71.2282 77.9852C70.9795 76.5366 69.3177 76.3944 67.5849 76.501L67.5928 76.4971Z" fill="#DCEADE"/>
<path d="M98.1405 108.142C94.5327 107.684 92.9064 107.578 90.8223 107.4C89.4092 107.293 87.8185 107.151 85.308 106.907C83.6107 106.729 81.2068 106.449 78.5898 106.165C74.911 105.742 70.6716 105.245 67.1704 104.929C66.1797 104.822 65.2245 104.751 64.3758 104.68C63.8469 104.645 63.385 104.609 62.9272 104.574C59.5681 104.361 58.0129 103.196 56.3511 101.957C56.0313 101.708 55.7156 101.499 55.3958 101.25C54.8314 100.859 54.2274 100.473 53.4854 100.117C52.9209 99.8332 52.317 99.5884 51.5749 99.3398C50.9749 99.1266 50.4776 98.949 50.0197 98.7398C49.171 98.3845 48.5355 98.1043 47.4027 98.1043C44.9633 98.0332 42.5239 98.5977 40.1555 99.1306L39.1293 99.3792C37.9609 99.6279 36.7609 99.699 35.557 99.77C34.4952 99.8411 33.4729 99.9121 32.5176 100.09C32.0953 100.161 31.7045 100.267 31.3137 100.374C31.2071 100.409 31.065 100.445 30.9585 100.481C30.6743 100.552 29.9677 100.765 29.8256 100.938C29.8611 101.009 29.8967 101.081 29.9322 101.152C30.3545 101.752 31.594 102.355 31.9847 102.423C32.5137 102.529 33.1531 102.494 33.7886 102.458C34.0728 102.458 34.3531 102.423 34.6373 102.423C35.2373 102.423 42.9107 104.12 43.1239 106.168C43.1594 106.453 43.1594 107.23 42.3818 107.759C42.0976 107.972 41.7107 108.114 41.1779 108.182C39.9069 108.395 38.6674 108.746 37.4319 109.208C35.6991 109.808 33.9663 110.585 32.3045 111.363L31.1006 111.892C29.8967 112.421 28.6256 112.847 27.3546 113.27C26.4349 113.589 25.5152 113.87 24.6666 114.225C23.96 114.509 23.2535 114.825 22.5824 115.216C22.3337 115.358 22.0535 115.5 21.8048 115.673C21.6627 115.744 21.5917 115.816 21.4851 115.887C21.4496 115.922 21.3785 115.958 21.343 115.993C21.2364 116.064 21.1654 116.135 21.0588 116.206L20.9167 116.313C20.9167 116.348 20.8812 116.384 20.8812 116.455L20.8456 116.562C20.6325 117.197 20.5614 118.01 20.7035 118.223C20.8101 118.294 21.2325 118.223 21.4101 118.223C21.939 118.188 22.2943 118.188 22.7166 118.188H23.7429C24.556 118.188 25.3337 118.117 25.9692 117.868C26.0047 117.868 26.0402 117.833 26.0757 117.797C26.2534 117.69 26.5691 117.477 27.102 117.619C27.8796 117.726 28.4441 118.575 28.7283 119.033C28.7638 119.139 28.8349 119.21 28.8349 119.281C29.0835 119.775 29.1191 120.236 29.1191 120.659V121.05C29.1191 121.721 29.2612 122.218 29.5098 122.782H29.6519C29.7585 122.782 29.8651 122.747 29.9717 122.747H31.5269C32.0203 122.747 32.6953 122.463 33.3308 122.182C34.7439 121.547 36.903 120.592 38.2451 123.28C38.4227 123.671 38.5293 124.022 38.6674 124.413C38.8451 124.942 38.9872 125.439 39.2674 125.755C39.7253 126.248 40.2226 126.177 41.1423 126.039C42.0976 125.897 43.262 125.719 44.2883 126.71L44.8172 127.239C45.2396 127.661 45.6304 128.088 46.0211 128.159C46.5145 128.301 47.154 127.981 47.6829 127.665C49.096 126.888 50.4776 126.003 51.8196 125.155C56.7339 122.08 61.7904 118.863 67.6954 120.347C73.1742 121.689 77.7017 123.315 82.3318 125.617C86.7527 127.772 95.3064 130.495 96.5813 130.922L98.1365 108.257C98.1602 108.186 98.1602 108.15 98.1365 108.15L98.1405 108.142Z" fill="#FDFEFE"/>
</svg>
