<?xml version="1.0" encoding="UTF-8"?>
<svg id="Layer_2" data-name="Layer 2" xmlns="http://www.w3.org/2000/svg" viewBox="0 0 80.44 112.77">
  <defs>
    <style>
      .cls-1 {
        fill: rgba(250, 167, 25, .3);
      }
    </style>
  </defs>
  <path class="cls-1" d="m33.5,64l-1.63.13c-2.81-1.95-8.15-7.52-11.86-6.76-1.59.76-2.91,2.19-4.44,3.11-2.22,1.39-4.82,2.68-7.46,3.15-2.15.4-2.84.07-2.46-2.32.87-4.87,6.07-5.53,10.37-5.5,1.94-.1,3.88-.7,5.82-.73.04,0,.04-.03.04-.07-3.09-2.58-9.29-3.18-12.49-5.99-1.91-1.36-7.91-4.74-6.17-7.79.94-1.62,4.58-1.23,6.07-.86,4.3,1.06,8.91,3.28,11.89,6.49.94-.63,1.87-1.52,3.12-1.52.03,0,.03-.03.03-.07-4.09-3.78-6.31-5.5-8.29-11C13.53,28.09,6.66,2.52,15.82.13c6.55-1.09,9.61,9.11,11.45,13.18,2.05,4.6,2.81,8.51,4.19,13.32.69,2.25,1.46,8.15,2.36,10.93,0,.03.07.03.07,0-.21-7.65-.21-14.54,3.92-21.07,2.43-3.74,6.59-9.01,12-7.02,2.46.9,2.84,4.14,2.7,6.33-.21,3.18-2.11,6.63-3.74,9.34-5.55,8.84-12.97,17.39-14.01,28.02-.17,1.76-.45,3.98.14,5.66,0,.03.07.03.07,0,2.46-9.84,9.99-19.94,19.84-23.98,4.58-1.89,18.31-3.44,15.88,4.93-1.21,4.21-6.35,5.2-10.27,6-4.2.83-8.53,1.36-12.62,2.52-5.06,1.46-9.57,5.36-10.34,10.5,0,.03.04.07.07.03,16.05-12.55,24.35.3,16.61,1.95-5.2,1.16-10.16.03-15.36,0-1.35,0-2.64.3-3.88,1.06-.56.36-1.39,1.36-1.39,2.15Z"/>
  <path class="cls-1" d="m26.84,45.21c.87.13,1.91.43,2.71.73-.14-2.25-1.53-4.44-2.43-6.46-3.47-7.78-4.2-16.3-7.21-24.21-1.8-5.07-3.43-9.18-6.24-13.98-6.03,6.89.45,33.68,6.38,40.05,1.32,1.42,3.08,2.65,4.37,4.07,0-.03,1.73-.33,2.43-.2Z"/>
  <path class="cls-1" d="m9.33,40.41c-.31-.07-.76-.16-1.25-.23.14,1.26.28,2.52.45,3.81.17,1.42.56,3.54,1.28,5.37,2.95,2.52,9.33,3.31,12.11,5.76-2.32-2.29-1.91-6.92-.73-8.21-2.95-3.21-7.56-5.43-11.86-6.49Z"/>
  <path class="cls-1" d="m35.55,49.02c.56-2.09,1.32-4.14,2.15-6.03.87-1.99,1.94-3.88,3.12-5.76-.03-.3-.1-.56-.14-.79-.49-4.31-1.28-8.61-1.53-12.92-.1-2.35-.14-5.07-1.08-7.32-4.4,6.66-4.4,13.78-4.16,21.7.34,3.71.66,5.17,1,8.88,0,.56.24,1.46.63,2.25Z"/>
</svg>