<svg width="180" height="180" viewBox="0 0 180 180" fill="none" xmlns="http://www.w3.org/2000/svg">
<path d="M125.088 136.684C123.899 136.756 122.857 136.793 121.45 136.793C120.767 136.793 120.441 136.756 120.12 136.684C119.794 136.647 119.509 136.611 118.93 136.611C118.319 136.611 118.029 136.647 117.704 136.72C117.378 136.756 117.057 136.829 116.373 136.829C114.5 136.684 112.88 136.72 111.151 136.793C110.395 136.829 109.64 136.829 108.812 136.829C107.622 136.793 106.544 136.793 105.427 136.756C104.096 136.756 102.689 136.756 101.214 136.647C100.024 136.684 98.8741 136.684 97.7566 136.684C96.4622 136.684 95.1275 136.647 93.6884 136.756C92.213 136.793 91.1317 136.756 89.8734 136.684H89.4433C88.7599 136.684 88.3981 136.647 88.0765 136.611C87.787 136.611 87.574 136.647 87.3931 136.647C87.0675 136.684 86.7459 136.72 86.0986 136.72C84.2615 136.756 82.4967 136.72 80.7682 136.684C79.2205 136.647 77.6366 136.611 76.0165 136.647C75.4055 136.647 75.0799 136.684 74.7904 136.72C74.4648 136.756 74.1432 136.793 73.496 136.793H70.9755C70.3283 136.793 70.0388 136.793 69.7172 136.829C69.3916 136.829 69.07 136.865 68.459 136.865C67.7756 136.865 67.45 136.793 67.1284 136.756C66.8027 136.72 66.5173 136.647 65.9384 136.647C63.0923 136.72 60.2502 136.72 57.5126 136.72C54.5257 136.72 51.3901 136.684 48.2947 136.829C46.6385 136.901 45.1632 136.865 43.6155 136.829C43.0044 136.829 42.3572 136.793 41.706 136.793C42.8235 137.841 43.8647 138.957 45.0546 139.896C46.8556 141.194 48.7289 142.423 50.4575 143.794C54.2725 145.958 58.2 148.127 62.4129 149.606C64.4309 150.545 66.5173 151.303 68.7484 151.593C70.871 152.169 73.0337 152.605 75.2286 152.963C78.9029 153.29 82.6093 153.903 86.2836 153.467C87.7951 153.612 89.2342 153.576 90.7136 153.25C92.2251 153.177 93.6643 152.923 95.1074 152.528C97.3385 152.31 99.5013 151.915 101.588 151.049C104.47 150.4 107.276 149.352 109.869 147.909C110.552 147.583 111.308 147.441 111.959 147.115C112.643 146.752 113.217 146.285 113.869 145.922C115.199 145.309 116.498 144.588 117.756 143.758C119.014 142.963 120.204 142.061 121.322 141.085C123.231 139.715 125.032 138.268 126.725 136.643H126.616C126.005 136.643 125.535 136.68 125.105 136.68L125.088 136.684Z" fill="#F2E5D1"/>
<path d="M32.1907 94.0479C32.1907 93.4352 32.1545 93.145 32.0821 92.8185C32.0098 92.492 31.9736 92.1333 31.9736 91.4844C31.9736 90.8354 31.9736 90.4727 32.0098 90.1502C32.0098 89.8238 32.046 89.5013 32.046 88.8887C32.046 88.2035 32.0821 87.877 32.0821 87.5545C32.1183 87.228 32.1183 86.9419 32.1183 86.2929C32.1183 85.644 32.0821 85.3175 32.046 85.0314C32.0098 84.7049 31.9736 84.3824 31.9736 83.6972V81.0975C31.9736 80.4123 32.0098 80.0858 32.0821 79.7271C32.1183 79.5094 32.1545 79.2595 32.1545 78.933C32.046 78.8605 32.0098 78.7879 31.9736 78.7516C31.9012 78.6065 31.9374 78.3889 32.046 78.2841C32.0821 78.2478 32.1183 78.2478 32.1545 78.2478C32.1545 77.8125 32.0821 77.5263 32.046 77.2724C32.0098 77.1273 31.9736 76.9459 31.9736 76.7686C31.9012 76.7323 31.8289 76.7323 31.7927 76.696H31.7565C31.6842 76.6598 31.6118 76.6235 31.5756 76.5872C31.2862 76.3696 31.1776 76.0108 31.0369 75.3941C30.9646 74.9588 30.8199 74.3825 30.5344 73.5884C30.2812 72.8307 29.9234 72.0366 29.5978 71.3152C28.7335 69.4006 27.833 67.4175 28.3395 65.104C28.7697 62.9758 30.2128 61.3474 32.1545 60.5897V60.372C32.1907 59.9045 32.1545 59.4692 32.1545 59.0379C32.1545 58.3889 32.1183 57.7037 32.2269 57.0508C32.0821 57.2684 31.9012 57.4861 31.7605 57.6997C30.8601 58.8928 30.1767 60.2269 29.6018 61.5973C28.3436 63.4393 27.3707 65.4587 26.5426 67.5183C25.4251 70.2632 24.6693 73.1491 23.7688 75.9665C23.5156 77.4094 23.3025 78.8927 22.9407 80.3357C22.796 81.8149 22.5106 83.2619 22.2211 84.7411C22.0402 86.9419 21.9679 89.1829 22.0402 91.3836C21.8955 95.1039 22.1849 98.8201 22.9045 102.432C23.4794 104.56 23.7688 106.801 24.416 108.929C24.7417 110.372 25.2803 111.783 25.9275 113.117C26.8642 115.934 28.0501 118.675 29.638 121.166C30.3937 122.609 31.258 123.983 32.1223 125.317C32.1223 124.668 32.0862 124.02 32.0862 123.33L32.05 122.609C32.1223 120.658 32.0862 119.36 32.05 117.446C31.9414 114.628 32.0138 111.779 32.05 109.034C32.0862 105.858 32.1585 102.573 31.9776 99.3239C32.0138 98.3485 32.05 97.5545 32.0862 96.7242C32.0862 95.8576 32.1585 95.0273 32.1947 94.0519L32.1907 94.0479Z" fill="#F2E5D1"/>
<path d="M128.043 47.2201C124.912 44.0803 121.382 41.3717 117.599 38.9896C117.418 38.8445 117.237 38.7356 117.061 38.5905C116.052 38.6268 115.079 38.5905 114.001 38.5543C112.884 38.5905 112.164 38.5905 111.155 38.5543C110.793 38.5543 110.653 38.3366 110.653 38.119V36.7123C110.653 36.3495 110.689 36.1359 110.689 35.9545C110.725 35.7731 110.725 35.628 110.725 35.3056V35.233C109.752 34.7655 108.816 34.2576 107.843 33.7538C107.159 33.4636 106.44 33.3185 105.72 33.0323C103.666 32.1657 101.543 31.408 99.3485 31.0815C96.5023 30.36 93.5879 29.8522 90.6694 29.3483C88.4744 29.3121 86.2393 29.0219 84.0082 29.0219C80.2978 29.0581 76.6276 29.5257 72.9533 29.961C70.7946 30.5374 68.5956 30.7913 66.4731 31.4765C63.6993 32.4882 60.8572 33.4273 58.1557 34.6164C56.1739 35.628 54.2684 36.7808 52.2142 37.6837C50.2685 38.8042 48.5399 40.2109 46.6706 41.4039C45.0506 42.9194 43.2135 44.185 41.5572 45.6643C39.3623 47.6877 37.489 49.9972 35.5072 52.1616C35.1454 52.7018 34.7514 53.2822 34.3534 53.8223V54.2898C35.1092 54.0722 35.9373 54.1084 36.6931 54.1447C37.1232 54.1447 37.5935 54.181 38.0598 54.1447C38.7071 54.1447 39.0327 54.1084 39.3181 54.0722C39.6437 54.0359 39.9653 53.9996 40.6125 53.9996C41.2236 53.9996 41.5492 53.9633 41.8708 53.9633C42.1964 53.9271 42.518 53.9271 43.129 53.9271C45.1109 53.9996 46.4053 53.9633 48.1701 53.8908C48.8535 53.8908 49.1791 53.9271 49.5007 53.9633C49.8263 53.9996 50.1118 54.0359 50.6906 54.0359C51.3017 54.0359 51.6273 53.9996 51.9489 53.9996C52.2745 53.9633 52.5961 53.9633 53.2071 53.9633C55.8 53.8545 58.0311 53.9633 60.8049 54.1447C61.3798 54.1447 61.6692 54.1084 61.9948 54.0359C62.3204 53.9996 62.642 53.9271 63.2893 53.9271C63.9726 53.9271 64.2983 53.9633 64.6199 54.0359C64.9455 54.0722 65.2309 54.1447 65.8098 54.1447C66.4208 54.1447 66.7103 54.1084 67.0359 54.0722C67.3615 54.0359 67.6831 53.9996 68.3303 53.9996C69.0137 53.9996 69.3393 54.0359 69.6609 54.1084C69.9865 54.1447 70.272 54.181 70.8508 54.181C72.7241 54.0359 74.4527 54.0722 76.2537 54.1084C76.9733 54.1084 77.6929 54.1447 78.4124 54.1447C79.132 54.1084 79.7792 54.1084 80.3943 54.0722C81.3671 54.0359 82.3038 53.9996 83.4173 53.9996C84.1007 53.9996 84.4263 54.0722 84.7479 54.1084C85.0735 54.1447 85.359 54.2173 85.9378 54.2173C86.5489 54.2173 86.8383 54.181 87.1639 54.1447C87.4895 54.1084 87.8111 54.0722 88.4584 54.0722C90.2593 54.181 91.5176 54.2173 93.4994 54.181C95.3727 54.2173 96.5948 54.2173 98.5405 54.1447C99.7666 54.1447 100.916 54.1447 102.07 54.1084C104.301 54.0722 106.392 54.0359 108.695 54.2173H108.767C111.36 54.1084 113.627 54.0359 116.257 54.2173H118.488C120.252 54.2173 121.909 54.2535 123.782 54.0722H127.348C129.506 54.0359 131.561 54.0359 133.756 54.181C132.063 51.7626 130.081 49.4168 128.031 47.2161L128.043 47.2201Z" fill="#F2E5D1"/>
<path d="M39.3181 62.6735C41.4084 65.9585 40.3632 68.268 39.2457 70.7227C38.8477 71.553 38.4899 72.4196 38.1643 73.395C37.9834 74.1165 37.9472 74.6566 37.8749 75.0919C37.8025 75.7408 37.694 76.1398 37.4447 76.3897H38.0196C38.5221 76.3897 38.9563 75.9907 38.9563 75.4869C39.2095 70.9 42.4134 68.5905 41.3682 64.9468C40.6487 62.4196 38.7754 61.0129 36.7573 60.6501C37.7663 61.0492 38.6668 61.7344 39.314 62.6735H39.3181Z" fill="#F7A495"/>
<path d="M31.9374 66.1399C31.6841 66.1399 31.3987 66.3938 31.2178 66.6437C31.1454 66.7888 31.0369 66.9702 31.1816 67.3289C31.3625 67.6917 31.7203 68.0141 32.0821 68.2681V68.0504C32.0821 67.4015 32.0459 67.1113 32.0097 66.7888C32.0097 66.6074 31.9736 66.3938 31.9374 66.1399Z" fill="#F7A495"/>
<path d="M31.9374 70.6502C31.9374 69.965 31.9736 69.6022 32.0459 69.2798V69.1347C31.4349 68.7719 30.7877 68.2318 30.4983 67.6191C30.245 67.1153 30.2812 66.6075 30.5706 66.1762C30.9324 65.6361 31.4349 65.3459 31.9374 65.3096C32.0459 63.9755 32.0821 62.9275 32.1183 61.8433C31.2178 62.601 30.4983 63.6853 30.1365 65.0557C29.4169 67.8368 30.9646 69.711 32.0098 72.202V71.9118C31.9374 71.6578 31.9374 71.2991 31.9374 70.6502Z" fill="#F7A495"/>
<path d="M32.7294 65.632C33.3404 66.0996 33.666 67.1838 33.7384 68.8444C34.1002 68.8807 34.4579 68.8807 34.8559 68.8807C35.0006 67.1838 35.3584 66.2447 36.0458 66.0996C36.7654 65.9545 37.1996 66.2084 37.4126 66.426C37.9151 66.9299 37.9151 67.8327 37.7383 68.4494C37.3765 69.2072 36.5122 69.4974 35.5795 69.6062C35.5072 70.7993 35.5072 72.4599 35.5795 74.7332C35.5795 75.237 35.6157 75.6723 35.6157 75.9947C37.0187 75.9585 37.0187 75.8496 37.1272 74.9468C37.1634 74.5115 37.2719 73.9351 37.4528 73.1411C37.7785 72.0931 38.1724 71.2265 38.5704 70.3599C39.6879 67.9053 40.5522 65.9545 38.6789 63.0685C37.6337 61.6618 36.0499 60.8315 34.3574 60.8315C34.1404 60.8315 33.9273 60.8315 33.7464 60.8678C33.457 60.9766 33.1716 61.1217 32.9183 61.2669C32.9183 62.6373 32.8821 63.8303 32.7374 65.4184C32.7012 65.5635 32.7374 65.5998 32.7374 65.636L32.7294 65.632Z" fill="#F7A495"/>
<path d="M32.9464 69.5337C32.9103 69.5337 32.8379 69.4974 32.7655 69.4974C32.7294 69.7876 32.6932 70.0738 32.6932 70.6542C32.6932 71.3032 32.6932 71.5934 32.7294 71.9158C32.7655 72.2383 32.7655 72.5647 32.7655 73.25C32.7655 73.8989 32.7294 74.2254 32.6932 74.5478V74.6566C32.7294 74.9106 32.7655 75.1967 32.8017 75.4869C32.8379 75.7046 32.9103 75.886 33.055 76.027H33.3082C33.1273 74.7292 33.0188 72.597 32.9464 69.5297V69.5337Z" fill="#F7A495"/>
<path d="M34.7835 69.6787C34.4217 69.6787 34.064 69.6425 33.7383 69.6425C33.8107 72.7098 33.9192 74.8057 34.1001 76.0673H34.8197C34.8197 75.7408 34.8197 75.3095 34.7835 74.8057C34.7474 72.746 34.7112 71.0169 34.7835 69.6787Z" fill="#F7A495"/>
<path d="M32.874 68.7033C32.9102 68.7033 32.9102 68.7396 32.9464 68.7396C32.9464 68.522 32.9102 68.3043 32.9102 68.127C32.874 68.3446 32.874 68.5623 32.874 68.7033Z" fill="#F7A495"/>
<path d="M36.9785 68.2317C37.087 67.7642 37.0508 67.2201 36.8338 67.0024C36.7976 66.9661 36.689 66.8573 36.4358 66.8573C36.3634 66.8573 36.2911 66.8573 36.1825 66.8936C35.9654 66.9298 35.7524 67.3974 35.6077 68.8807C36.2549 68.7718 36.8338 68.5905 36.9745 68.2317H36.9785Z" fill="#F7A495"/>
<path d="M132.401 45.4507C132.365 45.5958 132.365 45.7772 132.365 46.0996V47.47V47.5426C132.726 47.5063 132.867 47.4338 133.41 47.4338C133.446 47.4338 133.446 47.47 133.446 47.4338V46.0633C133.446 45.3781 133.554 45.3781 133.554 44.6929C133.554 44.6567 133.482 44.5841 133.446 44.5841C132.943 44.5841 132.799 44.6204 132.473 44.6204C132.473 44.6567 132.509 44.6567 132.509 44.6929C132.473 45.0879 132.437 45.2693 132.401 45.4507Z" fill="white"/>
<path d="M130.636 46.0674C130.636 46.6438 130.6 46.7526 130.564 47.1879C130.889 47.1879 131.03 47.1516 131.175 47.1516C131.283 47.1154 131.392 47.1154 131.536 47.1154V46.1037C131.536 45.7409 131.573 45.5636 131.573 45.3459C131.573 45.2371 131.609 45.1283 131.609 44.9832C131.464 44.9832 131.356 44.9832 131.247 45.0194C131.066 45.0194 130.885 45.0557 130.527 45.0557H130.491C130.564 45.3822 130.672 45.886 130.636 46.0674Z" fill="white"/>
<path d="M128.763 33.25C128.763 33.4314 128.727 33.5765 128.727 33.899C128.727 34.5842 128.763 35.1605 128.799 35.7772L128.835 36.7164C128.835 37.1154 128.799 37.2927 128.763 37.4741C128.726 37.6192 128.727 37.8006 128.727 38.123V38.1956H129.772C129.808 38.1956 129.808 38.1593 129.808 38.123C129.808 37.4378 129.916 37.4378 129.916 36.7164C129.88 35.6684 129.808 34.9469 129.808 33.899C129.808 33.2138 129.88 33.2138 129.88 32.4923C129.88 32.456 129.844 32.3472 129.808 32.3472C129.482 32.3472 129.124 32.3472 128.799 32.3834C128.799 32.4197 128.835 32.456 128.835 32.4923C128.799 32.8873 128.763 33.0686 128.763 33.25Z" fill="#D4D9DA"/>
<path d="M118.246 37.7643C119.903 37.8731 121.45 37.8731 123.07 37.8368C123.862 37.8368 124.654 37.8005 125.446 37.8368C125.772 37.8368 125.949 37.8368 126.13 37.8005C126.31 37.8005 126.491 37.7643 126.885 37.7643H127.967C127.967 37.5466 128.003 37.4378 128.003 37.2967C128.039 37.1516 128.039 36.9702 128.039 36.6478L128.003 35.7449C127.967 35.1323 127.931 34.5519 127.931 33.8304C127.931 33.4676 127.967 33.2903 127.967 33.0726C127.967 32.9638 128.003 32.8187 128.003 32.6736C126.636 32.7099 125.41 32.7099 124.007 32.7099C122.926 32.7824 122.206 32.7824 121.125 32.7461H119.722C119.36 32.7461 119.147 32.7099 118.966 32.7099C118.785 32.6736 118.64 32.6736 118.283 32.6736C117.957 32.6736 117.78 32.7099 117.635 32.7099C117.454 32.7461 117.237 32.7461 116.843 32.7461H115.44C115.042 32.7461 114.866 32.7099 114.685 32.7099C114.504 32.6736 114.359 32.6736 114.037 32.6736C113.716 32.6736 113.535 32.7099 113.39 32.7099C113.209 32.7461 112.992 32.7461 112.635 32.7461H112.598C112.562 33.1089 112.526 33.25 112.526 33.7941C112.526 34.5156 112.598 34.5156 112.598 35.2008C112.598 35.5998 112.562 35.7772 112.562 35.9948C113.716 36.5349 114.866 37.1153 115.947 37.7643C116.667 37.8731 117.422 37.8368 118.25 37.7643H118.246Z" fill="#D4D9DA"/>
<path d="M112.45 36.7163V37.8005H113.961C114.608 37.8368 115.219 37.8368 115.834 37.8731C114.753 37.2242 113.603 36.6437 112.45 36.1036C112.486 36.2487 112.45 36.4301 112.45 36.7163Z" fill="#D4D9DA"/>
<path d="M154.905 130.295C154.294 130.295 153.968 130.332 153.646 130.332C153.321 130.368 152.999 130.368 152.352 130.368C150.479 130.295 149.22 130.295 147.239 130.332C145.582 130.332 143.926 130.295 142.342 130.259H141.767C142.129 131.126 142.668 132.028 142.993 133.076C143.283 133.943 143.391 134.918 143.604 135.93C144.469 135.93 145.261 135.858 146.234 135.821L146.632 135.785C148.396 135.785 149.618 135.858 151.275 136.003L151.705 136.039C152.28 136.039 152.569 136.003 152.858 135.93C153.184 135.858 153.542 135.821 154.189 135.821C155.053 135.858 155.773 135.64 156.243 135.136C156.71 134.669 156.927 133.943 156.891 133.076C156.891 132.391 156.927 132.028 156.999 131.706C157.035 131.38 157.108 131.093 157.108 130.444C156.641 130.444 156.352 130.408 156.099 130.372C155.809 130.336 155.524 130.299 154.909 130.299L154.905 130.295Z" fill="#F5F3F1"/>
<path d="M157.063 88.921C157.172 86.9702 157.1 85.7086 157.027 83.7578C157.027 83.0726 157.063 82.7461 157.063 82.4236C157.1 82.0972 157.1 81.7747 157.1 81.1258C156.919 78.7074 156.991 76.6115 157.063 74.2294L157.1 73.3628C157.1 72.7501 157.063 72.4599 157.027 72.1335C156.991 71.807 156.955 71.4482 156.955 70.763C156.955 70.1141 156.991 69.7514 157.027 69.4289C157.063 69.1024 157.1 68.8163 157.1 68.1673C157.136 65.3137 157.172 63.0767 156.919 60.4406C156.919 60.0053 156.955 59.6103 156.955 59.2476C157.027 57.9134 157.1 56.7929 156.163 55.8538C155.299 54.9146 154.217 54.9509 152.995 54.9872H150.077C147.23 54.9872 144.533 54.9872 141.615 54.8421C139.13 55.0235 136.972 55.0235 134.483 55.0235H134.053C131.786 54.8421 129.695 54.8784 127.5 54.8784C126.347 54.8784 125.161 54.9146 123.935 54.8784C122.098 55.0235 120.405 55.0235 118.604 55.0235H116.373C113.744 54.8421 111.513 54.9146 108.92 55.0235H108.812C106.508 54.8784 104.418 54.8784 102.223 54.9146C101.069 54.9146 99.8831 54.9509 98.6932 54.9509C96.7476 54.9872 95.4893 55.0235 93.6522 54.9872C91.7065 55.0235 90.4121 54.9872 88.6111 54.8784C88.0363 54.8784 87.7468 54.9146 87.4212 54.9509C87.0956 54.9872 86.774 55.0597 86.0906 55.0597C85.4434 55.0597 85.0816 55.0235 84.76 54.9509C84.4344 54.9146 84.1489 54.8421 83.5339 54.8421C82.3802 54.8784 81.4797 54.8784 80.5109 54.9146C79.8998 54.9509 79.2526 54.9509 78.4928 54.9872C77.7371 54.9872 77.0175 54.9509 76.2979 54.9509C74.5331 54.9146 72.8407 54.8784 70.9674 55.0235C70.284 55.0235 69.9584 54.9872 69.6368 54.9509C69.3112 54.9146 69.0258 54.8784 68.4107 54.8784C67.7957 54.8784 67.5102 54.9146 67.2208 54.9509C66.8952 54.9872 66.5736 55.0597 65.8902 55.0597C65.243 55.0597 64.9174 55.0235 64.5958 54.9509C64.2701 54.9146 63.9847 54.8421 63.3697 54.8421C62.7948 54.8421 62.4692 54.8784 62.1797 54.9509C61.8541 54.9872 61.4963 55.0597 60.8491 55.0597C58.0753 54.8784 55.8443 54.7695 53.2875 54.8784C52.6765 54.8784 52.3509 54.9146 52.0293 54.9146C51.7037 54.9509 51.3821 54.9509 50.7349 54.9509C50.0876 54.9509 49.762 54.9146 49.4404 54.8784C49.1188 54.8421 48.8294 54.8058 48.2143 54.8058C46.4496 54.8784 45.1189 54.9146 43.1371 54.8421C42.5622 54.8421 42.2366 54.8784 41.911 54.8784C41.5854 54.9146 41.2638 54.9146 40.6166 54.9146C40.0055 54.9146 39.7161 54.9509 39.3905 54.9872C39.0648 55.0235 38.7433 55.0597 38.0599 55.0597C37.5935 55.096 37.1232 55.0597 36.6569 55.0597C35.7926 55.0235 35.0006 54.9872 34.3173 55.2774C34.3173 55.745 34.2811 56.2165 34.2811 56.7204C34.2811 56.938 34.1002 57.1194 33.8831 57.1194C33.666 57.1194 33.4851 56.938 33.4851 56.7204C33.4851 56.3939 33.5213 56.0714 33.5213 55.7812C32.7655 56.6841 32.8017 57.8409 32.8379 59.1025C32.8379 59.5378 32.8741 60.0053 32.8379 60.4366C32.8741 60.4366 32.9103 60.4003 32.9826 60.4003C34.3132 60.1101 35.6117 60.2552 36.7614 60.7631C38.7794 61.1258 40.6487 62.5325 41.3723 65.0597C42.4175 68.7437 39.2136 71.017 38.9603 75.5998C38.9241 76.1036 38.5302 76.5027 38.0237 76.5027H37.485C37.1594 76.8291 36.6569 76.9017 35.6117 76.938C36.5483 77.1556 37.1594 77.3733 37.1594 77.9134C37.1594 78.6711 36.2951 78.9613 35.5031 79.0702C36.2951 79.4692 36.5845 79.7554 36.5122 80.0818C36.4398 80.5857 35.8288 80.6582 35.0006 80.767C34.5705 80.8396 33.7062 80.9484 33.5977 81.1298C33.67 81.2024 34.2811 81.42 34.6067 81.5651C35.1815 81.7828 35.7604 82.0004 35.9735 82.3954C36.082 82.5768 36.0458 82.8307 35.8649 82.9355C35.7926 82.9718 35.7202 83.0081 35.6479 83.0081C35.5031 83.0081 35.3946 82.9355 35.3222 82.8267C35.2137 82.6453 34.7112 82.4639 34.3132 82.3229C33.5213 82.0327 32.7294 81.7102 32.8379 80.9887C33.0188 80.3035 33.9916 80.1584 34.9283 80.0496C35.073 80.0133 35.2901 80.0133 35.467 79.977C35.2499 79.8682 34.8559 79.6506 34.2409 79.4007C34.0962 79.3281 33.9514 79.2918 33.8429 79.2556H32.9424C32.9424 79.5458 32.9062 79.7594 32.8701 79.977C32.8339 80.3035 32.7977 80.5897 32.7977 81.2386V83.8747C32.7977 84.4873 32.8339 84.8138 32.8701 85.1362C32.9062 85.4587 32.9424 85.8214 32.9424 86.4704C32.9424 87.1193 32.9062 87.4458 32.9062 87.7682C32.8701 88.0947 32.8701 88.4172 32.8701 89.0661C32.8701 89.715 32.8701 90.0415 32.8339 90.364C32.8339 90.6904 32.7977 91.0129 32.7977 91.6618C32.7977 92.2745 32.8339 92.5647 32.9062 92.8912C32.9786 93.2176 33.0148 93.5764 33.0148 94.2616C32.9786 95.2733 32.9424 96.1036 32.9062 96.9339C32.8701 97.7279 32.8339 98.5219 32.7977 99.4611C32.9424 102.71 32.9062 106.031 32.8701 109.207C32.8339 111.952 32.7977 114.765 32.8701 117.583C32.9062 119.534 32.9424 120.831 32.8701 122.782L32.9062 123.467C32.9424 124.624 32.9786 125.596 32.9424 126.68C32.9424 127.079 32.9424 127.51 32.9062 127.941C32.9062 128.59 32.9424 129.171 32.9424 129.711C33.6982 129.711 34.3816 129.747 35.1011 129.747H35.8207C37.2599 129.783 38.6307 129.82 40.1422 129.783C40.7532 129.783 41.0789 129.747 41.3683 129.711C41.6939 129.675 42.0155 129.602 42.6989 129.602C43.3823 129.602 43.7079 129.675 44.0295 129.711C44.3551 129.747 44.6406 129.82 45.2556 129.82C47.1651 129.783 48.4595 129.783 50.369 129.82H50.8715C51.4826 128.558 52.1298 127.329 52.8896 126.172C53.573 124.874 54.6543 122.96 55.8402 121.48C57.3156 119.352 59.4421 117.869 61.4923 116.462L62.1757 115.995C63.7958 114.802 65.5244 113.794 67.2168 112.782C68.5836 111.988 69.9906 111.158 71.3212 110.255C72.3302 107.474 74.2397 105.092 76.109 102.891C77.3672 101.412 78.9189 100.146 80.6114 99.1709C81.6566 98.3768 83.1319 97.5465 84.3218 96.8613C84.7198 96.6437 85.0414 96.4623 85.3308 96.2849C85.2585 94.9871 85.2946 93.6126 85.978 92.5647C83.6384 90.0012 82.7018 86.1036 83.4937 82.0246C82.7018 81.7344 82.4847 81.5571 81.9822 81.0492C81.8736 80.9404 81.7289 80.7953 81.552 80.6139C80.8686 79.965 80.4707 79.1347 80.3621 78.2318C80.1812 77.1476 80.4345 76.1399 81.0093 75.4144C81.3711 74.9468 81.8736 74.6566 82.3761 74.5478C82.2314 71.7304 83.0233 68.9896 84.6072 66.7123C85.5077 64.9791 86.8745 63.5724 88.5669 62.6333C91.9879 60.9364 96.0561 60.9364 100.016 62.597C101.206 63.2822 102.247 64.1488 103.184 65.1605C104.41 65.1605 104.442 65.2693 105.74 65.2693C107.039 65.2693 106.999 65.0879 108.333 65.0879C110.279 65.1242 111.573 65.1242 113.519 65.1242C115.465 65.1242 116.759 65.1968 118.705 65.3056C120.65 65.1968 121.945 65.0879 123.89 65.0879C127.058 65.4144 130.013 65.0879 133.144 65.1968C133.719 64.3665 134.475 63.645 135.448 63.1049C136.529 62.6696 137.751 62.3834 138.977 62.2383C142.254 61.9118 145.747 62.7784 147.729 65.4144C150.752 68.9533 150.539 75.5958 148.593 79.7473C148.376 80.1101 148.091 80.4688 147.729 80.7953C147.765 84.4067 147.874 87.9778 147.657 91.6255C147.62 95.1644 147.982 98.4131 147.693 101.952C147.693 103.25 147.657 103.25 147.657 104.515C147.657 105.781 147.838 105.813 147.838 107.079C147.874 108.993 146.435 110.436 144.561 110.291H143.408C142.041 110.328 140.923 110.364 139.375 110.436C138.081 110.436 138.081 110.291 136.783 110.291C135.484 110.291 135.488 110.4 134.19 110.4C132.891 110.4 132.931 110.291 131.597 110.291C130.339 110.291 130.339 110.473 129.004 110.473C127.058 110.364 125.764 110.255 123.818 110.291C121.872 110.255 120.578 110.328 118.632 110.473C118.958 111.013 119.388 111.521 120.035 111.771C121.511 112.347 123.529 113.359 125.149 114.334C127.561 115.704 130.19 117.115 132.457 118.812C134.149 119.787 135.661 121.049 136.815 122.496C137.032 122.714 137.281 122.964 137.534 123.218C138.001 123.685 138.507 124.193 138.937 124.806C139.982 126.212 140.811 127.873 141.494 129.642H142.394C143.978 129.679 145.635 129.715 147.291 129.715C149.273 129.679 150.531 129.679 152.404 129.751C153.015 129.751 153.341 129.715 153.63 129.715C153.956 129.679 154.278 129.679 154.925 129.679C155.572 129.679 155.934 129.715 156.255 129.751C156.509 129.787 156.758 129.824 157.156 129.824C157.156 129.642 157.12 129.497 157.12 129.356C157.083 129.03 157.047 128.671 157.047 127.986C157.047 127.337 157.083 127.01 157.083 126.652C157.12 126.325 157.12 126.003 157.12 125.354C157.12 124.741 157.083 124.415 157.047 124.124C157.011 123.798 156.975 123.439 156.975 122.79V120.191C156.975 119.542 157.011 119.179 157.047 118.856C157.083 118.53 157.12 118.244 157.12 117.595C157.12 116.982 157.083 116.692 157.011 116.365C156.975 116.039 156.903 115.68 156.903 114.995C156.903 114.346 156.939 113.983 156.975 113.661C157.011 113.334 157.047 113.012 157.047 112.399C157.12 110.521 157.047 108.86 156.975 107.091C156.939 106.297 156.903 105.467 156.866 104.636C156.866 103.951 156.939 103.625 156.975 103.266C157.011 102.939 157.083 102.653 157.083 102.004C156.903 99.0096 156.903 96.7323 157.12 94.2051C157.011 92.1818 156.975 90.8476 157.047 88.9331L157.063 88.921ZM41.6256 56.8252L40.0417 58.0545C39.9693 58.0908 39.897 58.1271 39.7884 58.1271C39.6799 58.1271 39.5352 58.0908 39.4628 57.9819C39.3181 57.8006 39.3543 57.5466 39.5352 57.4418L41.1191 56.2125C41.3 56.0674 41.5492 56.1037 41.6577 56.2851C41.8386 56.4664 41.8025 56.7163 41.6216 56.8252H41.6256ZM44.5441 69.3161H44.4717C44.0737 69.2435 43.7883 69.2072 43.5351 69.1347C43.1733 69.0621 42.9602 69.0258 42.4537 68.9896C42.2366 68.9896 42.0557 68.8082 42.0919 68.5905C42.0919 68.3729 42.309 68.1915 42.4899 68.2278C43.0286 68.2641 43.318 68.3003 43.6798 68.3729C43.8969 68.4092 44.1823 68.4817 44.5441 68.518C44.7612 68.5543 44.9059 68.7356 44.8697 68.9533C44.9059 69.171 44.725 69.3161 44.5441 69.3161ZM45.9832 62.0609C44.6164 62.3511 44.0737 62.46 43.1733 62.601H43.1009C42.92 62.601 42.7391 62.4559 42.7029 62.2746C42.6668 62.0569 42.8115 61.8755 43.0286 61.8393C43.8928 61.6942 44.4677 61.5853 45.8023 61.2991C46.0194 61.2629 46.2325 61.3717 46.2687 61.5894C46.341 61.7707 46.1963 61.9884 45.9792 62.0569L45.9832 62.0609Z" fill="#F5F3F1"/>
<path d="M32.7655 77.079C32.8017 77.3692 32.8741 77.6554 32.8741 78.0907C33.1997 78.127 33.5213 78.1995 33.8831 78.3084C34.064 78.3084 34.2811 78.3084 34.4941 78.2721C35.8971 78.1633 36.2589 77.9456 36.3312 77.8368C36.078 77.6917 35.2137 77.5103 34.6388 77.4015L34.2409 77.3289C33.7022 77.2201 33.1957 77.075 32.7293 76.9299C32.7655 77.0025 32.7655 77.0387 32.7655 77.075V77.079Z" fill="#F5F3F1"/>
<path d="M50.2645 130.436C48.355 130.4 47.0606 130.4 45.1511 130.436C44.4677 130.436 44.1421 130.364 43.7843 130.328C43.4587 130.291 43.1733 130.219 42.5582 130.219C41.9432 130.219 41.6577 130.255 41.3321 130.291C41.0065 130.328 40.6849 130.4 40.0015 130.4C38.49 130.436 37.083 130.4 35.7162 130.364H35.68C34.7434 130.328 33.8067 130.328 32.8339 130.328C32.8339 131.158 32.8339 131.988 32.7977 132.964C32.7615 133.794 33.051 134.552 33.6258 135.128C34.1283 135.668 34.8157 135.958 35.5715 135.958C36.1825 135.958 36.472 135.922 36.7976 135.922C37.1232 135.886 37.4448 135.886 38.092 135.886C38.7392 135.886 39.0649 135.922 39.3864 135.958C39.708 135.995 39.9975 136.031 40.6125 136.031H40.6849C41.6577 136.031 42.5944 136.067 43.5311 136.067C45.0787 136.103 46.5541 136.14 48.1741 136.067H48.2827C48.3188 135.995 48.3912 135.922 48.4636 135.886C48.9299 134.08 49.5811 132.238 50.3731 130.505C50.3731 130.432 50.3369 130.432 50.2645 130.432V130.436Z" fill="#F5F3F1"/>
<path d="M29.0591 65.2008C28.629 67.2242 29.4209 69.0258 30.2852 70.9041C30.6108 71.6619 30.9686 72.4559 31.258 73.2499C31.5475 74.0802 31.6882 74.6929 31.7605 75.1645C31.7967 75.3821 31.8329 75.5272 31.9053 75.6683C31.9053 75.1282 31.9414 74.8017 31.9776 74.5115C32.0138 74.185 32.05 73.8989 32.05 73.2822C32.05 72.8146 32.05 72.5244 32.0138 72.3068C30.9686 69.8158 29.4571 67.9376 30.1405 65.1605C30.5023 63.7538 31.2219 62.7058 32.1223 61.9481V61.4442C30.5746 62.0569 29.4209 63.4676 29.0631 65.2008H29.0591Z" fill="#F5F3F1"/>
<path d="M32.8379 75.5272C32.8017 75.237 32.7655 74.9509 32.7294 74.6969C32.6932 74.9871 32.6932 75.3096 32.6932 75.89V76.0714C32.8017 76.0714 32.9464 76.0714 33.0912 76.1076C32.9464 75.89 32.8379 75.7086 32.8379 75.5313V75.5272Z" fill="#F5F3F1"/>
<path d="M33.1997 61.013C33.0911 61.0492 33.0188 61.0855 32.9102 61.0855V61.3032C33.1997 61.1581 33.4489 61.013 33.7384 60.9041C33.5575 60.9404 33.3766 60.9767 33.1997 61.013Z" fill="#F5F3F1"/>
<path d="M147.592 79.4611C147.665 79.3886 147.737 79.2797 147.773 79.2072C149.61 75.3096 149.827 69.0621 146.981 65.7772V65.7409C145.434 63.649 142.804 62.7784 140.175 62.7784C139.886 62.7784 139.564 62.8147 139.275 62.8147C138.017 62.9235 136.791 63.1774 135.673 63.645C134.99 64.0077 134.447 64.5115 133.981 65.0517H134.125C136.216 64.8703 138.194 64.8703 140.212 64.9065C141.615 64.9428 143.022 64.9791 144.461 65.0154C148.063 65.1242 147.592 68.119 147.737 70.8638C147.737 72.7783 147.701 74.0762 147.628 76.027C147.592 77.1475 147.592 78.3003 147.592 79.4571V79.4611Z" fill="#F5F3F1"/>
<path d="M136.107 16.6076C136.469 16.6076 136.646 16.6076 136.827 16.5713C137.044 16.5713 137.225 16.5351 137.619 16.5351H140.678C141.04 16.5351 141.217 16.5351 141.398 16.4988C141.615 16.4625 141.795 16.4625 142.189 16.4625C142.583 16.4625 142.8 16.4988 143.018 16.4988C143.126 16.4988 143.271 16.5351 143.448 16.5351C143.448 16.3174 143.448 16.1723 143.412 16.0312C143.412 15.8499 143.375 15.7048 143.375 15.4549C143.231 15.4549 143.122 15.4911 143.014 15.4911C142.796 15.5274 142.616 15.5637 142.185 15.5637C141.787 15.5637 141.574 15.5637 141.393 15.5274C141.213 15.5274 141.032 15.4911 140.638 15.4911C139.484 15.5274 138.728 15.5274 137.579 15.5274L136.823 15.4911C136.176 15.4549 135.565 15.4186 134.877 15.4186V16.5028C135.058 16.5028 135.203 16.5391 135.343 16.5391C135.56 16.6116 135.741 16.6116 136.099 16.6116L136.107 16.6076Z" fill="#F5F3F1"/>
<path d="M129.591 46.1762C129.591 46.4664 129.591 46.6438 129.555 46.8252C129.555 46.934 129.555 47.0065 129.518 47.1516C129.699 47.1516 129.808 47.1879 129.949 47.1879C130.089 47.1879 130.274 47.2242 130.596 47.2242C130.596 46.7889 130.668 46.7204 130.668 46.1037C130.704 45.886 130.596 45.4185 130.56 45.0557H129.514C129.514 45.2008 129.551 45.3459 129.551 45.4548C129.587 45.7087 129.623 45.9586 129.587 46.1762H129.591Z" fill="#F5F3F1"/>
<path d="M111.441 36.0674C111.404 36.2488 111.404 36.3939 111.404 36.7164V37.8006H112.45V36.7164C112.45 36.4262 112.45 36.2488 112.486 36.1037C112.522 35.8861 112.522 35.7047 112.522 35.3097C112.522 34.6245 112.45 34.6245 112.45 33.903C112.45 33.3629 112.486 33.2178 112.522 32.855C112.16 32.855 111.983 32.8188 111.802 32.7825C111.694 32.7825 111.622 32.7462 111.477 32.7462C111.477 32.9639 111.441 33.0727 111.441 33.2138C111.404 33.3951 111.404 33.5402 111.404 33.8627C111.404 34.1851 111.441 34.3665 111.441 34.5116C111.477 34.693 111.477 34.8744 111.477 35.2694V35.5596C111.477 35.8135 111.477 35.9223 111.441 36.0674Z" fill="#F5F3F1"/>
<path d="M86.0584 96.9339C86.0584 97.1152 86.0946 97.2966 86.0946 97.474C86.167 97.4377 86.2393 97.4014 86.3479 97.3289C86.6011 97.22 86.778 97.1838 86.9951 97.1838C87.8594 97.1475 88.2533 98.0141 88.3257 98.9895C88.3981 100.219 87.6785 100.287 87.4252 101.444C87.2805 101.984 87.0996 102.778 87.2443 104.044C87.2443 104.511 87.2443 105.056 87.2081 105.596C89.1176 106.789 92.4663 107.329 97.1094 107.147C98.9103 106.966 100.458 106.499 101.752 105.741C101.789 105.704 101.861 105.668 101.933 105.632C102.653 105.164 103.3 104.62 103.77 103.971L103.807 103.935C104.599 102.383 104.273 100.65 103.951 99.3482C103.734 98.5542 103.485 97.7601 103.196 97.0024L102.942 96.2446C102.761 95.7771 102.617 95.2329 102.512 94.7291C102.367 93.7174 101.901 92.9959 101.109 92.4921C100.784 92.2745 100.39 92.1294 99.9193 91.9883C100.209 93.7577 100.458 95.2732 100.747 96.5751C100.82 96.5389 100.856 96.5026 100.928 96.43L101.182 96.2124C101.362 96.0673 101.58 96.1036 101.72 96.2487C101.865 96.43 101.829 96.6477 101.684 96.7888L101.431 97.0064C101.105 97.2966 100.928 97.4417 100.711 97.5465C100.386 97.7642 100.1 97.8367 99.3806 97.9818L98.444 98.1995C97.6159 98.4171 96.6069 98.667 95.3486 98.7758C95.1315 98.7758 94.8823 98.8121 94.6652 98.8121C92.7919 98.8121 90.8502 98.2358 89.2624 97.1878C88.8322 96.9339 88.3619 96.6477 87.8956 96.2849C87.3931 95.9222 87.0674 95.5272 86.8865 95.1644C86.8504 95.0919 86.8504 95.0556 86.8142 94.983C86.778 94.8742 86.8142 94.7654 86.8865 94.6566C86.9227 94.584 86.9951 94.5115 87.1036 94.5115C87.3207 94.4389 87.5338 94.584 87.5699 94.8017C87.5699 94.8742 87.6423 94.983 87.8232 95.1644V94.5518C87.8232 94.189 87.787 93.794 87.8956 92.9274C87.9317 92.5284 88.0041 92.0971 88.0403 91.6658C87.6101 91.7747 87.2483 92.0286 86.9589 92.2785C86.8865 92.351 86.8142 92.3873 86.7418 92.4599C86.0222 93.2902 85.9499 94.5518 86.0584 96.1801V96.9379V96.9339Z" fill="#F5F3F1"/>
<path d="M86.4524 91.7344C86.5971 91.5893 86.778 91.5167 86.9549 91.4079C87.2805 91.2265 87.6745 91.0451 88.1086 90.9726C88.2895 89.4208 88.3981 88.1914 88.3981 87.216V87.1798C87.8232 86.7807 87.3891 86.2406 86.9589 85.6642C86.2393 84.6526 85.7007 83.4635 85.4836 82.0165C85.4474 82.6655 85.4474 83.3507 85.4112 84.0036C85.6283 85.0879 85.7007 86.2406 85.8092 87.3611C85.9177 88.8041 86.0625 90.3559 86.4564 91.7303L86.4524 91.7344Z" fill="#F5F3F1"/>
<path d="M107.843 130.4C107.376 130.4 106.906 130.436 106.44 130.436C106.186 130.436 105.973 130.436 105.756 130.4C105.793 131.339 105.793 132.315 105.793 133.254C105.865 134.157 105.901 134.483 105.973 134.806C106.01 135.059 106.046 135.309 106.082 135.781C106.729 135.781 107.308 135.781 107.919 135.745C107.847 135.309 107.919 134.515 108.028 133C107.955 132.17 107.883 131.267 107.847 130.4H107.843Z" fill="#F5F3F1"/>
<path d="M62.5455 116.466L61.8621 116.934C59.7718 118.377 57.7939 119.751 56.391 121.807C55.201 123.25 54.1599 125.128 53.4724 126.426C52.8252 127.401 52.2463 128.486 51.7077 129.566C51.9971 129.529 52.3187 129.493 52.8252 129.493C53.2232 129.529 53.581 129.529 53.9428 129.529C54.1599 129.167 54.3729 128.844 54.5538 128.482C56.1015 124.906 58.3326 121.984 60.7124 118.949C63.4862 116.422 67.1926 114.399 70.5775 112.452C70.6498 112.089 70.7222 111.694 70.8307 111.259C69.7132 111.98 68.5996 112.665 67.4821 113.318C65.862 114.257 64.1334 115.269 62.5496 116.458L62.5455 116.466Z" fill="#F5F3F1"/>
<path d="M51.6353 130.332C51.5268 130.332 51.4183 130.368 51.3097 130.368C50.5178 132.101 49.8344 133.943 49.364 135.785C49.9751 135.785 50.5901 135.749 51.2374 135.749C51.4544 135.281 51.8484 134.487 52.2464 133.548C52.572 132.754 52.7489 131.779 53.183 130.876C53.2916 130.658 53.4001 130.477 53.5086 130.263C53.2916 130.263 53.0785 130.227 52.8614 130.227C52.2142 130.263 51.9248 130.299 51.6353 130.336V130.332Z" fill="#F5F3F1"/>
<path d="M85.2665 97.0064C85.0494 97.1152 84.8364 97.2603 84.5831 97.4054C83.3932 98.0544 81.954 98.8847 80.9088 99.6787C79.2526 100.618 77.7773 101.843 76.5874 103.254C74.7864 105.314 73.0216 107.551 72.0488 110.114C72.1212 110.295 72.0488 110.513 71.9041 110.582H71.8679C71.7232 111.049 71.6146 111.484 71.5061 111.879C71.8317 111.698 72.1533 111.517 72.4428 111.339C74.1352 110.436 74.4246 108.522 75.3934 107.006C75.8959 106.14 76.4748 105.382 76.9411 104.842C79.1722 101.879 82.1269 99.715 85.3308 97.9093C85.2946 97.6191 85.2946 97.3329 85.2585 97.0064H85.2665Z" fill="#F5F3F1"/>
<path d="M85.4795 129.679C85.6604 129.679 85.8052 129.679 85.982 129.715H88.5388C89.1498 129.715 89.4392 129.679 89.7649 129.606C90.0905 129.57 90.4482 129.497 91.0955 129.497H93.6522L94.2994 129.534C95.8471 129.642 97.0732 129.715 98.7656 129.715C99.3766 129.715 99.6661 129.679 99.9917 129.642C100.317 129.606 100.639 129.534 101.322 129.534C102.653 129.534 103.662 129.57 104.779 129.642H104.96C104.924 128.921 104.888 128.199 104.852 127.55C104.49 122.423 104.205 116.793 103.988 110.259C103.915 108.635 103.879 106.938 103.807 105.168C103.377 105.636 102.834 106.071 102.259 106.43V106.466C100.784 108.453 97.9737 109.715 94.8059 109.86C93.9778 110.041 93.1497 110.15 92.3216 110.15C91.2764 110.15 90.199 110.005 89.19 109.683L88.8282 109.61C88.5749 109.574 88.3619 109.501 88.1448 109.465C87.7468 109.392 87.3529 109.284 86.9549 109.139C86.8463 110.4 86.774 111.629 86.774 112.75C86.0544 118.272 85.982 123.076 85.5841 128.598C85.5479 128.925 85.5117 129.32 85.4755 129.683L85.4795 129.679Z" fill="#F5F3F1"/>
<path d="M105.033 133.29C105.033 132.315 105.033 131.339 104.997 130.364H104.743C103.59 130.328 102.621 130.255 101.322 130.255C100.711 130.255 100.422 130.291 100.096 130.328C99.7706 130.364 99.449 130.436 98.7656 130.436C97.037 130.436 95.8149 130.364 94.227 130.255L93.616 130.219H91.0593C90.4482 130.219 90.1588 130.255 89.8332 130.328C89.5076 130.364 89.1498 130.436 88.5026 130.436H85.9459C85.765 130.436 85.5841 130.436 85.4072 130.4C85.1901 133.758 85.1901 135.128 84.4705 135.708H86.5931C87.3126 135.708 87.7106 135.745 88.0684 135.781H88.6794C89.1458 135.817 89.5437 135.854 89.9377 135.854C90.3317 135.854 90.5849 135.817 90.8744 135.781C91.2362 135.745 91.6301 135.708 92.3497 135.708C94.5084 135.672 95.9878 135.745 98.1103 135.854C98.7937 135.854 99.1193 135.781 99.4771 135.745C99.8389 135.672 100.233 135.6 100.952 135.6C102.536 135.708 103.975 135.745 105.274 135.745C105.238 135.346 105.202 135.132 105.165 134.914C105.129 134.624 105.093 134.266 105.021 133.29H105.033Z" fill="#F5F3F1"/>
<path d="M83.6826 76.5712H84.0806C84.153 76.281 84.1891 75.9585 84.1891 75.7409C83.7228 75.2733 83.2163 75.0557 82.7138 75.0919C82.2475 75.1282 81.7772 75.3459 81.4877 75.7409C81.0576 76.281 80.8767 77.075 81.0214 77.9416C81.0938 78.8807 81.5963 79.4934 81.9581 79.8924C82.139 80.0738 82.2837 80.2189 82.4244 80.36C82.8224 80.7953 82.9631 80.9001 83.5419 81.1177C83.6143 80.6824 83.6143 80.2149 83.6505 79.7473C83.6866 79.2435 83.7228 78.7356 83.7952 78.2681C83.8314 77.9416 83.9037 77.6554 83.9399 77.3652H83.6866C83.4696 77.3652 83.2887 77.1838 83.2887 76.9662C83.2887 76.7485 83.4696 76.5671 83.6866 76.5671L83.6826 76.5712Z" fill="#F5F3F1"/>
<path d="M85.0132 87.3692C84.9047 86.2487 84.8323 85.1322 84.6153 84.048V83.9392C84.76 82.1697 84.76 80.4003 84.76 78.4857C84.6876 78.3406 84.6514 78.1955 84.6153 78.0504C84.5791 78.1592 84.5791 78.2681 84.5429 78.3769C84.4706 78.8122 84.4344 79.2798 84.4344 79.7836C84.3982 80.2511 84.362 80.759 84.3258 81.2991L84.2535 81.6981C83.5701 84.9105 84.0002 88.0504 85.4072 90.4365C85.1901 89.4248 85.1178 88.3769 85.0092 87.3692H85.0132Z" fill="#F5F3F1"/>
<path d="M85.5519 72.8549C85.5519 73.2902 85.5157 73.7215 85.5157 74.1528C85.9459 73.7538 86.4524 73.4676 86.9911 73.2862C87.7468 73.0323 88.5749 72.996 89.3307 73.1774C89.8694 73.2862 90.4482 73.5402 90.9146 73.8989C90.5166 73.395 90.195 72.8872 90.0864 72.6373C89.0774 71.1581 87.9639 67.9094 88.4664 66.1399C88.5387 65.9223 88.7558 65.8134 88.9327 65.8497C89.1498 65.9223 89.2583 66.1399 89.2221 66.3173C88.8242 67.724 89.7608 70.6865 90.806 72.2383C91.0955 72.8872 92.1005 74.1165 92.607 74.3664C92.1045 72.2383 91.2764 68.6994 92.1406 66.4583C92.1768 66.277 92.3216 66.1319 92.5386 66.1319C92.7557 66.1319 92.9688 66.2407 93.0411 66.4946C93.4713 67.5789 94.625 69.8159 95.5978 71.15L95.8511 71.4039C96.3536 71.944 96.8963 72.5244 97.5073 73.0645C98.5163 73.0283 99.4892 73.4273 100.173 74.1488C100.136 73.7135 100.136 73.3185 100.136 72.9194C100.136 72.8469 100.136 72.8106 100.173 72.7381C99.1274 70.7147 97.8691 68.3326 96.0682 67.0347C95.8873 66.8896 95.8511 66.672 95.9958 66.4946C96.1405 66.3132 96.3576 66.277 96.5345 66.4221C98.5525 67.9013 99.9193 70.5373 101.001 72.6695L101.218 73.1048C101.471 73.6087 101.72 73.8626 101.937 74.1165C102.299 74.4793 102.657 74.8743 102.367 75.632C102.87 76.5712 103.304 77.6917 103.626 78.7356C103.77 79.2032 103.915 79.711 103.988 80.2874C104.024 80.5051 103.879 80.7227 103.662 80.755H103.59C103.409 80.755 103.228 80.6099 103.192 80.4285C103.192 80.3559 103.155 80.3197 103.155 80.2471C103.083 80.3922 103.011 80.5373 102.938 80.6099C102.975 80.7187 102.975 80.7912 103.011 80.9363C103.083 81.3354 103.155 81.7304 103.264 82.1657C103.517 81.948 103.59 81.8029 103.73 81.4805C103.839 81.2265 103.984 80.8678 104.269 80.36C105.206 79.0258 105.6 77.2201 105.495 75.2693C105.748 72.3068 105.097 69.0944 103.766 67.0388C103.3 66.3173 102.721 65.6683 102.11 65.0517C101.354 64.3302 100.526 63.6812 99.6259 63.1734C95.9154 61.6216 92.1005 61.6579 88.8965 63.2097C87.3488 64.04 86.0866 65.3378 85.2584 66.9984C83.7469 69.1629 83.0274 71.7626 83.1359 74.3987C83.7108 74.4349 84.2534 74.6889 84.7198 75.1564H84.7921C84.7921 74.3987 84.7921 73.6409 84.8283 72.8832C84.8283 72.6655 85.0092 72.5204 85.2263 72.5204C85.371 72.4478 85.5519 72.6292 85.5519 72.8469V72.8549Z" fill="#F5F3F1"/>
<path d="M107.77 129.606C107.409 124.443 107.123 118.957 106.906 113.939C106.834 112.278 106.834 111.303 106.761 110.219C106.725 109.679 106.689 109.098 106.617 108.377C106.689 106.825 106.114 105.201 106.798 103.721C106.978 103.286 107.087 102.782 107.087 102.315C107.087 101.847 107.268 101.484 107.517 101.194C106.617 100.69 105.68 100.255 104.816 99.8601C105.105 101.158 105.214 102.714 104.526 104.229C104.562 104.266 104.562 104.338 104.562 104.411C104.635 106.47 104.671 108.417 104.743 110.295C104.96 116.829 105.246 122.428 105.608 127.518C105.644 128.203 105.68 128.925 105.716 129.683C105.933 129.683 106.182 129.719 106.4 129.719C106.866 129.646 107.336 129.646 107.766 129.61L107.77 129.606Z" fill="#F5F3F1"/>
<path d="M102.621 89.5336C102.512 89.4974 102.404 89.4611 102.295 89.4248C102.331 89.7876 102.331 90.1463 102.367 90.509C102.476 90.1826 102.548 89.8601 102.621 89.5336Z" fill="#F5F3F1"/>
<path d="M101.72 91.9883C101.612 91.0854 101.539 90.1463 101.503 89.1346C100.82 88.917 100.136 88.6993 99.449 88.4857C99.5575 89.3885 99.6661 90.2551 99.8108 91.158C100.494 91.3031 101.069 91.5207 101.539 91.8432C101.576 91.8795 101.648 91.952 101.72 91.9883Z" fill="#F5F3F1"/>
<path d="M107.445 96.5026C106.544 95.7811 105.933 95.5635 105.716 95.5635H105.644C105.716 95.89 106.146 96.4663 107.3 97.2604C107.875 97.5868 108.558 97.9818 109.282 98.272C108.743 97.6594 108.128 97.0427 107.445 96.5026Z" fill="#F5F3F1"/>
<path d="M102.621 82.9274C102.512 82.3148 102.404 81.6981 102.259 81.0854C102.223 80.9041 102.223 80.7952 102.15 80.6864L102.114 80.6501C102.114 80.6139 102.078 80.5776 102.078 80.5413C101.97 80.2511 101.897 79.9287 101.789 79.6385C101.752 80.2874 101.716 80.9363 101.608 81.5167V81.5893C101.68 82.347 101.716 83.1411 101.752 83.8988C102.042 85.3781 102.15 87.0024 102.255 88.5905C102.436 88.663 102.617 88.7356 102.757 88.7718C103.011 87.075 102.975 85.1604 102.613 82.9234L102.621 82.9274Z" fill="#F5F3F1"/>
<path d="M87.0996 106.503C87.0634 106.829 87.0634 107.115 87.0273 107.442C86.9911 107.696 86.9911 107.946 86.9549 108.199C87.0634 108.236 87.172 108.308 87.3167 108.345C87.8192 108.526 88.3619 108.635 88.9367 108.744L89.3347 108.816C91.0633 109.356 92.8281 109.429 94.629 108.998C96.6832 108.889 98.5525 108.312 99.9595 107.373C99.0591 107.663 98.1224 107.841 97.0772 107.95C96.4662 107.986 95.8873 107.986 95.3486 107.986C91.6744 108.022 88.9408 107.482 87.1036 106.507L87.0996 106.503Z" fill="#F5F3F1"/>
<path d="M89.0091 86.6437C90.7739 87.8368 93.2582 88.1229 96.2089 87.4377C97.0732 87.1475 97.8651 86.68 98.4762 86.1036C99.6299 85.0556 100.422 83.4676 100.78 81.5167C100.707 80.7227 100.635 79.8924 100.526 79.0984C99.8068 80.1463 98.653 80.8678 97.3948 80.9766C95.2361 80.9766 93.5436 79.316 93.4351 77.2201C93.218 77.0387 92.9326 76.8936 92.6794 76.8936C92.4985 76.8936 92.3537 76.9662 92.213 77.075C92.1407 78.518 91.3487 79.711 90.0543 80.2874C89.4794 80.5413 88.8644 80.6502 88.2895 80.6502C87.8232 80.6502 87.3529 80.5776 86.9227 80.3962C86.6333 80.2874 86.3841 80.1786 86.1308 80.0335C86.167 81.6215 86.4564 82.996 86.9951 84.1125C87.4614 85.1967 88.1488 86.027 89.0131 86.6397L89.0091 86.6437ZM91.3487 84.189C91.4573 83.9714 91.7105 83.8626 91.8874 83.8263H91.9236C92.1407 83.79 92.5346 83.6812 92.9688 83.5361C93.3306 83.4273 93.7607 83.2822 94.1949 83.1733C94.3758 83.137 94.5205 83.1733 94.6612 83.2822C94.8421 83.4273 94.9145 83.6812 94.9145 83.8585C94.8783 84.2576 94.7336 85.3378 93.5477 85.628C93.4029 85.6642 93.222 85.7005 93.0813 85.7005C92.2894 85.7005 91.6784 85.1967 91.3528 84.6526C91.2804 84.5075 91.2804 84.3261 91.3528 84.185L91.3487 84.189Z" fill="#F5F3F1"/>
<path d="M106.87 91.6296C105.861 90.9806 104.711 90.368 103.34 89.8239C103.123 90.7267 102.838 91.557 102.476 92.3148C102.44 92.3873 102.367 92.4599 102.295 92.4962C102.798 93.0363 103.123 93.7255 103.232 94.588C103.34 95.0556 103.485 95.5272 103.63 95.9947L103.883 96.7525C104.1 97.4377 104.349 98.1592 104.566 98.8444H104.603C105.793 99.3482 107.015 99.9649 108.277 100.65C108.675 100.505 109.141 100.505 109.607 100.686C110.074 100.831 110.544 101.013 110.974 101.226C110.757 100.614 110.472 100.033 110.11 99.4208C108.956 99.058 107.807 98.4091 106.906 97.9052C105.648 97.0387 104.997 96.2809 104.924 95.6683C104.888 95.1644 105.141 94.9468 105.322 94.8379C106.006 94.4752 107.268 95.3055 107.951 95.8496C109.033 96.6799 109.933 97.6916 110.653 98.7759C111.228 98.9572 111.734 99.0298 112.128 98.9935C112.49 98.921 112.594 98.7033 112.667 98.5582C112.956 97.6916 111.947 95.8496 111.155 94.983C109.788 93.8625 108.237 92.6735 106.87 91.6255V91.6296Z" fill="#F5F3F1"/>
<path d="M101.254 77.9819C101.254 78.0544 101.254 78.127 101.29 78.1632L101.326 78.127C101.29 78.0907 101.254 78.0544 101.254 77.9819Z" fill="#F5F3F1"/>
<path d="M101.539 76.1036C101.576 76.2487 101.612 76.4301 101.648 76.5712H101.829C101.865 76.5712 101.901 76.5712 101.937 76.6074C101.865 76.4623 101.793 76.281 101.72 76.1399C101.648 76.1036 101.576 76.1036 101.539 76.1036Z" fill="#F5F3F1"/>
<path d="M93.3667 84.8783C93.8692 84.7332 94.014 84.4107 94.1225 84.0117C93.7969 84.0842 93.5115 84.1931 93.222 84.2656C92.8602 84.3744 92.5386 84.4833 92.2854 84.5195C92.5024 84.7735 92.8964 85.0234 93.3667 84.8823V84.8783Z" fill="#F5F3F1"/>
<path d="M102.585 79.4611C102.621 79.2797 102.657 79.0984 102.657 78.8485C102.657 78.7759 102.693 78.7034 102.729 78.6671C102.548 78.1633 102.368 77.6191 102.154 77.1153C102.082 77.2241 101.974 77.3329 101.829 77.3329C101.974 77.8005 102.154 78.3084 102.295 78.7759C102.404 78.9936 102.476 79.2435 102.585 79.4611Z" fill="#F5F3F1"/>
<path d="M100.892 74.4067C100.928 74.3342 100.928 74.2979 101.001 74.2616C100.965 74.2253 100.928 74.1528 100.892 74.1165V74.4067Z" fill="#F5F3F1"/>
<path d="M100.928 75.0557C101.001 75.0194 101.073 75.0194 101.109 75.0557C101.037 74.9468 101.001 74.8743 100.928 74.7655C100.928 74.7292 100.892 74.7292 100.892 74.6929C100.928 74.838 100.928 74.9468 100.928 75.0557Z" fill="#F5F3F1"/>
<path d="M89.6201 96.5751C91.2764 97.6594 93.3989 98.1995 95.2722 98.0544C96.426 97.9818 97.3948 97.7279 98.2229 97.5143L99.1595 97.2603C99.5897 97.1515 99.8429 97.079 99.9877 97.0427C99.662 95.5272 99.3766 93.7577 99.0148 91.5893C98.8339 90.4687 98.6892 89.2434 98.5847 88.1229C98.5485 87.7964 98.5123 87.4377 98.4761 87.075C97.8651 87.5103 97.1817 87.869 96.4219 88.1229C95.2682 88.3768 94.1908 88.5219 93.1818 88.5219C91.6341 88.5219 90.2633 88.1955 89.1136 87.5465C89.0774 88.5219 89.0051 89.6747 88.8242 91.1217V91.1942C88.8242 91.2668 88.788 91.3031 88.788 91.3756C88.7156 91.952 88.6433 92.4961 88.5709 93.0362C88.4986 93.8666 88.4986 94.2293 88.4986 94.5518C88.4986 94.8742 88.5347 95.2007 88.4624 95.8133C88.8925 96.1398 89.2543 96.3534 89.6161 96.5711L89.6201 96.5751Z" fill="#F5F3F1"/>
<path d="M99.2721 87.0065C99.3083 87.2241 99.3083 87.4418 99.3445 87.6554H99.5254C100.173 87.8368 100.784 88.0544 101.435 88.268C101.326 86.7888 101.218 85.3418 100.969 83.9714V83.7175C100.538 84.7654 99.9595 85.7046 99.24 86.426C99.24 86.6437 99.2761 86.8211 99.2761 87.0024L99.2721 87.0065Z" fill="#F5F3F1"/>
<path d="M92.7557 75.2008C92.4301 75.237 92 74.9831 91.602 74.6244C91.8914 75.0597 92.1045 75.5998 92.213 76.2487C92.3577 76.2124 92.5386 76.1762 92.7155 76.1762C93.005 76.1762 93.2904 76.2487 93.5798 76.3938C93.9416 74.5881 95.1637 73.5401 96.4621 73.2177C96.032 72.8187 95.634 72.3874 95.2361 71.9883L94.9828 71.6981C94.1547 70.5776 93.218 68.8445 92.6432 67.5466C92.2814 69.6385 92.9326 72.4559 93.3627 74.2616L93.3989 74.4067V74.5518C93.2542 75.0919 92.8964 75.2008 92.7517 75.2008H92.7557Z" fill="#F5F3F1"/>
<path d="M91.4573 76.8614C91.5296 74.5881 89.6925 74.0077 89.1538 73.8989C88.9006 73.8263 88.6151 73.8263 88.3619 73.8263C87.8956 73.8263 87.389 73.9352 86.9589 74.1165C86.3479 74.3705 85.8052 74.838 85.5197 75.5232V78.4132C85.6645 78.7397 85.8815 78.9896 86.167 79.2798C86.384 79.4611 86.5971 79.6062 86.8504 79.7151C87.7147 80.1141 88.796 80.1141 89.6965 79.7151C90.3075 79.4249 91.3527 78.7397 91.3889 77.1153V77.079V77.0065C91.4251 76.9339 91.4613 76.8977 91.4613 76.8614H91.4573Z" fill="#F5F3F1"/>
<path d="M97.3988 80.2189C98.7294 80.1101 100.028 78.9895 100.422 77.6191C100.386 77.2926 100.349 76.9702 100.313 76.6437C100.277 76.3535 100.241 76.0673 100.205 75.7409C99.1957 75.3781 98.1867 74.7654 97.1455 73.79C95.8149 73.8989 94.4079 74.9105 94.227 76.9299C94.227 78.8082 95.63 80.2149 97.3948 80.2149L97.3988 80.2189Z" fill="#F5F3F1"/>
<path d="M57.9346 129.501C59.7355 129.574 61.2832 129.538 62.9756 129.538C63.8399 129.538 64.7042 129.501 65.6047 129.501C66.6137 129.538 67.5142 129.538 68.4509 129.574C69.5684 129.61 70.682 129.646 71.7995 129.646C71.6548 128.78 71.5101 127.913 71.3694 126.974C71.0076 124.81 70.6498 122.569 70.4689 120.872C70.4327 120.727 70.3965 120.114 71.2246 119.896L72.2698 119.606C73.3874 119.28 74.3602 118.993 75.4376 118.703H75.2567C74.8587 118.667 74.5009 118.667 73.7452 118.739C72.9894 118.812 72.6276 118.885 72.2337 118.957C71.8719 119.03 71.4779 119.102 70.7583 119.175C70.6498 119.175 70.5413 119.139 70.4689 119.102C70.3965 119.03 70.3242 118.921 70.3242 118.848C70.288 118.486 70.2518 118.091 70.1795 117.728C70.0709 117.079 69.9986 116.394 69.9986 115.741C70.0347 115.019 70.1795 114.334 70.3242 113.681C70.3965 113.391 70.4689 113.141 70.5051 112.887C70.5051 112.742 70.5413 112.597 70.5774 112.488C67.1926 114.439 63.4822 116.494 60.7124 118.985C58.3366 122.016 56.0693 124.943 54.5538 128.518C54.3729 128.881 54.1558 129.203 53.9427 129.566C55.2734 129.566 56.3909 129.529 57.9386 129.493L57.9346 129.501Z" fill="#486A6E"/>
<path d="M82.9228 135.781H84.5067C85.2262 135.241 85.2624 133.866 85.4433 130.473C84.6876 130.436 83.9318 130.436 83.2122 130.4C83.176 132.532 83.1037 134.157 82.9228 135.781Z" fill="#486A6E"/>
<path d="M68.4147 130.368C67.5142 130.332 66.5775 130.295 65.6047 130.295C64.7042 130.295 63.8399 130.295 63.0118 130.332C61.3194 130.368 59.7355 130.368 57.9708 130.295C56.2422 130.368 55.0201 130.368 53.5046 130.295C53.396 130.513 53.2875 130.694 53.1789 130.908C52.7488 131.811 52.6041 132.786 52.2423 133.58C51.8443 134.519 51.4504 135.277 51.2333 135.781C51.5227 135.781 51.8081 135.745 52.0976 135.745C56.4914 135.636 60.5958 135.708 64.9535 135.745L66.5012 135.781C68.5916 135.708 70.5332 135.708 73.0899 135.781C72.8367 134.229 72.3703 132.169 71.9362 130.509C70.7463 130.436 69.5966 130.4 68.4066 130.364L68.4147 130.368Z" fill="#486A6E"/>
<path d="M85.3026 104.987C85.2664 107.405 84.977 110.187 84.7277 112.75C84.6554 113.617 84.5469 114.483 84.4745 115.277C84.2574 119.719 83.7911 124.302 83.3569 128.743L83.2846 129.646C84.0042 129.646 84.7237 129.683 85.4795 129.719C85.5157 129.356 85.5157 128.961 85.5518 128.526C85.9136 123.004 85.982 118.199 86.7418 112.677C86.7056 111.557 86.8141 110.295 86.9227 109.066C86.7779 108.993 86.597 108.957 86.4563 108.885C86.2754 108.776 86.1669 108.558 86.2754 108.381C86.384 108.203 86.6011 108.091 86.7779 108.199C86.8503 108.236 86.9227 108.272 86.995 108.272C87.0312 108.018 87.0312 107.768 87.0674 107.514C87.1036 107.188 87.1036 106.902 87.1397 106.575C87.1036 106.539 87.0312 106.539 86.995 106.503C86.2754 106.035 85.7006 105.563 85.3026 104.987Z" fill="#486A6E"/>
<path d="M83.9318 112.677C84.2574 109.538 84.6152 105.962 84.4705 103.326C84.4705 103.218 84.5067 103.145 84.5428 103.072C84.4705 102.278 84.7237 101.521 84.9408 100.763C85.1217 100.15 85.3388 99.5698 85.3388 98.9934V97.9092C82.1349 99.7512 79.1802 101.879 76.9491 104.842C76.519 105.382 75.9039 106.14 75.4014 107.006C74.4286 108.558 74.1431 110.436 72.4507 111.339C72.1251 111.521 71.8035 111.702 71.5141 111.879C71.4417 112.242 71.3694 112.565 71.3332 112.927C71.2608 113.254 71.2246 113.504 71.1523 113.794C71.0076 114.407 70.8628 115.055 70.8267 115.708C70.8267 116.285 70.899 116.938 71.0076 117.55C71.0437 117.804 71.0799 118.054 71.1161 118.308C71.5824 118.272 71.8719 118.199 72.1251 118.127C72.5231 118.054 72.9171 117.982 73.709 117.909C74.5009 117.837 74.9351 117.873 75.329 117.873C75.6908 117.909 76.0486 117.909 76.732 117.873C77.741 117.764 78.2073 117.691 78.8546 117.619L79.7189 117.51C79.9359 117.474 80.1168 117.619 80.149 117.837C80.1812 118.054 80.0766 118.236 79.8596 118.304C79.2123 118.485 78.8867 118.594 78.5651 118.703C78.2033 118.812 77.8455 118.921 77.0898 119.138C75.3612 119.574 74.1391 119.932 72.5512 120.4L71.506 120.69C71.3251 120.727 71.289 120.799 71.289 120.799C71.4699 122.532 71.8276 124.769 72.1894 126.901C72.3703 127.877 72.5151 128.816 72.6558 129.683H73.303C73.914 129.683 74.2034 129.646 74.5291 129.574C74.8547 129.537 75.2125 129.465 75.8597 129.465C76.5069 129.465 76.8325 129.501 77.1541 129.501C77.4797 129.537 77.7651 129.537 78.4124 129.537C79.8877 129.61 81.2223 129.574 82.5529 129.574L82.6615 128.598C83.0916 124.157 83.562 119.61 83.779 115.168C83.779 114.374 83.8514 113.544 83.9238 112.677H83.9318Z" fill="#486A6E"/>
<path d="M78.3159 130.332C77.6687 130.332 77.3431 130.295 77.0215 130.295C76.6958 130.259 76.4104 130.259 75.7632 130.259C75.1522 130.259 74.8627 130.295 74.5371 130.368C74.2115 130.404 73.8537 130.477 73.2065 130.477H72.7402C73.1703 132.137 73.6406 134.233 73.8939 135.785C74.2919 135.821 74.6858 135.821 75.0838 135.821C77.2426 135.785 78.6857 135.785 80.8445 135.821H82.1389C82.3198 134.161 82.3922 132.573 82.4283 130.44C81.0977 130.404 79.7993 130.404 78.3239 130.332H78.3159Z" fill="#486A6E"/>
<path d="M86.9588 97.224C86.7779 97.224 86.5609 97.2603 86.3116 97.3691C86.2393 97.4054 86.1669 97.4417 86.0584 97.5142C86.0946 98.0543 86.1307 98.5622 86.0945 99.0297C86.0945 99.7149 85.8775 100.364 85.6644 101.017C85.4111 101.775 85.1981 102.496 85.3026 103.218C85.4835 104.084 85.986 104.842 86.8141 105.418C86.9227 105.491 86.995 105.563 87.1036 105.6C87.1397 105.06 87.1397 104.552 87.1397 104.048C86.995 102.786 87.2121 101.988 87.3206 101.448C87.5739 100.291 88.2573 100.219 88.2211 98.9934C88.2211 98.0543 87.8231 97.1877 86.9588 97.224Z" fill="#486A6E"/>
<path d="M142.985 133.072C142.66 132.024 142.121 131.158 141.759 130.255C141.112 130.255 140.429 130.219 139.777 130.219C140.352 131.625 140.859 133.072 141.361 134.479L141.791 135.672H141.864C142.045 135.672 142.189 135.781 142.226 135.926H143.629C143.375 134.914 143.267 133.975 142.981 133.072H142.985Z" fill="#486A6E"/>
<path d="M115.006 107.478C115.115 107.696 115.26 107.913 115.436 108.163C115.762 108.703 116.12 109.247 116.337 109.896L116.409 110.259L116.482 110.549C118.894 111.92 121.486 113.185 123.971 114.374C124.799 114.773 125.627 115.168 126.491 115.604C128.075 116.688 129.695 117.732 131.243 118.707L131.315 118.78C131.89 119.215 132.324 119.683 132.791 120.15C133.008 120.368 133.221 120.585 133.438 120.799C134.732 121.847 135.814 123.072 136.75 124.411C137.832 125.962 138.696 127.695 139.452 129.465C140.135 129.465 140.782 129.501 141.47 129.501C140.823 127.732 139.994 126.071 138.913 124.664C138.483 124.052 137.976 123.544 137.51 123.076C137.257 122.822 137.008 122.573 136.791 122.355C135.637 120.912 134.125 119.646 132.433 118.671C130.166 116.974 127.537 115.567 125.125 114.193C123.504 113.218 121.486 112.206 120.011 111.629C119.364 111.339 118.93 110.872 118.608 110.332C118.142 109.538 117.852 108.526 117.418 107.732C116.626 106.216 115.726 104.842 114.431 103.689C113.712 102.968 112.848 102.319 111.947 101.811C112.092 102.387 112.2 103.004 112.236 103.58C113.463 104.737 114.359 106.035 115.01 107.478H115.006Z" fill="#486A6E"/>
<path d="M138.917 130.223C137.478 130.223 135.999 130.223 134.523 130.332C133.876 130.332 133.55 130.332 133.229 130.368C132.976 130.368 132.763 130.404 132.365 130.404H131.934C131.251 130.404 130.925 130.368 130.604 130.295C130.278 130.259 129.993 130.223 129.378 130.223C128.763 130.223 128.152 130.259 127.577 130.295C126.318 130.332 125.129 130.368 123.866 130.368C124.369 132.137 124.839 133.87 125.197 135.676C126.025 135.676 126.781 135.676 127.573 135.712C128.075 135.712 128.618 135.749 129.157 135.749C131.605 135.821 134.234 135.821 136.791 135.785C138.157 135.749 139.528 135.749 140.931 135.749L140.606 134.846C140.067 133.258 139.524 131.742 138.913 130.223H138.917Z" fill="#486A6E"/>
<path d="M114.07 129.533H115.26C115.296 129.03 115.368 128.558 115.404 128.054C115.73 126.466 116.088 124.515 116.305 122.673V117.292C115.657 117.256 115.332 117.256 114.974 117.22C114.616 117.184 114.255 117.147 113.499 117.147C112.743 117.111 112.417 117.147 112.023 117.147C111.662 117.184 111.268 117.184 110.548 117.184C110.295 117.184 110.082 116.966 110.082 116.716C110.046 116.426 110.263 116.212 110.512 116.176C112.671 115.958 114.15 115.777 116.381 115.454C116.2 114.084 116.055 112.492 115.77 111.013C115.698 110.94 115.698 110.868 115.698 110.759C115.698 110.723 115.698 110.686 115.734 110.65L115.625 110.215L115.589 110.106C115.408 109.602 115.087 109.094 114.761 108.59C114.616 108.336 114.435 108.087 114.295 107.833C113.72 106.498 112.892 105.342 111.81 104.257C111.629 104.257 111.485 104.112 111.449 103.931C110.259 102.847 108.892 101.944 107.489 101.186C107.236 101.476 107.059 101.871 107.059 102.307C107.059 102.774 106.986 103.282 106.769 103.713C106.086 105.156 106.661 106.817 106.588 108.369C106.661 109.09 106.697 109.667 106.733 110.211C106.805 111.295 106.842 112.27 106.878 113.931C107.095 118.949 107.38 124.439 107.742 129.598C109.833 129.525 111.847 129.489 114.078 129.525L114.07 129.533Z" fill="#486A6E"/>
<path d="M129.338 129.429C130.021 129.429 130.347 129.465 130.668 129.538C130.994 129.574 131.279 129.61 131.894 129.61C132.397 129.61 132.722 129.61 132.976 129.574H133.156C133.482 129.574 133.804 129.538 134.451 129.538C135.818 129.429 137.189 129.429 138.555 129.429C137.908 127.913 137.152 126.434 136.252 125.096C135.315 123.689 134.234 122.423 132.867 121.375C132.614 121.122 132.401 120.908 132.147 120.654C131.717 120.186 131.283 119.751 130.781 119.392L130.708 119.356C129.161 118.344 127.541 117.333 125.993 116.253C125.201 115.854 124.373 115.459 123.545 115.06C121.241 113.939 118.829 112.786 116.558 111.521C116.775 112.855 116.92 114.193 117.024 115.382C117.024 115.85 116.771 116.176 116.413 116.212C115.802 116.285 115.223 116.394 114.721 116.466H114.974C115.336 116.502 115.694 116.539 116.449 116.539C116.558 116.539 117.024 116.611 117.024 117.26C116.988 118.018 117.024 119.461 117.024 120.835V122.714C116.807 124.628 116.413 126.611 116.124 128.167C116.088 128.635 116.051 129.07 116.015 129.538C116.59 129.538 117.133 129.538 117.708 129.501C117.852 128.095 117.961 126.72 118.106 125.313C118.287 123.689 117.889 121.271 118.504 119.755C120.594 119.143 121.314 122.246 121.816 123.653C122.463 125.604 123.111 127.55 123.689 129.501C125.02 129.501 126.282 129.465 127.577 129.429C128.115 129.465 128.73 129.465 129.342 129.429H129.338Z" fill="#486A6E"/>
<path d="M114.825 135.817C115.473 135.781 116.12 135.781 116.807 135.745C117.169 134.265 117.382 132.75 117.527 131.303C117.563 130.976 117.599 130.654 117.635 130.291C117.097 130.291 116.518 130.291 115.943 130.327C115.726 132.133 115.368 133.939 114.825 135.813V135.817Z" fill="#486A6E"/>
<path d="M114.033 130.331C111.839 130.295 109.857 130.331 107.802 130.404C107.875 131.307 107.947 132.173 107.983 133.04C107.911 134.556 107.802 135.35 107.875 135.785C108.45 135.785 108.992 135.749 109.531 135.712C111.151 135.857 112.626 135.857 113.961 135.821C114.5 133.979 114.862 132.137 115.079 130.336C114.789 130.336 114.431 130.336 114.033 130.336V130.331Z" fill="#486A6E"/>
<path d="M110.974 101.267C110.508 101.049 110.074 100.868 109.607 100.727C109.141 100.545 108.671 100.545 108.277 100.69C109.358 101.303 110.399 101.988 111.372 102.782C111.3 102.278 111.155 101.771 110.974 101.267Z" fill="#486A6E"/>
<path d="M121.704 129.501C122.387 129.538 122.998 129.538 123.649 129.574C123.074 127.623 122.423 125.676 121.776 123.725C121.31 122.319 120.586 119.175 118.464 119.828C117.852 121.343 118.246 123.725 118.066 125.386C117.921 126.793 117.812 128.167 117.668 129.574H117.921C119.179 129.501 120.405 129.501 121.7 129.501H121.704Z" fill="#2D5257"/>
<path d="M123.975 135.672C124.405 135.636 124.803 135.636 125.233 135.636C124.871 133.866 124.405 132.097 123.903 130.328C123.183 130.328 122.463 130.328 121.708 130.255H117.676C117.639 130.581 117.603 130.904 117.567 131.267C117.422 132.71 117.169 134.229 116.847 135.708C117.314 135.708 117.748 135.672 118.214 135.636C120.373 135.708 121.816 135.708 123.975 135.672Z" fill="#2D5257"/>
</svg>
