<svg width="18" height="18" viewBox="0 0 18 18" fill="none" xmlns="http://www.w3.org/2000/svg">
<path d="M17.2676 10.916C17.5 11.2812 17.5664 11.7129 17.4004 12.1113C17.2344 12.5098 16.8691 12.8086 16.4375 12.875L13.7148 13.373L13.2168 16.0957C13.1504 16.5273 12.8516 16.8926 12.4531 17.0586C12.3203 17.125 12.1543 17.125 11.9883 17.125C11.7227 17.125 11.4902 17.0586 11.2578 16.9258L9 15.332L6.70898 16.9258C6.34375 17.1582 5.91211 17.1914 5.51367 17.0586C5.11523 16.8926 4.81641 16.5273 4.75 16.0957L4.25195 13.373L1.5293 12.875C1.09766 12.8086 0.732422 12.5098 0.566406 12.1113C0.400391 11.7129 0.466797 11.2812 0.699219 10.916L2.29297 8.625L0.699219 6.36719C0.466797 6.00195 0.400391 5.57031 0.566406 5.17188C0.732422 4.77344 1.09766 4.47461 1.5293 4.4082L4.25195 3.91016L4.75 1.1875C4.81641 0.755859 5.11523 0.390625 5.51367 0.224609C5.91211 0.0585938 6.34375 0.125 6.70898 0.357422L9 1.95117L11.2578 0.357422C11.623 0.125 12.0547 0.0585938 12.4531 0.224609C12.8516 0.390625 13.1504 0.755859 13.2168 1.1875L13.7148 3.91016L16.4375 4.4082C16.8691 4.47461 17.2344 4.77344 17.4004 5.17188C17.5664 5.57031 17.5 6.00195 17.2676 6.36719L15.6738 8.6582L17.2676 10.916ZM15.6406 11.4141L13.748 8.625L15.6406 5.86914L12.3535 5.27148L11.7559 1.98438L9 3.87695L6.21094 1.98438L5.61328 5.27148L2.32617 5.86914L4.21875 8.625L2.32617 11.4141L5.61328 12.0117L6.21094 15.2988L9 13.4062L11.7559 15.2988L12.3535 12.0117L15.6406 11.4141ZM9 4.90625C11.0254 4.90625 12.6855 6.59961 12.6855 8.5918C12.6855 10.6172 10.9922 12.2773 9 12.2773C6.97461 12.2773 5.28125 10.6504 5.28125 8.5918C5.28125 6.56641 6.94141 4.90625 9 4.90625ZM9 10.75C10.1621 10.75 11.0918 9.75391 11.0918 8.625C11.0918 7.46289 10.1621 6.5 9 6.5C7.80469 6.5 6.875 7.42969 6.875 8.625C6.875 9.78711 7.80469 10.75 9 10.75Z" fill="#463738"/>
</svg>
