<svg width="16" height="16" viewBox="0 0 16 16" fill="none" xmlns="http://www.w3.org/2000/svg">
<g id="document-text">
<path id="Vector" fill-rule="evenodd" clip-rule="evenodd" d="M2.66675 3.79206C2.66675 2.59096 3.6029 1.52539 4.87567 1.52539H8.22841C8.92855 1.52539 9.63788 1.78659 10.1737 2.31928L10.1801 2.32572L12.5911 4.78942C13.1256 5.32305 13.3971 6.1047 13.3207 6.83013V12.5921C13.3207 13.7931 12.3845 14.8587 11.1117 14.8587H4.87567C3.6029 14.8587 2.66675 13.7931 2.66675 12.5921V3.79206ZM4.87567 2.85872C4.40503 2.85872 4.00008 3.25982 4.00008 3.79206V12.5921C4.00008 13.1243 4.40503 13.5254 4.87567 13.5254H11.1117C11.5824 13.5254 11.9873 13.1243 11.9873 12.5921V6.79206C11.9873 6.76426 11.9891 6.73646 11.9926 6.70886C12.0337 6.38176 11.9043 5.98674 11.6475 5.73149L11.6411 5.72505L9.23068 3.26194C8.96208 2.99652 8.59981 2.85872 8.22841 2.85872H4.87567Z" fill="#2E313B" fill-opacity="0.6"/>
<path id="Vector_2" fill-rule="evenodd" clip-rule="evenodd" d="M5.33325 9.52555C5.33325 9.15735 5.63173 8.85889 5.99992 8.85889H9.99992C10.3681 8.85889 10.6666 9.15735 10.6666 9.52555C10.6666 9.89375 10.3681 10.1922 9.99992 10.1922H5.99992C5.63173 10.1922 5.33325 9.89375 5.33325 9.52555Z" fill="#2E313B" fill-opacity="0.6"/>
<path id="Vector_3" fill-rule="evenodd" clip-rule="evenodd" d="M5.33325 11.5256C5.33325 11.1574 5.63173 10.8589 5.99992 10.8589H7.99992C8.36812 10.8589 8.66659 11.1574 8.66659 11.5256C8.66659 11.8938 8.36812 12.1922 7.99992 12.1922H5.99992C5.63173 12.1922 5.33325 11.8938 5.33325 11.5256Z" fill="#2E313B" fill-opacity="0.6"/>
</g>
</svg>
