<svg width="165" height="108" viewBox="0 0 165 108" fill="none" xmlns="http://www.w3.org/2000/svg">
<g clip-path="url(#clip0_160_2974)">
<path d="M27.4608 103.746C23.5196 96.7871 21.6857 88.8245 20.5247 80.9544C20.4632 77.9761 19.9435 74.9978 20.0051 71.9896C20.1582 68.8603 20.31 65.6998 20.5548 62.5691C21.3193 59.4997 21.5941 56.3704 22.602 53.3622C22.9999 51.2651 23.6714 49.3204 24.6191 47.4055C25.352 44.3062 26.6662 41.4489 28.4386 38.8051C29.8444 35.9791 31.2803 33.1844 33.2057 30.6617C35.1914 28.2002 36.9637 25.6176 39.134 23.307C41.5176 21.2412 43.5948 18.8708 46.1616 16.9873C48.4837 14.829 51.2352 13.2487 53.6789 11.2428C60.9829 7.14116 68.7435 3.61613 76.9637 1.70129C82.0974 0.394358 87.4143 0.455576 92.6396 0C98.9043 0.576589 105.321 0.728923 111.402 2.52133C114.489 3.25168 117.33 4.64972 120.355 5.62209C123.197 7.05004 126.192 8.05231 128.759 9.90594C133.526 12.1553 137.498 15.7416 141.623 18.9619C142.387 19.661 142.967 20.6034 143.702 21.3323C144.436 22.0613 145.291 22.7304 145.992 23.4906C148.744 26.6498 151.249 30.0239 153.754 33.3966C155.19 36.1927 156.688 38.9575 158.247 41.6923C162.402 50.2016 164.42 59.5609 164.908 68.9813C165.274 74.36 164.48 79.77 163.747 85.0874C163.044 89.3726 162.066 93.6565 160.264 97.6371C159.041 100.433 158.123 103.624 156.138 105.964C154.67 107.058 152.776 107.757 150.943 107.909C148.59 107.879 146.971 107.879 144.618 107.879C143.029 107.879 143.029 107.939 141.47 107.939C139.881 107.939 139.881 107.757 138.323 107.757C135.97 107.727 134.35 107.818 131.997 107.939C129.645 107.848 128.026 107.788 125.672 107.818C124.083 107.818 124.083 107.757 122.524 107.757C120.936 107.757 120.936 107.97 119.377 107.97C117.024 108.03 115.405 107.939 113.053 107.788C111.464 107.788 111.464 108 109.905 108C107.551 107.909 105.932 107.909 103.58 108C101.226 107.848 99.6372 107.757 97.2536 107.788C95.6646 107.788 95.6646 108 94.107 108C92.5179 108 92.5179 107.757 90.9589 107.757C89.3699 107.757 89.3699 107.727 87.8123 107.727C86.2232 107.727 86.2232 107.97 84.6642 107.97C82.3107 107.848 80.7216 107.757 78.3395 107.757C76.7504 107.757 76.7504 108 75.1914 108C73.6023 108 73.6023 107.939 72.0433 107.939C69.6912 107.939 68.0721 107.879 65.7186 107.788C64.1295 107.788 64.1295 107.909 62.5719 107.909C60.9829 107.909 60.9829 107.697 59.4239 107.697C57.8348 107.697 57.8348 107.848 56.2758 107.848C54.6882 107.848 54.6882 107.727 53.1292 107.727C51.5401 107.727 51.5401 107.939 49.9811 107.939C46.6512 107.848 43.8396 107.665 40.5083 107.879C38.1247 107.909 36.5671 107.909 34.1835 107.939C33.2358 107.939 32.3811 107.515 31.5251 107.18C29.5996 106.724 28.1938 105.509 27.4608 103.746Z" fill="#F5F4DA" fill-opacity="0.6"/>
<path d="M144.592 47.3969C143.699 47.3969 143.699 47.5351 142.806 47.5351C141.913 47.5351 141.916 47.4122 141.023 47.4122C139.692 47.4829 138.799 47.4644 137.453 47.4122H137.435C136.104 47.4491 135.211 47.5013 133.881 47.5166H133.865C132.535 47.4491 131.642 47.4122 130.296 47.4491C128.947 47.4829 128.054 47.4491 126.724 47.3969C125.834 47.3969 125.834 47.5013 124.94 47.5013C124.047 47.5013 124.047 47.4122 123.154 47.4122C122.261 47.4122 122.261 47.5166 121.371 47.5166C118.344 47.3784 115.473 47.3784 112.446 47.5013C111.116 47.5351 110.204 47.5013 108.874 47.4306C107.984 47.4306 107.984 47.5535 107.091 47.5535C106.197 47.5535 106.197 47.4644 105.304 47.4644C103.974 47.5166 103.065 47.4829 101.735 47.4122H101.716C100.386 47.4829 99.496 47.5166 98.1471 47.5166C96.7982 47.5166 95.9082 47.4644 94.5777 47.3969H94.5592C93.2288 47.4306 92.3203 47.4491 90.9899 47.4306C90.0968 47.4306 90.0968 47.5535 89.2037 47.5535C88.3106 47.5535 88.3136 47.4306 87.4205 47.4306C86.5274 47.4306 86.5274 47.5535 85.6343 47.5535C84.7412 47.5535 84.7412 47.4122 83.8512 47.4122C81.9787 47.4122 80.368 47.4306 78.4956 47.5166H78.4771C76.0287 47.3969 73.7867 47.3968 71.3538 47.5351H71.3384C69.4659 47.3968 67.8552 47.5013 65.9828 47.4829C63.5314 47.4122 61.2924 47.3968 58.841 47.5013C57.529 47.5013 56.251 47.2924 55.1854 48.1985C54.1352 49.0524 54.1352 50.3978 53.8211 51.6356C53.5224 52.9287 53.3468 53.8195 53.1559 55.128C52.9803 56.0003 52.8571 55.9665 52.6816 56.8388C52.5061 57.7111 52.5769 57.7296 52.4013 58.5835C52.2289 59.4558 52.3151 59.4742 52.1581 60.3465C51.9825 61.2189 51.8408 61.1851 51.6684 62.0574C51.4928 62.9297 51.5791 62.9481 51.4035 63.8205C51.2311 64.6928 51.1602 64.6744 51.0032 65.5467C50.8276 66.419 50.9323 66.4374 50.7568 67.3097C50.5289 68.6182 50.2856 69.4906 49.9684 70.7652C49.7959 71.6376 49.953 71.6744 49.7774 72.5283C49.6019 73.4006 49.4787 73.3853 49.3217 74.2392C49.1461 75.1115 49.2354 75.1299 49.0784 76.0023C48.9028 76.8746 48.7981 76.8561 48.641 77.7315C48.3947 79.04 48.2037 79.9123 47.9573 81.2208L47.4862 84.0129V84.0313L46.941 86.4578C46.7686 87.3302 46.8733 87.3486 46.6978 88.2209C46.5222 89.0932 46.436 89.0748 46.2604 89.9318V89.9471C45.9617 92.3552 45.5059 94.5545 45.0347 96.9288C44.8592 97.8011 44.7545 97.7857 44.5789 98.658C44.4034 99.5304 44.4927 99.5488 44.3172 100.421C44.0369 101.711 43.8614 102.602 43.6335 103.91V104.033C43.6335 104.171 43.6181 104.208 43.461 104.208C43.3039 104.208 43.1438 104.208 42.9713 104.19C42.0782 104.19 42.0782 104.276 41.1666 104.276C40.255 104.276 40.2735 104.138 39.365 104.138C38.4565 104.138 38.4719 104.224 37.5634 104.224C35.6725 104.242 34.0618 104.242 32.1893 104.138H32.1739C30.283 104.156 28.6908 104.156 26.7999 104.294H26.7814C25.8914 104.294 25.8914 104.156 24.9982 104.156C24.1051 104.156 24.1051 104.294 23.1935 104.294C20.1508 104.242 17.2621 104.208 14.2162 104.276H14.2008C12.8519 104.224 11.9588 104.171 10.613 104.156C9.71989 104.156 9.71989 104.294 8.81138 104.294C7.90287 104.294 7.91827 104.242 7.00668 104.242C6.09509 104.242 6.11357 104.171 5.20506 104.171C4.0163 104.242 3.13859 103.858 3 104.522C3 105.133 3.13859 105.133 3.13859 105.744C3.10471 106.825 3.94547 107.682 5.02952 107.682C6.35994 107.698 7.28693 107.735 8.61736 107.768H8.63584C10.5237 107.664 12.1344 107.716 14.0253 107.664C14.9184 107.664 14.9184 107.768 15.8269 107.768C16.7354 107.768 16.72 107.735 17.6285 107.735C18.537 107.735 18.5217 107.612 19.4332 107.612C20.3448 107.612 20.3263 107.768 21.2349 107.768C22.1434 107.768 22.128 107.716 23.0365 107.716C24.3669 107.768 25.2939 107.75 26.6243 107.664H26.6428C27.5359 107.664 27.5359 107.735 28.4259 107.735C29.316 107.735 29.3191 107.612 30.2306 107.612C31.1422 107.612 31.1238 107.698 32.0323 107.698C33.3812 107.735 34.2897 107.716 35.6386 107.664C36.9659 107.664 37.896 107.664 39.2418 107.682C41.1328 107.593 42.7434 107.593 44.6313 107.682H44.6498C46.5407 107.612 48.1514 107.682 50.0392 107.682C50.9323 107.682 50.9323 107.627 51.8408 107.627C52.7494 107.627 52.734 107.735 53.6271 107.735H53.6455C56.1124 107.559 58.3698 107.664 60.8366 107.75C61.7297 107.75 61.7297 107.612 62.6413 107.612C63.5529 107.612 63.5314 107.735 64.4429 107.735C65.3545 107.735 65.3361 107.593 66.2446 107.593C67.1531 107.593 67.1377 107.698 68.0462 107.698C70.5161 107.768 72.7735 107.716 75.2403 107.593C76.5862 107.559 77.4978 107.593 78.8282 107.682H78.8436C80.7345 107.593 82.3452 107.593 84.2361 107.612C85.1262 107.612 85.1262 107.735 86.0378 107.735C86.9493 107.735 86.9309 107.593 87.8394 107.593C89.1883 107.627 90.0968 107.682 91.4457 107.698C92.3388 107.698 92.3388 107.645 93.2473 107.645C94.1558 107.645 94.1404 107.75 95.0489 107.75C95.9574 107.75 95.942 107.645 96.8536 107.645C99.3205 107.768 101.578 107.627 104.045 107.664C105.936 107.768 107.543 107.645 109.453 107.716C110.346 107.716 110.346 107.612 111.254 107.612H111.273C112.619 107.682 113.512 107.735 114.861 107.716C117.327 107.664 119.585 107.664 122.052 107.645H122.07C123.416 107.716 124.309 107.75 125.658 107.716C126.551 107.716 126.551 107.682 127.46 107.682C128.368 107.682 128.353 107.787 129.261 107.787C130.629 107.802 131.503 107.734 132.849 107.645H132.868C134.161 107.664 135.036 108.152 136.018 107.123C136.366 106.773 136.523 106.319 136.523 105.778C136.523 105.167 136.683 105.167 136.683 104.555C136.683 104.488 136.646 104.436 136.594 104.383C136.523 104.313 136.508 104.208 136.579 104.138C136.646 104.067 136.699 103.981 136.717 103.892C136.893 103.004 136.927 103.004 137.084 102.114C137.259 101.223 137.136 101.204 137.312 100.317C137.487 99.4259 137.573 99.4413 137.749 98.5536C137.924 97.6629 137.801 97.6444 137.977 96.7537C138.152 95.866 138.291 95.8998 138.466 95.009C138.713 93.6821 138.87 92.776 139.079 91.4491V91.4307C139.378 90.1038 139.554 89.2161 139.726 87.8707V87.8523C139.902 86.9646 140.025 86.9984 140.2 86.1077C140.376 85.2169 140.271 85.2016 140.444 84.3108C140.619 83.4201 140.567 83.4201 140.742 82.5293C140.918 81.6386 141.056 81.6754 141.232 80.7847C141.349 80.1908 141.466 79.597 141.583 79.0032C141.759 78.1155 141.617 78.0971 141.792 77.2063C141.968 76.3155 141.983 76.3155 142.159 75.4248C142.439 73.5419 142.914 71.9877 143.298 70.1202C143.471 69.2295 143.351 69.2141 143.508 68.3234C143.683 67.4326 143.804 67.451 143.979 66.5787C144.225 65.2518 144.383 64.3426 144.573 63.0004C144.838 61.6734 145.082 60.7827 145.396 59.4742C145.571 58.5835 145.433 58.565 145.608 57.6773C145.723 57.0835 145.839 56.4897 145.956 55.8958C146.236 54.5689 146.464 53.6782 146.726 52.3513C146.902 51.4636 146.883 51.4636 147.059 50.5728C147.444 48.8958 146.221 47.4122 144.592 47.3969Z" fill="#F5F3F1"/>
<path d="M136.246 104.224C134.897 104.208 133.97 104.138 132.622 104.104C131.713 104.104 131.713 104.242 130.82 104.242C130.349 104.242 130.121 104.208 129.874 104.172C129.665 104.138 129.437 104.119 129 104.119C128.144 104.172 127.46 104.208 126.724 104.208C126.305 104.208 125.868 104.208 125.378 104.19C124.851 104.19 124.642 104.172 124.38 104.138C124.186 104.119 123.961 104.104 123.576 104.104C122.665 104.104 122.665 104.19 121.756 104.19C119.271 104.086 116.995 104.172 114.51 104.086C114.267 104.119 114.002 104.138 113.758 104.156C111.569 104.313 109.505 104.208 107.266 104.208C106.968 104.19 106.669 104.172 106.389 104.172C105.462 104.138 104.606 104.119 103.694 104.138C103.081 104.156 102.471 104.172 101.822 104.224C101.526 104.19 101.227 104.172 100.932 104.156C99.3886 104.052 97.9904 104.067 96.3797 104.104C95.3819 104.067 94.4549 104.086 93.5279 104.119C92.6872 104.138 91.8464 104.172 90.9564 104.19H88.9423C88.5912 104.172 88.4002 104.156 88.1908 104.119C87.9814 104.086 87.7535 104.067 87.3316 104.067C86.8419 104.067 86.614 104.086 86.3707 104.086C86.1613 104.104 85.9334 104.104 85.53 104.104H85.2312C84.5506 104.104 83.9716 104.104 83.3588 104.138C82.9061 104.156 82.4318 104.19 81.8898 104.224C81.6465 104.224 81.4709 104.224 81.3293 104.208C80.9289 104.172 80.7534 104.119 80.0881 104.119C79.8787 104.138 79.6847 104.138 79.5092 104.156C78.653 104.19 77.9354 104.208 77.0608 104.172C76.8668 104.172 76.6759 104.156 76.4664 104.156C76.3771 104.156 76.2724 104.156 76.1862 104.172C74.9789 104.208 74.1012 104.208 72.8416 104.172C72.4043 104.172 72.1764 104.156 71.9516 104.138C71.7237 104.119 71.4958 104.104 71.0215 104.104C70.1469 104.138 69.4663 104.156 68.7302 104.156C68.4161 104.156 68.0835 104.156 67.7139 104.138H67.3813C67.0333 104.138 66.8054 104.156 66.6299 104.172C66.3496 104.208 66.1217 104.242 65.5797 104.242C64.6712 104.242 64.6712 104.138 63.7596 104.138H63.7442C62.6756 104.156 61.6439 104.172 60.6276 104.19C59.2633 104.19 57.9144 104.19 56.4977 104.119C55.5892 104.119 55.5892 104.224 54.6776 104.224C54.2926 104.224 54.0647 104.208 53.8738 104.19C53.609 104.172 53.3841 104.138 52.8575 104.138H52.839C50.9327 104.19 49.322 104.224 47.4157 104.224C46.5041 104.224 46.5041 104.119 45.5956 104.119H45.5248C45.3338 104.119 45.1398 104.119 44.9489 104.138C44.4222 104.19 43.9141 104.276 43.6893 104.156C43.5815 104.104 43.5291 104.015 43.5476 103.858C43.7755 102.55 43.951 101.677 44.2313 100.369C44.4038 99.4935 44.3175 99.4782 44.4931 98.6059C44.6686 97.7335 44.7733 97.7489 44.9489 96.8766C45.42 94.4869 45.8758 92.303 46.1715 89.8765C46.347 89.0042 46.4363 89.0226 46.6088 88.1503C46.7844 87.278 46.6796 87.2595 46.8552 86.3872C47.3264 84.5719 47.6066 83.0177 47.8869 81.1686C48.1333 79.8755 48.3242 78.9878 48.5706 77.6793C48.7461 76.804 48.8508 76.8224 49.0079 75.9501C49.1834 75.0777 49.0941 75.0593 49.2543 74.187C49.4267 73.3147 49.5499 73.3331 49.707 72.4761C49.8825 71.6038 49.7255 71.57 49.901 70.7131C50.2151 69.423 50.4615 68.5507 50.6863 67.2576C50.8619 66.3852 50.7572 66.3668 50.9327 65.4945C51.1082 64.6222 51.1791 64.6406 51.3361 63.7683C51.5117 62.8959 51.4224 62.8775 51.5979 62.0052C51.7735 61.1329 51.912 61.1667 52.0876 60.2943C52.2631 59.422 52.1738 59.4036 52.334 58.5313C52.5064 57.6589 52.4387 57.6405 52.6142 56.7866C52.7867 55.9143 52.9099 55.9297 53.0854 55.0758C53.2763 53.7673 53.4519 52.8765 53.7506 51.5834C54.0647 50.3456 54.0647 49.0002 55.1149 48.1463C56.1651 47.2218 57.4616 47.4491 58.7736 47.4307C61.222 47.3262 63.464 47.3447 65.9123 47.4122C67.7848 47.4122 69.3955 47.3262 71.2679 47.4645C73.7163 47.3262 75.9583 47.3262 78.4066 47.4491C80.2791 47.36 81.8898 47.3447 83.7622 47.3447C84.6553 47.3447 84.6553 47.4829 85.5484 47.4829C86.4416 47.4829 86.4416 47.36 87.3316 47.36C88.2216 47.36 88.2247 47.4829 89.1178 47.4829C90.0109 47.4829 90.0109 47.36 90.904 47.36C92.2314 47.3784 93.143 47.36 94.4734 47.3262C95.8038 47.3784 96.7123 47.4491 98.0428 47.4491C99.3732 47.4645 100.282 47.4307 101.612 47.3447C102.943 47.4307 103.854 47.4491 105.181 47.3969C106.075 47.3969 106.075 47.4829 106.968 47.4829C107.861 47.4829 107.861 47.36 108.754 47.36C110.081 47.4307 110.993 47.4645 112.323 47.4307C115.351 47.3078 118.221 47.2924 121.248 47.4491C122.141 47.4491 122.141 47.3447 123.031 47.3447C123.921 47.3447 123.924 47.4307 124.818 47.4307C125.711 47.4307 125.711 47.3262 126.604 47.3262C127.95 47.3784 128.843 47.4122 130.173 47.3784C131.519 47.3447 132.412 47.3784 133.743 47.4491C135.091 47.4122 135.981 47.3785 137.312 47.3447C138.661 47.4122 139.554 47.4122 140.881 47.3447C141.774 47.3447 141.774 47.4645 142.668 47.4645C143.561 47.4645 143.561 47.3262 144.454 47.3262C146.08 47.3447 147.287 48.8282 146.954 50.4316C146.779 51.3223 146.797 51.3223 146.622 52.2131C146.36 53.54 146.132 54.4307 145.852 55.7546C145.735 56.3484 145.619 56.9423 145.504 57.5361C145.328 58.4268 145.467 58.4453 145.291 59.3329C144.977 60.6445 144.734 61.5322 144.469 62.8591C144.278 64.2044 144.121 65.1105 143.875 66.4375C143.699 67.3282 143.576 67.3098 143.404 68.1821C143.228 69.0729 143.351 69.0913 143.191 69.982C142.825 71.8495 142.335 73.4007 142.055 75.305C141.879 76.1958 141.864 76.1958 141.688 77.0835C141.513 77.9742 141.651 77.9926 141.479 78.8834C141.362 79.4752 141.245 80.068 141.128 80.6618C140.952 81.5526 140.814 81.5188 140.638 82.4065C140.462 83.2972 140.515 83.2972 140.339 84.188C140.164 85.0787 140.272 85.0972 140.096 85.9848C139.92 86.8756 139.797 86.8572 139.622 87.7326C139.446 89.0748 139.274 89.984 138.975 91.2925C138.747 92.6348 138.59 93.5255 138.362 94.8708C138.187 95.7585 138.048 95.7247 137.872 96.6155C137.697 97.5062 137.82 97.5216 137.645 98.4124C137.469 99.3031 137.383 99.2847 137.207 100.175C137.032 101.066 137.155 101.085 136.979 101.972C136.804 102.863 136.77 102.863 136.613 103.754C136.579 103.929 136.419 104.086 136.246 104.138C136.314 104.224 136.28 104.224 136.246 104.224Z" stroke="#2E3343" stroke-width="1.49709" stroke-linecap="round" stroke-linejoin="round"/>
<path d="M47.9048 100.489C48.0958 99.1649 48.2713 98.2741 48.5885 96.9656C48.7456 95.6387 48.8657 94.7296 49.1305 93.4211C49.3061 92.5488 49.4108 92.5672 49.5679 91.6764C49.7773 90.3495 49.9528 89.4588 50.2331 88.1503C50.4086 87.278 50.4764 87.278 50.6519 86.4056C50.8274 85.5333 50.6519 85.4965 50.8274 84.6057C51.1416 83.2972 51.4033 82.4249 51.6836 81.1164C51.8591 80.2441 51.6836 80.2072 51.8591 79.3196C52.0347 78.4472 52.1918 78.4626 52.3488 77.5903C52.6137 76.2818 52.7707 75.3726 52.9986 74.0641C53.3282 72.2151 53.7316 70.6455 53.9256 68.7596C54.2059 67.4511 54.3968 66.5603 54.6062 65.2334C54.7818 64.3611 54.905 64.3795 55.0805 63.4888C55.2899 62.1619 55.447 61.2711 55.7272 59.9626C55.9028 59.0903 55.989 59.0903 56.1646 58.218C56.374 56.8911 56.5156 56.0003 56.7251 54.6734C56.9006 53.7826 57.0207 53.8195 57.1962 52.9288C57.3718 52.038 57.2856 52.038 57.4611 51.1473C57.4765 51.0428 57.5658 50.9906 57.6705 50.9906C58.5636 50.9906 58.5636 50.9384 59.4537 50.9384C63.06 51.009 66.5431 50.9906 70.1464 51.0428C72.0188 51.0797 73.611 50.8677 75.4835 50.9046C76.3766 50.9046 76.3766 51.0275 77.2697 51.0275C78.1628 51.0275 78.1628 50.9568 79.0559 50.9568C79.949 50.9568 79.9459 51.0275 80.8391 51.0275C81.7322 51.0275 81.7322 50.92 82.6253 50.92C83.5184 50.92 83.5184 51.0275 84.4084 51.0275C85.2984 51.0275 85.3015 50.9384 86.1946 50.9384C87.0878 50.9384 87.0877 51.0428 87.9809 51.0428C89.3082 51.0275 90.2198 50.9906 91.5502 50.92C92.4433 50.92 92.4433 51.0428 93.3334 51.0428C94.2234 51.0428 94.2265 50.9046 95.1196 50.9046C96.0127 50.9046 96.0127 50.9722 96.9058 50.9722C98.7783 50.8524 100.37 50.9568 102.243 51.0275C104.115 50.9046 105.708 50.8524 107.58 51.009C108.473 51.009 108.473 50.92 109.363 50.92C110.253 50.92 110.256 51.0428 111.149 51.0428C112.042 51.0428 112.042 50.9384 112.936 50.9384C113.829 50.9384 113.826 50.9906 114.719 50.9906C115.612 50.9906 115.612 50.8862 116.505 50.8862C117.835 50.9568 118.729 50.9722 120.074 50.92C121.405 50.9722 122.298 51.0275 123.644 51.009C125.516 51.0612 127.108 50.9384 128.999 51.009C130.33 50.9384 131.223 50.9384 132.569 51.009C134.441 50.9568 136.033 50.8677 137.924 50.9906C139.273 50.9906 140.148 50.9722 141.494 50.92C142.387 50.92 142.387 50.9568 143.28 50.9568C143.403 50.9568 143.418 51.0612 143.403 51.1841C143.157 52.4926 142.981 53.3987 142.738 54.7103C142.544 56.0341 142.368 56.9248 142.036 58.2333C141.863 59.1057 141.983 59.1425 141.811 60.0148C141.635 60.8872 141.531 60.8687 141.355 61.7595C141.161 63.0864 140.97 63.9771 140.671 65.2856C140.443 66.6125 140.271 67.5033 140.006 68.8118C139.378 71.7973 138.941 74.6416 138.38 77.6425C138.204 78.5148 138.081 78.4995 137.906 79.3871C137.733 80.2625 137.715 80.2625 137.539 81.1502C137.364 82.4771 137.241 83.3863 136.979 84.6948C136.508 86.5254 136.246 88.1165 135.966 89.984C135.562 91.8331 135.3 93.4211 134.863 95.2548C134.426 97.0854 134.093 98.6581 133.794 100.541C133.776 100.648 133.708 100.648 133.619 100.648C132.726 100.648 132.726 100.787 131.836 100.787C129.963 100.664 128.371 100.787 126.495 100.753C125.168 100.734 124.257 100.664 122.926 100.63C122.033 100.63 122.033 100.753 121.143 100.753C120.253 100.753 120.25 100.682 119.357 100.682C118.464 100.682 118.464 100.787 117.571 100.787C116.677 100.787 116.681 100.664 115.787 100.664C114.894 100.664 114.894 100.753 114.001 100.753C112.671 100.805 111.762 100.805 110.432 100.753C109.101 100.787 108.193 100.787 106.862 100.768C105.969 100.768 105.969 100.682 105.076 100.682C104.183 100.682 104.183 100.753 103.293 100.753C101.963 100.734 101.051 100.753 99.7206 100.787C98.8306 100.787 98.8306 100.682 97.9375 100.682C97.0444 100.682 97.0444 100.805 96.1513 100.805C95.2582 100.805 95.2582 100.701 94.3681 100.701C93.4781 100.701 93.475 100.753 92.5819 100.753C90.7095 100.63 89.1173 100.753 87.2448 100.787C84.7934 100.734 82.5729 100.716 80.1215 100.701C78.7911 100.682 77.901 100.664 76.5521 100.701C75.659 100.701 75.659 100.768 74.7659 100.768C73.8728 100.768 73.8759 100.682 72.9828 100.682C71.6523 100.768 70.7592 100.82 69.4134 100.787C68.083 100.805 67.1714 100.753 65.8409 100.682C64.9509 100.682 64.9509 100.805 64.0578 100.805C63.1647 100.805 63.1647 100.701 62.2716 100.701C61.3785 100.701 61.3785 100.734 60.4884 100.734C59.5984 100.734 59.5953 100.82 58.7022 100.82C57.8091 100.82 57.8091 100.701 56.916 100.701H55.1329C54.2397 100.701 54.2397 100.82 53.3466 100.82C52.0008 100.805 51.1262 100.734 49.7773 100.701C48.9365 100.559 47.7662 101.1 47.9048 100.489Z" stroke="#2E3343" stroke-width="1.49709" stroke-linecap="round" stroke-linejoin="round"/>
<path d="M5.08187 107.664C6.4123 107.682 7.33929 107.716 8.68819 107.75C10.576 107.645 12.1867 107.698 14.0777 107.645C14.9708 107.645 14.9708 107.75 15.8793 107.75C16.7878 107.75 16.7724 107.716 17.684 107.716C18.5956 107.716 18.574 107.593 19.4856 107.593C20.3972 107.593 20.3787 107.75 21.2872 107.75C22.1957 107.75 22.1803 107.698 23.0888 107.698C24.4377 107.75 25.3462 107.735 26.6952 107.645C27.5883 107.645 27.5883 107.716 28.4968 107.716C29.4053 107.716 29.3899 107.593 30.2984 107.593C31.2069 107.593 31.1915 107.682 32.1031 107.682C33.4489 107.716 34.3605 107.698 35.7063 107.645C37.0368 107.645 37.9637 107.645 39.3127 107.664C41.2036 107.575 42.8112 107.575 44.7021 107.664C46.593 107.593 48.2037 107.664 50.0916 107.664C50.9847 107.664 50.9847 107.612 51.8963 107.612C52.8079 107.612 52.7863 107.716 53.6979 107.716C56.1647 107.541 58.4221 107.645 60.889 107.735C61.7821 107.735 61.7821 107.593 62.6937 107.593C63.6053 107.593 63.5837 107.716 64.4953 107.716C65.4069 107.716 65.3884 107.575 66.2969 107.575C67.2054 107.575 67.19 107.682 68.0985 107.682C70.5685 107.75 72.8259 107.698 75.2927 107.575C76.6385 107.541 77.5501 107.575 78.8959 107.664C80.7869 107.575 82.3976 107.575 84.3039 107.593C85.197 107.593 85.197 107.716 86.1086 107.716C87.0202 107.716 86.9986 107.575 87.9102 107.575C89.256 107.612 90.1676 107.664 91.5134 107.682C92.4066 107.682 92.4065 107.627 93.3181 107.627C94.2297 107.627 94.2112 107.735 95.1198 107.735C96.0283 107.735 96.0129 107.627 96.9214 107.627C99.3882 107.75 101.649 107.612 104.116 107.645C106.003 107.75 107.614 107.627 109.523 107.698C110.414 107.698 110.414 107.593 111.325 107.593C112.671 107.664 113.583 107.716 114.928 107.698C117.414 107.645 119.656 107.645 122.141 107.627C123.487 107.698 124.38 107.735 125.744 107.698C126.637 107.698 126.637 107.664 127.546 107.664C128.454 107.664 128.439 107.768 129.351 107.768C130.715 107.787 131.608 107.716 132.954 107.627C134.25 107.645 135.143 108.152 136.104 107.105C136.455 106.755 136.612 106.303 136.612 105.76C136.612 105.151 136.77 105.151 136.77 104.54C136.77 104.365 136.56 104.242 136.385 104.242C135.491 104.242 135.491 104.19 134.583 104.19C133.253 104.156 132.326 104.138 130.995 104.138C130.102 104.138 130.102 104.276 129.193 104.276C128.285 104.276 128.3 104.294 127.389 104.294C126.477 104.294 126.496 104.138 125.587 104.138C123.12 104.276 120.863 104.399 118.411 104.19C117.081 104.224 116.154 104.276 114.824 104.276C113.934 104.276 113.934 104.156 113.022 104.156C111.692 104.224 110.765 104.224 109.434 104.156C108.541 104.156 108.541 104.138 107.633 104.138C106.724 104.138 106.739 104.242 105.831 104.242C104.501 104.208 103.574 104.156 102.243 104.156C100.352 104.224 98.7415 104.313 96.8536 104.242C95.4862 104.276 94.6301 104.242 93.2658 104.156C91.9354 104.156 91.0084 104.208 89.6779 104.261C88.7848 104.261 88.7848 104.156 87.8732 104.156C86.5274 104.119 85.6158 104.119 84.2885 104.172C82.9396 104.156 82.0311 104.19 80.7006 104.276C79.8075 104.276 79.8075 104.156 78.8959 104.156C77.9844 104.156 78.0059 104.208 77.0943 104.208C74.6275 104.19 72.3701 104.067 69.9186 104.261C69.0286 104.261 69.0286 104.156 68.117 104.156C66.7712 104.224 65.8781 104.224 64.5292 104.156C63.1833 104.19 62.2902 104.224 60.9413 104.242C59.0535 104.086 57.4428 104.086 55.5519 104.19C54.6588 104.19 54.6588 104.224 53.7502 104.224C52.8417 104.224 52.8571 104.104 51.9486 104.104C51.0401 104.104 51.0555 104.224 50.1439 104.224C48.7981 104.19 47.905 104.138 46.5561 104.104C45.2103 104.172 44.3172 104.208 42.9713 104.172C42.0782 104.172 42.0782 104.261 41.1666 104.261C40.255 104.261 40.2735 104.119 39.365 104.119C38.4565 104.119 38.4719 104.208 37.5634 104.208C35.6725 104.224 34.0618 104.224 32.1739 104.119C30.283 104.138 28.6723 104.138 26.7814 104.276C25.8914 104.276 25.8914 104.138 24.9798 104.138C24.0682 104.138 24.0867 104.276 23.1781 104.276C20.1323 104.224 17.2436 104.19 14.2008 104.261C12.8519 104.208 11.9588 104.156 10.613 104.138C9.71989 104.138 9.71989 104.276 8.81138 104.276C7.90287 104.276 7.91827 104.224 7.00668 104.224C6.09509 104.224 6.11357 104.156 5.20506 104.156C4.0163 104.224 3.13859 103.84 3 104.503C3 105.114 3.13859 105.114 3.13859 105.726C3.15706 106.825 3.99782 107.682 5.08187 107.664Z" stroke="#2E3343" stroke-width="1.49709" stroke-linecap="round" stroke-linejoin="round"/>
<path d="M101.245 92.3552C102.154 92.3552 102.154 92.3214 103.047 92.3214C103.94 92.3214 103.94 92.1832 104.848 92.1832C105.757 92.1832 105.741 92.3399 106.653 92.3399C107.565 92.3399 107.562 92.2354 108.455 92.2354C109.348 92.2354 109.363 92.3552 110.256 92.3552C111.149 92.3552 111.168 92.2354 112.061 92.2354C113.407 92.2692 114.318 92.3214 115.664 92.3552" stroke="#2E3343" stroke-width="1.49709" stroke-linecap="round" stroke-linejoin="round"/>
<path d="M49.4629 92.3552C50.3375 92.3552 50.3375 92.3214 51.2122 92.3214C52.0868 92.3214 52.0868 92.1832 52.9614 92.1832C53.8361 92.1832 53.8361 92.3399 54.7107 92.3399C55.5853 92.3399 55.5884 92.2354 56.463 92.2354C57.3377 92.2354 57.3377 92.3552 58.2123 92.3552C59.0869 92.3552 59.0869 92.2354 59.9616 92.2354C60.8362 92.2354 60.8362 92.303 61.7108 92.303C62.5855 92.303 62.5855 92.3737 63.4632 92.3737C64.3409 92.3737 73.6015 92.2354 74.4762 92.2354" stroke="#2E3343" stroke-width="1.49709" stroke-linecap="round" stroke-linejoin="round"/>
<path d="M87.1398 100.701C87.5586 98.7256 87.9959 97.0516 88.2608 95.0613C88.2762 94.9753 88.2053 94.9046 88.1191 94.9046C87.2445 94.9046 87.2445 94.8524 86.3852 94.8524C84.5497 94.8524 82.9914 95.0275 81.1713 94.923C80.2967 94.923 80.2967 94.8186 79.4405 94.8186C78.144 94.8708 77.2509 94.8708 75.9574 94.8186C75.0828 94.8186 75.0828 94.9568 74.2081 94.9568C74.1373 94.9568 74.1188 94.9384 74.1188 95.009C73.6292 96.9994 73.4013 98.6396 72.9824 100.63" stroke="#2E3343" stroke-width="1.49709" stroke-linecap="round" stroke-linejoin="round"/>
<path d="M69.6045 92.3552C70.4976 92.3552 70.4976 92.3214 71.3907 92.3214C72.2838 92.3214 72.2838 92.1832 73.1739 92.1832C74.0639 92.1832 74.067 92.3399 74.9601 92.3399C75.8532 92.3399 75.8532 92.2354 76.7463 92.2354C77.6394 92.2354 77.6363 92.3552 78.5294 92.3552C79.4226 92.3552 79.4226 92.2354 80.3157 92.2354C81.2088 92.2354 81.2088 92.303 82.0988 92.303C82.9888 92.303 82.9919 92.3737 83.885 92.3737C84.7781 92.3737 84.7781 92.2354 85.6712 92.2354C86.5644 92.2354 86.5613 92.2692 87.4544 92.2692C89.3453 92.2508 90.9375 92.2508 92.8285 92.2508C94.1743 92.3214 99.7485 92.3214 101.094 92.2692" stroke="#2E3343" stroke-width="1.49709" stroke-linecap="round" stroke-linejoin="round"/>
<path d="M126.551 94.0845C127.355 94.189 127.669 94.275 127.916 93.4395C128.073 92.8805 127.179 92.2508 126.795 93.1938C126.708 93.8234 126.671 94.6589 125.079 94.6958C123.487 94.7326 123.505 93.891 123.61 93.3166C123.644 92.3552 122.612 92.5672 122.612 93.1938C122.631 94.2074 122.874 94.1183 123.61 94.0323" stroke="#2E3343" stroke-width="1.49709" stroke-linecap="round" stroke-linejoin="round"/>
<path d="M123.12 92.5487C123.136 92.217 123.277 91.8853 123.539 91.4307C123.12 91.5351 122.874 91.36 122.874 91.1358C122.874 90.8563 123.311 90.4877 123.89 90.2973C125.658 89.7198 127.512 90.4877 127.321 92.5825" stroke="#2E3343" stroke-width="1.49709" stroke-linecap="round" stroke-linejoin="round"/>
<path d="M126.219 91.572C125.92 92.0942 125.412 92.6348 125.009 92.4075C124.784 92.2877 125.203 91.6058 124.904 91.7809C124.171 92.1833 124.171 92.5672 123.469 92.4781" stroke="#2E3343" stroke-width="1.49709" stroke-linecap="round" stroke-linejoin="round"/>
<path d="M124.309 94.6774C124.309 94.9047 124.171 95.7063 123.383 96.4589C122.717 97.1039 121.824 97.2268 121.054 97.6629C120.441 97.9946 119.444 100.053 119.339 100.541" stroke="#2E3343" stroke-width="1.49709" stroke-linecap="round" stroke-linejoin="round"/>
<path d="M125.868 94.6774C125.517 97.3312 127.269 96.5111 128.529 97.8902C129.157 98.7103 129.018 99.6164 129.228 100.541" stroke="#2E3343" stroke-width="1.49709" stroke-linecap="round" stroke-linejoin="round"/>
<path d="M121.195 100.541C121.229 99.8253 121.211 99.4076 121.334 99.1465" stroke="#2E3343" stroke-width="1.49709" stroke-linecap="round" stroke-linejoin="round"/>
<path d="M127.669 99.2693C127.617 99.8252 127.617 99.9143 127.479 100.541" stroke="#2E3343" stroke-width="1.49709" stroke-linecap="round" stroke-linejoin="round"/>
<path d="M126.252 67.6599C125.449 69.1957 126.058 70.452 127.669 70.9588C128.23 71.1338 128.947 71.0448 129.751 71.011C130.505 70.9926 131.171 70.9588 131.694 70.7315C132.886 70.2431 134.127 68.7227 133.761 67.6783" stroke="#2E3343" stroke-width="1.49709" stroke-linecap="round" stroke-linejoin="round"/>
<path d="M133.847 66.7354C134.389 65.7033 135.387 66.0719 135.738 67.0487C136.052 68.0623 134.968 69.2141 133.918 69.1251" stroke="#2E3343" stroke-width="1.49709" stroke-linecap="round" stroke-linejoin="round"/>
<path d="M126.025 66.3331C124.904 65.4423 123.977 67.0303 124.38 68.0961C124.713 69.1773 124.852 69.2818 125.886 69.4384" stroke="#2E3343" stroke-width="1.49709" stroke-linecap="round" stroke-linejoin="round"/>
<path d="M125.448 65.8109C125.501 64.8833 125.972 64.1676 126.234 63.9249" stroke="#2E3343" stroke-width="1.49709" stroke-linecap="round" stroke-linejoin="round"/>
<path d="M135.264 63.8881C135.596 64.272 135.929 64.8679 135.701 65.2856C135.562 65.5651 135.23 65.3563 135.091 65.2672C135.054 65.2334 134.983 65.2856 134.983 65.3378C134.968 65.7402 134.863 65.7402 134.863 66.1395" stroke="#2E3343" stroke-width="1.49709" stroke-linecap="round" stroke-linejoin="round"/>
<path d="M127.303 70.9741C126.97 71.7789 126.462 73.1211 125.606 73.9075C125.168 74.2914 124.571 74.5525 123.853 74.8166C122.717 75.3388 121.371 75.5323 119.988 75.5477" stroke="#2E3343" stroke-width="1.49709" stroke-linecap="round" stroke-linejoin="round"/>
<path d="M131.817 70.8359C131.851 71.2537 131.974 71.9171 132.045 72.5468C132.132 73.1918 132.184 73.8553 132.553 74.1532C132.849 74.3959 133.443 74.5525 134.093 74.7798C135.054 75.2344 136.28 75.5846 137.349 75.6368" stroke="#2E3343" stroke-width="1.49709" stroke-linecap="round" stroke-linejoin="round"/>
<path d="M127.269 63.9402C127.004 64.3088 126.813 64.9876 127.198 65.2672C127.669 65.6173 128.039 65.0767 128.843 64.4993C129.175 64.2566 128.492 65.0245 129 65.1289C129.508 65.2334 129.893 64.6744 130.469 63.8358" stroke="#2E3343" stroke-width="1.49709" stroke-linecap="round" stroke-linejoin="round"/>
<path d="M128.667 68.95C128.876 69.3862 129.964 69.3186 130.278 68.8456" stroke="#2E3343" stroke-width="1.49709" stroke-linecap="round" stroke-linejoin="round"/>
<path d="M125.554 73.9259C126.2 74.3621 127.968 74.6754 129.052 74.7644C130.207 74.6938 131.433 74.4665 132.569 74.101" stroke="#2E3343" stroke-width="1.49709" stroke-linecap="round" stroke-linejoin="round"/>
<path d="M128.423 80.7663C129.313 80.8707 129.664 80.9414 129.926 79.9984C130.102 79.3871 129.051 78.6715 128.633 79.7035C128.58 80.1397 128.562 80.6465 128.143 80.9936C127.878 81.2209 127.493 81.3253 126.813 81.3437C125.464 81.4666 124.974 80.9751 125.183 79.8417C125.22 78.779 124.152 79.0032 124.17 79.7035C124.186 80.8185 124.398 80.8553 125.22 80.7663" stroke="#2E3343" stroke-width="1.49709" stroke-linecap="round" stroke-linejoin="round"/>
<path d="M124.799 79.0216C124.851 77.9405 125.412 76.7518 126.97 76.7364C128.772 76.6473 129.366 77.3108 129.314 79.0923" stroke="#2E3343" stroke-width="1.49709" stroke-linecap="round" stroke-linejoin="round"/>
<path d="M127.792 77.6087C126.936 78.4995 126.043 78.1677 124.903 78.8312" stroke="#2E3343" stroke-width="1.49709" stroke-linecap="round" stroke-linejoin="round"/>
<path d="M127.826 77.6609C127.826 77.9926 128.316 78.481 128.633 79.6144" stroke="#2E3343" stroke-width="1.49709" stroke-linecap="round" stroke-linejoin="round"/>
<path d="M125.99 81.6048C125.448 84.4859 124.712 84.3446 122.227 85.3582C121.596 85.7575 120.564 88.0796 120.493 88.6387" stroke="#2E3343" stroke-width="1.49709" stroke-linecap="round" stroke-linejoin="round"/>
<path d="M127.599 81.5342C127.599 82.5816 127.355 83.9085 128.248 84.4675C130.906 85.4258 131.205 85.8989 131.276 88.6571" stroke="#2E3343" stroke-width="1.49709" stroke-linecap="round" stroke-linejoin="round"/>
<path d="M124.731 80.8553C124.679 81.2024 124.398 81.9888 124.204 82.8089C124.013 83.5952 123.89 84.4153 123.696 84.7654" stroke="#2E3343" stroke-width="1.49709" stroke-linecap="round" stroke-linejoin="round"/>
<path d="M129.018 80.9598C129.051 82.0072 128.824 83.8225 129.156 84.6764" stroke="#2E3343" stroke-width="1.49709" stroke-linecap="round" stroke-linejoin="round"/>
<path d="M134.617 59.3514C135.421 59.4558 135.421 59.4036 136.175 59.0534C136.613 58.8445 136.979 58.5313 137.173 57.9016C137.469 56.5777 135.686 55.773 135.125 57.4654C134.916 58.5497 134.688 59.7875 133.444 60.3128C132.184 60.8011 129.419 60.8349 128.877 59.3329C128.686 58.8108 128.756 58.1995 128.843 57.7111C129 55.9481 127.004 56.0003 126.899 57.4501C126.899 58.1135 127.198 58.4975 127.46 58.777C128.02 59.3176 128.054 59.4036 128.809 59.3329" stroke="#2E3343" stroke-width="1.49709" stroke-linecap="round" stroke-linejoin="round"/>
<path d="M127.845 56.2614C128.424 53.1714 130.644 51.6878 133.795 52.2991C135.966 52.4404 136.385 54.3785 136.351 56.2798" stroke="#2E3343" stroke-width="1.49709" stroke-linecap="round" stroke-linejoin="round"/>
<path d="M135.107 57.4316C134.792 56.0863 134.075 55.2508 132.886 55.3368C132.839 55.3368 132.809 55.3133 132.797 55.2662C132.674 54.8485 132.64 54.8485 132.517 54.4307C132.501 54.3785 132.464 54.4123 132.446 54.4645C132.289 54.9007 132.202 54.9713 132.045 55.389C130.382 55.4075 129.298 55.0757 128.809 57.0999" stroke="#2E3343" stroke-width="1.49709" stroke-linecap="round" stroke-linejoin="round"/>
<path d="M130.083 60.3804C130.206 61.1851 129.892 62.8407 129.418 63.7499" stroke="#2E3343" stroke-width="1.49709" stroke-linecap="round" stroke-linejoin="round"/>
<path d="M133.111 60.7305C133.043 61.7963 132.972 62.8959 133.077 63.8542" stroke="#2E3343" stroke-width="1.49709" stroke-linecap="round" stroke-linejoin="round"/>
<path d="M127.811 59.1609C127.669 59.8736 127.442 61.1145 127.389 61.8486C127.374 61.9161 127.374 61.9684 127.442 61.9684C127.827 61.9161 128.914 61.7441 129.875 61.7595" stroke="#2E3343" stroke-width="1.49709" stroke-linecap="round" stroke-linejoin="round"/>
<path d="M136.157 59.1609C136.157 59.892 135.929 60.6783 135.824 61.3755C135.753 61.9008 135.3 62.1956 134.792 62.039C134.336 61.8823 133.742 61.7257 133.043 61.6551" stroke="#2E3343" stroke-width="1.49709" stroke-linecap="round" stroke-linejoin="round"/>
<path d="M124.836 84.2218C125.517 84.6242 127.075 84.6948 128.002 84.2925" stroke="#2E3343" stroke-width="1.49709" stroke-linecap="round" stroke-linejoin="round"/>
<path d="M122.646 88.6387C122.489 87.8708 122.455 87.364 122.579 87.0845" stroke="#2E3343" stroke-width="1.49709" stroke-linecap="round" stroke-linejoin="round"/>
<path d="M129.821 87.2258C129.541 87.837 129.455 87.923 129.018 88.6049" stroke="#2E3343" stroke-width="1.49709" stroke-linecap="round" stroke-linejoin="round"/>
<path d="M131.346 57.4501C131.204 58.9337 128.509 59.2132 128.685 57.4501C128.861 55.8437 131.451 55.687 131.346 57.4501Z" stroke="#2E3343" stroke-width="1.49709" stroke-linecap="round" stroke-linejoin="round"/>
<path d="M134.546 57.4317C134.46 58.1474 133.881 58.7217 133.163 58.7217C131.432 58.688 132.027 56.071 133.48 56.1232C134.213 56.1232 134.635 56.716 134.546 57.4317Z" stroke="#2E3343" stroke-width="1.49709" stroke-linecap="round" stroke-linejoin="round"/>
<path d="M131.38 57.4501C131.623 57.2566 131.783 57.1521 132.027 57.4501" stroke="#2E3343" stroke-width="1.49709" stroke-linecap="round" stroke-linejoin="round"/>
<path d="M123.416 96.4589C124.1 96.981 125.412 96.9657 126.234 96.5633" stroke="#2E3343" stroke-width="1.49709" stroke-linecap="round" stroke-linejoin="round"/>
<path d="M124.047 50.9568C123.557 52.8059 123.348 54.4123 122.978 56.2798C122.56 58.1473 122.402 59.7537 121.999 61.6212C121.543 63.4703 121.334 65.0767 120.915 66.9442C120.53 68.8117 120.093 70.3659 119.831 72.2672C119.618 73.5942 119.427 74.5003 119.113 75.8118C118.938 76.6995 119.006 76.7179 118.833 77.6087C118.516 78.9356 118.359 79.8233 118.183 81.1686C118.011 82.0594 117.903 82.0409 117.731 82.9317C117.555 83.8224 117.626 83.8378 117.45 84.7285C117.204 86.0555 116.976 86.9462 116.643 88.2547C116.453 89.6 116.329 90.5061 116.049 91.8331C115.735 93.719 115.436 95.307 114.928 97.1561C114.737 98.5014 114.595 99.4075 114.3 100.734" stroke="#2E3343" stroke-width="1.49709" stroke-linecap="round" stroke-linejoin="round"/>
<path d="M119.219 75.5323C121.615 75.5661 123.82 75.4955 126.234 75.5661C127.109 75.5661 127.109 75.4801 127.984 75.4801C128.858 75.4801 128.861 75.5661 129.736 75.5661C131.048 75.5999 131.941 75.5661 133.234 75.4955C135.073 75.5661 136.647 75.5999 138.504 75.6183" stroke="#2E3343" stroke-width="1.49709" stroke-linecap="round" stroke-linejoin="round"/>
<path d="M116.801 88.7093C118.658 88.6571 120.216 88.6571 122.052 88.7246C123.906 88.6909 125.464 88.568 127.303 88.7246C128.177 88.7246 128.177 88.5864 129.052 88.5864C129.926 88.5864 129.926 88.6049 130.801 88.6049C132.658 88.6386 134.213 88.6202 136.07 88.7431" stroke="#2E3343" stroke-width="1.49709" stroke-linecap="round" stroke-linejoin="round"/>
<path d="M121.633 63.8021C122.507 63.8021 122.507 63.9065 123.382 63.9065C124.257 63.9065 124.257 63.7683 125.131 63.7683C126.006 63.7683 126.006 63.8881 126.881 63.8881C127.755 63.8881 127.758 63.9065 128.633 63.9065C129.508 63.9065 129.508 63.7837 130.382 63.7837C132.221 63.9403 133.795 63.8021 135.633 63.7837C136.508 63.7837 136.508 63.925 137.382 63.925C138.694 63.8543 139.569 63.8205 140.881 63.8543" stroke="#2E3343" stroke-width="1.49709" stroke-linecap="round" stroke-linejoin="round"/>
<path d="M110.679 72.2427C110.34 74.4266 109.601 76.6136 108.458 78.6868C107.926 79.6544 107.174 80.5421 106.635 81.5004C106.118 82.4188 105.428 83.0454 104.566 83.7979C101.024 86.894 96.6539 89.21 91.7264 89.21C91.2213 89.21 90.7224 89.1854 90.2296 89.1363C87.7197 88.8875 85.4931 87.923 83.4112 86.9094C82.5119 86.4702 82.0407 85.6501 81.4956 84.9344C80.7411 83.9392 79.9773 82.944 79.4199 81.8444C78.9641 80.9444 78.61 79.9984 78.3543 79.0247C78.2219 78.5241 78.1234 78.0142 78.0341 77.5012C77.9571 77.0436 78.0217 76.589 77.9632 76.1375C77.8308 75.1269 77.837 74.0918 77.9478 73.0536C78.1788 70.8974 78.727 68.5569 80.1036 66.5696C80.8982 65.4239 81.548 64.226 82.3025 63.0649C82.6228 62.5735 82.9154 62.0851 83.3742 61.6766C83.8516 61.2527 84.1288 60.7336 84.5476 60.2821C84.9664 59.8306 85.4869 59.4374 85.9858 59.0627C87.0175 58.2886 88.1539 57.6191 89.3519 57.0631C91.7233 55.9666 94.3657 55.297 96.928 55.2847C96.9526 55.2847 96.9773 55.2847 97.0019 55.2847C99.21 55.2847 101.098 55.7976 102.967 56.5348C104.886 57.2904 106.487 58.7033 107.67 60.1377C108.187 60.7643 108.708 61.4032 109.019 62.1312C109.207 62.5673 109.398 63.0035 109.619 63.4274C109.906 63.9802 109.875 64.5976 110.201 65.1351C110.577 65.7525 110.639 66.5665 110.734 67.2729C110.959 68.8978 110.934 70.5749 110.676 72.2489L110.679 72.2427Z" fill="#F3C259"/>
<path d="M107.642 71.9908C107.303 74.1747 106.564 76.3617 105.421 78.435C104.888 79.4025 104.137 80.2902 103.598 81.2485C103.081 82.1669 102.391 82.7935 101.528 83.546C97.9869 86.6422 93.6168 88.9581 88.6893 88.9581C88.1842 88.9581 87.6853 88.9335 87.1925 88.8844C84.6826 88.6356 82.456 87.6711 80.3741 86.6575C79.4748 86.2183 79.0036 85.3982 78.4585 84.6825C77.704 83.6873 76.9402 82.6921 76.3828 81.5925C75.927 80.6926 75.5729 79.7465 75.3172 78.7728C75.1848 78.2722 75.0863 77.7623 74.9969 77.2493C74.92 76.7917 74.9846 76.3371 74.9261 75.8856C74.7937 74.875 74.7998 73.8399 74.9107 72.8017C75.1417 70.6455 75.6899 68.305 77.0665 66.3177C77.8611 65.172 78.5109 63.9741 79.2654 62.813C79.5857 62.3216 79.8783 61.8332 80.3371 61.4247C80.8145 61.0008 81.0917 60.4817 81.5105 60.0302C81.9293 59.5787 82.4498 59.1855 82.9487 58.8108C83.9804 58.0368 85.1168 57.3672 86.3148 56.8112C88.6862 55.7147 91.3286 55.0451 93.8909 55.0328C93.9155 55.0328 93.9401 55.0328 93.9648 55.0328C96.1729 55.0328 98.0608 55.5457 99.9301 56.2829C101.849 57.0385 103.45 58.4514 104.633 59.8858C105.15 60.5124 105.671 61.1513 105.982 61.8793C106.17 62.3154 106.361 62.7516 106.582 63.1755C106.869 63.7283 106.838 64.3457 107.164 64.8833C107.54 65.5006 107.602 66.3146 107.697 67.0211C107.922 68.6459 107.897 70.323 107.639 71.997L107.642 71.9908Z" stroke="#2E3343" stroke-width="1.49709" stroke-linecap="round" stroke-linejoin="round"/>
<path d="M98.3777 77.9927L94.3618 73.2533C94.0815 72.9246 94.1647 72.3902 94.5466 72.0584L100.038 67.319C100.42 66.9904 100.503 66.4559 100.222 66.1242L98.8581 64.5116C98.5779 64.183 98.042 64.183 97.6601 64.5116L92.1691 69.251C91.7872 69.5797 91.2513 69.5797 90.971 69.251L86.9551 64.5116C86.6749 64.183 86.139 64.183 85.7571 64.5116L83.8908 66.1242C83.509 66.4529 83.4258 66.9873 83.7061 67.319L87.722 72.0584C88.0022 72.3871 87.9191 72.9215 87.5372 73.2533L82.0461 77.9927C81.6642 78.3213 81.5811 78.8558 81.8613 79.1875L83.2256 80.8001C83.5059 81.1287 84.0417 81.1287 84.4236 80.8001L89.9147 76.0607C90.2966 75.732 90.8325 75.732 91.1127 76.0607L95.1286 80.8001C95.4089 81.1287 95.9448 81.1287 96.3266 80.8001L98.1929 79.1875C98.5748 78.8589 98.658 78.3244 98.3777 77.9927Z" fill="white" stroke="#2E3343" stroke-width="1.49709" stroke-linecap="round" stroke-linejoin="round"/>
<path d="M91.966 41.994C91.2823 39.8009 91.427 39.0945 90.7402 36.8922" stroke="#2E3343" stroke-width="1.49709" stroke-linecap="round" stroke-linejoin="round"/>
<path d="M98.8525 42.8356C99.5578 41.6347 99.952 40.3292 100.549 39.0822C100.848 38.4556 101.938 36.0168 101.938 36.0168" stroke="#2E3343" stroke-width="1.49709" stroke-linecap="round" stroke-linejoin="round"/>
<path d="M95.1348 43.4499C95.2241 43.4284 95.3442 41.4964 95.4335 41.4749C95.5444 40.833 95.4212 40.1326 95.5413 39.4477C95.7507 38.2498 95.6768 36.9505 95.7014 35.7219C95.723 34.6438 95.9447 29.072 95.9632 28" stroke="#2E3343" stroke-width="1.49709" stroke-linecap="round" stroke-linejoin="round"/>
</g>
<defs>
<clipPath id="clip0_160_2974">
<rect width="165" height="108" fill="white"/>
</clipPath>
</defs>
</svg>
