<svg width="26" height="32" viewBox="0 0 26 32" fill="none" xmlns="http://www.w3.org/2000/svg">
<path d="M17.0645 8.95676L6.52368 12.1017L5.09414 7.31045C4.79083 6.29387 4.90378 5.19843 5.40814 4.26513C5.9125 3.33182 6.76696 2.6371 7.78354 2.33379C8.80013 2.03048 9.89556 2.14343 10.8289 2.64779C11.7622 3.15215 12.4569 4.00661 12.7602 5.02319C12.836 5.27734 13.0097 5.49095 13.243 5.61704C13.4764 5.74313 13.7502 5.77137 14.0044 5.69554C14.2585 5.61971 14.4721 5.44603 14.5982 5.21271C14.7243 4.97938 14.7525 4.70552 14.6767 4.45138C14.2218 2.9265 13.1797 1.64482 11.7797 0.888277C10.3798 0.131736 8.7366 -0.0376877 7.21173 0.417276C5.68685 0.87224 4.40517 1.91432 3.64863 3.31428C2.89209 4.71424 2.72266 6.35739 3.17763 7.88226L4.60716 12.6736L3.64891 12.9595C2.633 13.2638 1.77929 13.9587 1.2751 14.8917C0.770907 15.8246 0.657409 16.9195 0.959507 17.9361L4.10449 28.4769C4.4088 29.4929 5.10369 30.3466 6.03668 30.8508C6.96968 31.3549 8.06457 31.4684 9.08114 31.1663L22.4967 27.1636C23.5127 26.8593 24.3664 26.1644 24.8706 25.2314C25.3747 24.2985 25.4882 23.2036 25.1861 22.187L22.0412 11.6462C21.7369 10.6302 21.042 9.77654 20.109 9.27235C19.176 8.76816 18.0811 8.65466 17.0645 8.95676Z" fill="#383B45"/>
</svg>
