<svg width="180" height="180" viewBox="0 0 180 180" fill="none" xmlns="http://www.w3.org/2000/svg">
<path d="M97.9316 42.9369C97.0239 42.9369 96.3616 42.972 95.7694 43.0424C96.6771 43.0072 97.5498 43.0072 98.4224 42.972C98.2471 42.972 98.1069 42.9369 97.9355 42.9369H97.9316Z" fill="#F5B731" fill-opacity="0.8"/>
<path d="M37.3522 43.0072C36.0627 43.0424 34.7693 43.1127 33.5149 43.1478H34.2824C35.7121 43.1478 36.5848 43.0775 37.3522 43.0072Z" fill="#F5B731" fill-opacity="0.8"/>
<path d="M163.673 125.479C160.95 117.956 158.893 111.483 156.902 103.752C153.832 93.7788 150.236 84.8917 147.899 74.7116C146.118 66.9105 143.816 60.4376 141.338 52.9138C139.211 46.3354 135.128 44.2025 130.103 43.6049C131.322 44.0268 132.51 44.6205 133.629 45.5307C137.957 48.5035 139.071 53.2654 140.154 57.8828C140.329 58.6524 140.505 59.3868 140.711 60.1563C142.211 64.6331 143.434 69.0786 144.654 73.3834C146.083 78.5282 147.583 83.88 149.504 89.2357L149.991 90.8803C152.017 97.947 153.793 104.037 156.306 111.033C156.863 112.889 157.249 113.764 157.595 114.639C157.942 115.514 158.328 116.424 158.885 118.245C159.477 120.206 159.687 121.147 159.933 122.128C160.143 123.003 160.319 123.913 160.841 125.628C161.678 128.358 161.156 131.331 159.446 133.745C158.398 135.214 157.003 136.3 155.433 136.999C161.156 136.718 165.204 131.085 163.669 125.487L163.673 125.479Z" fill="#F5B731" fill-opacity="0.8"/>
<path d="M57.5557 115.155C56.7181 115.713 55.9857 116.17 55.3936 116.553C52.7055 118.057 50.8238 119.737 49.6006 121.733C46.9125 126.491 46.0048 132.019 47.1228 136.57C48.1007 136.57 48.763 136.534 49.3902 136.499C48.9733 126.702 53.1925 117.534 62.3358 113.51C62.3709 113.475 62.406 113.44 62.4761 113.44C62.5112 112.987 62.5112 112.565 62.5112 112.147C62.3709 112.217 62.2307 112.287 62.0593 112.358C60.4191 113.303 58.9193 114.284 57.5596 115.159L57.5557 115.155Z" fill="#F5B731" fill-opacity="0.8"/>
<path d="M77.0619 99.5837C75.8074 102.978 73.431 105.705 69.6638 108.225V108.26C69.6287 108.541 69.5937 108.924 69.5586 109.346C70.9884 108.787 72.4882 108.26 73.8167 107.49C76.5048 105.881 77.7943 103.818 78.7371 101.435C78.4916 101.189 78.2851 100.912 78.0397 100.666C77.7242 100.279 77.3774 99.8963 77.0619 99.5798V99.5837Z" fill="#F5B731" fill-opacity="0.8"/>
<path d="M65.7213 74.6726C65.4758 75.6882 65.7213 76.9813 66.3485 78.1727C66.2433 76.9813 66.1381 75.7937 65.9979 74.6023C65.9628 74.4616 65.9628 74.321 65.9278 74.1804C65.8576 74.321 65.7524 74.4616 65.7174 74.6687L65.7213 74.6726Z" fill="#F5B731" fill-opacity="0.8"/>
<path d="M77.693 97.4509C77.5878 97.904 77.4826 98.3259 77.3424 98.7791C77.7943 99.2322 78.18 99.6892 78.5968 100.142C78.7371 100.318 78.8773 100.459 79.0137 100.631C79.1539 100.279 79.2591 99.9314 79.3643 99.5447C79.7811 98.2517 78.9474 97.3063 77.6891 97.447L77.693 97.4509Z" fill="#F5B731" fill-opacity="0.8"/>
<path d="M158.717 133.245C160.322 131.042 160.774 128.311 160.007 125.792C159.485 124.042 159.31 123.132 159.099 122.221C158.889 121.241 158.682 120.331 158.086 118.409C157.529 116.588 157.143 115.713 156.832 114.873C156.481 113.998 156.099 113.088 155.542 111.233C153.03 104.236 151.249 98.1462 149.227 91.0443L148.775 89.4349C146.855 84.0831 145.355 78.7274 143.925 73.5475C142.737 69.2426 141.482 64.801 139.983 60.3204C139.772 59.5508 139.597 58.7813 139.425 58.0117C138.342 53.324 137.298 48.9137 133.181 46.0815C129.378 43.0736 124.945 43.351 120.27 43.6322C119.397 43.7025 118.525 43.7377 117.617 43.7728C110.986 43.2845 105.053 43.4564 98.8081 43.6674C97.5186 43.7025 96.2252 43.7377 94.9007 43.7728C92.98 43.7728 92.0061 43.6674 91.0633 43.5619C90.9932 43.5619 90.9581 43.5619 90.888 43.5267H90.401C88.6557 43.5267 87.7129 43.4213 86.8052 43.351C82.8276 43.4213 79.6877 43.5267 76.1269 43.7025C74.9075 43.7377 73.5791 43.808 72.1844 43.8783C70.2638 43.8783 69.2898 43.7728 68.347 43.7025C67.4393 43.6322 66.4615 43.5267 64.6149 43.5267C62.7683 43.5267 61.7866 43.5619 60.8477 43.6322C59.9049 43.6674 58.9271 43.7377 57.0454 43.7377C51.2173 43.3861 47.4852 43.2494 41.9025 43.4564C40.017 43.4564 39.0742 43.5619 38.1353 43.6674C37.1925 43.7728 36.2147 43.8783 34.298 43.8783C32.3812 43.8783 31.4385 43.808 30.4957 43.7728C29.5529 43.7025 28.6101 43.6674 26.7285 43.6674C25.5091 43.7728 24.1456 43.7728 22.8561 43.7377C21.8782 43.7377 20.9354 43.7377 19.9615 43.7728C15.3567 44.9291 12.4582 49.7223 14.0633 54.6209C15.1463 58.293 14.7606 58.3633 15.8437 62.0041C17.6942 67.391 18.9837 70.9615 20.6939 76.4187C22.1938 81.876 23.1366 85.6574 24.7066 91.1146C25.7896 94.7866 26.2766 94.6499 27.4297 98.2165C28.5127 101.889 28.3024 101.959 29.3503 105.6C31.5475 113.264 33.4331 119.874 36.1562 127.327C37.5509 131.667 41.1117 135.128 45.3698 136.531C45.5451 136.531 45.7204 136.566 45.8918 136.566H46.4138C45.2957 131.878 46.2385 126.21 48.9967 121.346C50.2862 119.249 52.277 117.463 55.0702 115.889C55.6624 115.537 56.3948 115.049 57.1973 114.526C58.4868 113.686 60.0568 112.635 61.7671 111.655C70.5949 107.561 75.375 104.06 76.945 97.4469C75.5503 97.4469 74.1517 97.236 72.7571 97.3414C71.9545 97.3766 71.3273 97.1656 70.9066 96.7477C70.2443 96.6773 69.4418 96.6422 68.3237 96.6422C67.2757 96.6422 66.2316 96.189 66.2316 95.2085C66.5121 90.6263 65.2889 85.8332 64.1045 81.1767L63.9994 80.8251C62.6397 75.5749 60.7892 65.7425 63.7189 58.7813C68.0471 52.3083 77.2917 51.3278 84.5145 53.1834C86.2248 53.9178 87.8649 54.8631 89.4349 56.0546C90.3075 56.3359 91.1451 56.6835 91.9126 57.1406C93.9033 58.2969 95.4733 60.1485 97.1135 61.7228C105.766 70.2622 104.687 83.0323 107.336 94.0522C107.893 96.6422 106.323 96.7828 104.613 96.5367C103.915 96.9899 102.692 97.0602 100.67 97.025C99.2756 98.3884 100.148 101.049 101.543 102.974C104.718 105.424 108.384 107.486 112.221 109.377C113.339 109.729 114.418 110.006 115.502 110.252C120.944 111.967 124.855 113.541 129.706 116.131C138.568 121.135 141.432 127.327 144.361 136.636C144.396 136.636 144.432 136.671 144.502 136.671C146.874 136.741 149.352 136.812 151.865 136.917C154.623 136.847 157.101 135.519 158.741 133.241L158.717 133.245Z" fill="#F5B731" fill-opacity="0.8"/>
<path d="M102.225 96.2946C102.4 96.2946 102.575 96.2946 102.712 96.2594C102.607 96.2594 102.536 96.2242 102.431 96.2242C102.361 96.2242 102.291 96.2594 102.221 96.2946H102.225Z" fill="#F5B731" fill-opacity="0.8"/>
<path d="M64.3967 59.1368C61.5684 65.8206 63.3838 75.4773 64.7473 80.622L64.8525 80.9736C66.0407 85.6964 67.2601 90.5599 66.9796 95.2164C66.9796 95.7398 67.8523 95.8805 68.3042 95.8805C69.1768 95.8805 69.8391 95.9156 70.4313 95.9508C70.3962 95.8101 70.3261 95.6343 70.3261 95.4976C69.3132 90.9154 67.7432 86.3293 66.9056 81.6416C66.7653 81.0127 66.6602 80.4189 66.59 79.786C65.2655 78.1766 64.6344 76.114 65.0551 74.4694C65.1953 73.9108 65.4408 73.4186 65.7875 73.0358C64.9148 68.6254 63.8669 64.0784 67.077 60.2657C71.0897 53.9686 78.7332 52.3591 85.43 54.8085C85.9871 54.9842 86.5832 55.16 87.2104 55.3319C86.2676 54.7733 85.3248 54.2459 84.382 53.8631C77.3346 52.1482 68.4717 53.0584 64.3889 59.1485L64.3967 59.1368Z" fill="#F5B731" fill-opacity="0.8"/>
<path d="M63.3137 111.799C63.3137 112.151 63.2786 112.534 63.2786 112.955C64.8136 111.975 66.2784 110.893 67.8834 110.084C68.1639 109.944 68.4756 109.803 68.7912 109.697C68.8262 109.346 68.8262 109.069 68.8613 108.787C67.2212 109.768 65.4057 110.748 63.3137 111.795V111.799Z" fill="#F5B731" fill-opacity="0.8"/>
</svg>
