<svg width="52" height="13" viewBox="0 0 52 13" fill="none" xmlns="http://www.w3.org/2000/svg">
<g id="Reco Logo" clip-path="url(#clip0_68_286)">
<path id="Vector" d="M6.59286 3.59209C6.96529 2.70274 7.49678 1.91943 8.17141 1.26469C7.53389 1.08443 6.89637 0.992981 6.2562 0.992981C5.15612 0.992981 4.17268 1.23288 3.30587 1.71135C2.44038 2.18982 1.75515 2.84589 1.25283 3.67824C0.751826 4.50926 0.5 5.44897 0.5 6.49471V11.6916H3.82145V6.49471C3.8241 5.67031 4.0693 5.02749 4.55969 4.5636C5.03154 4.11827 5.67436 3.88898 6.48417 3.86909C6.51863 3.77632 6.55442 3.68221 6.59286 3.59076V3.59209Z" fill="#A459FF"/>
<path id="Vector_2" d="M45.7226 12.007C44.5881 12.007 43.5861 11.7579 42.7166 11.2582C41.8471 10.7585 41.1659 10.0918 40.6742 9.25551C40.1811 8.42051 39.9359 7.50334 39.9359 6.50399C39.9359 5.77767 40.0764 5.08316 40.3587 4.42046C40.641 3.75776 41.04 3.17061 41.5555 2.65768C42.0711 2.14475 42.6835 1.74051 43.3899 1.44494C44.0963 1.14938 44.8743 1.00226 45.7226 1.00226C46.8571 1.00226 47.8591 1.25143 48.7286 1.75111C49.5981 2.25078 50.278 2.91746 50.7671 3.75378C51.2561 4.58879 51.5 5.50596 51.5 6.50531C51.5 7.23295 51.3608 7.92614 51.0825 8.58884C50.8042 9.25154 50.4066 9.83736 49.891 10.3463C49.3741 10.8553 48.7631 11.2595 48.0566 11.5591C47.3502 11.8573 46.5722 12.007 45.7239 12.007H45.7226ZM45.7226 9.13358C46.1984 9.13358 46.6265 9.02622 47.0069 8.81283C47.3873 8.59944 47.6855 8.2946 47.9042 7.90096C48.1216 7.50731 48.2303 7.0421 48.2303 6.50531C48.2303 5.96852 48.1229 5.49536 47.9095 5.10437C47.6961 4.71337 47.3979 4.41118 47.0175 4.19779C46.6371 3.9844 46.2064 3.87705 45.7239 3.87705C45.2415 3.87705 44.8107 3.9844 44.4303 4.19779C44.0499 4.41118 43.7504 4.7147 43.5344 5.10437C43.317 5.49536 43.2083 5.9619 43.2083 6.50531C43.2083 7.04872 43.3183 7.50731 43.5397 7.90096C43.7597 8.2946 44.0606 8.59944 44.4409 8.81283C44.8213 9.02622 45.2494 9.13358 45.7253 9.13358H45.7226Z" fill="#A459FF"/>
<path id="Vector_3" d="M39.1327 10.1647C38.755 9.52457 38.4859 8.84464 38.3255 8.13158C37.9823 8.44967 37.6072 8.69487 37.2003 8.86452C36.7695 9.04478 36.3083 9.1349 35.8192 9.1349C34.9564 9.1349 34.2791 8.90296 33.7861 8.43642C33.2957 7.97253 33.0491 7.32971 33.0478 6.50531C33.0505 5.68091 33.2957 5.0381 33.7861 4.57421C34.2791 4.10899 34.9564 3.87572 35.8192 3.87572C36.3083 3.87572 36.7682 3.96585 37.2003 4.1461C37.6098 4.31708 37.9876 4.56493 38.3335 4.88568C38.4263 4.48806 38.5509 4.09839 38.7126 3.71932C38.9326 3.20242 39.2109 2.716 39.5409 2.26536C39.0055 1.89823 38.4051 1.60266 37.7397 1.37867C36.9895 1.12685 36.2367 1.00226 35.4826 1.00226C34.3825 1.00226 33.399 1.24216 32.5322 1.72062C31.6667 2.19909 30.9815 2.85517 30.4792 3.68752C29.9769 4.51987 29.725 5.45825 29.725 6.50531C29.725 7.55105 29.9769 8.49076 30.4792 9.32311C30.9815 10.1555 31.6667 10.8102 32.5322 11.29C33.3977 11.7685 34.3812 12.0084 35.4826 12.0084C36.2367 12.0084 36.9882 11.8825 37.7397 11.632C38.3971 11.4119 38.9922 11.1203 39.5224 10.7598C39.3845 10.5703 39.2547 10.3715 39.1327 10.1674V10.1647Z" fill="#A459FF"/>
<path id="Vector_4" d="M28.9232 10.1647C28.5454 9.52457 28.2764 8.84464 28.116 8.13158C27.7727 8.44967 27.3976 8.69487 26.9907 8.86452C26.56 9.04478 26.0987 9.1349 25.6097 9.1349C24.7468 9.1349 24.0696 8.90296 23.5765 8.43642C23.0861 7.97253 22.8396 7.32971 22.8383 6.50531C22.8409 5.68091 23.0861 5.0381 23.5765 4.57421C24.0696 4.10899 24.7468 3.87572 25.6097 3.87572C26.0987 3.87572 26.5587 3.96585 26.9907 4.1461C27.4003 4.31708 27.778 4.56493 28.1239 4.88568C28.2167 4.48806 28.3413 4.09839 28.503 3.71932C28.723 3.20242 29.0014 2.716 29.3314 2.26536C28.7959 1.89823 28.1955 1.60266 27.5302 1.37867C26.78 1.12685 26.0272 1.00226 25.273 1.00226C24.1729 1.00226 23.1895 1.24216 22.3227 1.72062C21.4572 2.19909 20.772 2.85517 20.2696 3.68752C19.7673 4.51987 19.5155 5.45825 19.5155 6.50531C19.5155 7.55105 19.7673 8.49076 20.2696 9.32311C20.772 10.1555 21.4572 10.8102 22.3227 11.29C23.1882 11.7685 24.1716 12.0084 25.273 12.0084C26.0272 12.0084 26.7787 11.8825 27.5302 11.632C28.1876 11.4119 28.7827 11.1203 29.3128 10.7598C29.175 10.5703 29.0451 10.3715 28.9232 10.1674V10.1647Z" fill="#A459FF"/>
<path id="Vector_5" d="M17.8813 10.7651C17.4518 10.0547 17.1417 9.29261 16.9508 8.48544C16.4591 8.80486 15.9462 9.04344 15.4107 9.19983C14.8607 9.35888 14.2802 9.43973 13.6678 9.43973C13.1178 9.43973 12.6353 9.35358 12.2205 9.17995C11.8056 9.00632 11.4796 8.76775 11.2424 8.46159C11.0051 8.15542 10.8818 7.79889 10.8752 7.39199H18.6805C18.8435 6.48144 18.8369 5.63849 18.6606 4.86048C18.4843 4.08247 18.1636 3.40652 17.6984 2.83262C17.2332 2.25872 16.6434 1.81074 15.9303 1.48734C15.2172 1.16527 14.4061 1.00357 13.4955 1.00357C12.6672 1.00357 11.9077 1.13744 11.2185 1.40649C10.5293 1.67555 9.93153 2.05329 9.42523 2.54236C8.91893 3.03143 8.52529 3.61195 8.24298 4.28526C7.96067 4.95723 7.82018 5.69548 7.82018 6.49602C7.82018 7.60273 8.0614 8.56894 8.54384 9.39467C9.02629 10.2204 9.69826 10.8619 10.5611 11.3205C11.4239 11.7791 12.4259 12.0084 13.5671 12.0084C14.0827 12.0084 14.6248 11.9527 15.192 11.84C15.7593 11.7274 16.2961 11.5749 16.8024 11.3814C17.2438 11.2131 17.6135 11.0236 17.9131 10.8168C17.9025 10.7996 17.8919 10.7837 17.8813 10.7665V10.7651ZM11.799 3.88631C12.2231 3.57352 12.7586 3.41712 13.4041 3.41712C14.0495 3.41712 14.5492 3.57352 14.9217 3.88631C15.2954 4.19911 15.4889 4.61661 15.5022 5.14014H11.0807C11.135 4.61661 11.3749 4.19911 11.799 3.88631Z" fill="#A459FF"/>
</g>
<defs>
<clipPath id="clip0_68_286">
<rect width="51" height="11.0141" fill="white" transform="translate(0.5 0.992981)"/>
</clipPath>
</defs>
</svg>
