<svg width="180" height="180" viewBox="0 0 180 180" fill="none" xmlns="http://www.w3.org/2000/svg">
<path d="M95.0007 72.912C94.3955 73.448 93.8221 73.988 93.2527 74.56C92.8943 74.92 92.5041 75.276 92.1457 75.636C92.6793 75.384 93.2168 75.172 93.7863 74.992C94.3915 74.492 94.7857 73.772 95.0007 72.912Z" fill="#F5B731" fill-opacity="0.8"/>
<path d="M94.8574 78.108C94.5349 77.82 94.1805 77.464 93.9296 76.888C93.6787 77.068 93.396 77.212 93.1452 77.388L92.9301 77.496C91.6121 78.284 90.2901 79.216 88.8646 80.328C88.6854 80.472 88.5421 80.58 88.3669 80.724C87.905 81.084 87.4032 81.476 86.9055 81.8C86.7622 81.872 86.6546 81.908 86.5113 81.98C86.0135 82.196 85.6552 82.34 85.265 82.912C85.3366 83.236 85.4083 83.52 85.5516 83.772C86.5153 83.344 88.2275 82.552 89.2628 82.088C89.8322 81.764 90.4773 81.408 91.1184 81.048C91.7953 80.688 92.4722 80.332 93.0815 79.972C93.404 79.792 93.6867 79.684 93.9376 79.544C94.1168 79.472 94.2959 79.364 94.4353 79.292C94.7937 79.112 95.0406 79.04 95.2197 79.004C95.2556 79.004 95.3273 78.968 95.3273 78.968C95.3273 78.968 95.3631 78.968 95.3989 78.86C95.3273 78.572 95.1839 78.396 94.8654 78.108H94.8574Z" fill="#F5B731" fill-opacity="0.8"/>
<path d="M97.3541 61.736C97.2824 61.412 97.2465 61.376 97.2107 61.376C97.1749 61.376 97.1032 61.34 96.9957 61.376C96.9957 61.448 96.9957 61.556 96.9598 61.628C97.0674 61.772 97.1749 61.952 97.2824 62.128C97.4257 62.344 97.3541 62.628 97.139 62.772C97.0315 62.844 96.924 62.844 96.8165 62.844C96.7807 63.096 96.7807 63.38 96.7448 63.668C96.6373 64.708 96.5298 65.78 96.4581 66.82V67C96.3865 67.644 96.3506 68.36 96.3506 69.112C96.3506 69.4 96.3148 69.684 96.3148 69.972C96.494 69.936 96.6373 69.9 96.8125 69.864C96.8842 69.4 96.92 68.932 96.9559 68.468C96.9917 68.252 97.0275 68.072 97.0275 67.86C97.0992 66.964 96.9917 66.14 97.2426 65.28C97.2784 64.884 97.2784 64.492 97.3142 64.096C97.3501 63.344 97.4217 62.628 97.4217 61.984C97.4217 61.876 97.3859 61.804 97.3501 61.732L97.3541 61.736Z" fill="#F5B731" fill-opacity="0.8"/>
<path d="M70.285 83.696C69.8231 84.124 69.2138 84.448 68.6803 84.736L68.5727 84.772C68.0392 85.06 67.5374 85.416 67.0755 85.776C66.8605 85.956 66.6136 86.136 66.3628 86.312C66.542 86.708 66.757 87.1 67.0397 87.388C67.1831 87.316 67.3622 87.172 67.6808 86.924C67.9317 86.708 68.1785 86.496 68.4652 86.352C69.1063 85.816 70.0699 85.168 70.7827 84.992C70.9619 84.92 70.9977 84.776 71.0336 84.596L70.8544 84.38C70.711 84.164 70.496 83.916 70.285 83.7V83.696Z" fill="#F5B731" fill-opacity="0.8"/>
<path d="M96.1754 71.948C96.2829 71.84 96.3904 71.732 96.5338 71.66C96.6055 71.372 96.6771 71.124 96.713 70.836C96.5696 70.872 96.4263 70.908 96.2869 70.944C96.2511 71.268 96.2152 71.588 96.1794 71.948H96.1754Z" fill="#F5B731" fill-opacity="0.8"/>
<path d="M95.7493 63.636C95.6777 63.276 95.606 62.812 95.4268 62.704C95.3551 62.668 95.3193 62.632 95.2476 62.632C95.1401 62.632 95.0684 62.74 95.0326 62.884C95.5303 64.388 95.4587 66.144 94.7817 68.044C94.7101 68.224 94.5309 68.368 94.3557 68.368C94.3198 68.368 94.2482 68.368 94.1765 68.332C93.9256 68.224 93.8181 67.972 93.8898 67.724C94.1765 66.936 94.4592 65.788 94.4234 64.608C93.9615 65.324 93.3164 65.968 92.6753 66.58C92.3169 66.94 91.9984 67.26 91.6758 67.62C90.5689 68.908 89.1075 69.628 87.6461 70.344C87.3236 70.488 87.0051 70.668 86.6825 70.844C86.1848 71.06 85.5755 71.452 84.8986 71.92C83.7916 72.636 82.5453 73.46 81.725 73.46H81.6533C81.5458 73.424 81.4742 73.388 81.4025 73.316C81.3308 73.244 81.2233 73.172 81.08 73.172H81.0441C80.7574 73.208 80.618 73.388 80.4747 73.6C80.4389 73.636 80.403 73.708 80.3672 73.744C79.9053 74.28 79.5828 74.928 79.2961 75.5C78.9018 76.252 78.5475 76.968 77.9422 77.544C77.2294 78.224 76.5167 78.976 75.8716 79.728C75.1947 80.48 74.4819 81.268 73.7333 81.948C73.6975 81.984 73.6616 82.02 73.59 82.056C73.1958 82.452 72.6263 82.988 72.0569 82.988H71.9852C71.8061 82.952 71.6985 82.88 71.5592 82.808C71.4158 82.736 71.2725 82.664 71.0973 82.664H70.9181C70.9181 82.736 70.8823 82.808 70.8823 82.88C71.1331 83.204 71.4158 83.488 71.6309 83.74L71.81 83.956C71.8817 83.92 71.9892 83.884 72.0967 83.848C72.3118 83.74 72.5945 83.596 72.8812 83.488C73.9882 83.024 75.2703 82.484 76.0189 81.66C77.0901 80.512 78.5514 78.652 79.5509 77.252C79.7659 76.964 80.0845 76.644 80.4428 76.32C80.4787 76.248 80.5504 76.212 80.5862 76.176C81.3348 75.46 82.2984 74.672 83.1545 74.24C84.0465 73.596 85.1535 73.092 86.1848 72.592C86.6108 72.376 87.0767 72.196 87.5028 71.948C87.5386 71.948 87.5745 71.912 87.5745 71.912C88.108 71.624 88.6456 71.34 89.1075 71.016C89.3942 70.836 89.6769 70.692 89.9636 70.516C90.1428 70.408 90.322 70.336 90.4614 70.228C90.4972 70.156 90.5689 70.12 90.6405 70.084C90.7122 70.048 90.7481 70.048 90.8197 70.012C91.3891 69.652 91.9267 69.296 92.2453 68.828C92.3886 68.612 92.7072 68.576 92.9222 68.72C93.1372 68.864 93.173 69.184 93.0297 69.4L92.9939 69.436C93.1014 69.4 93.2089 69.364 93.3164 69.292C93.3522 69.292 93.3522 69.256 93.3522 69.256C93.2089 69.184 93.1014 69.004 93.1014 68.828C93.1014 68.576 93.3164 68.364 93.5633 68.364C93.9575 68.364 94.276 68.58 94.3835 68.9C94.4552 69.116 94.4911 69.58 93.85 70.084C93.5991 70.228 93.3522 70.336 93.0655 70.444C93.5274 70.804 94.065 71.124 94.4911 71.376C94.7061 71.556 94.953 71.736 95.2038 71.912C95.2397 71.552 95.3113 71.16 95.3113 70.8C95.3113 70.764 95.2755 70.764 95.2755 70.728C95.2397 70.62 95.2755 70.512 95.3113 70.404C95.3472 69.976 95.3472 69.544 95.383 69.116C95.4188 68.328 95.4188 67.576 95.5264 66.932C95.598 65.964 95.7055 64.996 95.7772 64.028V63.956C95.7772 63.812 95.7414 63.74 95.7414 63.632L95.7493 63.636Z" fill="#F5B731" fill-opacity="0.8"/>
<path opacity="0.8" d="M96.713 78.54C96.1436 78.18 95.9644 77.824 95.7135 77.252C95.3193 77 95.0007 76.68 94.7499 76.284C94.714 76.212 94.6782 76.176 94.6424 76.14C94.6782 76.212 94.6782 76.284 94.714 76.32C94.8932 76.82 95.1759 77.108 95.4985 77.396C95.821 77.72 96.2112 78.076 96.2829 78.684C96.5338 78.864 96.8165 79.008 97.1032 79.184C97.2107 78.788 97.0315 78.756 96.709 78.54H96.713Z" fill="#F5B731" fill-opacity="0.8"/>
<path opacity="0.8" d="M97.7801 55.752C97.6009 55.356 97.2824 55.18 96.8523 55.072C96.8523 55.072 96.8882 55.072 96.8882 55.108C97.3501 55.608 97.3142 56.72 97.2107 57.904V58.048C97.1032 58.8 97.1032 59.372 97.0674 60.02V60.38C97.2465 60.38 97.4257 60.416 97.5651 60.452C97.5651 59.52 97.6726 58.624 97.7801 57.692C97.816 57.156 97.9593 56.332 97.7801 55.756V55.752Z" fill="#F5B731" fill-opacity="0.8"/>
<path opacity="0.8" d="M81.6255 73.38H81.6971C82.5174 73.38 83.7677 72.556 84.8707 71.84C85.5477 71.412 86.1529 70.98 86.6546 70.764C86.9772 70.584 87.2957 70.44 87.6183 70.264C89.0438 69.548 90.541 68.832 91.648 67.54C91.9347 67.216 92.2891 66.86 92.6474 66.5C93.2885 65.856 93.9296 65.212 94.3955 64.528C94.3596 63.488 94.0013 62.38 93.1491 61.448C92.0063 60.336 90.0472 60.016 88.7611 60.66C88.7252 60.66 88.7252 60.696 88.6894 60.696C88.4027 60.876 88.2633 60.984 88.12 61.056C87.9408 61.164 87.8691 61.2 87.5864 61.452C86.7661 62.096 85.9458 63.172 85.1972 64.14L84.803 64.676C84.4447 65.072 84.1261 65.428 83.8394 65.752C83.3775 66.252 82.9833 66.72 82.5214 67.256C82.3064 68.368 81.5219 69.156 80.4866 69.548C80.3075 69.692 80.1641 69.836 80.0247 69.908C79.9172 69.944 79.8097 69.98 79.7022 70.016C79.0611 70.624 79.2045 71.236 78.205 71.988C78.1692 72.024 78.1692 72.06 78.1692 72.096C77.6714 72.776 77.0622 72.992 76.4211 73.172C76.1344 73.244 75.8517 73.352 75.5291 73.496C75.4575 73.532 75.3858 73.568 75.3141 73.604C72.7458 75.252 71.8897 77.224 69.8589 79.944C69.608 80.912 69.5005 80.516 68.7519 80.912C67.7883 81.664 67.0755 83.276 65.7217 83.312H65.65C65.5425 83.348 65.435 83.42 65.2916 83.456C65.2558 83.456 65.22 83.492 65.1841 83.492C64.8616 83.992 65.9686 85.392 66.2194 85.856C66.2911 86 66.3628 86.144 66.4344 86.284C66.6853 86.104 66.9322 85.924 67.1472 85.748C67.6091 85.388 68.1108 85.032 68.6444 84.744L68.7519 84.708C69.2855 84.42 69.8947 84.1 70.3566 83.668C69.7156 82.952 69.0745 82.128 68.7161 81.556C68.5727 81.34 68.6444 81.056 68.8594 80.912C69.0745 80.768 69.3572 80.84 69.5005 81.056C69.7872 81.52 70.3208 82.204 70.8544 82.812C70.8902 82.74 70.8902 82.668 70.8902 82.596H71.0694C71.2486 82.596 71.3919 82.668 71.5313 82.74C71.6388 82.812 71.7822 82.884 71.9574 82.92H72.029C72.5985 82.92 73.1719 82.384 73.5621 81.988C73.5979 81.952 73.6696 81.916 73.7054 81.88C74.454 81.164 75.1668 80.412 75.8437 79.66C76.5206 78.944 77.1976 78.192 77.9143 77.476C78.5196 76.904 78.8779 76.188 79.2682 75.432C79.5907 74.824 79.9093 74.212 80.3393 73.676C80.3751 73.64 80.411 73.604 80.4468 73.532C80.5902 73.352 80.7335 73.136 81.0162 73.104H81.0521C81.1954 73.104 81.3029 73.176 81.3746 73.248C81.4463 73.32 81.518 73.392 81.6255 73.392V73.38Z" fill="#F5B731" fill-opacity="0.8"/>
<path opacity="0.8" d="M94.6782 59.444C94.5707 59.372 94.4632 59.3 94.3915 59.192C94.0331 58.832 93.1452 58.404 92.3926 58.296C91.7515 58.296 90.9312 58.44 90.1109 58.692H90.0393C89.6809 58.908 89.3623 59.156 89.0398 59.444C89.1473 59.372 89.2907 59.3 89.3982 59.264C90.326 58.764 91.3971 58.8 92.3209 58.836C93.2487 58.872 94.0331 59.124 94.6742 59.444H94.6782Z" fill="#F5B731" fill-opacity="0.8"/>
<path opacity="0.8" d="M96.036 58.62C96.1435 59.048 95.9644 59.444 95.6418 59.588C95.4268 59.696 95.1799 59.696 94.8932 59.552C95.3551 59.84 95.7493 60.16 96.1396 60.52C96.1396 60.34 96.1396 60.124 96.1754 59.948C96.2112 59.304 96.2112 58.696 96.3188 57.94V57.796C96.3904 56.72 96.3904 56.04 96.2829 55.788C95.6418 55.608 94.4273 55.572 93.5354 55.572H92.751C91.9665 55.572 91.0387 55.608 90.2543 55.716C89.9676 55.716 89.7566 55.752 89.6132 55.788C89.5774 55.824 89.5415 55.86 89.5057 55.896C89.0796 56.54 89.0796 57.58 88.9004 58.368C89.7924 57.688 90.8277 57.116 92.4682 57.008C94.8216 57.008 95.8568 57.832 96.036 58.62Z" fill="#F5B731" fill-opacity="0.8"/>
<path opacity="0.8" d="M95.0366 62.88C95.0724 62.736 95.1441 62.628 95.2516 62.628C95.2874 62.628 95.3591 62.664 95.4308 62.7C95.61 62.808 95.6816 63.308 95.7533 63.632C95.7892 63.74 95.7892 63.812 95.7892 63.884V63.956C95.7892 63.812 95.825 63.668 95.825 63.528C95.8967 62.992 95.9325 62.416 95.9683 61.88C95.0406 60.66 93.9694 59.872 92.2572 59.768H92.078C92.7191 60.02 93.2925 60.34 93.7902 60.808C94.3955 61.416 94.7897 62.096 95.0406 62.888L95.0366 62.88Z" fill="#F5B731" fill-opacity="0.8"/>
<path opacity="0.8" d="M96.1037 72.412C96.2112 72.484 96.2829 72.52 96.3904 72.592C96.3904 72.34 96.4263 72.056 96.4979 71.804C96.4979 71.768 96.5338 71.696 96.5338 71.66C96.4263 71.768 96.3188 71.84 96.1754 71.948C96.1396 72.092 96.1037 72.236 96.1037 72.412Z" fill="#F5B731" fill-opacity="0.8"/>
<path opacity="0.8" d="M84.0863 64.064L84.4805 63.564C84.7672 63.168 85.0858 62.812 85.4083 62.416C84.0544 63.276 83.2342 64.028 82.84 65.46C82.9475 65.352 83.055 65.208 83.1625 65.1C83.4492 64.776 83.7677 64.456 84.0903 64.06L84.0863 64.064Z" fill="#F5B731" fill-opacity="0.8"/>
<path opacity="0.8" d="M93.5035 80.724C93.3602 80.796 93.181 80.904 93.0416 80.976C93.2925 80.904 93.5035 80.796 93.7544 80.724C93.7544 80.688 93.7186 80.652 93.7186 80.616C93.6111 80.688 93.5752 80.724 93.5035 80.724Z" fill="#F5B731" fill-opacity="0.8"/>
<path opacity="0.8" d="M95.6777 75.064C95.7135 75.028 95.7135 75.064 95.6777 75.064C95.9644 74.636 96.1037 74.204 96.2112 73.704V73.596C96.2112 73.596 96.1754 73.596 96.1754 73.56C96.1396 73.56 96.1396 73.524 96.1037 73.524C95.9962 73.488 95.9245 73.416 95.817 73.38C95.6737 73.916 95.4228 74.384 95.1401 74.812C95.1401 74.956 95.1759 75.136 95.2476 75.276C95.2835 75.348 95.3193 75.42 95.3551 75.456V75.492C95.391 75.42 95.4268 75.384 95.4626 75.312V75.276C95.4985 75.204 95.5702 75.168 95.606 75.096C95.6777 75.096 95.6777 75.06 95.6777 75.06V75.064Z" fill="#F5B731" fill-opacity="0.8"/>
<path opacity="0.8" d="M86.7621 84.2C86.7263 84.236 86.6905 84.236 86.6546 84.272C86.8338 84.236 86.9772 84.2 87.1165 84.128C87.1165 84.128 87.1524 84.128 87.1524 84.092C87.2599 84.056 87.3316 83.984 87.4391 83.912C87.1882 83.984 87.013 84.092 86.7621 84.2C86.786 84.2 86.786 84.2 86.7621 84.2Z" fill="#F5B731" fill-opacity="0.8"/>
<path opacity="0.8" d="M95.9644 79.576C95.8569 79.684 95.7493 79.756 95.606 79.792L95.6418 79.828C95.7135 79.9 95.7493 80.008 95.7493 80.116C95.9285 79.972 96.1077 79.864 96.2829 79.792C96.2829 79.792 96.3188 79.792 96.3188 79.756H96.2829C96.1754 79.72 96.0679 79.648 95.9604 79.576H95.9644Z" fill="#F5B731" fill-opacity="0.8"/>
<path opacity="0.8" d="M96.9957 68.472L96.9598 68.4C96.924 68.864 96.8523 69.332 96.8165 69.796C96.8523 69.616 96.8523 69.4 96.8882 69.224C96.9598 68.972 96.9957 68.724 96.9957 68.472Z" fill="#F5B731" fill-opacity="0.8"/>
<path opacity="0.8" d="M96.5338 71.624C96.5696 71.516 96.5696 71.444 96.6054 71.372C96.6413 71.192 96.713 71.012 96.7488 70.836H96.713C96.6771 71.124 96.5696 71.372 96.5338 71.624Z" fill="#F5B731" fill-opacity="0.8"/>
<path opacity="0.8" d="M66.3588 86.348C66.538 86.744 66.753 87.136 67.0357 87.424H67.0716C66.7849 87.1 66.5738 86.708 66.3588 86.348C66.3827 86.348 66.3827 86.348 66.3588 86.348Z" fill="#F5B731" fill-opacity="0.8"/>
<path opacity="0.8" d="M80.3751 77.68C80.3393 77.716 80.3035 77.752 80.2676 77.788C79.2323 79.148 77.771 81.084 76.664 82.268C76.5207 82.412 76.3773 82.52 76.2379 82.628C76.2021 82.664 76.1663 82.7 76.1304 82.7C76.5565 82.448 77.0224 82.236 77.4126 81.984C78.4837 81.124 79.304 79.976 80.0885 78.904C80.196 78.76 80.3035 78.616 80.411 78.44V78.404C80.411 78.188 80.411 77.94 80.3751 77.688V77.68Z" fill="#F5B731" fill-opacity="0.8"/>
<path opacity="0.8" d="M71.9271 84.808C71.8907 84.8445 71.8544 84.8445 71.818 84.8811V84.9176C71.8907 84.9176 71.9271 84.8811 71.9271 84.808Z" fill="#F5B731" fill-opacity="0.8"/>
<path opacity="0.8" d="M72.4591 84.664C72.2799 84.772 72.1007 84.844 71.9972 84.88C71.9255 85.204 71.7105 85.668 71.1052 85.884C70.5358 86.028 69.6439 86.636 69.0705 87.104C69.0346 87.14 68.9988 87.14 68.963 87.176C68.7479 87.284 68.5369 87.464 68.286 87.676C68.2144 87.748 68.1427 87.82 68.0352 87.856L67.9993 87.892C68.071 87.892 68.1785 87.892 68.2502 87.856C68.6444 87.784 68.9271 87.46 69.2138 87.176C69.393 86.996 69.5364 86.816 69.7116 86.712C70.1058 86.46 70.5318 86.212 70.9579 85.996C71.2804 85.816 71.6348 85.636 71.9574 85.46C72.2082 85.316 72.3834 85.1 72.5268 84.888C72.6701 84.708 72.8493 84.528 73.0604 84.388C73.0245 84.388 73.0245 84.424 72.9887 84.424C72.8453 84.496 72.6303 84.604 72.4551 84.676L72.4591 84.664Z" fill="#F5B731" fill-opacity="0.8"/>
<path opacity="0.8" d="M86.9374 78.252C86.8657 78.324 86.8298 78.36 86.7582 78.432C86.9732 78.324 87.1524 78.216 87.3634 78.108C87.3276 78.072 87.2917 78.072 87.2917 78.036C87.2559 78 87.2201 77.964 87.2201 77.892C87.1126 78.036 87.005 78.144 86.9334 78.252H86.9374Z" fill="#F5B731" fill-opacity="0.8"/>
<path opacity="0.8" d="M91.648 76.928C91.0427 77.216 90.4016 77.536 89.7566 77.896C89.2947 78.148 88.7929 78.432 88.2952 78.72C87.0807 79.256 85.9419 80.008 84.8349 80.728C84.7274 80.8 84.6557 80.836 84.5482 80.908H84.5124C84.5482 80.944 84.6199 80.944 84.6557 80.98C84.9782 81.376 85.0499 81.912 85.1176 82.448C85.1535 82.592 85.1535 82.7 85.1893 82.844C85.6154 82.272 85.9379 82.128 86.4356 81.912C86.5431 81.876 86.6865 81.804 86.8298 81.732C87.3276 81.408 87.8293 81.016 88.2912 80.656C88.4704 80.512 88.6137 80.404 88.7889 80.26C90.2145 79.148 91.5723 78.216 92.8545 77.428L93.0695 77.32C93.3204 77.176 93.6031 76.996 93.8539 76.82C93.7464 76.568 93.6748 76.32 93.6031 75.96C93.0337 76.284 92.3567 76.568 91.64 76.928H91.648Z" fill="#F5B731" fill-opacity="0.8"/>
<path opacity="0.8" d="M86.8697 73.308C86.9772 73.38 87.0489 73.488 87.1564 73.56C87.6541 73.988 88.12 74.456 88.6177 74.42C88.7969 74.384 88.8686 74.312 88.8686 74.312C88.8686 74.06 88.12 73.344 87.8333 73.06C87.7975 73.024 87.7616 72.988 87.7258 72.952C87.3674 73.06 87.1205 73.168 86.8697 73.312V73.308Z" fill="#F5B731" fill-opacity="0.8"/>
<path opacity="0.8" d="M88.8646 75.708C89.1513 75.816 89.2907 75.996 89.3623 76.208C89.434 76.568 89.219 76.96 89.004 77.248C89.8959 76.748 91.0029 76.172 92.1776 75.672C92.5359 75.312 92.9262 74.956 93.2845 74.596C93.8539 74.06 94.4273 73.484 95.0326 72.948V72.876C94.6384 72.624 94.284 72.376 93.9973 72.124C93.4279 71.8 92.5718 71.264 91.9267 70.692C91.7117 70.728 91.5006 70.8 91.2856 70.872C90.9989 71.052 90.752 71.196 90.4653 71.336C90.1786 71.48 89.9318 71.66 89.6809 71.8C89.3225 72.052 88.9323 72.228 88.5739 72.444C89.2508 73.088 89.9278 73.804 89.7526 74.524C89.6451 74.92 89.3265 75.168 88.7531 75.312H88.5381C87.682 75.312 87.0409 74.74 86.5033 74.2C86.2883 74.02 86.1091 73.84 85.8981 73.7C85.0778 74.096 84.3292 74.452 83.6523 74.952C82.8678 75.348 82.0117 76.028 81.3348 76.708V77.28C81.5857 76.956 81.8684 76.636 82.1551 76.348V76.384C81.8684 76.92 81.7609 77.496 81.7609 78.104V78.176C81.7609 78.356 81.7967 78.536 81.8325 78.712C81.8325 78.748 81.8325 78.784 81.8684 78.784C81.9042 78.856 81.9042 78.964 81.94 79.036C82.1192 79.5 82.4736 80.076 83.1864 80.432H83.2222C83.2939 80.432 83.3656 80.468 83.4372 80.468C83.7239 80.288 84.0067 80.108 84.3292 79.896C84.6876 79.252 85.5755 78.248 86.2564 77.568C87.7895 75.74 88.4664 75.596 88.8606 75.704L88.8646 75.708Z" fill="#F5B731" fill-opacity="0.8"/>
<path opacity="0.8" d="M39.7874 157.396C37.3983 158.616 35.7577 160.8 35.4352 163.308C35.1127 165.064 35.4352 166.82 36.2555 168.18C36.8607 169.468 37.681 170.436 38.6446 171.116C39.2857 171.544 39.9268 171.868 40.5002 172.084C40.321 171.976 40.106 171.868 39.9308 171.724C39.1105 171.296 38.4336 170.684 37.896 169.932C36.578 168.536 35.8613 166.708 35.9688 164.952C35.6463 162.048 37.251 159.004 39.7835 157.392L39.7874 157.396Z" fill="#F5B731" fill-opacity="0.8"/>
<path opacity="0.8" d="M50.3435 174.308C49.9493 174.632 49.4874 174.916 49.0255 175.204C48.9897 175.24 48.9538 175.24 48.918 175.276C48.9538 175.276 49.0255 175.24 49.0613 175.24H49.0972C49.9174 174.844 50.7377 174.308 51.5222 173.628C52.3424 173.056 53.0552 172.34 53.5928 171.548C53.6644 171.404 53.7719 171.26 53.8795 171.084C53.987 170.908 54.0945 170.724 54.202 170.548C54.0945 170.476 53.987 170.404 53.8795 170.296C53.095 171.872 51.8447 173.304 50.3475 174.308H50.3435Z" fill="#F5B731" fill-opacity="0.8"/>
<path opacity="0.8" d="M53.1986 169.508C52.7725 168.828 52.6291 167.968 52.8043 167.18C52.9477 166.68 53.0194 166.14 53.0552 165.748C53.5171 162.56 52.1274 159.084 49.5232 156.936C48.9897 156.472 48.3446 156.076 47.5243 155.684L47.2018 156.508C47.5602 156.688 47.9145 156.868 48.2371 157.08C48.3088 157.116 48.3446 157.116 48.4163 157.152C50.1285 158.228 51.3071 159.516 51.9841 160.984C52.3783 162.204 52.7685 163.564 52.661 164.996C52.6968 167.54 51.2355 170.12 48.8105 171.768C48.5596 171.912 48.2769 172.056 48.026 172.196C47.811 172.34 47.6 172.52 47.3491 172.624C46.1028 173.268 44.7808 173.592 43.4986 173.592C42.965 173.592 42.3916 173.52 41.8939 173.412C40.7152 173.34 39.5047 172.84 38.0792 171.908C36.9722 171.12 36.0803 170.044 35.4034 168.648C34.4756 167.144 34.157 165.136 34.4756 163.168C34.8698 159.98 37.1873 157.256 40.54 156.04C42.7142 155.504 44.6056 155.54 46.3178 156.112L46.6403 155.288C46.3178 155.18 46.0351 155.036 45.7125 154.928C44.4662 154.676 43.0009 154.604 41.5037 154.784C41.217 154.856 40.8984 154.964 40.6117 155.036C40.1498 155.18 39.7198 155.36 39.2578 155.608C39.1503 155.68 39.0428 155.716 38.9353 155.752C38.2226 156.076 37.3664 156.112 36.6178 155.896C33.3009 159.048 32.0506 163.528 33.2651 168.04C33.3367 168.22 33.4442 168.436 33.5159 168.612C33.9778 169.688 34.4437 170.76 35.1565 171.656C35.7976 172.3 36.4387 172.908 37.1196 173.556C37.5815 173.88 38.0832 174.2 38.6168 174.488C38.8676 174.632 39.1503 174.776 39.437 174.916C41.647 175.668 44.0043 175.812 46.0709 175.24C46.3576 175.168 46.6403 175.096 46.8912 174.988C47.9623 174.628 48.926 174.128 49.7462 173.448C51.3151 172.516 52.4937 171.084 53.2065 169.508H53.1986Z" fill="#F5B731" fill-opacity="0.8"/>
<path opacity="0.8" d="M50.8452 156.536C50.3475 156.108 49.7024 155.748 49.0613 155.388C49.2764 155.496 49.4556 155.64 49.6308 155.748C49.8099 155.892 49.9891 156.036 50.1643 156.176C52.9835 158.54 54.5166 162.34 54.0148 165.848C53.979 166.244 53.8715 166.816 53.7282 167.352C53.5848 167.96 53.7281 168.64 54.1224 169.144C54.2299 169.288 54.3732 169.432 54.5484 169.54C54.5843 169.36 54.5484 169.18 54.4768 169.004C54.4768 168.98 54.4648 168.956 54.4409 168.932C54.3692 168.824 54.3334 168.68 54.2976 168.572C54.2976 168.548 54.2856 168.524 54.2617 168.5C54.2259 168.392 54.2259 168.284 54.1901 168.14V168.032C54.1542 167.744 54.1901 167.496 54.2617 167.208C54.4768 166.348 54.5484 165.488 54.5484 164.628V164.412C54.5843 161.368 53.3339 158.536 50.8373 156.528L50.8452 156.536Z" fill="#F5B731" fill-opacity="0.8"/>
<path opacity="0.8" d="M128.313 162.304C128.206 162.304 128.098 162.304 127.991 162.34C128.453 165.456 128.063 168.18 126.812 170.224C126.386 171.156 125.777 172.052 125.028 172.804C125.562 172.304 126.064 171.764 126.49 171.192C126.741 170.796 126.884 170.332 127.095 169.94C127.593 169.152 127.987 168.292 128.202 167.36C128.453 165.712 128.664 163.956 128.31 162.308L128.313 162.304Z" fill="#F5B731" fill-opacity="0.8"/>
<path opacity="0.8" d="M125.315 158.832C125.458 159.084 125.602 159.332 125.741 159.62C126.064 160.228 126.346 160.732 126.812 161.052C126.35 160.516 126.064 159.8 125.669 159.116C124.957 157.792 123.85 156.752 122.639 155.928C122.496 155.82 122.317 155.748 122.177 155.676C123.424 156.464 124.531 157.54 125.315 158.828V158.832Z" fill="#F5B731" fill-opacity="0.8"/>
<path opacity="0.8" d="M125.996 169.756C127.457 167.32 127.386 164.344 127.031 162.16C125.853 161.764 125.355 160.872 124.929 160.048C124.786 159.796 124.678 159.548 124.503 159.332C122.862 156.572 119.581 154.78 116.228 154.712C115.265 154.676 114.373 154.856 113.481 155.14C113.194 155.212 112.947 155.284 112.696 155.356C112.055 155.572 111.45 155.892 110.948 156.288C110.769 156.396 110.626 156.504 110.451 156.648C109.594 157.328 108.882 158.116 108.312 159.048C108.061 159.476 107.886 159.944 107.671 160.372C107.42 160.836 107.066 161.232 106.6 161.484C106.457 161.628 106.313 161.736 106.174 161.844C106.066 161.916 105.959 161.988 105.816 162.06C105.601 163.208 105.457 164.424 105.493 165.608C105.529 165.824 105.565 166.036 105.601 166.252C106.134 166.144 106.708 166.072 107.241 165.964C107.492 165.928 107.703 165.892 107.954 165.82H107.99C108.205 165.784 108.416 165.748 108.631 165.712C108.416 164.028 108.667 162.272 109.415 160.732C110.164 159.48 111.163 158.404 112.338 157.544C111.697 157.904 111.092 158.368 110.626 158.94C109.985 159.548 109.519 160.228 109.164 160.984C108.703 161.736 108.416 162.488 108.38 163.312C108.344 163.492 108.344 163.672 108.308 163.812C108.237 164.172 108.165 164.492 108.308 164.708C108.452 164.924 108.344 165.208 108.129 165.352C108.093 165.388 108.022 165.388 107.986 165.388C107.807 165.424 107.592 165.352 107.488 165.172C107.201 164.636 107.309 164.096 107.416 163.632C107.452 163.488 107.488 163.344 107.488 163.236C107.56 162.268 107.882 161.372 108.416 160.512C108.81 159.724 109.344 158.936 110.021 158.292C112.123 155.892 115.762 154.996 119.044 156.108C120.222 156.432 121.289 157.04 122.217 157.936C123.288 158.616 124.037 159.656 124.57 160.804C125.96 163.096 125.817 166.18 124.642 168.544C124.144 169.404 123.499 170.156 122.751 170.836C122.392 171.264 121.966 171.624 121.504 171.948C120.397 172.808 119.008 173.2 117.726 173.524C117.299 173.596 116.869 173.596 116.408 173.596C115.48 173.596 114.516 173.488 113.553 173.236C110.769 172.232 108.631 170.084 107.811 167.504C107.739 167.324 107.811 167.144 107.918 167.04C107.954 167.004 108.026 166.932 108.097 166.932C108.348 166.86 108.595 167.004 108.703 167.256C109.2 168.868 110.307 170.264 111.733 171.268C110.877 170.516 110.128 169.62 109.559 168.58C109.236 167.972 108.989 167.328 108.846 166.68C108.631 166.716 108.42 166.752 108.205 166.788C108.026 166.824 107.918 166.86 107.779 166.86C107.671 166.896 107.564 166.896 107.456 166.932C106.923 167.04 106.349 167.112 105.816 167.22C105.959 167.9 106.174 168.58 106.528 169.192C107.062 170.444 107.671 171.664 108.703 172.524C109.2 173.06 109.738 173.564 110.343 173.956C110.666 174.172 110.984 174.352 111.343 174.564C113.306 175.496 115.516 175.888 117.654 175.676C119.581 175.424 121.222 174.78 122.504 173.704C124.037 172.7 125.287 171.34 126 169.764L125.996 169.756Z" fill="#F5B731" fill-opacity="0.8"/>
</svg>
