<?xml version="1.0" encoding="UTF-8"?>
<svg id="Layer_1" data-name="Layer 1" xmlns="http://www.w3.org/2000/svg" viewBox="0 0 80.44 112.77">
  <defs>
    <style>
      .cls-1 {
        fill: #f5f3f1;
      }

      .cls-2 {
        fill: #fdfefe;
      }

      .cls-3 {
        fill: #dceade;
      }

      .cls-4 {
        fill: none;
        stroke: #383b45;
        stroke-linecap: round;
        stroke-linejoin: round;
        stroke-width: 1.44px;
      }
    </style>
  </defs>
  <path class="cls-1" d="m40.86,102.51c-1.67,0-1.67.13-3.34.13-2.51-.11-4.18-.21-6.68-.21-1.67,0-1.67.16-3.34.16-2.54-.05-4.94-.84-6.82-2.12-3.34-2.23-3.62-4.4-3.62-7.55-.59-2.75-.77-5.13-1.25-7.91-.24-1.96-.42-3.3-.7-5.29-.17-1.31.07-1.34-.1-2.67-.18-1.31-.28-1.31-.45-2.65-.24-1.99-.38-3.33-.63-5.29,0-1.39-1.46-3.8,1.25-4.03,5.85-.13,11.38.34,17.23.08,3.62-.18,6.72-.16,10.34.05,2.57,0,4.31.03,6.89.08,1.81.13,5.01-.81,5.18,1.2-.17,1.31-.24,1.31-.42,2.65-.17,1.31-.31,1.31-.45,2.65-.1,1.99-.21,3.33-.52,5.29-.69,2.75-.91,5.13-1.15,7.91-.18,1.99-.38,3.33-.77,5.29-.18,1.33.03,1.33-.14,2.67-.35,1.89-.24,3.67-1.25,5.42-1.84,2.46-5.29,4.38-9.26,4.14Z"/>
  <path class="cls-3" d="m43.7,102.51c-1.67,0-1.67.13-3.34.13-2.51-.11-4.17-.21-6.68-.21-1.67,0-1.67.16-3.34.16-2.54-.05-4.94-.84-6.82-2.12-3.34-2.23-3.62-4.4-3.62-7.55-.59-2.75-.77-5.13-1.25-7.91-.24-1.96-.42-3.3-.7-5.29-.17-1.31.07-1.34-.1-2.67-.17-1.31-.28-1.31-.45-2.65-.24-1.99-.38-3.33-.63-5.29,0-1.39-1.46-3.8,1.25-4.03,5.85-.13,11.38.34,17.22.08,3.62-.18,6.72-.16,10.34.05,2.57,0,4.31.03,6.89.08,1.81.13,5.01-.81,5.19,1.2-.18,1.31-.24,1.31-.42,2.65-.17,1.31-.31,1.31-.45,2.65-.11,1.99-.21,3.33-.52,5.29-.69,2.75-.9,5.13-1.15,7.91-.18,1.99-.38,3.33-.77,5.29-.18,1.33.03,1.33-.14,2.67-.35,1.89-.24,3.67-1.25,5.42-1.84,2.46-5.29,4.38-9.25,4.14Z"/>
  <path class="cls-4" d="m40.86,102.51c-1.67,0-1.67.13-3.34.13-2.51-.11-4.18-.21-6.68-.21-1.67,0-1.67.16-3.34.16-2.54-.05-4.94-.84-6.82-2.12-3.34-2.23-3.62-4.4-3.62-7.55-.59-2.75-.77-5.13-1.25-7.91-.24-1.96-.42-3.3-.7-5.29-.17-1.31.07-1.34-.1-2.67-.18-1.31-.28-1.31-.45-2.65-.24-1.99-.38-3.33-.63-5.29,0-1.39-1.46-3.8,1.25-4.03,5.85-.13,11.38.34,17.23.08,3.62-.18,6.72-.16,10.34.05,2.57,0,4.31.03,6.89.08,1.81.13,5.01-.81,5.18,1.2-.17,1.31-.24,1.31-.42,2.65-.17,1.31-.31,1.31-.45,2.65-.1,1.99-.21,3.33-.52,5.29-.69,2.75-.91,5.13-1.15,7.91-.18,1.99-.38,3.33-.77,5.29-.18,1.33.03,1.33-.14,2.67-.35,1.89-.24,3.67-1.25,5.42-1.84,2.46-5.29,4.38-9.26,4.14Z"/>
  <path class="cls-4" d="m20.91,55.91c-3.05-3.15-3.57-8.28.1-10.47,3.4-1.85,8.39.43,8.88,4.31.59,3.35-.21,7.25.28,10.56"/>
  <path class="cls-4" d="m22.2,44.95c-4.16-5.43-8.5-10.6-10.54-17.22-1.42-3.11-2.6-6.72-3.02-10.2-.59-3.48-1.14-7.19-.38-10.63C10.41-1.89,15.3-.36,20.26,5.63c3.47,4.31,5.34,9.74,7.49,14.71,1.35,5.36,2.91,10.67,3.54,16.16.35,2.19.76,4.41,1.21,6.52.07,2.25.24,4.54.59,6.63.45,2.85.31,6.33.56,9.31.07,1.13,0,2.19.04,3.12.07,1.85.24,1.56.31,3.11"/>
  <path class="cls-4" d="m31.87,39.12c-.52-3.25.21-6.63.56-9.94.21-3.31,1.18-6.59,2.39-9.71.59-2.19,1.42-4.31,2.6-6.16,1.84-2.78,4.71-5.53,8.32-4.87,3.99.96,4.79,4.24,4.41,7.72-.14.99-.14,2.12-.49,3.21-.9,1.92-1.91,3.94-2.77,5.93-2.18,5.3-6.42,9.14-9.02,14.31-2.63,3.74-3.36,8.41-4.54,12.85"/>
  <path class="cls-4" d="m34.75,58.43c.31-2.35,1.21-4.57,2.39-6.66,2.05-4.24,4.86-8.25,8.7-11.16,2.6-2.52,5.9-4.37,9.16-5.83,3.19-.79,6.63-1.56,9.75-1.36,2.53.17,4.58,1.13,4.41,3.68-.04,1.22-.21,2.38-.97,3.35-1.53,1.69-3.95,2.62-6.38,3.25-2.18.79-4.72,1.06-7.11,1.39-3.43.96-6.97,1.92-10.23,3.51-3.12,1.72-5.79,4.11-8.01,6.89-1.8,2.95-3.08,6.23-3.78,9.71"/>
  <path class="cls-4" d="m33.88,62.34c2.67-4.54,7.73-8.08,13.25-8.41,2.25-.23,4.44.16,6.38,1.39,1.67.93,2.53,1.76,2.57,2.52.07.96-1.11,1.76-2.67,2.29-3.26,1.06-7.18.37-10.54.1-4.72-.53-9.05-.26-10.06,5.04"/>
  <path class="cls-4" d="m18.87,47.73c-3.26-3.51-7.42-7.29-12.28-8.21-4.89-.89-7.98,2.88-4.16,6.66,1.59,1.76,4.02,3.15,6.55,4.11,3.16,1.59,6.93,2.68,10.3,3.68"/>
  <path class="cls-4" d="m31.18,61.35c-2.39-.63-4.61-1.39-7.01-2.35-2.25-.76-3.4-1.79-5.62-1.76"/>
  <path class="cls-4" d="m33.75,64.99c-.62-2.02-1.91-3.54-3.57-4.77-1.49-1.46-3.4-2.48-5.24-3.31-2.29-1.13-5.34-.36-7.66.66-2.39,1.13-3.81,2.72-6.21,3.81-2.12,1.33-9.12,4.67-7.28-.46,1.7-3.25,5.69-5.1,9.5-5.3,3.71-.83,7.66-.2,11.2,1.16"/>
  <path class="cls-4" d="m27.02,45.55c-1.49-5.4-3.78-11.43-5.48-16.93-1.42-3.21-2.78-6.89-3.68-10.03"/>
  <path class="cls-4" d="m16.47,13.68c-.52-1.62-1.14-3.28-1.77-4.87"/>
  <path class="cls-4" d="m30.11,54.19c1.18,3.35,2.74,7.62,3.74,11.03"/>
  <path class="cls-4" d="m23.06,58.73c.66,1.39,5.13,3.81,6.28,4.8,1.28,1.06,1.18.56,1.66,1.62"/>
  <path class="cls-4" d="m29.83,60.92c0,1.29.24,1.59.52,3.21"/>
  <path class="cls-4" d="m14.24,69.3h24.91"/>
  <path class="cls-4" d="m14.95,72.72h7.83"/>
  <path class="cls-4" d="m28.48,79.56h5.69"/>
  <path class="cls-4" d="m19.22,99.23h9.25"/>
  <path class="cls-4" d="m31.32,99.23h4.27"/>
  <path class="cls-4" d="m41.29,69.3h10.68"/>
  <path class="cls-4" d="m28.48,72.72h19.22"/>
  <path class="cls-4" d="m14.95,76.14h24.91"/>
  <path class="cls-4" d="m17.09,90.68c1.94,0,1.94.73,3.92.73s1.94-.27,3.92-.27c2.92.36,4.9.54,7.81.27"/>
  <path class="cls-4" d="m24.92,85.55c1.99,0,1.99.76,3.98.76s1.99-.29,3.99-.29c4.2.67,7.76.38,11.96-.29"/>
  <path class="cls-4" d="m16.38,86.4c2.11-.32,2.83.22,4.98,0"/>
  <path class="cls-4" d="m29.9,92.39h10.68"/>
  <path class="cls-2" d="m79.72,91.53c-4.89-.65-5.39-.52-10.27-1.04-4.19-.46-13.7-1.74-17.89-2-4.45-.29-4.63-2.92-8.95-4.42-1.44-.49-1.98-1.04-3.5-1.08-2.29-.07-4.53.55-6.77,1.08-2.03.46-4.35.16-6.3.85-.39.13-1.23.29-1.49.72-.62,1.01,1.59,2.09,2.11,2.18.69.13,1.49.03,2.21.03s6.1,1.6,6.2,2.64c.08.78-.62.98-1.05,1.04-2.86.52-5.53,1.92-8.21,3.19-2.44,1.17-5.25,1.66-7.51,3.26-.21.13-.36.29-.57.42-.33.23-.28.13-.44.62-.15.49-.33,1.53-.05,1.96.28.46,1.03.23,1.44.23,1.11,0,2.42.13,3.47-.29.23-.1.31-.26.57-.2.41.07.8.62,1,1.08.18.42.18.75.18,1.24,0,.65.13,1.14.36,1.73.13.33,0,.26.31.36.15.07.41,0,.59,0h1.23c1.59,0,3.63-2.51,4.84.1.33.75.41,1.69.93,2.25,1.18,1.3,2.78-.46,4.04.82.54.52,1,1.24,1.67,1.4.59.16,1.21-.16,1.75-.49,5.14-3.03,9.84-7.69,15.58-6.16,4.12,1.07,7.69,2.38,11.6,4.43,3.88,2.02,11.6,4.58,11.6,4.58"/>
  <path class="cls-4" d="m79.72,91.53c-4.89-.65-5.39-.52-10.27-1.04-4.19-.46-13.7-1.74-17.89-2-4.45-.29-4.63-2.92-8.95-4.42-1.44-.49-1.98-1.04-3.5-1.08-2.29-.07-4.53.55-6.77,1.08-2.03.46-4.35.16-6.3.85-.39.13-1.23.29-1.49.72-.62,1.01,1.59,2.09,2.11,2.18.69.13,1.49.03,2.21.03s6.1,1.6,6.2,2.64c.08.78-.62.98-1.05,1.04-2.86.52-5.53,1.92-8.21,3.19-2.44,1.17-5.25,1.66-7.51,3.26-.21.13-.36.29-.57.42-.33.23-.28.13-.44.62-.15.49-.33,1.53-.05,1.96.28.46,1.03.23,1.44.23,1.11,0,2.42.13,3.47-.29.23-.1.31-.26.57-.2.41.07.8.62,1,1.08.18.42.18.75.18,1.24,0,.65.13,1.14.36,1.73.13.33,0,.26.31.36.15.07.41,0,.59,0h1.23c1.59,0,3.63-2.51,4.84.1.33.75.41,1.69.93,2.25,1.18,1.3,2.78-.46,4.04.82.54.52,1,1.24,1.67,1.4.59.16,1.21-.16,1.75-.49,5.14-3.03,9.84-7.69,15.58-6.16,4.12,1.07,7.69,2.38,11.6,4.43,3.88,2.02,11.6,4.58,11.6,4.58"/>
</svg>