<svg width="252" height="248" viewBox="0 0 252 248" fill="none" xmlns="http://www.w3.org/2000/svg">
<path d="M249.388 249.742V250.192C249.388 250.302 249.388 250.302 249.278 250.302C244.817 250.192 240.24 250.077 235.554 249.967C225.737 249.967 216.365 249.857 206.773 249.857C197.291 249.742 187.804 249.633 178.102 249.523C177.987 249.523 177.877 249.523 177.652 249.523C165.492 249.967 155.116 250.526 142.956 249.857C137.491 250.192 133.139 250.302 128.453 250.302C125.775 250.302 122.988 250.302 119.865 250.192C114.06 250.192 114.06 250.526 108.26 250.526C102.46 250.526 102.46 249.967 96.6595 249.967C92.3081 249.967 88.736 250.077 85.0541 250.192C81.4871 250.302 77.8051 250.412 73.4537 250.636C67.6535 250.636 67.6535 249.967 61.8483 249.967C59.1706 249.967 57.7218 250.077 56.273 250.192C54.7093 250.302 53.2605 250.526 50.248 250.526C41.5452 250.302 35.745 250.077 27.0422 250.192C21.2421 250.192 21.242 250.526 15.4369 250.526C9.63168 250.526 9.63668 249.967 3.83649 249.967C3.39186 249.967 2.94224 249.967 2.4976 249.967C2.3877 249.967 2.3877 249.967 2.3877 249.857C4.39603 215.289 17.2254 204.249 44.8924 189.864C46.2313 189.195 47.5702 188.526 49.019 187.747C55.3787 184.96 61.6285 181.615 67.3188 177.376C67.3188 177.376 67.4287 177.266 67.3188 177.266C63.4121 164.109 63.8567 147.272 64.9758 133.446C65.7551 125.416 67.7634 119.504 69.8817 111.81C70.4412 108.579 70.2164 104.899 70.661 100.775L70.8858 100.55V100.44C65.3105 94.9728 62.298 86.055 68.318 81.0368C69.3222 80.4775 70.4412 80.143 71.5553 80.143L72.7843 79.9233C72.7843 79.9233 72.8942 79.9233 72.8942 79.8084C73.119 73.0077 75.0124 65.9822 78.1398 59.516C81.2672 53.0498 85.6136 47.3626 90.7444 43.2382C96.5446 39.4433 103.689 36.2127 110.268 34.8745C117.522 32.9771 124.436 34.9844 130.461 39.668C136.486 43.4579 140.393 49.4797 142.736 56.5051C146.863 63.5306 147.867 68.2142 147.977 76.7975C147.977 77.8012 148.202 78.2506 149.65 78.2506C151.434 78.2506 153.223 78.9197 154.671 80.3677C159.133 85.7204 156.235 93.3001 151.099 98.4331V98.543L151.434 98.8775C151.434 98.8775 151.434 98.8775 151.434 98.9874C152.218 106.347 153.667 113.263 155.341 120.174C157.014 127.089 158.798 134 160.252 141.14C161.476 151.621 161.81 162.546 160.472 173.476L160.252 173.811V173.921C163.039 175.593 165.937 177.266 168.505 178.829C174.974 181.725 183.787 185.849 189.033 188.306C191.151 188.975 193.384 189.644 195.502 190.423C200.303 191.986 204.875 193.769 209.226 195.886C212.683 197.449 215.586 199.68 218.488 201.463C221.836 203.136 224.843 204.918 227.521 207.15C230.199 209.377 232.767 211.834 235.219 214.845C240.8 221.201 244.257 230.009 246.155 237.704C248.608 244.505 248.718 243.386 249.388 249.742Z" fill="#F5F3F1"/>
<path d="M55.7948 188.513C53.8995 189.517 53.2294 192.084 54.1195 194.091C55.5747 197.438 57.585 201.897 59.0352 207.027C60.2654 211.267 61.1556 215.951 62.0507 220.521C62.6108 223.757 62.4958 228.442 62.9459 233.126C63.2809 237.586 64.171 242.161 64.2861 245.617C64.3961 248.179 66.4064 249.967 68.9718 249.967C71.8772 249.967 76.0079 250.521 80.9236 250.636C84.4992 250.636 88.5148 250.302 92.8704 250.302C96.671 250.302 100.692 250.412 104.822 250.412C108.728 250.412 112.748 250.636 116.769 250.636C120.68 250.636 124.7 249.967 128.721 249.967C132.742 249.967 136.762 250.521 140.668 250.521C144.798 250.521 148.819 249.967 152.62 249.967C156.86 249.967 160.881 250.077 164.566 250.077C169.032 250.077 173.053 250.412 176.518 250.412C181.764 250.412 186.23 246.396 186.79 241.157C187.46 235.469 187.795 229.331 189.245 224.202C190.585 219.632 192.596 215.282 194.496 210.817C196.281 206.357 197.957 201.897 200.082 197.657C201.757 194.311 200.527 189.851 196.951 188.513C194.051 187.399 191.036 186.84 188.575 185.611C185.675 184.163 183.329 182.27 180.984 181.041C176.963 179.034 172.608 176.801 169.032 174.684C164.676 172.007 159.206 171.672 154.515 173.68C151.614 174.909 147.814 175.797 143.798 176.801C140.333 177.695 136.762 179.144 132.962 179.593C129.276 180.038 125.37 180.597 121.685 180.372C116.214 180.038 111.743 178.255 107.948 177.251C101.917 175.688 97.4511 174.239 94.7707 172.566C92.4254 171.003 89.745 171.228 87.8447 173.235C86.5095 174.684 85.6143 175.243 84.1641 176.467C82.2638 178.03 79.5834 174.574 76.678 176.357C73.2174 178.474 72.1023 179.144 67.8566 181.601C63.5009 184.163 59.2603 186.615 55.7948 188.513Z" fill="#F5B731" fill-opacity="0.8"/>
<path d="M89.8091 104.557C91.1358 111.16 94.4525 116.564 98.8731 120.409C103.625 124.614 109.818 127.013 116.12 127.136C122.971 126.776 129.495 123.173 134.47 117.769C137.787 114.166 140.327 109.843 141.767 105.159C142.099 104.197 142.317 103.24 142.539 102.159" stroke="#454138" stroke-width="0.936842" stroke-linecap="round" stroke-linejoin="round"/>
<path d="M138.376 81.3442C138.819 83.7928 139.376 86.1316 139.818 88.5851C139.818 88.8045 139.932 89.0289 139.932 89.1386C140.931 94.5941 141.816 99.94 142.373 105.401C143.263 113.414 143.705 121.548 143.263 130.01C143.814 138.249 143.372 146.826 143.372 155.179C143.372 158.186 143.372 161.302 143.596 164.2C143.929 167.651 144.371 171.101 144.813 174.667C145.37 178.896 146.036 183.13 146.702 186.805" stroke="#454138" stroke-width="0.936842" stroke-linecap="round" stroke-linejoin="round"/>
<path d="M110.624 111.016C112.633 112.168 118.437 112.678 120.337 109.097" stroke="#454138" stroke-width="0.936842" stroke-linecap="round" stroke-linejoin="round"/>
<path d="M78.7079 83.4214C77.524 81.6865 75.5066 80.3878 73.2556 80.0632C72.7778 79.9565 72.4221 79.9565 71.9496 79.9565C70.7657 79.9565 69.5765 80.1746 68.3926 80.824C61.8732 85.6941 65.1913 94.4555 71.2382 99.7618C73.1335 101.492 75.3898 102.79 77.6408 103.546" stroke="#454138" stroke-width="0.936842" stroke-linecap="round" stroke-linejoin="round"/>
<path d="M110.624 34.1643C104.028 35.5246 96.7558 38.6968 91.0515 42.6659C80.6495 51.2793 73.7181 66.0137 73.1572 79.9564" stroke="#454138" stroke-width="0.936842" stroke-linecap="round" stroke-linejoin="round"/>
<path d="M71.7697 100.771C71.2906 104.955 71.5329 108.688 70.9299 112.082C68.6471 119.888 66.4828 125.88 65.6429 134.025C64.4369 148.163 64.0762 165.132 68.1679 178.479" stroke="#454138" stroke-width="0.936842" stroke-linecap="round" stroke-linejoin="round"/>
<path d="M110.624 34.1643C132.522 34.3933 142.345 62.1724 143.927 81.3441" stroke="#454138" stroke-width="0.936842" stroke-linecap="round" stroke-linejoin="round"/>
<path d="M149.477 77.1812C149.251 68.6314 148.216 63.7948 144.078 56.7062C141.663 49.5067 137.638 43.5415 131.43 39.7175C125.227 34.9918 118.098 32.9664 110.624 34.8809" stroke="#454138" stroke-width="0.936842" stroke-linecap="round" stroke-linejoin="round"/>
<path d="M89.8091 84.1193C95.9054 71.0489 108.854 59.3886 123.112 57.7542" stroke="#454138" stroke-width="0.936842" stroke-linecap="round" stroke-linejoin="round"/>
<path d="M117.562 41.1025C95.3067 42.2195 82.7854 62.8007 79.3073 82.3752C79.3073 82.9362 79.3073 83.6074 79.193 84.1683C78.9594 91.3259 79.193 97.9226 79.6551 104.75C80.0029 109.222 80.4649 113.806 80.9321 118.729C82.0898 129.017 81.5084 140.427 81.1605 150.941C80.2365 157.432 79.4215 164.7 77.3346 171.187C76.0627 174.993 74.3236 178.459 71.7695 181.254C76.8725 177.898 80.6985 173.986 83.481 169.624C87.1928 163.919 89.2745 157.432 90.4373 150.605C92.7526 135.844 90.2037 119.4 89.1603 105.085C89.3939 98.1479 89.1603 90.8751 90.0895 83.9429C91.3614 72.9786 95.1873 63.1363 106.437 57.3211" stroke="#454138" stroke-width="0.936842" stroke-linecap="round" stroke-linejoin="round"/>
<path d="M141.152 87.9829C141.369 85.1729 142.878 82.5761 145.027 80.8417C148.151 78.2449 152.455 77.4891 155.685 80.6285C159.99 85.8221 157.194 93.2831 152.133 98.1521C152.133 98.2635 152.027 98.2635 152.027 98.2635C150.195 99.9931 148.151 101.292 146.102 102.159" stroke="#454138" stroke-width="0.936842" stroke-linecap="round" stroke-linejoin="round"/>
<path d="M150.865 167.378C153.943 169.722 157.793 172.066 161.644 174.409C164.5 176.084 167.247 177.758 169.886 179.432C176.268 182.335 185.062 186.463 190.232 188.917C192.428 189.587 194.521 190.256 196.608 191.041C201.335 192.6 205.846 194.389 210.134 196.508C213.542 198.073 216.402 200.301 219.258 202.091C225.856 205.324 230.913 209.452 235.753 215.369C241.248 221.731 244.661 230.546 246.527 238.248C248.62 245.389 248.728 244.275 249.388 250.636" stroke="#454138" stroke-width="0.936842" stroke-linecap="round" stroke-linejoin="round"/>
<path d="M134.213 117.423C135.212 130.566 135.879 143.934 142.539 154.889" stroke="#454138" stroke-width="0.936842" stroke-linecap="round" stroke-linejoin="round"/>
<path d="M152.253 99.3835C153.787 113.869 157.949 126.827 160.905 140.983C162.106 151.301 162.434 162.06 161.12 172.928" stroke="#454138" stroke-width="0.936842" stroke-linecap="round" stroke-linejoin="round"/>
<path d="M98.135 120.198C97.6983 131.339 96.6163 141.701 91.1968 150.726" stroke="#454138" stroke-width="0.936842" stroke-linecap="round" stroke-linejoin="round"/>
<path d="M141.152 89.6699C142.585 94.3279 143.813 99.0951 144.935 103.867C148.003 116.838 149.844 130.256 150.865 143.564C150.865 151.55 150.252 159.644 149.23 167.52C149.024 169.402 148.717 171.289 148.411 173.176C147.696 177.943 146.876 182.601 145.956 187.259C145.241 190.805 144.527 194.355 143.707 197.906" stroke="#454138" stroke-width="0.936842" stroke-linecap="round" stroke-linejoin="round"/>
<path d="M46.792 192.355C54.5876 210.595 57.3061 230.728 57.8931 250.636" stroke="#454138" stroke-width="0.936842" stroke-linecap="round" stroke-linejoin="round"/>
<path d="M196.657 190.968C192.434 198.163 188.666 205.465 185.352 213.556C181.701 225.24 179.876 237.714 178.618 250.415C178.618 250.526 178.618 250.526 178.618 250.636" stroke="#454138" stroke-width="0.936842" stroke-linecap="round" stroke-linejoin="round"/>
<path d="M82.8706 170.153C98.089 181.93 124.051 182.14 143.298 175.365C144.866 174.842 146.43 174.217 147.998 173.489C149.451 172.864 150.91 172.136 152.253 171.404" stroke="#454138" stroke-width="0.936842" stroke-linecap="round" stroke-linejoin="round"/>
<path d="M3.77539 250.636C5.78868 215.939 18.6497 204.856 46.3851 190.414C47.7273 189.743 49.0695 189.071 50.5219 188.289C57.0075 185.376 63.1625 182.018 68.977 177.767C69.8685 177.096 70.765 176.424 71.7716 175.637C76.0236 172.73 75.9084 173.512 78.3724 170.599C78.4826 170.489 78.5928 170.379 78.708 170.153" stroke="#454138" stroke-width="0.936842" stroke-linecap="round" stroke-linejoin="round"/>
</svg>
