<svg width="180" height="180" viewBox="0 0 180 180" fill="none" xmlns="http://www.w3.org/2000/svg">
<path d="M157.819 88.921C157.928 86.9701 157.855 85.6723 157.783 83.7215C157.783 83.1088 157.819 82.7823 157.819 82.4599C157.855 82.1334 157.855 81.7747 157.855 81.0895C157.674 78.6711 157.747 76.6114 157.819 74.2293L157.855 73.3265C157.855 72.6775 157.819 72.3148 157.783 71.9923C157.747 71.6659 157.711 71.3434 157.711 70.7308C157.711 70.1181 157.747 69.8279 157.783 69.5014C157.819 69.1749 157.891 68.8162 157.891 68.131C157.928 65.241 157.964 63.0041 157.711 60.3318C157.711 59.969 157.747 59.574 157.747 59.2112C157.819 57.8046 157.928 56.3576 156.702 55.2411C155.62 54.048 154.29 54.0843 152.955 54.1206H150.036C147.19 54.1206 144.529 54.1206 141.574 53.9755C138.945 54.1568 136.678 54.1568 134.049 54.1568H133.868C131.673 53.9755 129.619 54.0117 127.46 54.048C126.306 54.048 125.121 54.0843 123.894 54.048C122.021 54.1931 120.365 54.1931 118.6 54.1931H116.369C113.74 54.0117 111.473 54.0843 108.88 54.1931H108.807C106.54 54.048 104.414 54.048 102.183 54.0843C101.029 54.0843 99.8791 54.1206 98.653 54.1206C96.7073 54.1931 95.4852 54.1931 93.6119 54.1568C91.6663 54.1931 90.408 54.1568 88.5709 54.048C87.9237 54.048 87.598 54.0843 87.2764 54.1206C86.9548 54.1568 86.6654 54.1931 86.0503 54.1931C85.4755 54.1931 85.1499 54.1568 84.8604 54.0843C84.5348 54.048 84.177 53.9755 83.5298 53.9755C82.3761 54.0117 81.4394 54.0117 80.5068 54.048C79.8957 54.0843 79.2485 54.0843 78.5249 54.1206C77.7692 54.1206 77.0496 54.0843 76.3662 54.0843C74.5653 54.048 72.8728 54.0117 70.9634 54.1568C70.3523 54.1568 70.0629 54.1206 69.7734 54.0843C69.4478 54.048 69.1262 53.9755 68.4428 53.9755C67.7956 53.9755 67.47 54.0117 67.1484 54.048C66.8268 54.0843 66.5373 54.1206 65.9223 54.1206C65.3474 54.1206 65.0218 54.0843 64.7324 54.0117C64.4068 53.9755 64.049 53.9029 63.4018 53.9029C62.7545 53.9029 62.4289 53.9392 62.1073 54.0117C61.7817 54.048 61.4963 54.1206 60.9174 54.1206C58.1436 53.9392 55.9125 53.8304 53.3197 53.9392C52.6724 53.9392 52.3468 53.9755 52.0614 53.9755C51.7358 54.0117 51.4504 54.0117 50.8031 54.0117C50.1921 54.0117 49.9027 53.9755 49.6132 53.9392C49.2876 53.9029 48.966 53.8666 48.2826 53.8666C46.5178 53.9392 45.2234 53.9755 43.2416 53.9029C42.5943 53.9029 42.2687 53.9392 41.9833 53.9392C41.6577 53.9755 41.3723 53.9755 40.725 53.9755C40.0778 53.9755 39.7522 54.0117 39.4306 54.048C39.109 54.0843 38.8196 54.1206 38.1724 54.1206C37.706 54.1568 37.2719 54.1206 36.8056 54.1206C36.0136 54.0843 35.2217 54.048 34.4659 54.2657V51.5934C34.4659 51.3757 34.285 51.1943 34.068 51.1943C33.8509 51.1943 33.67 51.3757 33.67 51.5934V54.5881C33.4529 54.6969 33.272 54.842 33.0951 55.0234C32.5926 55.5998 32.3755 56.2528 32.267 56.938C32.1585 57.5869 32.1946 58.2358 32.1946 58.9251C32.1946 59.3604 32.2308 59.7917 32.1946 60.2592V60.4769C30.249 61.2346 28.8098 62.859 28.3797 64.9912C27.9134 67.2644 28.7777 69.2515 29.6379 71.2023C29.9636 71.9601 30.3213 72.7179 30.5746 73.4756C30.864 74.2696 30.9726 74.846 31.0771 75.2813C31.1856 75.894 31.3304 76.2567 31.6158 76.4744C31.6519 76.5469 31.7243 76.5832 31.7967 76.5832H31.8328C31.9052 76.6195 31.9414 76.6195 32.0137 76.6558C32.0499 76.8372 32.0499 77.0185 32.0861 77.1596C32.1223 77.4135 32.1946 77.6997 32.1946 78.135C32.1585 78.1713 32.1223 78.1713 32.0861 78.1713C31.9776 78.2801 31.9414 78.4978 32.0137 78.6388C32.0499 78.6751 32.0861 78.7839 32.1946 78.8202C32.1946 79.1467 32.1585 79.3966 32.1223 79.6142C32.0861 79.9407 32.0137 80.2995 32.0137 80.9847V83.5844C32.0137 84.2333 32.0499 84.5961 32.0861 84.9185C32.1223 85.245 32.1585 85.5675 32.1585 86.1801C32.1585 86.7928 32.1223 87.1193 32.1223 87.4417C32.0861 87.7682 32.0861 88.1269 32.0861 88.7758C32.0861 89.4248 32.0861 89.715 32.0499 90.0374C32.0499 90.3639 32.0137 90.6864 32.0137 91.3716C32.0137 92.0568 32.0861 92.3833 32.1223 92.7057C32.1946 93.0322 32.2308 93.3184 32.2308 93.935C32.1946 94.9105 32.1585 95.7408 32.1223 96.5711C32.0861 97.3651 32.0499 98.1591 32.0137 99.1708C32.1585 102.456 32.1223 105.704 32.0861 108.881C32.0499 111.625 32.0137 114.475 32.0861 117.292C32.1223 119.207 32.1585 120.541 32.0861 122.456L32.1223 123.177C32.1585 123.899 32.1585 124.548 32.1585 125.164V127.619C32.1585 128.34 32.1946 128.953 32.1946 129.57C32.1585 129.642 32.1223 129.715 32.1223 129.787C32.1223 129.86 32.1585 129.933 32.1946 130.005C32.1946 130.872 32.1946 131.738 32.1585 132.822C32.1223 133.87 32.5203 134.846 33.2037 135.567C33.8509 136.253 34.7514 136.615 35.688 136.615C36.3352 136.615 36.6608 136.579 36.9824 136.579C37.3081 136.543 37.5935 136.543 38.2407 136.543C38.8517 136.543 39.1412 136.579 39.4668 136.615C39.7924 136.652 40.114 136.688 40.7974 136.688H41.7702C42.4175 136.688 43.0647 136.724 43.6797 136.724C45.2274 136.76 46.7028 136.797 48.359 136.724C51.4544 136.615 54.5538 136.615 57.5768 136.615C60.3144 136.615 63.1927 136.652 66.0027 136.543C66.5775 136.543 66.9032 136.579 67.1926 136.652C67.5182 136.688 67.876 136.76 68.5232 136.76C69.1704 136.76 69.4599 136.76 69.7815 136.724C70.1071 136.724 70.3925 136.688 71.0397 136.688H73.5603C74.2075 136.688 74.5331 136.652 74.8547 136.615C75.1763 136.579 75.4657 136.543 76.0808 136.543C77.7008 136.506 79.3209 136.543 80.8324 136.579C82.561 136.615 84.3258 136.652 86.1629 136.615C86.8101 136.615 87.1357 136.579 87.4573 136.543C87.6744 136.506 87.8553 136.506 88.1407 136.506C88.4664 136.543 88.8603 136.579 89.5075 136.579H89.9377C91.1638 136.652 92.2773 136.688 93.7526 136.652C95.1556 136.579 96.5264 136.579 97.8208 136.579C98.9384 136.579 100.088 136.615 101.278 136.543C102.753 136.615 104.16 136.652 105.491 136.652C106.572 136.652 107.65 136.652 108.876 136.724C109.668 136.724 110.46 136.688 111.215 136.688C112.944 136.652 114.6 136.579 116.437 136.724C117.085 136.724 117.41 136.688 117.768 136.615C118.094 136.579 118.379 136.506 118.994 136.506C119.609 136.506 119.895 136.543 120.184 136.579C120.51 136.615 120.831 136.688 121.515 136.688C122.881 136.688 123.927 136.652 125.153 136.579C125.583 136.543 126.053 136.543 126.556 136.506H126.664C128.501 136.506 129.796 136.579 131.561 136.724C133.108 136.724 134.262 136.652 135.593 136.579L136.602 136.506C138.511 136.579 139.769 136.615 141.643 136.579C143.407 136.615 144.63 136.543 146.322 136.47L146.72 136.434C148.448 136.434 149.638 136.506 151.295 136.652L151.761 136.688C152.408 136.688 152.77 136.615 153.092 136.579C153.417 136.506 153.703 136.47 154.281 136.47C155.363 136.543 156.263 136.216 156.911 135.567C157.558 134.918 157.847 134.016 157.775 132.931C157.775 132.319 157.811 132.028 157.883 131.702C157.92 131.375 157.992 131.017 157.992 130.332C157.992 129.683 157.956 129.32 157.92 128.997C157.883 128.671 157.847 128.349 157.847 127.736C157.847 127.123 157.883 126.797 157.883 126.474C157.92 126.148 157.92 125.789 157.92 125.14C157.92 124.491 157.883 124.165 157.847 123.842C157.811 123.516 157.775 123.193 157.775 122.581V119.981C157.775 119.368 157.811 119.078 157.847 118.752C157.883 118.425 157.956 118.066 157.956 117.381C157.956 116.696 157.92 116.369 157.847 116.047C157.811 115.721 157.739 115.434 157.739 114.785C157.739 114.173 157.775 113.846 157.811 113.524C157.847 113.197 157.883 112.839 157.883 112.19C157.956 110.311 157.883 108.615 157.811 106.845C157.775 106.051 157.739 105.257 157.702 104.39C157.702 103.778 157.739 103.488 157.811 103.161C157.883 102.835 157.92 102.476 157.92 101.754C157.739 98.7919 157.739 96.5549 157.956 93.9915C157.811 92.1495 157.775 90.8839 157.811 88.9371L157.819 88.921ZM152.887 135.926C152.597 135.999 152.312 136.035 151.733 136.035L151.303 135.999C149.646 135.89 148.42 135.781 146.66 135.781L146.262 135.817C145.289 135.854 144.461 135.926 143.633 135.926H142.23C142.157 135.781 142.049 135.672 141.868 135.672H141.795L141.365 134.479C140.863 133.036 140.356 131.625 139.781 130.219C140.465 130.219 141.112 130.255 141.763 130.255H142.338C143.922 130.291 145.578 130.328 147.234 130.328C149.216 130.291 150.475 130.291 152.348 130.364C152.995 130.364 153.321 130.328 153.642 130.328C153.968 130.291 154.253 130.291 154.901 130.291C155.512 130.291 155.801 130.328 156.127 130.364C156.38 130.4 156.665 130.436 157.136 130.436C157.136 131.049 157.1 131.375 157.027 131.698C156.991 132.024 156.919 132.383 156.919 133.068C156.991 133.935 156.774 134.62 156.271 135.128C155.805 135.632 155.081 135.849 154.217 135.813C153.57 135.777 153.244 135.849 152.887 135.922V135.926ZM43.5672 135.999C42.6305 135.962 41.73 135.962 40.721 135.962H40.6487C40.0376 135.962 39.712 135.926 39.4226 135.89C39.097 135.854 38.7754 135.817 38.1281 135.817C37.4809 135.817 37.1553 135.854 36.8337 135.854C36.5081 135.89 36.2227 135.89 35.6076 135.89C34.888 135.89 34.2046 135.6 33.6619 135.059C33.1233 134.483 32.8338 133.725 32.8338 132.895C32.87 131.883 32.87 131.053 32.87 130.259C33.8428 130.259 34.7795 130.295 35.7161 130.295H35.7523C37.1191 130.332 38.5261 130.368 40.0376 130.332C40.721 130.332 41.0466 130.295 41.3682 130.223C41.6939 130.186 41.9793 130.15 42.5943 130.15C43.2094 130.15 43.4948 130.186 43.8204 130.259C44.1461 130.332 44.5038 130.368 45.1872 130.368C47.0605 130.332 48.355 130.332 50.3006 130.368H50.4454C49.6896 132.101 49.0424 133.943 48.5359 135.749C48.4635 135.785 48.3912 135.858 48.355 135.93H48.2464C46.5902 136.075 45.1149 136.039 43.5672 136.003V135.999ZM29.0591 65.2007C29.4209 63.4676 30.5706 62.0972 32.1183 61.3757V61.8795C32.1183 63 32.0459 64.0077 31.9374 65.3458C31.4349 65.3458 30.9284 65.6723 30.5706 66.2124C30.2811 66.6477 30.245 67.1516 30.4982 67.6554C30.7877 68.268 31.4349 68.8122 32.0459 69.1709V69.316C32.0097 69.6425 31.9374 70.0012 31.9374 70.6864C31.9374 71.3354 31.9735 71.6618 31.9735 71.9843V72.2745C31.9735 72.5284 32.0097 72.8146 32.0097 73.2499C32.0097 73.8626 31.9735 74.189 31.9374 74.4792C31.9012 74.7694 31.865 75.0919 31.865 75.636C31.7926 75.5272 31.7565 75.3458 31.7203 75.1322C31.6479 74.6646 31.5032 74.048 31.2178 73.2177C30.9645 72.4236 30.6068 71.6296 30.245 70.8718C29.4168 69.0298 28.6249 67.2241 29.055 65.2048L29.0591 65.2007ZM34.3534 60.9041C36.0458 60.9041 37.6658 61.6981 38.6749 63.1411C40.5482 66.0311 39.6477 67.9778 38.5663 70.4325C38.1683 71.2991 37.7744 72.2019 37.4488 73.2136C37.2679 74.0077 37.1955 74.584 37.1231 75.0193C37.0146 75.8859 37.0146 75.9947 35.6116 76.0673C35.6116 75.7408 35.6116 75.3095 35.5755 74.8057C35.5031 72.4962 35.5031 70.8718 35.5755 69.6788C36.5121 69.5699 37.3764 69.2797 37.7342 68.522C37.9151 67.873 37.9151 67.0065 37.4086 66.4986C37.1915 66.2447 36.7613 65.9948 36.0418 66.1721C35.3584 66.3172 34.9966 67.2564 34.8519 68.9533C34.4539 68.9533 34.0961 68.917 33.7343 68.917C33.6619 67.2564 33.3363 66.2084 32.7253 65.7046V65.5595C32.8338 63.9351 32.9062 62.7783 32.9062 61.4079V61.1903C33.0147 61.154 33.0871 61.1177 33.1956 61.1177C33.3765 61.0815 33.5574 61.0452 33.7343 61.0452C33.9514 60.9001 34.1323 60.9001 34.3453 60.9001L34.3534 60.9041ZM32.7333 74.6969V74.5881C32.7695 74.2616 32.8057 73.9391 32.8057 73.2902C32.8057 72.605 32.7695 72.2785 32.7695 71.9561C32.7695 71.6336 32.7333 71.3071 32.7333 70.6945C32.7333 70.1181 32.7695 69.8279 32.8057 69.5377C32.878 69.5377 32.9142 69.574 32.9866 69.574C33.0589 72.6413 33.1675 74.7735 33.3484 76.0713H33.0951C32.9504 76.0713 32.8057 76.0713 32.6971 76.0351V75.8537C32.661 75.2773 32.6971 74.9871 32.7333 74.6969ZM32.878 68.7034C32.878 68.522 32.878 68.3406 32.9142 68.127C32.9504 68.3084 32.9504 68.526 32.9504 68.7396C32.9142 68.7396 32.878 68.7396 32.878 68.7034ZM34.7875 74.8057C34.7875 75.3095 34.8237 75.7449 34.8237 76.0673H34.1041C33.9232 74.8057 33.8147 72.6735 33.7423 69.6425C34.068 69.6788 34.4257 69.6788 34.7875 69.6788C34.7152 71.0129 34.7514 72.7461 34.7875 74.8057ZM35.6157 68.8485C35.7242 67.3692 35.9774 66.8976 36.1905 66.8614C36.299 66.8251 36.3714 66.8251 36.4438 66.8251C36.697 66.8251 36.8056 66.9339 36.8417 66.9702C37.0588 67.1878 37.1312 67.7279 36.9865 68.1995C36.8417 68.5986 36.2669 68.7759 35.6197 68.8485H35.6157ZM32.1223 68.2721C31.7605 68.0182 31.4027 67.6957 31.2218 67.3329C31.0771 67.0065 31.1495 66.7928 31.258 66.6477C31.4389 66.3938 31.7243 66.1439 31.9776 66.1439C31.9776 66.3978 32.0137 66.6115 32.0499 66.7928C32.0861 67.1193 32.1223 67.4055 32.1223 68.0544C32.1223 68.1633 32.1223 68.1995 32.1223 68.2721ZM34.281 77.3329L34.679 77.4055C35.2539 77.5143 36.1181 77.6957 36.3714 77.8408C36.299 77.9496 35.9413 78.1673 34.5343 78.2761C34.3172 78.2761 34.1041 78.3124 33.9232 78.3124C33.5614 78.2035 33.2398 78.131 32.9142 78.0947C32.878 77.6271 32.8419 77.3369 32.8057 77.083C32.8057 77.0467 32.8057 77.0105 32.7695 76.9379C33.2358 77.083 33.7423 77.2281 34.281 77.3329ZM32.8057 123.254L32.7695 122.569C32.8419 120.618 32.8057 119.32 32.7695 117.369C32.6971 114.552 32.7333 111.738 32.7695 108.993C32.8057 105.817 32.878 102.496 32.6971 99.2474C32.7333 98.3083 32.7695 97.5142 32.8057 96.7202C32.8419 95.8899 32.878 95.0596 32.9142 94.0479C32.9142 93.3627 32.8419 92.9999 32.8057 92.6775C32.7695 92.351 32.6971 92.0648 32.6971 91.4482C32.6971 90.7992 32.6971 90.4727 32.7333 90.1503C32.7333 89.8238 32.7695 89.5014 32.7695 88.8524C32.7695 88.2035 32.8057 87.877 32.8057 87.5546C32.8419 87.2281 32.8419 86.9056 32.8419 86.2567C32.8419 85.5715 32.8057 85.245 32.7695 84.9226C32.7333 84.5961 32.6971 84.3099 32.6971 83.661V81.025C32.6971 80.4123 32.7333 80.0858 32.7695 79.7634C32.8057 79.5457 32.8419 79.3281 32.8419 79.0419C33.0951 79.0782 33.3805 79.0782 33.7423 79.0419C33.8871 79.0782 33.9956 79.1507 34.1403 79.187C34.7514 79.4409 35.1493 79.6223 35.3664 79.7634C35.1855 79.7997 35.0046 79.8359 34.8277 79.8359C33.8911 79.9448 32.9182 80.0899 32.7373 80.7751C32.6288 81.4603 33.4569 81.7868 34.2127 82.1092C34.6107 82.2543 35.1132 82.472 35.2217 82.613C35.2941 82.7219 35.4388 82.7944 35.5473 82.7944C35.6197 82.7944 35.692 82.7581 35.7644 82.7219C35.9453 82.613 35.9815 82.3591 35.8729 82.1818C35.6197 81.819 35.081 81.6054 34.5061 81.3514C34.1805 81.2063 33.5695 80.9887 33.4971 80.9161C33.6418 80.7348 34.5061 80.6259 34.9001 80.5534C35.7282 80.4446 36.3392 80.372 36.4116 79.8682C36.4478 79.5054 36.1945 79.2555 35.4026 78.8565C36.2307 78.7477 37.0588 78.4575 37.0588 77.6997C37.0588 77.1596 36.484 76.9419 35.5111 76.7243C36.5201 76.688 37.0588 76.6155 37.3844 76.289C37.6377 76.0351 37.7462 75.6401 37.8146 74.9911C37.8869 74.5558 37.9231 74.0157 38.104 73.2942C38.3935 72.3188 38.7874 71.4522 39.1854 70.6219C40.3029 68.1673 41.3441 65.8577 39.2578 62.5728C38.5744 61.6336 37.7101 60.9484 36.7372 60.5131C35.5835 60.0093 34.2891 59.8642 32.9584 60.1504C32.9223 60.1504 32.8499 60.1867 32.8137 60.1867C32.8499 59.7513 32.8137 59.2838 32.8137 58.8525C32.7775 57.5909 32.7414 56.4341 33.4971 55.5313C33.4971 55.8578 33.4971 56.1439 33.4609 56.4704C33.4609 56.6881 33.6418 56.8695 33.8589 56.8695C34.076 56.8695 34.2569 56.6881 34.2569 56.4704C34.2569 55.9666 34.2931 55.495 34.2931 55.0275C34.9765 54.7735 35.7684 54.7735 36.6327 54.8098C37.099 54.8461 37.5694 54.8461 38.0357 54.8098C38.6829 54.8098 39.0085 54.7735 39.3663 54.7373C39.6557 54.701 39.9773 54.6647 40.5924 54.6647C41.2396 54.6647 41.5652 54.6284 41.8868 54.6284C42.2124 54.5922 42.4979 54.5921 43.1129 54.5921C45.0948 54.6647 46.4254 54.6284 48.1902 54.5559C48.8012 54.5559 49.0906 54.5922 49.4162 54.6284C49.7419 54.6647 50.0635 54.701 50.7107 54.701C51.3579 54.701 51.6835 54.6647 52.0051 54.6647C52.3307 54.6284 52.6162 54.6284 53.2634 54.6284C55.8201 54.5196 58.0512 54.6284 60.825 54.8098C61.5084 54.8098 61.834 54.7735 62.1556 54.701C62.4812 54.6647 62.7666 54.5921 63.3455 54.5921C63.9565 54.5921 64.246 54.6284 64.5716 54.701C64.8972 54.7373 65.2188 54.8098 65.866 54.8098C66.5494 54.8098 66.875 54.7735 67.1966 54.701C67.5222 54.6647 67.8077 54.6284 68.3865 54.6284C68.9976 54.6284 69.287 54.6647 69.6126 54.701C69.9383 54.7373 70.2599 54.7735 70.9432 54.7735C72.8166 54.6284 74.509 54.6647 76.2737 54.701C76.9933 54.701 77.7129 54.7373 78.4687 54.7373C79.1882 54.701 79.8355 54.701 80.4867 54.6647C81.4595 54.6284 82.36 54.5921 83.5097 54.5921C84.1208 54.5921 84.4102 54.6284 84.7358 54.701C85.0614 54.7373 85.383 54.8098 86.0664 54.8098C86.7498 54.8098 87.0754 54.7735 87.397 54.701C87.7227 54.6647 88.0081 54.6284 88.587 54.6284C90.3879 54.7373 91.6823 54.7735 93.628 54.7373C95.4651 54.7735 96.7234 54.7735 98.6691 54.701C99.859 54.701 101.045 54.701 102.199 54.6647C104.394 54.6284 106.484 54.5922 108.787 54.7735H108.896C111.489 54.701 113.72 54.5922 116.349 54.7735H118.58C120.345 54.7735 122.037 54.8098 123.911 54.6284H127.476C129.671 54.5922 131.762 54.5922 134.029 54.7735H134.459C136.907 54.7735 139.102 54.7735 141.59 54.5921C144.509 54.7373 147.206 54.7373 150.052 54.7373H151.673C152.103 54.7735 152.537 54.7735 152.967 54.7373C154.193 54.701 155.27 54.701 156.135 55.6038C157.108 56.5067 157.035 57.6635 156.927 58.9976C156.89 59.3967 156.89 59.7554 156.89 60.1907C157.144 62.8267 157.144 65.0637 157.071 67.9174C157.071 68.5663 157.035 68.8565 156.999 69.179C156.963 69.5054 156.927 69.8642 156.927 70.5131C156.927 71.1983 156.963 71.5248 156.999 71.8835C157.035 72.21 157.071 72.4962 157.071 73.1129L157.035 73.9794C156.963 76.3978 156.89 78.4575 157.071 80.8758C157.071 81.5248 157.035 81.8512 157.035 82.1737C156.999 82.5002 156.999 82.8226 156.999 83.5078C157.071 85.4586 157.108 86.7202 157.035 88.6711C156.999 90.6219 156.999 91.9197 157.144 93.8343C156.927 96.3978 156.927 98.6348 157.108 101.634C157.108 102.246 157.071 102.573 156.999 102.895C156.927 103.218 156.89 103.58 156.89 104.266C156.927 105.132 156.963 105.926 156.999 106.72C157.071 108.49 157.144 110.15 157.071 112.028C157.071 112.677 157.035 112.968 156.999 113.29C156.963 113.617 156.927 113.975 156.927 114.624C156.927 115.309 156.963 115.672 157.035 115.995C157.071 116.321 157.144 116.607 157.144 117.224C157.144 117.873 157.108 118.163 157.071 118.486C157.035 118.812 156.999 119.171 156.999 119.82V122.419C156.999 123.105 157.035 123.431 157.071 123.754C157.108 124.08 157.144 124.366 157.144 124.983C157.144 125.632 157.108 125.958 157.108 126.281C157.071 126.607 157.071 126.93 157.071 127.615C157.071 128.3 157.108 128.627 157.144 128.985C157.144 129.13 157.18 129.276 157.18 129.453C156.782 129.453 156.533 129.417 156.279 129.38C155.954 129.344 155.632 129.308 154.949 129.308C154.302 129.308 153.976 129.344 153.654 129.344C153.329 129.38 153.043 129.38 152.428 129.38C150.555 129.308 149.297 129.308 147.315 129.344C145.659 129.38 144.039 129.308 142.419 129.272H141.518C140.835 129.272 140.187 129.235 139.5 129.235C138.744 127.466 137.88 125.733 136.799 124.181C135.862 122.847 134.817 121.617 133.486 120.569C133.269 120.352 133.056 120.134 132.839 119.92C132.409 119.453 131.938 118.981 131.364 118.55L131.291 118.478C129.744 117.466 128.123 116.454 126.54 115.374C125.711 114.975 124.883 114.544 124.019 114.145C121.535 112.915 118.942 111.69 116.53 110.32L116.457 110.029L116.385 109.667C116.168 109.018 115.81 108.473 115.485 107.933C115.34 107.679 115.195 107.466 115.055 107.248C114.443 105.805 113.507 104.54 112.281 103.314C112.245 102.738 112.172 102.158 111.991 101.545C111.81 100.86 111.561 100.211 111.199 99.5215C111.489 99.5578 111.738 99.594 111.991 99.594H112.245C113 99.4489 113.29 98.9814 113.434 98.6186C113.865 97.2845 112.534 95.116 111.742 94.2494C110.375 93.0201 108.791 91.7585 107.384 90.7105C106.303 89.9891 105.045 89.3401 103.569 88.7597C103.895 86.9903 103.859 85.0032 103.461 82.7299C104.144 82.2946 104.253 82.0447 104.47 81.5006C104.578 81.2466 104.723 80.9242 104.936 80.4889C105.945 79.0459 106.412 77.0588 106.267 75.0032C106.556 71.9359 105.837 68.5421 104.43 66.3374C104.032 65.761 103.602 65.2531 103.135 64.713C102.235 63.7376 101.153 62.871 99.9675 62.1496C96.0078 60.4889 91.9758 60.5252 88.5186 62.1858C86.8262 63.0887 85.4594 64.5317 84.5589 66.2648C82.9751 68.5381 82.1831 71.3192 82.3278 74.1004C81.7892 74.2092 81.3188 74.4994 80.961 74.9669C80.3862 75.6884 80.1329 76.7001 80.3138 77.7843C80.3862 78.6872 80.8163 79.5175 81.5037 80.1664C81.6846 80.3478 81.8294 80.4929 81.9339 80.6017C82.4364 81.1056 82.6535 81.3232 83.4454 81.5772C82.6535 85.6561 83.5539 89.5578 85.9297 92.1172C85.2463 93.1652 85.2102 94.5356 85.2825 95.8375C84.9931 96.0189 84.6353 96.2003 84.2735 96.4139C83.0836 97.0991 81.5721 97.9294 80.5631 98.7234C78.8707 99.6988 77.323 100.96 76.0607 102.444C74.1512 104.608 72.2819 107.031 71.2729 109.808C69.9423 110.71 68.5353 111.541 67.1685 112.335C65.4761 113.31 63.7475 114.358 62.1274 115.547L61.444 116.015C59.3898 117.421 57.2673 118.905 55.7919 121.033C54.5658 122.476 53.5247 124.427 52.8413 125.725C52.1217 126.845 51.4383 128.07 50.8232 129.372H50.3207C48.3751 129.336 47.0806 129.336 45.2073 129.372C44.5963 129.372 44.3069 129.336 43.9812 129.263C43.6556 129.191 43.2978 129.155 42.6506 129.155C42.0034 129.155 41.6416 129.191 41.32 129.263C40.9944 129.3 40.709 129.336 40.0939 129.336C38.5824 129.372 37.2116 129.336 35.7724 129.3H35.0529C34.3333 129.3 33.6137 129.263 32.8941 129.263C32.8941 128.723 32.8579 128.143 32.8579 127.494C32.8579 127.059 32.8579 126.627 32.8941 126.232C32.8941 125.366 32.8579 124.39 32.8218 123.238L32.8057 123.254ZM109.611 135.708C109.073 135.745 108.53 135.745 107.955 135.781C107.38 135.781 106.765 135.817 106.118 135.817C106.082 135.35 106.046 135.096 106.01 134.842C105.937 134.515 105.901 134.193 105.829 133.29C105.829 132.351 105.829 131.375 105.792 130.436C106.01 130.436 106.223 130.473 106.476 130.473C106.942 130.473 107.413 130.436 107.879 130.436C109.933 130.364 111.911 130.328 114.11 130.364H115.227C115.01 132.17 114.616 134.012 114.11 135.849C112.671 135.849 111.227 135.849 109.607 135.704L109.611 135.708ZM66.5092 135.745L64.9615 135.708C60.6039 135.636 56.4995 135.6 52.1056 135.708C51.8162 135.708 51.5308 135.745 51.2413 135.745C50.6303 135.781 50.0152 135.781 49.368 135.781C49.8705 133.939 50.5217 132.133 51.3137 130.364C51.4222 130.364 51.5308 130.328 51.6393 130.328C51.9649 130.291 52.2503 130.219 52.8292 130.219C53.0463 130.219 53.2594 130.255 53.4764 130.255C54.9879 130.328 56.214 130.328 57.9426 130.255C59.7074 130.328 61.2913 130.291 62.9837 130.291C63.848 130.291 64.6761 130.255 65.5766 130.255C66.5494 130.291 67.4861 130.291 68.3865 130.328C69.5765 130.364 70.7262 130.4 71.9161 130.436C72.3824 132.097 72.8166 134.193 73.0698 135.708C70.5493 135.672 68.6036 135.672 66.5173 135.745H66.5092ZM117.064 120.835V117.26C117.064 116.575 116.634 116.539 116.49 116.539C115.77 116.502 115.372 116.466 115.014 116.466H114.761C115.3 116.394 115.842 116.321 116.453 116.212C116.815 116.14 117.064 115.813 117.064 115.382C116.956 114.189 116.811 112.855 116.598 111.521C118.865 112.782 121.241 113.939 123.585 115.06C124.413 115.459 125.241 115.854 126.033 116.253C127.581 117.337 129.201 118.344 130.749 119.356L130.821 119.392C131.287 119.755 131.721 120.223 132.188 120.654C132.405 120.872 132.618 121.122 132.907 121.376C134.238 122.46 135.355 123.721 136.292 125.096C137.193 126.43 137.948 127.913 138.596 129.429C137.229 129.429 135.858 129.465 134.491 129.538C133.844 129.538 133.518 129.538 133.197 129.574H133.016C132.763 129.574 132.441 129.61 131.934 129.61C131.323 129.61 131.034 129.574 130.708 129.538C130.383 129.501 130.061 129.429 129.378 129.429C128.767 129.429 128.152 129.465 127.577 129.501C126.282 129.538 124.984 129.574 123.689 129.574C123.042 129.574 122.431 129.538 121.744 129.501C120.449 129.465 119.223 129.501 118.033 129.501H117.78C117.241 129.501 116.663 129.501 116.088 129.538C116.124 129.07 116.196 128.598 116.196 128.167C116.522 126.652 116.88 124.628 117.097 122.714L117.06 120.835H117.064ZM111.376 102.782C110.403 101.988 109.358 101.303 108.281 100.69C107.055 100.005 105.796 99.3925 104.607 98.8846H104.57C104.353 98.1632 104.14 97.478 103.887 96.7928L103.634 96.035C103.489 95.5674 103.344 95.0959 103.236 94.6283C103.127 93.798 102.806 93.1128 102.299 92.5364C102.371 92.5001 102.444 92.4276 102.48 92.355C102.842 91.5973 103.127 90.767 103.344 89.8641C104.711 90.4042 105.865 91.0209 106.874 91.6698C108.241 92.7178 109.825 93.9068 111.123 95.1362C111.915 95.9665 112.924 97.8085 112.634 98.7113C112.598 98.8564 112.49 99.0741 112.096 99.1466C111.698 99.1829 111.195 99.0741 110.62 98.929C109.901 97.8447 109 96.8371 107.919 96.0028C107.236 95.4627 106.01 94.6323 105.29 94.9911C105.145 95.0636 104.86 95.2813 104.892 95.8214C104.964 96.434 105.612 97.1918 106.874 98.0584C107.774 98.5622 108.928 99.2152 110.078 99.5739C110.44 100.15 110.725 100.767 110.942 101.38C111.159 101.775 111.304 102.282 111.372 102.786L111.376 102.782ZM75.116 135.781C74.6859 135.781 74.3241 135.745 73.9261 135.745C73.6728 134.193 73.2427 132.097 72.7723 130.436H73.2387C73.9221 130.436 74.2477 130.4 74.5693 130.328C74.8949 130.291 75.1803 130.219 75.7954 130.219C76.4104 130.219 76.732 130.255 77.0536 130.255C77.3792 130.291 77.7008 130.291 78.3481 130.291C79.7872 130.364 81.1218 130.328 82.4525 130.328C82.4163 132.456 82.3439 134.048 82.163 135.708H80.8686C78.7099 135.745 77.2305 135.745 75.108 135.781H75.116ZM78.3561 129.57C77.7451 129.57 77.4194 129.534 77.0978 129.534C76.7722 129.497 76.4506 129.497 75.8034 129.497C75.12 129.497 74.7944 129.533 74.4728 129.606C74.1472 129.642 73.8618 129.715 73.2467 129.715H72.5995C72.4548 128.848 72.31 127.909 72.1332 126.934C71.7714 124.769 71.4136 122.528 71.2327 120.831C71.2327 120.831 71.2689 120.795 71.4498 120.723L72.495 120.432C74.0788 119.965 75.3411 119.638 77.0335 119.171C77.7893 118.989 78.1511 118.881 78.5089 118.735C78.8345 118.627 79.1561 118.518 79.8033 118.336C80.0204 118.3 80.1289 118.083 80.0927 117.869C80.0565 117.651 79.8756 117.542 79.6626 117.542L78.7983 117.651C78.1511 117.76 77.7169 117.833 76.6757 117.905C75.9923 117.941 75.6306 117.941 75.2728 117.905C74.8748 117.869 74.4808 117.869 73.6527 117.941C72.8246 118.014 72.4628 118.087 72.0688 118.159C71.7794 118.232 71.494 118.268 71.0598 118.34C71.0237 118.087 70.9875 117.837 70.9513 117.583C70.8789 116.97 70.7704 116.321 70.7704 115.741C70.7704 115.092 70.9513 114.443 71.096 113.826C71.1684 113.536 71.2407 113.25 71.2769 112.96C71.3131 112.633 71.3854 112.274 71.4578 111.912C71.5663 111.476 71.6749 111.045 71.8196 110.614H71.8558C72.0367 110.505 72.0729 110.324 72.0005 110.146C73.0095 107.619 74.7743 105.346 76.5391 103.286C77.729 101.879 79.2043 100.65 80.8605 99.7109C81.9057 98.9169 83.3449 98.0866 84.5348 97.4377C84.7881 97.2926 85.0011 97.1837 85.2182 97.0386C85.2544 97.3651 85.2544 97.6513 85.2544 97.9415C85.2906 98.3042 85.2906 98.663 85.2544 99.0257C85.2544 99.6021 85.0735 100.183 84.8564 100.795C84.6031 101.553 84.3901 102.311 84.4584 103.105C84.4222 103.177 84.3861 103.25 84.3861 103.359C84.5308 105.995 84.169 109.57 83.8474 112.71C83.775 113.576 83.6665 114.443 83.5941 115.237C83.3771 119.679 82.9107 124.225 82.4766 128.667L82.368 129.642C81.1419 129.606 79.8113 129.606 78.3722 129.57H78.3561ZM70.6136 112.419C70.5774 112.565 70.5774 112.71 70.5413 112.819C70.5051 113.072 70.4327 113.359 70.3604 113.613C70.2156 114.261 70.0347 114.947 70.0347 115.672C69.9986 116.321 70.1071 117.006 70.2156 117.659C70.2518 118.022 70.3242 118.417 70.3604 118.78C70.3604 118.889 70.4327 118.997 70.5051 119.034C70.5774 119.106 70.686 119.143 70.7945 119.106C71.5503 119.034 71.9121 118.961 72.2698 118.889C72.6276 118.816 72.9894 118.744 73.7814 118.671C74.5371 118.598 74.8989 118.635 75.2929 118.635H75.4738C74.3924 118.925 73.4196 119.211 72.306 119.538L71.2608 119.828C70.4327 120.045 70.4689 120.658 70.5051 120.803C70.686 122.5 71.0438 124.737 71.4055 126.906C71.5503 127.808 71.695 128.711 71.8357 129.578C70.6819 129.578 69.6046 129.542 68.487 129.505C67.5504 129.469 66.6499 129.433 65.6409 129.433C64.7404 129.433 63.8761 129.433 63.0118 129.469C61.3556 129.505 59.7717 129.505 57.9708 129.433C56.4231 129.505 55.3055 129.505 53.9749 129.469C53.6131 129.469 53.2553 129.433 52.8574 129.433C52.3187 129.433 51.9931 129.469 51.7398 129.505C52.2785 128.421 52.8574 127.341 53.5046 126.365C54.188 125.068 55.2332 123.189 56.4231 121.746C57.826 119.687 59.8079 118.316 61.8943 116.873L62.5777 116.406C64.1615 115.249 65.8901 114.241 67.5464 113.266C68.6639 112.617 69.7775 111.932 70.895 111.206C70.7503 111.674 70.6779 112.037 70.6056 112.436L70.6136 112.419ZM83.361 128.703C83.7911 124.261 84.2615 119.679 84.4785 115.237C84.5509 114.443 84.6233 113.613 84.7318 112.71C84.9851 110.182 85.2705 107.365 85.3066 104.947C85.7046 105.487 86.2795 105.995 86.9991 106.39C87.0352 106.426 87.1076 106.426 87.1438 106.462C88.9809 107.438 91.7185 107.978 95.4249 107.978C95.9636 107.978 96.5425 107.978 97.1535 107.941C98.1987 107.833 99.1354 107.651 100.036 107.365C98.6329 108.304 96.7958 108.881 94.7054 108.989C92.9044 109.425 91.1035 109.352 89.411 108.808L89.0131 108.735C88.4382 108.627 87.8955 108.518 87.393 108.336C87.2845 108.3 87.1398 108.264 87.0312 108.191C86.9589 108.155 86.8865 108.155 86.8141 108.119C86.6332 108.01 86.384 108.119 86.3116 108.3C86.2393 108.482 86.3116 108.735 86.4925 108.804C86.6373 108.877 86.8182 108.949 86.9589 108.985C87.3568 109.13 87.7508 109.239 88.1488 109.312C88.3659 109.348 88.6151 109.421 88.8322 109.457L89.194 109.53C90.203 109.856 91.2844 109.997 92.3255 109.997C93.1536 109.997 93.9818 109.888 94.8099 109.707C97.9776 109.562 100.788 108.3 102.263 106.313V106.277C102.838 105.914 103.38 105.483 103.811 105.015C103.847 106.785 103.919 108.482 103.992 110.106C104.209 116.676 104.494 122.274 104.856 127.397C104.892 128.046 104.928 128.768 104.964 129.489H104.783C103.702 129.453 102.661 129.38 101.326 129.38C100.679 129.38 100.317 129.417 99.9957 129.489C99.67 129.525 99.3846 129.562 98.7696 129.562C97.0772 129.562 95.8511 129.489 94.3034 129.38L93.6562 129.344H91.0994C90.416 129.344 90.0904 129.38 89.7688 129.453C89.4432 129.489 89.1578 129.562 88.5427 129.562H85.986C85.8051 129.562 85.6604 129.562 85.4835 129.525C84.7278 129.489 83.972 129.489 83.2886 129.453L83.361 128.695V128.703ZM103.778 103.935L103.742 103.971C103.24 104.62 102.625 105.164 101.905 105.632C101.833 105.668 101.797 105.704 101.724 105.741C100.43 106.498 98.8781 106.97 97.0812 107.147C92.4381 107.329 89.1216 106.785 87.18 105.596C87.0714 105.523 86.9629 105.487 86.8905 105.414C86.0624 104.838 85.5599 104.08 85.379 103.214C85.2705 102.492 85.5237 101.771 85.7408 101.013C85.9579 100.364 86.1709 99.6787 86.1709 99.0257C86.1709 98.5582 86.1709 98.0503 86.1348 97.5102C86.1348 97.3288 86.0986 97.1474 86.0986 96.9701L86.0624 96.3574C85.9539 94.6968 86.0624 93.4312 86.7458 92.6372C86.8182 92.5646 86.8905 92.5284 86.9629 92.4558C87.2523 92.1656 87.6101 91.952 88.0443 91.8432C87.9719 92.2785 87.9357 92.7097 87.8995 93.1047C87.8272 93.9713 87.8272 94.3663 87.8272 94.7291V95.3417C87.6825 95.1604 87.6101 95.0153 87.5739 94.979C87.5016 94.7613 87.3207 94.6525 87.1076 94.6888C86.9991 94.725 86.9629 94.7613 86.8905 94.8339C86.8182 94.9427 86.782 95.0515 86.8182 95.1604C86.8182 95.1966 86.8543 95.2692 86.8905 95.3417C87.0352 95.7045 87.3568 96.0632 87.8995 96.4622C88.3658 96.825 88.8 97.1112 89.2663 97.3651C90.8864 98.4131 92.8321 98.9894 94.6692 98.9894C94.8863 98.9894 95.1355 98.9894 95.3526 98.9532C96.5787 98.8806 97.6199 98.5904 98.448 98.3768L99.3846 98.1591C100.068 97.9778 100.394 97.9052 100.715 97.7238C100.896 97.615 101.113 97.4336 101.435 97.1837L101.688 96.9661C101.869 96.821 101.869 96.567 101.724 96.426C101.58 96.2446 101.326 96.2446 101.186 96.3897L100.932 96.6073C100.86 96.6799 100.824 96.7162 100.751 96.7525C100.498 95.4183 100.213 93.935 99.9233 92.1656C100.353 92.2744 100.751 92.4558 101.113 92.6694C101.905 93.1733 102.371 93.8988 102.516 94.9064C102.625 95.4465 102.769 95.9544 102.946 96.4219L103.2 97.1797C103.453 97.9375 103.738 98.7315 103.955 99.5255C104.245 100.682 104.53 102.379 103.774 103.931L103.778 103.935ZM83.7951 78.264C83.7228 78.7315 83.6866 79.2394 83.6504 79.7432C83.6142 80.2108 83.6142 80.6461 83.5419 81.1136C83.0032 80.896 82.8585 80.7509 82.4243 80.3559C82.3158 80.2108 82.1349 80.0657 81.958 79.8883C81.56 79.5256 81.0937 78.8766 81.0214 77.9375C80.8766 77.0709 81.0575 76.2769 81.4877 75.7368C81.8133 75.3378 82.2434 75.1241 82.7138 75.0879C83.2163 75.0516 83.7228 75.2692 84.1891 75.7368C84.1529 75.9907 84.1167 76.2769 84.0806 76.5671H83.6826C83.4655 76.5671 83.2846 76.7485 83.2846 76.9661C83.2846 77.1838 83.4655 77.3652 83.6826 77.3652H83.9358C83.8997 77.6554 83.8273 77.9415 83.7911 78.268L83.7951 78.264ZM103.598 78.7315C103.272 77.6473 102.842 76.5671 102.339 75.628C102.629 74.8702 102.267 74.4712 101.909 74.1125C101.656 73.8585 101.407 73.5723 101.19 73.1008L100.973 72.6655C99.855 70.5373 98.5243 67.865 96.5063 66.418C96.3254 66.2729 96.0762 66.3454 95.9676 66.4905C95.8229 66.6719 95.8953 66.9259 96.04 67.0306C97.8048 68.3285 99.0992 70.7146 100.144 72.734C100.108 72.7703 100.108 72.8428 100.108 72.9154C100.108 73.3144 100.108 73.7094 100.144 74.1447C99.461 73.4595 98.4882 73.0605 97.4791 73.0605C96.9043 72.5204 96.3616 71.9762 95.8229 71.3998L95.5697 71.1459C94.5968 69.8118 93.4471 67.5708 93.0129 66.4905C92.9044 66.2366 92.7235 66.0915 92.5105 66.1278C92.2934 66.1278 92.1487 66.3092 92.1125 66.4543C91.2482 68.7275 92.0763 72.2302 92.5788 74.3623C92.1125 74.1084 91.0673 72.8831 90.7778 72.2342C89.7688 70.6824 88.8322 67.7199 89.194 66.3132C89.2663 66.0955 89.1216 65.8779 88.9045 65.8456C88.6874 65.7731 88.4744 65.9182 88.4382 66.1358C87.9719 67.9053 89.0854 71.154 90.0583 72.6332C90.1668 72.8871 90.4884 73.391 90.8864 73.8948C90.4201 73.532 89.8412 73.2821 89.3025 73.1733C88.5468 72.9919 87.7186 73.0645 86.9629 73.2821C86.4242 73.4635 85.9177 73.7497 85.4875 74.1487C85.4875 73.7134 85.4875 73.2821 85.5237 72.8509C85.5237 72.6332 85.379 72.4518 85.1619 72.4518C84.9448 72.4518 84.764 72.6332 84.764 72.8146C84.7278 73.5361 84.7278 74.3301 84.7278 75.0879H84.6554C84.1891 74.6526 83.6102 74.3664 83.0715 74.3301C82.9268 71.6941 83.6826 69.0943 85.1941 66.9299C86.0584 65.3055 87.3166 63.9674 88.8322 63.1411C92.0361 61.5893 95.8913 61.553 99.5615 63.1048C100.462 63.6087 101.29 64.2616 102.046 64.9831C102.657 65.5957 103.236 66.2447 103.702 66.9702C105.033 69.0298 105.684 72.2422 105.431 75.2007C105.575 77.1515 105.141 78.9573 104.205 80.2914C103.915 80.7952 103.774 81.158 103.666 81.4119C103.521 81.7384 103.449 81.8795 103.2 82.0971C103.127 81.6981 103.055 81.2668 102.946 80.8678C102.91 80.7589 102.91 80.6501 102.874 80.5413C102.946 80.4325 103.019 80.3236 103.091 80.1785C103.091 80.2511 103.127 80.2874 103.127 80.3599C103.163 80.5413 103.308 80.6864 103.525 80.6864H103.598C103.815 80.6501 103.959 80.4325 103.923 80.2188C103.887 79.715 103.742 79.2072 103.598 78.7396V78.7315ZM102.267 88.5501C102.158 86.9621 102.05 85.374 101.764 83.8585C101.728 83.1007 101.692 82.3067 101.62 81.5489V81.4764C101.728 80.9 101.764 80.2833 101.801 79.5981C101.909 79.8883 102.018 80.2108 102.09 80.501C102.09 80.5373 102.09 80.5735 102.126 80.6098L102.162 80.6461C102.199 80.7549 102.235 80.8637 102.271 81.0451C102.416 81.6578 102.524 82.2745 102.633 82.8871C103.031 85.1241 103.063 87.0387 102.777 88.7355C102.597 88.6993 102.416 88.6267 102.275 88.5542L102.267 88.5501ZM102.629 89.5255C102.556 89.852 102.484 90.1745 102.375 90.4647C102.339 90.1382 102.339 89.7432 102.303 89.3804C102.412 89.453 102.52 89.4893 102.629 89.5255ZM93.3386 74.3986L93.3024 74.2535C92.8723 72.4841 92.221 69.6344 92.5828 67.5385C93.1939 68.8364 94.0943 70.5333 94.9224 71.69L95.1757 71.9802C95.5737 72.3793 95.9676 72.8106 96.4018 73.2096C95.1074 73.5361 93.8813 74.58 93.5195 76.3857C93.23 76.2406 92.9446 76.1681 92.6552 76.1681C92.4743 76.1681 92.3296 76.2043 92.1527 76.2406C92.0803 75.5917 91.8632 75.0476 91.5416 74.6163C91.9396 74.979 92.3698 75.2289 92.6954 75.1927C92.8401 75.1564 93.1979 75.0838 93.2702 74.5437C93.3788 74.5075 93.3788 74.4349 93.3426 74.3986H93.3386ZM101.439 88.2962C100.792 88.0785 100.144 87.8609 99.5293 87.6836C99.457 87.6473 99.4208 87.6836 99.3484 87.6836C99.3123 87.4659 99.3123 87.2482 99.2761 87.0346C99.2761 86.8532 99.2399 86.6719 99.2399 86.4945C99.9595 85.773 100.534 84.8702 100.968 83.7859V84.0399C101.222 85.374 101.366 86.821 101.435 88.3002L101.439 88.2962ZM101.258 77.9698C101.294 78.0423 101.294 78.0786 101.33 78.1511C101.33 78.1511 101.294 78.1511 101.294 78.1874C101.258 78.1149 101.258 78.0423 101.258 77.9698ZM100.213 75.769C100.249 76.0592 100.285 76.3454 100.321 76.6719C100.357 76.9984 100.394 77.3208 100.43 77.6473C100.068 78.9814 98.7736 80.102 97.4068 80.2471C95.642 80.2471 94.239 78.8404 94.239 77.0347C94.4199 74.975 95.8229 74.0036 97.1576 73.8948C98.2389 74.7977 99.2118 75.4103 100.217 75.7731L100.213 75.769ZM100.932 75.0476C100.932 74.9387 100.932 74.7936 100.896 74.6848C100.896 74.709 100.908 74.7332 100.932 74.7573C101.005 74.8299 101.041 74.9387 101.113 75.0476C101.077 75.0113 101.005 75.0113 100.932 75.0476ZM100.896 74.3986C100.896 74.2898 100.896 74.181 100.86 74.0721C100.896 74.1447 100.932 74.181 100.968 74.2172C100.968 74.2898 100.932 74.3623 100.896 74.3986ZM86.9629 74.0721C87.393 73.8908 87.8995 73.7819 88.3659 73.7819C88.6553 73.7819 88.9045 73.8182 89.1578 73.8545C89.7326 73.9633 91.5336 74.576 91.4612 76.817C91.4612 76.8533 91.4251 76.8533 91.4251 76.8895V76.9621V76.9984C91.3527 78.5864 90.3437 79.3079 89.7326 79.5981C88.796 80.0334 87.7146 79.9972 86.8865 79.5981C86.6332 79.4893 86.384 79.3442 86.2031 79.1628C85.9137 78.9089 85.7006 78.6227 85.5559 78.2962V75.4063C85.8091 74.7936 86.3478 74.3583 86.9589 74.0681L86.9629 74.0721ZM86.9267 80.4607C87.3568 80.6058 87.8272 80.7146 88.2935 80.7146C88.9045 80.7146 89.5196 80.6058 90.0583 80.3519C91.3527 79.7755 92.1487 78.5824 92.217 77.1394C92.3617 77.0306 92.5064 76.9581 92.6833 76.9581C92.9366 76.9581 93.222 77.1032 93.4391 77.2845C93.5476 79.3764 95.2762 81.0411 97.3988 81.0411C98.657 80.9323 99.8107 80.1745 100.53 79.1628C100.603 79.9569 100.711 80.7509 100.784 81.5812C100.422 83.532 99.6298 85.0838 98.4801 86.168C97.8329 86.7444 97.0772 87.216 96.2129 87.5022C93.2622 88.1874 90.7738 87.9375 89.0131 86.7081C88.1488 86.0955 87.4654 85.2652 86.9589 84.2535C86.4202 83.133 86.1307 81.7626 86.0946 80.1745C86.3478 80.2471 86.6332 80.3559 86.9227 80.4647L86.9267 80.4607ZM88.5829 94.6122C88.5829 94.2857 88.5468 93.927 88.6553 93.0967C88.6915 92.5928 88.8 92.0124 88.8724 91.4361C88.9086 91.3998 88.9086 91.3272 88.9086 91.2547V91.1821C89.0895 89.7029 89.1618 88.5461 89.198 87.607C90.3517 88.2196 91.7185 88.5824 93.2662 88.5824C94.2752 88.5824 95.3566 88.4373 96.5063 88.1833C97.2621 87.9294 97.9455 87.5707 98.5605 87.1354C98.5967 87.4981 98.6329 87.8206 98.6691 88.1833C98.7776 89.3039 98.9585 90.5292 99.0992 91.6497C99.4248 93.7779 99.7464 95.5473 100.072 97.1031C99.8911 97.1757 99.6741 97.2119 99.2439 97.3208L98.3073 97.5747C97.4792 97.7924 96.5425 98.0422 95.3566 98.1148C93.4833 98.2599 91.3969 97.7158 89.7045 96.6356C89.3427 96.4179 88.9849 96.2003 88.6231 95.9504C88.6231 95.2652 88.587 94.9387 88.587 94.6162L88.5829 94.6122ZM99.457 88.4736C100.14 88.6912 100.824 88.9089 101.511 89.1225C101.584 90.1342 101.656 91.1096 101.728 91.9762C101.656 91.9036 101.584 91.8673 101.511 91.7948C101.045 91.4683 100.466 91.2547 99.7826 91.1096C99.6741 90.243 99.5293 89.3401 99.457 88.4736ZM101.833 76.559H101.652C101.616 76.3777 101.58 76.2326 101.543 76.0915C101.616 76.0915 101.652 76.1278 101.724 76.1278C101.797 76.2729 101.869 76.418 101.941 76.5953C101.905 76.559 101.869 76.559 101.833 76.559ZM102.195 77.0991C102.412 77.603 102.593 78.1108 102.769 78.6509C102.733 78.6872 102.697 78.7598 102.697 78.8323C102.661 79.0862 102.625 79.2999 102.625 79.445C102.552 79.2273 102.48 78.9774 102.371 78.7598C102.191 78.2922 102.046 77.7843 101.905 77.3168C102.014 77.3168 102.122 77.208 102.195 77.0991ZM84.2253 81.686L84.2976 81.287C84.37 80.7831 84.4062 80.2753 84.4062 79.7714C84.4424 79.2676 84.4785 78.796 84.5147 78.3648C84.5509 78.2559 84.5509 78.1471 84.5871 78.0383C84.6232 78.1834 84.6594 78.3285 84.7318 78.4736C84.7318 80.3519 84.7318 82.1576 84.5871 83.927V84.0358C84.8041 85.0838 84.8765 86.2366 84.985 87.3571C85.0574 88.3688 85.1659 89.4167 85.3468 90.4244C83.9801 88.0423 83.5459 84.9024 84.2293 81.686H84.2253ZM85.4835 81.9762C85.7368 83.4192 86.2393 84.6485 86.9589 85.6239C87.3568 86.2003 87.8232 86.7081 88.398 87.1394V87.1757C88.398 88.1511 88.3257 89.3764 88.1086 90.9322C87.6784 91.0411 87.3166 91.1862 86.9548 91.3675C86.7739 91.4764 86.593 91.5852 86.4523 91.694C86.0544 90.3236 85.9137 88.7678 85.7689 87.2523C85.6604 86.1318 85.588 85.0153 85.371 83.8948C85.4433 83.3184 85.4795 82.6292 85.4795 81.9802L85.4835 81.9762ZM109.286 98.2962C108.566 97.9697 107.883 97.611 107.304 97.2845C106.15 96.4905 105.72 95.9141 105.648 95.5876H105.72C105.937 95.5876 106.512 95.8053 107.449 96.5267C108.132 97.0306 108.743 97.6473 109.286 98.2962ZM83.2163 130.392C83.9358 130.392 84.6916 130.428 85.4473 130.465C85.6282 130.465 85.8091 130.465 85.986 130.501H88.5427C89.2261 130.501 89.5517 130.465 89.8733 130.392C90.199 130.356 90.4844 130.283 91.0994 130.283H93.6562L94.2672 130.319C95.8511 130.428 97.0771 130.501 98.8057 130.501C99.4891 130.501 99.8148 130.465 100.136 130.392C100.462 130.356 100.747 130.319 101.362 130.319C102.657 130.319 103.63 130.356 104.783 130.428H105.037C105.073 131.404 105.073 132.379 105.073 133.355C105.145 134.33 105.181 134.689 105.254 135.015C105.29 135.233 105.326 135.45 105.362 135.845C104.032 135.845 102.625 135.809 101.041 135.7C100.285 135.7 99.9233 135.773 99.5655 135.845C99.2037 135.918 98.8821 135.954 98.1987 135.954C96.0762 135.845 94.5606 135.773 92.4381 135.809C91.6823 135.809 91.3205 135.845 90.9628 135.882C90.7095 135.918 90.4241 135.918 90.0261 135.954C89.6281 135.918 89.198 135.918 88.7678 135.882H88.1568C87.795 135.845 87.4372 135.809 86.6815 135.809H82.971C83.1158 134.149 83.1881 132.524 83.2243 130.392H83.2163ZM104.747 110.211C104.675 108.332 104.603 106.386 104.566 104.326C104.566 104.253 104.53 104.217 104.53 104.145C105.214 102.629 105.105 101.077 104.82 99.7754C105.684 100.174 106.621 100.642 107.521 101.11C108.924 101.867 110.295 102.734 111.481 103.854C111.517 104.036 111.662 104.181 111.843 104.181C112.924 105.265 113.752 106.454 114.327 107.756C114.472 108.01 114.616 108.26 114.793 108.514C115.119 109.018 115.44 109.525 115.621 110.029L115.658 110.138L115.766 110.573C115.766 110.61 115.73 110.646 115.73 110.682C115.73 110.791 115.766 110.864 115.802 110.936C116.092 112.415 116.232 114.004 116.413 115.378C114.182 115.704 112.703 115.882 110.544 116.099C110.291 116.136 110.078 116.39 110.114 116.64C110.15 116.889 110.331 117.107 110.58 117.107C111.3 117.143 111.698 117.107 112.056 117.071C112.413 117.035 112.775 117.035 113.531 117.071C114.251 117.107 114.612 117.143 115.006 117.143C115.332 117.18 115.69 117.18 116.337 117.216V122.597C116.12 124.439 115.762 126.422 115.436 127.978C115.4 128.445 115.364 128.953 115.292 129.457H114.102C111.871 129.421 109.853 129.457 107.802 129.529C107.372 129.529 106.902 129.566 106.472 129.566C106.219 129.566 106.006 129.529 105.788 129.529C105.752 128.772 105.716 128.05 105.68 127.365C105.25 122.347 104.96 116.752 104.743 110.215L104.747 110.211ZM129.161 135.7C128.622 135.664 128.115 135.664 127.577 135.664C126.785 135.628 125.993 135.628 125.201 135.628C124.803 135.628 124.373 135.628 123.943 135.664C121.784 135.7 120.341 135.7 118.182 135.664C117.716 135.7 117.245 135.7 116.815 135.737C116.132 135.773 115.485 135.773 114.833 135.809C115.336 133.967 115.734 132.125 115.951 130.323C116.526 130.323 117.069 130.324 117.643 130.287H118.005C119.195 130.251 120.417 130.251 121.679 130.287C122.435 130.324 123.155 130.36 123.874 130.36C125.133 130.36 126.323 130.324 127.585 130.287C128.16 130.251 128.775 130.251 129.386 130.215C129.997 130.215 130.286 130.251 130.612 130.287C130.937 130.324 131.259 130.396 131.942 130.396H132.373C132.734 130.396 132.984 130.396 133.237 130.36C133.562 130.36 133.884 130.323 134.531 130.323C136.007 130.215 137.482 130.215 138.925 130.215C139.536 131.694 140.079 133.246 140.618 134.765L140.943 135.668C139.54 135.668 138.169 135.704 136.803 135.704C134.246 135.777 131.617 135.813 129.169 135.704L129.161 135.7Z" fill="#454138"/>
<path d="M43.137 62.601H43.2094C44.1099 62.4559 44.6485 62.3471 46.0194 62.0609C46.2364 62.0246 46.3812 61.807 46.3088 61.5933C46.2726 61.3757 46.0555 61.2306 45.8425 61.3031C44.5119 61.5933 43.9692 61.7022 43.0687 61.8432C42.8516 61.8795 42.7069 62.0609 42.7431 62.2786C42.7793 62.4599 42.9602 62.605 43.1411 62.605L43.137 62.601Z" fill="#454138"/>
<path d="M42.4898 68.9895C42.9561 68.9895 43.2094 69.0621 43.5712 69.1346C43.8245 69.1709 44.0737 69.2434 44.5079 69.316H44.5802C44.7611 69.316 44.942 69.1709 44.9782 68.9895C45.0144 68.7719 44.8696 68.5905 44.6526 68.5542C44.2546 68.4817 44.0054 68.4454 43.7883 68.4091C43.4265 68.3366 43.1411 68.264 42.5984 68.264C42.3813 68.264 42.2004 68.4091 42.2004 68.6268C42.0918 68.7719 42.2727 68.9895 42.4898 68.9895Z" fill="#454138"/>
<path d="M25.2401 61.7707C24.1949 61.5168 23.7286 61.4805 23.0813 61.4079L22.4703 61.3354C22.2532 61.3354 22.0723 61.4805 22.0402 61.6981C22.008 61.9158 22.1849 62.0972 22.402 62.1334L23.013 62.206C23.624 62.2786 24.0582 62.3148 25.0672 62.5325H25.1396C25.3205 62.5325 25.4652 62.4237 25.5376 62.2423C25.6099 62.0246 25.4652 61.807 25.2481 61.7747L25.2401 61.7707Z" fill="#454138"/>
<path d="M28.8058 58.2681C28.8782 58.2681 28.9867 58.2318 29.0591 58.1593C29.24 58.0142 29.24 57.7602 29.0952 57.6192C28.7696 57.2201 28.5566 57.0428 28.3757 56.8614C28.1948 56.68 28.0139 56.5349 27.7284 56.1762C27.5837 55.9948 27.3305 55.9948 27.1898 56.1399C27.0089 56.285 27.0089 56.5389 27.1536 56.68C27.4792 57.0791 27.6923 57.2564 27.8732 57.4378C28.0541 57.6192 28.235 57.7643 28.5204 58.123C28.5927 58.2318 28.7013 58.2681 28.8098 58.2681H28.8058Z" fill="#454138"/>
<path d="M41.6979 56.285C41.5532 56.1036 41.3361 56.0674 41.1592 56.2125L39.5753 57.4418C39.3944 57.5869 39.3582 57.8046 39.503 57.9819C39.5753 58.0907 39.6839 58.127 39.8286 58.127C39.9009 58.127 40.0095 58.0907 40.0818 58.0545L41.6657 56.8251C41.8104 56.7163 41.8466 56.4624 41.7019 56.285H41.6979Z" fill="#454138"/>
<path d="M25.0954 68.5583L23.7286 68.7396C23.5115 68.7759 23.3668 68.9573 23.4029 69.175C23.4391 69.3563 23.5838 69.5014 23.8009 69.5014H23.8371L25.2039 69.3201C25.421 69.2838 25.5657 69.1024 25.5295 68.8847C25.5295 68.6671 25.3124 68.4857 25.0994 68.5583H25.0954Z" fill="#454138"/>
<path d="M129.808 86.3575C129.88 86.3575 129.916 86.3575 129.989 86.3212C130.527 86.0673 131.07 85.8174 131.573 85.5997C133.337 84.8057 134.885 84.1205 136.039 82.6735C137.659 83.1773 140.035 83.3224 142.555 83.0725C143.709 82.7823 144.678 82.4236 145.506 82.0246C146.37 81.6255 147.054 81.158 147.596 80.6542C147.958 80.3277 148.243 79.969 148.461 79.6062C150.406 75.4547 150.619 68.8122 147.596 65.2733C145.614 62.6373 142.125 61.7707 138.845 62.0972C137.619 62.206 136.397 62.4962 135.315 62.9638C134.342 63.5039 133.587 64.2254 133.012 65.0557C131.609 67.0428 131.138 69.6747 130.958 71.7344C130.704 75.3096 130.777 78.917 133.116 81.1943C132.686 82.6735 131.315 84.0117 130.093 85.2007L129.555 85.7045C129.41 85.8496 129.41 86.0673 129.518 86.2084C129.591 86.3172 129.699 86.3535 129.808 86.3535V86.3575ZM133.948 81.1217C133.985 80.9766 133.948 80.8315 133.84 80.759C131.573 78.7356 131.5 75.237 131.749 71.7707C131.967 69.6788 132.433 66.9339 133.981 65.0557C134.447 64.4793 134.99 64.0077 135.673 63.649C136.754 63.2137 138.013 62.9275 139.275 62.8187C139.564 62.7824 139.886 62.7824 140.175 62.7824C142.804 62.7824 145.433 63.649 146.981 65.7449V65.7812C149.827 69.0661 149.574 75.3499 147.773 79.2112C147.737 79.2838 147.628 79.3926 147.592 79.4651C147.054 80.1866 146.262 80.763 145.361 81.1983C144.388 81.7021 143.307 82.0286 142.41 82.2825C139.926 82.5365 137.55 82.3914 136.039 81.8472C135.894 81.7747 135.677 81.8472 135.609 81.9923C134.636 83.3265 133.341 83.9794 131.685 84.7009C132.73 83.6529 133.667 82.4639 133.952 81.1257L133.948 81.1217Z" fill="#454138"/>
<path d="M140.248 77.6191H140.392C141.293 77.6191 142.302 77.5465 143.166 77.0064C143.596 76.7162 143.958 76.3575 144.284 75.9585C145.148 74.9105 145.687 73.6126 145.759 72.2382C145.506 69.0258 143.311 67.3289 141.116 67.0024C140.827 66.9661 140.577 66.9299 140.288 66.9299C137.876 66.9299 135.175 68.5905 134.885 72.2382V72.3108C135.211 74.9105 137.297 77.6191 140.252 77.6191H140.248ZM140.32 67.7279C140.718 67.7279 141.112 67.8005 141.546 67.9093C143.239 68.3446 144.822 69.7513 145.04 72.2785C145.003 73.2176 144.642 74.1931 144.103 75.0234C143.741 75.5635 143.311 76.035 142.808 76.3938C142.125 76.8291 141.225 76.8613 140.433 76.8613C137.84 76.9701 136.003 74.5881 135.717 72.3108C135.934 69.1346 138.202 67.7239 140.324 67.7239L140.32 67.7279Z" fill="#454138"/>
<path d="M140.392 74.7694C141.076 74.7694 141.723 74.4792 142.193 74.0117C142.338 73.8666 142.338 73.6127 142.193 73.4716C142.049 73.3305 141.795 73.3265 141.655 73.4716C141.329 73.7981 140.899 73.9754 140.465 74.0117C139.999 74.0117 139.528 73.8303 139.207 73.4716C139.062 73.3265 138.809 73.3265 138.668 73.4716C138.527 73.6167 138.523 73.8706 138.668 74.0117C139.066 74.4792 139.713 74.7694 140.396 74.7694H140.392Z" fill="#454138"/>
<path d="M134.559 17.3291C134.921 17.3291 135.098 17.3291 135.279 17.3653C135.496 17.4016 135.677 17.4016 136.071 17.4016C136.465 17.4016 136.682 17.4016 136.863 17.3653C137.044 17.3653 137.225 17.3291 137.582 17.3291H140.642C141.04 17.3291 141.253 17.2928 141.434 17.2928C141.615 17.2928 141.795 17.2565 142.153 17.2565C142.511 17.2565 142.692 17.2928 142.873 17.2928C143.09 17.3291 143.271 17.3291 143.665 17.3291C143.918 17.3291 144.131 17.1114 144.131 16.8252C144.131 16.3899 144.131 16.1763 144.095 15.9586C144.095 15.741 144.059 15.5596 144.059 15.1646C144.059 15.0921 144.059 14.9107 143.95 14.8019C143.878 14.7293 143.769 14.6568 143.661 14.6568C143.263 14.6568 143.05 14.693 142.833 14.7293C142.652 14.7656 142.471 14.7656 142.113 14.7656C141.755 14.7656 141.574 14.7656 141.357 14.7293C141.176 14.7293 140.959 14.693 140.565 14.693C139.412 14.7293 138.656 14.7293 137.542 14.7293L136.787 14.693C135.995 14.6568 135.347 14.6205 134.447 14.6205C134.266 14.6205 134.017 14.7293 134.017 15.1606V16.8212C134.125 17.1114 134.342 17.325 134.555 17.325L134.559 17.3291ZM134.921 16.0675V15.4911C135.641 15.4911 136.216 15.5274 136.867 15.5636L137.623 15.5999C138.776 15.5999 139.532 15.5999 140.682 15.5636C141.044 15.5636 141.221 15.5636 141.438 15.5999C141.619 15.5999 141.836 15.6362 142.23 15.6362C142.624 15.6362 142.841 15.5999 143.058 15.5636C143.166 15.5636 143.275 15.5274 143.419 15.5274C143.419 15.7813 143.419 15.9627 143.456 16.1038C143.456 16.2489 143.492 16.394 143.492 16.6076C143.311 16.6076 143.202 16.5713 143.062 16.5713C142.845 16.535 142.664 16.535 142.234 16.535C141.836 16.535 141.623 16.5713 141.442 16.5713C141.261 16.5713 141.08 16.6076 140.722 16.6076H137.663C137.265 16.6076 137.052 16.6076 136.871 16.6439C136.69 16.6439 136.509 16.6801 136.151 16.6801C135.794 16.6801 135.613 16.6801 135.432 16.6439C135.287 16.6439 135.142 16.6076 134.965 16.6076C134.929 16.3537 134.929 16.2085 134.929 16.0675H134.921Z" fill="#454138"/>
<path d="M110.612 36.7164V38.1231C110.612 38.3407 110.757 38.5584 111.115 38.5584C112.124 38.5946 112.844 38.5946 113.961 38.5584C115.042 38.5946 116.015 38.6309 117.02 38.5946C117.418 38.5946 117.812 38.5584 118.246 38.5221C119.292 38.5946 120.301 38.6309 121.306 38.6309H123.07C123.826 38.6309 124.618 38.5946 125.41 38.6309C125.772 38.6309 125.949 38.6309 126.166 38.5946C126.347 38.5946 126.528 38.5584 126.849 38.5584H128.288C128.397 38.5584 128.542 38.4858 128.614 38.4133C128.686 38.3407 128.686 38.2319 128.686 38.1593V38.0868C128.686 37.7603 128.722 37.6192 128.722 37.4378C128.759 37.2565 128.795 37.0388 128.795 36.6801L128.759 35.741C128.722 35.1283 128.686 34.5842 128.686 33.8627C128.686 33.5362 128.686 33.3589 128.722 33.2138C128.759 33.0324 128.759 32.851 128.759 32.456C128.759 32.4197 128.759 32.3834 128.722 32.3472C128.686 32.1658 128.505 31.9481 128.256 31.9481H127.967C126.564 31.9844 125.374 31.9844 123.935 31.9844C122.853 32.057 122.134 32.057 121.089 32.0207H119.686C119.36 32.0207 119.183 31.9844 119.038 31.9844C118.821 31.9481 118.64 31.9481 118.246 31.9481C117.885 31.9481 117.672 31.9844 117.491 31.9844C117.31 32.0207 117.165 32.0207 116.807 32.0207H115.404C115.079 32.0207 114.902 31.9844 114.757 31.9844C114.576 31.9481 114.359 31.9481 114.001 31.9481C113.603 31.9481 113.426 31.9844 113.246 31.9844C113.065 32.0207 112.92 32.0207 112.598 32.0207C112.277 32.0207 112.096 31.9844 111.951 31.9844C111.77 31.9481 111.553 31.9119 111.159 31.9119C110.942 31.9119 110.729 32.0932 110.729 32.452C110.729 32.7784 110.693 32.9558 110.693 33.1009C110.657 33.2823 110.657 33.4637 110.657 33.8587C110.657 34.2537 110.693 34.435 110.693 34.6164C110.693 34.7615 110.729 34.9066 110.729 35.1928V35.2653C110.729 35.5918 110.693 35.7692 110.693 35.9143C110.657 36.1319 110.62 36.3496 110.62 36.7083L110.612 36.7164ZM111.441 34.5519C111.404 34.3705 111.404 34.2254 111.404 33.903C111.404 33.5805 111.441 33.3992 111.441 33.2541C111.441 33.109 111.477 33.0001 111.477 32.7865C111.621 32.7865 111.694 32.8228 111.802 32.8228C111.983 32.8591 112.164 32.8953 112.522 32.8953H112.558C112.956 32.8953 113.133 32.8591 113.314 32.8591C113.495 32.8228 113.639 32.8228 113.961 32.8228C114.283 32.8228 114.464 32.8591 114.608 32.8591C114.789 32.8953 115.006 32.8953 115.364 32.8953H116.767C117.165 32.8953 117.342 32.8591 117.559 32.8591C117.74 32.8228 117.885 32.8228 118.206 32.8228C118.528 32.8228 118.709 32.8228 118.89 32.8591C119.07 32.8953 119.288 32.8953 119.645 32.8953H121.048C122.13 32.9316 122.849 32.9316 123.931 32.8591C125.334 32.8953 126.56 32.8591 127.926 32.8228C127.926 33.0042 127.89 33.113 127.89 33.2218C127.854 33.4032 127.854 33.5846 127.854 33.9796C127.854 34.7011 127.89 35.2412 127.926 35.8941L127.963 36.797C127.963 37.1235 127.926 37.2645 127.926 37.4459C127.89 37.5547 127.89 37.6998 127.89 37.9135H126.809C126.447 37.9135 126.234 37.9135 126.053 37.9497C125.872 37.9497 125.691 37.986 125.37 37.986H122.994C121.374 38.0223 119.826 38.0223 118.17 37.9135C117.342 37.986 116.55 37.986 115.794 37.986C115.183 37.986 114.568 37.9497 113.921 37.9135H111.364V36.8292C111.364 36.5027 111.4 36.3254 111.4 36.1803C111.4 36.0352 111.437 35.9264 111.437 35.7127V35.4225C111.509 34.951 111.473 34.7736 111.437 34.556L111.441 34.5519Z" fill="#454138"/>
<path d="M128.763 45.5233C128.799 45.7046 128.835 45.9586 128.799 46.0996C128.799 46.4261 128.799 46.5672 128.763 46.7486C128.763 46.93 128.726 47.1113 128.726 47.4701C128.726 47.6877 128.907 47.9376 129.193 47.9376C129.518 47.9376 129.659 47.9376 129.84 47.9739C130.021 48.0102 130.202 48.0102 130.56 48.0102C130.917 48.0102 131.134 47.9739 131.315 47.9376C131.46 47.9013 131.605 47.9013 131.89 47.9013H131.926C131.963 47.9013 131.999 47.9013 132.035 47.8651C132.107 47.8651 132.18 47.8288 132.252 47.7562C132.288 47.6837 132.324 47.6474 132.324 47.5749V47.5023V46.1319C132.324 45.8054 132.361 45.6643 132.361 45.483C132.397 45.3016 132.397 45.1202 132.397 44.7252C132.397 44.701 132.385 44.6768 132.361 44.6527C132.324 44.435 132.107 44.2173 131.858 44.2173C131.496 44.2173 131.319 44.2173 131.138 44.2536C130.958 44.2536 130.813 44.2899 130.491 44.2899H129.124C129.016 44.2899 128.835 44.3987 128.763 44.4713C128.654 44.6527 128.69 45.0477 128.763 45.5192V45.5233ZM129.88 45.0194H130.564C130.925 45.0194 131.102 45.0194 131.283 44.9832C131.392 44.9832 131.5 44.9832 131.645 44.9469C131.645 45.092 131.609 45.2008 131.609 45.3096C131.573 45.491 131.573 45.6724 131.573 46.0674V47.0791C131.428 47.0791 131.319 47.1154 131.211 47.1154C131.066 47.1516 130.885 47.1516 130.6 47.1516C130.274 47.1516 130.133 47.1516 129.953 47.1154C129.844 47.1154 129.699 47.0791 129.522 47.0791C129.522 46.934 129.522 46.8614 129.559 46.7526C129.559 46.5712 129.595 46.3899 129.595 46.1037C129.631 45.9223 129.595 45.6684 129.559 45.3459C129.559 45.2371 129.522 45.0557 129.522 44.9469C129.667 45.0194 129.776 45.0194 129.884 45.0194H129.88Z" fill="#454138"/>
<path d="M93.1135 85.7086C93.2582 85.7086 93.4029 85.6723 93.5798 85.636C94.7335 85.3458 94.8742 84.2656 94.9466 83.8666C94.9466 83.6852 94.8742 83.4313 94.6933 83.2902C94.5848 83.1814 94.4039 83.1451 94.227 83.1814C93.7969 83.2902 93.3627 83.4353 93.0009 83.5441C92.5346 83.6892 92.1728 83.798 91.9557 83.8343H91.9195C91.7386 83.8706 91.4894 83.9794 91.3808 84.1971C91.3085 84.3422 91.3447 84.5236 91.417 84.6646C91.7065 85.1685 92.3175 85.7126 93.1094 85.7126L93.1135 85.7086ZM93.1858 84.2656C93.4753 84.193 93.7607 84.0842 94.0863 84.0117C94.0139 84.4107 93.833 84.7694 93.3305 84.8782C92.8642 85.0233 92.4662 84.7694 92.2492 84.5155C92.5386 84.4792 92.824 84.3704 93.1858 84.2616V84.2656Z" fill="#454138"/>
</svg>
