<svg width="16" height="16" viewBox="0 0 16 16" fill="none" xmlns="http://www.w3.org/2000/svg">
<g id="video">
<path id="Vector" fill-rule="evenodd" clip-rule="evenodd" d="M2.00008 5.27184C2.00008 4.6304 2.49904 4.13851 3.10614 4.13851H8.22735C8.83448 4.13851 9.33341 4.6304 9.33341 5.27184V5.80681C9.33321 5.81658 9.33321 5.82638 9.33341 5.83618V10.3385C9.33341 10.9294 8.81875 11.4718 8.22735 11.4718H3.10614C2.51473 11.4718 2.00008 10.9294 2.00008 10.3385V5.27184ZM10.6667 6.24978V10.3385C10.6667 11.6143 9.60561 12.8052 8.22735 12.8052H3.10614C1.72786 12.8052 0.666748 11.6143 0.666748 10.3385V5.27184C0.666748 3.91328 1.74354 2.80518 3.10614 2.80518H8.22735C9.42961 2.80518 10.4094 3.66788 10.6233 4.80414L13.2921 3.58703C13.3119 3.57796 13.3323 3.56988 13.3529 3.56281C13.7983 3.41049 14.2727 3.45194 14.6537 3.6692C15.0413 3.89016 15.3334 4.30084 15.3334 4.81956V10.7662C15.3334 11.3028 15.0067 11.719 14.6339 11.9366C14.2612 12.1542 13.7503 12.2298 13.2786 11.9926L12.0568 11.4354C11.7218 11.2826 11.5741 10.8872 11.7269 10.5522C11.8796 10.2172 12.275 10.0694 12.61 10.2222L13.8453 10.7856C13.8559 10.7904 13.8665 10.7956 13.8768 10.801C13.8817 10.8035 13.8882 10.8058 13.9014 10.805C13.917 10.804 13.9391 10.7984 13.9617 10.7851C13.9821 10.7732 13.9943 10.7604 14.0001 10.7526V4.83167C13.9983 4.83042 13.9961 4.82904 13.9934 4.82754C13.9652 4.81143 13.8995 4.7922 13.8083 4.81707L10.6667 6.24978Z" fill="#2E313B" fill-opacity="0.6"/>
</g>
</svg>
