<svg width="180" height="180" viewBox="0 0 180 180" fill="none" xmlns="http://www.w3.org/2000/svg">
<path d="M70.1058 177.712C66.0761 177.784 61.9389 177.892 57.945 178C56.5553 178.036 55.2691 178.036 53.987 178.036C52.8441 178.036 51.7412 178.036 50.5625 178.072C49.563 178.072 48.5994 178.072 47.6398 178.036C46.712 178.036 45.7484 178.036 44.7171 178C43.8251 178 42.9332 177.964 42.077 177.928C41.5076 177.892 40.9342 177.892 40.3648 177.856C39.0826 177.82 37.8682 177.748 36.586 177.676L35.9807 177.64C35.0888 177.604 34.2327 177.568 33.3765 177.532C31.8435 177.46 30.2746 177.388 28.7058 177.352C27.2444 177.28 25.7472 177.28 24.2818 177.28H22.7846C22.5338 177.28 22.3227 177.496 22.3227 177.744C22.3227 177.992 22.5378 178.208 22.7846 178.208H24.2818C25.7074 178.208 27.2046 178.172 28.6699 178.28C30.2388 178.28 31.8077 178.388 33.3407 178.46C34.2327 178.496 35.0888 178.568 35.9807 178.568L36.5501 178.604C37.8323 178.676 39.0468 178.748 40.3648 178.784C40.9342 178.784 41.5076 178.82 42.077 178.856C42.969 178.892 43.8609 178.928 44.7529 178.928C45.7882 178.964 46.7518 179 47.6756 178.964C48.3884 179 49.137 179 49.8856 179H50.6342C51.8128 178.964 52.9158 178.964 54.0586 178.964C55.3408 178.964 56.627 178.964 58.0167 178.928C62.0105 178.82 66.1477 178.712 70.1774 178.64C70.4283 178.64 70.6393 178.424 70.6393 178.14C70.5677 177.924 70.3526 177.708 70.1058 177.708V177.712Z" fill="#454138"/>
<path d="M76.883 177.676C75.565 177.64 73.7452 177.604 72.4232 177.676C72.1724 177.676 71.9613 177.928 71.9972 178.176C71.9972 178.428 72.2122 178.604 72.4591 178.604H72.4949C73.7771 178.532 75.561 178.568 76.883 178.604C77.1697 178.604 77.3449 178.388 77.3449 178.14C77.3807 177.888 77.1657 177.676 76.883 177.676Z" fill="#454138"/>
<path d="M63.006 175.492C63.7188 175.456 63.9696 175.42 64.5032 175.348L65.0368 175.276C65.2877 175.24 65.4629 174.988 65.4629 174.74C65.427 174.488 65.212 174.312 64.9293 174.312L64.3599 174.384C63.8621 174.456 63.6471 174.492 62.9702 174.492C62.7193 174.492 62.5083 174.708 62.5083 174.992C62.5083 175.28 62.7233 175.492 63.006 175.492C62.9821 175.492 62.9821 175.492 63.006 175.492Z" fill="#454138"/>
<path d="M157.453 177.212C156.49 177.14 155.49 177.14 154.495 177.104C153.531 177.068 152.532 177.068 151.572 176.996C150.608 176.996 149.609 176.96 148.649 176.924C147.65 176.888 146.686 176.852 145.726 176.852C144.906 176.852 143.835 176.744 142.979 176.672L142.266 176.636C141.908 176.6 141.589 176.6 141.302 176.564C141.052 176.528 140.769 176.492 140.518 176.456C140.303 176.42 140.092 176.384 139.841 176.348C139.626 176.312 139.379 176.312 139.164 176.276C138.878 176.24 138.595 176.24 138.344 176.204C137.703 176.132 137.165 176.06 136.668 175.952C135.919 175.844 135.206 175.736 134.207 175.628H134.063C133.171 175.556 132.315 175.52 131.423 175.448H131.28C130.388 175.448 129.496 175.412 128.568 175.412C127.856 175.448 127.143 175.484 126.43 175.484C125.717 175.484 125.076 175.52 124.395 175.556C124.144 175.556 123.933 175.808 123.969 176.056C123.969 176.308 124.22 176.52 124.467 176.484C125.144 176.448 125.785 176.412 126.466 176.412C127.214 176.412 127.927 176.376 128.64 176.34C129.532 176.34 130.388 176.34 131.28 176.376H131.388C132.244 176.412 133.136 176.484 133.992 176.556H134.135C135.063 176.628 135.74 176.736 136.524 176.844C137.022 176.916 137.559 176.988 138.236 177.096C138.487 177.132 138.77 177.132 139.093 177.168C139.308 177.168 139.519 177.204 139.734 177.24C139.949 177.276 140.16 177.276 140.339 177.312C140.626 177.348 140.908 177.384 141.195 177.42C141.518 177.42 141.836 177.456 142.159 177.492L142.871 177.528C143.727 177.6 144.834 177.708 145.691 177.708C146.654 177.708 147.618 177.744 148.581 177.78C149.581 177.816 150.545 177.852 151.504 177.852C152.468 177.924 153.467 177.924 154.463 177.96C155.426 177.996 156.426 177.996 157.385 178.068H157.421C157.672 178.068 157.883 177.888 157.883 177.64C157.919 177.46 157.704 177.212 157.457 177.212H157.453Z" fill="#454138"/>
<path d="M113.333 177.568L112.227 177.64C110.693 177.748 109.089 177.82 107.556 177.856C106.059 177.82 104.561 177.856 103.168 177.928H101.814C100.778 177.928 99.6755 177.928 98.7836 178.036C98.5327 178.072 98.3575 178.324 98.3893 178.572C98.4252 178.824 98.6402 178.968 98.8512 178.968H98.9229C99.779 178.86 100.814 178.86 101.814 178.86H103.203C104.593 178.788 106.094 178.788 107.592 178.788C109.16 178.752 110.765 178.644 112.334 178.572L113.441 178.5C113.692 178.5 113.903 178.248 113.903 178C113.831 177.748 113.616 177.568 113.333 177.568Z" fill="#454138"/>
<path d="M132.164 176.528C130.093 176.528 127.919 176.636 125.817 176.708L124.817 176.744C123.428 176.78 121.962 176.852 120.68 176.96C120.218 176.96 118.681 176.996 117.757 177.176C117.507 177.212 117.331 177.464 117.363 177.712C117.399 177.964 117.614 178.108 117.825 178.108H117.897C118.574 178 119.788 177.928 120.716 177.928C122.034 177.82 123.463 177.748 124.853 177.712L125.853 177.676C127.955 177.568 130.097 177.496 132.164 177.496C132.415 177.496 132.626 177.28 132.626 177.032C132.626 176.784 132.411 176.532 132.164 176.532V176.528Z" fill="#454138"/>
<path d="M95.9644 46.796C100.388 46.08 100.599 46.832 100.814 47.584C100.886 47.8 100.958 48.012 101.029 48.192C100.603 48.012 100.209 47.796 99.9224 47.512C98.9946 46.58 97.6049 46.616 96.2112 47.584C96.0321 47.692 95.9604 47.944 96.0321 48.12C96.1037 48.336 96.2829 48.444 96.5298 48.444C98.0987 48.3 98.2779 48.66 98.4929 49.16C98.8154 49.876 99.2415 50.484 100.918 50.52C101.169 50.52 101.38 50.304 101.38 50.056C101.38 49.808 101.165 49.592 100.918 49.592C99.7034 49.556 99.5282 49.232 99.3132 48.768C99.134 48.372 98.919 48.052 98.5646 47.8C98.8154 47.836 99.0265 47.98 99.2415 48.16C100.524 49.484 102.343 49.52 103.63 49.412C103.701 49.412 103.737 49.376 103.809 49.376C104.306 49.376 104.844 49.34 105.521 49.232C105.772 49.196 105.947 48.944 105.947 48.696C105.911 48.444 105.66 48.232 105.413 48.268C102.132 48.664 101.953 48.052 101.774 47.3C101.416 45.94 100.775 45.008 95.8529 45.832C95.602 45.868 95.4268 46.12 95.4587 46.368C95.4587 46.692 95.7095 46.868 95.9564 46.8L95.9644 46.796Z" fill="#454138"/>
<path d="M93.1093 51.74H93.2885C93.7146 51.74 94.1446 51.488 94.2521 51.132C94.3596 50.844 94.2163 50.524 93.8579 50.344L93.6429 50.308C93.5354 50.272 93.3562 50.236 93.2845 50.2C92.9978 50.02 92.7868 50.092 92.7151 50.164C92.6434 50.2 92.4284 50.344 92.4284 50.664C92.3926 51.524 92.962 51.704 93.1053 51.74H93.1093Z" fill="#454138"/>
<path d="M43.1044 162.52C42.1766 162.592 41.2488 163.308 41.3563 164.704C41.428 165.992 42.4275 166.676 43.3911 166.676H43.4986C44.4981 166.64 45.4617 165.888 45.39 164.528V164.492C45.2825 163.096 44.1437 162.412 43.1084 162.52H43.1044ZM43.4628 165.708C42.9292 165.744 42.3558 165.42 42.3199 164.632C42.2483 163.628 42.961 163.484 43.2119 163.448H43.3194C43.853 163.448 44.4264 163.808 44.4981 164.56C44.4981 165.348 43.9645 165.672 43.4628 165.708Z" fill="#454138"/>
<path d="M115.221 162.808C114.58 163.168 114.221 163.812 114.221 164.6C114.221 165.388 114.58 166.068 115.221 166.428C115.543 166.608 115.898 166.716 116.292 166.716C116.686 166.716 117.041 166.608 117.363 166.428C117.968 166.068 118.291 165.388 118.255 164.6C118.255 163.812 117.897 163.168 117.292 162.808C116.65 162.412 115.866 162.412 115.221 162.808ZM116.861 165.604C116.539 165.82 116.041 165.82 115.683 165.604C115.432 165.46 115.149 165.176 115.185 164.6C115.185 164.028 115.472 163.74 115.683 163.632C115.862 163.524 116.041 163.488 116.252 163.488C116.463 163.488 116.646 163.524 116.822 163.632C117.144 163.812 117.319 164.168 117.284 164.6V164.636C117.319 165.064 117.14 165.388 116.857 165.604H116.861Z" fill="#454138"/>
<path d="M41.3563 168.004C41.0696 167.752 40.7869 167.504 40.6794 167.324C40.5719 167.072 40.2852 167 40.0383 167.108C39.7874 167.216 39.7158 167.504 39.8233 167.752C39.8233 167.788 39.8591 167.824 39.8591 167.86C39.3972 167.572 39.1463 167.464 38.8955 167.536C38.7521 167.572 38.6088 167.68 38.5371 167.824C38.5013 167.896 38.4654 167.968 38.5013 168.04C38.5013 168.256 38.5729 168.468 38.6805 168.72C38.4654 168.504 38.2544 168.256 38.0394 168.004C37.8602 167.788 37.5775 167.752 37.3624 167.932C37.1474 168.112 37.1116 168.396 37.2908 168.612C38.5371 170.152 39.8949 171.012 41.3921 171.264H41.4638C41.6788 171.264 41.858 171.12 41.9257 170.904C41.9974 170.652 41.8541 170.44 41.639 170.332C41.2807 170.188 40.7829 169.796 40.3568 169.364C40.9979 169.828 41.428 170.116 41.8182 170.008C41.9974 169.972 42.1407 169.864 42.2443 169.612C42.4951 169.004 41.9217 168.5 41.3523 168L41.3563 168.004Z" fill="#454138"/>
<path d="M48.6353 163.632C48.7428 163.884 48.8503 164.096 48.922 164.276C49.0653 164.636 49.1728 164.884 49.4914 164.956H49.6706C49.8856 164.92 50.0289 164.776 50.0966 164.596C50.2041 164.272 50.0608 163.52 49.8458 162.66C49.9533 162.804 50.1683 162.84 50.3435 162.768C50.5944 162.696 50.7377 162.408 50.6302 162.16C50.3077 161.228 49.3839 160.116 48.6671 159.58C48.4879 159.436 48.2411 159.472 48.0619 159.616C47.8827 159.76 47.8827 160.044 47.9902 160.224C48.0977 160.404 48.3844 161.084 48.6313 161.872C48.4163 161.584 48.1694 161.336 47.8827 161.12C47.6677 160.94 47.3849 160.976 47.2058 161.192C47.0266 161.408 47.0624 161.692 47.2774 161.872C47.8827 162.372 48.3486 163.124 48.6313 163.628L48.6353 163.632Z" fill="#454138"/>
<path d="M118.291 159.904C118.076 159.796 117.829 159.904 117.686 160.12C117.578 160.336 117.614 160.584 117.793 160.728C118.864 161.552 119.434 162.088 119.828 163.056C119.936 163.308 120.222 163.416 120.433 163.308C120.684 163.2 120.792 162.912 120.684 162.7C120.612 162.556 120.541 162.376 120.469 162.272C120.648 162.452 120.827 162.668 121.003 162.916C121.146 163.132 121.397 163.204 121.608 163.06C121.823 162.952 121.93 162.7 121.823 162.452C121.5 161.664 121.003 160.876 120.397 160.16C120.362 160.088 120.29 160.016 120.218 159.98C121.5 160.84 122.572 162.38 122.5 163.992C122.5 164.244 122.715 164.456 122.962 164.492C123.213 164.492 123.424 164.276 123.424 164.028C123.495 161.808 121.855 159.476 119.645 158.616C119.04 158.364 117.968 158.008 117.682 158.688C117.646 158.796 117.646 158.94 117.682 159.048C117.753 159.264 118.004 159.444 118.61 159.908C118.789 160.052 119.004 160.196 119.179 160.372C118.928 160.264 118.681 160.156 118.43 160.048L118.287 159.904H118.291Z" fill="#454138"/>
<path d="M113.76 170.548C114.186 170.8 114.652 170.944 115.328 171.12C115.754 171.228 116.185 171.3 116.646 171.3C117.108 171.3 117.503 171.192 117.789 170.904C117.897 170.796 117.933 170.616 117.897 170.476C117.861 170.332 117.753 170.188 117.574 170.152C117.323 170.08 117.041 169.972 116.754 169.9C116.575 169.864 116.396 169.792 116.256 169.756C116.471 169.792 116.682 169.828 116.897 169.792C117.112 169.792 117.292 169.648 117.323 169.432C117.359 169.216 117.288 169.004 117.108 168.896C116.929 168.788 116.75 168.68 116.539 168.572C116.503 168.536 116.431 168.5 116.396 168.5C116.575 168.428 116.682 168.248 116.682 168.072C116.682 167.82 116.467 167.608 116.22 167.608C115.974 167.608 115.723 167.608 115.472 167.572C115.293 167.572 115.113 167.572 114.938 167.536C114.723 167.536 114.58 167.644 114.476 167.824C114.44 167.86 114.44 167.932 114.44 167.968C113.764 167.608 113.015 167.324 112.657 167.824C112.549 167.968 112.513 168.148 112.549 168.324C112.37 168.144 112.191 167.964 112.015 167.752C111.836 167.572 111.554 167.536 111.339 167.716C111.159 167.896 111.124 168.18 111.303 168.396C112.051 169.112 112.8 169.9 113.764 170.544L113.76 170.548Z" fill="#454138"/>
<path d="M122.998 174.488L123.033 174.452C123.428 174.2 123.782 173.952 124.14 173.664C124.176 173.628 124.212 173.592 124.248 173.556C125.355 172.624 126.247 171.444 126.816 170.224C128.031 168.18 128.457 165.46 127.995 162.34C128.102 162.34 128.21 162.34 128.317 162.304H128.389C128.497 162.34 128.604 162.376 128.712 162.34C128.963 162.268 129.138 162.088 129.281 161.876C129.389 161.66 129.424 161.412 129.389 161.196C128.891 158.76 127.354 156.788 125.677 154.784C124.965 154.212 124.18 153.6 123.324 152.992C123.037 152.812 122.719 152.668 122.432 152.528C120.362 151.524 118.295 151.024 116.296 151.096C114.014 151.096 112.087 151.524 110.59 152.348C109.626 152.744 108.734 153.244 107.95 153.852C107.381 154.424 106.807 155 106.238 155.572L105.879 155.968C105.167 156.864 104.561 157.94 103.988 159.192C103.916 159.192 103.809 159.228 103.737 159.3C103.415 159.552 103.132 159.8 102.809 160.088C102.523 160.376 102.383 160.516 102.276 160.66C102.168 160.804 102.025 160.912 101.814 161.124C100.994 161.804 100.388 162.308 99.568 163.132L99.2455 163.492C98.7477 164.028 98.2818 164.532 97.5691 164.852C96.8921 165.248 96.1435 165.46 95.3233 165.424C94.9291 165.424 94.7538 165.46 94.5747 165.46C94.3955 165.46 94.2521 165.496 93.8977 165.496C93.6469 165.496 93.4717 165.496 93.2566 165.46L92.8624 165.424H92.5399C92.3249 165.424 92.1457 165.424 91.9347 165.388C91.9705 165.28 91.9705 165.172 91.9347 165.1C91.863 164.776 91.7913 164.492 91.7196 164.24C91.5404 163.56 91.3613 162.952 91.2577 162.16C91.2219 161.872 91.2219 161.764 91.2219 161.588C91.2219 161.444 91.2577 161.264 91.2219 160.944C91.1861 160.48 91.0785 159.94 90.9352 159.62C90.8635 159.404 90.7918 159.192 90.7202 158.976V158.94C90.541 158.476 90.4335 158.188 90.541 157.9C90.6127 157.756 90.6126 157.72 90.6485 157.648C90.6843 157.612 90.6843 157.54 90.7202 157.432C90.8994 157.004 90.8635 156.572 90.5768 156.248C90.2901 155.852 89.7207 155.64 89.223 155.568C89.2588 155.208 89.3305 154.816 89.438 154.316C89.7247 153.564 90.0074 152.668 90.2941 151.772C90.4016 151.344 90.545 150.876 90.6166 150.448C90.9392 150.448 91.2577 150.484 91.4727 150.484C91.6519 150.484 91.7953 150.52 91.9347 150.52C92.1855 150.484 92.3966 150.34 92.5041 150.092C92.5399 150.02 92.5757 149.948 92.5757 149.84L92.7549 148.656C93.0058 147.152 93.2885 145.252 93.5752 144C93.7902 143.32 94.0371 142.64 94.3238 141.92C94.8574 140.488 95.3949 139.016 95.7135 137.584C96.036 136.58 96.2471 135.72 96.3904 134.86C96.4621 134.072 96.4979 133.248 96.5696 132.424V131.996C96.4621 131.064 96.3904 130.132 96.3546 129.164C96.3187 128.876 96.2471 128.592 96.1754 128.304C96.1396 128.124 96.0679 127.944 96.032 127.768C95.9245 127.268 95.817 126.8 95.6737 126.3C95.4586 125.476 95.2476 124.652 95.2118 123.9C95.1759 123.22 95.3193 122.504 95.4626 121.82L95.4985 121.568C95.821 120.636 95.2476 119.74 94.8215 119.024C94.6424 118.736 94.499 118.488 94.3955 118.272C94.3596 118.2 94.3238 117.984 94.3955 117.268C94.3955 117.196 94.3955 117.088 94.4313 116.98C94.4313 115.008 95.1082 112.86 95.6458 111.392C95.825 110.82 95.9683 110.28 96.1435 109.744C96.5378 108.524 96.928 107.272 97.2147 105.948C97.3222 106.092 97.3939 106.236 97.5014 106.376C97.8597 106.912 98.2141 107.452 98.5725 107.952C99.1419 108.776 99.7512 109.6 100.321 110.46C101.069 111.536 101.818 112.608 102.566 113.648C102.853 114.044 103.064 114.364 103.243 114.688C103.458 115.048 103.705 115.44 104.099 115.94C105.597 117.48 107.452 119.164 109.519 119.808C109.734 119.844 109.913 119.88 110.124 119.88C110.765 119.88 111.37 119.664 111.98 119.344C112.015 119.344 112.015 119.308 112.051 119.308C112.513 119.056 112.979 118.772 113.405 118.484C114.651 117.552 115.508 116.836 116.224 115.58C116.937 114.54 117.542 113.396 118.116 112.248C118.51 111.46 118.864 110.636 119.259 109.848C119.545 109.24 119.792 108.628 120.115 108.02C120.509 107.088 120.935 106.192 121.293 105.44C121.437 105.044 121.544 104.652 121.652 104.256C121.974 103.252 122.257 102.284 122.723 101.32C123.185 100.532 123.758 99.348 124.077 98.704C124.077 98.704 124.113 98.596 124.148 98.596C124.22 98.416 124.363 98.2 124.507 97.988C124.933 97.308 125.291 96.736 125.112 96.232L125.076 96.196C125.04 96.124 124.969 96.016 124.897 95.98C124.861 95.944 124.789 95.908 124.754 95.872C124.933 95.584 125.148 95.336 125.395 95.084C125.857 95.336 126.215 95.512 126.538 95.512C126.645 95.512 126.753 95.476 126.86 95.44C127.075 95.368 127.465 95.044 127.788 94.724C127.824 94.688 127.86 94.652 127.931 94.58C128.146 94.328 128.325 94.08 128.429 93.9C128.501 93.756 128.536 93.612 128.572 93.504C128.608 93.324 128.644 93.216 128.823 93.004C129.002 92.788 129.038 92.752 129.182 92.716C129.325 92.68 129.54 92.608 129.894 92.392C129.966 92.356 130.002 92.32 130.073 92.284C130.181 92.32 130.288 92.32 130.396 92.32H130.432C130.683 92.32 130.894 92.104 130.894 91.82V91.784C130.93 91.748 131.001 91.712 131.037 91.712C131.109 91.748 131.18 91.748 131.252 91.784C131.503 91.82 131.857 91.676 131.893 91.424V91.28C132.072 91.208 132.216 91.1 132.355 91.028L132.57 90.884L132.678 90.812C132.678 90.812 132.713 90.812 132.713 90.776H132.749C132.893 90.776 133.036 90.74 133.108 90.632C133.108 90.596 133.144 90.596 133.144 90.56C133.144 90.524 133.179 90.524 133.179 90.488C133.359 90.38 133.538 90.272 133.749 90.164C133.928 90.056 134.107 89.984 134.247 89.876C134.318 89.84 134.354 89.804 134.39 89.804C134.462 89.768 134.533 89.732 134.569 89.732C134.784 89.768 135.067 89.768 135.425 89.804H135.959C136.636 89.804 137.384 89.804 137.814 89.768C138.244 89.732 138.563 89.804 138.85 89.84C139.419 89.912 139.992 90.02 140.741 89.444C141.275 89.084 141.597 88.692 141.669 88.224C141.74 87.796 141.597 87.4 141.382 87.04V87.004C141.382 86.968 141.346 86.968 141.346 86.932C141.203 86.716 141.06 86.504 140.92 86.36L140.813 86.216C140.49 85.82 140.172 85.392 139.742 85.068C139.136 84.64 138.28 84.28 137.46 83.92C136.998 83.74 136.532 83.56 136.142 83.348C135.608 83.132 135.071 82.884 134.501 82.668C134.107 82.488 133.717 82.344 133.323 82.168C133.144 82.096 133 82.024 132.825 81.988C132.789 81.988 132.753 81.952 132.717 81.952H132.682C132.184 81.772 131.718 81.592 131.256 81.452C131.005 81.38 130.758 81.236 130.579 81.164C130.4 81.092 130.257 81.02 130.081 80.948C129.831 80.876 129.584 80.804 129.333 80.732C129.309 80.732 129.285 80.72 129.261 80.696C128.867 80.588 128.513 80.48 128.083 80.372C127.796 80.3 127.513 80.264 127.226 80.228L126.657 80.156C125.514 80.012 124.483 79.868 123.663 79.904C122.663 79.904 121.986 80.12 121.807 80.728C121.771 80.8 121.771 80.872 121.807 80.908C121.807 81.052 121.843 81.624 121.843 82.196C121.843 82.52 121.879 82.696 121.915 82.84C121.95 83.02 121.95 83.092 121.879 83.34C121.771 83.628 121.664 83.768 121.556 83.948C121.413 84.2 121.234 84.448 121.198 84.952C121.198 85.024 121.198 85.132 121.162 85.276C121.162 85.528 121.126 85.884 121.09 86.244C121.054 86.496 121.019 86.708 121.019 86.96C120.911 87.856 120.839 88.752 120.521 89.396C120.413 89.612 120.342 89.72 120.306 89.86C120.27 89.968 120.234 90.04 120.162 90.184C119.876 90.648 119.947 91.26 120.342 91.616C120.449 91.724 120.521 91.76 120.593 91.832C120.413 92.192 120.198 92.512 119.987 92.836C119.736 92.548 119.525 92.336 118.916 92.408C118.773 92.444 118.629 92.516 118.558 92.66C118.06 93.52 117.594 94.2 117.061 94.916C116.527 95.92 115.846 96.888 114.815 97.996L114.671 98.14C114.102 98.712 113.529 99.324 112.995 99.968C112.888 100.112 112.744 100.22 112.601 100.364L112.067 100.9C111.888 101.116 111.745 101.328 111.605 101.58C111.498 101.724 111.426 101.904 111.319 102.044C111.211 102.188 111.104 102.296 110.96 102.44C110.781 102.62 110.602 102.836 110.427 103.084C110.251 103.332 110.14 103.584 110.032 103.836C109.961 103.98 109.925 104.124 109.853 104.232C109.853 104.232 109.853 104.268 109.817 104.268C109.674 104.556 109.531 104.804 109.423 105.092C108.997 102.548 108.388 100.148 107.854 98.176C107.392 96.992 106.891 95.668 106.321 94.056C105.963 93.232 105.927 92.872 105.859 92.264C105.824 92.048 105.788 91.8 105.752 91.44C105.326 89.612 104.896 87.856 104.219 86.316C104.004 85.6 103.649 84.596 103.076 83.736C102.363 82.732 101.4 81.8 100.221 80.976C100.114 80.904 100.006 80.832 99.8985 80.724C99.4007 80.4 98.8273 80.116 98.2579 79.828C97.8996 79.648 97.5452 79.468 97.2226 79.292C96.9359 79.112 96.6532 78.968 96.4024 78.792C96.2948 78.184 95.9405 77.824 95.6179 77.504C95.2954 77.216 95.0127 76.932 94.8335 76.428C94.7977 76.356 94.7976 76.284 94.7618 76.248C94.7976 76.32 94.8335 76.356 94.8693 76.392C95.1202 76.788 95.4387 77.072 95.8329 77.36C96.4024 77.756 97.0793 78.004 97.6885 78.148C97.9035 78.22 98.1504 78.256 98.4013 78.256C99.1499 78.256 100.042 78.04 100.472 77.86C101.22 77.716 101.933 77.464 102.542 77.144C102.722 77.036 102.901 76.928 103.04 76.82C103.327 76.64 103.538 76.496 103.717 76.32C104.287 75.784 104.537 75.208 104.573 74.564C104.609 74.064 104.502 73.488 104.322 72.844C104.036 71.484 103.502 70.156 102.897 68.94C102.682 68.512 102.471 68.08 102.256 67.652C102.041 67.188 101.83 66.828 101.615 66.468C101.364 66.04 101.117 65.644 100.974 65.18C100.866 64.856 100.83 64.5 100.794 64.14C100.687 63.424 100.579 62.708 100.153 62.096C99.9383 61.808 99.5481 61.808 99.118 61.772C98.9747 61.772 98.692 61.736 98.5128 61.7V61.592C98.5128 61.412 98.4053 61.268 98.2619 61.196C98.1186 60.872 97.9394 60.696 97.6925 60.624C97.5492 60.552 97.37 60.552 97.1948 60.552V60.192C97.2306 59.548 97.2306 58.972 97.3381 58.22V58.076C97.4098 56.892 97.4815 55.748 97.0156 55.28C97.0156 55.28 96.9797 55.28 96.9797 55.244C96.9439 55.208 96.9081 55.172 96.8364 55.136C96.4103 54.956 95.8011 54.884 95.16 54.848C95.16 54.776 95.16 54.74 95.1242 54.704V54.668C95.4467 54.488 95.9444 54.308 96.478 54.132C96.5497 54.168 96.6214 54.168 96.7289 54.132C97.0514 54.06 97.4058 53.916 97.8 53.808C99.1539 53.664 100.548 53.592 101.615 54.06C102.077 54.312 102.399 54.632 102.758 54.956C103.116 55.316 103.47 55.672 103.972 55.96C104.47 56.32 105.115 56.424 105.756 56.424C106.433 56.424 107.11 56.28 107.683 56.136C107.934 56.064 108.181 56.028 108.396 55.956C108.683 55.884 109.001 55.776 109.288 55.704C109.821 55.56 110.323 55.38 110.893 55.24C111.785 54.952 112.497 54.74 113.21 54.776C113.672 54.812 114.21 54.92 114.707 55.028C115.635 55.208 116.599 55.388 117.562 55.352C119.167 55.208 120.951 54.24 121.273 52.592C121.596 51.768 121.524 50.98 121.309 50.264C121.309 50.192 121.309 50.156 121.273 50.084C121.273 50.012 121.202 49.94 121.166 49.868C120.808 49.008 120.238 48.292 119.884 47.896C119.74 47.716 119.49 47.68 119.278 47.824C119.099 47.932 118.992 48.184 119.099 48.396C119.278 48.932 118.92 49.436 118.777 49.616C118.633 49.796 118.454 49.94 118.243 50.08C118.279 49.972 118.279 49.864 118.279 49.72C118.315 49.076 118.028 48.5 117.566 48.216C117.387 48.108 117.172 48.108 117.033 48.252C116.893 48.396 116.818 48.576 116.853 48.752C116.889 48.86 116.925 49.004 116.853 49.112C116.782 49.22 116.567 49.364 115.782 49.436C115.388 49.508 115.105 49.436 114.783 49.184C114.46 48.932 114.07 48.648 113.783 48.288C113.676 48.144 113.604 48.036 113.533 47.928C113.071 47.248 112.533 46.496 111.287 46.46C110.431 46.352 109.431 46.424 108.432 46.532L107.862 46.64C106.72 46.892 105.473 47.176 104.438 47.248C103.689 47.32 103.51 47.212 103.474 47.176C103.403 47.104 103.367 46.888 103.474 46.1C103.51 44.632 101.798 44.452 101.157 44.38C100.444 44.272 99.6954 44.308 98.9826 44.38L98.6601 44.416C97.7682 44.38 97.0196 44.272 96.3068 44.092C96.0559 44.056 95.8091 44.02 95.5582 43.984C95.4865 43.948 95.4507 43.948 95.379 43.948C95.1998 43.948 95.0206 43.948 94.8813 43.984C94.3835 44.02 93.8818 44.092 93.4557 44.236C92.9938 44.416 92.6355 44.7 92.3129 44.952L91.9904 45.204C91.6679 45.456 91.3493 45.74 91.1343 46.1C90.9193 46.46 90.7759 46.816 90.7082 47.176H90.6007C90.103 47.212 89.6371 47.604 89.4579 48.144C89.1712 49.04 89.7088 49.936 90.4574 50.364C90.4215 50.864 90.314 51.44 90.2423 52.012C90.099 52.908 89.9198 53.84 89.7804 54.7L89.7088 55.024C89.3145 55.06 88.8885 55.132 88.6376 55.276C87.8532 55.884 87.7457 57.248 87.7098 58.428C87.674 58.856 87.674 59.252 87.6023 59.54V59.648C87.0687 60.112 86.5312 60.544 85.8184 60.936L85.7109 61.008C84.1779 61.94 82.4298 62.98 81.6454 64.7C81.287 65.488 81.2512 66.348 81.2512 67.1C81.2512 67.244 81.2512 67.388 81.2153 67.528C81.072 67.672 80.9286 67.852 80.7893 68.028C80.3951 68.492 79.8256 69.14 79.6823 69.248C78.2209 69.748 77.9701 70.072 77.755 70.824C77.6834 71.076 77.5758 71.396 77.3608 71.792C77.0741 72.188 76.7197 72.292 76.1463 72.472C75.8238 72.58 75.5053 72.652 75.111 72.832C74.1833 73.296 73.2196 73.836 72.5427 74.3C71.0097 75.16 70.2611 76.448 69.4408 77.812L69.0824 78.42C68.8674 78.744 68.6882 78.992 68.5847 79.208C68.4772 79.352 68.4055 79.46 68.4055 79.496C68.2263 79.82 68.2263 79.996 68.2263 80.212V80.32H68.1905C67.9396 80.428 67.6569 80.608 67.191 81.108C66.5499 81.788 66.1557 82.148 65.3354 82.612C65.2638 82.648 65.0487 82.756 64.9094 82.828C64.4475 83.008 63.8741 83.256 63.663 83.76C63.663 83.796 63.663 83.832 63.6272 83.868C62.4127 83.76 60.9155 83.688 60.0594 83.796C59.916 83.796 59.8085 83.868 59.6333 83.976C59.4183 84.084 57.0291 85.088 56.9216 86.124C56.85 87.272 57.491 88.236 58.4547 88.524C58.5263 88.704 58.6339 88.848 58.7772 88.952C59.1356 89.24 59.9917 89.704 60.5611 89.704C60.6686 89.704 60.7403 89.704 60.8478 89.668C61.0628 89.596 61.2062 89.416 61.242 89.204C61.2779 89.06 61.242 88.916 61.2062 88.776C61.4212 88.74 61.6004 88.668 61.7756 88.56C62.6675 89.492 63.4161 90.244 64.4156 91.14C64.0931 92.428 63.8104 93.684 63.5237 95.008L63.2728 95.94C62.9861 96.98 62.7034 97.984 62.4525 99.092C62.2375 99.88 62.0941 100.632 61.9189 101.42C61.5964 102.96 61.2779 104.392 60.7045 105.9C60.4178 106.94 60.2784 107.692 60.0634 108.624L59.3506 111.384C59.1356 112.46 58.9922 113.14 58.6737 114.072L58.0326 116.796L57.9609 117.048C57.3198 119.34 56.7464 121.636 56.177 123.856C55.8545 125.108 55.5359 126.4 55.2134 127.652C54.9984 128.512 54.7873 129.3 54.5723 130.088C54.429 130.624 54.2856 131.128 54.1462 131.7C53.9312 132.596 53.7879 133.24 53.6485 134.064L53.5768 134.46C53.5051 134.784 53.4335 134.96 53.3976 135.14C53.3618 135.32 53.2901 135.5 53.2185 135.856C53.0751 136.536 52.9318 137.076 52.7207 137.684C52.649 137.936 52.5415 138.22 52.4698 138.544C52.3982 138.868 52.3623 139.044 52.2907 139.26C52.2548 139.404 52.219 139.584 52.1473 139.904C51.9323 140.908 51.7531 141.66 51.3987 142.556C51.2195 143.344 51.0403 144.24 50.7576 145.1C50.3993 145.816 50.1524 146.568 49.9373 147.32C49.7582 147.856 49.579 148.432 49.3321 148.968C49.0454 149.72 48.7627 150.4 48.5118 151.116L48.3326 151.58C48.2251 151.868 48.1535 152.008 48.0818 152.116C47.584 151.936 47.0823 151.792 46.6204 151.72C45.5851 151.396 44.6215 151.256 43.626 151.22C42.6624 151.292 41.6988 151.4 40.7033 151.544C39.7755 151.76 38.8477 152.08 37.9199 152.476C37.458 152.692 37.028 152.904 36.5661 153.192C36.4944 153.264 36.3152 153.336 36.14 153.408C35.7139 153.588 35.1405 153.836 34.9972 154.34C34.9255 154.52 34.8897 154.804 35.1047 155.164C35.1405 155.236 35.2122 155.272 35.2839 155.344C35.3914 155.488 35.4989 155.596 35.6423 155.704C33.93 157.064 32.6837 158.856 32.1103 160.792C31.5767 162.012 31.3259 163.408 31.3259 164.912C31.4334 168.496 32.9664 171.864 35.3914 173.868C35.7139 174.156 36.0325 174.44 36.3909 174.692C35.6064 174.62 34.822 174.512 34.0734 174.44C32.6837 174.26 31.29 174.116 29.8645 174.012C28.865 173.904 27.9372 173.76 26.9418 173.688C26.6909 173.652 26.444 173.616 26.1932 173.58C25.9781 173.544 25.7671 173.508 25.5162 173.472C24.8035 173.4 24.1265 173.328 23.4138 173.22L22.701 173.112C20.3477 172.86 17.851 172.788 15.4977 172.932C15.2469 172.932 15.0358 173.184 15.0358 173.432C15.0358 173.68 15.2867 173.896 15.5336 173.896C17.851 173.752 20.276 173.824 22.5975 174.076L23.3103 174.184C24.023 174.292 24.7358 174.364 25.4127 174.436C25.6277 174.472 25.8069 174.508 26.018 174.544C26.2688 174.58 26.5515 174.652 26.8382 174.688C27.8377 174.76 28.7655 174.868 29.761 175.012C31.1865 175.12 32.5802 175.3 33.9699 175.44C35.0052 175.548 36.0405 175.692 37.1076 175.8L38.1071 175.872C38.3938 176.016 38.7123 176.16 39.0349 176.268C40.4245 176.768 41.8899 177.02 43.3154 177.02C44.3149 177.02 45.3143 176.912 46.2381 176.66C46.489 176.588 46.7 176.516 46.9509 176.444C48.0937 176.516 48.9498 176.552 49.6984 176.552C49.9493 176.552 50.1603 176.336 50.1603 176.088C50.1603 175.84 49.9453 175.624 49.6984 175.624H48.9498C48.914 175.624 48.8423 175.66 48.8065 175.66C48.8423 175.624 48.8782 175.624 48.914 175.588C49.3759 175.336 49.8418 175.052 50.232 174.692C51.7292 173.688 52.9437 172.256 53.764 170.68C53.8715 170.752 53.979 170.86 54.0865 170.932C54.0865 170.968 54.1223 170.968 54.1223 171.004C54.1582 171.076 54.2299 171.112 54.3015 171.148C54.409 171.184 54.5524 171.22 54.6599 171.22C54.7674 171.22 54.8749 171.184 54.9824 171.148C55.1975 171.076 55.3767 170.932 55.4802 170.752C55.516 170.716 55.5519 170.68 55.5519 170.644C56.6947 168.46 56.7305 165.952 56.6947 163.3C56.5155 162.44 56.3005 161.508 55.9819 160.432C54.8749 157.6 53.0233 155.236 50.5625 153.588C49.9573 153.228 49.4197 152.908 48.8503 152.656C48.8503 152.656 48.8503 152.62 48.8861 152.62C48.9578 152.476 49.0295 152.332 49.137 152.084L49.3162 151.584C49.6029 150.868 49.8497 150.188 50.1364 149.472C50.3515 148.9 50.5625 148.36 50.7417 147.788C50.9926 147.036 51.2036 146.356 51.562 145.604C51.8845 144.672 52.0597 143.704 52.2389 142.988C52.4539 142.416 52.6331 141.84 52.7725 141.268C52.9158 141.664 53.0592 142.056 53.1985 142.416C53.3419 142.812 53.5211 143.24 53.6963 143.704C53.8038 144.028 53.8755 144.204 53.9113 144.384C53.983 144.564 54.0188 144.744 54.1263 145.064C54.2338 145.388 54.2697 145.528 54.2697 145.708C54.3055 145.888 54.3414 146.104 54.4489 146.496C54.5564 146.856 54.628 146.996 54.6997 147.176C54.7714 147.356 54.8072 147.5 54.9506 147.856C55.3448 148.896 55.5917 149.576 55.8784 150.58L56.0217 150.904C56.3443 151.728 56.5911 152.336 56.8778 153.232L57.1645 154.128C57.6264 155.704 58.0923 157.172 58.7334 158.716C58.8409 159.04 58.8768 159.18 58.9126 159.36C58.9484 159.54 58.9843 159.756 59.1276 160.112C59.2351 160.472 59.3426 160.648 59.4143 160.792L59.486 160.972C59.5577 161.08 59.5935 161.224 59.6652 161.436C59.9877 162.404 60.4138 163.336 60.9474 164.124C61.7676 165.484 63.0498 166.452 64.1926 167.312C64.5152 167.492 64.8337 167.636 65.1204 167.74C65.2638 167.812 65.4429 167.848 65.5823 167.92C65.7217 167.992 65.869 168.064 66.0084 168.136C66.2951 168.28 66.6136 168.46 66.972 168.564C68.4692 168.852 69.9306 168.924 71.2884 168.924C74.3186 168.852 76.887 168.852 79.4195 168.924C80.4189 168.924 81.0959 168.96 82.0953 168.996H82.2387C83.2023 168.924 83.8792 168.888 84.8428 168.888C85.1654 168.888 85.3048 168.924 85.4481 168.924C85.6273 168.96 85.8065 168.96 86.1609 168.96C87.0528 168.96 87.6939 168.96 88.4783 168.924H90.1547C91.1184 168.924 92.082 168.96 93.0456 168.816C93.9734 168.744 94.937 168.744 95.7931 168.78C96.044 168.78 96.2909 168.708 96.5776 168.672C96.7926 168.636 96.9718 168.6 97.1828 168.6C99.572 168.42 101.997 168.172 104.422 167.776C104.494 168.028 104.565 168.276 104.637 168.564C104.744 168.96 104.852 169.388 105.031 169.784C105.175 170.144 105.354 170.428 105.529 170.716L105.672 170.968C106.672 172.904 108.312 174.516 110.63 175.804C112.414 176.628 114.305 177.092 116.228 177.092C116.654 177.092 117.049 177.056 117.475 177.02C119.828 176.268 121.648 175.552 123.037 174.44L122.998 174.488ZM55.1975 160.336C55.4842 161.34 55.6952 162.272 55.8744 162.988C55.9102 165.388 55.8386 167.68 54.8749 169.688C54.8749 169.688 54.8749 169.724 54.8391 169.76C54.8391 169.76 54.8033 169.76 54.8033 169.724C54.6957 169.688 54.5882 169.616 54.5166 169.544C54.3732 169.436 54.2299 169.328 54.0905 169.148C53.6963 168.648 53.5569 167.964 53.6963 167.356C53.8396 166.784 53.9113 166.244 53.983 165.852C54.4807 162.34 52.9477 158.544 50.1325 156.18C49.9533 156.036 49.7741 155.892 49.5989 155.752C49.4237 155.612 49.2405 155.5 49.0295 155.392C48.6711 155.176 48.2809 154.996 47.8867 154.784L47.9583 154.64C48.1375 154.14 48.3525 153.636 48.5636 153.1C49.0613 153.352 49.5989 153.636 50.1683 153.996C52.4499 155.536 54.198 157.76 55.1975 160.336ZM46.923 175.096C46.6363 175.168 46.3895 175.276 46.1028 175.348C44.0322 175.884 41.6788 175.776 39.4689 175.024C39.445 175.024 39.4211 175.012 39.3972 174.988C39.0747 174.88 38.7203 174.736 38.4336 174.56C37.5416 174.096 36.7572 173.448 36.0803 172.84C33.8345 171.012 32.4408 167.896 32.3373 164.6C32.3373 163.24 32.5523 161.984 33.05 160.804C33.5836 158.904 34.8339 157.184 36.582 155.932C36.6178 155.932 36.6537 155.968 36.6895 155.968C37.4381 156.184 38.2942 156.148 39.007 155.824C39.1145 155.752 39.222 155.716 39.3295 155.68C39.7914 155.464 40.2215 155.252 40.6834 155.108C40.9701 155 41.2886 154.892 41.5753 154.856C43.1084 154.676 44.5339 154.748 45.7842 155C46.1067 155.108 46.3895 155.216 46.712 155.36L46.3895 156.184C44.6772 155.576 42.7858 155.54 40.6117 156.112C37.2589 157.332 34.9414 160.052 34.5472 163.24C34.1889 165.176 34.5472 167.18 35.475 168.72C36.1519 170.116 37.0439 171.192 38.1509 171.98C39.5764 172.912 40.8267 173.376 41.9655 173.484C42.4991 173.592 43.0367 173.664 43.5703 173.664C44.8524 173.664 46.2103 173.34 47.4208 172.696C47.6358 172.588 47.8827 172.408 48.0977 172.268C49.2764 171.48 50.3793 170.332 51.3788 168.756C51.9124 167.396 52.2349 166.032 52.3066 164.672C52.1274 161.7 50.8452 159.12 48.8105 157.544C48.6313 157.436 48.4879 157.328 48.3127 157.22C47.9544 157.004 47.6358 156.792 47.2774 156.648L47.6 155.824C48.4202 156.184 49.0613 156.612 49.5989 157.076C52.2031 159.26 53.5569 162.7 53.1308 165.888C53.095 166.284 53.0233 166.784 52.88 167.32C52.7008 168.108 52.8442 168.968 53.2742 169.648C52.5614 171.26 51.3828 172.656 49.8497 173.696C48.9578 174.196 47.9942 174.736 46.927 175.092L46.923 175.096ZM36.5422 153.992C36.6138 153.956 36.6497 153.956 36.6855 153.92C36.8647 153.848 37.0081 153.776 37.0797 153.704C37.4739 153.452 37.8642 153.276 38.2942 153.096C39.1503 152.736 40.0423 152.416 40.8626 152.236C41.7903 152.128 42.754 152.02 43.6459 151.948C44.502 151.984 45.394 152.128 46.3934 152.412C46.8195 152.484 47.2496 152.592 47.6398 152.772C47.4248 153.308 47.2456 153.812 47.0345 154.312L46.9987 154.456C46.6762 154.348 46.3576 154.204 45.9992 154.096C45.1073 153.916 44.1795 153.808 43.2159 153.808C42.6106 153.808 42.0014 153.844 41.3603 153.916C40.3608 154.132 39.3972 154.488 38.5053 154.992C37.9717 155.208 37.2908 155.244 36.7214 155.064H36.6138C36.363 154.956 36.1519 154.668 35.9369 154.42C36.0803 154.204 36.3988 154.06 36.5422 153.992ZM42.0691 172.444C41.5355 172.408 41.0338 172.264 40.4644 172.084C39.8949 171.868 39.2857 171.548 38.6088 171.116C37.6452 170.436 36.8607 169.468 36.2196 168.18C35.3994 166.82 35.1127 165.064 35.3994 163.308C35.7219 160.8 37.3624 158.616 39.7516 157.396C40.0741 157.216 40.4285 157.072 40.8227 156.932C41.7505 156.68 42.6425 156.572 43.4986 156.572C44.3547 156.572 45.2108 156.716 45.9952 156.968C45.1391 158.796 44.498 160.372 43.857 162.02C43.7494 162.272 43.8928 162.556 44.1437 162.628C44.2153 162.664 44.2512 162.664 44.3228 162.664C44.502 162.664 44.6812 162.556 44.7489 162.34C45.3542 160.728 45.9952 159.152 46.8514 157.324C47.3133 157.54 47.7433 157.788 48.2052 158.112C50.025 159.508 51.1638 161.872 51.343 164.488C51.2713 165.708 50.9846 166.96 50.5227 168.144C49.4516 169.792 48.2411 170.976 46.9549 171.692C45.4219 172.552 43.7096 172.804 42.0691 172.444ZM111.299 174.524C110.94 174.344 110.622 174.128 110.299 173.916C108.695 172.84 107.48 171.588 106.696 170.084L106.516 169.796C106.337 169.508 106.194 169.26 106.09 168.972C105.947 168.648 105.84 168.256 105.732 167.86C105.66 167.608 105.589 167.396 105.553 167.18C105.624 167.18 105.696 167.144 105.768 167.144C106.301 167.036 106.875 166.964 107.408 166.856C107.516 166.856 107.623 166.82 107.731 166.784C107.874 166.748 108.018 166.748 108.157 166.712C108.372 166.676 108.583 166.64 108.798 166.604C109.085 166.532 109.403 166.496 109.69 166.424C110.654 166.244 111.295 166.064 112.187 165.816C112.509 165.744 112.649 165.744 112.792 165.744C112.971 165.744 113.186 165.708 113.541 165.636C113.791 165.6 113.967 165.348 113.899 165.064C113.863 164.812 113.576 164.636 113.329 164.704C113.007 164.776 112.868 164.776 112.724 164.776C112.545 164.776 112.33 164.812 111.94 164.884C111.048 165.136 110.443 165.28 109.479 165.456C109.192 165.528 108.91 165.564 108.587 165.636C108.372 165.672 108.161 165.708 107.946 165.744H107.91C107.695 165.78 107.448 165.852 107.197 165.888C106.664 165.996 106.09 166.068 105.557 166.176C105.485 166.176 105.413 166.212 105.378 166.212C105.198 164.78 105.163 163.56 105.413 162.164C105.521 162.128 105.664 162.092 105.772 162.02C105.879 161.948 106.023 161.876 106.13 161.804C106.274 161.696 106.417 161.588 106.556 161.444C106.843 161.192 107.09 160.872 107.305 160.512C107.874 159.008 108.874 157.716 110.407 156.608C110.586 156.464 110.801 156.32 111.012 156.212C111.51 155.852 112.047 155.568 112.688 155.352C112.939 155.28 113.222 155.172 113.473 155.136C114.365 154.812 115.257 154.672 116.22 154.708C119.609 154.744 122.854 156.572 124.495 159.328C124.638 159.58 124.781 159.828 124.921 160.044C125.347 160.868 125.849 161.764 127.023 162.156C127.382 164.34 127.449 167.316 125.988 169.752C125.275 171.328 124.061 172.688 122.456 173.692C121.138 174.732 119.497 175.412 117.606 175.664C115.432 175.844 113.254 175.448 111.295 174.516L111.299 174.524ZM96.6054 167.324C96.3904 167.36 96.1435 167.396 95.9643 167.432C95.1082 167.396 94.1446 167.396 93.1093 167.468C92.2174 167.612 91.2896 167.612 90.3618 167.576H88.6496C87.8651 167.612 87.224 167.612 86.3679 167.612C86.0454 167.612 85.906 167.576 85.7627 167.576C85.5835 167.54 85.4043 167.54 85.0499 167.54C84.0504 167.54 83.3377 167.576 82.3382 167.648C81.3029 167.612 80.626 167.576 79.6265 167.576C77.094 167.504 74.4899 167.504 71.4596 167.576C70.1416 167.576 68.7479 167.54 67.3582 167.252C67.1074 167.18 66.8605 167.036 66.6096 166.928C66.4305 166.856 66.2871 166.748 66.1119 166.676C65.9367 166.604 65.7894 166.532 65.6142 166.46C65.3275 166.352 65.0806 166.244 64.8656 166.136C63.7586 165.312 62.6198 164.452 61.8712 163.232C61.5128 162.66 61.1942 162.048 60.9434 161.404C61.7636 162.228 62.5481 162.98 63.44 163.732C63.7267 163.984 63.8661 164.092 64.0095 164.232C64.1528 164.34 64.2962 164.448 64.5072 164.66C65.1841 165.376 66.0044 165.88 66.968 166.092C67.3941 166.2 67.86 166.236 68.3577 166.236H69.0346C69.7832 166.236 70.4243 166.2 71.2088 166.164C71.5313 166.164 71.7065 166.164 71.8498 166.2C72.029 166.236 72.2441 166.236 72.5984 166.236H74.024C74.4182 166.236 74.5934 166.2 74.8084 166.164H74.8801C75.0234 166.128 75.1668 166.128 75.4495 166.128C75.772 166.128 75.9114 166.164 76.0906 166.2H76.1623C76.3415 166.236 76.5565 166.272 76.9109 166.272H77.9462L79.0531 166.236H79.4115C79.5549 166.236 79.6982 166.236 79.8376 166.2C80.1601 166.2 80.5145 166.164 80.9087 166.164H81.2313C81.5538 166.164 81.6932 166.164 81.8723 166.2H81.9082C82.0874 166.236 82.3024 166.272 82.6926 166.236C82.836 166.236 82.9435 166.236 83.0868 166.2C84.369 166.128 85.5118 166.164 86.798 166.164H86.9772C87.2997 166.164 87.5824 166.128 87.9049 166.164H88.12C88.6177 166.164 89.1553 166.2 89.7964 166.2C90.7958 166.128 91.5086 166.128 92.6156 166.2H92.9381L93.4 166.236C93.5433 166.236 93.7225 166.272 94.0052 166.272C94.3995 166.272 94.5747 166.236 94.7538 166.236C94.933 166.236 95.0764 166.2 95.3949 166.2C96.3944 166.236 97.3222 166.02 98.1066 165.52C98.9269 165.124 99.4605 164.552 100.034 163.98L100.356 163.656C101.141 162.904 101.71 162.436 102.566 161.72C102.853 161.468 102.961 161.324 103.1 161.184C103.172 161.112 103.243 161.004 103.351 160.932C103.315 161.004 103.315 161.04 103.279 161.112C103.207 161.328 103.243 161.576 103.387 161.792C103.53 162.008 103.745 162.188 103.992 162.22H104.135C104.314 162.256 104.458 162.292 104.633 162.292C104.418 163.688 104.454 164.908 104.633 166.34C102.244 166.7 99.8188 166.984 97.4655 167.164C97.0713 167.2 96.8244 167.272 96.6094 167.308L96.6054 167.324ZM71.9613 84.848C71.9255 84.884 71.8897 84.92 71.8538 84.92V84.884C71.8538 84.884 71.8897 84.848 71.9613 84.848C71.9255 84.848 71.9255 84.812 71.9613 84.848ZM60.0474 84.632C60.1191 84.596 60.155 84.56 60.1908 84.524C61.0827 84.416 62.6516 84.488 63.8661 84.596C63.9019 84.704 63.9736 84.812 64.0095 84.92C64.117 85.172 64.2245 85.456 64.3678 85.672C64.5112 85.924 64.6904 86.172 64.8656 86.424C64.9731 86.568 65.0806 86.712 65.1881 86.852C65.2956 87.032 65.4031 87.176 65.5106 87.316C65.3673 87.352 65.1881 87.352 64.8695 87.388L64.6545 87.424C63.7984 87.568 63.1573 87.64 62.5521 87.388C62.6237 87.172 62.6954 86.96 62.6954 86.744V86.6C62.6596 85.812 62.2694 85.204 61.6243 84.88C60.9474 84.556 60.1629 84.664 59.5895 85.096C59.7329 84.952 59.9121 84.772 60.0514 84.632H60.0474ZM68.6086 80.976C68.7161 80.904 68.8594 80.868 69.0028 80.688C69.0386 80.652 69.0745 80.58 69.1103 80.508C69.182 80.256 69.182 80.08 69.182 79.972C69.182 79.924 69.1939 79.864 69.2178 79.792C69.2536 79.756 69.2895 79.684 69.3612 79.576C69.5045 79.36 69.6837 79.112 69.8947 78.752L70.2531 78.108C71.0017 76.784 71.6786 75.672 73.0365 74.92C73.6417 74.524 74.462 74.024 75.2823 73.632C75.3539 73.596 75.4256 73.56 75.4973 73.524C75.8198 73.38 76.1025 73.308 76.3892 73.2C77.0303 73.02 77.6356 72.804 78.1373 72.124C78.1731 72.088 78.1731 72.052 78.1731 72.016C78.424 71.552 78.5315 71.192 78.5992 70.904C78.7067 70.508 78.7784 70.368 79.6703 70.044C79.7779 70.008 79.8854 69.972 79.9929 69.936C80.1362 69.864 80.2796 69.72 80.4548 69.576C80.7415 69.288 81.06 68.932 81.4542 68.464C81.5976 68.32 81.7051 68.176 81.8126 68.036C81.9201 67.964 82.0276 67.892 82.0635 67.748C82.2068 67.568 82.3502 67.388 82.4895 67.248C82.9514 66.712 83.3456 66.244 83.8076 65.744C84.0943 65.42 84.4128 65.064 84.7712 64.668L85.1654 64.132C85.914 63.164 86.7343 62.088 87.5545 61.444C87.8412 61.192 87.9129 61.156 88.0881 61.048C88.2315 60.976 88.3748 60.868 88.6575 60.688C88.6934 60.688 88.6934 60.652 88.7292 60.652C90.0114 60.008 91.9745 60.328 93.1173 61.44C93.9734 62.372 94.3318 63.448 94.3636 64.52C94.4353 65.704 94.1128 66.848 93.83 67.636C93.7584 67.888 93.8659 68.172 94.1167 68.244C94.1526 68.28 94.2243 68.28 94.2959 68.28C94.4751 68.28 94.6901 68.172 94.722 67.956C95.3989 66.056 95.4706 64.3 94.9729 62.796C94.722 62.044 94.3318 61.328 93.7584 60.752C93.2606 60.288 92.6872 59.928 92.0461 59.712H92.2253C93.9376 59.784 95.0087 60.608 95.9365 61.824C95.9006 62.36 95.829 62.936 95.7931 63.472C95.7931 63.616 95.7573 63.76 95.7573 63.9C95.6498 64.868 95.5423 65.836 95.5064 66.804C95.4348 67.448 95.3989 68.2 95.3631 68.988C95.3631 69.416 95.3272 69.848 95.2914 70.276C95.2556 70.384 95.2197 70.492 95.2556 70.6C95.2556 70.636 95.2914 70.636 95.2914 70.672C95.2556 71.068 95.2197 71.424 95.1839 71.784C94.933 71.604 94.6862 71.424 94.4711 71.248C94.0451 70.996 93.5075 70.676 93.0456 70.316C93.3323 70.244 93.5792 70.136 93.83 69.956C94.4711 69.456 94.4353 69.024 94.3636 68.772C94.2561 68.448 93.9376 68.236 93.5433 68.236C93.2925 68.236 93.0814 68.452 93.0814 68.7C93.0814 68.88 93.189 69.06 93.3323 69.128L93.2965 69.164C93.2248 69.236 93.1173 69.272 92.9739 69.308C92.9739 69.308 93.0098 69.308 93.0098 69.272C93.1531 69.056 93.1173 68.772 92.9023 68.592C92.6872 68.448 92.4045 68.484 92.2253 68.7C91.9028 69.128 91.3692 69.524 90.7998 69.884C90.7281 69.92 90.6923 69.92 90.6206 69.956C90.5489 69.992 90.4773 70.064 90.4414 70.1C90.2622 70.208 90.0831 70.316 89.9437 70.388C89.657 70.568 89.3743 70.712 89.0876 70.888C88.6257 71.212 88.0881 71.496 87.5545 71.784C87.5187 71.784 87.4829 71.82 87.4829 71.82C87.0568 72.036 86.5909 72.248 86.1648 72.464C85.0937 72.964 84.0266 73.468 83.1346 74.112C82.2785 74.54 81.3507 75.296 80.5663 76.048C80.4946 76.084 80.4588 76.156 80.4229 76.192C80.0646 76.552 79.746 76.872 79.531 77.124C78.4957 78.52 77.0701 80.384 75.999 81.532C75.2146 82.356 73.9642 82.928 72.8613 83.36C72.5387 83.468 72.2918 83.612 72.0768 83.72C71.9693 83.756 71.8976 83.792 71.7901 83.828L71.6109 83.612C71.3601 83.36 71.1132 83.04 70.8623 82.752C70.3288 82.108 69.7554 81.464 69.5085 80.996C69.3651 80.78 69.0824 80.708 68.8674 80.852C68.6524 80.996 68.5807 81.28 68.724 81.496C69.0824 82.068 69.7235 82.856 70.3646 83.608C70.5796 83.86 70.7588 84.072 70.9698 84.288L71.149 84.504C71.1132 84.72 71.0415 84.864 70.8982 84.9C70.1854 85.08 69.2218 85.724 68.5807 86.26C68.294 86.404 68.0471 86.62 67.7963 86.832C67.5096 87.084 67.2985 87.228 67.1552 87.296H67.1193C66.976 87.368 66.9043 87.368 66.8326 87.296C66.7968 87.26 66.7968 87.224 66.761 87.224C66.5818 87.008 66.2274 86.508 66.084 86.256C65.9765 86.076 65.869 85.932 65.7257 85.756C65.5823 85.54 65.4031 85.36 65.2996 85.112C65.1921 84.896 65.0846 84.684 64.9771 84.432C64.8695 84.216 64.7979 84.036 64.6904 83.86C64.6545 83.788 64.6545 83.752 64.6545 83.752C64.6904 83.644 65.0129 83.5 65.2239 83.428C65.2598 83.428 65.2956 83.392 65.3314 83.392C65.439 83.356 65.5823 83.284 65.6898 83.248C65.8332 83.176 65.9407 83.14 65.9765 83.068C66.9043 82.568 67.3662 82.1 67.9754 81.456C68.298 81.132 68.4732 81.024 68.6165 80.956L68.6086 80.976ZM82.4816 64.924C83.1227 63.564 84.584 62.632 85.9419 61.808C85.7627 62.024 85.5835 62.236 85.3724 62.452C85.0499 62.848 84.7672 63.24 84.4447 63.6L84.0505 64.1C83.6921 64.496 83.4094 64.816 83.1227 65.14C83.0152 65.248 82.9076 65.392 82.8001 65.5C82.5851 65.716 82.4059 65.964 82.1949 66.18C82.2665 65.716 82.3382 65.284 82.4816 64.928V64.924ZM88.6177 58.296C88.6535 57.4 88.7252 56.184 89.1155 55.896C89.1513 55.896 89.2946 55.86 89.5773 55.824C89.7565 55.788 89.9357 55.788 90.2184 55.752C91.0387 55.644 91.9307 55.572 92.7151 55.608H93.4995C94.3915 55.608 95.602 55.644 96.2471 55.824C96.3546 56.076 96.3546 56.756 96.2829 57.832V57.976C96.1754 58.728 96.1754 59.336 96.1396 59.984C96.1396 60.164 96.1395 60.344 96.1037 60.556C95.7453 60.196 95.3193 59.84 94.8574 59.588C95.1441 59.732 95.4268 59.732 95.606 59.624C95.9285 59.444 96.1037 59.052 96.0002 58.656C95.821 57.868 94.7538 57.044 92.3607 57.044C90.756 57.152 89.7207 57.724 88.7929 58.404C88.6854 58.476 88.6137 58.548 88.5062 58.62C88.5779 58.476 88.6137 58.404 88.6137 58.296H88.6177ZM90.3299 48.264C90.4016 48.048 90.545 47.94 90.6525 47.94C90.76 47.94 90.8675 47.976 90.9033 48.084C90.9033 48.156 90.8675 48.444 90.8317 48.656L90.7958 48.8C90.76 49.052 90.9033 49.3 91.19 49.336C91.4409 49.372 91.6878 49.228 91.7236 48.94L91.7594 48.796C91.867 48.26 91.9386 47.9 91.7236 47.576C91.6519 47.468 91.5803 47.396 91.5086 47.324C91.5444 47.072 91.6519 46.716 91.867 46.392C92.0103 46.176 92.2612 45.964 92.508 45.748L92.8306 45.496C92.8664 45.46 92.9023 45.46 92.9023 45.424C92.7589 45.924 92.8306 46.464 93.0814 46.964C93.1531 47.108 93.3323 47.216 93.5075 47.216C93.5792 47.216 93.6509 47.18 93.7225 47.144C93.9376 47.036 94.0451 46.748 93.9017 46.5C93.6867 46.104 93.7225 45.676 93.9376 45.28C94.1167 44.992 94.4353 44.78 94.7937 44.708C95.1879 44.708 95.5781 44.708 95.9723 44.816C96.7209 45.032 97.5412 45.14 98.5407 45.176L98.9349 45.14C99.576 45.104 100.289 45.068 100.934 45.14C102.252 45.284 102.431 45.568 102.431 45.82C102.323 46.5 102.252 47.18 102.682 47.612C103.112 48.044 103.789 48.04 104.43 47.972C105.501 47.9 106.819 47.612 107.962 47.364L108.46 47.256C109.352 47.184 110.315 47.112 111.1 47.184C111.884 47.22 112.171 47.612 112.597 48.26C112.669 48.404 112.776 48.512 112.884 48.688C113.278 49.152 113.704 49.512 114.062 49.764C114.632 50.192 115.169 50.3 115.774 50.192C116.236 50.156 116.702 50.048 117.092 49.832C117.021 49.976 116.913 50.084 116.806 50.156C116.627 50.228 116.519 50.444 116.555 50.656C116.591 50.872 116.734 51.016 116.949 51.052C117.769 51.196 118.697 50.8 119.374 50.048C119.553 49.832 119.697 49.584 119.8 49.332C119.979 49.62 120.158 49.976 120.262 50.372C120.334 50.98 120.226 51.448 119.904 51.84C118.761 53.092 115.516 52.808 114.552 52.7C114.301 52.664 114.054 52.844 114.018 53.128C113.983 53.38 114.162 53.628 114.444 53.664C114.978 53.736 115.659 53.772 116.372 53.772C117.514 53.772 118.761 53.628 119.689 53.128C119.119 53.736 118.191 54.132 117.335 54.204C116.515 54.276 115.623 54.096 114.731 53.916C114.198 53.808 113.66 53.7 113.126 53.664C112.163 53.592 111.271 53.88 110.451 54.164C109.917 54.308 109.379 54.452 108.846 54.628C108.559 54.7 108.241 54.808 107.954 54.88C107.42 55.024 106.672 55.204 105.955 55.276C105.314 55.312 104.709 55.276 104.243 54.988C103.92 54.808 103.673 54.592 103.458 54.38C103.387 54.308 103.315 54.236 103.207 54.164C102.849 53.804 102.459 53.376 101.818 53.052C101.424 52.872 101.033 52.764 100.603 52.692C101.495 52.44 102.531 52.228 103.422 52.296C103.849 52.368 104.064 52.584 104.35 53.012C104.601 53.372 104.92 53.8 105.493 53.98C105.744 54.088 106.027 54.124 106.278 54.124C106.883 54.124 107.492 53.908 108.061 53.728L108.348 53.62C110.347 53.332 111.808 53.192 112.844 53.224C113.095 53.224 113.341 53.044 113.341 52.76C113.341 52.508 113.162 52.296 112.88 52.26C111.773 52.224 110.24 52.332 108.101 52.688L107.743 52.796C107.03 53.048 106.389 53.26 105.78 53.048C105.529 52.976 105.354 52.76 105.139 52.44C104.816 52.012 104.426 51.436 103.534 51.328C101.965 51.22 100.217 51.724 99.0742 52.188C98.6123 52.332 98.0748 52.476 97.577 52.652C97.5054 52.688 97.4695 52.688 97.3978 52.724C97.3262 52.724 97.2545 52.724 97.1828 52.76H97.147C96.8244 52.832 95.7573 53.12 94.9012 53.476C94.9012 53.332 94.937 53.188 94.937 53.08L94.9729 52.936C95.1162 52.864 95.2237 52.756 95.3312 52.648C95.5104 52.72 95.7254 52.756 95.9365 52.756C96.1475 52.756 96.3984 52.72 96.6134 52.648C96.7568 52.612 96.9001 52.576 97.0395 52.504C97.573 52.252 97.9314 51.824 98.0748 51.284C98.1823 50.676 97.8956 50.064 97.362 49.744C96.8643 49.42 96.255 49.456 95.7931 49.852C95.5781 49.996 95.5423 50.316 95.6856 50.532C95.829 50.748 96.1475 50.784 96.3625 50.64C96.5417 50.496 96.7209 50.496 96.8603 50.604C97.0395 50.712 97.147 50.964 97.147 51.14C97.0753 51.356 96.8961 51.568 96.6134 51.712C96.3625 51.82 96.0798 51.892 95.829 51.856C95.7931 51.712 95.7573 51.604 95.6139 51.532C95.3989 51.388 95.1162 51.46 94.9729 51.676C94.7937 51.964 94.5786 52.14 94.3318 52.284C93.7982 52.608 93.1889 52.572 92.6912 52.428C92.4404 52.32 92.1935 52.176 91.9785 52C91.5524 51.604 91.2299 51.068 91.3015 50.352V50.28C91.3015 50.172 91.3374 50.064 91.3374 49.956C91.3374 49.74 91.2298 49.528 91.0148 49.456C90.6206 49.24 90.1945 48.704 90.3379 48.24L90.3299 48.264ZM98.461 67.684C98.3893 67.648 98.2102 67.432 98.2102 66.968C98.1743 66.468 98.2102 65.928 98.246 65.356C98.3535 65.928 98.461 66.504 98.4968 67.04C98.4968 67.468 98.4252 67.684 98.461 67.684ZM97.2465 61.38C97.2465 61.38 97.3182 61.452 97.3899 61.74C97.4257 61.812 97.4257 61.884 97.4615 61.956C97.4615 62.6 97.4257 63.28 97.354 64.068C97.3182 64.464 97.3182 64.856 97.2824 65.252C97.2465 65.896 97.2107 66.504 97.2465 67.08C97.2824 67.796 97.5691 68.368 98.031 68.584C98.1743 68.656 98.3177 68.692 98.4252 68.692C98.6044 68.692 98.7477 68.656 98.8871 68.548C99.1021 68.404 99.4565 68.012 99.3848 67.044C99.3131 66.148 99.0981 65.108 98.8871 64.212H99.1738C99.4246 64.212 99.6357 63.996 99.6357 63.748C99.6357 63.5 99.4207 63.284 99.1738 63.284C98.9269 63.284 98.7796 63.284 98.6402 63.248C98.5685 62.96 98.4969 62.748 98.461 62.604C98.6402 62.64 98.7835 62.64 98.9229 62.64C99.0623 62.64 99.2455 62.676 99.3171 62.676C99.568 63.072 99.6397 63.608 99.7113 64.18C99.783 64.576 99.8188 64.968 99.9264 65.364C100.106 65.936 100.388 66.44 100.675 66.904C100.89 67.228 101.101 67.584 101.28 68.016C101.352 68.16 101.424 68.304 101.495 68.444C101.101 68.588 100.675 68.696 100.249 68.84C99.1419 69.2 97.9314 69.592 96.8244 69.916C96.6453 69.952 96.5019 69.988 96.3267 70.024C96.3267 69.736 96.3625 69.452 96.3625 69.164C96.3984 68.412 96.3984 67.66 96.4701 67.052V66.872C96.5417 65.796 96.6492 64.76 96.7568 63.72C96.7926 63.468 96.7926 63.184 96.8284 62.896C96.9359 62.896 97.0434 62.896 97.151 62.824C97.366 62.68 97.4377 62.396 97.2943 62.18C97.1868 62 97.0793 61.856 96.9718 61.68C96.9718 61.608 96.9718 61.5 97.0076 61.428C97.1151 61.356 97.2226 61.356 97.2585 61.392L97.2465 61.38ZM96.2471 76.464C95.8529 76.212 95.5701 75.892 95.391 75.496V75.46C95.3551 75.388 95.3193 75.352 95.2834 75.28C95.2476 75.136 95.2118 74.992 95.1759 74.816C95.4626 74.388 95.6737 73.884 95.8529 73.384C95.9604 73.456 96.032 73.492 96.1396 73.528C96.1754 73.528 96.1754 73.564 96.2112 73.564C96.2112 73.564 96.2471 73.564 96.2471 73.6V73.816C96.2471 74.784 97.0673 75.284 97.8518 75.284H97.8876C98.6362 75.284 99.4207 74.784 99.4207 73.816C99.4207 72.848 98.6721 72.348 97.8876 72.348H97.8518C97.4576 72.348 97.0315 72.492 96.7448 72.744C96.709 72.744 96.6731 72.708 96.6373 72.708C96.6015 72.708 96.6015 72.672 96.5656 72.672C96.4939 72.636 96.4581 72.6 96.3864 72.6C96.2789 72.528 96.2072 72.492 96.0997 72.42C96.1356 72.276 96.1714 72.096 96.1714 71.956C96.2073 71.632 96.2431 71.276 96.2789 70.952C96.4223 70.916 96.5656 70.88 96.705 70.844H96.7408C96.8125 70.808 96.8842 70.808 96.9558 70.808H97.0275C97.7045 70.628 98.3814 70.412 99.0981 70.2C99.5959 70.02 100.133 69.876 100.595 69.7C101.093 69.556 101.559 69.376 101.985 69.236C102.554 70.42 103.092 71.672 103.339 72.964C103.482 73.5 103.59 73.968 103.554 74.324C103.518 74.968 103.231 75.436 102.411 75.9C101.842 76.328 101.021 76.652 100.129 76.832C99.2733 77.156 98.3097 77.26 97.812 77.12C97.3501 77.012 96.8483 76.832 96.4223 76.584C96.3864 76.548 96.3148 76.512 96.2431 76.476L96.2471 76.464ZM94.8574 78.112C95.1799 78.4 95.3551 78.576 95.391 78.864C95.3551 78.936 95.3193 78.972 95.3193 78.972C95.3193 78.972 95.2476 79.008 95.2118 79.008C95.0326 79.044 94.7857 79.116 94.4273 79.296C94.284 79.368 94.1048 79.44 93.9296 79.548C93.6787 79.692 93.396 79.8 93.0735 79.976C92.4324 80.336 91.7913 80.692 91.1104 81.052C90.4693 81.412 89.8282 81.732 89.2548 82.092C88.2554 82.556 86.5073 83.344 85.5437 83.776C85.472 83.812 85.4003 83.848 85.3645 83.848C84.58 83.812 84.5084 83.42 84.3292 82.272L84.2934 82.056C84.2575 81.804 84.2217 81.556 84.1142 81.232C84.2575 81.124 84.4367 81.016 84.5761 80.908H84.6119C84.7194 80.836 84.7911 80.8 84.8986 80.728C86.0056 80.012 87.1444 79.26 88.3589 78.72C88.8566 78.432 89.3225 78.148 89.8202 77.896C90.4613 77.536 91.0666 77.216 91.7117 76.928C92.4244 76.568 93.1013 76.284 93.7464 76.032C93.8181 76.356 93.8898 76.64 93.9973 76.892C94.1765 77.464 94.5309 77.824 94.8534 78.112H94.8574ZM104.808 92.192C104.88 92.872 104.952 93.304 105.342 94.2C105.875 95.776 106.377 97.136 106.839 98.248C107.444 100.54 108.193 103.516 108.623 106.56V106.668C108.73 108.244 108.91 110.644 109.515 112.544C109.837 113.584 110.335 113.94 110.761 113.94C110.833 113.94 110.869 113.94 110.94 113.904C111.191 113.832 111.796 113.508 111.438 112.004C111.223 110.428 110.618 108.636 109.654 106.592C109.762 106.196 109.941 105.768 110.116 105.34C110.259 105.016 110.403 104.732 110.578 104.408C110.686 104.228 110.757 104.084 110.829 103.908C110.936 103.692 111.008 103.48 111.151 103.264C111.259 103.084 111.438 102.94 111.577 102.764C111.721 102.62 111.864 102.44 112.004 102.3C112.147 102.12 112.254 101.94 112.362 101.764C112.469 101.588 112.577 101.404 112.72 101.228C112.864 101.052 113.043 100.904 113.182 100.764C113.326 100.62 113.505 100.476 113.644 100.3C114.142 99.656 114.715 99.08 115.249 98.544L115.392 98.4C116.499 97.216 117.212 96.18 117.745 95.176C118.243 94.568 118.673 93.924 119.135 93.132C119.135 93.168 119.171 93.168 119.171 93.204C119.243 93.312 119.386 93.42 119.529 93.564C119.601 93.636 119.673 93.708 119.78 93.78L120.103 93.996C121.281 94.748 122.994 95.896 124.132 96.54C124.025 96.756 123.81 97.148 123.671 97.364C123.491 97.652 123.348 97.9 123.209 98.152C122.886 98.796 122.281 99.98 121.855 100.768C121.321 101.844 121.035 102.812 120.712 103.848C120.604 104.244 120.461 104.6 120.354 104.96C119.995 105.676 119.569 106.608 119.175 107.54C118.888 108.148 118.606 108.76 118.319 109.368C117.714 110.692 117.104 112.056 116.356 113.344C116.033 113.916 115.715 114.456 115.356 114.992C114.715 116.14 113.931 116.748 112.788 117.608C112.111 118.072 110.861 118.896 109.897 118.792H109.718C107.862 118.22 106.15 116.644 104.76 115.208C104.438 114.812 104.227 114.456 104.012 114.096C103.797 113.772 103.586 113.416 103.299 112.984C102.55 111.944 101.802 110.872 101.089 109.796C100.52 108.972 99.9104 108.112 99.341 107.288C98.8433 106.572 98.3416 105.784 97.8438 104.996C97.7363 104.816 97.593 104.636 97.4854 104.46C97.4496 104.352 97.4138 104.244 97.3063 104.172C96.7727 103.276 96.271 102.38 95.8449 101.448C95.4507 100.552 95.0605 99.584 94.7021 98.652C94.3795 97.864 94.0968 97.112 93.7743 96.396C93.6309 95.932 93.4518 95.428 93.3124 94.928C93.0257 94.068 92.7788 93.172 92.528 92.456C92.528 92.42 92.4921 92.384 92.4921 92.348C92.1696 91.848 91.5643 91.452 90.9232 90.988C90.5649 90.772 90.2463 90.524 89.9955 90.308C89.426 89.772 88.6416 88.948 87.9607 88.052C87.8173 87.836 87.4988 87.8 87.2838 87.944C87.0687 88.088 87.0329 88.408 87.1763 88.624C87.889 89.556 88.7093 90.416 89.3145 91.024C89.4221 91.096 89.5296 91.204 89.6371 91.276C89.1752 91.06 88.7093 90.812 88.3549 90.596C88.1399 90.452 87.8572 90.524 87.7138 90.74C87.5705 90.956 87.6421 91.24 87.8572 91.384C89.1393 92.208 90.9949 92.852 91.7435 93.068C91.9585 93.712 92.2054 94.464 92.4204 95.18C92.5638 95.68 92.743 96.184 92.9182 96.72C93.169 97.292 93.4159 97.904 93.6309 98.512C92.4881 99.732 91.2418 101.308 90.099 102.92C89.9556 103.136 89.8123 103.316 89.6729 103.528C89.2787 104.1 88.6735 104.96 88.2474 105.784L88.0682 106.108C87.7098 106.68 87.4988 107.04 87.6421 107.468C87.7138 107.612 87.8213 107.684 87.9647 107.756C88.0364 107.792 88.108 107.828 88.2155 107.828C89.2867 107.828 91.4966 104.712 91.5325 104.676C91.6758 104.46 91.6041 104.176 91.3891 104.032C91.1741 103.888 90.8914 103.96 90.748 104.176C90.533 104.536 89.8561 105.36 89.2508 106.004C89.645 105.324 90.1428 104.608 90.4972 104.104C91.64 102.456 92.9222 100.844 94.1008 99.552C94.4233 100.34 94.7061 101.128 95.0644 101.88C95.5263 102.848 96.0281 103.78 96.5975 104.712C96.3108 106.324 95.8489 107.792 95.3511 109.368C95.1719 109.904 94.9928 110.48 94.8534 111.016C94.4273 112.2 93.8898 113.884 93.6748 115.532C93.6031 115.96 93.5672 116.428 93.5672 116.856C93.4597 117.788 93.4956 118.252 93.6031 118.576C93.7106 118.864 93.8898 119.148 94.065 119.472C94.4233 120.08 94.8136 120.724 94.6344 121.264L94.5627 121.552C94.4194 122.268 94.2402 123.02 94.276 123.844C94.3119 124.74 94.5269 125.564 94.7738 126.46C94.8813 126.924 95.0246 127.392 95.1321 127.856C95.168 128.036 95.2396 128.252 95.2755 128.464C95.3472 128.716 95.4188 128.964 95.4547 129.144C95.4905 130.076 95.598 131.044 95.6697 131.904L95.6339 132.264C95.598 133.052 95.5622 133.876 95.4905 134.628C95.3472 135.38 95.1321 136.24 94.8494 137.244C94.5627 138.64 94.0291 140.076 93.4956 141.508C93.2447 142.224 92.962 142.94 92.747 143.656C92.4244 145.016 92.1417 146.916 91.8908 148.42L91.7475 149.46H91.64C91.3891 149.424 91.0706 149.424 90.7122 149.424C90.4613 149.424 90.1786 149.46 89.8919 149.496C89.6769 149.532 89.43 149.568 89.215 149.568C88.3231 149.568 87.2161 149.532 86.1848 149.532C85.6153 149.532 85.0778 149.496 84.58 149.496H84.2217C84.5442 148.312 84.6836 146.952 84.7911 145.804L84.8269 145.516C85.0419 144.192 85.0778 143.868 85.1495 142.508C85.1853 141.72 85.257 140.896 85.2928 140.072C85.3645 138.96 85.4362 137.816 85.5078 136.74C85.5437 136.312 85.5795 135.844 85.6512 135.416C85.7587 134.412 85.8662 133.336 85.8662 132.408C85.902 131.764 85.902 131.188 85.902 130.652C85.902 129.792 85.902 129.004 86.0096 128V126.064C86.0812 126.208 86.2246 126.316 86.3679 126.316H86.4396C86.6905 126.316 86.9015 126.1 86.9015 125.852C86.9015 125.672 86.8298 125.528 86.6506 125.172C86.579 125.028 86.5073 124.884 86.4356 124.708C86.3998 124.6 86.3281 124.492 86.2923 124.384C86.2206 124.204 86.1848 123.988 86.1131 123.776C86.0772 123.704 86.0772 123.596 86.0414 123.524C86.0414 123.452 86.0056 123.38 85.9697 123.308C85.9339 123.2 85.9339 123.128 85.8981 123.02C85.8264 122.804 85.7189 122.624 85.6472 122.412C85.5397 122.196 85.4322 121.984 85.3963 121.804C85.253 121.124 85.253 120.336 85.2171 119.548L85.1813 118.976C85.2171 118.476 85.253 117.936 85.2888 117.436C85.3247 116.936 85.3963 116.468 85.3963 116.004C85.3605 115.036 85.1455 113.496 84.9703 112.276L84.9344 112.024C84.8986 111.272 84.8628 110.52 84.8269 109.732C84.7194 108.3 84.6477 106.796 84.6836 105.36C84.6836 105.144 84.6477 104.932 84.6477 104.68C84.6119 104.464 84.6119 104.252 84.6119 104.036C84.6119 103.82 84.6477 103.608 84.6836 103.392C84.7194 103.176 84.7552 102.928 84.7911 102.712C84.8628 101.996 84.8986 101.244 84.9344 100.528L84.9703 99.956C85.1136 99.24 85.257 98.524 85.3645 97.808C85.5795 96.696 85.7587 95.516 86.0414 94.44L86.1489 94.08C86.4715 93.004 86.7542 92.072 86.79 91.572C86.79 90.712 86.2923 90.14 85.8622 89.672C85.5755 89.348 85.3286 89.064 85.1853 88.668C85.0419 88.38 85.5437 87.952 86.1131 87.52C86.3998 87.304 86.6467 87.124 86.7542 86.912C86.79 86.876 86.79 86.84 86.8259 86.804C87.005 86.232 86.6825 85.552 86.3639 84.904C86.3281 84.832 86.2923 84.76 86.2564 84.688C86.3639 84.652 86.4356 84.616 86.5431 84.544C86.6148 84.508 86.7223 84.472 86.8298 84.436C86.8657 84.4 86.9015 84.4 86.9373 84.364H86.9732C87.1882 84.256 87.3674 84.184 87.5784 84.076C88.1837 83.788 88.8248 83.504 89.3623 83.252C89.3982 83.252 89.434 83.216 89.434 83.216C89.5773 83.144 89.6849 83.108 89.7924 83.036C90.3976 82.676 91.0387 82.356 91.6479 81.996C91.863 81.888 92.0422 81.78 92.2532 81.672C92.3249 81.636 92.3607 81.6 92.4324 81.564C92.6833 81.42 92.9301 81.276 93.181 81.136C93.3243 81.064 93.5035 80.956 93.6429 80.884C93.7146 80.848 93.7504 80.812 93.8221 80.812C93.8221 80.848 93.8579 80.884 93.8579 80.92C93.8579 80.92 93.8579 80.956 93.8938 80.956C93.8938 80.956 93.8938 80.992 93.9296 80.992C93.7146 81.208 93.4677 81.42 93.2527 81.636C92.9301 81.96 92.6116 82.244 92.2532 82.568C92.0023 82.856 91.2896 83.68 91.8271 84.252C91.9705 84.432 92.1855 84.504 92.3607 84.504C92.7549 84.504 93.181 84.252 93.4677 84.076C93.6469 83.968 93.7544 83.896 93.8619 83.86C93.9694 83.788 94.1128 83.752 94.2561 83.644C94.3278 83.572 94.4353 83.5 94.5786 83.428C94.7578 83.284 94.7937 83.068 94.6861 82.856C94.6861 82.82 94.6503 82.784 94.6145 82.748C94.4353 82.532 94.1526 82.532 93.9376 82.676C93.6867 82.892 93.5792 82.928 93.4398 83C93.3323 83.072 93.189 83.144 92.9779 83.252C92.9421 83.288 92.9062 83.288 92.8704 83.324C92.9062 83.288 92.9062 83.252 92.9421 83.252C93.2646 82.964 93.5832 82.644 93.9057 82.32C94.0849 82.176 94.2282 81.996 94.4034 81.856C94.5468 82.144 94.6901 82.464 94.726 82.752V82.788C94.7618 83.148 94.7618 83.576 94.726 84.04C94.6901 84.864 94.6543 85.796 94.941 86.476C95.0127 86.692 95.0843 86.904 95.1919 87.084C95.7613 88.052 96.9399 88.372 97.9035 88.552C97.6168 88.732 97.3341 88.912 97.0474 89.052C96.6532 89.304 96.2272 89.552 95.8011 89.84C94.8733 90.304 93.9814 90.844 93.4119 91.416C93.2327 91.596 93.1969 91.88 93.3761 92.096C93.4836 92.204 93.5911 92.24 93.7345 92.24C93.842 92.24 93.9853 92.204 94.057 92.096C94.5547 91.632 95.3392 91.128 96.2311 90.7C96.693 90.412 97.1231 90.164 97.5492 89.876C97.8717 89.66 98.1902 89.48 98.5128 89.268C98.7278 89.16 98.7995 88.872 98.692 88.66C98.7636 88.66 98.8353 88.696 98.907 88.732C99.0145 88.768 99.1937 88.804 99.3331 88.804C99.5839 88.804 99.8308 88.696 100.117 88.376C100.153 88.34 100.153 88.268 100.189 88.232C100.225 88.124 100.225 88.052 100.225 87.944C100.117 87.62 100.01 87.336 99.8666 87.048C99.795 86.904 99.7591 86.796 99.7233 86.688C99.4007 85.648 99.0105 84.788 98.4769 84.144C97.9434 83.356 97.2306 82.892 96.5139 82.46C96.0878 82.172 95.6936 81.924 95.3352 81.6L95.2994 81.564L95.2635 81.528C95.1919 81.384 95.1202 81.276 95.0485 81.132C95.2635 80.952 95.4427 80.772 95.6538 80.596C95.7613 80.488 95.8329 80.344 95.8329 80.236C95.8329 80.128 95.7971 80.02 95.7254 79.948L95.6896 79.912C95.7971 79.876 95.9405 79.804 96.048 79.696C96.1555 79.768 96.263 79.84 96.4063 79.912H96.4422C96.8682 80.164 97.3341 80.412 97.796 80.664C98.3296 80.952 98.8672 81.236 99.3649 81.524C100.579 82.312 101.539 83.244 102.256 84.248C102.754 84.964 103.076 85.896 103.291 86.612C103.968 88.116 104.398 89.836 104.788 91.556C104.752 91.736 104.788 91.988 104.824 92.2L104.808 92.192ZM109.802 109.64C110.124 110.572 110.335 111.468 110.443 112.256C110.478 112.472 110.514 112.616 110.514 112.756C110.443 112.648 110.407 112.504 110.335 112.328C110.12 111.504 109.941 110.572 109.802 109.64ZM120.859 90.796C120.788 90.724 120.788 90.616 120.823 90.544C120.967 90.328 121.003 90.184 121.038 90.08V90.544C121.003 90.616 120.931 90.724 120.895 90.832L120.859 90.796ZM126.422 80.98L126.848 81.052C126.207 81.232 125.566 81.412 125.064 81.376C124.849 81.304 124.67 81.124 124.459 80.804C125.028 80.804 125.673 80.876 126.422 80.984V80.98ZM123.356 80.728C123.818 81.552 124.176 82.088 124.925 82.268H125.212C125.924 82.268 126.637 82.052 127.35 81.872C127.883 81.728 128.457 81.548 128.99 81.512C129.205 81.584 129.416 81.62 129.667 81.692C129.811 81.728 129.918 81.8 130.062 81.872C130.312 81.98 130.559 82.124 130.882 82.232C131.308 82.376 131.81 82.52 132.271 82.732C132.63 82.912 132.984 83.056 133.343 83.196C133.199 83.16 133.056 83.124 132.917 83.088C131.81 82.764 130.527 82.624 128.923 82.624L128.389 82.588C127.641 82.552 126.82 82.516 126.251 82.444C125.108 82.516 123.826 82.624 122.719 82.804C122.719 82.696 122.683 82.624 122.683 82.516C122.647 82.372 122.647 82.264 122.647 82.052C122.647 81.624 122.647 81.12 122.611 80.832C122.755 80.76 123.006 80.724 123.36 80.724L123.356 80.728ZM139.085 85.708C139.407 85.96 139.726 86.352 140.012 86.712L140.12 86.856L140.156 86.892C139.515 86.496 138.874 85.852 138.228 85.208C138.551 85.388 138.834 85.568 139.085 85.708ZM140.156 88.576C139.869 88.792 139.694 88.864 139.443 88.864C139.407 88.828 139.371 88.792 139.335 88.756C138.802 88.468 138.336 88.112 138.264 88.04C138.121 87.468 137.229 85.784 136.731 85.172C136.624 85.028 136.516 84.92 136.409 84.812C136.516 84.884 136.588 84.956 136.695 85.028L136.91 85.244C137.767 86.14 138.73 87.18 139.73 87.788C140.088 88.004 140.371 88.076 140.586 88.076C140.586 88.22 140.442 88.4 140.16 88.576H140.156ZM126.319 94.452C126.39 94.272 126.354 94.056 126.211 93.916C125.996 93.736 125.785 93.556 125.606 93.38C125.427 93.204 125.247 93.056 125.072 92.916C124.857 92.772 124.714 92.628 124.574 92.488C124.148 92.092 124.041 91.736 124.18 91.092V90.84C124.18 90.84 124.216 90.876 124.252 90.876C124.785 91.34 125.57 91.448 126.251 91.056C126.609 90.876 126.713 90.84 126.928 90.768C127.071 90.732 127.214 90.66 127.425 90.552C127.676 90.444 127.784 90.408 127.887 90.408C128.031 90.552 128.21 90.732 128.421 90.836C128.457 90.872 128.528 90.908 128.564 90.908C128.708 91.16 128.887 91.408 129.062 91.624C128.955 91.66 128.883 91.696 128.811 91.732C128.525 91.84 128.313 91.912 127.991 92.34C127.704 92.7 127.633 92.948 127.597 93.2C127.561 93.272 127.561 93.38 127.525 93.488C127.418 93.74 126.705 94.42 126.526 94.492C126.418 94.528 126.382 94.492 126.311 94.456L126.319 94.452ZM129.528 89.936C129.564 90.08 129.635 90.188 129.671 90.332C129.528 90.296 129.349 90.224 129.209 90.188C129.174 90.152 129.174 90.116 129.174 90.08C129.245 90.044 129.317 90.044 129.389 90.008C129.46 89.972 129.496 89.936 129.532 89.936H129.528ZM130.062 88.684C130.062 88.648 130.026 88.612 130.026 88.576C130.097 88.648 130.205 88.756 130.277 88.828C130.205 88.792 130.133 88.756 130.062 88.684ZM130.953 90.548C130.882 90.44 130.774 90.332 130.667 90.152C130.667 90.116 130.631 90.08 130.631 90.08C130.846 90.188 131.057 90.26 131.272 90.368C131.2 90.44 131.057 90.512 130.949 90.548H130.953ZM133.948 88.864C133.805 88.828 133.343 88.54 132.307 87.108C132.164 86.892 131.845 86.856 131.63 87C131.415 87.144 131.38 87.464 131.523 87.68C131.774 88.04 131.985 88.324 132.2 88.54C132.487 88.864 132.698 89.112 132.913 89.328C132.733 89.292 132.415 89.184 132.092 89.004C131.949 88.86 131.841 88.752 131.734 88.644C130.488 87.424 130.237 87.284 129.878 87.532C129.807 87.568 129.699 87.676 129.663 87.892C129.556 87.784 129.448 87.748 129.269 87.784C128.982 87.82 128.843 88.036 128.843 88.428C128.843 88.68 128.951 88.928 129.094 89.108C129.07 89.108 129.046 89.12 129.022 89.144C128.915 89.18 128.807 89.216 128.736 89.252C128.485 88.68 128.274 88.392 127.879 88.464C127.453 88.536 127.382 89.036 127.382 89.216C127.382 89.324 127.382 89.468 127.418 89.576C127.31 89.612 127.202 89.648 127.023 89.72C126.808 89.828 126.665 89.864 126.526 89.936C126.311 90.008 126.167 90.08 125.741 90.296C125.383 90.512 124.957 90.404 124.742 90.08C124.598 89.9 124.491 89.72 124.383 89.58C123.778 88.756 123.491 88.468 123.276 88.36C122.707 88.108 121.994 88.396 121.457 89.112C121.636 88.504 121.707 87.824 121.779 87.176C122.138 86.748 122.599 86.352 123.061 85.956C123.456 85.632 123.81 85.312 124.132 84.988C124.455 84.592 124.594 84.38 124.774 84.092C124.881 83.948 124.989 83.768 125.132 83.556C125.239 83.556 125.311 83.556 125.419 83.52C125.705 83.844 126.024 84.236 126.418 84.668C127.167 85.528 127.987 86.496 128.345 86.996C128.381 87.032 128.381 87.068 128.417 87.104C128.489 87.176 128.668 87.284 128.879 87.284C128.951 87.284 129.022 87.284 129.13 87.248C129.556 87.14 130.058 86.712 130.201 86.316C130.201 86.28 130.237 86.208 130.237 86.172V86.028C130.237 85.776 130.165 85.492 130.058 85.168C129.986 84.952 129.878 84.704 129.771 84.416C129.663 84.164 129.556 83.916 129.448 83.664H129.52C130.766 83.7 131.766 83.844 132.658 84.092C133.191 84.2 133.693 84.344 134.119 84.52C134.868 84.808 135.473 85.2 135.975 85.88C136.472 86.452 137.257 88.028 137.329 88.352C136.97 88.028 136.472 87.564 135.795 86.848C135.616 86.668 135.334 86.488 134.868 86.348C134.545 86.24 134.119 86.132 133.55 86.024C133.191 85.952 132.837 86.132 132.658 86.452C132.479 86.812 132.586 87.204 132.873 87.456C133.267 87.744 133.693 88.208 134.087 88.676C134.123 88.712 134.159 88.748 134.195 88.784C134.195 88.784 134.087 88.82 133.944 88.856L133.948 88.864ZM129.026 86.212C128.811 85.924 128.528 85.604 128.206 85.208C127.883 84.812 127.493 84.384 127.135 83.988C126.956 83.808 126.812 83.628 126.673 83.452H126.709C127.206 83.488 127.816 83.524 128.349 83.56H128.421L128.457 83.668C128.708 84.204 129.241 85.46 129.277 85.96C129.241 86.068 129.134 86.176 129.026 86.212ZM135.66 88.756H135.624C135.373 88.504 135.127 88.256 134.876 87.968C134.553 87.608 134.235 87.252 133.912 86.964C134.876 87.18 135.091 87.36 135.158 87.392C135.23 87.464 135.302 87.536 135.338 87.608C135.764 88.072 136.158 88.468 136.516 88.756H135.66ZM121.962 85.172V84.92C121.998 84.668 122.07 84.56 122.177 84.348C122.249 84.204 122.357 84.024 122.464 83.812C122.89 83.74 123.392 83.668 123.89 83.596C123.746 83.812 123.603 83.992 123.392 84.276C123.141 84.528 122.822 84.848 122.428 85.136C122.249 85.28 122.07 85.424 121.895 85.6C121.966 85.456 121.966 85.312 121.966 85.172H121.962ZM121.926 90.868C121.998 90.544 121.998 90.332 121.998 90.188C121.998 90.044 121.998 89.972 122.106 89.792C122.428 89.256 122.783 89.112 122.854 89.148C122.926 89.22 123.141 89.472 123.46 89.864C123.316 90.292 123.28 90.4 123.244 90.796V90.94C122.958 92.336 123.603 92.984 124.491 93.628C124.634 93.736 124.778 93.88 124.953 94.024C124.917 94.06 124.845 94.096 124.845 94.168C124.487 94.528 124.168 94.884 123.917 95.28C123.631 95.1 123.312 94.884 122.954 94.672C122.169 94.172 121.313 93.632 120.672 93.204C120.708 93.132 120.78 93.06 120.816 92.988C121.174 92.344 121.6 91.556 121.922 90.876L121.926 90.868ZM89.2548 151.596C89.004 152.42 88.7571 153.208 88.4704 153.888C88.2554 154.676 88.2195 155.176 88.1478 155.68C88.112 156.144 88.0762 156.54 87.897 157.22C87.8253 157.508 87.7895 157.58 87.682 157.72C87.6103 157.828 87.5028 157.936 87.3953 158.116C87.2519 158.332 87.0011 158.76 86.8975 158.796C86.6825 158.832 86.1131 158.544 85.1495 157.9L84.9703 157.792C84.8628 157.756 84.7552 157.648 84.6477 157.612C84.5044 157.54 84.3969 157.468 84.2535 157.36V157.144C84.361 155.388 84.3252 154.348 83.8593 153.92L83.8235 153.884C83.7518 153.812 83.6801 153.74 83.6085 153.704C83.6443 153.632 83.6801 153.524 83.716 153.416L83.7876 153.128C83.8952 152.732 84.0385 152.16 84.146 151.552C84.2177 151.124 84.2894 150.692 84.361 150.332C84.8588 150.332 85.3963 150.368 85.9658 150.368C86.8935 150.404 87.8572 150.44 88.6774 150.44H89.0716C89.2508 150.44 89.3942 150.404 89.5694 150.404C89.4977 150.8 89.3902 151.192 89.2469 151.588L89.2548 151.596ZM70.0301 161.164C70.1735 161.128 70.6354 161.452 70.8862 161.628C71.1729 161.808 71.4198 161.988 71.6348 162.056C72.0609 162.272 74.0598 162.844 74.9159 162.844C74.9876 162.844 75.0951 162.844 75.1309 162.808C75.5928 162.7 75.7362 162.448 75.7362 162.272C75.8079 161.772 75.342 161.52 74.5934 161.088C74.45 161.016 74.3067 160.908 74.1673 160.836C74.0598 160.764 73.9881 160.728 73.9165 160.656C75.2703 160.872 76.1981 161.228 76.6282 161.768C76.7357 161.876 76.8432 161.948 76.9865 161.948C77.094 161.948 77.2015 161.912 77.2732 161.84C77.4882 161.66 77.4883 161.376 77.3449 161.16C77.3091 161.124 77.2374 161.088 77.2015 161.052C77.2732 161.088 77.3091 161.088 77.3807 161.088H77.4166C77.6316 161.088 77.8426 160.98 77.986 160.764C78.201 160.476 78.2368 160.264 78.201 160.048C78.5594 160.156 78.6629 159.976 78.7346 159.904C78.7704 159.832 78.9496 159.58 78.6987 159.26C78.7346 159.224 78.7704 159.224 78.8063 159.188C79.1288 159.584 79.3757 159.868 79.7341 159.652C79.9132 159.58 80.0924 159.364 79.9491 158.936C79.9132 158.756 79.8416 158.648 79.8057 158.54C79.9491 158.432 80.0924 158.36 80.2318 158.252C80.2676 158.288 80.3035 158.288 80.3035 158.324C80.5185 158.468 81.2313 158.932 81.5856 158.432C81.8007 158.144 81.6932 157.788 81.4781 157.428C81.4423 157.392 81.4423 157.356 81.4065 157.32C81.6215 157.176 81.8325 157.14 82.0117 157.176C82.0834 157.176 82.1551 157.176 82.2267 157.248C82.7603 157.644 83.7598 158.324 84.365 158.644L84.5084 158.716C85.5078 159.396 86.3639 159.936 87.0767 159.756C87.5028 159.612 87.7895 159.112 88.0762 158.68C88.1837 158.536 88.2554 158.428 88.327 158.356C88.5062 158.14 88.6137 157.96 88.7212 157.496C88.8288 157.1 88.9004 156.744 88.9363 156.456C89.223 156.492 89.5415 156.6 89.649 156.78C89.6849 156.816 89.7207 156.888 89.649 157.032C89.5774 157.14 89.5774 157.212 89.5415 157.284C89.5057 157.32 89.5057 157.392 89.4698 157.5C89.219 158.072 89.3623 158.576 89.5415 159.04C88.2593 160.472 87.1882 161.512 86.2604 162.156C85.3685 162.3 84.6557 162.444 83.7996 162.656C83.7279 162.656 83.6562 162.692 83.5846 162.692C83.4771 162.62 83.4054 162.512 83.3337 162.44C83.262 162.368 83.1904 162.26 83.047 162.152C82.9395 162.044 82.832 161.936 82.6209 161.828L82.2984 161.576L82.2267 161.504C81.6573 161.108 81.1198 160.752 80.6937 160.464C80.3712 160.248 80.0884 160.104 79.9092 160.036C79.515 159.892 78.9456 159.892 78.4479 160.5C78.4121 160.572 78.3762 160.644 78.3404 160.716C78.2329 161.36 78.8023 162.292 79.8017 163.584C78.9098 163.764 78.0178 163.944 77.1617 164.012C75.6645 164.372 74.5217 164.084 73.1679 163.512C72.706 163.296 71.7782 162.832 71.1689 162.544C70.8822 162.4 70.6712 162.292 70.6354 162.256C70.5279 162.148 70.1735 161.684 69.9943 161.468C69.8868 161.324 69.8151 161.216 69.7434 161.144C69.9584 161.144 69.9943 161.144 70.0301 161.144V161.164ZM82.7284 154.176C82.7284 154.212 82.7643 154.212 82.7284 154.176C82.8718 154.284 83.051 154.428 83.262 154.604C83.4054 154.784 83.4412 155.5 83.3695 156.716C83.1904 156.572 83.0112 156.464 82.8718 156.392C82.159 155.964 81.518 156.176 80.9445 156.536C80.8729 156.464 80.8012 156.428 80.7654 156.356C80.6579 156.248 80.5145 156.176 80.407 156.068L80.4428 156.032C80.5862 155.852 80.7654 155.636 80.9406 155.388C81.3348 154.888 81.8684 154.168 82.1192 154.028C82.2267 153.956 82.3342 153.956 82.4417 153.992C82.5134 154.028 82.5851 154.1 82.7284 154.172V154.176ZM76.8073 160.66C76.7715 160.624 76.7357 160.624 76.6998 160.588L76.7357 160.552C76.7715 160.588 76.8073 160.624 76.8073 160.66ZM79.4832 157.688C79.3757 157.76 79.304 157.832 79.1965 157.904L79.1607 157.94C79.1248 157.94 79.1248 157.904 79.089 157.904C79.0531 157.904 79.0173 157.868 78.9815 157.868C78.9098 157.796 78.8381 157.724 78.7664 157.652C78.8381 157.58 78.9098 157.508 79.0173 157.436C79.1248 157.508 79.304 157.58 79.4792 157.688H79.4832ZM78.0577 158.476C78.0935 158.512 78.1293 158.512 78.1652 158.548C78.0577 158.62 77.9501 158.692 77.8785 158.728C77.8426 158.728 77.8068 158.692 77.7351 158.692C77.6993 158.656 77.6635 158.62 77.5918 158.584C77.6635 158.512 77.771 158.44 77.8426 158.368C77.9143 158.404 77.986 158.44 78.0577 158.476ZM75.9871 159.836C76.0229 159.836 76.0229 159.872 76.0587 159.872C75.9871 159.908 75.9154 159.98 75.8437 160.016C75.8079 160.052 75.772 160.088 75.7362 160.124C75.7004 160.124 75.6645 160.088 75.6287 160.088C75.7362 160.016 75.8796 159.944 75.9871 159.836ZM72.6343 160.912C72.706 160.948 72.8493 161.056 72.9927 161.164C73.1718 161.308 73.4187 161.488 73.7054 161.664C73.7413 161.664 73.7771 161.7 73.7771 161.7C73.0643 161.556 72.2799 161.304 71.9574 161.164C71.8498 161.128 71.7065 161.056 71.5632 160.948H71.6348C71.9215 160.912 72.1684 160.876 72.4551 160.84C72.5626 160.876 72.5985 160.912 72.6343 160.912ZM90.2184 160.948V161.7C90.0751 161.7 89.9676 161.736 89.8601 161.736C89.6809 161.772 89.5017 161.808 89.1115 161.844C88.9323 161.844 88.7173 161.88 88.5062 161.88C88.3987 161.88 88.2912 161.88 88.1478 161.916C88.7173 161.38 89.3623 160.768 90.0393 160.016C90.1109 160.232 90.1826 160.552 90.2184 160.948ZM81.0162 163.384C79.8734 161.952 79.519 161.304 79.4473 161.02C79.5907 160.912 79.6624 160.912 79.7341 160.948C79.7699 160.984 79.8416 161.02 79.9491 161.056C80.411 161.308 81.3029 161.952 81.8046 162.308L82.1989 162.596C82.4139 162.74 82.5214 162.848 82.6249 162.956C82.163 163.1 81.6255 163.208 81.1277 163.352C81.0919 163.352 81.056 163.352 81.0202 163.388L81.0162 163.384ZM68.6046 161.628C68.8554 161.556 69.0665 161.592 69.1382 161.664C69.2098 161.736 69.2815 161.88 69.4249 162.06C69.5682 162.24 69.6757 162.42 69.7832 162.524C69.3213 162.308 68.7479 162.128 68.2502 162.2C68.3219 162.02 68.4652 161.804 68.6086 161.628H68.6046ZM69.8191 163.636C70.4602 164.1 71.4596 164.568 72.3874 164.82C72.8135 165.036 73.3152 165.18 73.7771 165.32L73.1718 165.248C71.4596 165.032 69.7116 164.784 68.7121 163.456C68.6046 163.348 68.5329 163.24 68.4612 163.132C68.8196 163.168 69.5324 163.42 69.8151 163.632L69.8191 163.636ZM87.9726 165.32H86.6546C86.1569 165.32 85.6552 165.284 85.1933 165.284C85.8344 165.032 86.4077 164.784 86.7263 164.748C86.9413 164.784 87.3316 164.892 87.9766 165.32H87.9726ZM89.3982 165.176C88.2554 164.316 87.3992 163.888 86.6865 163.816C85.9379 163.924 84.7592 164.46 83.6921 164.928C83.2979 165.108 82.9435 165.252 82.6568 165.356C82.3701 165.356 82.0874 165.356 81.8007 165.32C81.6215 165.284 81.4423 165.284 81.0521 165.284C80.5185 165.284 80.0884 165.32 79.6265 165.32C78.9496 165.284 78.2369 165.176 77.5559 165.068C77.4484 165.032 77.3051 165.032 77.1976 165.032C77.3051 165.032 77.3768 164.996 77.4843 164.996C78.5554 164.888 79.6584 164.672 80.7295 164.424C80.7654 164.424 80.8012 164.46 80.837 164.46C80.9445 164.46 81.0521 164.424 81.1237 164.352L81.1596 164.316C81.8723 164.136 82.5851 163.956 83.1943 163.78C83.3018 163.744 83.4094 163.744 83.481 163.708C83.6602 163.78 83.8394 163.708 83.9788 163.6C85.1574 163.312 86.1171 163.136 87.5824 162.92C87.8691 162.884 88.1877 162.884 88.4744 162.848C88.6894 162.848 88.9363 162.848 89.1513 162.812C89.6132 162.776 89.7924 162.74 89.9716 162.704C90.0791 162.704 90.1507 162.668 90.2941 162.668C90.4016 163.312 90.545 163.852 90.7202 164.424C90.756 164.568 90.7918 164.748 90.8635 164.888C90.4693 164.996 89.8999 165.068 89.4022 165.176H89.3982ZM98.4212 87.572C97.2067 87.392 95.9962 87.144 95.7453 86.032C95.4945 85.46 95.5303 84.672 95.5662 83.92C95.5662 83.56 95.602 83.24 95.5662 82.916C95.6737 82.988 95.7812 83.06 95.8887 83.132C96.5298 83.56 97.1709 83.956 97.6009 84.6C98.0628 85.172 98.4212 85.888 98.7079 86.856C98.7437 87 98.8154 87.144 98.8871 87.284C98.9588 87.424 98.9946 87.536 99.0663 87.68C98.9229 87.644 98.7079 87.572 98.4252 87.572H98.4212ZM81.3388 77.288V76.752C82.0157 76.108 82.9076 75.392 83.6562 74.996C84.369 74.496 85.1176 74.136 85.902 73.744C86.0812 73.888 86.2962 74.068 86.5073 74.244C87.0767 74.744 87.6859 75.356 88.5421 75.356H88.7571C89.2906 75.212 89.649 74.928 89.7565 74.568C89.9357 73.852 89.223 73.136 88.5779 72.488C88.9721 72.272 89.3265 72.092 89.6849 71.844C89.9357 71.7 90.2184 71.52 90.4693 71.38C90.756 71.236 91.0387 71.056 91.2896 70.916C91.5046 70.844 91.7156 70.772 91.9307 70.736C92.5718 71.308 93.4279 71.848 94.0013 72.168C94.3238 72.42 94.6782 72.668 95.0366 72.92V72.992C94.8215 73.852 94.4313 74.568 93.8221 75.036C93.2885 75.252 92.7151 75.464 92.1815 75.68C91.0029 76.216 89.8999 76.792 89.0079 77.256C89.223 76.968 89.434 76.612 89.3663 76.216C89.3305 76 89.1871 75.82 88.8686 75.716C88.4744 75.644 87.7974 75.788 86.2286 77.616C85.5875 78.26 84.6955 79.264 84.3013 79.944C84.0146 80.124 83.6961 80.34 83.4094 80.516C83.3377 80.516 83.266 80.48 83.1943 80.48H83.1585C81.5538 80.192 81.3388 79.192 81.3029 77.364C81.3388 77.328 81.3388 77.292 81.3388 77.292V77.288ZM87.6501 72.916C87.6859 72.952 87.7218 72.988 87.7576 73.024C88.0443 73.312 88.8288 74.028 88.7929 74.276C88.7929 74.276 88.7212 74.348 88.5421 74.384C88.0802 74.42 87.5784 73.988 87.0807 73.524C86.9732 73.452 86.9015 73.344 86.794 73.272C87.1165 73.164 87.3634 73.056 87.6501 72.912V72.916ZM87.3634 78.112C87.1484 78.22 86.9692 78.328 86.7582 78.436C86.8298 78.364 86.8657 78.328 86.9373 78.256C87.0449 78.148 87.1165 78.04 87.224 77.932C87.224 77.968 87.2599 78.004 87.2957 78.076C87.2957 78.076 87.3316 78.112 87.3674 78.112H87.3634ZM97.6726 74.244C97.7443 74.28 97.7801 74.28 97.8518 74.28C98.031 74.28 98.2102 74.172 98.2778 73.956C98.3854 73.704 98.242 73.42 97.9911 73.348C97.9553 73.348 97.9195 73.312 97.8478 73.276C98.027 73.276 98.3814 73.348 98.3814 73.776C98.3814 74.24 97.9553 74.312 97.812 74.312C97.6328 74.312 97.3501 74.24 97.2425 74.024C97.3859 74.096 97.5292 74.168 97.6686 74.24L97.6726 74.244ZM91.0746 52.28C91.4688 52.744 91.9665 53.068 92.4642 53.248C92.8226 53.356 93.1412 53.428 93.4995 53.428C93.6787 53.428 93.8579 53.392 94.0331 53.356C94.0331 53.536 93.9973 53.716 93.9973 53.892C93.9973 54.18 94.0331 54.428 94.069 54.644H92.7151C92.0382 54.644 91.3254 54.68 90.6445 54.752V54.68C90.8237 53.928 90.967 53.104 91.0706 52.28H91.0746ZM89.3982 59.268C89.2906 59.304 89.1473 59.376 89.0398 59.448C89.3623 59.16 89.6809 58.912 90.0393 58.696H90.1109C90.9312 58.444 91.7156 58.3 92.3926 58.3C93.1412 58.444 94.0331 58.836 94.3915 59.196C94.499 59.304 94.6065 59.376 94.6782 59.448C94.0371 59.088 93.2527 58.876 92.3607 58.84C91.3971 58.804 90.3618 58.732 89.4022 59.272L89.3982 59.268ZM58.833 86.64C58.7971 86.496 58.7613 86.424 58.7254 86.388C58.7613 86.28 58.8688 86.136 58.9763 85.992C58.9046 86.172 58.833 86.388 58.833 86.636V86.64ZM60.4018 87.608L60.366 87.572C60.2226 87.5 60.0435 87.356 59.9041 87.144C59.8324 87.036 59.7966 86.892 59.7966 86.68C59.7966 86.536 59.8324 86.392 59.8683 86.284C59.9399 86.14 60.0116 86.032 60.1191 85.924C60.2983 85.78 60.5452 85.708 60.7602 85.708C60.9036 85.708 61.0469 85.744 61.1863 85.816C61.4013 85.924 61.684 86.176 61.7198 86.748C61.7198 86.856 61.684 86.928 61.6482 87.036C61.6123 87.18 61.5407 87.324 61.4332 87.432L61.3973 87.468C61.254 87.612 61.0389 87.684 60.8279 87.684C60.7204 87.684 60.5412 87.648 60.4018 87.612V87.608ZM106.875 156.22C107.408 155.648 107.982 155.072 108.515 154.572C109.192 154.072 110.013 153.604 110.94 153.212C111.299 152.996 111.725 152.816 112.155 152.676C113.333 152.248 114.687 152.032 116.256 152.068C118.359 152.032 120.573 152.604 122.783 153.824C123.603 154.396 124.351 154.972 124.993 155.472C126.526 157.3 127.951 159.164 128.453 161.348C128.202 161.42 127.919 161.42 127.668 161.384H127.525C127.274 161.312 127.063 161.204 126.884 161.096C126.422 160.772 126.135 160.272 125.813 159.664C125.669 159.412 125.526 159.128 125.387 158.876C124.602 157.588 123.531 156.512 122.249 155.688C121.855 155.436 121.429 155.188 121.003 154.972C119.541 154.256 117.972 153.824 116.332 153.824C115.261 153.788 114.261 153.968 113.302 154.288C112.23 154.504 111.267 154.968 110.447 155.576C108.484 156.864 107.201 158.408 106.524 160.196C106.166 160.84 105.561 161.308 104.991 161.416H104.848C104.633 161.452 104.422 161.416 104.171 161.344H104.135C104.243 161.056 104.35 160.772 104.458 160.484C105.135 158.872 105.812 157.616 106.632 156.58L106.883 156.22H106.875ZM59.7249 157.976C59.0838 156.472 58.6538 155.004 58.1919 153.46L57.9052 152.528C57.6185 151.632 57.3358 150.988 57.0132 150.128L56.9057 149.84C56.619 148.836 56.3721 148.156 55.9779 147.08C55.8704 146.72 55.7987 146.544 55.7271 146.4C55.6554 146.22 55.6195 146.076 55.512 145.756C55.4045 145.432 55.3687 145.292 55.3687 145.112C55.3328 144.896 55.297 144.716 55.1895 144.324C55.082 144 55.0103 143.824 54.9745 143.644C54.9028 143.464 54.867 143.284 54.7595 142.928C54.5803 142.428 54.4011 142.032 54.2617 141.604C54.0825 141.176 53.9033 140.744 53.7281 140.244C53.6206 139.92 53.5848 139.78 53.549 139.6C53.5131 139.42 53.4773 139.204 53.3698 138.848C53.4056 138.74 53.4056 138.632 53.4414 138.488C53.4773 138.344 53.549 138.2 53.5848 138.06C53.8356 137.236 54.0109 136.628 54.2259 135.768C54.2976 135.444 54.3692 135.268 54.4051 135.124C54.4409 134.944 54.5126 134.764 54.5843 134.408L54.6559 134.012C54.7993 133.188 54.9426 132.58 55.1537 131.72C55.297 131.148 55.4404 130.644 55.5797 130.108C55.7948 129.32 56.0058 128.532 56.2208 127.636C56.5434 126.348 56.8619 125.092 57.1844 123.804C57.718 121.584 58.2914 119.288 58.9325 117.032L59.6453 114.06C59.932 113.092 60.1072 112.412 60.3222 111.336L61.035 108.576C61.2141 107.608 61.3933 106.892 61.6402 105.924C62.2096 104.42 62.5322 102.88 62.8547 101.372C63.0339 100.62 63.1772 99.868 63.3883 99.08C63.6391 97.968 63.9218 97 64.2085 95.964L64.4952 94.996C64.7819 93.528 65.1005 92.2 65.4589 90.804L65.7814 89.552C65.8531 89.3 65.7097 89.052 65.4589 88.98C65.208 88.908 64.9611 89.052 64.8895 89.304L64.7461 89.84C64.2484 89.376 63.8183 88.944 63.3564 88.516H63.4281C63.89 88.516 64.3559 88.444 64.8178 88.372L64.997 88.336C65.6739 88.264 65.7456 88.264 66.2433 88.192H66.315C66.53 88.3 66.7092 88.372 66.8844 88.372C67.3105 88.372 67.7405 88.12 68.063 87.836L68.0989 87.8C68.1706 87.728 68.2781 87.656 68.3497 87.62C68.5648 87.44 68.8116 87.224 69.0267 87.12C69.0625 87.12 69.0983 87.084 69.1342 87.048C69.7036 86.584 70.5955 85.972 71.1689 85.828C71.7742 85.612 71.9534 85.148 72.0609 84.824C72.1684 84.788 72.3476 84.716 72.5228 84.608C72.702 84.536 72.917 84.428 73.128 84.32C73.1639 84.32 73.1639 84.284 73.1997 84.284C73.2356 84.284 73.2356 84.284 73.2714 84.248C74.2709 83.852 75.3738 83.352 76.23 82.636C76.2658 82.6 76.3016 82.564 76.3375 82.564C76.4808 82.456 76.6242 82.312 76.7635 82.204C77.8705 81.02 79.3319 79.124 80.3672 77.724C80.403 77.688 80.4388 77.652 80.4747 77.616C80.4747 77.868 80.5105 78.116 80.5464 78.368V78.404C80.7255 79.8 81.2591 81.056 83.2222 81.34C83.3297 81.592 83.3656 81.84 83.4014 82.164L83.4372 82.308C83.6164 83.348 83.7956 84.492 85.257 84.672C85.3286 84.816 85.3645 84.924 85.4362 85.068C85.6153 85.428 85.8622 85.928 85.8622 86.216C85.7906 86.288 85.6114 86.432 85.468 86.54C84.8269 87.04 83.7558 87.828 84.2535 88.832C84.4327 89.368 84.7871 89.764 85.1096 90.12C85.5039 90.548 85.7866 90.908 85.7866 91.372C85.7507 91.768 85.4282 92.948 85.2171 93.628L85.1096 94.024C84.8229 95.136 84.6119 96.316 84.4327 97.464C84.2894 98.18 84.1819 98.896 84.0385 99.648L84.0027 100.292C83.9668 101.008 83.931 101.76 83.8593 102.476C83.8593 102.692 83.8235 102.872 83.7876 103.048C83.7518 103.3 83.6801 103.548 83.6801 103.836C83.6801 104.088 83.6801 104.336 83.716 104.624C83.716 104.804 83.7518 105.02 83.7518 105.196C83.716 106.7 83.7876 108.204 83.8952 109.676C83.931 110.428 84.0027 111.18 84.0385 112.004L84.0743 112.328C84.2535 113.476 84.4686 115.052 84.5004 115.912C84.4646 116.308 84.4287 116.772 84.3929 117.236C84.3571 117.772 84.2854 118.312 84.2495 118.884L84.2854 119.492C84.3212 120.316 84.3212 121.14 84.5004 121.928C84.5721 122.18 84.7154 122.464 84.8229 122.716C84.8946 122.896 85.0021 123.076 85.0738 123.252C85.1096 123.36 85.1455 123.468 85.1813 123.576C85.1096 125.26 85.1096 126.656 85.1096 127.84C85.0021 128.844 85.0021 129.668 85.0021 130.564C85.0021 131.1 85.0021 131.676 84.9663 132.32C84.9663 133.252 84.8588 134.292 84.7513 135.256C84.7154 135.72 84.6438 136.152 84.6079 136.616C84.5362 137.692 84.4646 138.836 84.3929 139.984C84.3571 140.808 84.2854 141.632 84.2495 142.42C84.1779 143.744 84.142 144.068 83.9628 145.356L83.927 145.68C83.7837 147.004 83.6403 148.616 83.2142 149.764C83.1426 149.908 83.1784 150.088 83.2859 150.192C83.3576 150.336 83.5368 150.372 83.6801 150.408H83.716C83.6801 150.732 83.6085 151.16 83.5009 151.556C83.3934 152.092 83.2859 152.596 83.1784 152.952L83.1067 153.24C82.7484 153.096 82.3581 153.06 81.8604 153.312C81.4343 153.564 80.9326 154.244 80.399 154.924C80.184 155.212 80.0048 155.46 79.8654 155.604C79.7938 155.676 79.7221 155.748 79.6146 155.856C79.2204 155.856 78.9018 156 78.6151 156.284C78.5912 156.308 78.5793 156.332 78.5793 156.356C78.0816 156.32 77.7949 156.572 77.6873 156.716C77.544 156.896 77.5082 157.076 77.544 157.288C77.329 157.288 77.1179 157.288 76.9029 157.396C76.4768 157.54 76.3693 157.824 76.3335 157.968C76.2977 157.968 76.226 158.004 76.1901 158.04C76.011 158.184 75.9034 158.364 75.9393 158.576C75.9393 158.648 75.9751 158.684 75.9751 158.756H75.9034C75.1548 158.612 74.904 158.972 74.8681 159.152C74.7965 159.332 74.8323 159.512 74.904 159.688C74.8681 159.688 74.8323 159.724 74.8323 159.724C74.0837 159.796 72.9409 159.94 71.8737 160.048C70.8384 160.192 69.839 160.3 69.1621 160.372C69.1262 160.372 69.0904 160.372 69.0545 160.408C68.3776 160.66 67.414 161.876 67.5573 162.736C67.629 163.2 67.9157 163.704 68.2701 164.132C68.6962 164.704 69.2696 165.1 69.8748 165.42H68.6603C68.2343 165.42 67.8401 165.384 67.4817 165.276C66.7331 165.096 66.0562 164.704 65.4828 164.092C65.1961 163.804 65.0209 163.696 64.8775 163.556C64.7342 163.448 64.5908 163.34 64.3439 163.128C63.237 162.124 62.2733 161.264 61.2062 160.084C61.0628 159.904 60.812 159.904 60.6368 160.012C60.5651 159.868 60.4934 159.724 60.4217 159.476C60.3142 159.152 60.2784 159.012 60.2426 158.832C59.8483 158.58 59.8165 158.4 59.709 157.972L59.7249 157.976Z" fill="#454138"/>
<path d="M121.465 171.872C121.926 171.584 122.357 171.192 122.711 170.76C122.962 170.472 123.209 170.152 123.388 169.828C124.172 168.824 124.742 167.536 125.064 165.96C125.172 164.384 125.064 162.988 124.706 161.804C124.101 160.192 123.209 158.9 122.138 157.9C121.21 157.04 120.139 156.396 118.964 156.072C115.647 154.96 112.008 155.856 109.941 158.256C109.264 158.9 108.695 159.688 108.336 160.476C107.803 161.3 107.48 162.232 107.408 163.2C107.408 163.344 107.373 163.488 107.337 163.596C107.229 164.06 107.122 164.6 107.408 165.136C107.516 165.316 107.731 165.388 107.906 165.352C107.942 165.352 108.014 165.316 108.049 165.316C108.265 165.172 108.372 164.888 108.229 164.672C108.121 164.456 108.157 164.136 108.229 163.776C108.265 163.596 108.3 163.452 108.3 163.276C108.372 162.452 108.623 161.7 109.085 160.948C109.443 160.196 109.941 159.516 110.546 158.904C111.044 158.332 111.617 157.864 112.258 157.508C114.078 156.468 116.431 156.256 118.606 156.972C120.887 157.58 122.707 159.408 123.706 162.096C124.029 163.136 124.132 164.424 124.029 165.824C123.706 167.184 123.209 168.368 122.496 169.3C122.07 170.052 121.532 170.624 120.819 171.092C119.82 171.88 118.574 172.24 117.395 172.524C116.252 172.668 114.97 172.596 113.684 172.272C112.935 171.984 112.223 171.628 111.613 171.16C110.188 170.156 109.081 168.76 108.583 167.148C108.511 166.896 108.225 166.752 107.978 166.824C107.906 166.86 107.834 166.896 107.799 166.932C107.691 167.04 107.619 167.256 107.691 167.396C108.511 169.976 110.65 172.124 113.433 173.128C114.397 173.344 115.36 173.488 116.288 173.488C116.75 173.488 117.18 173.452 117.606 173.416C118.96 173.164 120.354 172.772 121.457 171.876L121.465 171.872Z" fill="#454138"/>
</svg>
