<svg width="180" height="180" viewBox="0 0 180 180" fill="none" xmlns="http://www.w3.org/2000/svg">
<path d="M121.892 128.935C126.345 130.934 132.547 133.876 136.436 135.699C138.118 136.188 139.519 136.681 140.818 137.134C140.924 137.099 140.994 137.134 141.1 137.17C141.135 137.205 141.17 137.24 141.206 137.275C141.976 137.522 142.747 137.799 143.483 138.081C143.029 137.064 142.258 136.188 141.135 135.769C139.069 134.963 136.894 134.576 135.141 133.703C133.075 132.651 131.392 131.321 129.71 130.445C126.838 129.009 123.716 127.397 121.126 125.891C119.514 124.909 117.69 124.385 115.867 124.279C115.867 124.42 115.832 124.561 115.832 124.702C115.796 124.878 115.656 125.019 115.444 125.019H115.409C115.62 125.124 115.796 125.265 116.004 125.371C117.933 126.494 119.928 127.718 121.892 128.946V128.935Z" fill="#F5B731" fill-opacity="0.8"/>
<path d="M115.057 124.8C115.022 124.729 114.987 124.659 114.987 124.553C114.987 124.448 115.022 124.342 115.022 124.236H114.987C114.705 124.236 114.462 124.236 114.181 124.272C114.427 124.412 114.67 124.589 114.916 124.725C114.987 124.725 115.022 124.761 115.057 124.796V124.8Z" fill="#F5B731" fill-opacity="0.8"/>
<path d="M105.596 126.693C105.142 126.799 104.72 126.904 104.266 127.045C104.442 128.41 104.653 129.744 104.86 131.075C105.107 129.604 105.35 128.168 105.596 126.693Z" fill="#F5B731" fill-opacity="0.8"/>
<path d="M77.2407 127.675C72.9289 126.552 69.7048 125.504 67.7797 124.311C66.2029 123.258 64.3796 123.329 63.0493 124.557C68.0263 127.221 74.897 129.076 82.7458 129.216C80.7112 128.763 78.8918 128.129 77.2446 127.675H77.2407Z" fill="#F5B731" fill-opacity="0.8"/>
<path d="M140.29 137.768C139.065 137.314 137.766 136.892 136.154 136.403C132.23 134.545 125.989 131.638 121.505 129.604C119.506 128.344 117.545 127.151 115.546 125.993C114.705 125.469 113.828 124.941 112.987 124.416C112.181 124.557 111.375 124.804 110.604 125.117C109.38 125.641 107.905 126.063 106.328 126.482C105.976 128.724 105.592 130.965 105.134 133.246C105.205 133.668 105.275 134.052 105.346 134.47C105.381 134.682 105.24 134.858 105.029 134.924H104.958C104.888 134.924 104.853 134.889 104.817 134.854V134.924L104.747 135.206C104.258 137.623 103.765 140.111 103.205 142.564C103.17 142.74 102.994 142.846 102.818 142.846H102.748C102.536 142.811 102.431 142.599 102.466 142.392C103.025 139.939 103.518 137.451 104.007 135.069L104.078 134.787C104.184 134.263 104.289 133.77 104.36 133.246C104.007 131.282 103.694 129.252 103.413 127.217C103.237 127.253 103.061 127.323 102.888 127.358C100.4 127.988 97.841 129.04 95.11 129.357C92.4806 129.674 89.6792 130.093 87.0146 129.917C86.9442 129.917 86.8737 129.917 86.7681 129.881C85.6804 129.952 84.6318 129.987 83.5793 129.987C75.1317 129.987 67.7015 128.023 62.4115 125.117C61.6055 125.923 61.0108 126.341 60.0991 127.116C59.117 127.922 57.8924 126.904 56.4877 126.693C54.9813 128.199 53.2988 129.6 51.4051 130.863C51.3347 130.899 51.2642 130.934 51.1938 130.934C51.0882 130.934 50.9825 130.899 50.9121 130.793C50.7712 130.652 50.8064 130.441 50.9121 130.304C51.4012 129.745 51.859 129.146 52.3128 128.516C51.2603 129.146 50.2117 129.741 48.3884 130.828C45.27 132.686 42.222 134.439 39.7335 135.769C38.368 136.469 37.875 138.328 38.5401 139.763C39.5926 142.146 41.0286 145.369 42.0811 149.05C42.9576 152.098 43.5875 155.462 44.2527 158.721C44.64 161.033 44.5696 164.397 44.8826 167.762C45.1291 170.95 45.7591 174.244 45.8295 176.732C45.8999 178.59 47.3359 179.85 49.1944 179.85C49.8596 179.85 50.6304 179.885 51.4364 179.955H89.5305C90.3717 179.885 91.1777 179.85 92.0189 179.85C92.9306 179.85 93.8423 179.885 94.7891 179.955H106.703C107.545 179.92 108.351 179.85 109.157 179.85C111.504 179.85 113.781 179.885 115.886 179.92H117.71C118.128 179.92 118.551 179.92 118.97 179.955H127.417C127.417 179.815 127.452 179.674 127.452 179.533C128.188 172.069 129.417 162.61 132.218 153.639C134.566 148.346 137.054 143.304 140.278 137.764L140.29 137.768Z" fill="#F5B731" fill-opacity="0.8"/>
<path d="M143.725 138.993C142.849 138.676 141.937 138.363 141.026 138.046C137.801 143.581 135.278 148.628 133.141 153.886C130.371 162.75 129.147 172.178 128.411 179.537C128.411 179.643 128.376 179.783 128.376 179.889C128.728 179.783 129.041 179.678 129.393 179.537C131.776 178.485 133.564 176.243 133.846 173.508C134.335 169.444 134.581 165.027 135.599 161.35C136.546 158.091 138.017 154.938 139.347 151.75C140.642 148.561 141.835 145.373 143.342 142.326C143.866 141.273 143.972 140.084 143.729 138.997L143.725 138.993Z" fill="#F5B731" fill-opacity="0.8"/>
<path d="M54.8131 127.045C54.4609 127.257 54.1479 127.468 53.831 127.64C53.6197 128.027 53.4123 128.375 53.1658 128.763C53.9718 128.133 54.7074 127.468 55.4078 126.799C55.2317 126.834 55.0204 126.904 54.8131 127.045Z" fill="#F5B731" fill-opacity="0.8"/>
</svg>
