<svg width="180" height="180" viewBox="0 0 180 180" fill="none" xmlns="http://www.w3.org/2000/svg">
<path d="M165.881 140.55C165.392 131.17 163.392 121.9 159.257 113.43C157.716 110.7 156.209 107.973 154.77 105.172C152.281 101.812 149.793 98.4521 147.058 95.3385C146.358 94.5689 145.517 93.9047 144.781 93.2054C144.046 92.471 143.486 91.5607 142.716 90.8614C138.616 87.6775 134.656 84.1068 129.926 81.8683C127.368 80.0126 124.39 79.032 121.55 77.5983C118.538 76.6177 115.697 75.2543 112.649 74.5198C106.585 72.7345 100.208 72.5938 93.972 72C88.7842 72.4532 83.4947 72.3868 78.3774 73.6799C70.2124 75.5707 62.4659 79.1023 55.2125 83.1614C52.7946 85.1577 50.0247 86.7321 47.7125 88.8651C45.1539 90.7559 43.0881 93.0999 40.7055 95.1627C38.5342 97.4715 36.7815 100.026 34.8175 102.476C32.8887 104.996 31.4881 107.762 30.0875 110.559C28.3347 113.184 27.0045 116.016 26.3042 119.099C25.3574 120.99 24.6923 122.947 24.305 125.014C23.2878 127.987 23.0452 131.104 22.2706 134.183C22.0241 137.296 21.8833 140.445 21.7111 143.562C21.6407 146.535 22.165 149.512 22.2354 152.485C23.3934 160.221 25.1775 168.022 28.9998 174.882C30.4356 174.812 31.7345 174.777 33.2056 174.777H33.8003C35.7642 174.882 37.3761 174.882 39.1602 174.882C39.5788 174.882 39.79 174.847 40.0013 174.847C40.2478 174.812 40.4903 174.812 40.9833 174.812C41.5076 174.812 41.754 174.847 42.0005 174.882C42.2118 174.917 42.3878 174.953 42.7712 174.953C43.1899 174.953 43.4011 174.917 43.6124 174.917C43.8237 174.882 44.0662 174.882 44.4535 174.882C44.6648 173.691 44.8409 172.82 45.0834 171.698C45.1539 171.312 45.1891 171.104 45.1891 170.894C45.2243 170.647 45.2243 170.405 45.3299 169.948C45.4355 169.46 45.506 169.249 45.5764 169.003C45.6468 168.827 45.7172 168.616 45.7876 168.233L45.9285 167.463C46.3471 165.401 46.7344 163.44 46.9809 161.307C47.0865 160.783 47.157 160.537 47.2274 160.326C47.2978 160.115 47.333 159.939 47.4387 159.521C47.5091 159.134 47.5443 158.927 47.5443 158.716C47.5795 158.47 47.5795 158.228 47.6851 157.736C48.1742 155.88 48.4207 154.341 48.7023 152.591C48.808 151.962 48.9136 151.434 49.0192 150.911C49.1249 150.352 49.2305 149.79 49.3713 149.09C49.477 148.637 49.5474 148.391 49.6178 148.18C49.6882 147.969 49.7587 147.793 49.8291 147.375C49.8995 146.957 49.9347 146.746 49.9347 146.535C49.9699 146.289 49.9699 146.082 50.0756 145.625C50.1812 145.137 50.2516 144.891 50.322 144.68C50.3925 144.504 50.4629 144.293 50.5333 143.945C50.6037 143.559 50.6037 143.387 50.6037 143.176C50.6037 142.93 50.6037 142.652 50.7094 142.16L50.9206 141.32C51.1319 140.48 51.308 139.71 51.4801 138.765C51.5505 138.347 51.5857 138.171 51.5857 137.96C51.6209 137.714 51.6209 137.472 51.7266 136.98C51.797 136.562 51.8674 136.316 51.9378 136.105C52.0083 135.894 52.0435 135.687 52.1139 135.265C52.1843 134.843 52.2195 134.636 52.2195 134.46C52.2547 134.214 52.2547 133.972 52.3604 133.514C52.466 133.026 52.5716 132.78 52.6421 132.534C52.7125 132.323 52.7829 132.182 52.8533 131.799C52.9237 131.381 52.959 131.206 52.959 130.995C52.9942 130.749 52.9942 130.542 53.0998 130.084C53.1702 129.666 53.2054 129.455 53.2407 129.28C53.2759 129.034 53.3111 128.826 53.3815 128.334C53.4871 127.846 53.5575 127.6 53.6632 127.354C53.7336 127.178 53.804 127.002 53.8744 126.619C54.0505 125.396 54.2266 124.521 54.5395 123.119C54.61 122.838 54.6452 122.56 54.7156 122.314C54.9269 121.298 55.1342 120.146 56.1514 119.306C57.2038 118.36 58.4636 118.396 59.5865 118.431H60.2515C62.9159 118.325 65.3689 118.361 67.3994 118.396H68.9056C70.2006 118.361 71.3939 118.361 72.7593 118.466C75.0715 118.325 77.3485 118.325 79.8367 118.466C81.5894 118.396 83.1661 118.36 85.1301 118.36C85.6191 118.36 85.9008 118.396 86.1473 118.431C86.3586 118.466 86.5346 118.501 86.918 118.501C87.3014 118.501 87.5127 118.466 87.6888 118.431C87.9352 118.396 88.1778 118.36 88.6707 118.36C89.1637 118.36 89.4415 118.396 89.6527 118.431C89.864 118.466 90.0401 118.501 90.4587 118.501C90.8773 118.501 91.0534 118.466 91.2294 118.431C91.4759 118.396 91.7185 118.36 92.2114 118.36C93.5416 118.396 94.4884 118.361 95.7521 118.325C96.2059 118.325 96.558 118.36 96.9101 118.36C97.6809 118.396 98.4164 118.431 99.3279 118.431C100.553 118.431 101.429 118.431 102.833 118.325C104.269 118.396 105.146 118.431 106.409 118.36C106.934 118.396 107.145 118.396 107.391 118.396C107.603 118.431 107.81 118.431 108.197 118.431C108.585 118.431 108.792 118.396 108.968 118.36C109.214 118.325 109.457 118.29 109.95 118.29C111.351 118.36 112.192 118.396 113.491 118.36C116.785 118.22 119.621 118.22 122.426 118.396C122.778 118.396 122.986 118.36 123.197 118.36C123.444 118.325 123.686 118.29 124.179 118.29C124.672 118.29 124.879 118.325 125.126 118.325C125.337 118.361 125.545 118.36 125.932 118.36C126.319 118.36 126.526 118.325 126.738 118.325C126.984 118.29 127.227 118.255 127.72 118.255C129.085 118.29 129.962 118.325 131.26 118.29C132.591 118.255 133.467 118.29 134.872 118.36L136.343 118.325C136.972 118.29 137.602 118.29 138.342 118.255C139.707 118.325 140.584 118.325 141.882 118.255H141.918C142.442 118.255 142.688 118.29 142.935 118.325C143.146 118.361 143.322 118.36 143.741 118.36C144.128 118.36 144.3 118.325 144.511 118.29C144.758 118.255 145.001 118.22 145.529 118.22C146.546 118.22 147.457 118.673 148.087 119.443C148.717 120.212 148.964 121.228 148.752 122.173C148.682 122.591 148.612 122.802 148.576 123.049C148.541 123.259 148.506 123.502 148.4 123.959C148.26 124.728 148.119 125.357 147.947 126.021C147.841 126.475 147.735 126.932 147.63 127.49L147.278 129.241C147.207 129.627 147.207 129.799 147.172 130.01C147.172 130.256 147.137 130.534 147.066 131.026L146.82 132.077C146.609 132.882 146.432 133.616 146.26 134.526C146.084 135.89 145.908 136.765 145.666 138.062C145.56 138.55 145.49 138.831 145.384 139.042C145.314 139.218 145.243 139.429 145.173 139.812C145.102 140.199 145.067 140.406 145.067 140.617C145.067 140.863 145.032 141.105 144.961 141.597C144.821 142.367 144.645 143.066 144.472 143.766C144.226 144.781 143.983 145.762 143.842 146.844C143.737 147.332 143.702 147.543 143.666 147.789C143.631 148 143.561 148.207 143.49 148.665C143.42 149.051 143.42 149.223 143.385 149.434C143.385 149.68 143.35 149.923 143.279 150.45L142.927 152.235C142.821 152.724 142.751 153.005 142.645 153.216C142.575 153.427 142.504 153.603 142.434 153.95C142.364 154.368 142.328 154.579 142.293 154.79C142.258 155.036 142.223 155.243 142.152 155.7C142.082 156.087 142.047 156.294 142.047 156.505C142.012 156.751 142.012 156.994 141.906 157.486C141.8 157.974 141.73 158.255 141.624 158.466C141.554 158.642 141.483 158.853 141.413 159.236C141.237 160.459 141.096 161.369 140.748 162.807L140.153 166.342C140.048 166.866 139.942 167.112 139.871 167.323C139.801 167.534 139.731 167.71 139.66 168.092C139.59 168.479 139.555 168.686 139.555 168.897C139.555 169.143 139.519 169.386 139.414 169.878C139.308 170.366 139.238 170.577 139.167 170.823C139.097 171.034 139.062 171.21 138.956 171.628C138.886 172.015 138.85 172.222 138.85 172.433C138.85 172.679 138.815 172.921 138.71 173.413C138.639 173.8 138.569 174.042 138.533 174.218C138.463 174.464 138.428 174.671 138.357 175.164C138.357 175.199 138.322 175.234 138.322 175.269C138.428 175.445 138.533 175.621 138.533 175.828C138.533 176.214 138.463 176.457 138.428 176.632C138.393 176.773 138.357 176.843 138.357 177.05C138.357 177.82 138.111 178.449 137.622 178.906C137.587 178.941 137.551 178.976 137.481 179.047H139.304C140.846 179.047 140.846 179.223 142.422 179.223C143.999 179.223 143.964 179.152 145.54 179.152C147.888 179.152 149.5 179.152 151.847 179.187C153.67 179.047 155.56 178.347 157.035 177.261C158.999 174.953 159.907 171.769 161.135 168.968C162.923 165.014 163.905 160.744 164.605 156.509C165.482 151.259 166.288 145.906 165.9 140.554L165.881 140.55ZM93.5181 114.446C93.4477 114.481 93.3773 114.481 93.3069 114.481C92.99 114.481 92.7122 114.27 92.6066 113.958C92.2544 112.836 92.1175 112.067 91.9767 111.332C91.8358 110.598 91.7302 109.934 91.382 108.883C91.2411 108.496 91.4876 108.078 91.871 107.937C92.2584 107.832 92.677 108.043 92.8178 108.426C93.1699 109.582 93.3069 110.317 93.4477 111.051C93.5886 111.786 93.6942 112.45 94.0424 113.501C94.1128 113.887 93.9015 114.305 93.5181 114.446ZM97.8647 103.808C97.7943 105.418 97.7591 106.992 97.7239 107.516V108.461C97.7239 109.406 97.7239 110.387 97.5478 111.328C97.5126 111.61 97.5126 111.922 97.5126 112.239C97.5126 112.59 97.5126 112.973 97.4422 113.36C97.4422 113.43 97.407 113.465 97.407 113.536C97.3718 113.712 97.3366 113.989 97.3014 114.305C97.1957 115.427 97.1253 115.809 96.6011 115.915C96.5306 115.915 96.4954 115.95 96.425 115.95C96.0729 115.95 95.7951 115.739 95.6895 115.391C95.6543 115.216 95.6543 115.075 95.7247 114.903C95.7599 114.727 95.7951 114.45 95.8303 114.133C95.9007 113.645 95.936 113.294 96.0064 113.047C96.0416 112.801 96.0416 112.559 96.0416 112.278C96.0416 111.926 96.0416 111.508 96.112 111.086C96.2529 110.281 96.2529 109.336 96.2529 108.461V107.48C96.2529 106.957 96.3233 105.347 96.3937 103.738C96.4641 102.058 96.5345 100.343 96.5345 99.7843C96.5345 99.3663 96.8867 99.0498 97.2701 99.0498C97.6887 99.0498 98.0056 99.4014 98.0056 99.8194C98.0056 100.378 97.9352 102.093 97.8647 103.808ZM102.489 111.157C102.278 111.61 102.07 112.102 101.859 112.59C101.542 113.36 101.229 114.165 100.772 114.934C100.631 115.18 100.384 115.286 100.142 115.286C100.001 115.286 99.8952 115.251 99.7544 115.18C99.4023 114.97 99.3006 114.516 99.4727 114.165C99.86 113.501 100.173 112.766 100.49 111.997C100.701 111.508 100.909 110.981 101.155 110.492C101.437 109.863 102.52 107.449 102.52 107.449L103.886 108.043C103.886 108.078 102.798 110.528 102.485 111.157H102.489Z" fill="#F2E5D1"/>
<path d="M29.7392 176.277C29.3206 176.312 28.8981 176.312 28.4443 176.347C27.8848 176.347 27.6383 176.312 27.3918 176.277C27.1806 176.242 27.0045 176.207 26.5859 176.207C26.1986 176.207 26.0264 176.242 25.8152 176.277C25.5687 176.312 25.3261 176.347 24.798 176.347C21.9928 176.312 19.0155 176.242 15.8974 176.347L14.8802 176.312C14.0038 176.277 13.2683 176.242 12.2863 176.242C11.899 176.242 11.7269 176.277 11.5156 176.312C11.2691 176.347 11.0265 176.382 10.4984 176.382C10.0093 176.382 9.79807 176.382 9.55159 176.347C9.34033 176.347 9.13297 176.312 8.71044 176.312C8.2214 176.312 7.97492 176.277 7.76366 176.277C7.55239 176.277 7.34504 176.242 6.9225 176.242C6.53518 176.277 6.15177 176.242 5.83487 176.207C5.72924 176.207 5.62361 176.207 5.51797 176.171C5.51797 176.207 5.51797 176.242 5.55319 176.277C5.5884 176.453 5.62361 176.664 5.62361 177.047C5.62361 177.711 6.11265 178.203 6.81687 178.238H6.85208C7.76366 178.238 8.49917 178.273 9.30512 178.308L10.4632 178.344C11.5508 178.273 12.5641 178.273 13.6517 178.273C14.352 178.273 15.0523 178.273 15.7879 178.238C16.2417 178.238 16.5234 178.273 16.7698 178.308C16.9811 178.344 17.1885 178.344 17.5758 178.344H19.3637C19.751 178.344 19.9584 178.308 20.1697 178.273C20.4161 178.238 20.6587 178.203 21.1869 178.203C21.715 178.203 21.9928 178.238 22.2041 178.308C22.4153 178.344 22.5914 178.379 22.9748 178.379C23.3934 178.379 23.6047 178.379 23.816 178.344C24.0624 178.344 24.2698 178.308 24.7628 178.308C26.0929 178.344 26.9693 178.344 28.3034 178.273C28.8277 178.273 29.0741 178.308 29.2854 178.308C29.4967 178.308 29.704 178.344 30.1266 178.344C30.5139 178.344 30.7212 178.308 30.9325 178.273C31.179 178.238 31.4215 178.203 31.9145 178.203H32.161C31.1438 177.785 30.3378 177.117 29.7432 176.277H29.7392Z" fill="#F5F3F1"/>
<path d="M126.491 138.417C126.28 138.558 126.139 139.046 126.245 139.398C126.315 139.609 126.35 139.75 126.386 139.851C126.456 139.57 126.562 139.222 126.738 138.906C126.808 138.8 126.879 138.73 126.984 138.66C126.879 138.624 126.808 138.589 126.703 138.519C126.562 138.378 126.527 138.413 126.491 138.413V138.417Z" fill="#F5F3F1"/>
<path d="M121.55 171.343H121.656V171.097C121.62 171.202 121.585 171.272 121.55 171.343Z" fill="#F5F3F1"/>
<path d="M135.674 139.746C135.779 139.675 135.85 139.605 135.955 139.5C136.131 139.289 136.202 139.011 136.167 138.835C136.061 138.554 135.885 138.417 135.814 138.417C135.814 138.417 135.744 138.488 135.638 138.628C135.603 138.699 135.533 138.769 135.497 138.804C135.533 138.874 135.568 138.91 135.603 138.98C135.674 139.261 135.709 139.503 135.674 139.75V139.746Z" fill="#F5F3F1"/>
<path d="M133.432 134.706C133.432 134.253 133.432 133.761 133.467 133.272V132.921C133.221 132.956 132.978 132.956 132.731 132.956C132.485 132.956 132.207 132.921 131.961 132.886C131.926 133.444 131.785 134.042 131.609 134.601C132.274 134.706 132.833 134.706 133.432 134.706Z" fill="#F5F3F1"/>
<path d="M138.197 127.674C138.792 128.061 139.214 128.795 139.003 129.705C138.792 130.334 138.479 130.792 137.986 131.139C137.951 131.592 137.88 132.014 137.81 132.432C137.774 132.678 137.704 132.886 137.704 133.096C137.634 133.55 137.387 133.972 137.004 134.183C136.757 134.323 136.479 134.429 136.198 134.429C136.022 134.429 135.881 134.393 135.709 134.358C135.427 134.253 135.185 134.183 134.903 134.147V134.706H135.149C135.674 134.706 136.202 134.671 136.726 134.671C137.215 134.671 137.497 134.706 137.708 134.741C137.919 134.776 138.095 134.811 138.443 134.811C139.602 134.741 140.407 134.706 141.421 134.741C141.491 134.288 141.597 133.831 141.667 133.307C141.773 132.784 141.843 132.538 141.914 132.292C141.984 132.116 142.055 131.905 142.125 131.522C142.195 131.135 142.195 130.928 142.231 130.752C142.231 130.506 142.266 130.264 142.371 129.772C142.688 128.479 142.861 127.604 143.072 126.307L143.631 123.404H143.455C143.244 123.404 143.037 123.369 142.614 123.369C141.249 123.439 140.372 123.439 139.073 123.439C137.915 123.369 136.902 123.369 135.85 123.404C137.008 123.72 138.197 124.803 138.197 127.674Z" fill="#F5F3F1"/>
<path d="M128.068 170.573C128.103 170.155 128.487 169.874 128.874 169.909C129.015 169.909 129.156 169.979 129.261 170.085C129.226 169.979 129.156 169.839 129.05 169.733C128.768 169.417 128.35 169.245 127.962 169.069C127.716 168.964 127.509 168.858 127.297 168.753C126.879 168.893 126.456 168.999 125.967 168.999C125.513 168.999 125.02 168.928 124.602 168.718C124.183 168.999 123.76 169.171 123.342 169.346C123.06 169.452 122.782 169.557 122.536 169.698C122.501 169.733 122.466 169.768 122.43 169.804C122.536 169.804 122.642 169.804 122.747 169.874C123.135 170.05 123.271 170.503 123.099 170.854C123.064 170.925 123.064 171.136 123.064 171.343C123.275 171.308 123.553 171.272 124.011 171.272C124.606 171.272 125.134 171.308 125.623 171.343C126.253 171.378 126.847 171.413 127.587 171.413H127.904C127.939 171.167 127.974 171.026 127.974 170.749L128.08 170.573H128.068Z" fill="#F5F3F1"/>
<path d="M121.131 159.377C121.484 158.361 122.289 156.646 123.025 156.193C123.06 156.158 123.095 156.158 123.131 156.122C123.483 155.982 123.796 155.876 124.077 155.771C124.148 155.736 124.218 155.7 124.324 155.665C124.394 155.454 124.465 155.107 124.535 154.825C124.57 154.579 124.641 154.337 124.711 154.091C124.817 153.673 124.922 153.286 125.028 152.935C125.063 152.829 125.063 152.759 125.099 152.688C124.711 152.302 124.68 151.743 124.645 151.184C124.645 150.696 124.891 150.239 125.275 150.028H125.31C125.486 149.012 126.01 148.243 126.816 147.825C125.658 147.789 124.504 147.789 123.416 147.789H120.998C120.963 148 120.928 148.141 120.928 148.313C120.893 148.559 120.858 148.801 120.787 149.258C120.47 150.551 120.333 151.391 120.157 152.759C120.052 153.282 119.981 153.528 119.911 153.774C119.84 153.985 119.77 154.161 119.699 154.579C119.629 154.997 119.594 155.208 119.559 155.419C119.523 155.665 119.488 155.908 119.418 156.365C119.207 157.521 118.999 158.361 118.717 159.408C119.559 159.373 120.329 159.373 121.135 159.373L121.131 159.377Z" fill="#F5F3F1"/>
<path d="M124.703 145.66C125.368 145.414 125.861 145.207 126.21 144.926C126.245 144.891 126.28 144.856 126.315 144.82C126.875 144.297 127.262 143.422 127.575 142.723C127.156 142.441 126.839 142.094 126.628 141.672C125.576 141.461 125.228 141.113 124.84 139.886C124.488 139.011 124.84 137.788 125.611 137.226C125.717 137.156 125.822 137.12 125.928 137.05C125.963 136.698 126.069 136.386 126.174 136.105C125.893 136.105 125.721 136.14 125.545 136.175C125.298 136.21 125.055 136.245 124.563 136.245C124.07 136.245 123.827 136.21 123.616 136.175C123.545 136.175 123.44 136.14 123.334 136.14C123.334 136.175 123.334 136.21 123.299 136.28C123.158 137.05 123.017 137.855 122.81 138.66C122.669 139.253 122.563 139.816 122.422 140.41C122.141 141.566 121.898 142.648 121.722 143.91C121.581 144.856 121.44 145.59 121.268 146.324H121.409C122.775 146.289 123.862 146.078 124.703 145.66Z" fill="#F5F3F1"/>
<path d="M121.902 168.405C122.219 168.229 122.567 168.089 122.884 167.987C123.338 167.811 123.76 167.635 124.077 167.358C124.43 167.042 124.602 166.729 124.672 166.483C124.566 166.413 124.496 166.342 124.426 166.272C124.109 166.272 123.796 166.237 123.514 165.991C123.127 165.639 123.095 165.116 123.06 164.662C123.06 164.209 123.271 163.822 123.62 163.576C123.62 163.506 123.655 163.436 123.655 163.365C123.444 163.154 123.303 162.877 123.303 162.596C123.303 161.826 124.109 161.303 124.809 161.057C125.091 160.951 125.368 160.916 125.65 160.881C125.298 160.881 124.95 160.916 124.598 160.916C124.144 160.916 123.686 160.951 123.232 160.951C121.585 160.881 120.149 160.881 118.432 160.916C118.326 161.756 118.185 162.49 117.978 163.436C117.661 165.362 117.348 166.936 116.855 168.753C116.714 169.663 116.609 170.397 116.437 171.308H116.996C117.485 171.308 117.767 171.343 117.978 171.378C118.189 171.413 118.365 171.448 118.749 171.448C119.132 171.448 119.343 171.413 119.555 171.413C119.66 171.413 119.801 171.378 119.942 171.378C120.294 170.468 121.135 168.823 121.906 168.405H121.902Z" fill="#F5F3F1"/>
<path d="M124.879 128.057C124.668 129.002 124.527 129.877 124.39 130.788C124.25 131.628 124.109 132.468 123.901 133.378C123.796 133.831 123.69 134.253 123.62 134.671C123.69 134.671 123.725 134.671 123.76 134.706C123.972 134.741 124.148 134.741 124.531 134.741C124.915 134.741 125.091 134.706 125.302 134.671C125.548 134.636 125.791 134.601 126.284 134.601C126.777 134.601 127.019 134.636 127.266 134.671C127.442 134.706 127.653 134.741 128.037 134.741H130.001C130.071 134.565 130.141 134.354 130.212 134.112C129.652 134.147 129.124 134.218 128.847 134.253L128.706 134.288H128.6C128.389 134.288 128.111 134.183 127.97 133.972C127.865 133.831 127.759 133.62 127.794 133.307C127.829 132.643 128.005 131.663 128.146 130.963L128.076 130.893C127.688 130.506 127.305 129.948 127.305 129.037C127.375 128.268 127.759 127.674 128.322 127.393C128.674 125.853 129.41 124.662 130.529 123.928C130.916 123.681 131.335 123.474 131.789 123.334C131.264 123.334 130.771 123.369 130.177 123.369C129.124 123.334 128.213 123.334 127.336 123.369H125.795C125.548 124.349 125.376 125.295 125.2 126.236C125.13 126.9 125.024 127.459 124.883 128.057H124.879Z" fill="#F5F3F1"/>
<path d="M132.626 160.81C132.555 160.846 132.52 160.846 132.45 160.846H132.415C132.344 160.846 132.239 160.81 132.168 160.81H130.239C130.204 160.81 130.204 160.846 130.169 160.846H130.063C129.782 160.846 129.645 160.881 129.469 160.916C129.222 160.951 128.98 160.986 128.487 160.986C127.857 160.951 127.293 160.916 126.734 160.916C127.293 160.986 127.821 161.197 128.24 161.545C128.87 162.068 129.222 162.803 129.222 163.713C129.676 164.03 129.958 164.588 129.782 165.147C129.429 166.37 128.694 166.44 127.994 166.37C127.923 166.44 127.818 166.51 127.712 166.581C127.642 167.421 127.853 167.526 128.518 167.803C129.007 168.014 129.641 168.257 130.2 168.889C130.795 169.659 130.9 170.429 130.971 171.093C130.971 171.233 131.006 171.339 131.041 171.48C131.671 171.48 132.336 171.48 133.005 171.55C133.357 171.55 133.53 171.515 133.741 171.48C133.882 171.444 134.058 171.444 134.265 171.409C134.512 169.905 134.825 168.471 135.247 166.616C135.494 165.565 135.701 164.584 135.877 163.608C136.018 162.908 136.159 162.174 136.331 161.404C136.366 161.264 136.366 161.158 136.401 161.053C135.349 161.017 134.367 160.982 133.354 160.982C133.107 160.807 132.864 160.807 132.618 160.807L132.626 160.81Z" fill="#F5F3F1"/>
<path d="M135.357 174.773C135.881 174.808 136.444 174.808 137.039 174.843C137.109 174.425 137.145 174.214 137.215 174.003C137.25 173.827 137.321 173.585 137.391 173.234C137.461 172.847 137.497 172.64 137.497 172.429C137.497 172.183 137.532 171.941 137.638 171.413C137.743 170.925 137.814 170.714 137.884 170.468C137.954 170.257 137.99 170.081 138.095 169.663C138.166 169.276 138.201 169.069 138.201 168.858C138.201 168.612 138.236 168.37 138.342 167.878C138.447 167.389 138.518 167.108 138.623 166.897C138.694 166.686 138.764 166.51 138.835 166.127L139.429 162.592C139.746 161.193 139.918 160.318 140.059 159.091C140.165 158.568 140.235 158.322 140.341 158.076C140.411 157.865 140.482 157.689 140.552 157.306C140.623 156.919 140.658 156.712 140.658 156.501C140.693 156.255 140.693 156.013 140.799 155.521C140.869 155.103 140.904 154.892 140.94 154.681C140.975 154.435 141.01 154.228 141.08 153.735C141.186 153.247 141.256 153.001 141.362 152.755C141.432 152.544 141.503 152.368 141.573 151.985L141.925 150.2C141.996 149.813 141.996 149.641 142.031 149.43C142.031 149.184 142.066 148.907 142.137 148.415C142.207 147.961 142.278 147.75 142.313 147.539C142.348 147.328 142.418 147.086 142.489 146.664C142.665 145.543 142.907 144.496 143.154 143.48C143.33 142.816 143.471 142.117 143.643 141.383C143.713 140.996 143.713 140.824 143.713 140.613C143.713 140.367 143.749 140.089 143.854 139.597C143.96 139.109 144.03 138.863 144.101 138.652C144.171 138.476 144.242 138.265 144.312 137.882C144.558 136.624 144.699 135.714 144.907 134.347C145.118 133.331 145.294 132.596 145.501 131.792L145.748 130.776C145.818 130.424 145.818 130.252 145.818 130.041C145.818 129.795 145.853 129.518 145.924 129.026L146.276 127.24C146.382 126.682 146.487 126.225 146.593 125.771C146.734 125.142 146.875 124.514 147.047 123.74C147.117 123.322 147.188 123.076 147.223 122.865C147.258 122.654 147.293 122.412 147.399 121.955C147.504 121.396 147.364 120.869 147.047 120.451C146.695 120.033 146.206 119.786 145.646 119.786C145.259 119.786 145.087 119.822 144.875 119.857C144.629 119.892 144.386 119.927 143.858 119.927C143.369 119.927 143.123 119.892 142.876 119.857C142.665 119.822 142.489 119.822 142.07 119.822C140.775 119.892 139.864 119.892 138.494 119.822C137.794 119.857 137.199 119.857 136.53 119.892L134.989 119.927C133.588 119.857 132.712 119.822 131.448 119.857C130.083 119.892 129.206 119.857 127.837 119.822C127.45 119.822 127.278 119.857 127.066 119.857C126.82 119.892 126.577 119.927 126.084 119.927C125.591 119.927 125.349 119.892 125.138 119.892C124.926 119.857 124.719 119.857 124.332 119.857C123.944 119.857 123.737 119.892 123.526 119.892C123.279 119.927 123.037 119.962 122.544 119.962C119.739 119.822 116.937 119.822 113.678 119.927C112.348 119.962 111.401 119.927 110.067 119.857C109.715 119.857 109.508 119.892 109.332 119.927C109.085 119.962 108.843 119.997 108.35 119.997C107.857 119.997 107.614 119.962 107.403 119.962C107.192 119.927 106.984 119.927 106.597 119.927C105.302 119.962 104.391 119.962 102.986 119.857C101.656 119.962 100.744 119.962 99.4805 119.962C98.5337 119.962 97.8334 119.927 97.0275 119.892C96.6754 119.892 96.3272 119.857 95.9046 119.857C94.6801 119.892 93.7333 119.892 92.364 119.892C91.9767 119.892 91.7693 119.927 91.5933 119.962C91.3468 119.997 91.1042 120.033 90.6113 120.033C90.1183 120.033 89.8405 119.997 89.6293 119.962C89.418 119.927 89.2419 119.892 88.8585 119.892C88.4751 119.892 88.2639 119.927 88.0878 119.962C87.8413 119.997 87.5988 120.033 87.1058 120.033C86.6129 120.033 86.3351 119.997 86.0886 119.962C85.8773 119.927 85.7013 119.892 85.3179 119.892C83.3891 119.892 81.8124 119.892 80.0245 119.997C77.501 119.892 75.2945 119.892 72.9119 119.997C71.5112 119.892 70.318 119.927 69.0934 119.927H67.552C65.5175 119.857 63.1349 119.822 60.4745 119.962H59.739C58.7218 119.927 57.9511 119.927 57.286 120.486C56.6561 120.974 56.5153 121.744 56.3392 122.654C56.2688 122.935 56.2336 123.248 56.1631 123.529C55.8462 124.857 55.7093 125.697 55.5333 126.924C55.4276 127.447 55.3572 127.658 55.2516 127.905C55.1812 128.08 55.1107 128.291 55.0403 128.674C54.9699 129.092 54.9347 129.268 54.8995 129.479C54.8643 129.725 54.829 129.932 54.7586 130.389C54.6882 130.776 54.6882 130.948 54.653 131.159C54.6178 131.405 54.6178 131.647 54.5121 132.139C54.4065 132.628 54.3009 132.874 54.2305 133.12C54.16 133.331 54.0896 133.472 54.0192 133.854C53.9488 134.237 53.9136 134.448 53.9136 134.659C53.8783 134.905 53.8783 135.147 53.7727 135.605C53.7023 136.093 53.6319 136.304 53.5614 136.55C53.5262 136.726 53.4558 136.937 53.3854 137.32C53.315 137.706 53.2798 137.913 53.2798 138.124C53.2445 138.37 53.2445 138.613 53.1389 139.105C52.9629 140.121 52.7868 140.855 52.5442 141.765L52.333 142.57C52.2626 142.922 52.2626 143.058 52.2626 143.269C52.2626 143.516 52.2626 143.793 52.1569 144.285C52.0865 144.774 51.9809 145.02 51.9104 145.231C51.84 145.406 51.7696 145.617 51.6992 145.965C51.6288 146.352 51.6288 146.524 51.5935 146.735C51.5583 146.981 51.5583 147.223 51.4527 147.715C51.3823 148.204 51.2766 148.415 51.2062 148.661C51.1358 148.836 51.1006 149.047 50.995 149.43C50.8541 150.094 50.7485 150.688 50.6428 151.251C50.5372 151.774 50.4316 152.267 50.3259 152.896C50.0443 154.681 49.7665 156.255 49.2735 158.146C49.2031 158.498 49.2031 158.705 49.1679 158.881C49.1327 159.127 49.1327 159.369 49.027 159.861C48.9214 160.349 48.851 160.56 48.7806 160.807C48.7102 160.982 48.6749 161.193 48.5693 161.576C48.3228 163.709 47.9042 165.67 47.5169 167.768L47.376 168.538C47.2704 169.026 47.2 169.237 47.1296 169.483C47.0591 169.659 46.9887 169.87 46.9183 170.253C46.8479 170.64 46.8127 170.847 46.8127 171.058C46.7775 171.304 46.7775 171.546 46.6718 172.003C46.4253 173.054 46.2845 173.859 46.0771 174.906H46.2884L46.5701 174.871C46.7814 174.835 46.9887 174.835 47.2 174.835H47.689C47.8651 174.835 48.0059 174.835 48.2133 174.8C48.9488 174.8 49.5083 174.835 50.0716 174.871C50.459 174.871 50.8776 174.906 51.2962 174.906C51.6835 174.906 52.1021 174.906 52.5208 174.871H52.6264C52.8729 174.835 53.1154 174.8 53.6084 174.8C53.9605 174.8 54.1679 174.8 54.3791 174.835H54.4848C54.9386 174.835 55.1851 174.871 55.3963 174.871H55.5724C55.678 174.871 55.8189 174.906 55.991 174.906H57.1491C57.3955 174.871 57.6381 174.835 58.1311 174.835H58.5849C59.6725 174.8 60.721 174.835 61.7382 174.906H62.2273L65.3102 174.871C65.5919 174.871 65.7992 174.871 65.9753 174.906H66.0809C66.7812 174.941 67.3055 174.941 67.8689 174.941C67.9393 174.941 67.9745 174.941 68.0449 174.906C68.3266 174.871 68.5692 174.871 68.9565 174.871H69.2734C69.6607 174.906 69.9737 174.871 70.2906 174.906C71.0261 174.906 71.6912 174.871 72.5324 174.871C73.0918 174.871 73.3031 174.871 73.5496 174.906C73.6552 174.906 73.7256 174.906 73.8313 174.941C74.8132 174.941 75.7952 174.941 76.7733 174.976H77.6145C77.861 174.941 78.0683 174.976 78.2796 174.976H78.5261C78.8077 174.976 79.0503 174.976 79.2968 175.011H79.4024C79.6489 175.011 79.8563 174.976 80.3492 174.976H80.9439C81.0143 174.976 81.1199 174.976 81.2256 174.941H81.5073C82.0667 174.941 82.3484 174.976 82.5949 175.011L82.8766 175.046H83.0878C83.3695 175.046 83.6825 175.011 83.9642 175.011C84.2459 174.976 84.5237 174.976 84.8054 174.976C85.4 174.941 85.9986 174.941 86.6989 174.941H88.7998C89.2185 174.941 89.5002 174.941 89.7818 175.011C89.9931 175.046 90.134 175.046 90.4469 175.081H92.4109C92.8648 175.081 93.3225 175.046 93.7763 175.046L94.9344 175.011C95.7403 174.976 96.7575 174.941 97.806 175.011C99.2419 174.976 100.713 174.941 102.36 175.081C102.501 175.081 102.642 175.117 102.779 175.117L103.62 175.081H104.496C104.637 175.081 104.813 175.081 104.985 175.046H105.091C106.108 175.011 107.055 175.046 107.826 175.081H108.178C108.389 175.046 108.631 175.046 109.054 175.046H110.842C112.172 175.117 113.049 175.117 114.383 175.046H115.118C115.365 175.011 115.607 175.011 115.818 174.976H115.959C117.117 175.011 118.236 175.011 119.359 175.011C120.584 175.011 121.847 175.011 123.178 175.081C123.565 175.081 123.772 175.046 123.983 175.046C124.23 175.011 124.473 175.011 124.965 175.011C125.384 175.011 125.631 175.011 125.842 175.046C125.983 175.046 126.088 175.081 126.194 175.081C126.44 175.081 126.683 175.046 126.929 175.046C127.383 175.046 127.7 175.082 127.911 175.117C128.647 175.117 129.312 175.081 130.329 175.011C130.818 175.011 131.1 175.011 131.382 175.081H131.487C131.699 175.046 131.941 175.011 132.364 175.011H133.275C133.451 174.976 133.663 174.976 133.976 174.976C134.328 174.73 134.852 174.73 135.341 174.765L135.357 174.773ZM129.785 172.847C129.085 172.847 128.42 172.882 127.649 172.847C126.914 172.847 126.284 172.812 125.65 172.777C125.161 172.741 124.668 172.741 124.073 172.706C123.686 172.706 123.514 172.741 123.303 172.777C123.056 172.812 122.814 172.847 122.321 172.847C121.867 172.847 121.62 172.812 121.374 172.812C121.163 172.812 120.955 172.777 120.533 172.777C120.145 172.777 119.938 172.812 119.727 172.812C119.48 172.847 119.238 172.882 118.745 172.882C118.252 172.882 117.974 172.847 117.763 172.812C117.552 172.777 117.376 172.741 116.992 172.741C116.574 172.741 116.397 172.777 116.186 172.777C115.94 172.812 115.697 172.812 115.239 172.812C113.909 172.847 112.998 172.882 111.664 172.812C110.298 172.847 109.387 172.847 108.123 172.812C107.669 172.812 107.423 172.777 107.176 172.777C106.965 172.741 106.757 172.741 106.37 172.741C105.952 172.741 105.74 172.741 105.529 172.777C105.283 172.812 105.04 172.812 104.582 172.812C103.252 172.777 102.34 172.812 101.042 172.847C100.553 172.847 100.306 172.812 100.06 172.777C99.8483 172.741 99.6722 172.741 99.2536 172.741C98.8663 172.741 98.6589 172.777 98.4829 172.812C98.2364 172.847 97.9938 172.882 97.5009 172.882C97.0079 172.882 96.7654 172.847 96.5189 172.812C96.3076 172.777 96.1316 172.777 95.7129 172.777C95.2943 172.777 95.0831 172.777 94.8718 172.812C94.6253 172.812 94.418 172.847 93.925 172.847C92.5596 172.777 91.4016 172.812 90.1418 172.847C89.6527 172.847 89.1598 172.882 88.6355 172.882C86.1825 172.812 83.9759 172.812 81.5229 172.812H81.206C80.048 172.812 79.2068 172.777 77.9822 172.812C77.5636 172.812 77.3524 172.812 77.1411 172.847C76.8946 172.882 76.6873 172.882 76.1943 172.882C75.7013 172.882 75.4588 172.847 75.2475 172.847C75.0363 172.812 74.8289 172.812 74.4416 172.812C73.1466 172.882 72.235 172.952 70.8657 172.917C69.6059 172.917 68.6944 172.882 67.4307 172.812H67.2898C66.9377 172.812 66.7304 172.847 66.5543 172.882C66.3078 172.917 66.0653 172.952 65.5723 172.952C65.0794 172.952 64.8368 172.917 64.5903 172.882C64.3791 172.847 64.203 172.847 63.7844 172.847H61.9964C61.5778 172.847 61.4018 172.882 61.1905 172.882C60.944 172.917 60.7015 172.917 60.2437 172.917C59.7547 172.917 59.5082 172.882 59.2617 172.847C59.0505 172.812 58.8744 172.777 58.4558 172.777H56.6678C56.2805 172.777 56.0732 172.812 55.8619 172.847C55.6154 172.882 55.3729 172.917 54.8799 172.917C54.1092 172.917 53.4793 172.882 52.8455 172.847C52.3564 172.812 51.8635 172.812 51.304 172.777H51.1984C50.9871 172.741 50.6741 172.777 50.3572 172.812C49.833 172.882 49.3048 172.952 48.9214 172.53C48.8158 172.39 48.6045 172.112 48.7102 171.69C48.8862 170.397 49.0623 169.487 49.4105 168.155C49.5513 166.999 49.6569 166.022 49.9347 164.655C50.0403 164.201 50.1108 163.99 50.1812 163.744C50.2516 163.533 50.322 163.358 50.3925 162.94C50.6037 161.576 50.7798 160.701 51.0576 159.404C51.1632 158.951 51.1984 158.74 51.2688 158.494C51.3392 158.283 51.3745 158.076 51.4801 157.689C51.5505 157.337 51.5505 157.165 51.5505 156.955C51.5505 156.708 51.5505 156.431 51.6561 155.904C51.797 155.38 51.9026 154.923 52.0082 154.505C52.1843 153.841 52.3251 153.212 52.4973 152.442C52.5677 152.091 52.5677 151.919 52.5677 151.708C52.5677 151.462 52.5677 151.184 52.6733 150.657C52.779 150.169 52.8846 149.923 52.955 149.712C53.0255 149.501 53.0959 149.325 53.1663 148.977C53.4128 147.719 53.5849 146.809 53.7962 145.582L53.8314 145.477C53.937 144.883 54.0427 144.32 54.1835 143.762C54.43 142.605 54.6373 141.488 54.7782 140.261C55.0599 138.863 55.2672 138.023 55.4433 136.726C55.5489 136.237 55.6193 135.991 55.725 135.745C55.7954 135.534 55.8658 135.358 55.9362 134.976C56.1475 133.718 56.2883 132.843 56.5661 131.475C56.6718 131.022 56.7422 130.776 56.8126 130.565C56.883 130.354 56.9182 130.178 57.0239 129.76L57.5833 126.26C57.689 125.736 57.7594 125.49 57.865 125.279C57.9354 125.103 58.0059 124.892 58.0763 124.51C58.1467 124.092 58.1819 123.881 58.1819 123.705C58.2171 123.459 58.2171 123.216 58.3228 122.759C58.3932 122.341 58.7766 121.99 59.2695 121.99C59.6882 121.99 59.8994 121.99 60.1107 121.955C60.3572 121.955 60.5645 121.919 61.0575 121.919C63.0919 121.955 65.052 121.955 67.0512 121.99C68.5926 121.99 70.1341 122.025 71.7108 122.025C72.6223 122.025 73.4283 121.99 74.3046 121.955C75.181 121.919 76.0574 121.849 77.0042 121.884C77.4932 121.884 77.7397 121.919 77.9862 121.955C78.1974 121.99 78.3735 122.025 78.7569 122.025C79.1755 122.025 79.3868 122.025 79.598 121.99C79.8445 121.955 80.0871 121.955 80.5448 121.955C81.0339 121.955 81.2451 121.99 81.4916 121.99C81.7029 121.99 81.9102 122.025 82.3328 122.025C82.7201 122.025 82.9274 121.99 83.1387 121.99C83.3852 121.955 83.6277 121.919 84.1207 121.919C84.6137 121.919 84.8562 121.955 85.1027 121.99C85.314 122.025 85.49 122.025 85.9086 122.025C86.3273 122.025 86.5033 121.99 86.7146 121.99C86.961 121.955 87.2036 121.955 87.6966 121.955C88.1895 121.955 88.4321 121.99 88.6786 122.025C88.8898 122.06 89.0659 122.06 89.4845 122.06C90.8499 122.06 91.7615 121.99 92.99 121.955C93.5142 121.955 93.7959 121.99 94.0072 122.025C94.2184 122.06 94.3945 122.095 94.7779 122.095C95.1613 122.095 95.3374 122.06 95.5486 122.025C95.7951 121.99 96.0377 121.955 96.5658 121.955C97.0197 121.955 97.2661 121.955 97.5126 121.99C97.7239 121.99 97.9312 122.025 98.3538 122.025C99.8952 121.919 101.296 121.99 102.806 122.06L103.718 122.095C105.611 121.955 107.188 121.919 109.077 122.095C109.43 122.095 109.637 122.06 109.813 122.06C110.059 122.025 110.302 122.025 110.76 122.025C111.249 122.025 111.531 122.06 111.742 122.095C111.953 122.13 112.129 122.166 112.548 122.166C112.935 122.166 113.142 122.13 113.354 122.13C113.6 122.095 113.843 122.06 114.336 122.06C114.789 122.06 115.036 122.06 115.282 122.095C115.494 122.095 115.701 122.13 116.124 122.13C116.511 122.13 116.718 122.095 116.93 122.095C117.176 122.06 117.419 122.025 117.912 122.025C119.347 122.095 120.189 122.095 121.452 122.06L122.223 122.095C123.205 122.13 123.976 122.166 125.028 122.166H125.204C125.345 122.13 125.486 122.095 125.623 122.13C125.658 122.13 125.658 122.166 125.693 122.166H127.552C128.463 122.166 129.375 122.13 130.392 122.166C131.687 122.095 132.598 122.095 133.968 122.166L134.844 122.13C136.315 122.095 137.716 122.025 139.332 122.13C140.591 122.13 141.432 122.095 142.802 122.06C143.291 122.06 143.537 122.06 143.749 122.095C143.96 122.095 144.167 122.13 144.59 122.13C144.836 122.13 145.079 122.236 145.255 122.412C145.396 122.552 145.501 122.798 145.466 123.181L144.801 126.717C144.59 128.045 144.414 128.955 144.101 130.252C144.03 130.604 144.03 130.811 143.995 130.987C143.995 131.233 143.96 131.475 143.854 131.967C143.749 132.456 143.678 132.667 143.608 132.913C143.537 133.124 143.467 133.3 143.396 133.718C143.185 135.081 143.009 135.991 142.696 137.253C142.485 138.546 142.309 139.421 142.031 140.754C141.644 142.644 141.331 144.395 140.979 146.281C140.803 147.368 140.591 148.415 140.384 149.536C140.278 150.024 140.208 150.27 140.138 150.516C140.067 150.692 139.997 150.903 139.926 151.286C139.821 151.739 139.785 151.95 139.75 152.161C139.715 152.372 139.645 152.579 139.574 153.036C139.398 154.364 139.257 155.275 139.015 156.572C138.526 158.463 138.279 160.037 137.997 161.787C137.821 162.592 137.681 163.291 137.544 164.026C137.332 165.041 137.156 166.022 136.879 167.104C136.389 169.1 136.108 170.64 135.826 172.319C135.791 172.46 135.65 173.054 134.915 173.054C134.527 173.054 134.355 173.089 134.144 173.124C133.897 173.159 133.655 173.195 133.127 173.195C131.832 172.808 130.85 172.843 129.797 172.843L129.785 172.847Z" fill="#F5F3F1"/>
<path d="M128.103 155.247C127.962 154.689 127.962 154.091 127.998 153.567H127.821C127.681 154.267 127.469 154.825 127.262 155.247C127.509 155.282 127.821 155.282 128.103 155.247Z" fill="#F5F3F1"/>
<path d="M138.545 136.28C138.522 136.28 138.522 136.28 138.545 136.28C138.056 136.28 137.81 136.245 137.598 136.21C137.669 136.597 137.634 136.945 137.493 137.226C137.422 137.402 137.282 137.507 137.105 137.613C137.282 137.824 137.458 138.066 137.559 138.382C137.771 139.081 137.63 139.851 137.105 140.445C136.616 141.074 135.881 141.425 135.141 141.425H135.001C134.648 141.914 134.195 142.336 133.706 142.648C133.741 142.789 133.741 142.93 133.776 143.101C133.811 143.383 133.882 143.695 133.917 144.012L133.952 144.188C133.987 144.469 134.058 144.887 134.128 145.063C134.199 145.098 134.234 145.168 134.304 145.203C134.48 145.309 134.793 145.414 135.075 145.485L135.494 145.625C136.37 146.043 137.352 146.289 138.158 146.395H139.245C139.281 146.184 139.316 146.008 139.351 145.801C139.668 143.98 139.981 142.129 140.404 140.238C140.65 138.945 140.822 138.07 141.069 136.773C141.104 136.562 141.139 136.386 141.209 136.214C140.298 136.179 139.598 136.214 138.545 136.284V136.28Z" fill="#F5F3F1"/>
<path d="M138.475 147.899H138.44C138.334 147.899 138.193 147.864 138.087 147.864C136.792 147.829 135.634 147.793 134.339 147.758C133.044 147.829 132.168 147.864 130.869 147.829C130.415 147.864 130.169 147.793 129.958 147.793C130.169 147.899 130.345 148.004 130.517 148.18C131.077 148.739 131.217 149.544 131.253 150.212C131.742 150.563 131.988 151.157 131.847 151.716C131.636 152.415 131.323 152.767 130.971 152.938C130.971 153.149 130.971 153.392 130.936 153.638C130.901 154.372 130.865 155.318 131.006 155.806C132.548 156.54 133.041 157.38 133.142 159.342H133.389C134.476 159.342 135.525 159.377 136.683 159.412C136.859 158.326 137.102 157.208 137.418 155.982C137.665 154.759 137.771 153.919 137.943 152.552C138.048 152.063 138.084 151.852 138.119 151.606C138.154 151.395 138.224 151.188 138.295 150.731C138.4 150.243 138.471 149.997 138.577 149.751C138.647 149.575 138.717 149.364 138.788 148.981C138.858 148.594 138.929 148.247 138.999 147.86H138.647C138.577 147.895 138.506 147.895 138.471 147.895L138.475 147.899Z" fill="#F5F3F1"/>
<path d="M131.644 159.306C131.644 159.201 131.644 159.131 131.609 159.06C131.573 159.166 131.538 159.236 131.503 159.306H131.644Z" fill="#F5F3F1"/>
<path d="M129.504 171.378H129.539C129.539 171.308 129.504 171.272 129.504 171.202V171.378Z" fill="#F5F3F1"/>
<path d="M130.208 145.555C131.014 145.52 131.82 145.344 132.591 145.168C132.52 144.922 132.485 144.645 132.45 144.398L132.415 144.223C132.379 143.906 132.344 143.629 132.309 143.348C132.309 143.312 132.309 143.277 132.274 143.207C131.855 143.277 131.397 143.312 130.873 143.312L130.454 143.348C130.173 143.348 129.895 143.383 129.649 143.383C129.402 143.383 129.16 143.348 128.913 143.312C128.667 143.871 128.354 144.57 127.931 145.168C128.596 145.344 129.437 145.485 130.208 145.551V145.555Z" fill="#F5F3F1"/>
<path d="M136.163 132.956C136.233 132.639 136.303 132.397 136.339 132.151C136.374 132.01 136.374 131.905 136.409 131.764H136.022C135.775 132.081 135.427 132.358 134.969 132.569V132.675C135.357 132.71 135.775 132.815 136.163 132.956Z" fill="#F5F3F1"/>
<path d="M122.951 158.818C122.845 159.029 122.775 159.205 122.704 159.377H122.986C122.951 159.201 122.951 158.99 122.951 158.818Z" fill="#F5F3F1"/>
<path d="M131.362 129.459C131.503 129.389 131.714 129.248 131.749 129.041C131.749 128.83 131.714 128.623 131.362 128.588H131.292C131.08 128.588 130.873 128.658 130.697 128.869C130.732 129.045 130.732 129.256 130.697 129.428V129.534C130.873 129.569 131.116 129.569 131.362 129.463V129.459Z" fill="#F5F3F1"/>
<path d="M126.073 166.831C126.002 167.042 125.897 167.249 125.791 167.46H126.35C126.315 167.284 126.28 167.073 126.28 166.831H126.174C126.139 166.866 126.104 166.831 126.069 166.831H126.073Z" fill="#F5F3F1"/>
<path d="M132.731 130.229C132.52 130.475 132.278 130.647 131.961 130.788C131.644 130.928 131.296 130.999 130.979 130.999C131.049 131.069 131.155 131.139 131.26 131.174C132.102 131.561 133.502 131.491 134.273 131.174C134.379 131.139 134.449 131.069 134.519 130.999C134.449 130.999 134.343 131.034 134.273 131.034C133.608 131.069 133.048 130.752 132.731 130.229Z" fill="#F5F3F1"/>
<path d="M134.203 136.21C133.467 136.21 132.767 136.21 131.996 136.175C131.436 137.015 130.873 137.644 129.962 137.468C129.821 137.433 129.715 137.398 129.609 137.327C129.328 137.538 128.98 137.745 128.592 137.745C128.346 137.745 128.103 137.675 127.857 137.499C127.645 137.323 127.505 137.113 127.438 136.905C127.403 137.011 127.368 137.116 127.368 137.257C127.438 137.292 127.544 137.327 127.614 137.398C127.931 137.644 128.001 138.132 127.72 138.449C127.685 138.519 127.614 138.554 127.544 138.589C127.614 138.589 127.649 138.624 127.72 138.624C128.072 138.8 128.209 139.253 128.037 139.64C127.861 139.992 127.649 140.515 127.861 141.004C128.072 141.492 128.596 141.738 129.019 141.879C129.336 141.984 129.825 141.949 130.384 141.914L130.838 141.879C131.503 141.879 132.098 141.844 132.52 141.668C133.502 141.25 134.343 140.058 134.167 139.57C134.062 139.289 134.167 139.011 134.343 138.8C134.203 138.589 134.167 138.277 134.273 138.031C134.519 137.542 134.903 137.261 135.29 137.12C135.29 137.085 135.29 137.05 135.325 136.98C135.325 136.698 135.572 136.351 135.814 136.245C135.838 136.245 135.861 136.234 135.885 136.21H135.149C134.832 136.21 134.555 136.245 134.238 136.245C134.273 136.175 134.238 136.21 134.203 136.21ZM132.031 140.828C131.679 141.351 131.014 141.562 130.49 141.562H130.349C129.789 141.527 129.367 141.281 129.156 140.863C128.98 140.476 129.12 140.058 129.508 139.882C129.825 139.742 130.208 139.812 130.419 140.093C130.56 140.093 130.771 140.058 130.838 140.023C131.049 139.671 131.503 139.605 131.855 139.812C132.172 139.988 132.274 140.476 132.031 140.828Z" fill="#F5F3F1"/>
<path d="M127.579 150.594C127.368 150.63 127.192 150.7 126.984 150.735C127.055 150.911 127.09 151.122 127.09 151.364V151.47C127.055 151.716 127.055 151.856 127.055 151.923C127.055 151.958 127.09 151.958 127.09 151.993C127.125 152.028 127.372 152.134 127.896 152.063C128.42 152.063 128.702 151.993 128.807 151.888C128.948 151.782 128.983 151.571 129.019 151.188V151.153C128.878 150.735 128.737 150.454 128.631 150.173C128.279 150.419 127.931 150.524 127.579 150.594Z" fill="#F5F3F1"/>
<path d="M134.308 129.596C134.625 129.596 134.903 129.315 134.938 128.967C134.973 128.791 134.938 128.651 134.868 128.58C134.832 128.545 134.762 128.51 134.621 128.51C134.375 128.51 134.234 128.686 134.167 128.791C133.991 129.037 133.991 129.35 134.062 129.491C134.026 129.526 134.097 129.596 134.308 129.596Z" fill="#F5F3F1"/>
<path d="M88.749 167.042H88.5377C88.3265 167.042 88.1191 167.006 87.7318 167.006C87.0315 167.006 86.3664 167.042 85.6974 167.042C84.6802 167.077 83.6316 167.112 82.4736 167.042C82.055 167.077 81.8085 167.006 81.562 166.971C81.386 166.936 81.1747 166.936 80.7913 166.936C79.5315 166.971 78.5847 166.971 77.2858 166.936C76.9337 166.936 76.7616 166.971 76.5503 167.006C76.4095 167.042 76.2686 167.042 76.0965 167.077C75.85 168.057 75.7092 168.968 75.537 169.913C75.4666 170.366 75.361 170.858 75.2553 171.312H75.3258C75.537 171.347 75.7444 171.347 76.1317 171.347C76.5503 171.347 76.7616 171.347 76.9729 171.312C77.2193 171.276 77.4267 171.276 77.9196 171.276C79.1442 171.241 79.9854 171.241 81.1786 171.276H81.4955C83.6669 171.276 85.7013 171.312 87.8374 171.347C87.9078 171.03 87.9783 170.683 88.0487 170.366C88.3304 169.28 88.5729 168.198 88.749 167.042Z" fill="#F5F3F1"/>
<path d="M116.296 164.522C115.877 164.522 115.455 164.487 115.071 164.487C114.512 164.451 113.948 164.451 113.283 164.416C112.896 164.416 112.689 164.451 112.513 164.487C112.266 164.522 112.023 164.557 111.531 164.557C111.038 164.557 110.795 164.522 110.549 164.487C110.337 164.451 110.161 164.416 109.743 164.416C109.355 164.416 109.148 164.451 108.937 164.451C108.69 164.487 108.448 164.522 107.955 164.522C107.43 164.522 107.149 164.487 106.937 164.416C106.726 164.381 106.55 164.346 106.167 164.346C105.783 164.346 105.572 164.381 105.361 164.416C105.114 164.451 104.872 164.487 104.344 164.487H103.467C103.221 164.487 103.013 164.522 102.52 164.522C102.415 164.522 102.309 164.487 102.204 164.451C100.556 164.487 95.4039 164.487 94.1089 164.416C92.2858 164.416 90.6739 164.416 88.8155 164.451C88.3617 164.451 88.1152 164.451 87.9039 164.416H87.0276C86.6403 164.416 86.4681 164.451 86.2568 164.487C86.0104 164.522 85.7678 164.557 85.2396 164.557C84.7506 164.557 84.5393 164.522 84.2929 164.522C84.0816 164.522 83.8742 164.487 83.4517 164.487C82.9979 164.487 82.7514 164.451 82.5049 164.451C82.2937 164.451 82.0863 164.416 81.6638 164.416C81.2764 164.416 81.0691 164.451 80.8578 164.487C80.6114 164.522 80.3688 164.557 79.8758 164.557C79.3829 164.557 79.1403 164.522 78.8938 164.487C78.6826 164.451 78.5065 164.416 78.1231 164.416C77.7397 164.416 77.5284 164.451 77.3172 164.451C77.0707 164.487 76.8281 164.522 76.3352 164.522C75.8109 164.522 75.5644 164.487 75.318 164.416H75.2475C74.8602 164.416 74.3008 164.416 73.6709 164.451C73.4596 164.487 73.217 164.522 72.7945 164.522H71.9181C71.6717 164.522 71.4643 164.557 71.0066 164.557C70.9009 164.557 70.8305 164.522 70.7249 164.487H70.3728C67.8493 164.522 65.3259 164.557 64.872 164.557C64.4182 164.557 64.1717 164.522 63.9252 164.522C63.714 164.522 63.5066 164.487 63.1193 164.487C62.6655 164.487 62.419 164.451 62.2077 164.451C61.9965 164.451 61.7891 164.416 61.4018 164.416C61.0145 164.416 60.8423 164.451 60.6311 164.487C60.3846 164.522 60.142 164.557 59.6491 164.557C59.1561 164.557 58.9135 164.522 58.6671 164.487C58.491 164.451 58.2797 164.416 57.8963 164.416C57.5129 164.416 57.3017 164.451 57.1256 164.451C56.8791 164.487 56.6366 164.522 56.1788 164.522C55.6898 164.522 55.4081 164.487 55.1616 164.416C54.9503 164.381 54.7743 164.346 54.4261 164.346C54.0388 164.346 53.8666 164.381 53.6554 164.416C53.4089 164.451 53.1663 164.487 52.6734 164.487H51.4488C51.4136 164.627 51.3784 164.768 51.3432 164.94C51.0615 166.268 50.9559 167.178 50.8189 168.405C50.5372 169.561 50.3651 170.366 50.2242 171.308C50.5411 171.272 50.9598 171.237 51.3119 171.272C51.8713 171.272 52.3643 171.308 52.8533 171.343C53.4832 171.378 54.0779 171.413 54.8173 171.413C55.2046 171.413 55.412 171.378 55.5881 171.343C55.8345 171.308 56.0771 171.272 56.5701 171.272H58.358C58.847 171.272 59.0935 171.308 59.34 171.343C59.5513 171.378 59.7273 171.413 60.1459 171.413C60.5645 171.413 60.7758 171.378 60.9519 171.378C61.1983 171.343 61.4409 171.343 61.8987 171.343H63.6514C64.1404 171.343 64.3869 171.378 64.6334 171.413C64.8446 171.448 65.0207 171.448 65.4393 171.448C65.8266 171.448 66.034 171.413 66.21 171.378C66.4565 171.343 66.6991 171.308 67.192 171.308H67.4033C68.6279 171.378 69.5042 171.413 70.7679 171.413C71.8908 171.448 72.6967 171.413 73.71 171.343C73.8156 170.784 73.9213 170.222 74.0269 169.663C74.2382 168.542 74.4455 167.46 74.7272 166.233C74.7624 166.057 74.8328 165.916 74.9385 165.815C75.0793 165.674 75.3258 165.604 75.5331 165.604C75.8853 165.604 76.0574 165.569 76.2687 165.534C76.5151 165.498 76.7577 165.463 77.2507 165.463C78.5456 165.498 79.422 165.498 80.6857 165.463C81.1747 165.463 81.4212 165.498 81.6677 165.534C81.8789 165.569 82.055 165.569 82.4384 165.569C83.5613 165.639 84.5041 165.604 85.5565 165.569C86.2216 165.534 86.9219 165.498 87.6223 165.498C88.0761 165.498 88.2874 165.498 88.5338 165.534C88.7451 165.534 88.9524 165.569 89.375 165.569C89.6567 165.569 89.8992 165.674 90.0753 165.885C90.2513 166.096 90.3218 166.338 90.2513 166.584C90.0401 168.053 89.7623 169.35 89.4454 170.749C89.4102 170.96 89.3398 171.167 89.3046 171.378C89.5158 171.378 89.7584 171.378 89.9697 171.343C91.2646 171.308 92.4579 171.272 93.8585 171.343C94.2458 171.343 94.4532 171.343 94.6645 171.308C94.9109 171.308 95.1183 171.272 95.6112 171.272C96.1042 171.272 96.3468 171.308 96.5932 171.343C96.8045 171.378 96.9806 171.378 97.3992 171.378C97.7865 171.378 97.9939 171.343 98.2051 171.308C98.4516 171.272 98.6942 171.237 99.1871 171.237C99.6801 171.237 99.9226 171.272 100.169 171.308C100.38 171.343 100.556 171.343 100.975 171.343C102.235 171.308 103.182 171.272 104.551 171.308C104.938 171.308 105.146 171.308 105.357 171.272C105.603 171.237 105.846 171.237 106.304 171.237C106.793 171.237 107.039 171.272 107.25 171.272C107.462 171.308 107.669 171.308 108.056 171.308C109.281 171.308 110.228 171.343 111.597 171.308C112.857 171.343 113.698 171.343 114.856 171.308C115.067 170.257 115.208 169.417 115.345 168.37C115.764 167.042 116.045 165.85 116.292 164.522H116.296Z" fill="#F5F3F1"/>
<path d="M130.278 158.361C130.455 157.974 130.908 157.837 131.26 158.009C131.331 158.044 131.366 158.08 131.401 158.115C131.12 157.416 130.525 157.134 129.124 156.646C129.089 156.646 129.054 156.611 129.019 156.611C128.6 156.716 128.107 156.787 127.618 156.787C127.023 156.787 126.46 156.716 126.006 156.54C125.619 156.787 125.13 156.958 124.57 157.169C124.324 157.275 124.046 157.38 123.764 157.486C123.694 157.556 123.588 157.697 123.483 157.837C123.659 157.767 123.87 157.767 124.042 157.837C124.43 158.013 124.602 158.431 124.43 158.818C124.43 158.853 124.394 158.959 124.465 159.377H124.57C125.865 159.342 127.129 159.306 128.53 159.412C128.847 159.412 129.019 159.377 129.23 159.342C129.371 159.306 129.547 159.306 129.789 159.271C130.036 158.92 130.106 158.818 130.278 158.361Z" fill="#F5F3F1"/>
<path d="M125.826 164.487C125.791 164.451 125.756 164.451 125.721 164.416C125.685 164.451 125.615 164.487 125.545 164.522C125.545 164.592 125.58 164.698 125.58 164.803V164.909C125.509 165.225 125.58 165.295 125.58 165.295C125.615 165.33 125.791 165.436 126.315 165.401C126.804 165.401 127.051 165.33 127.156 165.155C127.156 165.155 127.156 165.119 127.192 165.119C127.262 165.014 127.262 164.838 127.297 164.631C127.297 164.561 127.332 164.42 127.368 164.35C127.368 164.315 127.403 164.315 127.403 164.28C126.808 164.662 126.28 164.733 125.826 164.49V164.487Z" fill="#F5F3F1"/>
<path d="M126.597 162.596C126.632 162.631 126.667 162.666 126.703 162.666C126.703 162.666 126.703 162.631 126.738 162.631C126.773 162.561 126.843 162.49 126.914 162.42C126.46 162.244 125.897 162.244 125.302 162.455C125.372 162.561 125.408 162.666 125.443 162.772C125.548 162.701 125.619 162.666 125.724 162.596C125.971 162.42 126.39 162.42 126.601 162.596H126.597Z" fill="#F5F3F1"/>
<path d="M133.044 127.779H132.798C132.833 127.815 132.868 127.885 132.904 127.92C132.974 127.885 133.009 127.815 133.044 127.779Z" fill="#F5F3F1"/>
<path d="M129.574 131.733H129.539C129.469 132.049 129.433 132.397 129.363 132.749C129.715 132.714 130.098 132.678 130.486 132.678V132.503C130.134 132.292 129.821 132.049 129.574 131.733Z" fill="#F5F3F1"/>
<path d="M136.796 130.088L136.972 130.018C137.254 129.877 137.461 129.737 137.567 129.319C137.602 129.073 137.461 128.932 137.356 128.901H137.321C137.109 128.901 137.004 129.252 136.969 129.354C136.898 129.565 136.863 129.807 136.792 130.088H136.796Z" fill="#F5F3F1"/>
<path d="M53.4949 162.947C53.7414 162.912 53.984 162.877 54.4769 162.877C54.9699 162.877 55.2477 162.912 55.4941 162.983C55.7054 163.018 55.8815 163.053 56.2297 163.053C56.617 163.053 56.8243 163.018 57.0004 163.018C57.2469 162.983 57.4894 162.947 57.9472 162.947C58.4362 162.947 58.6827 162.983 58.9292 163.018C59.1052 163.053 59.3165 163.088 59.6999 163.088C60.0833 163.088 60.2594 163.053 60.4706 163.018C60.7171 162.983 60.9597 162.947 61.4526 162.947C61.9065 162.947 62.1529 162.983 62.3994 162.983C62.6107 162.983 62.818 163.018 63.2053 163.018C63.6592 163.018 63.9057 163.053 64.1521 163.053C64.3634 163.053 64.5707 163.088 64.9581 163.088C65.3767 163.088 67.9001 163.053 70.4236 163.018C71.5464 163.018 72.6654 162.983 73.6122 162.983C73.8586 162.947 74.1012 162.912 74.6294 162.912C75.0167 162.912 75.224 162.947 75.4353 162.983H75.9243C76.0652 162.983 76.1708 163.018 76.2765 163.088H76.4173C76.8046 163.088 77.012 163.053 77.2232 163.053C77.4697 163.018 77.7123 162.983 78.2052 162.983C78.6982 162.983 78.9408 163.018 79.1872 163.053C79.3985 163.088 79.5746 163.123 79.958 163.123C80.3414 163.123 80.5526 163.088 80.7639 163.053C81.0104 163.018 81.2529 162.983 81.7459 162.983C82.2389 162.983 82.4462 163.018 82.6927 163.018C82.9039 163.018 83.1113 163.053 83.5338 163.053C83.9877 163.053 84.2341 163.088 84.4806 163.088C84.6919 163.088 84.8992 163.123 85.3218 163.123C85.7091 163.123 85.8812 163.088 86.0925 163.053C86.339 163.018 86.5815 162.983 87.1097 162.983C87.5635 162.983 87.81 162.983 88.0213 163.018H88.8976C90.7912 162.983 92.3679 162.983 94.2575 162.983C95.5877 163.053 101.128 163.053 102.458 163.018C102.563 163.018 102.704 163.053 102.81 163.088H104.457C104.844 163.088 105.016 163.053 105.228 163.018C105.474 162.983 105.717 162.947 106.245 162.947C106.773 162.947 107.016 162.983 107.262 163.053C107.473 163.088 107.649 163.123 108.033 163.123C108.451 163.123 108.663 163.088 108.839 163.088C109.085 163.053 109.328 163.018 109.821 163.018C110.314 163.018 110.556 163.053 110.803 163.088C111.014 163.123 111.19 163.158 111.609 163.158C111.996 163.158 112.203 163.123 112.415 163.088C112.661 163.053 112.904 163.018 113.397 163.018C114.097 163.018 114.656 163.053 115.22 163.088C115.674 163.088 116.167 163.123 116.656 163.123C116.902 161.932 117.008 161.092 117.18 159.939L117.25 159.521C117.567 158.263 117.775 157.423 118.021 156.161C118.091 155.743 118.127 155.532 118.162 155.322C118.197 155.075 118.232 154.833 118.303 154.376C118.408 153.888 118.479 153.642 118.549 153.396C118.62 153.185 118.69 153.009 118.761 152.591C118.937 151.227 119.113 150.317 119.426 149.02C119.496 148.633 119.531 148.426 119.531 148.215C119.566 147.969 119.602 147.727 119.672 147.27C119.954 146.047 120.161 145.137 120.372 143.77C120.548 142.476 120.791 141.355 121.073 140.164C121.214 139.605 121.319 139.042 121.46 138.449C121.636 137.609 121.777 136.839 121.914 136.105C122.09 135.159 122.266 134.179 122.544 133.132C122.72 132.257 122.861 131.452 122.998 130.647C123.138 129.772 123.279 128.826 123.522 127.846C123.627 127.287 123.733 126.69 123.839 126.131C123.98 125.256 124.156 124.381 124.363 123.506C123.522 123.506 122.822 123.47 122.016 123.435L121.315 123.4C120.091 123.435 119.179 123.435 117.739 123.365C117.387 123.365 117.18 123.4 116.969 123.4C116.722 123.435 116.48 123.47 115.987 123.47C115.533 123.47 115.286 123.47 115.04 123.435C114.829 123.435 114.621 123.4 114.199 123.4C113.811 123.4 113.604 123.435 113.393 123.435C113.146 123.47 112.904 123.506 112.411 123.506C111.918 123.506 111.64 123.47 111.429 123.435C111.218 123.4 111.041 123.365 110.658 123.365C110.239 123.365 110.063 123.4 109.852 123.4C109.606 123.435 109.363 123.435 108.905 123.435C107.047 123.295 105.541 123.33 103.647 123.435L102.665 123.4C101.159 123.33 99.86 123.295 98.3186 123.365C97.7943 123.365 97.5478 123.365 97.3366 123.33C97.1253 123.33 96.9179 123.295 96.4954 123.295C96.1081 123.295 95.9359 123.33 95.7247 123.365C95.4782 123.4 95.2356 123.435 94.7075 123.435C94.2184 123.435 93.9367 123.4 93.7255 123.365C93.5142 123.33 93.3382 123.295 92.9547 123.295C91.7302 123.365 90.8186 123.4 89.4141 123.4C88.925 123.4 88.6786 123.365 88.4321 123.33C88.2208 123.295 88.0448 123.295 87.6261 123.295C87.2075 123.295 87.0315 123.33 86.8202 123.33C86.5737 123.365 86.3312 123.365 85.8734 123.365C85.3844 123.365 85.1379 123.33 84.8914 123.295C84.6802 123.259 84.5041 123.259 84.0855 123.259C83.6982 123.259 83.4908 123.295 83.2795 123.295C83.0331 123.33 82.7905 123.365 82.2975 123.365C81.8046 123.365 81.5972 123.33 81.3508 123.33C81.1395 123.33 80.9321 123.295 80.5096 123.295C80.0871 123.295 79.8797 123.295 79.6685 123.33C79.422 123.365 79.1794 123.365 78.7217 123.365C78.2326 123.365 77.9509 123.33 77.7397 123.295C77.5284 123.259 77.3524 123.224 76.9689 123.224C76.0574 123.224 75.2162 123.259 74.3399 123.295C73.4635 123.33 72.5871 123.365 71.6403 123.365C70.0637 123.33 68.5222 123.33 66.9808 123.33C64.9815 123.33 63.0215 123.295 60.9871 123.259C60.5684 123.259 60.3572 123.259 60.1459 123.295C60.0051 123.295 59.8642 123.295 59.6569 123.33C59.6217 123.47 59.6216 123.611 59.6216 123.717C59.5864 123.963 59.5864 124.205 59.4808 124.662C59.3752 125.15 59.3047 125.396 59.2343 125.643C59.1639 125.818 59.0935 126.029 59.0231 126.412L58.4636 129.913C58.358 130.401 58.2875 130.647 58.2171 130.893C58.1467 131.104 58.1115 131.28 58.0059 131.698C57.7242 133.026 57.552 133.901 57.376 135.163C57.2703 135.687 57.1999 135.933 57.0943 136.179C57.0239 136.355 56.9534 136.566 56.883 136.948C56.6717 138.242 56.4644 139.187 56.2179 140.449C56.0771 141.672 55.8658 142.828 55.6232 144.02C55.5176 144.578 55.412 145.141 55.3063 145.699L55.2711 145.805C55.0599 147.063 54.8838 147.938 54.6412 149.2C54.5356 149.688 54.4652 149.969 54.3596 150.18C54.2891 150.391 54.2187 150.532 54.1483 150.915C54.0779 151.266 54.0779 151.473 54.0779 151.649C54.0779 151.895 54.0779 152.173 53.9722 152.7C53.7962 153.505 53.6201 154.169 53.448 154.833C53.3424 155.251 53.2367 155.708 53.0959 156.197C53.0255 156.548 53.0255 156.72 53.0255 156.931C53.0255 157.177 53.0255 157.455 52.9198 157.982C52.8142 158.435 52.779 158.681 52.7086 158.892C52.6381 159.103 52.6029 159.31 52.4973 159.697C52.2508 160.889 52.0787 161.76 51.8674 162.951H52.7438C53.0959 163.022 53.268 162.986 53.4793 162.951L53.4949 162.947ZM75.5722 144.262C75.8891 141.461 76.6247 139.257 77.8492 137.472C78.303 136.843 78.7256 136.144 79.109 135.476C79.4259 134.987 79.7037 134.495 80.0206 134.007L80.1262 133.831C80.4431 133.378 80.7209 132.886 81.2138 132.467C81.4251 132.257 81.6324 132.014 81.8085 131.768C81.9846 131.557 82.1254 131.35 82.3328 131.139C82.7866 130.651 83.35 130.229 83.8742 129.846C84.9266 129.077 86.0808 128.377 87.3444 127.783C89.9383 126.592 92.6378 125.963 95.1926 125.963C97.2935 125.963 99.2223 126.35 101.464 127.256C101.605 127.326 101.746 127.397 101.883 127.432C102.689 127.643 103.459 127.885 104.23 128.201C106.124 128.936 107.736 130.37 108.925 131.772C109.449 132.401 109.942 133.03 110.255 133.768C110.431 134.186 110.642 134.644 110.85 135.062C111.131 135.62 111.096 136.218 111.444 136.777C111.832 137.406 111.863 138.21 111.969 138.91C112.18 140.519 112.18 142.199 111.898 143.844C111.546 146.012 110.811 148.184 109.692 150.247C109.167 151.192 108.432 152.102 107.869 153.048C107.344 153.958 106.675 154.587 105.803 155.322C102.579 158.158 98.655 160.291 94.238 160.639C92.8374 160.99 91.4328 161.197 89.997 161.197C89.4728 161.197 88.9446 161.162 88.4203 161.127C85.7208 160.846 83.3734 159.799 81.3781 158.853C80.4666 158.4 79.9423 157.697 79.4846 157.033C79.3789 156.892 79.3085 156.787 79.2029 156.646L79.1325 156.54C78.3969 155.56 77.6262 154.579 77.0668 153.462C76.6129 152.552 76.2256 151.536 75.9439 150.524C75.8031 149.965 75.6974 149.368 75.627 148.95C75.5918 148.633 75.5918 148.356 75.5566 148.11C75.5566 147.934 75.5566 147.758 75.5214 147.586C75.451 146.5 75.4157 145.418 75.5566 144.262H75.5722Z" fill="#F5F3F1"/>
<path d="M129.156 128.791C129.12 128.791 129.12 128.756 129.085 128.756C129.05 128.756 129.015 128.756 129.015 128.791C128.909 128.826 128.839 128.967 128.839 129.143C128.839 129.459 128.98 129.666 129.191 129.913V129.842C129.12 129.596 129.085 129.319 129.12 129.037C129.12 128.932 129.12 128.862 129.156 128.791Z" fill="#F5F3F1"/>
<path d="M132.555 126.272H132.696V126.236C132.731 126.131 132.802 126.025 132.872 125.818C132.978 125.502 133.291 125.26 133.643 125.26H133.678C133.995 125.26 134.308 125.506 134.379 125.818C134.414 125.994 134.449 126.064 134.484 126.17C135.325 126.24 135.99 126.729 136.448 127.569C136.519 127.533 136.624 127.498 136.695 127.463C136.624 125.119 135.713 124.697 134.872 124.662C133.436 124.381 132.242 124.556 131.401 125.15C130.807 125.537 130.349 126.166 130.071 126.936C130.736 126.272 131.718 126.272 132.559 126.272H132.555Z" fill="#F5F3F1"/>
<path d="M43.718 176.312C43.4715 176.347 43.229 176.347 42.736 176.347C42.2118 176.347 41.9653 176.312 41.7188 176.277C41.5075 176.242 41.3315 176.207 40.9481 176.207C40.5295 176.207 40.3182 176.242 40.1421 176.242C39.8957 176.277 39.6531 176.277 39.1601 176.277C37.3722 176.277 35.7251 176.312 33.765 176.171H33.2056C32.0123 176.171 30.9286 176.207 29.7705 176.242C30.3652 177.082 31.1712 177.711 32.1532 178.133C32.5053 178.133 32.6774 178.168 32.8887 178.168C33.0999 178.203 33.3073 178.203 33.7298 178.203C35.0952 178.238 36.0068 178.203 37.3057 178.168C38.6711 178.168 39.5827 178.168 40.952 178.203C42.8104 178.097 44.4222 178.097 46.3471 178.203C47.5404 178.168 48.6593 178.168 49.8526 178.203H51.6757C52.0943 178.203 52.3056 178.203 52.5169 178.168C52.7633 178.168 53.0059 178.133 53.4636 178.133C53.9527 178.133 54.1992 178.168 54.4456 178.203C54.6569 178.238 54.833 178.238 55.2516 178.238C57.5286 178.062 59.6686 178.168 61.9104 178.238L62.4346 178.273C62.7867 178.273 62.9589 178.238 63.1701 178.203C63.4166 178.168 63.6944 178.133 64.1874 178.133C64.6803 178.133 64.9581 178.168 65.2046 178.203C65.4158 178.238 65.5919 178.273 66.0105 178.273C66.3978 178.273 66.57 178.238 66.7812 178.203C67.0277 178.168 67.2703 178.133 67.7984 178.133C68.2875 178.133 68.534 178.168 68.7804 178.203C68.9917 178.238 69.1678 178.238 69.5864 178.238C71.8281 178.308 74.0386 178.273 76.699 178.133C78.0996 178.097 79.0464 178.133 80.3766 178.238C82.0941 178.168 83.6708 178.133 85.7013 178.168C86.1903 178.168 86.4368 178.203 86.6833 178.238C86.8945 178.273 87.0706 178.308 87.4892 178.308C87.8765 178.308 88.0487 178.273 88.2599 178.238C88.5064 178.203 88.749 178.168 89.2772 178.168C89.8053 178.168 90.2591 178.203 90.6778 178.203C91.3781 178.238 92.0432 178.238 92.8491 178.273C93.2677 178.273 93.479 178.273 93.6903 178.238C93.9367 178.238 94.1793 178.203 94.637 178.203C95.1261 178.203 95.3726 178.238 95.619 178.273C95.8303 178.308 96.0064 178.308 96.425 178.308C96.8436 178.308 97.0197 178.273 97.2309 178.273C97.4774 178.238 97.72 178.203 98.2129 178.203C99.7192 178.273 101.053 178.273 102.524 178.238C103.471 178.238 104.418 178.203 105.396 178.238C106.413 178.308 107.325 178.273 108.268 178.273H110.791C111.178 178.273 111.351 178.238 111.562 178.238C111.808 178.203 112.051 178.168 112.544 178.168H112.755C113.98 178.238 114.856 178.273 116.12 178.273C117.978 178.238 119.731 178.238 121.515 178.203H123.303C124.633 178.273 125.509 178.308 126.879 178.273H128.702C129.191 178.273 129.437 178.308 129.684 178.344C129.895 178.379 130.102 178.379 130.49 178.379C131.714 178.379 132.524 178.344 133.678 178.273L134.03 178.238C134.449 178.238 134.766 178.273 135.083 178.308C135.924 178.414 136.241 178.414 136.659 177.957C136.8 177.816 136.976 177.605 136.976 177.117C136.976 176.73 137.012 176.523 137.082 176.347C136.871 176.347 136.73 176.347 136.558 176.312C136.346 176.312 136.139 176.277 135.681 176.277C134.699 176.242 133.929 176.242 133.087 176.242C133.052 176.242 132.982 176.242 132.947 176.277C132.7 176.312 132.458 176.347 131.929 176.347C131.613 176.347 131.405 176.347 131.229 176.312C131.018 176.347 130.74 176.382 130.282 176.382H128.494C128.005 176.382 127.724 176.347 127.512 176.312C127.196 176.312 126.847 176.312 126.46 176.277H125.971C123.835 176.382 121.765 176.488 119.488 176.277L118.401 176.312C117.63 176.347 116.894 176.347 115.983 176.347C115.494 176.347 115.247 176.312 115.001 176.277C114.895 176.277 114.789 176.242 114.649 176.242C113.808 176.277 113.002 176.312 112.196 176.312H110.372C109.743 176.312 109.113 176.277 108.479 176.277C108.338 176.277 108.162 176.277 108.025 176.242C107.779 176.277 107.536 176.312 107.043 176.312L105.85 176.277C105.361 176.277 104.868 176.242 104.344 176.242C103.956 176.242 103.538 176.277 103.119 176.312H102.978C102.837 176.312 102.732 176.277 102.591 176.277C101.085 176.347 99.684 176.382 98.0721 176.312C96.7419 176.347 95.8655 176.312 94.4962 176.242C93.479 176.242 92.6731 176.277 91.6911 176.312L90.9908 176.347C90.5017 176.347 90.2552 176.312 90.0088 176.277C89.7975 176.242 89.5901 176.242 89.2028 176.242C87.8022 176.207 86.9258 176.207 85.6622 176.242H83.6277L83.2756 176.277H82.9939C82.7123 176.277 82.3993 176.312 82.0824 176.347C81.5229 176.347 81.3116 176.312 81.0652 176.277C80.9243 176.242 80.7835 176.242 80.6113 176.242C80.1223 176.277 79.6998 176.277 79.2459 176.277C79.0699 176.277 78.8273 176.312 78.4752 176.312C77.9862 176.312 77.4932 176.312 77.0042 176.277C76.0926 176.312 75.2866 176.277 74.2342 176.277C73.9525 176.312 73.7804 176.277 73.6043 176.277C72.8688 176.277 72.1685 176.312 71.3978 176.382C70.8383 176.382 70.6271 176.347 70.3806 176.312C70.1693 176.277 69.962 176.277 69.5746 176.277C68.9447 176.312 68.3814 176.312 67.8571 176.312C67.6459 176.347 67.4385 176.347 67.0512 176.347C66.5621 176.347 66.3157 176.312 66.0692 176.277C65.9988 176.277 65.8931 176.242 65.8227 176.242L64.8759 176.277C64.07 176.312 63.3697 176.312 62.4581 176.347C62.1764 176.312 61.8986 176.312 61.6169 176.277C60.5997 176.277 59.5512 176.277 58.4636 176.207C58.045 176.207 57.5872 176.242 57.0982 176.277H56.9574C56.7461 176.312 56.5387 176.312 56.1866 176.312H55.275C54.786 176.312 54.5043 176.277 54.2931 176.242H54.1874C53.5927 176.242 53.0294 176.277 52.4699 176.277C52.2939 176.312 52.0513 176.312 51.6992 176.312H48.9645C48.4754 176.312 48.2289 176.277 47.9825 176.242C47.8416 176.242 47.7008 176.207 47.5286 176.207C47.0748 176.242 46.6171 176.242 46.1632 176.242C45.8463 176.277 45.5333 176.312 45.2516 176.242H44.5161C44.0975 176.277 43.9215 176.277 43.7102 176.312H43.718Z" fill="#F5F3F1"/>
<path d="M82.8648 156.404C82.1293 155.423 81.3586 154.407 80.7991 153.325C80.3453 152.415 79.9932 151.505 79.7467 150.524C79.6058 150.036 79.5002 149.508 79.4298 149.02C79.3594 148.567 79.4298 148.11 79.3594 147.657C79.2185 146.641 79.2185 145.625 79.3594 144.578C79.6058 142.445 80.1301 140.097 81.4955 138.14C82.3014 136.984 82.9313 135.796 83.6669 134.64C83.9838 134.151 84.2615 133.659 84.7193 133.276C85.2083 132.858 85.4548 132.331 85.8773 131.878C86.2959 131.424 86.8241 131.038 87.3132 130.655C88.3304 129.885 89.4845 129.221 90.6778 128.658C91.7654 128.17 92.8843 127.748 94.0424 127.467C92.008 127.643 89.9422 128.166 87.9782 129.077C86.8202 129.6 85.7365 130.268 84.7545 131.002C84.3006 131.354 83.8077 131.737 83.4243 132.124C83.2834 132.3 83.1426 132.475 83.0057 132.647C82.7944 132.928 82.5518 133.276 82.1997 133.557C81.8828 133.839 81.6403 134.222 81.3586 134.608L81.2529 134.784C80.936 135.272 80.6583 135.73 80.3766 136.218C79.958 136.882 79.5354 137.581 79.0816 138.281C77.994 139.855 77.3289 141.851 77.0472 144.371C76.9415 145.387 76.9415 146.367 77.0472 147.274C77.0824 147.52 77.0824 147.762 77.0824 148.008C77.0824 148.219 77.0824 148.426 77.1176 148.602C77.188 148.989 77.2937 149.547 77.4345 150.036C77.681 150.981 78.0292 151.856 78.4517 152.696C78.9408 153.677 79.645 154.587 80.3805 155.564L80.4509 155.669C80.5565 155.81 80.6622 155.915 80.7326 156.056C81.1199 156.615 81.5033 157.142 82.0628 157.419C83.4282 158.084 85.0049 158.783 86.6872 159.24C86.0221 158.959 85.3922 158.646 84.7584 158.365C83.882 157.943 83.4282 157.107 82.8648 156.404Z" fill="#F5F3F1"/>
<path d="M92.4305 147.582L96.425 152.306C96.7067 152.622 97.231 152.622 97.6183 152.306L99.4766 150.696C99.864 150.38 99.9305 149.821 99.6527 149.505L95.6582 144.781C95.3765 144.465 95.4469 143.906 95.8343 143.59L101.3 138.867C101.687 138.55 101.754 137.992 101.476 137.675L100.11 136.066C99.8287 135.749 99.3045 135.749 98.9172 136.066L93.4516 140.789C93.0643 141.105 92.5401 141.105 92.2584 140.789L88.2639 136.066C87.9822 135.749 87.4579 135.749 87.0706 136.066L85.2123 137.675C84.8249 137.992 84.7584 138.55 85.0362 138.867L89.0307 143.59C89.3124 143.906 89.242 144.465 88.8546 144.781L83.3891 149.505C83.0018 149.821 82.9353 150.38 83.2131 150.696L84.5785 152.306C84.8602 152.622 85.3844 152.622 85.7717 152.306L91.2373 147.582C91.6246 147.266 92.1488 147.266 92.4305 147.582Z" fill="white"/>
</svg>
