<svg width="251" height="248" viewBox="0 0 251 248" fill="none" xmlns="http://www.w3.org/2000/svg">
<path d="M169.948 163.109C167.004 163.174 164.305 162.866 161.357 162.986C160.283 162.986 160.283 163.16 159.209 163.16C158.136 163.16 158.136 162.986 157.062 162.986C155.988 162.986 155.988 163.114 154.914 163.114C153.318 163.097 152.215 163.013 150.621 162.96C149.547 162.96 149.547 163.066 148.474 163.066C147.397 163.066 147.397 163.013 146.324 163.013C144.727 163.066 143.629 163.095 142.028 163.111C140.954 163.111 140.954 162.984 139.881 162.984C138.282 163.027 137.184 163.068 135.585 163.114C134.511 163.114 134.511 163.003 133.438 163.003C132.364 163.003 132.364 163.092 131.29 163.092C130.216 163.092 130.216 162.96 129.142 162.96C126.887 163.167 124.964 163.111 122.697 163.138C119.053 163.196 115.602 162.897 111.956 163.138C110.358 163.116 109.264 163.032 107.661 162.986C106.589 162.986 106.589 163.128 105.513 163.128C104.439 163.128 104.439 162.957 103.366 162.957C102.292 162.957 102.292 162.989 101.218 162.989C100.142 162.989 100.142 162.964 99.0678 162.964C97.9939 162.964 97.994 163.104 96.9201 163.104C95.3167 163.063 94.2282 162.989 92.6248 162.976C91.019 163.042 89.9305 163.097 88.3271 163.133C87.2508 163.133 87.2508 162.967 86.177 162.967C85.1031 162.967 85.1031 163.116 84.0293 163.116C82.421 163.099 81.3374 163.068 79.734 163.078C78.1233 163.138 77.0397 163.08 75.4338 162.989C74.36 162.989 74.36 163.104 73.2861 163.104C72.2123 163.104 72.2123 163.046 71.1385 163.046C70.0647 163.046 70.0647 163.116 68.9908 163.116C67.9146 163.116 67.9146 162.955 66.8407 162.955C65.7669 162.955 65.7669 163.116 64.6907 163.116C63.6168 163.116 63.6168 163.097 62.543 163.097C60.9322 163.16 59.856 163.16 58.2452 163.131C56.6369 163.092 55.5558 162.996 53.9475 162.957C52.8737 162.957 52.8737 163.121 51.7998 163.121C48.8493 163.145 46.1574 163.15 43.2068 163.131C42.1305 163.131 42.1305 163.049 41.0567 163.049C39.9828 163.049 39.9829 163.152 38.909 163.152C37.8352 163.152 37.8352 163.037 36.7614 163.037C35.6851 163.037 35.6851 163.109 34.6113 163.109C32.9932 163.044 31.9243 163.034 30.3111 163.121C29.2372 163.121 29.2373 162.986 28.1634 162.986C27.0896 162.986 27.0896 163.15 26.0133 163.15C23.751 162.96 21.8327 163.039 19.5655 163.034C18.4917 163.034 18.4917 163.152 17.4154 163.152C16.3391 163.152 16.3391 163.099 15.2653 163.099C13.0566 163.254 11.0212 163.116 9.1225 161.924C6.51603 160.714 5.17131 157.835 4.97119 155.096C4.97119 154.04 4.97851 154.04 4.97851 152.985C4.97851 151.927 4.9541 151.927 4.9541 150.869C4.9541 149.814 5.12738 149.814 5.12738 148.759C5.12738 147.701 4.96874 147.701 4.96874 146.646C4.96874 145.588 5.04684 145.588 5.04684 144.533C4.97851 142.957 5.02244 141.88 5.09321 140.307C5.09321 139.249 5.1469 139.249 5.1469 138.194C5.1469 137.136 5.03708 137.136 5.03708 136.081C5.0688 133.182 4.93702 130.53 5.00291 127.629C5.14446 125.408 5.09321 123.514 5.01511 121.29C5.01511 120.232 5.14446 120.232 5.14446 119.177C5.14446 118.119 5.11762 118.119 5.11762 117.064C5.11274 115.486 5.09077 114.414 5.01756 112.838C5.03952 111.26 5.05417 110.188 5.00291 108.61C5.00291 107.554 5.07857 107.554 5.07857 106.497C5.07857 105.441 4.95898 105.441 4.95898 104.384C4.9663 101.483 5.01755 98.83 5.06636 95.9291C5.01999 94.3486 5.07612 93.2813 5.14202 91.7031C5.02975 90.125 4.9785 89.0601 4.98094 87.4771C5.03952 85.8966 5.12982 84.8317 5.12982 83.2512C5.00535 81.673 4.94678 80.6105 4.95654 79.0227C5.12006 76.8013 5.1225 74.9124 4.99803 72.6813C5.01267 69.7781 5.22744 67.1302 5.03464 64.2269C4.99559 62.6416 5.00292 61.5815 4.99559 60.0009C5.11518 57.7699 5.13958 55.881 4.96142 53.6595C5.00047 52.0718 5.03952 51.0117 4.99803 49.4263C4.99803 48.7156 5.24696 48.0506 5.42512 47.3928C5.6106 46.7158 5.7009 45.9954 6.05233 45.4027C6.87479 44.2944 7.92665 43.2897 9.06149 42.497C10.3062 41.8995 11.7119 41.5309 13.1152 41.4466C14.189 41.4466 14.189 41.5357 15.2604 41.5357C16.3342 41.5357 16.3342 41.4176 17.4081 41.4176C19.0017 41.4923 20.1048 41.567 21.7058 41.5502C22.7796 41.5502 22.7796 41.367 23.8535 41.367C24.9273 41.367 24.9273 41.567 26.0011 41.567C27.0725 41.567 27.0725 41.396 28.1463 41.396C29.2202 41.396 29.2202 41.3767 30.294 41.3767C31.8901 41.3887 32.9932 41.4899 34.5893 41.567C35.6631 41.567 35.6631 41.3839 36.737 41.3839C37.8108 41.3839 37.8108 41.3646 38.8846 41.3646C39.9584 41.3646 39.9585 41.4658 41.0323 41.4658C42.1061 41.4658 42.1061 41.3839 43.1799 41.3839C44.2538 41.3839 44.2538 41.5309 45.3276 41.5309C47.5851 41.3719 49.5106 41.4056 51.7706 41.5092C54.0329 41.4971 55.956 41.3743 58.216 41.4803C60.4759 41.5236 62.399 41.4321 64.6589 41.3839C66.9213 41.367 68.842 41.5261 71.1043 41.4321C72.1782 41.4321 72.1782 41.5646 73.252 41.5646C74.3258 41.5646 74.3258 41.5357 75.3996 41.5357C77.0031 41.4682 78.094 41.4947 79.695 41.5526C80.7712 41.5526 80.7712 41.4249 81.845 41.4249C82.9189 41.4249 82.9189 41.5309 83.9927 41.5309C85.069 41.5309 85.069 41.4369 86.1428 41.4369C89.0909 41.5791 91.7853 41.4658 94.7359 41.4947C95.8097 41.4947 95.8097 41.555 96.8835 41.555C97.9573 41.555 97.9573 41.449 99.0336 41.449C100.639 41.408 101.726 41.4008 103.329 41.3984C106.28 41.4393 108.974 41.5092 111.924 41.3863C112.996 41.3863 112.996 41.5285 114.072 41.5285C115.146 41.5285 115.146 41.42 116.22 41.42C117.833 41.3935 118.912 41.4658 120.52 41.5429C121.594 41.5429 121.594 41.367 122.668 41.367C124.3 41.3478 125.342 41.4225 126.965 41.5357C128.574 41.4755 129.652 41.461 131.261 41.4682C134.214 41.6706 136.901 41.3984 139.856 41.4128C142.123 41.4658 144.034 41.3454 146.302 41.4176C147.375 41.4176 147.375 41.367 148.452 41.367C149.525 41.367 149.525 41.5381 150.602 41.5381C151.676 41.5381 151.676 41.4152 152.749 41.4152C154.365 41.4947 155.434 41.5526 157.047 41.5116C158.665 41.5694 159.734 41.5718 161.347 41.4923C162.963 41.5285 164.032 41.5381 165.645 41.4803C168.493 41.5526 171.383 41.2538 174.023 42.4537C175.761 43.627 177.308 45.2726 177.777 47.3567C178.016 48.824 177.918 50.0552 177.931 51.5393C177.931 52.5946 178.104 52.5946 178.104 53.6523C178.104 54.7076 177.95 54.7076 177.95 55.7653C177.948 57.9867 178.128 59.8781 178.101 62.1043C178.062 63.6752 178.026 64.7522 178.067 66.3279C178.067 67.3856 177.933 67.3856 177.933 68.4433C178.026 70.0166 178.011 71.0936 177.953 72.6669C177.835 76.9483 178.211 81.0755 177.921 85.3473C178.031 86.9206 178.072 87.9928 178.06 89.5733C178.06 90.6286 177.916 90.6286 177.916 91.6863C177.916 92.744 178.036 92.744 178.036 93.7993C178.036 94.857 177.95 94.857 177.95 95.9123C177.979 97.4904 178.009 98.5626 178.067 100.141C178.067 101.196 177.928 101.196 177.928 102.251C178.014 104.478 178.138 106.366 178.031 108.593C178.031 109.648 178.109 109.648 178.109 110.708C178.109 111.763 177.928 111.763 177.928 112.821C177.928 113.876 178.048 113.876 178.048 114.932C178.048 115.989 177.933 115.989 177.933 117.047C178.094 119.946 177.904 122.601 178.109 125.499C178.109 126.554 177.916 126.554 177.916 127.612C177.916 128.67 177.95 128.67 177.95 129.727C177.95 130.783 178.082 130.783 178.082 131.84C178.082 132.896 177.955 132.896 177.955 133.953C177.955 135.009 178.097 135.009 178.097 136.069C178.038 137.649 177.95 138.712 177.953 140.295C177.953 141.35 178.067 141.35 178.067 142.41C178.067 143.466 177.921 143.466 177.921 144.523C177.899 146.111 177.933 147.169 178.043 148.749C178.055 150.339 178.033 151.397 178.043 152.98C178.07 154.512 178.184 155.703 177.801 157.172C176.784 160.471 173.535 163.225 169.948 163.109Z" fill="#F2E5D1"/>
<path d="M223.232 87.2244L218.822 93.2574L224.943 97.6207" stroke="#454138" stroke-width="1.3" stroke-linecap="round" stroke-linejoin="round"/>
<path d="M183.212 198.317C195.793 194.043 209.379 185.567 221.511 173.59C248.044 147.395 257.589 114.363 242.839 99.8036C237.135 94.173 228.64 92.1298 218.821 93.2574" stroke="#454138" stroke-width="1.3" stroke-linecap="round" stroke-linejoin="round"/>
<path d="M161.743 38.9485L162.599 39.2569C162.634 39.2665 162.656 39.3002 162.656 39.3364L162.624 40.2351C162.624 40.3146 162.726 40.3531 162.78 40.2905L163.339 39.5797C163.358 39.5532 163.4 39.5388 163.437 39.5508L164.288 39.8568C164.369 39.8857 164.437 39.7965 164.388 39.7339L163.878 38.987C163.856 38.9557 163.861 38.9196 163.881 38.8882L164.44 38.1823C164.491 38.1148 164.427 38.0233 164.347 38.0474L163.478 38.2979C163.439 38.3076 163.402 38.2931 163.383 38.2618L162.873 37.5197C162.824 37.4523 162.719 37.4812 162.717 37.5631L162.685 38.4618C162.685 38.4979 162.66 38.5292 162.624 38.5389L161.748 38.7894C161.672 38.8135 161.667 38.922 161.743 38.9485Z" fill="#F5F3F1"/>
<path d="M194.936 36.8668L196.13 37.2932C196.181 37.3125 196.21 37.3583 196.21 37.4065L196.169 38.6642C196.166 38.7774 196.31 38.8328 196.384 38.7413L197.167 37.7486C197.196 37.7101 197.252 37.6932 197.296 37.7125L198.497 38.1365C198.607 38.1775 198.702 38.0546 198.639 37.9582L197.921 36.9198C197.892 36.8764 197.892 36.8234 197.928 36.7825L198.709 35.7898C198.778 35.6958 198.692 35.5706 198.583 35.6019L197.355 35.9536C197.309 35.9657 197.255 35.9464 197.226 35.9055L196.511 34.8646C196.447 34.7731 196.298 34.814 196.296 34.9248L196.249 36.1849C196.249 36.2355 196.215 36.2789 196.164 36.291L194.941 36.6403C194.831 36.6716 194.827 36.8258 194.936 36.8668Z" fill="#F5F3F1"/>
<path d="M174.754 65.6127L173.014 64.9887C172.945 64.9646 172.896 64.8972 172.901 64.8249L172.96 62.9986C172.965 62.8299 172.755 62.7576 172.65 62.8853L171.515 64.3285C171.469 64.3888 171.391 64.4081 171.317 64.3864L169.577 63.7624C169.419 63.7069 169.282 63.8852 169.375 64.0177L170.414 65.5332C170.458 65.5959 170.456 65.6754 170.407 65.7332L169.272 67.1764C169.17 67.3089 169.297 67.492 169.455 67.4438L171.232 66.9379C171.308 66.9162 171.383 66.9427 171.425 67.0029L172.464 68.5184C172.56 68.6581 172.774 68.5955 172.782 68.4268L172.843 66.6006C172.843 66.5283 172.894 66.4632 172.965 66.4415L174.744 65.9356C174.905 65.8874 174.912 65.6657 174.754 65.6127Z" fill="#F5F3F1"/>
<path d="M194.043 50.3999C194.041 50.3999 194.041 50.4047 194.041 50.4047L194.188 50.5613C194.205 50.5734 194.205 50.5734 194.188 50.5613L194.045 50.4023L194.043 50.3999Z" fill="#F5F3F1"/>
<path d="M172.733 34.7008C171.84 34.3201 170.915 35.1779 171.237 36.079C173.673 42.8661 178.247 50.2315 184.643 56.9728L185.736 58.1221C185.749 58.1366 185.732 58.1534 185.719 58.1438C185.707 58.1341 185.7 58.1341 185.705 58.1558L187.03 63.1576C187.799 66.0561 188.799 68.8919 190.02 71.6337L192.426 77.0403C192.524 77.262 192.751 77.3391 192.948 77.2909C193.097 77.2547 193.231 77.1415 193.273 76.9608L195.208 68.3377C195.213 68.316 195.23 68.3112 195.247 68.3281L198.271 71.3325C198.271 71.3325 198.271 71.3326 198.273 71.3374C198.52 71.5976 198.94 71.6434 199.242 71.3687L199.992 70.6772C200.009 70.6603 200.04 70.6555 200.062 70.67L202.625 72.2023C202.827 72.3228 203.062 72.3565 203.279 72.3011C203.416 72.2674 203.547 72.1999 203.657 72.0963L207.015 68.9931C207.298 68.7305 207.372 68.3185 207.191 67.9787L205.807 65.3574C205.807 65.355 205.807 65.355 205.807 65.355C205.795 65.3309 205.802 65.3044 205.822 65.2875L205.82 65.2827L206.566 64.5936C206.83 64.3454 206.874 63.9334 206.6 63.6323L203.74 60.4712C203.721 60.4543 203.73 60.4375 203.752 60.4327L212.59 59.0931C213.019 59.028 213.117 58.4642 212.731 58.2667L207.42 55.5441C204.729 54.1611 201.927 52.9902 199.052 52.0433L194.085 50.417V50.4122C194.066 50.4074 194.059 50.4146 194.076 50.4315C194.076 50.4315 194.073 50.4363 194.071 50.4339C194.054 50.4146 194.027 50.3857 194.01 50.3712C194.01 50.3688 194.01 50.3688 194.01 50.3688L192.973 49.2726C186.574 42.5312 179.428 37.539 172.733 34.7008Z" fill="#F5F3F1"/>
<path d="M194.043 50.3999C194.041 50.3999 194.041 50.4047 194.041 50.4047L194.188 50.5613C194.205 50.5734 194.205 50.5734 194.188 50.5613L194.045 50.4023L194.043 50.3999Z" fill="#F5F3F1"/>
<path d="M216.64 74.0574C217.163 73.9284 217.717 74.0098 218.18 74.2838C218.642 74.5579 218.975 75.0021 219.106 75.5187C219.237 76.0353 219.154 76.5821 218.877 77.0387C218.599 77.4953 218.149 77.8243 217.626 77.9534C217.367 78.0173 217.097 78.0302 216.833 77.9913C216.569 77.9525 216.315 77.8626 216.086 77.7269C215.857 77.5913 215.658 77.4124 215.499 77.2005C215.34 76.9886 215.224 76.7479 215.16 76.4921C215.095 76.2363 215.082 75.9704 215.121 75.7096C215.161 75.4488 215.252 75.1982 215.389 74.9721C215.527 74.746 215.708 74.5489 215.922 74.392C216.137 74.235 216.381 74.1214 216.64 74.0574Z" fill="#F5F3F1"/>
<path d="M206.218 74.6479C206.319 74.6163 206.424 74.6053 206.529 74.6156C206.634 74.6259 206.735 74.6573 206.827 74.7078C206.919 74.7584 206.999 74.827 207.063 74.9095C207.127 74.992 207.173 75.0865 207.199 75.1873C207.224 75.288 207.228 75.3929 207.211 75.4953C207.194 75.5977 207.155 75.6956 207.098 75.7828C207.041 75.87 206.967 75.9447 206.879 76.0023C206.792 76.0599 206.693 76.0991 206.589 76.1176C206.489 76.1492 206.384 76.1603 206.279 76.1499C206.174 76.1396 206.073 76.1082 205.981 76.0577C205.889 76.0071 205.809 75.9385 205.745 75.856C205.681 75.7736 205.635 75.679 205.609 75.5783C205.584 75.4775 205.58 75.3726 205.597 75.2702C205.614 75.1678 205.652 75.0699 205.71 74.9827C205.767 74.8955 205.841 74.8208 205.929 74.7632C206.016 74.7056 206.115 74.6664 206.218 74.6479Z" fill="#F5F3F1"/>
<path d="M170.014 37.2114C169.692 36.3127 170.617 35.4525 171.505 35.8332C178.204 38.6714 185.35 43.6636 191.749 50.405L205.372 64.7671C205.633 65.0442 205.618 65.4706 205.343 65.7284L198.016 72.5011C197.743 72.7565 197.308 72.742 197.047 72.4674L183.42 58.1052C177.023 51.3639 172.449 43.9985 170.014 37.2114ZM184.488 50.617C185.164 49.9954 185.199 48.9473 184.569 48.2799C183.932 47.6101 182.873 47.5764 182.197 48.2028C181.521 48.8244 181.487 49.8749 182.116 50.5447C182.753 51.2097 183.812 51.2458 184.488 50.617Z" fill="#FFA595"/>
<path d="M195.527 54.5176L187.183 62.2347L192.466 67.8051L200.815 60.0904L195.527 54.5176Z" fill="#F5B731" fill-opacity="0.8"/>
<path d="M171.5 36.0306C173.572 36.9125 175.685 37.9943 177.809 39.276L172.871 43.8417C171.717 41.6637 170.758 39.5121 170.006 37.416C169.682 36.5101 170.609 35.6572 171.5 36.0306Z" fill="#F5B731" fill-opacity="0.8"/>
<path d="M171.239 36.0838C170.915 35.1779 171.84 34.325 172.733 34.7008C179.427 37.5439 186.573 42.5312 192.972 49.2726L206.6 63.6371C206.859 63.9094 206.846 64.3382 206.566 64.5936L199.244 71.3663C198.966 71.6241 198.532 71.6096 198.273 71.3374L184.643 56.9729C178.246 50.2315 173.672 42.8661 171.239 36.0838Z" stroke="#454138" stroke-width="1.3" stroke-linecap="round" stroke-linejoin="round"/>
<path d="M185.694 58.1172L187.032 63.1624C187.798 66.0608 188.799 68.8918 190.019 71.6384L192.428 77.045C192.599 77.4353 193.177 77.3775 193.272 76.9607L195.222 68.2533L185.694 58.1172Z" stroke="#454138" stroke-width="1.3" stroke-linecap="round" stroke-linejoin="round"/>
<path d="M194.041 50.3999L199.051 52.0479C201.928 52.9948 204.728 54.1609 207.419 55.5439L212.73 58.2664C213.116 58.464 213.018 59.0326 212.591 59.0976L203.666 60.4493L194.041 50.3999Z" stroke="#454138" stroke-width="1.3" stroke-linecap="round" stroke-linejoin="round"/>
<path d="M202.624 72.2069C202.955 72.4045 203.38 72.3611 203.658 72.1009L207.016 68.9977C207.297 68.7351 207.37 68.3182 207.195 67.9833L205.786 65.3186L200.022 70.6457L202.624 72.2069Z" stroke="#454138" stroke-width="1.3" stroke-linecap="round" stroke-linejoin="round"/>
<path d="M183.686 45.7187C184.05 45.6292 184.428 45.6113 184.799 45.666C185.17 45.7208 185.526 45.8471 185.848 46.0379C186.169 46.2286 186.449 46.48 186.672 46.7776C186.896 47.0753 187.057 47.4134 187.148 47.7727C187.238 48.1319 187.257 48.5053 187.201 48.8715C187.146 49.2377 187.018 49.5895 186.824 49.9069C186.631 50.2242 186.377 50.5009 186.075 50.7211C185.774 50.9414 185.431 51.1008 185.067 51.1903C184.332 51.3712 183.555 51.2564 182.905 50.8712C182.256 50.486 181.788 49.8619 181.605 49.1364C181.422 48.4108 181.538 47.6431 181.929 47.0021C182.319 46.3612 182.951 45.8995 183.686 45.7187Z" stroke="#454138" stroke-width="1.3" stroke-linecap="round" stroke-linejoin="round"/>
<path d="M183.971 46.8486C184.185 46.7959 184.407 46.7854 184.625 46.8174C184.843 46.8495 185.052 46.9237 185.241 47.0357C185.43 47.1476 185.595 47.2952 185.726 47.4701C185.857 47.6449 185.952 47.8435 186.005 48.0545C186.059 48.2655 186.069 48.4849 186.037 48.7C186.004 48.9152 185.929 49.1219 185.816 49.3083C185.702 49.4948 185.553 49.6574 185.376 49.7869C185.199 49.9163 184.998 50.01 184.784 50.0627C184.57 50.1154 184.348 50.126 184.13 50.0939C183.912 50.0618 183.703 49.9876 183.514 49.8757C183.325 49.7637 183.16 49.6161 183.029 49.4413C182.898 49.2665 182.803 49.0679 182.75 48.8568C182.696 48.6458 182.686 48.4264 182.718 48.2113C182.751 47.9962 182.826 47.7895 182.939 47.603C183.053 47.4165 183.202 47.2539 183.379 47.1245C183.556 46.995 183.757 46.9013 183.971 46.8486Z" stroke="#454138" stroke-width="1.3" stroke-linecap="round" stroke-linejoin="round"/>
<path d="M196.826 53.3347L188.479 61.0519" stroke="#454138" stroke-width="1.3" stroke-linecap="round" stroke-linejoin="round"/>
<path d="M179.082 37.9004L174.038 42.5649" stroke="#454138" stroke-width="1.3" stroke-linecap="round" stroke-linejoin="round"/>
<path d="M202.112 58.9075L193.766 66.6222" stroke="#454138" stroke-width="1.3" stroke-linecap="round" stroke-linejoin="round"/>
<path d="M216.64 74.0574C217.163 73.9284 217.717 74.0098 218.18 74.2838C218.642 74.5579 218.975 75.0021 219.106 75.5187C219.237 76.0353 219.154 76.5821 218.877 77.0387C218.599 77.4953 218.149 77.8243 217.626 77.9534C217.367 78.0173 217.097 78.0302 216.833 77.9913C216.569 77.9525 216.315 77.8626 216.086 77.7269C215.857 77.5913 215.658 77.4124 215.499 77.2005C215.34 76.9886 215.224 76.7479 215.16 76.4921C215.095 76.2363 215.082 75.9704 215.121 75.7096C215.161 75.4488 215.252 75.1982 215.389 74.9721C215.527 74.746 215.708 74.5489 215.922 74.392C216.137 74.235 216.381 74.1214 216.64 74.0574Z" stroke="#454138" stroke-width="1.3" stroke-linecap="round" stroke-linejoin="round"/>
<path d="M206.218 74.6479C206.319 74.6163 206.424 74.6053 206.529 74.6156C206.634 74.6259 206.735 74.6573 206.827 74.7078C206.919 74.7584 206.999 74.827 207.063 74.9095C207.127 74.992 207.173 75.0865 207.199 75.1873C207.224 75.288 207.228 75.3929 207.211 75.4953C207.194 75.5977 207.155 75.6956 207.098 75.7828C207.041 75.87 206.967 75.9447 206.879 76.0023C206.792 76.0599 206.693 76.0991 206.589 76.1176C206.489 76.1492 206.384 76.1603 206.279 76.1499C206.174 76.1396 206.073 76.1082 205.981 76.0577C205.889 76.0071 205.809 75.9385 205.745 75.856C205.681 75.7736 205.635 75.679 205.609 75.5783C205.584 75.4775 205.58 75.3726 205.597 75.2702C205.614 75.1678 205.652 75.0699 205.71 74.9827C205.767 74.8955 205.841 74.8208 205.929 74.7632C206.016 74.7056 206.115 74.6664 206.218 74.6479Z" stroke="#454138" stroke-width="1.3" stroke-linecap="round" stroke-linejoin="round"/>
<path d="M213.758 93.1804C211.671 91.3252 211.263 87.9352 213.116 85.7042C213.384 85.3813 213.431 84.9404 213.253 84.5598C211.783 81.4107 215.412 78.0955 218.526 80.0013C218.763 80.1434 219.054 80.1266 219.293 80.0037C220.579 79.3483 222.121 79.1917 223.591 79.6881" stroke="#454138" stroke-width="1.3" stroke-linecap="round" stroke-linejoin="round"/>
<path d="M204.218 71.5879L205.401 72.8335" stroke="#454138" stroke-width="1.3" stroke-linecap="round" stroke-linejoin="round"/>
<path d="M206.192 69.7593L214.25 78.2474" stroke="#454138" stroke-width="1.3" stroke-linecap="round" stroke-linejoin="round"/>
<path d="M197.651 79.9629C199.215 78.5173 201.675 78.5968 203.142 80.1412C203.359 80.3749 203.547 80.6279 203.694 80.8929C203.899 81.2519 204.357 81.3772 204.731 81.1965C207.432 79.9003 210.778 80.4134 212.941 82.6903" stroke="#454138" stroke-width="1.3" stroke-linecap="round" stroke-linejoin="round"/>
<path d="M213.016 76.9511C212.338 76.197 212.484 74.9297 213.248 74.2985C213.609 74.0045 213.631 73.4769 213.323 73.1251C207.735 66.6945 215.361 56.7512 223.405 61.0085" stroke="#454138" stroke-width="1.3" stroke-linecap="round" stroke-linejoin="round"/>
<path d="M161.743 38.9485L162.599 39.2569C162.634 39.2665 162.656 39.3002 162.656 39.3364L162.624 40.2351C162.624 40.3146 162.726 40.3531 162.78 40.2905L163.339 39.5797C163.358 39.5532 163.4 39.5388 163.437 39.5508L164.288 39.8568C164.369 39.8857 164.437 39.7965 164.388 39.7339L163.878 38.987C163.856 38.9557 163.861 38.9196 163.881 38.8882L164.44 38.1823C164.491 38.1148 164.427 38.0233 164.347 38.0474L163.478 38.2979C163.439 38.3076 163.402 38.2931 163.383 38.2618L162.873 37.5197C162.824 37.4523 162.719 37.4812 162.717 37.5631L162.685 38.4618C162.685 38.4979 162.66 38.5292 162.624 38.5389L161.748 38.7894C161.672 38.8135 161.667 38.922 161.743 38.9485Z" stroke="#454138" stroke-width="1.3" stroke-linecap="round" stroke-linejoin="round"/>
<path d="M194.936 36.8668L196.13 37.2932C196.181 37.3125 196.21 37.3583 196.21 37.4065L196.169 38.6642C196.166 38.7774 196.31 38.8328 196.384 38.7413L197.167 37.7486C197.196 37.7101 197.252 37.6932 197.296 37.7125L198.497 38.1365C198.607 38.1775 198.702 38.0546 198.639 37.9582L197.921 36.9198C197.892 36.8764 197.892 36.8234 197.928 36.7825L198.709 35.7898C198.778 35.6958 198.692 35.5706 198.583 35.6019L197.355 35.9536C197.309 35.9657 197.255 35.9464 197.226 35.9055L196.511 34.8646C196.447 34.7731 196.298 34.814 196.296 34.9248L196.249 36.1849C196.249 36.2355 196.215 36.2789 196.164 36.291L194.941 36.6403C194.831 36.6716 194.827 36.8258 194.936 36.8668Z" stroke="#454138" stroke-width="1.3" stroke-linecap="round" stroke-linejoin="round"/>
<path d="M174.754 65.6127L173.014 64.9887C172.945 64.9646 172.896 64.8972 172.901 64.8249L172.96 62.9986C172.965 62.8299 172.755 62.7576 172.65 62.8853L171.515 64.3285C171.469 64.3888 171.391 64.4081 171.317 64.3864L169.577 63.7624C169.419 63.7069 169.282 63.8852 169.375 64.0177L170.414 65.5332C170.458 65.5959 170.456 65.6754 170.407 65.7332L169.272 67.1764C169.17 67.3089 169.297 67.492 169.455 67.4438L171.232 66.9379C171.308 66.9162 171.383 66.9427 171.425 67.0029L172.464 68.5184C172.56 68.6581 172.774 68.5955 172.782 68.4268L172.843 66.6006C172.843 66.5283 172.894 66.4632 172.965 66.4415L174.744 65.9356C174.905 65.8874 174.912 65.6657 174.754 65.6127Z" stroke="#454138" stroke-width="1.3" stroke-linecap="round" stroke-linejoin="round"/>
<path d="M176.198 183.389C154.173 216.956 106.165 199.96 108.945 160.483C110.121 152.672 114.077 145.704 120.064 140.215C122.202 138.105 124.235 135.676 126.695 134.199C128.191 131.137 116.965 137.577 115.896 138.105C107.983 141.589 103.598 145.704 99.9639 153.411C95.5807 159.637 93.3355 166.605 93.6552 174.098C93.3355 181.594 95.366 188.665 99.7491 194.893C114.077 222.55 159.305 222.972 172.669 194.26C173.526 192.783 180.796 182.227 176.198 183.389Z" fill="#F5F3F1"/>
<path d="M180.796 187.082C174.807 194.154 166.361 199.748 157.06 201.016C146.903 201.649 136.103 199.221 128.298 192.361C116.857 181.594 112.045 163.333 119.957 149.294C122.309 144.649 126.8 140.955 130.009 136.732C131.078 135.888 130.222 134.2 128.94 134.621C126.053 135.676 123.701 137.683 121.028 139.266C113.863 142.538 110.549 146.444 107.127 153.412C102.744 159.637 100.499 166.605 100.818 174.098C100.499 181.594 102.529 188.665 106.915 194.893C120.599 221.599 164.33 223.288 178.659 196.373C180.369 193.732 182.615 191.41 183.576 188.562C184.111 187.4 181.651 186.027 180.796 187.082Z" fill="#D4D9DA"/>
<path d="M176.198 183.389C154.173 216.956 106.165 199.96 108.945 160.483C110.121 152.672 114.077 145.704 120.064 140.215C122.202 138.105 124.235 135.676 126.695 134.199C128.191 131.137 116.965 137.577 115.896 138.105C107.983 141.589 103.598 145.704 99.9639 153.411C95.5807 159.637 93.3355 166.605 93.6552 174.098C93.3355 181.594 95.366 188.665 99.7491 194.893C114.077 222.55 159.305 222.972 172.669 194.26C173.526 192.783 180.796 182.227 176.198 183.389Z" stroke="#454138" stroke-width="1.3" stroke-linecap="round" stroke-linejoin="round"/>
<path d="M63.4147 152.393C62.4385 152.393 62.4385 152.45 61.4598 152.45C60.4812 152.45 60.4812 152.34 59.505 152.34C57.4501 152.484 55.7002 152.4 53.6428 152.47C52.181 152.414 51.1926 152.417 49.7307 152.477C48.7545 152.477 48.7545 152.364 47.7758 152.364C46.7996 152.364 46.7996 152.424 45.821 152.424C44.3591 152.356 43.3731 152.373 41.9088 152.453C41.4451 152.453 41.123 152.031 41.123 151.576C41.123 151.2 40.9741 151.2 40.9741 150.829C41.2084 149.362 42.8289 150.101 43.8637 150.014C44.8399 150.014 44.8399 150.06 45.8185 150.06C47.8808 150.002 49.6257 150.01 51.6831 150C52.6593 150 52.6593 149.921 53.6355 149.921C54.6142 149.921 54.6142 150.063 55.5904 150.063C56.569 150.063 56.569 149.911 57.5477 149.911C58.5263 149.911 58.5263 150.002 59.5025 150.002C60.4812 150.002 60.4812 149.916 61.4598 149.916C62.4385 149.916 62.436 149.947 63.4147 149.947C63.8784 149.947 64.3055 150.369 64.3055 150.829C64.3372 151.561 64.386 152.327 63.4147 152.393Z" stroke="#454138" stroke-width="1.3" stroke-linecap="round" stroke-linejoin="round"/>
<path d="M39.285 170.499C38.3039 170.499 38.3039 170.571 37.3204 170.571C36.3393 170.571 36.3393 170.465 35.3558 170.465C32.659 170.585 30.1965 170.352 27.5022 170.441C26.5187 170.441 26.5187 170.561 25.5376 170.561C24.0659 170.547 23.0726 170.489 21.6059 170.436C20.576 170.34 18.9677 171.115 18.7529 169.66C18.853 168.164 18.9091 167.152 18.875 165.651C18.9848 164.666 18.2282 162.943 19.6413 162.738C20.6224 162.738 20.6224 162.755 21.6059 162.755C22.5845 162.755 22.5845 162.907 23.5681 162.907C25.0348 162.856 26.0281 162.822 27.4949 162.83C28.9665 162.885 29.9573 162.866 31.4241 162.784C32.8933 162.859 33.8866 162.907 35.3533 162.887C36.3369 162.887 36.3369 162.74 37.3179 162.74C40.4833 162.873 40.0782 162.56 40.0416 165.649C40.0416 166.653 40.1075 166.653 40.1075 167.656C40.0025 168.687 40.825 170.32 39.285 170.499Z" stroke="#454138" stroke-width="1.3" stroke-linecap="round" stroke-linejoin="round"/>
<path d="M34.5358 168.653C36.5443 168.733 38.2429 168.557 40.2515 168.557C41.6743 168.634 42.6359 168.648 44.0636 168.581C46.0697 168.713 47.7707 168.569 49.7817 168.569C50.7359 168.569 50.7359 168.692 51.6877 168.692C52.1514 168.692 52.4663 168.976 52.4663 169.436C52.4663 170.2 52.5688 170.2 52.5688 170.966C52.5688 171.73 52.4345 171.73 52.4345 172.496C52.4345 172.954 52.1514 173.363 51.6877 173.363C50.7359 173.363 50.7359 173.407 49.7841 173.407C47.1704 173.199 44.7787 173.279 42.1624 173.38C41.2082 173.38 41.2082 173.245 40.2564 173.245C39.3021 173.245 39.3021 173.342 38.3503 173.342C37.3985 173.342 37.3985 173.257 36.4443 173.257C35.49 173.257 35.49 173.248 34.5358 173.248C34.0721 173.248 33.6108 172.954 33.6108 172.496C33.6108 171.73 33.6889 171.73 33.6889 170.966C33.6889 170.2 33.7426 170.2 33.7426 169.436C33.7426 168.976 34.0721 168.653 34.5358 168.653Z" fill="#DCEADF"/>
<path d="M20.0901 184.854C19.1383 184.854 19.1383 184.938 18.1889 184.938C17.2371 184.938 17.2371 184.834 16.2877 184.834C15.3359 184.834 15.3359 184.979 14.3866 184.979C13.4348 184.979 13.4348 184.974 12.483 184.974C11.0626 184.902 10.101 184.834 8.67821 184.825C7.76301 184.714 6.03756 185.357 5.94482 184.058C5.94726 182.475 7.66295 183.244 8.67576 183.189C9.62757 183.189 9.62757 183.037 10.5769 183.037C11.5287 183.037 11.5287 183.128 12.4781 183.128C14.4793 182.998 16.1828 183.09 18.1865 183.075C19.1383 183.075 19.1383 183.068 20.0901 183.068C20.5538 183.068 20.8344 183.495 20.8344 183.955C20.8344 184.005 20.9296 184.005 20.9296 184.058C20.9296 184.516 20.5538 184.854 20.0901 184.854Z" stroke="#454138" stroke-width="1.3" stroke-linecap="round" stroke-linejoin="round"/>
<path d="M19.5656 142.497C17.3765 142.42 15.5241 142.593 13.3374 142.593C12.3002 142.593 12.3002 142.516 11.263 142.516C9.70838 142.577 8.66139 142.569 7.10922 142.497C5.55705 142.543 4.50763 142.579 2.95546 142.581C1.91824 142.581 1.91824 142.459 0.87858 142.459C0.412442 142.459 0.0976192 142.174 0.0976192 141.716C0.0976192 140.96 0 140.96 0 140.206C0 139.452 0.129347 139.449 0.129347 138.693C0.129347 138.233 0.412442 137.825 0.87858 137.825C1.9158 137.825 1.9158 137.782 2.95302 137.782C5.79866 137.987 8.40758 137.907 11.2557 137.808C12.2953 137.808 12.2953 137.941 13.335 137.941C14.3722 137.941 14.3722 137.847 15.4094 137.847C16.4491 137.847 16.4491 137.931 17.4887 137.931C18.526 137.931 18.526 137.941 19.5656 137.941C20.0318 137.941 20.4906 138.233 20.4906 138.693C20.4906 139.449 20.4149 139.449 20.4149 140.206C20.4149 140.962 20.3588 140.96 20.3588 141.716C20.3588 142.174 20.0318 142.497 19.5656 142.497Z" fill="#DCEADF"/>
<path d="M34.9897 147.545C34.0477 147.545 34.0477 147.593 33.1056 147.593C31.6999 147.518 30.7481 147.499 29.3423 147.552C27.9317 147.557 26.9775 147.501 25.5742 147.431C24.1684 147.443 23.2166 147.441 21.8109 147.429C19.8243 147.446 18.1379 147.434 16.1562 147.518C15.2142 147.518 15.2142 147.53 14.2721 147.53C13.8084 147.53 13.5156 147.147 13.5156 146.687C13.5327 145.188 13.479 144.174 13.3911 142.678C13.3911 141.675 13.3813 141.675 13.3813 140.673C13.3813 140.215 13.8084 139.892 14.2721 139.892C15.6828 139.909 16.6346 139.861 18.0403 139.782C18.9823 139.782 18.9823 139.917 19.9219 139.917C20.864 139.917 20.864 139.89 21.806 139.89C23.2118 139.924 24.166 139.909 25.5717 139.861C28.1538 139.883 30.5235 139.714 33.1032 139.931C34.0477 139.931 34.0477 139.772 34.9897 139.772C35.4534 139.772 35.8414 140.215 35.8414 140.673C35.8414 141.675 35.9098 141.675 35.9098 142.678C35.9098 143.68 35.8488 143.68 35.8488 144.682C35.8488 145.685 35.8268 145.685 35.8268 146.687C35.8268 147.147 35.4534 147.545 34.9897 147.545Z" stroke="#454138" stroke-width="1.3" stroke-linecap="round" stroke-linejoin="round"/>
<path d="M36.5176 135.941C37.4694 135.941 37.4694 136.054 38.4212 136.054C39.373 136.054 39.373 135.941 40.3248 135.941C41.7452 135.997 42.7092 136.059 44.1296 136.081C45.5524 136.011 46.5115 135.963 47.9368 135.977C48.8886 135.977 48.8886 135.948 49.8404 135.948C50.7922 135.948 50.7922 136.093 51.744 136.093C53.7501 136.023 55.4536 136.001 57.4572 135.91" stroke="#454138" stroke-width="1.3" stroke-linecap="round" stroke-linejoin="round"/>
<path d="M22.9481 126.909C21.8083 126.909 21.8083 126.882 20.6686 126.882C20.2025 126.882 19.8096 126.586 19.8096 126.126C19.8096 125.003 19.7778 125.003 19.7778 123.88C19.7778 123.42 20.2025 123.08 20.6686 123.08C21.8083 123.08 21.8083 123.025 22.9481 123.025C23.4118 123.025 23.7364 123.42 23.7364 123.88C23.7364 125.003 23.8023 125.003 23.8023 126.126C23.8023 126.586 23.4118 126.909 22.9481 126.909Z" fill="#DCEADF"/>
<path d="M160.838 63.3573C160.342 63.2513 159.722 63.2176 159.076 63.0079C158.748 62.9019 158.392 62.6875 157.789 62.4755C157.77 62.4683 157.772 62.4393 157.794 62.4369C158.265 62.3839 158.675 62.2514 158.98 61.9767C158.983 61.9743 158.985 61.9743 158.985 61.9719C159.137 61.6828 158.502 61.6876 157.392 61.5599C157.382 61.5575 157.372 61.5479 157.372 61.5382L157.394 61.36C157.394 61.3527 157.399 61.3455 157.409 61.3431C158.461 61.0516 161.523 60.0493 160.972 59.4614C160.969 59.459 160.967 59.4566 160.962 59.4542C160.279 59.2831 157.289 60.3504 155.866 60.442C155.424 60.4926 154.746 60.3095 153.972 60.1794C153.972 60.1794 153.972 60.1794 153.97 60.1794C152.735 60.0517 151.498 59.8348 150.307 59.5072C150.295 59.5048 150.29 59.4903 150.295 59.4783L150.402 59.2397C150.665 58.6543 150.885 58.3314 150.553 58.0206C150.458 57.9242 150.348 57.811 150.226 57.6833C149.357 56.7894 147.852 55.2113 146.849 54.3271L146.846 54.3247C146.507 54.0187 145.836 53.6019 145.182 52.9224C145.182 52.9224 145.182 52.92 145.179 52.92C144.337 51.8503 143.273 50.7058 142.185 49.7589C142.185 49.7589 142.185 49.7589 142.182 49.7589C140.142 47.6604 137.999 45.8751 135.598 44.2729C133.76 43.1501 131.744 42.596 129.877 41.4611L129.875 41.4587C126.817 40.2203 124.408 37.5411 122.199 35.1655C121.726 34.674 121.125 34.3198 120.684 33.8452C120.208 33.3392 119.898 32.7128 119.468 32.2526C119.031 31.7828 118.424 31.3853 117.906 30.8359C117.906 30.8359 117.906 30.8359 117.906 30.8335C117.06 29.771 116.11 28.694 115.053 27.752C114.553 27.2773 113.945 26.8966 113.411 26.4316C113.411 26.4316 113.411 26.4316 113.409 26.4316C112.418 25.4366 111.312 24.5716 110.087 23.8705C110.087 23.8705 110.085 23.8705 110.085 23.8681C107.573 22.1141 104.628 21.066 101.882 19.7529C101.88 19.7529 101.877 19.7529 101.872 19.7529L101.648 19.765C101.635 19.765 101.626 19.7577 101.626 19.7481C101.584 19.0928 101.506 18.5097 101.374 18.2423C100.654 16.6328 98.7142 15.8136 97.4061 15.0378C97.4012 15.0378 97.3963 15.0354 97.3914 15.0378L97.328 15.0499C97.3182 15.0499 97.3036 15.0451 97.3036 15.033C97.0742 13.8428 96.8521 12.467 96.713 11.4021V11.3997C98.0772 11.3636 99.5903 10.195 99.2877 8.75665V8.75425C99.151 8.36393 98.8972 8.11095 98.5922 7.98325C98.5848 7.97843 98.5775 7.97121 98.58 7.95916C98.6507 7.53753 98.6556 7.13998 98.6044 6.76894C98.6019 6.7569 98.6117 6.74726 98.6214 6.74485L98.6288 6.74244C98.6361 6.74244 98.6434 6.74244 98.6459 6.74726C100.94 8.61691 104.508 5.5715 102.983 3.04891C102.983 3.0465 102.98 3.0465 102.98 3.0465C102.375 1.34309 100.037 0.0974582 98.3286 0.952777C97.2767 1.47079 96.342 3.00554 96.6788 4.02952C96.6812 4.03674 96.6812 4.04156 96.6764 4.04638V4.04879C96.6764 4.0512 96.669 4.05361 96.6617 4.0512C96.2468 3.81267 95.788 3.62956 95.3072 3.5091H95.3048C95.3023 3.5091 95.3023 3.50669 95.2999 3.50669H95.2975C93.6696 3.0971 91.8002 3.37417 90.5555 4.48488C90.3042 4.70895 90.0796 4.96916 89.8844 5.2631C89.5671 5.77147 89.5232 6.67257 89.5159 7.50861C89.5159 7.51825 89.5061 7.52789 89.4939 7.52789H89.4915L89.4866 7.52548C89.3158 7.36164 89.0375 7.29177 88.7642 7.33032C88.7593 7.33032 88.7569 7.33032 88.752 7.32791C88.5104 7.20263 88.1809 7.07493 87.7489 6.97374C86.6702 6.71594 86.8996 7.06047 86.3627 6.61715C86.3603 6.61474 86.3554 6.61234 86.353 6.61234L86.2749 6.59547C86.2553 6.59065 86.2529 6.56656 86.2675 6.55933C86.8703 6.21238 87.1901 5.99313 87.5586 5.86544H87.561C88.1004 5.73051 89.7599 5.12577 90.5287 4.45356C90.7361 4.27045 90.8801 4.08252 90.9143 3.89459C90.9167 3.88495 90.9094 3.87772 90.9021 3.87291L90.2114 3.6127C90.1943 3.60788 90.1919 3.58619 90.209 3.57656C90.4677 3.43922 90.8679 3.31876 91.2852 3.00072C92.0125 2.45139 91.9125 1.89242 91.5171 2.09481C91.2438 2.23214 90.4189 2.46826 89.7599 2.69955C89.738 2.70678 89.7233 2.67787 89.7428 2.66342C90.3749 2.18636 90.5067 1.60571 90.0748 1.92374C89.6013 2.26828 87.5391 3.03927 87.1657 3.12842C86.9851 3.17179 85.7599 3.26575 84.5836 3.53801C81.9332 4.1548 82.453 4.05361 80.2321 4.54993C80.2151 4.55234 80.2029 4.53789 80.2077 4.52343C80.3298 4.18371 80.4957 3.91868 80.7154 3.77894C80.7349 3.76689 80.7251 3.73798 80.7032 3.7428C80.237 3.81267 79.6464 3.99578 78.9948 4.10661C77.7599 4.2849 76.2565 4.60294 75.0192 4.92097C74.6214 5.01012 74.2407 5.07999 73.8697 5.14504C72.154 5.43898 70.6848 5.53536 68.7788 5.8558C68.7788 5.8558 68.7788 5.8558 68.7764 5.8558C67.4292 6.15456 65.9868 6.42682 64.5738 6.71353C61.4938 7.48211 58.4847 8.88194 55.7562 10.383C55.7562 10.383 55.7562 10.383 55.7538 10.383C54.2138 11.3636 53.7721 13.479 54.8996 14.9439C56.3468 16.7846 58.2211 18.5555 60.2419 19.9746C60.2419 19.9746 60.2419 19.9746 60.2443 19.9746C61.3059 20.8347 62.6018 21.6804 63.8978 22.3936H63.9002C65.0546 23.2609 66.3431 23.9934 67.7001 24.5861C67.7001 24.5861 67.7001 24.5861 67.7001 24.5885C70.7507 26.5328 74.287 28.0049 77.5769 29.3421C77.5793 29.3421 77.5793 29.3445 77.5817 29.3445L77.7843 29.4891C77.7916 29.4963 77.7941 29.5084 77.7867 29.518C77.1302 30.4263 76.5421 31.3804 76.115 32.4598C76.115 32.4598 76.115 32.4598 76.115 32.4622C75.2169 35.2788 76.1418 38.7169 77.0473 41.425C77.6013 42.9309 77.2938 44.0994 77.7404 45.8004C78.619 49.3036 79.8783 53.3561 80.2443 56.9822V56.9846C80.5836 58.4615 81.1351 60.0011 81.8868 61.4611C81.8917 61.4732 81.8893 61.4852 81.8795 61.4876L81.8673 61.4949C81.86 61.4997 81.8526 61.4997 81.8478 61.4949C80.9716 61.0371 79.1266 60.9407 78.6702 61.5816C78.6702 61.584 78.6678 61.584 78.6678 61.5864C78.4945 61.9695 78.475 62.5935 78.3749 63.0802C78.2651 63.6175 77.8136 63.9958 77.306 64.2174C76.0686 64.8607 74.7092 65.5257 73.3621 66.1473C71.3926 67.0725 69.5793 68.3639 67.7294 69.5373C67.7294 69.5373 67.7269 69.5373 67.7269 69.5397C65.1058 70.8504 62.8971 72.8959 60.747 74.8065C58.8508 76.7075 57.157 78.7964 55.6195 80.9913V80.9937C54.7434 82.0129 53.9453 83.0874 53.2303 84.2198C51.888 86.5352 50.165 88.6169 48.747 90.8793C47.4633 92.773 46.182 94.674 45.5817 96.8015C45.5817 96.8015 45.5817 96.8015 45.5817 96.8039C44.8275 98.994 44.4639 101.213 45.3718 103.367C46.348 105.979 48.132 108.564 50.8166 109.61H50.819C52.1296 110.267 53.445 110.364 54.8971 110.181C55.5536 110.161 56.2296 110.212 56.9057 110.118C60.8227 109.436 64.7324 107.959 68.4249 106.603C68.4249 106.603 68.4249 106.603 68.4274 106.603C71.7684 105.598 75.4097 105.241 78.9631 104.429C79.6611 104.278 80.3371 103.952 81.0595 103.784C81.7624 103.615 82.5116 103.593 83.2193 103.408C85.2987 102.76 87.4536 102.15 89.4475 101.343C89.4475 101.343 89.4475 101.343 89.45 101.343C91.6489 100.307 91.4707 100.825 91.4073 98.341C91.3829 97.3387 91.3316 96.3003 91.2047 95.2571C91.2023 95.2474 91.2096 95.2378 91.2218 95.2354L91.2316 95.233C91.2316 95.233 91.234 95.2306 91.2364 95.2306C92.0882 94.7921 93.5867 94.115 94.5824 93.703C94.5824 93.703 94.5824 93.703 94.5848 93.703C95.4976 93.2404 95.3292 93.1417 96.1419 92.7272C96.1468 92.7248 96.1492 92.7248 96.1541 92.7248L96.1907 92.7272C96.2029 92.7272 96.2102 92.7369 96.2102 92.7465C96.0931 95.9558 96.176 99.1771 96.8252 102.266V102.268C96.9106 103.006 96.7959 103.668 96.8667 104.237V104.239C97.1547 105.61 97.4622 106.986 97.5379 108.109C97.8527 112.286 98.2554 117.1 100.476 120.893V120.895C101.103 122.35 102.026 123.162 102.973 124.348C104.179 125.95 104.923 127.851 106.058 129.549C106.058 129.549 106.058 129.552 106.06 129.552C106.99 131.318 107.7 133.219 108.737 134.968C109.684 136.78 110.395 138.717 111.373 140.555V140.558C112.957 144.381 114.514 148.294 115.92 152.178C116.715 154.093 117.474 156.083 117.919 158.033C117.921 158.045 117.933 158.052 117.945 158.047C119.861 157.474 121.692 156.454 123.595 155.72C123.598 155.72 123.598 155.72 123.6 155.717C125.265 154.734 126.927 153.691 128.576 152.638C128.586 152.633 128.598 152.636 128.606 152.645L128.628 152.679C128.628 152.679 128.628 152.681 128.63 152.681C129.509 154.419 130.836 156.206 131.913 157.811C133.023 159.604 133.428 159.36 133.045 161.355C132.796 162.49 134.853 163.271 135.171 163.825C135.171 163.825 135.171 163.825 135.171 163.827C135.495 164.323 136.654 166.723 137.133 167.788C137.133 167.788 137.133 167.79 137.135 167.79C137.87 169.007 138.663 170.453 139.229 171.684C139.771 172.754 140.22 173.515 140.266 173.648C140.437 174.129 139.595 174.761 139.895 175.79C140.205 176.854 140.764 176.548 141.345 177.493C141.865 178.336 141.575 178.348 141.76 179.425C141.867 180.044 141.853 180.755 141.933 181.394C141.933 181.394 141.933 181.394 141.933 181.396C142.312 183.355 142.273 183.478 141.453 185.367C140.698 187.222 139.671 189.405 139.698 191.45V191.453C139.544 192.775 139.683 194.173 140.445 195.098C140.879 195.643 141.506 195.773 142.158 195.705C142.629 195.655 143.439 195.826 144.403 195.739C145.069 195.679 145.794 195.455 146.57 195.206H146.573C149.504 194.647 151.337 191.766 152.62 189.265V189.263C153.841 187.545 154.878 185.55 155.581 183.728C156.545 181.5 155.312 180.064 154.255 178.057C154.255 178.057 154.255 178.057 154.255 178.054C153.985 177.459 153.853 176.782 153.599 176.182C153.421 175.758 153.184 175.368 152.989 174.987C152.982 174.978 152.986 174.966 152.996 174.961L153.023 174.946C153.025 174.946 153.028 174.946 153.03 174.946C153.826 174.867 154.561 174.746 155.149 174.346C155.459 174.137 155.732 173.85 155.952 173.452C156.359 172.506 156.689 171.127 156.93 170.243C156.996 169.848 156.869 169.472 156.645 169.14C156.193 168.475 155.886 167.795 155.549 167.169C154.761 165.832 154.346 164.723 153.899 163.661C153.899 163.661 153.899 163.658 153.899 163.656C153.777 163.15 153.594 162.649 153.335 162.148C152.662 160.789 152.232 160.001 150.971 158.842C149.597 157.524 146.997 155.968 145.704 154.898C144.859 154.178 143.31 154.452 142.79 153.749C142.273 153.045 142.541 152.496 142.17 152.084C141.731 151.592 141.536 151.592 140.82 151.672H140.818L140.537 151.725C140.528 151.727 140.518 151.723 140.515 151.713C139.881 150.328 139.149 148.561 138.602 147.338C138.602 147.338 138.602 147.338 138.602 147.335C137.999 146.21 137.174 144.622 136.745 143.685C136.742 143.683 136.74 143.678 136.735 143.675L136.662 143.644C136.652 143.642 136.647 143.63 136.652 143.618C136.947 142.914 137.184 142.182 137.352 141.43C137.355 141.427 137.352 141.42 137.35 141.415C136.337 139.543 135.881 137.319 135.01 135.312C134.526 133.958 134.072 132.559 133.562 131.207C133.562 131.207 133.562 131.205 133.56 131.205C132.515 129.304 131.649 127.241 130.368 125.502C130.368 125.502 130.368 125.502 130.368 125.499C129.018 123.923 127.205 122.647 125.745 121.138V121.136C124.076 119.885 122.155 118.635 120.554 117.454C119.625 116.77 118.99 116.279 118.992 116.03C119.014 115.187 119.449 112.915 119.151 112.122C118.844 111.392 118.263 111.236 117.694 110.178C117.689 110.166 117.682 110.154 117.677 110.142C117.675 110.14 117.675 110.135 117.675 110.128C117.816 109.446 117.892 108.766 118.041 108.087C118.744 105.384 119.161 102.613 119.939 99.9312V99.9288C120.21 98.4519 120.603 97.0087 121.006 95.5703C121.008 95.5582 121.021 95.5534 121.03 95.5558L121.055 95.5606C121.057 95.5606 121.06 95.5631 121.062 95.5655C122.294 96.4569 123.515 98.3314 125.186 98.4494C125.186 98.4494 125.186 98.4494 125.189 98.4494C126.456 98.6205 128.125 97.546 128.071 96.4136C128.071 96.4136 128.071 96.4136 128.071 96.4111C128.047 96.1823 127.964 95.4426 127.649 94.4813C127.471 93.9295 127.095 93.3465 126.844 92.6694C126.458 91.4527 125.916 90.183 125.277 89.0506V89.0482C124.769 87.8459 124.113 86.5545 123.283 85.6703C123.28 85.6679 123.276 85.6679 123.271 85.6654L123.251 85.6582C123.246 85.6558 123.244 85.6534 123.244 85.6486C123.681 82.8802 124.074 80.0999 124.183 77.3339C124.183 77.3339 124.183 77.3339 124.183 77.3315C124.142 75.1944 124.154 73.0935 123.542 71.0841C123.542 71.0841 123.542 71.0817 123.542 71.0793C123.341 69.6409 122.983 68.2868 122.416 66.9906C122.416 66.9906 122.416 66.9906 122.416 66.9882C121.465 64.268 120.032 61.8274 118.209 59.6035C116.301 57.3315 114.097 55.351 111.859 53.4043C111.849 53.3971 111.847 53.385 111.856 53.3778L112.008 53.2067C112.008 53.2043 112.01 53.2043 112.01 53.1995C112.481 51.6262 111.849 50.4938 110.953 49.4578C110.951 49.4554 110.951 49.4554 110.951 49.4554C110.951 49.453 110.949 49.453 110.949 49.4505C110.272 48.6747 109.45 47.9495 108.833 47.1352C108.833 47.1352 108.833 47.1352 108.83 47.1328C108.327 46.3329 108.056 46.4726 108.108 45.6124C108.166 44.6608 108.31 44.6222 108.247 43.7428C108.196 42.8224 105.999 41.5768 105.745 40.7745C105.745 40.7721 105.745 40.7721 105.745 40.7697C105.687 40.0902 106.128 39.0928 106.695 38.0616C106.97 37.5556 107.273 37.0448 107.564 36.5605C107.566 36.5509 107.578 36.5509 107.585 36.5533C108.923 37.4231 111.351 38.9675 113.091 39.7722C115.495 41.1503 117.945 42.9164 120.388 44.1162C120.388 44.1162 120.388 44.1162 120.391 44.1162C122.387 45.3065 122.241 45.3426 123.913 46.8509C124.999 47.8291 126.321 49.0096 127.39 50.0143C128.869 51.3322 129.016 51.9201 130.526 53.1561L130.529 53.1585C131.656 53.8283 132.972 54.621 134.07 55.4233C135.071 56.2064 136.694 57.305 137.411 57.929L137.413 57.9314C138.031 58.5988 139.61 60.0469 140.596 60.8443C140.596 60.8443 140.598 60.8443 140.598 60.8468C140.713 60.9576 140.823 61.0732 140.933 61.1913C141.318 61.5985 141.692 62.0273 142.092 62.408C142.958 63.2537 144.645 64.9523 145.423 65.0968C145.423 65.0968 145.423 65.0968 145.426 65.0968C145.614 65.1017 145.792 65.0776 145.958 65.0318C146.561 64.8704 147.019 64.4102 147.295 63.8416C147.298 63.8319 147.31 63.8271 147.322 63.8319C148.274 64.2367 149.401 64.615 150.075 64.721C151.215 64.8704 152.33 64.7475 153.36 65.133C154.414 65.5305 154.319 65.7522 155.327 66.2437C156.264 66.7015 157.25 67.1062 157.46 66.9882C157.46 66.9882 157.46 66.9882 157.462 66.9882C157.804 66.8219 155.21 65.1764 154.68 64.8149C154.665 64.8053 154.668 64.786 154.685 64.7788L154.695 64.774C154.697 64.774 154.7 64.774 154.7 64.774C155.014 64.574 154.961 64.4776 155.317 64.3789C155.322 64.3789 155.324 64.3789 155.327 64.3789C155.795 64.4849 156.435 64.6463 157.072 64.8005C158.094 65.1041 161.011 65.1185 161.401 64.4367C161.404 64.4319 161.404 64.4319 161.404 64.4271L161.399 64.3066C161.399 64.2969 161.409 64.2849 161.418 64.2849C161.711 64.2704 161.968 64.1861 162.185 63.9765C162.517 63.6536 161.948 63.5934 160.838 63.3573ZM91.0436 12.9586C91.0436 12.961 91.0436 12.961 91.0436 12.9634C91.0168 13.6573 90.907 14.3054 90.7361 14.9198C90.7337 14.9318 90.7215 14.9366 90.7093 14.9342L90.6971 14.9318C90.6971 14.9318 90.6922 14.9318 90.6898 14.9318C88.8057 15.2498 86.0333 15.5462 84.4079 15.9461C83.9808 16.0666 82.3652 15.7799 82.658 16.3003C82.658 16.3003 82.658 16.3027 82.6605 16.3027C82.9606 16.7196 83.5488 17.4761 84.1126 18.2398C84.115 18.2471 84.115 18.2543 84.1101 18.2591C82.3237 17.958 80.3786 17.5508 78.5409 17.1267C77.9332 17.0135 77.2767 17.0472 76.6519 16.9051C76.0662 16.7701 75.3926 16.4473 74.6385 16.2256C74.6385 16.2256 74.6385 16.2256 74.636 16.2256C73.3523 15.7727 71.8441 15.3679 70.5408 15.1029H70.5384C69.7965 14.8523 68.8593 14.4957 68.6348 14.409C68.6177 14.4042 68.6177 14.3777 68.6348 14.3704C71.007 13.4549 73.079 12.5152 75.4878 11.9105C75.4902 11.9105 75.4927 11.9105 75.4927 11.9105C75.8124 11.8286 76.1394 11.7563 76.4713 11.6888C77.6305 11.4093 79.0778 11.1419 80.2443 10.9419C80.2443 10.9419 80.2444 10.9419 80.2468 10.9419C81.9356 10.5348 83.1779 10.5323 82.9338 8.81689L82.9094 8.32056C82.9094 8.31093 82.9167 8.30129 82.9265 8.30129C83.1242 8.28924 83.3121 8.27719 83.4878 8.27479C84.4616 8.23624 84.7715 7.76159 86.1431 7.58812C86.9387 7.48693 87.5952 7.53994 88.1053 7.62908C88.1223 7.62908 88.1272 7.65076 88.1175 7.6604C87.9271 7.87483 87.8197 8.19046 87.8856 8.6145C88.0345 9.56138 88.1785 9.67461 88.979 10.1782C88.9814 10.1782 88.9838 10.1782 88.9838 10.1782L89.0058 10.1878C89.0156 10.1902 89.0229 10.2023 89.018 10.2143C88.896 10.5685 88.835 10.9612 88.9692 11.4142C89.2401 12.2141 90.1016 12.7008 91.0339 12.9104C91.0436 12.9104 91.0534 12.9248 91.051 12.9345L91.0436 12.9586ZM97.2743 82.0755C97.2743 82.0852 97.267 82.09 97.2621 82.0924C95.461 82.8417 93.0644 83.126 91.1486 83.4272C91.1266 83.432 91.1144 83.4055 91.1315 83.3934C92.8691 81.9069 94.1748 81.3455 97.5183 80.3842C97.5183 80.3842 97.5232 80.3842 97.5281 80.3842C97.5379 80.3866 97.5452 80.3962 97.5427 80.4058C97.4256 80.9528 97.3377 81.5117 97.2743 82.0755Z" fill="#F5F3F1"/>
<path d="M98.0259 92.226C97.694 88.7638 98.3896 85.328 98.9509 81.926C97.0766 82.8368 95.3194 83.5764 93.162 83.1885C92.4786 83.8921 91.7245 84.6293 90.9314 85.1907C90.37 85.6003 89.8185 86.0243 89.2376 86.4074C88.9301 87.7398 91.8197 96.0087 92.7422 95.6738C93.5989 95.3605 94.4506 95.0931 94.824 94.8955C95.7514 94.404 97.3914 93.6451 98.087 92.8066C98.0674 92.6139 98.043 92.4211 98.0259 92.226Z" fill="#F5B731" fill-opacity="0.8"/>
<path d="M83.6002 61.4055C83.5954 61.4055 83.5929 61.4055 83.5905 61.4055C83.0707 61.0633 82.0554 60.6393 81.3623 60.832C80.5594 61.0537 80.43 62.0656 80.1274 62.7523C79.5343 64.0823 77.9578 64.7087 76.7424 65.3953C75.0828 66.3374 73.3354 67.0963 71.7271 68.1203C69.5404 69.5129 67.6759 71.2886 65.6088 72.8282C58.3751 77.9047 53.638 85.6652 49.1597 93.0619C47.0315 96.6735 45.1157 101.755 47.7417 105.542C50.4482 109.438 53.1353 110.987 57.9992 110.465C60.4714 110.18 62.8192 109.026 65.1572 108.258C67.5026 107.487 69.8552 106.875 72.2665 106.321C76.6496 105.121 90.8681 103.993 92.8815 100.068C92.884 100.066 92.884 100.063 92.884 100.061C93.4038 96.4302 92.0469 92.8523 90.7192 89.5153C90.402 88.819 89.4843 87.4264 89.7186 86.7735C90.0847 85.7592 91.7589 84.74 92.5301 83.9907C93.333 83.2149 94.0481 82.1307 95.0853 81.7235C96.3934 81.2127 97.9651 81.2874 99.1537 80.408C99.1659 80.3984 99.1829 80.4032 99.1878 80.4176C99.466 81.4175 98.7119 83.0173 98.6265 84.0437C98.3629 86.8169 98.4288 89.6069 97.7723 92.3222C97.7723 92.3246 97.7723 92.3246 97.7723 92.327C97.7113 95.1845 97.4648 98.0251 97.9456 100.859C98.646 104.458 99.6296 107.985 99.8712 111.66C99.9785 113.286 100.279 114.975 100.779 116.534C101.113 117.582 102.107 119.259 101.926 120.369C101.924 120.379 101.931 120.386 101.938 120.389C102.295 120.5 102.695 121.907 102.939 122.333C103.364 123.068 103.954 123.714 104.491 124.364C105.799 125.947 106.771 127.643 107.725 129.443C109.96 133.662 112.623 137.922 113.826 142.579C114.509 145.219 115.637 147.696 116.503 150.298C117.265 152.587 117.946 154.91 118.81 157.153C119.098 157.902 119.249 157.941 120.071 157.811C121.467 157.589 122.775 156.861 124.044 156.274C125.299 155.693 126.556 155.124 127.81 154.573C129.035 154.035 129.999 153.026 131 152.168C132.057 151.265 133.196 150.667 134.19 149.65C135.998 147.612 139.664 144.636 139.334 141.68C139.334 141.678 139.334 141.678 139.332 141.678C139.105 140.996 138.688 140.022 138.329 139.358C137.372 137.584 136.794 135.758 136.103 133.883C134.597 129.301 131.835 125.082 127.883 122.208C125.946 120.815 123.564 119.659 121.892 117.931C120.65 116.649 121.45 115.539 120.967 114.009C120.684 113.117 119.905 112.686 119.544 111.864C119.163 110.997 119.471 110.166 119.639 109.274C120.247 106.082 120.742 102.832 121.235 99.6105C121.838 96.1964 122.534 92.7246 123.525 89.3973C123.988 87.9517 124.484 86.4771 124.85 85.0026C125.038 84.2509 125.838 82.5523 125.528 81.8584C125.526 81.8512 125.526 81.8464 125.531 81.8391C126.075 81.1693 126.199 79.7454 126.28 78.907C126.412 77.512 126.409 76.0109 126.185 74.6304C125.206 68.7371 123.137 62.9258 119.393 58.1697C116.728 54.7075 112.996 52.2283 109.558 49.5924C109.057 49.1973 108.196 48.1902 107.571 48.101C107.561 48.0986 107.551 48.1059 107.547 48.1179C107.11 49.8141 107.503 51.544 107.764 53.1992C107.764 53.2016 107.764 53.204 107.764 53.204C107.5 55.8977 105.187 60.196 103.024 62.7884C100.877 65.3616 98.3117 67.0192 94.9535 67.6288C90.8339 68.5058 87.1609 66.8891 85.2573 63.1595C84.9669 62.6246 84.3763 61.3525 83.6002 61.4055Z" fill="#486A6E"/>
<path d="M116.889 151.583C116.845 151.583 116.803 151.554 116.791 151.508C116.386 150.176 115.886 148.853 115.405 147.571C114.8 145.959 114.172 144.292 113.726 142.598C112.759 138.864 110.836 135.356 108.976 131.966C108.53 131.152 108.069 130.308 107.632 129.484C106.355 127.029 105.164 125.232 103.766 123.654C103.734 123.618 103.732 123.562 103.766 123.524C103.785 123.499 103.815 123.485 103.846 123.485C103.861 123.485 103.881 123.49 103.895 123.497C104.679 123.926 105.411 124.133 106.128 124.133C107.031 124.133 107.834 123.82 108.769 123.456C109.328 123.239 109.906 123.013 110.568 122.832C111.107 122.721 111.541 122.671 111.907 122.671C113.491 122.671 113.882 123.654 114.551 125.699C115.497 128.602 115.939 132.057 116.247 135.055C116.842 140.883 117.089 146.256 116.996 151.477C116.996 151.53 116.957 151.568 116.906 151.578C116.898 151.583 116.893 151.583 116.889 151.583Z" fill="#385052"/>
<path d="M56.3126 110.583C55.5853 110.583 54.858 110.51 54.1527 110.373C54.1478 110.371 54.1405 110.366 54.1381 110.363C54.1356 110.361 54.1356 110.351 54.1381 110.344C54.941 108.858 55.8489 107.173 56.315 105.289C56.4395 104.779 56.5298 104.196 56.6225 103.576C56.8422 102.157 57.0911 100.548 57.855 99.5214C58.8336 98.2155 60.5737 97.1771 62.2552 96.1724C63.1314 95.652 63.9563 95.1581 64.6347 94.6497C70.9947 89.8864 76.1906 85.1063 80.5152 80.0346C80.6665 79.8563 80.8202 79.6804 80.9715 79.5045C83.0948 77.0325 85.1033 74.6979 84.9032 71.4067C84.7739 69.3178 84.4737 67.1904 84.1808 65.1328C84.0076 63.9161 83.8318 62.656 83.6878 61.4127C83.6878 61.4055 83.6903 61.4007 83.6952 61.3959C83.7001 61.3935 83.7025 61.3911 83.7098 61.3911H83.7123C84.3688 61.4489 84.8764 62.3958 85.179 62.9644C85.2156 63.0294 85.2498 63.0945 85.2791 63.1475C86.758 66.1592 89.4646 67.8144 92.8935 67.8144C96.6153 67.8144 100.679 65.7905 103.009 62.774C103.293 62.4367 103.598 62.0825 103.915 61.7163C104.635 60.8875 105.45 59.9455 106.16 58.9745C106.163 58.9673 106.17 58.9648 106.175 58.9648C106.18 58.9648 106.182 58.9648 106.185 58.9673C106.192 58.9721 106.199 58.9817 106.194 58.9914C105.989 59.6178 105.699 60.2057 105.418 60.7743C104.808 62.0127 104.232 63.1788 104.496 64.663C105.611 64.5425 106.875 63.9064 108.213 63.2318C109.701 62.4801 111.241 61.7043 112.569 61.7043C112.969 61.7043 113.343 61.7766 113.672 61.9211C113.679 61.9211 113.682 61.9283 113.684 61.9356C113.687 61.9404 113.684 61.9476 113.679 61.9524C111.334 64.8798 109.411 67.0964 106.006 68.9853C105.728 69.1395 105.423 69.3009 105.103 69.4696C103.241 70.4526 100.92 71.6742 100.156 73.5269C99.7269 74.6786 99.6147 76.0519 99.5048 77.3771C99.417 78.4324 99.3267 79.5262 99.0753 80.4803C98.3505 80.9863 97.4963 81.1598 96.669 81.3284C96.1394 81.4368 95.5927 81.5477 95.0948 81.7452C94.3505 82.0344 93.7721 82.6801 93.2107 83.3041C92.996 83.5402 92.7715 83.7908 92.5445 84.0076C92.3126 84.2341 91.9954 84.4847 91.661 84.7497C90.8801 85.3737 89.9917 86.0772 89.7379 86.7808C89.5597 87.2747 90.0454 88.1878 90.4359 88.9203C90.5506 89.1395 90.6604 89.3443 90.7361 89.5106C91.9392 92.5415 93.4402 96.3122 92.9008 100.071C91.3999 102.984 83.2974 104.355 77.3815 105.357C75.2607 105.716 73.4328 106.024 72.2711 106.342C69.5304 106.969 67.2705 107.585 65.1619 108.277C64.7201 108.436 64.2808 108.6 63.844 108.764C61.3278 109.696 58.9508 110.583 56.3126 110.583Z" fill="#385052"/>
<path d="M84.4519 63.4415C83.1023 61.9549 83.1389 60.7334 82.5873 59.2974C81.2987 55.4208 81.2231 51.1803 80.0199 47.2772C79.7124 46.3496 79.339 45.5473 79.2072 44.5691C78.9363 42.5621 77.8234 40.837 77.8674 38.7625C77.638 34.3125 76.8765 33.1247 80.059 29.3058C77.7331 29.3998 75.0291 28.0747 73.0156 27.1085C70.5141 25.9038 68.2835 24.4679 65.9772 22.9741C60.5031 19.8853 49.2059 11.5803 61.1694 8.43125C63.9369 7.52293 66.4677 6.32548 69.328 5.68701C72.4323 4.99552 75.7197 5.39548 78.846 4.71363C80.4348 4.36668 82.7045 3.04395 83.9199 4.61967C84.796 5.75929 84.8863 7.94456 84.6813 9.30825C84.4617 10.7707 83.7954 11.161 82.3164 11.6429C78.8655 12.7633 74.785 12.6717 71.6172 14.5341C73.5062 15.0835 75.4366 15.7942 77.3719 16.1749C80.0712 16.7074 83.0242 16.9676 85.594 17.9289C85.616 17.9385 85.6331 17.9096 85.6136 17.8952C85.1084 17.5193 84.3811 16.9844 84.2103 16.4496C85.6502 15.8545 87.4244 15.9846 88.9937 15.893C90.0333 15.8328 91.1633 15.4617 92.1322 15.4955C92.3128 16.7218 90.868 18.2397 90.1822 19.1745C87.8613 22.2657 85.433 25.5376 85.2841 29.5323C85.2036 30.8406 84.552 33.2355 85.1694 34.4353C86.7728 32.1127 89.7722 30.5563 92.0053 28.9083C94.3482 27.1736 97.1841 25.1039 98.8363 22.709C99.4708 21.7887 100.803 20.1142 100.435 19.0059C100.244 18.4349 99.4416 17.9024 99.1755 17.2808C98.8973 16.6303 98.7387 15.8231 98.6044 15.1317C99.5245 15.0955 100.825 15.6376 101.618 16.1195C102.849 16.864 102.868 17.7193 103.485 18.8782C104.769 21.2755 108.947 21.7525 111.212 22.844C116.081 25.1931 119.664 30.1756 123.488 33.8354C125.011 35.2907 126.448 36.811 127.896 38.3264C128.984 39.4685 130.199 40.2756 131.322 41.3309C133.57 43.4463 136.655 44.0968 139.256 45.8195C142.16 47.7398 144.652 50.0479 147.085 52.5296C148.513 53.9848 152.381 56.5821 152.296 58.871C152.11 61.5164 149.213 64.5305 146.522 64.5642C145.255 64.3233 143.368 62.3428 142.326 61.5429C140.689 60.2852 139.405 58.6975 137.836 57.4229C136.069 55.9894 133.865 55.1389 132.081 53.6788C130.17 52.1127 128.674 50.2479 126.949 48.5108C122.404 43.6728 116.625 40.8418 110.714 37.9747C109.784 37.4808 109.355 36.8592 108.506 37.4567C107.874 37.9 107.244 39.136 107.141 39.8829C106.927 41.4779 108.669 41.5887 109.172 42.8343C109.626 43.9595 108.777 45.0413 109.492 46.1014C110.168 47.1037 111.566 47.5422 112.288 48.5421C113.116 49.8142 113.15 51.4188 113.411 52.8765C111.185 53.1656 109.716 50.1949 107.847 49.4143C107.207 52.5055 109.252 52.9343 107.166 57.0061C106.387 58.5626 105.343 59.972 104.489 61.4923C103.366 63.4993 102.343 64.3932 100.376 65.581C93.6234 69.872 89.9577 69.0191 84.4519 63.4415Z" fill="#DCEADF"/>
<path d="M146.751 64.6942C146.661 64.6942 146.575 64.687 146.495 64.6726C145.541 64.4895 144.269 63.3715 143.247 62.4704C142.883 62.1476 142.534 61.8416 142.258 61.6296C141.382 60.9573 140.594 60.1791 139.835 59.4274C139.176 58.7769 138.495 58.0999 137.765 57.5096C136.896 56.8036 135.901 56.2302 134.937 55.6736C133.946 55.1002 132.918 54.5051 132.008 53.763C130.727 52.715 129.614 51.5127 128.538 50.349C127.998 49.7683 127.444 49.166 126.868 48.5878C122.287 43.7088 116.379 40.8441 110.663 38.071C110.441 37.9529 110.246 37.83 110.073 37.7192C109.726 37.4975 109.453 37.3216 109.157 37.3216C108.969 37.3216 108.774 37.3963 108.559 37.5481C107.944 37.9794 107.334 39.1913 107.239 39.9045C107.122 40.7887 107.622 41.1742 108.203 41.6223C108.618 41.9404 109.045 42.2704 109.262 42.8053C109.48 43.3426 109.411 43.8654 109.348 44.369C109.275 44.9545 109.204 45.5086 109.572 46.0555C109.904 46.5494 110.412 46.8964 110.951 47.2674C111.466 47.6216 111.998 47.9878 112.364 48.4914C112.911 49.2479 113.045 50.0816 113.184 50.9634C113.211 51.1176 113.235 51.2694 113.262 51.4212C113.289 51.5778 113.323 51.7271 113.358 51.8813C113.428 52.2066 113.504 52.5439 113.504 52.8884C113.504 52.9318 113.477 52.9704 113.433 52.9848C113.301 53.0258 113.162 53.045 113.018 53.045C111.918 53.045 110.644 51.8428 109.621 50.8742C108.957 50.2454 108.33 49.6551 108.013 49.6551C107.962 49.6551 107.925 49.672 107.891 49.7081C107.791 49.8237 107.7 50.1731 107.835 51.1971C107.842 51.2477 107.813 51.291 107.766 51.3079C107.754 51.3127 107.742 51.3151 107.732 51.3151C107.696 51.3151 107.659 51.2959 107.642 51.2621C106.568 49.3587 105.692 48.4504 103.615 48.4504C103.364 48.4504 103.088 48.4649 102.797 48.4914C101.004 48.6456 99.4197 48.7203 97.9578 48.7203C93.1085 48.7203 89.3135 47.8915 86.3483 46.1832C86.3093 46.1615 86.2897 46.1134 86.3019 46.0724C86.4996 45.2677 85.8285 44.4943 85.1183 43.6775C84.4667 42.9258 83.7931 42.15 83.837 41.3188C83.8394 41.273 83.8712 41.2368 83.9127 41.2248C84.4081 41.0995 84.8962 41.0393 85.4111 41.0393C86.8706 41.0393 88.2592 41.5476 89.5991 42.0391C90.9487 42.5331 92.3447 43.0487 93.8261 43.0487C94.0384 43.0487 94.2458 43.0366 94.4533 43.0173C95.4587 42.9788 96.4179 42.5307 97.3428 42.097C98.2995 41.6488 99.2928 41.1838 100.32 41.1838C100.779 41.1838 101.209 41.2706 101.638 41.4513C102.37 41.6705 102.893 41.7693 103.317 41.7693C104.374 41.7693 104.896 41.1356 106.041 39.7479L106.321 39.4081C106.897 38.7094 107.566 38.0589 108.213 37.4301C108.943 36.7193 109.697 35.9845 110.302 35.1966C110.402 35.0689 110.492 34.9412 110.578 34.8256C110.966 34.2979 111.244 33.9172 111.649 33.9172C111.974 33.9172 112.332 34.175 112.816 34.7557C113.038 35.0231 113.228 35.3243 113.411 35.6158C113.714 36.0953 114.026 36.5916 114.487 36.9337C115.188 37.4493 116.008 37.8252 116.877 38.2227C117.726 38.6106 118.602 39.0154 119.361 39.5623C121.204 40.8947 122.968 41.6777 125.011 42.5885C125.262 42.6993 125.514 42.8101 125.768 42.9282C126.675 43.3354 127.337 44.0582 127.974 44.7569C128.147 44.9472 128.318 45.1352 128.496 45.3183C129.97 46.8386 131.6 48.2239 133.177 49.5635L133.628 49.9466C135.215 51.2983 137.035 52.4114 138.802 53.4908C141.338 55.04 143.962 56.6422 145.946 58.9865C146.436 59.5575 146.771 59.9334 146.937 59.9334C147.029 59.9334 147.129 59.8105 147.283 59.625C147.498 59.3672 147.825 58.9769 148.425 58.5673C148.943 58.1601 150.173 57.5072 151.249 57.5072C151.576 57.5072 151.862 57.5674 152.101 57.6903C152.123 57.6999 152.14 57.7192 152.15 57.7385C152.957 59.5551 151.391 61.9115 150.139 63.0535C149.372 63.6871 147.776 64.6942 146.751 64.6942Z" fill="#BFD0C3"/>
<path d="M79.6901 29.3299C74.7822 29.1252 71.202 26.2845 67.5729 23.9981C67.0311 23.6559 66.4967 23.3186 65.9671 22.9934C65.5644 22.7332 65.1397 22.4633 64.698 22.1862C62.1623 20.5864 59.0116 18.5987 57.2227 16.0809C57.2154 16.0713 57.2178 16.0617 57.2251 16.0544C57.9524 15.3268 58.9823 14.6209 60.2026 14.0137C61.0201 13.609 61.8938 13.315 62.7383 13.0307C63.507 12.7729 64.3002 12.5055 65.0372 12.1585C67.158 11.1394 69.4985 10.6888 71.7608 10.2527C72.9811 10.019 74.2404 9.77568 75.4607 9.4456C77.0446 9.06733 78.3795 8.50595 79.7926 7.90843C80.1953 7.73978 80.6028 7.56872 81.0226 7.39765C81.0373 7.1784 81.047 6.95192 81.0519 6.72785C81.0861 5.71111 81.1202 4.65581 81.8158 3.88482C81.9964 3.84868 82.1599 3.83423 82.3161 3.83423C82.9311 3.83423 83.4461 4.06793 83.8463 4.52571C84.9177 5.75689 84.8762 8.19515 84.7029 9.3155C84.4784 10.8093 83.7706 11.1948 82.321 11.6646C80.9933 12.0959 79.5461 12.3537 78.1453 12.6018C76.2026 12.9488 74.1916 13.3054 72.4344 14.1342L72.1513 14.1438C70.1599 14.2017 69.5595 14.2185 68.3929 16.0858C68.3246 16.1918 68.2392 16.3074 68.1513 16.4303C67.8048 16.9049 67.3728 17.4952 67.5802 17.9771C67.9244 18.765 69.8426 19.507 71.2459 20.0491C71.7072 20.2274 72.1025 20.3792 72.3514 20.5021C72.9762 20.7792 73.6059 21.1285 74.2136 21.4658C75.6608 22.2682 77.1568 23.097 78.831 23.1235C79.4778 23.056 79.5559 22.95 79.7462 22.6922C79.8292 22.579 79.9317 22.4392 80.1099 22.2633C80.5174 21.861 80.8689 21.6538 81.1568 21.6538C81.3179 21.6538 81.4595 21.7188 81.579 21.8489C82.1794 22.497 82.0305 24.5305 81.9939 24.9305C81.8914 26.6074 81.1446 28.0434 79.7072 29.3275C79.7023 29.3299 79.6999 29.3324 79.6925 29.3324C79.6925 29.33 79.6901 29.3299 79.6901 29.3299Z" fill="#BFD0C3"/>
<path d="M98.2329 55.351C97.2957 55.4618 97.3177 55.6233 96.3805 55.7341C95.4433 55.8449 95.4433 55.8473 94.5086 55.9558C93.5715 56.0666 93.5715 56.0642 92.6343 56.175C91.6972 56.2834 91.6752 56.1051 90.738 56.216C90.5184 56.2425 90.3549 56.1413 90.2939 55.9003C89.9912 54.6981 90.0156 54.6908 89.713 53.4886C89.4104 52.2839 89.3982 52.2887 89.0931 51.084C89.0345 50.8431 89.0834 50.5492 89.303 50.5251C90.2402 50.4142 90.2402 50.4359 91.1773 50.3251C93.1468 50.0986 94.8283 49.9131 96.8076 49.7348C97.0272 49.7083 97.3396 49.8673 97.3982 50.1083C97.7033 51.3129 97.6374 51.3298 97.94 52.5321C98.2426 53.7367 98.2182 53.744 98.5233 54.9462C98.5819 55.1848 98.4525 55.3245 98.2329 55.351Z" fill="#F5B731" fill-opacity="0.8"/>
<path d="M154.727 175.226C154.729 175.216 154.737 175.209 154.749 175.209C156.552 175.228 157.224 173.836 157.778 172.414C158.322 171.021 159.071 170.205 158.122 168.894C157.38 167.868 156.609 166.954 156.313 165.685C155.606 160.589 151.476 157.76 147.298 155.423C146.505 154.961 145.17 154.949 144.511 154.351C143.654 153.575 143.933 152.549 142.786 151.973C142.158 151.66 142.2 152.029 141.734 151.296C141.329 150.658 141.143 149.785 140.884 149.075C140.34 147.578 139.676 146.128 138.944 144.721C138.656 144.172 137.863 144.157 137.565 144.702C136.308 147.128 134.412 149.14 132.482 151.06C131.952 151.535 131.42 151.992 130.8 152.344C130.341 152.6 130.183 153.173 130.446 153.621C131.51 155.418 132.914 157.038 134.017 158.816C134.424 159.447 134.817 160.011 134.908 160.741C135.02 161.671 134.722 162.092 135.254 162.892C135.762 163.654 136.679 164.001 137.15 164.8C137.831 165.959 138.188 167.395 138.822 168.602C139.798 170.453 140.997 172.281 140.948 174.394C140.901 176.491 142.532 176.917 143.076 178.746C144.001 181.851 143.562 184.615 142.246 187.453C141.16 189.764 140.018 194.255 142.173 196.209C143.505 196.934 146.468 195.997 147.823 195.638C149.668 195.149 151.283 194.327 152.648 192.999C154.288 191.404 155.178 189.472 156.286 187.506C156.97 186.289 157.919 184.844 157.848 183.41C157.712 180.661 154.251 178.016 154.727 175.226Z" fill="#F5B731" fill-opacity="0.8"/>
<path d="M135.243 162.948C134.816 162.345 134.811 162.018 134.828 161.541C134.836 161.316 134.843 161.061 134.806 160.755C134.726 160.097 134.379 159.565 134.013 158.999L133.933 158.873C133.098 157.577 132.197 156.351 131.509 155.423C131.392 155.221 131.229 155.004 131.058 154.778C130.631 154.209 130.145 153.563 130.24 152.971C130.284 152.701 130.45 152.462 130.733 152.267C132.168 151.412 133.279 150.156 134.355 148.937C134.599 148.66 134.843 148.383 135.092 148.111C135.939 147.19 136.703 146.089 137.423 144.752C137.557 144.422 137.884 144.203 138.252 144.203C138.587 144.203 138.882 144.381 139.036 144.675C140.051 146.605 140.844 148.504 141.457 150.474C141.462 150.486 141.464 150.501 141.462 150.513C141.032 155.04 138.247 159.097 135.412 162.948C135.37 163.005 135.285 163.005 135.243 162.948Z" fill="#F5B731" fill-opacity="0.8"/>
<path d="M92.6863 95.7845C92.5423 95.7845 92.3812 95.6737 92.2006 95.4496C91.0389 94.0112 88.862 87.571 89.1353 86.3832C89.1426 86.3591 89.1573 86.3374 89.1793 86.3206C89.6112 86.0363 90.0334 85.723 90.441 85.4219C90.585 85.3159 90.7265 85.2123 90.8705 85.1086C91.6783 84.5352 92.4447 83.7787 93.089 83.1185C93.1085 83.0969 93.1353 83.0872 93.1622 83.0872C93.1695 83.0872 93.1744 83.0872 93.1817 83.0896C93.5649 83.1571 93.9529 83.1932 94.3336 83.1932C95.9761 83.1932 97.4331 82.5499 98.9072 81.8368C98.9218 81.8295 98.9365 81.8247 98.9511 81.8247C98.9755 81.8247 98.995 81.8319 99.0145 81.8464C99.0438 81.8681 99.0609 81.9066 99.056 81.9428C98.9926 82.3235 98.9291 82.7017 98.8657 83.0824C98.3605 86.0676 97.8406 89.1539 98.1311 92.2186C98.1408 92.3367 98.153 92.4548 98.1652 92.5704L98.1897 92.7993C98.1921 92.8258 98.1848 92.8523 98.1677 92.874C97.56 93.6064 96.2665 94.2714 95.322 94.7557C95.161 94.8376 95.0097 94.9147 94.873 94.9894C94.6045 95.1291 94.1115 95.3026 93.5429 95.5026C93.2988 95.5869 93.0402 95.6785 92.7839 95.77C92.7497 95.7797 92.718 95.7845 92.6863 95.7845Z" fill="#F5B731" fill-opacity="0.8"/>
<path d="M129.941 97.247C129.943 97.2422 129.946 97.2373 129.946 97.2325C129.748 95.1653 128.991 93.2282 128.262 91.3055C128.262 91.3055 128.262 91.3055 128.262 91.3031C127.256 89.1805 126.321 86.9615 124.842 85.1111C124.833 85.0966 124.808 85.1015 124.806 85.1183C123.971 88.6119 123.359 92.1127 122.624 95.6303C122.622 95.6375 122.624 95.6424 122.629 95.6472C123.512 96.7338 124.342 97.8445 125.636 98.4926C126.902 99.1311 129.143 98.5095 129.941 97.247Z" fill="#F5B731" fill-opacity="0.8"/>
<path d="M95.3096 3.50659C95.7928 3.62706 96.2589 3.81258 96.6763 4.05351C97.6866 4.63416 98.4383 5.55213 98.6043 6.74475C98.6604 7.12543 98.6555 7.53502 98.5799 7.97111" stroke="#454138" stroke-width="1.3" stroke-linecap="round" stroke-linejoin="round"/>
<path d="M95.7861 11.1757C95.7812 11.1853 95.7739 11.1974 95.7666 11.207C95.2955 11.99 93.9093 12.6189 92.9917 12.9224C92.4377 13.055 91.73 13.055 91.0588 12.9104C90.1168 12.7056 89.2455 12.2165 88.9697 11.4094C88.8331 10.9492 88.9014 10.5492 89.0259 10.1902C89.1601 9.79993 89.3626 9.45058 89.4432 9.10845C89.5213 8.75186 89.5115 8.15675 89.5188 7.5231C89.5286 6.68223 89.5701 5.7715 89.8898 5.25831C90.0826 4.96437 90.3096 4.70657 90.5609 4.48009C91.8081 3.36938 93.6775 3.0923 95.3053 3.5043" stroke="#454138" stroke-width="1.3" stroke-linecap="round" stroke-linejoin="round"/>
<path d="M96.6863 4.03665C96.3422 3.01268 97.2769 1.47069 98.3337 0.950274C100.042 0.0949554 102.38 1.343 102.985 3.04641C104.516 5.5714 100.935 8.61923 98.6436 6.73994" stroke="#454138" stroke-width="1.3" stroke-linecap="round" stroke-linejoin="round"/>
<path d="M90.7656 9.8334C91.3123 9.92736 91.5734 9.70811 92.0615 9.20215" stroke="#454138" stroke-width="1.3" stroke-linecap="round" stroke-linejoin="round"/>
<path d="M95.3047 3.50415C95.3071 3.50415 95.3071 3.50656 95.3096 3.50656C96.0588 3.9017 96.9252 4.61968 96.3834 5.20997C96.1369 5.47982 95.8904 5.40513 95.8489 5.84845C95.7733 6.65317 96.1052 6.55439 96.3517 7.34465C96.5274 7.91808 96.6543 8.54692 96.5811 8.94687C96.8739 8.06986 97.8575 7.66992 98.5799 7.97108C98.8898 8.09878 99.1509 8.35417 99.29 8.75171C99.5927 10.1925 98.0795 11.361 96.7153 11.3972C96.3809 11.4068 96.0539 11.349 95.7659 11.2068C95.7391 11.1948 95.7123 11.1803 95.6854 11.1659" stroke="#454138" stroke-width="1.3" stroke-linecap="round" stroke-linejoin="round"/>
<path d="M101.88 19.7527C104.628 21.0634 107.576 22.1114 110.09 23.8678C111.317 24.569 112.42 25.4339 113.411 26.429C113.948 26.8964 114.556 27.2747 115.056 27.7493C116.113 28.6938 117.062 29.7683 117.907 30.8333C118.424 31.3802 119.032 31.7802 119.469 32.2476C119.898 32.7078 120.208 33.3342 120.684 33.8426C121.126 34.3148 121.726 34.669 122.2 35.1605C124.408 37.5361 126.82 40.2153 129.877 41.4537C131.744 42.5909 133.763 43.145 135.601 44.2678C138.002 45.8724 140.145 47.6578 142.185 49.7539C143.276 50.6983 144.34 51.8452 145.182 52.915C145.838 53.5968 146.507 54.0136 146.849 54.3196L146.851 54.322C147.854 55.2087 149.358 56.7844 150.227 57.6806C150.351 57.8059 150.461 57.9192 150.556 58.0155C150.888 58.3288 150.668 58.6492 150.405 59.2347L150.288 59.4973" stroke="#454138" stroke-width="1.3" stroke-linecap="round" stroke-linejoin="round"/>
<path d="M96.7153 11.3994C96.8544 12.4716 97.0765 13.8569 97.3084 15.052C97.3425 15.2303 97.3767 15.4013 97.4109 15.5676C97.9527 17.3216 97.8721 17.7047 99.478 18.5166" stroke="#454138" stroke-width="1.3" stroke-linecap="round" stroke-linejoin="round"/>
<path d="M150.268 57.9168C150.18 57.8927 150.09 57.8831 149.997 57.8831C149.448 57.8831 148.784 58.2493 148.174 58.7745C148.086 58.8492 148.001 58.9263 147.915 59.0082C146.768 60.0394 145.872 61.632 145.731 63.0439C145.728 63.0607 145.726 63.08 145.724 63.0969C145.565 64.0462 145.689 64.7979 145.953 65.0244C145.999 65.0653 146.048 65.0894 146.099 65.0942" stroke="#454138" stroke-width="1.3" stroke-linecap="round" stroke-linejoin="round"/>
<path d="M147.307 63.8005C147.305 63.8077 147.302 63.8101 147.298 63.8174C147.027 64.3932 146.563 64.863 145.953 65.0245C145.787 65.0726 145.609 65.0943 145.421 65.0919C144.642 64.9474 142.953 63.2464 142.087 62.4007C141.687 62.0224 141.316 61.5911 140.928 61.184C140.82 61.0659 140.708 60.9527 140.593 60.8394C139.607 60.0443 138.026 58.5939 137.411 57.9241C136.691 57.3025 135.068 56.2038 134.065 55.4184C132.969 54.6185 131.649 53.8258 130.521 53.1536C129.011 51.9176 128.862 51.3297 127.385 50.0118C126.314 49.0071 124.994 47.8265 123.908 46.8483C122.236 45.3401 122.382 45.3039 120.384 44.1137C117.941 42.9163 115.488 41.1478 113.086 39.7697C111.346 38.9674 108.918 37.4206 107.581 36.5508" stroke="#454138" stroke-width="1.3" stroke-linecap="round" stroke-linejoin="round"/>
<path d="M110.946 49.4526C111.844 50.4887 112.477 51.6235 112.005 53.2016" stroke="#454138" stroke-width="1.3" stroke-linecap="round" stroke-linejoin="round"/>
<path d="M106.649 38.0371C106.759 36.5047 107.061 35.0977 107.593 33.5605C107.779 32.8787 108.162 32.0065 108.701 31.3873C109.507 30.4621 110.497 30.0115 110.563 30.997C110.556 32.033 109.25 33.7509 108.516 34.8471C108.296 35.3145 107.947 35.9048 107.566 36.5433C107.276 37.0324 106.968 37.5504 106.69 38.0588C106.124 39.09 105.68 40.0898 105.743 40.7693C105.99 41.5716 108.194 42.8196 108.242 43.74C108.306 44.6194 108.162 44.6604 108.103 45.6097C108.052 46.4698 108.325 46.3301 108.826 47.13C109.443 47.9467 110.268 48.6719 110.944 49.4502" stroke="#454138" stroke-width="1.3" stroke-linecap="round" stroke-linejoin="round"/>
<path d="M110.946 49.4528C110.946 49.4528 110.944 49.4528 110.944 49.4504C109.775 48.6047 107.293 47.694 105.746 47.8626C105.611 47.8771 105.485 47.8988 105.367 47.9301C105.238 49.4865 105.323 51.2261 105.829 52.8163C105.978 53.2258 106.021 53.9197 105.794 54.8353C104.813 58.7649 102.146 62.5428 98.9366 65.0919C97.2649 66.258 95.188 66.6411 93.2136 67.07C91.2734 67.653 89.1746 67.5542 87.2173 67.3832C87.2002 67.3808 87.1782 67.3783 87.1611 67.3759" stroke="#454138" stroke-width="1.3" stroke-linecap="round" stroke-linejoin="round"/>
<path d="M87.1363 67.4119C84.8983 66.0555 83.1289 63.8678 81.8965 61.4705C81.1399 60.0056 80.5835 58.4588 80.2442 56.9746C79.8782 53.3461 78.6188 49.2936 77.7403 45.7904C77.2936 44.0894 77.6012 42.9185 77.0472 41.4126C76.1417 38.7045 75.2168 35.2688 76.1149 32.4523C76.542 31.3657 77.1399 30.4091 77.7988 29.4936C77.9379 29.3008 78.0795 29.1129 78.221 28.925C78.4602 28.607 78.7092 28.2937 78.9532 27.9781C79.7 27.0288 80.4492 26.0747 81.0862 25.0122" stroke="#454138" stroke-width="1.3" stroke-linecap="round" stroke-linejoin="round"/>
<path d="M81.8573 61.4899C80.986 61.0273 79.1263 60.9285 78.6699 61.5742C78.4967 61.9573 78.4771 62.5814 78.3771 63.0705C78.2673 63.6077 77.8158 63.9836 77.3081 64.2053C76.0732 64.851 74.7114 65.5159 73.3667 66.1376C71.3948 67.0603 69.5839 68.3542 67.734 69.5275C65.1129 70.8358 62.9042 72.8837 60.7517 74.7943C58.8554 76.6953 57.1592 78.7842 55.6241 80.9815C54.7504 82.0007 53.95 83.0753 53.2373 84.2101C51.895 86.5255 50.172 88.6071 48.7541 90.8695C47.4704 92.7609 46.1891 94.6618 45.5863 96.7917C44.8346 98.9794 44.4685 101.201 45.3764 103.355C46.3551 105.966 48.1391 108.552 50.8261 109.597C52.1366 110.255 53.4521 110.351 54.9042 110.168C55.5582 110.149 56.2343 110.2 56.9152 110.106C60.8298 109.424 64.7419 107.947 68.4344 106.591C71.7755 105.586 75.4167 105.229 78.9701 104.417C79.6681 104.265 80.3417 103.94 81.0641 103.772C81.7694 103.603 82.5186 103.581 83.2264 103.396C85.3057 102.748 87.4582 102.136 89.4522 101.331C91.6535 100.295 91.4729 100.813 91.4119 98.3288C91.3875 97.3193 91.3362 96.2737 91.2044 95.2256C91.1654 94.8883 91.1166 94.5534 91.058 94.2185C90.3429 91.5971 89.1178 89.048 87.4314 86.8194" stroke="#454138" stroke-width="1.3" stroke-linecap="round" stroke-linejoin="round"/>
<path d="M97.5209 80.384C94.1408 81.355 92.8424 81.9164 91.0755 83.4391C90.3775 84.039 89.6087 84.7907 88.6081 85.7737C88.2079 86.1111 87.8076 86.4459 87.4001 86.7808C85.0425 88.7252 82.563 90.6069 79.8979 92.1802C78.1334 93.4186 76.1273 94.2884 74.1383 95.1895C74.1358 95.1895 74.1358 95.1919 74.1334 95.1919C72.979 95.5918 71.2048 96.093 69.821 96.5676C67.688 97.1579 65.2938 97.5 63.2829 98.3915C62.2066 98.83 59.2658 99.7648 60.1541 100.873C60.403 101.148 61.2157 101.018 62.292 100.685C64.2103 99.9696 66.4531 99.1794 68.2884 98.1048C69.616 97.5506 71.0413 96.8351 72.1834 96.1532C73.3475 95.5485 73.1987 95.7412 74.1529 95.2208" stroke="#454138" stroke-width="1.3" stroke-linecap="round" stroke-linejoin="round"/>
<path d="M93.6914 69.4167C94.9946 70.8671 97.5426 71.643 98.4016 73.262C98.4992 73.4717 98.3455 74.2113 98.1942 75.3437C98.1673 76.6327 97.9916 78.1217 97.7378 79.5288C97.6646 79.8131 97.6011 80.0974 97.545 80.3865C97.4278 80.9455 97.3376 81.5141 97.2717 82.0875C97.2106 82.6175 97.1716 83.1572 97.1569 83.6969C96.9446 85.0678 96.6957 86.4653 96.5029 87.8555C96.3857 89.4577 96.2735 91.084 96.2174 92.7151C96.0978 95.9292 96.1807 99.1601 96.8324 102.254C96.9153 102.991 96.8031 103.656 96.8739 104.225C97.1594 105.595 97.4669 106.971 97.545 108.094C97.8598 112.272 98.2625 117.086 100.481 120.88C101.108 122.336 102.028 123.148 102.978 124.335C104.181 125.938 104.928 127.836 106.062 129.537C106.992 131.303 107.7 133.204 108.74 134.956C109.687 136.768 110.397 138.705 111.375 140.545C112.957 144.369 114.516 148.282 115.922 152.168C116.718 154.091 117.482 156.086 117.926 158.045C119.849 157.474 121.684 156.447 123.598 155.712C125.269 154.725 126.936 153.676 128.593 152.621C129.25 152.202 129.904 151.78 130.555 151.363C133.045 149.243 135.375 146.658 136.642 143.632C136.942 142.919 137.184 142.179 137.352 141.418C136.337 139.543 135.881 137.317 135.007 135.308C134.524 133.954 134.07 132.551 133.56 131.202C132.515 129.301 131.649 127.236 130.365 125.497C129.015 123.919 127.202 122.642 125.743 121.131C124.073 119.883 122.153 118.632 120.552 117.449C119.619 116.765 118.985 116.274 118.99 116.026C119.009 115.185 119.444 112.913 119.148 112.12C118.841 111.388 118.258 111.233 117.691 110.173C117.682 110.161 117.677 110.147 117.667 110.132C117.811 109.448 117.887 108.764 118.036 108.082C118.738 105.379 119.156 102.61 119.934 99.9239C120.208 98.4421 120.603 96.9893 121.008 95.5461C121.167 94.9751 121.33 94.4041 121.484 93.8331C121.731 92.4501 122.026 91.084 122.382 89.742C122.572 88.347 122.863 86.9857 123.236 85.6509C123.236 85.6485 123.239 85.6437 123.239 85.6413C123.676 82.8729 124.071 80.0949 124.181 77.3266C124.139 75.1919 124.149 73.0886 123.539 71.0768C123.336 69.6384 122.978 68.2843 122.414 66.9857C121.46 64.2655 120.027 61.8249 118.204 59.601C116.291 57.3242 114.082 55.3413 111.837 53.3897C109.772 51.5924 107.673 49.8191 105.745 47.8627C105.743 47.8603 105.74 47.8579 105.738 47.8555" stroke="#454138" stroke-width="1.3" stroke-linecap="round" stroke-linejoin="round"/>
<path d="M78.2287 28.9903C78.2262 28.9686 78.2238 28.9469 78.2214 28.9252C78.1603 28.3783 78.1579 27.7784 78.1994 27.1592C78.2946 25.7569 78.6118 24.2559 78.9584 23.044C79.5465 20.5672 80.4495 20.7672 79.8882 23.4729C79.7735 24.1981 79.7735 25.0414 79.6076 25.7738C79.3294 27.0026 79.2537 26.8821 78.9535 27.9784C78.9535 27.9832 78.9511 27.9904 78.9511 27.9952" stroke="#454138" stroke-width="1.3" stroke-linecap="round" stroke-linejoin="round"/>
<path d="M90.6945 14.9316C88.8104 15.2497 86.0331 15.5436 84.4077 15.9436C83.9806 16.0664 82.3625 15.7773 82.6578 16.3001C82.9605 16.7194 83.5511 17.4807 84.1173 18.2493C84.62 18.9336 85.1008 19.6178 85.3302 20.0611C85.7256 21.0177 85.1081 22.7548 84.8372 23.9619C84.6346 25.1111 84.393 26.3592 84.2759 27.5446C84.2613 27.6723 84.2515 27.7951 84.2417 27.9204" stroke="#454138" stroke-width="1.3" stroke-linecap="round" stroke-linejoin="round"/>
<path d="M91.0439 12.9607C91.0171 13.6642 90.9048 14.3172 90.7291 14.9388C89.9652 17.6396 88.0079 19.7021 86.5997 22.3764C86.0164 23.61 85.3453 24.8894 84.7986 26.1784C84.6058 26.6337 84.4277 27.0891 84.2764 27.5445C84.2349 27.6746 84.1958 27.7999 84.1543 27.9276C83.4393 30.1369 82.8853 33.1655 82.8853 35.1291" stroke="#454138" stroke-width="1.3" stroke-linecap="round" stroke-linejoin="round"/>
<path d="M92.7663 26.1182C91.59 26.9903 89.3715 28.754 88.0707 29.7828C87.1702 30.4068 86.2281 31.1344 85.3691 31.9416C84.3587 32.8957 83.463 33.9654 82.8846 35.1291C82.0988 36.7145 81.906 38.4685 82.8212 40.3285C83.014 40.9381 83.3557 41.6729 83.6924 42.3933C83.9097 42.8511 84.1195 43.3065 84.2879 43.7209C84.8785 45.2701 84.1805 46.5085 83.9316 48.0408C83.812 49.0046 83.8608 49.9297 84.1562 50.5441C84.7614 52.1897 84.8932 54.5605 85.0518 56.3989C84.92 57.5674 85.1934 59.1937 85.535 60.4538C85.8108 61.6055 86.482 63.6389 86.7919 64.3593C87.1677 65.5327 87.1848 65.8531 87.219 67.3686" stroke="#454138" stroke-width="1.3" stroke-linecap="round" stroke-linejoin="round"/>
<path d="M99.7006 18.0325C99.7274 18.1963 99.7348 18.3601 99.7274 18.5216C99.6347 20.9887 96.2082 23.0993 94.4584 24.6317C93.7018 25.2533 93.0868 25.8074 92.9428 25.9881C92.8891 26.0267 92.8305 26.0701 92.7695 26.1158" stroke="#454138" stroke-width="1.3" stroke-linecap="round" stroke-linejoin="round"/>
<path d="M84.1081 18.2591C82.3217 17.9579 80.3766 17.5507 78.5389 17.1267C77.9312 17.0134 77.2747 17.0472 76.6499 16.905C76.0642 16.7701 75.393 16.4472 74.6365 16.2256C73.3528 15.7726 71.8421 15.3678 70.5388 15.1028C69.692 14.8185 68.584 14.3896 68.584 14.3896" stroke="#454138" stroke-width="1.3" stroke-linecap="round" stroke-linejoin="round"/>
<path d="M80.813 3.71857C81.2206 3.66798 81.5159 3.72339 81.6525 4.01251" stroke="#454138" stroke-width="1.3" stroke-linecap="round" stroke-linejoin="round"/>
<path d="M77.5797 29.3371C74.2874 27.9975 70.7511 26.5254 67.7005 24.5811C66.3436 23.9884 65.0525 23.2511 63.8982 22.3861C62.6023 21.673 61.3039 20.8249 60.2423 19.9647C58.2215 18.548 56.3472 16.7772 54.9 14.9364C53.7725 13.4715 54.2142 11.3537 55.7542 10.3755C58.4851 8.87451 61.4942 7.47227 64.5742 6.70369C65.9872 6.41938 67.4296 6.14713 68.7768 5.84596C70.6828 5.52793 72.1544 5.43155 73.8677 5.13761C74.2386 5.07256 74.6194 5.00028 75.0172 4.91354C76.2545 4.59551 77.7603 4.27507 78.9928 4.09918C79.6981 3.97631 80.3326 3.77392 80.811 3.71851" stroke="#454138" stroke-width="1.3" stroke-linecap="round" stroke-linejoin="round"/>
<path d="M80.9741 3.67041C80.9179 3.68005 80.8642 3.6945 80.813 3.7186H80.8106C80.5323 3.84147 80.3346 4.14505 80.1931 4.54982C80.0833 4.85099 80.0052 5.20998 79.9442 5.58584C79.7538 6.42911 79.7318 7.63379 80.0613 8.57102C80.2419 9.0818 80.5299 9.51549 80.9472 9.76365" stroke="#454138" stroke-width="1.3" stroke-linecap="round" stroke-linejoin="round"/>
<path d="M68.5838 14.3896C68.2739 14.4162 67.9444 14.4378 67.6027 14.4571C66.053 14.5487 64.2592 14.6041 62.8413 14.8932C60.2177 15.3148 60.9499 16.7219 63.3465 16.1726C64.7058 15.9172 66.2775 15.2667 67.6076 14.5318" stroke="#454138" stroke-width="1.3" stroke-linecap="round" stroke-linejoin="round"/>
<path d="M75.4907 11.908C73.0648 12.5151 70.9781 13.4668 68.584 14.3896" stroke="#454138" stroke-width="1.3" stroke-linecap="round" stroke-linejoin="round"/>
<path d="M82.9099 8.66235C82.9196 8.71295 82.9245 8.76355 82.9343 8.81414C83.1808 10.5296 81.9361 10.532 80.2473 10.9392C79.0783 11.1416 77.631 11.4066 76.4718 11.6861C76.1399 11.7535 75.8129 11.8282 75.4932 11.9077" stroke="#454138" stroke-width="1.3" stroke-linecap="round" stroke-linejoin="round"/>
<path d="M73.8844 5.23169C73.0034 5.80752 73.0693 7.80006 73.2719 8.91558C73.6502 10.1203 74.2725 11.4599 75.4903 11.908H75.4928" stroke="#454138" stroke-width="1.3" stroke-linecap="round" stroke-linejoin="round"/>
<path d="M78.9878 39.3433C80.2007 40.1311 81.3478 40.9383 82.4851 41.7647C82.8951 41.967 83.2978 42.1767 83.6931 42.3935C84.5449 42.8513 85.3746 43.3307 86.2044 43.8415C87.2807 44.3137 88.3545 44.7763 89.4381 45.2197C89.9628 45.4365 90.4924 45.6485 91.022 45.8509C92.0446 46.2485 93.0793 46.6219 94.1361 46.964" stroke="#454138" stroke-width="1.3" stroke-linecap="round" stroke-linejoin="round"/>
<path d="M85.0986 40.8442C86.0968 41.3382 87.1267 41.8345 88.1688 42.3236C89.1133 42.7717 90.0675 43.2174 91.0144 43.6632C91.7515 44.0077 92.4836 44.3522 93.206 44.6968C95.2902 45.4919 97.5184 46.2315 99.5172 47.0676" stroke="#454138" stroke-width="1.3" stroke-linecap="round" stroke-linejoin="round"/>
<path d="M107.619 36.4905C110.274 36.9314 113.022 37.659 115.568 38.4517C117.071 38.777 118.267 39.0444 119.551 39.3986" stroke="#454138" stroke-width="1.3" stroke-linecap="round" stroke-linejoin="round"/>
<path d="M116.63 41.8464C118.488 42.5572 120.269 43.6583 122.036 44.4895C123.395 45.1352 124.494 45.6291 125.653 46.2314" stroke="#454138" stroke-width="1.3" stroke-linecap="round" stroke-linejoin="round"/>
<path d="M146.795 54.38C146.37 54.1559 145.731 54.433 144.976 54.9076C142.936 56.1629 140.845 58.6999 140.928 61.184C140.928 61.208 140.928 61.2297 140.93 61.2514" stroke="#454138" stroke-width="1.3" stroke-linecap="round" stroke-linejoin="round"/>
<path d="M71.7441 20.2708C72.4787 21.2706 73.3695 22.2368 74.2725 23.0945C75.5343 24.5522 76.8766 25.9496 78.1993 27.1591" stroke="#454138" stroke-width="1.3" stroke-linecap="round" stroke-linejoin="round"/>
<path d="M80.1812 4.55224C80.186 4.55224 80.1885 4.54983 80.1934 4.54983C82.4557 4.04387 81.9188 4.15229 84.5839 3.53068C85.7602 3.25601 86.9829 3.16446 87.1635 3.12109C87.5393 3.03194 89.5991 2.26095 90.0726 1.91401C90.5314 1.57911 90.3557 2.25372 89.6186 2.74282C89.5942 2.75969 89.5698 2.77655 89.543 2.79342C89.1793 3.01749 88.4203 3.37166 87.6589 3.70174C85.294 4.63657 84.5375 6.03158 82.4826 7.02182" stroke="#454138" stroke-width="1.3" stroke-linecap="round" stroke-linejoin="round"/>
<path d="M91.2388 95.2208C92.0905 94.7799 93.5914 94.1028 94.5896 93.6908C95.5048 93.2258 95.334 93.1295 96.154 92.7126" stroke="#454138" stroke-width="1.3" stroke-linecap="round" stroke-linejoin="round"/>
<path d="M90.9976 83.4511C91.022 83.4487 91.0488 83.4439 91.0757 83.4391C93.011 83.1307 95.4491 82.8488 97.2721 82.0875C97.2868 82.0826 97.299 82.0778 97.3112 82.073" stroke="#454138" stroke-width="1.3" stroke-linecap="round" stroke-linejoin="round"/>
<path d="M121.055 95.558C122.29 96.4495 123.513 98.3239 125.185 98.442C126.451 98.6131 128.123 97.5409 128.067 96.4061C128.045 96.1796 127.959 95.4399 127.645 94.4762C127.466 93.9245 127.091 93.3414 126.839 92.6668C126.456 91.4476 125.912 90.1755 125.275 89.0455C124.765 87.8409 124.108 86.547 123.274 85.6604" stroke="#454138" stroke-width="1.3" stroke-linecap="round" stroke-linejoin="round"/>
<path d="M128.628 152.674C129.507 154.409 130.834 156.199 131.913 157.804C133.023 159.599 133.426 159.353 133.043 161.348C132.796 162.485 134.854 163.263 135.169 163.82C135.493 164.314 136.652 166.718 137.131 167.783C137.865 169 138.658 170.443 139.225 171.679C139.766 172.746 140.216 173.508 140.262 173.64C140.435 174.124 139.591 174.753 139.891 175.785C140.201 176.847 140.76 176.543 141.343 177.486C141.863 178.329 141.572 178.341 141.758 179.42C141.865 180.039 141.848 180.748 141.931 181.389C142.307 183.345 142.268 183.468 141.45 185.359C140.694 187.214 139.666 189.395 139.693 191.443C139.539 192.766 139.679 194.163 140.44 195.091C140.877 195.638 141.504 195.765 142.153 195.698C142.627 195.65 143.435 195.821 144.399 195.732C145.065 195.671 145.79 195.45 146.568 195.201C149.504 194.64 151.335 191.759 152.618 189.258C153.838 187.537 154.873 185.542 155.579 183.721C156.54 181.492 155.31 180.056 154.253 178.049C153.982 177.454 153.851 176.777 153.597 176.175C153.414 175.746 153.172 175.348 152.975 174.963C152.874 174.77 152.787 174.577 152.723 174.39C152.145 172.782 152.408 172.077 152.843 170.718C152.892 170.566 152.943 170.404 152.996 170.233C153.797 168.043 154.417 165.822 153.897 163.653C153.775 163.145 153.592 162.642 153.333 162.143C152.662 160.784 152.23 159.994 150.968 158.835C149.594 157.519 146.995 155.963 145.704 154.893C144.857 154.17 143.308 154.447 142.788 153.744C142.27 153.038 142.539 152.491 142.168 152.077C141.731 151.585 141.533 151.585 140.818 151.665" stroke="#454138" stroke-width="1.3" stroke-linecap="round" stroke-linejoin="round"/>
<path d="M136.742 143.673C137.169 144.61 137.997 146.205 138.602 147.33C139.149 148.561 139.886 150.334 140.52 151.722C140.732 152.185 140.933 152.604 141.113 152.946" stroke="#454138" stroke-width="1.3" stroke-linecap="round" stroke-linejoin="round"/>
<path d="M140.935 154.558C140.843 154.915 140.328 155.517 139.698 156.182C138.883 157.196 137.653 158.187 136.34 158.411" stroke="#454138" stroke-width="1.3" stroke-linecap="round" stroke-linejoin="round"/>
<path d="M134.651 161.287C135.979 161.492 137.651 161.109 138.988 160.526C140.34 160.066 141.956 159.399 142.893 158.49C141.685 160.167 140.243 161.851 138.427 162.89" stroke="#454138" stroke-width="1.3" stroke-linecap="round" stroke-linejoin="round"/>
<path d="M143.309 182.933C146.384 182.025 150.133 181.097 152.988 182.711" stroke="#454138" stroke-width="1.3" stroke-linecap="round" stroke-linejoin="round"/>
<path d="M144.354 182.673C146.267 182.314 148.505 182.755 150.233 183.494" stroke="#454138" stroke-width="1.3" stroke-linecap="round" stroke-linejoin="round"/>
<path d="M153.896 163.653C154.343 164.713 154.76 165.827 155.546 167.164C155.883 167.788 156.193 168.467 156.642 169.135C156.866 169.467 156.996 169.843 156.927 170.238C156.688 171.122 156.356 172.5 155.951 173.447C155.729 173.845 155.456 174.129 155.148 174.339C154.558 174.739 153.823 174.859 153.022 174.939" stroke="#454138" stroke-width="1.3" stroke-linecap="round" stroke-linejoin="round"/>
<path d="M152.9 170.737C153.364 171.949 154.116 173.149 154.889 174.211" stroke="#454138" stroke-width="1.3" stroke-linecap="round" stroke-linejoin="round"/>
<path d="M92.7666 26.1182C92.769 26.1182 92.769 26.1157 92.769 26.1157C94.0674 25.6194 95.9564 24.9689 97.0278 24.6268C97.3841 24.5015 97.6647 24.4123 97.8892 24.3497C98.5311 24.1762 98.7215 24.2365 98.9582 24.3617C99.727 24.7689 100.642 26.8578 101.189 27.7999C101.367 28.0842 101.853 27.9517 101.853 27.6192C101.789 25.8363 101.775 23.7787 101.679 21.9572C101.682 21.3934 101.679 20.5333 101.628 19.7671C101.587 19.1045 101.511 18.5118 101.377 18.242C100.654 16.6301 98.7093 15.8086 97.4011 15.0352" stroke="#454138" stroke-width="1.3" stroke-linecap="round" stroke-linejoin="round"/>
<path d="M87.5757 21.3599C88.1028 21.967 88.4152 22.3646 89.1645 23.4247" stroke="#454138" stroke-width="1.3" stroke-linecap="round" stroke-linejoin="round"/>
<path d="M83.4366 18.1868C81.7892 18.6807 82.1333 18.5096 80.8496 18.9048" stroke="#454138" stroke-width="1.3" stroke-linecap="round" stroke-linejoin="round"/>
<path d="M146.855 62.3308C147.778 62.7524 149.891 63.0753 150.912 62.7524C151.978 62.4416 152.149 62.4296 153.42 62.3115C154.546 62.0585 156.344 62.5645 157.704 62.4465C158.214 62.4007 158.658 62.2657 158.985 61.9742C159.146 61.6827 158.499 61.6875 157.372 61.555C157.289 61.5454 157.201 61.5357 157.111 61.5237C156.532 61.449 155.841 61.3309 155.07 61.1743" stroke="#454138" stroke-width="1.3" stroke-linecap="round" stroke-linejoin="round"/>
<path d="M157.397 61.3428C158.442 61.0561 161.544 60.0441 160.97 59.4514C160.299 59.2732 157.297 60.3453 155.869 60.4393C155.428 60.4875 154.749 60.3044 153.973 60.1767C152.728 60.0466 151.484 59.8297 150.288 59.4972C149.617 59.3117 148.965 59.0925 148.335 58.8298" stroke="#454138" stroke-width="1.3" stroke-linecap="round" stroke-linejoin="round"/>
<path d="M145.831 63.0562C146.114 63.2706 146.666 63.5501 147.298 63.8175C148.254 64.2247 149.394 64.6054 150.07 64.7162C151.21 64.8656 152.328 64.7403 153.358 65.1282C154.412 65.5257 154.314 65.7474 155.325 66.2389C156.259 66.6943 157.248 67.099 157.455 66.981C157.812 66.8123 155.078 65.092 154.639 64.7861" stroke="#454138" stroke-width="1.3" stroke-linecap="round" stroke-linejoin="round"/>
<path d="M161.42 64.3882C161.413 64.4027 161.408 64.4147 161.401 64.4292C161.023 65.1159 158.092 65.1014 157.067 64.7978C156.427 64.6412 155.785 64.4798 155.317 64.3738C154.951 64.4702 155.009 64.5665 154.692 64.7689" stroke="#454138" stroke-width="1.3" stroke-linecap="round" stroke-linejoin="round"/>
<path d="M160.171 64.1764C160.637 64.2318 161.045 64.3017 161.396 64.2848C161.699 64.2704 161.96 64.1884 162.184 63.9716C162.516 63.6536 161.948 63.5933 160.837 63.3572C160.342 63.2512 159.722 63.2175 159.075 63.0079C158.733 62.8994 158.358 62.6681 157.703 62.4465C157.572 62.4007 157.433 62.3573 157.279 62.314" stroke="#454138" stroke-width="1.3" stroke-linecap="round" stroke-linejoin="round"/>
<path d="M117.694 110.151C117.692 110.159 117.692 110.166 117.692 110.173C117.418 111.305 117.472 111.127 117.194 112.067" stroke="#454138" stroke-width="1.3" stroke-linecap="round" stroke-linejoin="round"/>
<path d="M100.527 70.5828C101.718 69.1058 103.842 68.3397 105.67 67.718C107.458 67.0338 109.613 66.3736 111.441 66.3929C112.347 66.3134 112.998 65.8291 113.169 65.3569C113.357 64.822 112.928 64.2703 111.881 64.1209C109.584 63.8583 106.382 65.3689 104.266 66.5929" stroke="#454138" stroke-width="1.3" stroke-linecap="round" stroke-linejoin="round"/>
<path d="M89.4913 7.52296C89.318 7.35431 89.0374 7.28444 88.7592 7.32539C88.5346 7.35431 88.3101 7.4555 88.1417 7.62897C87.9367 7.84341 87.8147 8.16867 87.8855 8.60958C88.0343 9.55645 88.1783 9.66969 88.9812 10.1757" stroke="#454138" stroke-width="1.3" stroke-linecap="round" stroke-linejoin="round"/>
<path d="M80.4077 8.56622C80.9642 8.44817 82.0136 8.35179 82.9068 8.29879C83.1118 8.28674 83.307 8.27469 83.4876 8.26987C84.4614 8.23132 84.7714 7.75668 86.1429 7.58321C86.9581 7.48202 87.6292 7.53743 88.1417 7.62899C88.5542 7.7085 88.8641 7.80487 89.074 7.8651C89.4083 7.95907 89.3766 7.64585 88.7592 7.32541C88.5176 7.20012 88.1857 7.07243 87.7512 6.96882C86.6701 6.70861 86.9044 7.05556 86.3601 6.60742" stroke="#454138" stroke-width="1.3" stroke-linecap="round" stroke-linejoin="round"/>
<path d="M85.9336 6.7399C86.0385 6.68207 86.1337 6.62665 86.2265 6.57606C86.8561 6.21466 87.1856 5.99059 87.5614 5.85807C88.1008 5.72315 89.7603 5.1184 90.5291 4.4462C90.7439 4.25586 90.8878 4.06311 90.9171 3.87036" stroke="#454138" stroke-width="1.3" stroke-linecap="round" stroke-linejoin="round"/>
<path d="M89.0493 2.98365C89.186 2.90896 89.3861 2.82704 89.6179 2.74271C90.294 2.49455 91.2189 2.23434 91.5142 2.08496C91.9096 1.88258 92.0097 2.44396 91.2848 2.99329C90.8431 3.32578 90.4233 3.44142 90.1671 3.5908" stroke="#454138" stroke-width="1.3" stroke-linecap="round" stroke-linejoin="round"/>
<path d="M84.8058 24.574C84.779 25.0486 84.7814 25.5955 84.7985 26.1786C84.8473 27.6507 85.0084 29.3541 85.128 30.7347C85.1988 31.1346 85.2793 31.537 85.3696 31.9418C85.5697 32.8766 85.804 33.8235 86.0407 34.7583C86.4825 37.3315 87.2024 39.8926 88.1689 42.3236C88.2128 42.4417 88.2616 42.5622 88.3104 42.6802C88.6838 43.5211 89.0377 44.3836 89.4379 45.2197C89.9334 46.2629 90.4996 47.2604 91.2488 48.1085" stroke="#454138" stroke-width="1.3" stroke-linecap="round" stroke-linejoin="round"/>
<path d="M97.9501 24.5786C97.3448 26.3688 95.9 28.3107 94.8091 30.0358C93.7353 31.8091 92.7591 33.7293 91.9806 35.6688C91.1606 38.2131 90.9946 40.9694 91.0141 43.6631C91.0141 43.7594 91.0166 43.8534 91.0166 43.9498C90.9726 44.5666 90.98 45.2075 91.0214 45.8507C91.0678 46.6049 91.163 47.3662 91.2826 48.1059C91.4046 48.86 91.551 49.5901 91.6975 50.2671C91.7194 50.3683 91.739 50.4695 91.7634 50.5682" stroke="#454138" stroke-width="1.3" stroke-linecap="round" stroke-linejoin="round"/>
<path d="M97.1942 55.4376C96.257 55.5484 96.2448 55.44 95.3077 55.5509C93.9214 55.8062 92.9794 55.9604 91.5737 56.0857C90.6365 56.1966 90.6316 56.1628 89.6945 56.2713C89.4748 56.2953 89.2918 56.1026 89.2332 55.8593C88.9282 54.657 88.9794 54.6449 88.6743 53.4427C88.3693 52.238 88.235 52.2717 87.93 51.0671C87.869 50.8285 88.0398 50.6261 88.2595 50.5996C89.1966 50.4888 89.1917 50.4551 90.1289 50.3443C90.944 50.2503 91.0587 50.3202 91.6981 50.2672C91.7909 50.2599 91.8958 50.2479 92.013 50.2334C92.9501 50.1274 92.9404 50.0262 93.8775 49.9154C94.8122 49.807 94.8196 49.86 95.7543 49.7491C95.9764 49.7226 96.1521 49.8576 96.2106 50.0985C96.5157 51.3032 96.5743 51.2887 96.8793 52.491C97.1844 53.6932 97.2259 53.6836 97.531 54.8883C97.5895 55.1292 97.4114 55.4111 97.1942 55.4376Z" stroke="#454138" stroke-width="1.3" stroke-linecap="round" stroke-linejoin="round"/>
<path d="M80.4224 64.8918C80.8763 65.3761 81.2595 65.8917 81.7598 66.2796C82.2503 66.6627 82.8824 66.8555 83.4657 67.1976C85.0081 68.2914 86.8385 68.9444 88.6079 69.8286" stroke="#454138" stroke-width="1.3" stroke-linecap="round" stroke-linejoin="round"/>
</svg>
