<svg width="24" height="24" viewBox="0 0 24 24" fill="none" xmlns="http://www.w3.org/2000/svg">
<path fill-rule="evenodd" clip-rule="evenodd" d="M5.26645 1.50081L8.30024 1.64302L8.31539 1.64435C8.53543 1.66363 8.75214 1.69942 8.95923 1.75696C8.96438 1.75568 8.96961 1.7544 8.97495 1.7531C9.10513 1.72142 9.29233 1.6829 9.54783 1.6456C10.0584 1.57106 10.8452 1.50086 11.9999 1.50086C14.3193 1.50086 15.6707 2.24481 16.7411 3.00086H19.4999C20.4945 3.00086 21.4483 3.39595 22.1516 4.09921C22.8548 4.80247 23.2499 5.7563 23.2499 6.75086V9.00086C23.2499 9.99542 22.8548 10.9492 22.1516 11.6525C21.4483 12.3558 20.4945 12.7509 19.4999 12.7509H18.0961C17.9666 12.7519 17.8394 12.7857 17.7265 12.8492C17.6231 12.9074 17.5349 12.9886 17.4684 13.0864C17.4683 13.0867 17.4681 13.087 17.468 13.0873C17.4531 13.1187 17.4311 13.1643 17.4012 13.225C17.3413 13.3463 17.2499 13.5278 17.1205 13.7749C16.8617 14.269 16.4509 15.026 15.8369 16.0893C15.2112 17.1731 14.3045 18.5177 13.5219 19.6654C13.4262 19.8058 13.3324 19.9432 13.241 20.077C12.9555 20.4949 12.6944 20.8773 12.4755 21.2048C12.1765 21.6522 11.9891 21.9495 11.9207 22.0863C11.7937 22.3404 11.534 22.5009 11.2499 22.5009C10.3765 22.5009 9.61618 22.1617 9.16736 21.5099C8.72288 20.8644 8.67582 20.0452 8.94823 19.2668C8.94826 19.2668 8.94828 19.2667 8.9483 19.2667C9.07417 18.9068 9.20875 18.5631 9.33844 18.2352C9.35277 18.1989 9.36703 18.1629 9.3812 18.1271C9.49682 17.8351 9.6071 17.5566 9.70998 17.2746C9.91155 16.7221 10.0757 16.1797 10.1657 15.5902L4.46731 15.1412C3.18757 15.1219 2.24993 13.9674 2.24993 12.7977V12.7878L2.24994 12.7858C2.25152 12.4873 2.31238 12.1953 2.42592 11.9253C2.04497 11.8242 1.69377 11.6239 1.4103 11.3405C0.989185 10.9194 0.751783 10.3487 0.749931 9.75319L0.749924 9.75086L0.749931 9.74853C0.751783 9.15298 0.989185 8.58235 1.4103 8.16123C1.52675 8.04479 1.65462 7.94239 1.79129 7.85514C1.60298 7.52167 1.50102 7.14264 1.49993 6.75296L1.49992 6.75086L1.49993 6.74876C1.5016 6.15309 1.73897 5.5823 2.16017 5.1611C2.43967 4.88159 2.78505 4.68304 3.15985 4.58059C3.05596 4.31968 3.00073 4.03919 2.99993 3.75296L2.99992 3.75086L2.99993 3.74876C3.0016 3.15309 3.23897 2.5823 3.66017 2.1611C4.08137 1.7399 4.65216 1.50253 5.24783 1.50086L5.26645 1.50081ZM3.74468 6.00091C3.54804 6.00338 3.36002 6.08256 3.22083 6.22176C3.0804 6.36219 3.00104 6.55232 2.99993 6.75086C3.00104 6.9494 3.0804 7.13953 3.22083 7.27996C3.36002 7.41915 3.54804 7.49834 3.74468 7.5008L8.21789 7.40761C8.52296 7.38653 8.71803 7.29007 8.82718 7.19004C8.92737 7.09823 8.99993 6.96488 8.99993 6.75086C8.99993 6.53516 8.92609 6.3974 8.82506 6.30409C8.71654 6.20387 8.52416 6.10898 8.22471 6.09425L3.74468 6.00091ZM9.88292 8.25604C10.2831 7.86799 10.4999 7.34137 10.4999 6.75086C10.4999 6.16415 10.2859 5.63644 9.88939 5.24658C10.2627 4.87468 10.4999 4.36201 10.4999 3.75086C10.4999 3.51086 10.4677 3.27795 10.3986 3.05931C10.8043 3.02574 11.3308 3.00086 11.9999 3.00086C14.0338 3.00086 15.0996 3.65981 16.0588 4.35741C16.187 4.45064 16.3414 4.50086 16.4999 4.50086H19.4999C20.0967 4.50086 20.669 4.73791 21.0909 5.15987C21.5129 5.58182 21.7499 6.15412 21.7499 6.75086V9.00086C21.7499 9.5976 21.5129 10.1699 21.0909 10.5918C20.669 11.0138 20.0967 11.2509 19.4999 11.2509H18.0937L18.0895 11.2509C17.7045 11.253 17.3264 11.3532 16.9909 11.542C16.6554 11.7308 16.3735 12.0019 16.1718 12.3299L16.8107 12.7227C16.1292 12.4097 16.1292 12.4096 16.1292 12.4096L16.1291 12.4098L16.1266 12.4152C16.1241 12.4206 16.1199 12.4295 16.1139 12.4421C16.1019 12.4672 16.0828 12.5068 16.0558 12.5617C16.0016 12.6715 15.9158 12.8421 15.7917 13.079C15.5435 13.553 15.1427 14.2918 14.5379 15.3393C13.9449 16.3663 13.0704 17.665 12.2826 18.8204C12.189 18.9577 12.0965 19.0931 12.006 19.2256C11.7193 19.6455 11.4519 20.0369 11.2284 20.3713C11.0895 20.5792 10.9597 20.7765 10.8493 20.9517C10.6177 20.8877 10.4797 20.7709 10.4028 20.6592C10.2848 20.4879 10.2147 20.189 10.3641 19.7623L10.3641 19.7621C10.4792 19.4332 10.604 19.1139 10.7333 18.7868C10.7475 18.7511 10.7617 18.7152 10.7759 18.6791C10.8906 18.3895 11.0088 18.0912 11.1191 17.7887C11.3693 17.103 11.5913 16.3653 11.6885 15.5175L11.6886 15.5163C11.7237 15.2057 11.6271 14.9001 11.4917 14.6773C11.3713 14.4792 11.0846 14.1378 10.6067 14.1203L10.0728 14.0782C10.3371 13.7425 10.4999 13.3139 10.4999 12.7977C10.4999 12.2011 10.2894 11.6621 9.85983 11.2661C9.85927 11.2656 9.85872 11.2651 9.85816 11.2646C10.2462 10.9034 10.4999 10.3952 10.4999 9.75086C10.4999 9.12405 10.2583 8.61933 9.88292 8.25604ZM2.99574 9.0009C2.79876 9.00322 2.61038 9.08248 2.47096 9.22189C2.33056 9.3623 2.25116 9.55236 2.24993 9.75086C2.25116 9.94936 2.33056 10.1394 2.47096 10.2798C2.61038 10.4192 2.79876 10.4985 2.99574 10.5008L8.21796 10.4076C8.7783 10.3669 8.99993 10.0652 8.99993 9.75086C8.99993 9.42694 8.76715 9.12305 8.22468 9.09428L2.99574 9.0009ZM4.49216 12.0478C4.29674 12.0498 4.1097 12.128 3.97099 12.266C3.83084 12.4054 3.75141 12.5945 3.74993 12.7921V12.7977C3.74993 13.2617 4.13554 13.6312 4.48537 13.6413L8.20662 13.4552C8.77598 13.4169 8.99993 13.1131 8.99993 12.7977C8.99993 12.5693 8.92919 12.4483 8.84315 12.369C8.74392 12.2775 8.54981 12.1759 8.20437 12.1406L4.49216 12.0478ZM5.24144 4.50076L8.23821 4.40711H8.24993C8.72578 4.40711 8.99993 4.09944 8.99993 3.75086C8.99993 3.50623 8.93086 3.40857 8.86835 3.35251C8.78401 3.27688 8.59391 3.1765 8.19874 3.13991L5.23659 3.00106C5.04289 3.00556 4.85811 3.08448 4.72083 3.22176C4.5804 3.36219 4.50104 3.55232 4.49993 3.75086C4.50104 3.9494 4.5804 4.13953 4.72083 4.27996C4.85926 4.41839 5.04598 4.49747 5.24144 4.50076Z" fill="#373737"/>
</svg>
