<svg width="14" height="14" viewBox="0 0 14 14" fill="none" xmlns="http://www.w3.org/2000/svg">
<path d="M8.59191 7.00024L13.045 2.54712C13.2564 2.33615 13.3753 2.04986 13.3755 1.75124C13.3758 1.45261 13.2574 1.16612 13.0464 0.954774C12.8355 0.743429 12.5492 0.624549 12.2506 0.624286C11.9519 0.624022 11.6654 0.742396 11.4541 0.953368L7.00097 5.40649L2.54785 0.953368C2.33651 0.742023 2.04986 0.623291 1.75098 0.623291C1.45209 0.623291 1.16544 0.742023 0.9541 0.953368C0.742756 1.16471 0.624023 1.45136 0.624023 1.75024C0.624023 2.04913 0.742756 2.33577 0.9541 2.54712L5.40723 7.00024L0.9541 11.4534C0.742756 11.6647 0.624023 11.9514 0.624023 12.2502C0.624023 12.5491 0.742756 12.8358 0.9541 13.0471C1.16544 13.2585 1.45209 13.3772 1.75098 13.3772C2.04986 13.3772 2.33651 13.2585 2.54785 13.0471L7.00097 8.59399L11.4541 13.0471C11.6654 13.2585 11.9521 13.3772 12.251 13.3772C12.5499 13.3772 12.8365 13.2585 13.0478 13.0471C13.2592 12.8358 13.3779 12.5491 13.3779 12.2502C13.3779 11.9514 13.2592 11.6647 13.0478 11.4534L8.59191 7.00024Z" fill="#383B45"/>
</svg>
