<svg width="182" height="181" viewBox="0 0 182 181" fill="none" xmlns="http://www.w3.org/2000/svg">
<path d="M175.877 72.2716C171.957 68.3921 166.128 66.6985 159.026 67.368L161.711 63.6973C161.818 63.52 161.782 63.3073 161.64 63.1695C161.463 63.0632 161.25 63.0986 161.112 63.2404L157.933 67.6162C157.933 67.6162 157.933 67.6516 157.898 67.6871C157.898 67.7225 157.862 67.7225 157.862 67.758V67.8998V67.9352C157.862 67.9707 157.862 68.0061 157.898 68.0415C157.933 68.077 157.969 68.1124 158.004 68.1479L162.421 71.2869C162.492 71.3224 162.563 71.3578 162.634 71.3578C162.741 71.3578 162.883 71.287 162.954 71.2161C163.06 71.0388 163.025 70.8261 162.883 70.6883L159.314 68.1479C166.097 67.5847 171.642 69.1719 175.353 72.8388C178.567 76.0133 180.262 80.6017 180.262 86.104C180.262 98.097 172.454 113.233 159.952 125.581C151.544 133.871 141.76 140.185 132.398 143.359C132.185 143.43 132.078 143.643 132.149 143.852C132.22 143.993 132.362 144.1 132.504 144.1C132.54 144.1 132.575 144.1 132.611 144.064C142.08 140.854 151.966 134.47 160.445 126.108C173.128 113.619 181.004 98.2742 181.004 86.104C181.004 80.3536 179.237 75.5918 175.881 72.2755L175.877 72.2716Z" fill="#454138"/>
<path d="M123.493 26.6547C123.986 28.0648 124.66 29.5142 125.402 30.9596C125.437 31.0305 125.473 31.1014 125.508 31.1723C125.508 31.2787 125.508 31.385 125.579 31.4559C125.615 31.4913 125.65 31.4913 125.65 31.5268C125.65 31.5268 125.686 31.5268 125.686 31.5622C126.569 33.1849 127.559 34.7722 128.651 36.3594C130.028 38.2657 131.546 40.1326 133.206 41.8971L133.877 42.6021L134.299 44.2603L134.792 46.202C135.356 48.2816 136.062 50.3651 136.98 52.3738L138.712 56.2533C138.818 56.5014 139.067 56.6787 139.347 56.6787H139.418C139.737 56.6432 139.946 56.4305 140.017 56.1509L141.078 51.46L141.291 50.5069L142.987 52.3068C143.129 52.4486 143.271 52.5195 143.444 52.555C143.515 52.555 143.551 52.5904 143.622 52.5904C143.835 52.5904 144.044 52.5195 144.221 52.3423L144.576 52.0233L146.201 53.0118C146.378 53.1182 146.556 53.1536 146.694 53.1536C146.942 53.1536 147.187 53.0473 147.364 52.8701L147.506 52.7637L148.106 53.3978C148.177 53.4687 148.283 53.5042 148.39 53.5042C148.496 53.5042 148.567 53.4687 148.638 53.3978C148.78 53.256 148.78 53.0079 148.638 52.8701L148.039 52.2359L148.922 51.4246L154.502 57.2813C154.573 57.3522 154.68 57.3876 154.786 57.3876C154.893 57.3876 154.964 57.3522 155.035 57.2813C155.177 57.1395 155.177 56.8914 155.035 56.7535L154.151 55.8358C154.009 55.6586 153.903 55.4104 153.938 55.1663C153.974 54.8827 154.08 54.6385 154.293 54.4612C154.506 54.284 154.613 54.0713 154.648 53.8271C154.684 53.579 154.577 53.2994 154.4 53.0867C152.42 50.8299 152.952 48.0768 154.329 46.3123C155.634 44.6541 158.213 43.315 161.218 44.9023C161.396 45.0086 161.64 44.9377 161.711 44.7605C161.818 44.5832 161.747 44.3351 161.569 44.2682C158.391 42.5746 155.354 43.8782 153.729 45.8909C152.14 47.868 151.576 51.0425 153.8 53.6184C153.836 53.6538 153.871 53.7247 153.871 53.7956C153.871 53.8311 153.871 53.8665 153.8 53.9374C153.516 54.1855 153.307 54.5361 153.236 54.926L149.494 50.9756L149.813 50.692C150.133 50.373 150.235 49.9161 150.026 49.5262L149.143 47.868L149.498 47.549C149.853 47.23 149.888 46.6668 149.533 46.3162L147.837 44.5517L153.631 43.6695C153.95 43.634 154.159 43.3859 154.23 43.0708C154.266 42.7518 154.124 42.4722 153.875 42.3658L150.026 40.3886C148.082 39.4 146.035 38.5178 143.913 37.8482L140.38 36.6824L139.674 35.942C136.602 32.6966 133.175 29.9435 129.677 27.793C129.677 27.7575 129.677 27.7221 129.641 27.7221C129.57 27.6512 129.464 27.6158 129.357 27.6158C127.874 26.7335 126.392 25.9576 124.905 25.3235C124.447 25.1463 123.986 25.2172 123.635 25.5716C123.386 25.8198 123.245 26.1703 123.28 26.4893C123.28 26.5248 123.315 26.5957 123.315 26.6311C123.457 26.5602 123.457 26.5957 123.493 26.6666V26.6547ZM124.763 25.8788C126.104 26.4421 127.484 27.1471 128.825 27.9584L128.225 28.5216L128.119 28.628L126.001 30.6052C125.331 29.266 124.731 27.9584 124.234 26.6547C124.199 26.5838 124.199 26.5484 124.163 26.4775V26.4421C124.092 26.2294 124.199 26.0521 124.27 26.0167C124.305 25.9812 124.412 25.9103 124.554 25.9103C124.66 25.8395 124.731 25.8395 124.767 25.8749L124.763 25.8788ZM139.28 36.3201L141.788 38.9668L141.188 39.53L136.314 44.0121L133.77 41.33C131.826 39.2858 130.063 37.0605 128.541 34.8391C127.835 33.8151 127.2 32.795 126.632 31.7355C126.526 31.5583 126.455 31.3811 126.348 31.2078L128.892 28.88L129.491 28.3523C132.918 30.4319 136.274 33.1495 139.276 36.324L139.28 36.3201ZM143.835 38.3996C145.917 39.0692 147.932 39.916 149.841 40.9046L153.516 42.7754L147.439 43.6931L141.646 37.6592L143.835 38.3996ZM149.135 46.8322L148.606 47.3245L146.698 49.089L144.402 51.204L143.838 51.7318C143.803 51.7672 143.697 51.7672 143.661 51.7318L140.66 48.5927L145.534 44.0791L146.134 43.5159L149.135 46.6549C149.17 46.7258 149.17 46.7967 149.135 46.8322ZM148.713 48.2422L149.49 49.7231C149.525 49.8295 149.525 49.9358 149.454 50.0067L147.017 52.2635C146.946 52.3344 146.804 52.3344 146.733 52.299L145.286 51.4167L147.439 49.4395L148.709 48.2383L148.713 48.2422ZM140.589 50.7471L139.457 55.7925L137.797 52.0548C136.913 50.0776 136.207 48.0335 135.643 45.9854L135.537 45.56L135.502 45.3828V45.3119L135.08 43.7601L136.069 44.7841L139.883 48.8054L140.837 49.8295L140.589 50.7471ZM145.641 42.9842L145.041 43.5474L145.006 43.5828L140.202 48.0295L136.917 44.5714L141.721 40.1247L141.756 40.0893L142.356 39.5261L145.641 42.9842Z" fill="#454138"/>
<path d="M132.078 37.5214C132.469 37.734 132.891 37.8758 133.313 37.8758C133.526 37.8758 133.703 37.8404 133.912 37.8049C134.232 37.734 134.512 37.5922 134.796 37.415C135.044 37.2378 135.253 36.9896 135.431 36.71C135.608 36.4619 135.714 36.1468 135.75 35.8278C135.785 35.5087 135.785 35.1936 135.714 34.8746C135.643 34.5556 135.502 34.2759 135.292 34.0278C135.08 33.7442 134.835 33.5355 134.587 33.3937C134.303 33.2165 134.023 33.1101 133.703 33.0747C133.384 33.0392 133.068 33.0392 132.749 33.1101C132.114 33.2519 131.581 33.6379 131.266 34.2051C130.947 34.7328 130.844 35.4063 130.982 36.0404C131.124 36.6746 131.546 37.2063 132.078 37.5214ZM131.901 34.595C132.149 34.2051 132.5 33.9609 132.926 33.8545C133.068 33.8191 133.175 33.8191 133.317 33.8191C133.388 33.8191 133.494 33.8191 133.565 33.8545C133.778 33.89 133.987 33.9609 134.2 34.0672C134.378 34.1735 134.555 34.3153 134.693 34.4926C134.831 34.6698 134.906 34.847 134.977 35.0912C135.048 35.3039 135.048 35.5166 135.012 35.7254C134.977 35.938 134.906 36.1507 134.8 36.324C134.693 36.4973 134.551 36.6785 134.342 36.8163C134.165 36.9581 133.952 37.0645 133.743 37.0999C133.601 37.1354 133.423 37.1354 133.285 37.1354C133.001 37.1354 132.721 37.0645 132.473 36.9227C132.082 36.71 131.802 36.324 131.696 35.8987C131.66 35.7569 131.66 35.6151 131.66 35.4733C131.66 35.1188 131.767 34.8392 131.909 34.591L131.901 34.595Z" fill="#454138"/>
<path d="M132.078 36.391C132.185 36.5682 132.362 36.71 132.536 36.8164C132.749 36.9227 132.926 36.9936 133.135 37.029H133.455C133.561 37.029 133.668 37.029 133.774 36.9936C133.952 36.9582 134.165 36.8518 134.338 36.71C134.512 36.5682 134.658 36.4264 134.729 36.2531C134.835 36.0759 134.906 35.8632 134.941 35.6545C134.977 35.4457 134.977 35.2291 134.906 35.0558C134.87 34.8431 134.764 34.6659 134.658 34.4926C134.551 34.3193 134.374 34.1736 134.2 34.1027C134.023 33.9963 133.81 33.9254 133.601 33.89C133.388 33.8545 133.179 33.8545 133.001 33.9254C132.824 33.9609 132.611 34.0672 132.437 34.1736C132.26 34.2799 132.118 34.4571 132.015 34.6304C131.913 34.8037 131.838 35.0204 131.802 35.1937V35.2646C131.767 35.4418 131.802 35.6545 131.838 35.8278C131.873 36.0405 131.944 36.2138 132.086 36.391H132.078ZM132.855 34.8037C132.962 34.7328 133.068 34.6974 133.175 34.6619C133.281 34.6265 133.388 34.6265 133.494 34.6619C133.601 34.6619 133.707 34.6974 133.814 34.7683C133.92 34.8392 133.991 34.9101 134.062 34.981C134.133 35.0519 134.169 35.1582 134.204 35.2646C134.24 35.3709 134.24 35.4772 134.204 35.5836C134.204 35.6899 134.169 35.7963 134.098 35.9026C134.062 35.9735 133.991 36.0798 133.885 36.1507C133.885 36.1507 133.849 36.1507 133.849 36.1862C133.778 36.2216 133.672 36.2925 133.601 36.2925C133.459 36.328 133.352 36.328 133.246 36.2925C133.139 36.2925 133.068 36.2571 132.926 36.1862C132.82 36.1153 132.749 36.0444 132.678 35.9735C132.607 35.8672 132.571 35.7963 132.536 35.6899C132.5 35.5836 132.5 35.4772 132.536 35.3709C132.536 35.2646 132.607 35.1582 132.642 35.0519C132.666 35.0282 132.69 35.0046 132.713 34.981C132.749 34.9101 132.784 34.8392 132.855 34.8037Z" fill="#454138"/>
<path d="M156.77 57.171C156.876 57.171 156.947 57.2064 157.054 57.2064C157.196 57.2064 157.338 57.2064 157.511 57.171C158.004 57.0292 158.395 56.7456 158.643 56.3242C158.892 55.8988 158.963 55.4065 158.856 54.9496C158.75 54.4928 158.434 54.0674 158.008 53.8193C157.582 53.5711 157.089 53.5002 156.632 53.6066C156.419 53.642 156.21 53.7484 155.961 53.9256C155.748 54.0674 155.607 54.2446 155.468 54.4534C155.33 54.6621 155.256 54.8787 155.22 55.1229C155.185 55.3711 155.185 55.6153 155.256 55.8279C155.327 56.0761 155.433 56.2848 155.575 56.4621C155.717 56.6747 155.894 56.852 156.103 56.9544C156.316 57.0607 156.525 57.1316 156.774 57.1671L156.77 57.171ZM155.958 55.1938C155.993 55.052 156.028 54.9102 156.099 54.8039C156.17 54.6976 156.277 54.5912 156.383 54.4849C156.525 54.3785 156.632 54.3431 156.774 54.3076C156.88 54.2722 156.951 54.2722 157.058 54.2722C157.271 54.2722 157.448 54.3076 157.622 54.414C157.87 54.5558 158.044 54.8039 158.115 55.0835C158.186 55.3632 158.15 55.6468 158.008 55.8949C157.866 56.143 157.618 56.3203 157.338 56.3872C157.196 56.4227 157.018 56.4227 156.88 56.3872C156.738 56.3872 156.632 56.3163 156.49 56.2454C156.383 56.1745 156.277 56.1036 156.17 55.9618C156.099 55.8555 156.028 55.7137 155.993 55.5719C155.922 55.4656 155.922 55.3238 155.958 55.1859V55.1938Z" fill="#454138"/>
<path d="M148.784 55.7255C148.89 55.7964 148.997 55.8319 149.206 55.8673C149.277 55.8673 149.419 55.8673 149.525 55.8319C149.632 55.7964 149.738 55.761 149.845 55.6901C149.987 55.6192 150.058 55.5128 150.093 55.4419C150.164 55.3356 150.235 55.1938 150.235 55.0875C150.271 54.9811 150.271 54.8393 150.235 54.6976C150.2 54.5912 150.164 54.4494 150.058 54.3785C149.987 54.2722 149.88 54.1658 149.774 54.1304C149.667 54.0595 149.561 54.024 149.419 54.024C149.312 54.024 149.17 54.024 149.028 54.0595C148.922 54.0949 148.815 54.1304 148.709 54.2013C148.602 54.2722 148.496 54.3785 148.425 54.4494C148.354 54.5558 148.319 54.6621 148.283 54.8039C148.248 54.9457 148.283 55.052 148.283 55.1584C148.319 55.3002 148.39 55.4419 148.461 55.5128C148.567 55.5483 148.673 55.6546 148.78 55.7255H148.784ZM149.348 54.351L149.419 54.7763L149.703 54.5636L149.454 54.9181C149.454 54.9181 149.383 55.0245 149.383 55.0599L149.596 55.3789L149.241 55.0953H149.135L148.957 55.4144L149.064 55.0245V54.9181L148.673 54.8472L149.095 54.8118C149.131 54.7763 149.166 54.7763 149.202 54.7763H149.273L149.344 54.3549L149.348 54.351Z" fill="#454138"/>
<path d="M158.43 57.9115C158.395 57.9469 158.288 57.9469 158.253 57.9115C157.085 57.2065 155.674 57.3483 154.648 58.2305C154.258 58.585 153.978 59.0064 153.8 59.4633C152.175 58.1242 149.88 57.8051 147.901 58.7228C147.794 58.7583 147.688 58.7228 147.652 58.6519C147.546 58.4393 147.368 58.2266 147.195 58.0178C145.992 56.7496 143.98 56.6787 142.707 57.876C142.565 58.0178 142.529 58.266 142.671 58.4038C142.813 58.5417 143.062 58.5811 143.2 58.4393C144.189 57.5216 145.708 57.5925 146.627 58.5456C146.769 58.6874 146.875 58.8646 146.982 59.0025C147.23 59.4278 147.759 59.6011 148.216 59.3924C150.054 58.5102 152.172 58.9001 153.583 60.2747C153.548 60.7315 153.654 61.1923 153.867 61.6492C153.938 61.791 153.903 61.9682 153.832 62.0746C152.384 63.8036 152.629 66.4504 154.325 68.0022C154.396 68.0731 154.502 68.1085 154.573 68.1085C154.68 68.1085 154.786 68.0731 154.857 67.9667C154.999 67.8249 154.999 67.5768 154.822 67.439C153.445 66.2062 153.232 63.9454 154.4 62.5708C154.684 62.2164 154.755 61.7595 154.542 61.3381C154.049 60.2786 154.542 59.2939 155.106 58.7622C155.705 58.199 156.766 57.88 157.827 58.5141C158.111 58.6913 158.462 58.6913 158.746 58.5141C159.629 58.0572 160.619 57.9863 161.573 58.3014C161.786 58.3723 161.995 58.266 162.066 58.0533C162.137 57.8406 162.031 57.6279 161.818 57.561C160.686 57.2774 159.487 57.3483 158.426 57.9154L158.43 57.9115Z" fill="#454138"/>
<path d="M116.852 28.9509L117.242 29.0927V29.5181C117.242 29.6953 117.349 29.8726 117.526 29.9435H117.633C117.775 29.9435 117.917 29.8726 118.023 29.7662L118.272 29.4472L118.662 29.589C118.839 29.6599 119.052 29.589 119.155 29.4472C119.261 29.3054 119.261 29.0573 119.155 28.9194L118.906 28.565L119.19 28.2459C119.297 28.1041 119.297 27.8915 119.19 27.7182C119.084 27.5764 118.871 27.5055 118.733 27.5764L118.311 27.6827L118.062 27.3282C117.956 27.1864 117.743 27.1156 117.57 27.151C117.428 27.1864 117.25 27.3991 117.25 27.5409V27.9663L116.828 28.1081C116.686 28.179 116.544 28.3562 116.544 28.5334C116.58 28.7107 116.722 28.9194 116.864 28.9549L116.852 28.9509ZM117.984 28.4232C118.019 28.4586 118.09 28.4586 118.161 28.4941V28.6713C118.09 28.6713 118.019 28.7067 117.984 28.7067C117.948 28.6713 117.913 28.6004 117.877 28.565C117.913 28.5295 117.948 28.4941 117.984 28.4232Z" fill="#454138"/>
<path d="M140.837 27.4307L141.508 27.6788L141.472 28.3838C141.472 28.5611 141.579 28.7738 141.756 28.8407C141.827 28.8762 141.863 28.8762 141.934 28.8762C142.076 28.8762 142.218 28.8053 142.289 28.6989L142.711 28.1357L143.381 28.3838C143.559 28.4547 143.771 28.3838 143.909 28.242C144.048 28.1003 144.051 27.8521 143.945 27.6788L143.555 27.1156L144.012 26.5524C144.119 26.3752 144.119 26.1625 144.012 25.9892C143.87 25.8119 143.657 25.7765 143.519 25.8474L142.849 26.0246L142.427 25.4259C142.32 25.2842 142.107 25.2133 141.934 25.2842C141.76 25.3551 141.614 25.5323 141.614 25.7095L141.579 26.4145L140.873 26.6272C140.695 26.6981 140.553 26.8754 140.553 27.0841C140.553 27.2259 140.66 27.4031 140.837 27.4386V27.4307ZM142.32 26.6193C142.462 26.7611 142.675 26.832 142.849 26.7966H142.884C142.742 26.9384 142.742 27.1511 142.849 27.3598C142.636 27.2535 142.427 27.3244 142.32 27.5016L142.285 27.537V27.5016C142.285 27.3244 142.178 27.1471 141.965 27.0447C142.107 27.0093 142.285 26.7966 142.32 26.6193Z" fill="#454138"/>
<path d="M122.117 49.341C122.259 49.5183 122.472 49.5892 122.645 49.5183L123.777 49.1993L124.412 50.1524C124.518 50.2942 124.66 50.3651 124.834 50.3651C124.869 50.3651 124.94 50.3651 124.976 50.3296C125.189 50.2587 125.331 50.0815 125.331 49.8728L125.366 48.7424L126.498 48.4234C126.711 48.3525 126.853 48.1752 126.853 47.931C126.853 47.7183 126.711 47.5411 126.534 47.4742L125.437 47.0842L125.473 45.9539C125.473 45.7412 125.366 45.5639 125.153 45.4615C124.94 45.3906 124.731 45.4615 124.589 45.6033L123.883 46.521L122.787 46.1311C122.574 46.0602 122.365 46.1311 122.223 46.3083C122.081 46.4856 122.081 46.7337 122.223 46.8715L122.858 47.8247L122.152 48.7424C121.975 48.9551 121.975 49.1638 122.117 49.341ZM123.812 47.3284C123.99 47.3639 124.203 47.293 124.341 47.1512L124.696 46.6943V47.2221C124.66 47.4702 124.838 47.679 125.015 47.7144L125.544 47.8916L124.98 48.0689C124.767 48.1398 124.66 48.317 124.66 48.5258L124.625 49.089L124.305 48.5967C124.199 48.4549 124.057 48.384 123.915 48.384C123.879 48.384 123.808 48.384 123.773 48.4194L123.245 48.5612L123.564 48.1358C123.706 47.9586 123.741 47.7105 123.599 47.5372L123.28 47.0803L123.808 47.3284H123.812Z" fill="#454138"/>
<path d="M127.342 132.528C127.236 132.564 127.165 132.599 127.129 132.67C122.113 140.291 114.659 144.769 106.713 145.372C103.427 145.62 100.036 145.23 96.7152 144.104C85.6926 140.401 78.9489 130.311 79.1224 118.207C79.1224 117.609 79.1224 117.006 79.1934 116.408C79.6509 113.304 80.7827 110.338 82.443 107.624C82.8334 108.613 83.1844 109.566 83.5039 110.484C83.8943 111.437 84.3163 112.528 84.6712 113.623C84.7777 113.977 84.8842 114.328 84.9551 114.647C84.9906 114.753 85.0261 114.824 85.1326 114.895C85.2036 114.931 85.2746 114.931 85.3101 114.931H85.4165C85.9095 114.789 86.3709 114.612 86.8284 114.403C87.2188 114.261 87.5698 114.084 87.9602 113.91C88.4887 113.662 89.0211 113.418 89.6205 113.205C90.5749 112.642 91.6358 112.004 92.9056 111.193C92.9766 111.335 93.0831 111.512 93.1896 111.65C93.6116 112.355 94.1085 113.06 94.5659 113.765C94.7434 114.048 94.9564 114.328 95.1299 114.576C95.3428 114.895 95.4848 115.139 95.6228 115.317C96.0133 115.844 96.0803 115.915 95.9068 116.833C95.8003 117.361 96.1197 117.786 96.4707 118.101C96.6482 118.243 96.8612 118.385 97.0347 118.527C97.1767 118.633 97.4251 118.81 97.4922 118.916C97.7051 119.235 98.5175 120.894 98.904 121.776C99.5034 122.764 100.036 123.753 100.387 124.564C100.635 125.021 100.844 125.411 100.951 125.659C101.022 125.801 101.093 125.907 101.093 125.907C101.093 125.943 101.022 126.085 100.986 126.156C100.844 126.439 100.631 126.896 100.809 127.459C100.986 128.022 101.231 128.2 101.479 128.342C101.621 128.448 101.763 128.519 101.901 128.767C102.079 129.086 102.079 129.157 102.079 129.366C102.079 129.543 102.079 129.72 102.15 130.035C102.185 130.283 102.221 130.527 102.221 130.776C102.221 130.988 102.256 131.232 102.292 131.445C102.54 132.749 102.54 132.784 101.972 134.092L101.759 134.584C101.231 135.817 100.627 137.266 100.663 138.57C100.556 139.417 100.592 140.65 101.298 141.465C101.546 141.784 102.004 142.134 102.852 142.028H103.38C103.558 142.028 103.802 142.064 104.051 142.064C104.192 142.064 104.37 142.064 104.508 142.028C105.036 141.993 105.569 141.815 106.133 141.638C108.428 141.213 109.808 139.027 110.759 137.192C111.607 135.99 112.384 134.545 112.948 133.135C113.618 131.618 112.983 130.523 112.348 129.362C112.242 129.149 112.1 128.936 111.993 128.727C111.887 128.515 111.816 128.302 111.745 128.058C111.674 127.81 111.603 127.601 111.496 127.388C111.425 127.247 111.354 127.105 111.283 126.963C111.705 126.892 112.131 126.786 112.486 126.538C112.77 126.36 113.015 126.081 113.192 125.726C113.44 125.128 113.649 124.352 113.827 123.682L113.933 123.328C114.004 122.973 113.898 122.623 113.649 122.268C113.437 121.949 113.259 121.599 113.086 121.28L112.873 120.89C112.415 120.114 112.131 119.409 111.847 118.775L111.705 118.42C111.67 118.314 111.634 118.243 111.634 118.137C111.528 117.853 111.421 117.573 111.279 117.29C110.786 116.301 110.467 115.667 109.477 114.785C108.878 114.222 107.994 113.584 107.111 112.985C106.898 112.843 106.689 112.701 106.511 112.56C106.192 112.311 105.876 112.103 105.628 111.925C105.238 111.606 104.78 111.5 104.323 111.433C104.287 111.433 104.216 111.398 104.181 111.398C103.897 111.327 103.652 111.291 103.546 111.15C103.404 110.972 103.368 110.795 103.333 110.586C103.297 110.445 103.262 110.232 103.191 110.059C103.155 110.023 103.12 109.952 103.084 109.917C102.836 109.669 102.662 109.527 102.449 109.491C102.378 109.491 102.307 109.456 102.236 109.456C102.13 109.456 101.988 109.456 101.846 109.491C101.598 108.928 101.353 108.326 101.105 107.762C100.927 107.337 100.75 106.916 100.576 106.561C100.363 106.171 100.119 105.714 99.9057 105.257C99.7992 105.08 99.7282 104.903 99.6218 104.73C99.6218 104.694 99.5863 104.659 99.5863 104.659C99.4798 104.411 99.3733 104.202 99.2668 103.989C99.4443 103.497 99.6217 103.036 99.7243 102.544C99.7598 102.473 99.7243 102.366 99.6888 102.296C99.2668 101.555 99.0184 100.708 98.6989 99.8261C98.486 99.1919 98.277 98.5578 97.993 97.9552C97.851 97.6007 97.7446 97.2148 97.6026 96.8603C97.3896 96.2262 97.1806 95.5921 96.9322 94.954C96.6837 94.5286 96.4747 94.1072 96.2617 93.6858C95.7688 92.6972 95.2364 91.7086 94.5659 90.7909C94.002 90.1213 93.3316 89.5227 92.6572 88.9555C92.3732 88.7074 92.1287 88.4986 91.8448 88.2505C91.6318 88.0378 91.3873 87.8251 91.1744 87.5809C90.5394 87.0886 89.8335 86.6278 89.1236 86.1355C88.7017 85.8519 88.3112 85.5723 87.9208 85.2887C87.7433 85.1469 87.5659 85.0406 87.3923 84.8988C87.1439 84.7215 86.5799 84.3001 86.4025 84.1229C86.4025 83.9456 86.438 83.6975 86.4735 83.4179C86.5799 82.5002 86.6509 81.7597 86.509 81.3028C86.509 81.2674 86.509 81.2319 86.4735 81.1965C86.438 81.1256 86.4025 81.0901 86.367 81.0547C86.225 80.842 86.083 80.6293 85.945 80.4915C85.803 80.3497 85.6256 80.1724 85.452 79.8574C85.4875 79.6447 85.523 79.4674 85.5585 79.2587C85.594 79.0106 85.6295 78.7664 85.7005 78.5182C85.9135 77.636 86.1225 76.7537 86.2999 75.8715C86.5129 74.812 86.7574 73.6856 87.0769 72.5906C87.2543 71.7084 87.4673 70.8616 87.7118 70.0148C87.8183 70.1211 87.9247 70.2275 88.0312 70.3338L88.1022 70.4047C88.7726 71.0388 89.5141 71.7793 90.4684 71.8502H90.7169C91.0008 71.8502 91.2808 71.7793 91.6003 71.673C91.9197 71.5666 92.1997 71.3894 92.4482 71.1806C92.8386 70.8261 93.0476 70.4047 93.0121 69.9794C92.9766 69.5225 92.8346 68.9908 92.6927 68.4984C92.6217 68.2858 92.5152 68.0731 92.4087 67.8289C92.3023 67.6162 92.1958 67.4035 92.1248 67.1948C91.8408 66.2771 91.4189 65.3239 90.9929 64.548C90.709 63.843 90.3935 63.2798 90.1096 62.819L90.0741 62.7835C89.9321 62.5354 89.7546 62.3267 89.5811 62.1494C89.865 60.3495 90.1451 58.3053 90.2515 56.2573V55.9028C90.216 54.4928 90.216 53.0434 89.7941 51.7043C89.6521 50.6093 89.3721 49.5892 88.9462 48.6715C88.2757 46.7298 87.2149 44.8984 85.8385 43.2402C84.4977 41.653 82.9439 40.2429 81.4216 38.9353C81.4571 38.8644 81.4571 38.7935 81.4571 38.7226C81.4571 38.6872 81.4571 38.6517 81.4926 38.6163C81.5281 38.4036 81.5636 38.1594 81.5281 37.9822C81.4571 37.0999 80.9996 36.4658 80.5737 35.938C80.3607 35.6899 80.1517 35.4812 79.9033 35.233C79.5838 34.914 79.3038 34.5989 79.0554 34.3153C78.9134 34.1027 78.8069 33.9609 78.7004 33.8585C78.5585 33.7167 78.5585 33.6812 78.5585 33.4331C78.5585 33.185 78.594 33.0077 78.6295 32.8699C78.6649 32.6572 78.7004 32.4445 78.6649 32.0231C78.6294 31.4953 78.101 31.0345 77.5686 30.5422C77.4976 30.5067 77.4621 30.4358 77.3911 30.3649C77.1427 30.1522 76.8982 29.9081 76.8627 29.8372C76.8272 29.5536 77.0046 29.0613 77.3556 28.4271C77.4266 28.3208 77.4621 28.2145 77.5331 28.1081C77.6751 27.86 77.817 27.6158 77.9551 27.3677C78.0616 27.4386 78.1325 27.474 78.239 27.5449C78.2745 27.5803 78.3455 27.6158 78.381 27.6512C78.4165 27.6512 78.4165 27.6867 78.452 27.6867C79.5128 28.3562 80.7117 29.0613 81.6306 29.5221C82.1236 29.8056 82.656 30.1207 83.1489 30.4398C83.3264 30.5461 83.5039 30.6524 83.6774 30.7588C84.7382 31.4283 85.8306 32.1334 86.8915 32.6296C88.0233 33.2992 88.1614 33.441 88.8002 34.0042C88.9777 34.146 89.1552 34.3232 89.3997 34.532L90.1056 35.1661C90.7051 35.6939 91.34 36.2965 91.9079 36.7888C92.4008 37.2142 92.6493 37.5292 92.9332 37.8483C93.2527 38.2382 93.5682 38.5887 94.2386 39.1165L94.3451 39.1874C95.122 39.6797 96.0409 40.2114 96.7823 40.7392C97.1017 40.9873 97.4882 41.267 97.8431 41.5151C98.3361 41.8696 98.8685 42.2556 99.1485 42.5037C99.606 42.996 100.738 44.0555 101.479 44.6187C101.515 44.6542 101.586 44.7251 101.621 44.7605L101.692 44.8314C101.728 44.8668 101.728 44.9023 101.799 44.9377C101.87 45.0086 101.976 45.115 102.047 45.1859C102.225 45.3986 102.402 45.5758 102.576 45.7491L102.682 45.8554C103.672 46.8086 104.591 47.6908 105.261 47.7972C105.368 47.7972 105.474 47.7617 105.581 47.7617C105.652 47.7972 105.723 47.7972 105.758 47.7972C105.9 47.7972 106.007 47.7263 106.078 47.5845C106.326 47.4427 106.535 47.2655 106.713 47.0213C106.748 46.9858 106.748 46.9504 106.784 46.9504C106.819 46.9504 106.854 46.9858 106.89 46.9858C107.454 47.1985 108.124 47.4427 108.621 47.5136C108.905 47.549 109.185 47.549 109.469 47.5845C109.962 47.6199 110.459 47.6199 110.917 47.7972C111.307 47.939 111.409 48.0453 111.587 48.1516C111.764 48.258 111.942 48.3998 112.293 48.577C113.283 49.0693 113.705 49.1757 113.953 49.1757C114.06 49.1757 114.131 49.1402 114.166 49.1048C114.273 49.0339 114.379 48.8921 114.415 48.7503C114.45 48.4667 114.308 48.2934 112.967 47.3757C113.18 47.4112 113.389 47.4821 113.638 47.553C113.886 47.6239 114.486 47.6948 115.156 47.6948C115.968 47.6948 116.852 47.553 117.171 47.1315C117.384 47.0961 117.562 46.9898 117.7 46.848C117.913 46.6353 117.913 46.4226 117.877 46.3556C117.771 46.0366 117.487 45.9657 116.852 45.8633L116.568 45.7924C116.426 45.757 116.284 45.7215 116.11 45.7215C115.862 45.6861 115.582 45.6506 115.333 45.5443C115.298 45.5443 115.298 45.5088 115.262 45.5088C115.298 45.4734 115.369 45.4734 115.404 45.4379C115.44 45.4025 115.475 45.3671 115.475 45.3316C115.546 45.2253 115.546 44.9771 115.475 44.8747C115.44 44.7684 115.333 44.7329 115.262 44.662C116.075 44.3785 116.852 43.9925 116.994 43.5671C117.029 43.3899 116.994 43.1772 116.852 43.0393C116.816 43.0039 116.745 42.9684 116.674 42.933C116.319 42.8621 115.755 43.0039 114.73 43.252C114.06 43.4293 113.318 43.6065 112.857 43.6419C112.679 43.6774 112.364 43.6065 112.044 43.5356C111.902 43.5002 111.76 43.4647 111.587 43.4647C111.129 43.4293 110.739 43.3584 110.353 43.2875H110.282C109.962 43.2166 109.718 43.1811 109.434 43.1102C109.576 42.7912 109.753 42.3698 109.363 42.0508L109.292 41.9799L109.008 41.6963C108.373 41.0267 107.383 40.0027 106.677 39.404L106.642 39.3686C106.571 39.2977 106.429 39.1913 106.287 39.085C106.038 38.9077 105.723 38.6596 105.474 38.38C104.839 37.5686 104.027 36.7218 103.285 36.0523C102.016 34.7486 100.635 33.5828 99.1525 32.5233C98.904 32.346 98.695 32.2043 98.4465 32.031C97.7761 31.6056 97.0347 31.2905 96.3288 31.0069C96.1513 30.936 95.9383 30.8297 95.7648 30.7588C95.4809 30.617 95.2009 30.4752 94.9169 30.3334C94.704 30.2271 94.4594 30.1207 94.2465 29.9789C92.1958 29.1676 90.5039 27.3322 89.0171 25.745L88.8397 25.5323C88.6622 25.3196 88.4493 25.1778 88.2402 25.0045C88.0628 24.8627 87.8853 24.7209 87.7473 24.5791C87.5698 24.4019 87.4633 24.2247 87.3253 24.0159C87.1833 23.8032 87.0414 23.5905 86.8678 23.4172C86.6943 23.2439 86.5129 23.0628 86.3039 22.8895C86.1264 22.7477 85.9135 22.5704 85.7754 22.4326C85.0695 21.5149 84.3636 20.7744 83.6932 20.1758C83.4802 19.9631 83.2357 19.7859 82.9517 19.5771C82.7743 19.4708 82.6323 19.329 82.4943 19.2226C81.7529 18.4822 80.905 17.8126 80.0571 17.3164C78.7162 16.3987 77.2294 15.7291 75.7821 15.095C75.2182 14.8468 74.6148 14.6027 74.0508 14.3191C73.9798 13.7559 73.9088 13.5077 73.8734 13.4368C73.4159 12.4128 72.426 11.8141 71.5426 11.3573C71.4716 11.3218 71.4007 11.2864 71.3652 11.2509C71.2232 11.18 71.0457 11.0737 70.9077 11.0028C70.8012 10.3687 70.6592 9.62821 70.5882 8.99015C71.1522 8.88381 71.6846 8.56478 72.0356 8.14335C72.3905 7.71799 72.4931 7.19021 72.3905 6.66244C72.284 6.41431 72.1421 6.20556 71.933 6.06377V5.99288C72.1815 6.09922 72.4615 6.17012 72.7455 6.17012C73.3804 6.17012 74.0153 5.88654 74.4767 5.50055C75.2536 4.83099 75.7466 3.62972 75.1117 2.57418C74.8277 1.83372 74.1573 1.16416 73.3449 0.845131C72.6035 0.561552 71.8621 0.561552 71.2271 0.845131C70.5567 1.1996 69.9218 2.01096 69.8153 2.82231C69.6733 2.75141 69.5313 2.71596 69.3578 2.68052C69.3223 2.68052 69.3223 2.64507 69.2868 2.64507C68.4034 2.43239 67.5201 2.46783 66.7431 2.75141C67.0626 2.39694 67.1336 2.0464 66.9916 1.83372C66.8851 1.65648 66.6012 1.51469 66.2857 1.69193C66.2147 1.72738 66.1082 1.76282 65.9662 1.83372C65.9307 1.69193 65.8598 1.58559 65.7533 1.51469C65.5758 1.4438 65.3983 1.47925 65.2248 1.62103C64.9409 1.83372 63.529 2.36149 63.2451 2.43239C63.2096 2.43239 63.1386 2.43239 62.9966 2.46783C62.6417 2.50328 62.0068 2.57418 61.3718 2.71597L59.9245 3.07044C59.7825 3.10589 59.676 3.14133 59.5696 3.14133C59.4276 2.9641 59.2501 2.85775 58.9701 2.82231C58.8991 2.78686 58.8281 2.78686 58.7572 2.78686C58.7217 2.78686 58.6862 2.82231 58.6152 2.82231C58.4377 2.85775 58.2248 2.8932 57.9802 2.9641C57.7673 2.99954 57.5583 3.07044 57.3453 3.10589C56.4974 3.24768 55.4011 3.46036 54.4506 3.70455C54.2377 3.74 54.0287 3.77545 53.8157 3.8109L53.6382 3.84634C53.0388 3.95268 52.4709 4.02358 51.9069 4.09447C51.3075 4.16537 50.6726 4.23626 49.9627 4.37805C49.1148 4.59074 48.1959 4.76797 47.277 4.94127L46.9221 5.01217C44.9779 5.50449 42.8601 6.38674 40.4229 7.7298C39.788 8.11972 39.362 8.78928 39.2201 9.52974C39.0781 10.2702 39.2556 10.9752 39.713 11.5739C40.7739 12.9484 42.1857 14.2561 43.6331 15.2762C44.3745 15.8748 45.3643 16.5089 46.2832 17.0406C47.1311 17.6748 48.0855 18.2419 49.0754 18.6279C51.2286 20.0025 53.6658 21.0265 56.036 21.9797C55.5785 22.6492 55.2591 23.2479 55.0106 23.8859C54.3402 26.001 55.0106 28.5414 55.6811 30.5185C55.6811 30.5422 55.6929 30.5658 55.7166 30.5894C55.9295 31.1172 55.9295 31.578 56.0005 32.1412C56.036 32.6336 56.0715 33.1298 56.2135 33.7285C56.3554 34.2917 56.5329 34.8943 56.6709 35.5284C57.2349 37.608 57.8028 39.7624 58.0118 41.8066C58.2248 42.6534 58.5048 43.571 58.8952 44.3824C58.1538 44.2761 57.2704 44.347 56.9154 44.8747C56.809 45.1229 56.7735 45.4025 56.738 45.6506C56.738 45.7924 56.7025 45.8988 56.667 46.0051C56.596 46.2887 56.2766 46.462 56.103 46.5683C55.2197 47.0252 54.2298 47.5215 53.2754 47.9429C52.1791 48.4707 51.1222 49.1442 50.1323 49.7783C49.8128 49.991 49.4973 50.2037 49.1779 50.3769C47.3756 51.2946 45.8218 52.6692 44.339 53.9768L44.0195 54.2604C42.7142 55.5641 41.4759 57.0489 40.3125 58.7425C39.6775 59.483 39.0781 60.2943 38.5457 61.1411C38.0172 62.0588 37.3784 62.9411 36.7789 63.7879C36.286 64.4929 35.7536 65.1979 35.3316 65.9383C34.4127 67.3129 33.4583 68.7269 33.0009 70.3141C32.5434 71.6887 32.082 73.4886 32.8589 75.324C33.3518 76.6986 34.5902 79.0972 36.9919 80.0503C37.6978 80.4048 38.4037 80.5427 39.2161 80.5427C39.5001 80.5427 39.8156 80.5072 40.0995 80.4718H40.5215C40.8764 80.4718 41.2274 80.4718 41.6178 80.4363C41.7243 80.4009 41.8308 80.4009 41.9728 80.3654C42.0083 80.3654 42.0438 80.3654 42.0792 80.33C43.2466 80.1173 44.4455 79.8022 45.6128 79.4123C45.8258 79.3414 46.0348 79.2705 46.2477 79.1996C46.9537 78.9515 47.6596 78.7427 48.33 78.4592C48.752 78.3174 49.2134 78.1401 49.6354 78.0023L50.0258 77.8605C51.4376 77.4351 52.9205 77.1909 54.5137 76.9073C55.5391 76.7301 56.596 76.5529 57.6214 76.3087C57.9053 76.2378 58.1498 76.1669 58.4338 76.0605C58.6822 75.9897 58.8912 75.8833 59.1397 75.8479C59.3881 75.777 59.5972 75.777 59.8456 75.7415C60.1296 75.7061 60.4096 75.6706 60.729 75.5997L61.6479 75.3162C62.8507 74.9617 64.0851 74.5757 65.2524 74.0834C65.5009 73.977 65.6744 73.9061 65.8519 73.8352C66.9127 73.3784 66.9482 73.2011 66.9127 71.9644V71.5745C66.8772 70.7986 66.8417 70.1645 66.8062 69.5619C66.8772 69.5264 66.9837 69.491 67.0902 69.4201C67.1257 69.4201 67.1257 69.3846 67.1612 69.3846C67.2322 69.3492 67.3386 69.3137 67.4096 69.2783C67.9381 69.0302 68.5415 68.786 68.9989 68.5733C69.3184 68.396 69.4919 68.2897 69.5984 68.1833V68.8529C69.5984 71.0388 69.7404 72.8388 70.0558 74.426C70.0913 74.6742 70.0913 74.9184 70.0558 75.1665C70.0558 75.4146 70.0558 75.6588 70.0913 75.8715L70.1623 76.1905C70.3398 77.0728 70.5173 77.9196 70.5843 78.6246C70.7973 81.5194 71.0773 85.1508 72.7376 87.9748C73.0925 88.8216 73.5855 89.3848 74.0784 89.952C74.2559 90.1292 74.3979 90.3419 74.5714 90.5152C75.0289 91.1493 75.4193 91.8189 75.7742 92.5278C76.0937 93.091 76.4091 93.6936 76.7641 94.2214C77.048 94.7492 77.2925 95.2809 77.541 95.8087C77.8959 96.5846 78.2469 97.3605 78.7083 98.1009C79.0278 98.7351 79.3078 99.3692 79.5917 100.007C79.8402 100.57 80.1202 101.173 80.4041 101.736C76.7286 103.958 74.3979 106.746 72.3866 111.051C70.7618 113.343 69.5944 115.742 68.8175 118.211C68.0051 120.787 67.6502 123.469 67.7567 126.183C67.5082 131.756 69.0265 136.873 72.2091 141.39C77.119 150.843 87.3647 156.629 99.0539 156.629H99.7953C101.207 156.593 102.623 156.487 103.999 156.274C113.677 154.829 121.73 149.22 125.583 140.965C125.619 140.894 125.725 140.752 125.796 140.61C125.867 140.504 125.903 140.433 126.009 140.291C128.375 136.553 129.823 133.871 129.081 132.847C128.411 132.457 127.949 132.39 127.314 132.528H127.342ZM124.057 141.559C119.569 150.169 110.246 155.636 99.4364 155.849H98.8015C87.3214 155.849 77.2886 150.24 72.4852 140.996C69.3775 136.585 67.9302 131.611 68.1392 126.179C68.0327 123.462 68.3877 120.819 69.2356 118.243C69.977 115.915 71.1443 113.623 72.6626 111.433C74.6069 107.305 76.8666 104.623 80.3647 102.437C80.7551 103.426 81.1416 104.308 81.4965 105.19C81.7095 105.718 81.9185 106.25 82.1315 106.778C80.2227 109.704 78.9883 112.949 78.4559 116.337C78.4204 116.971 78.3849 117.569 78.3849 118.207C78.2075 130.697 85.1326 141.032 96.4707 144.844C101.026 146.396 105.656 146.609 110.069 145.691C116.958 144.246 123.209 139.941 127.661 133.273C127.874 133.237 128.052 133.237 128.083 133.308C128.332 133.663 128.012 135.108 124.976 139.905C124.763 140.224 124.621 140.468 124.518 140.646C124.376 140.929 124.199 141.244 124.061 141.563L124.057 141.559ZM78.9844 97.7425C78.5624 97.0375 78.2075 96.2616 77.8525 95.4857C77.6041 94.9225 77.3596 94.3908 77.0401 93.8276C76.6852 93.2998 76.3697 92.7326 76.0858 92.1694C75.6953 91.4644 75.3089 90.724 74.8159 90.0544C74.6384 89.8417 74.461 89.629 74.2874 89.4557C73.7945 88.8925 73.3686 88.3962 73.0176 87.6203C71.4283 84.9027 71.1443 81.3777 70.9353 78.5537C70.8998 77.8132 70.6868 76.931 70.5133 76.0487L70.4423 75.7652C70.4068 75.5879 70.4423 75.3752 70.4423 75.2019C70.4423 74.9538 70.4423 74.6742 70.4068 74.3197C70.0519 72.6615 69.9139 70.7553 69.9494 68.4275V67.5098C69.9849 66.344 70.0913 65.1467 70.1623 64.0518C70.2688 63.4176 70.3753 62.7835 70.4463 62.1455L70.6237 61.0151C70.6237 60.6961 70.6592 60.4164 70.6947 60.1329V59.9556C70.6947 59.9202 70.7302 59.8847 70.7302 59.8493V59.8138C70.7657 59.5657 70.8012 59.3215 70.8367 59.1088C70.8722 59.0025 70.8722 58.8607 70.9077 58.7543C70.9432 58.5417 70.9787 58.3644 71.0497 58.1202C71.2626 57.0253 71.3691 55.9343 71.3691 55.0875L71.4401 54.5243C71.5466 53.8902 71.5821 53.6066 71.4756 53.3585C71.0852 52.618 70.2728 52.0902 69.4958 51.6294C68.9674 51.2749 68.3995 50.9244 68.013 50.499C67.871 50.3573 67.6226 50.3218 67.4846 50.4636C67.3465 50.6054 67.3071 50.8535 67.4491 50.9914C67.9065 51.4837 68.5099 51.8736 69.0739 52.2242C69.7798 52.681 70.4857 53.1064 70.7697 53.6342C70.7697 53.7405 70.7342 54.0595 70.6987 54.3746L70.6277 55.0087C70.5922 55.8555 70.4857 56.915 70.3082 57.9351C70.2728 58.0769 70.2373 58.2187 70.2018 58.3605C67.9065 59.0301 66.9167 59.4554 65.6113 60.5819C65.5758 60.6173 65.5403 60.6527 65.5048 60.6882C65.0119 61.1136 64.4795 61.6059 63.8445 62.2755C63.5606 62.5236 63.2806 62.7678 62.9611 63.0159C60.8789 64.7095 59.2186 65.9108 57.5583 66.8954C56.3909 67.7068 55.0501 68.3055 53.7447 68.9081L53.4963 69.0144C53.0743 69.1562 52.5419 69.3334 52.0134 69.5067C51.4495 69.684 50.8816 69.8612 50.4241 69.999C49.9312 70.1408 49.3988 70.2472 48.8703 70.389C47.7739 70.6371 46.646 70.8813 45.6562 71.3421L45.3722 71.4484C44.2759 71.8738 43.2545 72.2952 43.077 72.9648C43.0415 73.142 43.006 73.4217 43.2545 73.7407C43.3964 73.8825 43.6094 73.9888 43.8894 73.9888C44.2088 73.9888 44.6308 73.9179 45.1948 73.7407L45.6522 73.5635C46.9221 73.0712 48.3734 72.5394 49.5368 71.8699C50.4912 71.48 51.5165 70.9522 52.3644 70.4599C52.7548 70.2472 52.9284 70.1763 53.1058 70.1054C53.2833 70.0345 53.4253 69.9636 53.8118 69.7509C53.8472 69.7509 53.8827 69.7155 53.8827 69.68L54.0602 69.6091C55.4011 69.0105 56.7814 68.3763 57.9802 67.565C59.5696 66.6473 61.1944 65.4854 63.1386 63.8942C64.1995 65.3397 65.0119 67.0333 65.5048 68.7978C65.5403 69.0459 65.5758 69.2547 65.6113 69.5028C65.6823 70.1369 65.7533 70.8419 65.7533 71.7242V72.1141C65.7769 72.7022 65.5771 73.079 65.1538 73.2445C64.9764 73.3153 64.7989 73.4217 64.5544 73.4926C63.4225 73.9495 62.1882 74.3394 61.0208 74.6939L60.1019 74.9774C59.8535 75.0483 59.5735 75.0838 59.325 75.1192C59.0766 75.1547 58.7966 75.1901 58.5481 75.261C58.2642 75.3319 58.0197 75.4028 57.7357 75.5091C57.4873 75.58 57.2783 75.6864 57.0298 75.7218C56.0044 75.97 54.9791 76.1472 53.9577 76.3205C52.4393 76.6041 50.85 76.8483 49.3672 77.3091L48.9768 77.4509C46.4331 78.404 43.7829 79.3572 41.1367 79.814C40.8173 79.8495 40.5018 79.8495 40.1823 79.8495H39.4409C38.593 79.9204 37.8871 79.8495 37.2167 79.5659C37.1102 79.5305 37.0037 79.495 36.8972 79.4596C34.744 78.6128 33.6476 76.4268 33.1547 75.1547C32.6262 73.9219 32.6972 72.5434 33.3321 70.6725C33.7541 69.1916 34.673 67.8131 35.5919 66.474C36.0493 65.769 36.5462 65.064 37.0392 64.359C37.6386 63.4767 38.3091 62.5945 38.8415 61.6768C39.3344 60.8654 39.9023 60.125 40.5728 59.3491C41.7756 57.6555 42.9745 56.21 44.2128 54.9378L44.5322 54.6543C45.9796 53.386 47.4624 52.043 49.2292 51.1607C49.5486 50.948 49.8996 50.7354 50.219 50.5266C51.2089 49.8925 52.2343 49.2229 53.2557 48.7267C54.2456 48.2698 55.2354 47.7735 56.0833 47.3521C56.6118 47.104 56.9667 46.718 57.0732 46.2572C57.1087 46.1154 57.1087 45.9736 57.1442 45.8318C57.1797 45.6191 57.2152 45.3749 57.2152 45.304C57.3216 45.1622 57.7791 45.0913 58.276 45.1622C58.5245 45.1977 58.8045 45.2331 59.0174 45.3395C59.5814 46.399 60.2203 47.2812 60.9617 48.0571C61.5611 48.6558 62.1645 49.2229 62.8349 49.6089C62.9059 49.6444 62.9769 49.6798 63.0479 49.6798C63.0716 49.6798 63.0952 49.668 63.1189 49.6444C63.6828 49.6798 64.3217 49.7507 64.9566 49.7507C65.2406 49.7507 65.5206 49.7507 65.84 49.7153C66.1595 49.6798 66.4395 49.6444 66.7589 49.6089C66.8299 49.6089 66.9009 49.5735 66.9364 49.5735C67.1493 49.538 67.3584 49.4671 67.5713 49.4317L67.9263 49.3608C69.2671 49.0772 70.6829 48.7621 71.8463 47.9508C74.319 45.9736 76.2277 43.1181 76.9337 40.3296C77.1111 39.66 77.1111 39.0968 76.9692 38.6714C76.6852 37.7537 76.6142 36.836 76.6142 36.0601V35.812C76.9692 36.1665 77.3556 36.517 77.7106 36.8715C77.7816 36.9424 77.888 37.0133 77.959 37.1196L77.9945 37.1551C78.7004 37.8246 79.4419 38.4587 80.1833 39.0614L80.7117 39.5182C82.2655 40.8574 83.8903 42.3422 85.2667 43.9649C86.6076 45.5876 87.5974 47.3521 88.2678 49.2229C88.6583 50.1052 88.9028 51.0583 89.0802 52.1493C89.4707 53.453 89.5022 54.7961 89.5377 56.2061V56.5251C89.4667 58.5692 89.1473 60.6528 88.8673 62.4527C88.5833 63.4767 88.3743 64.4653 88.2678 65.4145C88.0194 66.3677 87.8104 67.3562 87.6329 68.3763C87.5619 68.6954 87.4554 69.0105 87.349 69.3649L87.278 69.6131C86.994 70.6371 86.714 71.7281 86.5011 72.7876C86.1816 73.8825 85.9371 75.0089 85.7242 76.1039C85.5467 76.9861 85.3692 77.8329 85.1247 78.7152C85.0537 78.9987 85.0182 79.2429 84.9827 79.5265C84.9473 79.7392 84.9118 79.9834 84.8763 80.2315V80.3379L84.8053 80.586C84.6988 81.0114 84.6988 81.0429 84.5213 81.5746C84.4503 81.7873 84.5923 82 84.7698 82.0315H84.8763C85.0537 82.0315 85.1957 81.9251 85.2312 81.7479C85.3377 81.4289 85.3732 81.291 85.4087 81.1492C85.4797 81.2201 85.5151 81.291 85.5861 81.3265C85.7636 81.5037 85.8701 81.61 85.9411 81.7833C86.0475 82.1024 85.9411 83.0516 85.8701 83.6542C85.8346 83.9732 85.7991 84.2883 85.7991 84.4655C85.7991 84.82 86.083 85.0996 87.069 85.8046C87.5974 86.1946 88.2008 86.616 88.8002 87.0374C89.4707 87.4943 90.1766 87.9906 90.78 88.412C91.2375 88.9043 91.7698 89.3651 92.2628 89.7866C92.8977 90.3498 93.5682 90.9169 94.0651 91.5156C94.7 92.3624 95.1969 93.351 95.6544 94.2687C95.8674 94.6941 96.1119 95.1509 96.3248 95.5369C96.5378 96.1356 96.7823 96.7697 96.9952 97.3723C97.1372 97.7622 97.2437 98.1128 97.3857 98.5027C97.6341 99.1014 97.8431 99.7355 98.0561 100.338C98.34 101.149 98.6201 102.032 99.0105 102.808C98.904 103.264 98.762 103.725 98.553 104.218C97.7761 106.053 96.3288 107.888 94.3135 109.613C93.8561 109.933 93.3592 110.212 92.9017 110.531C91.4544 111.449 90.358 112.118 89.3681 112.717C88.8042 112.93 88.2718 113.174 87.7078 113.422C87.1439 113.67 86.576 113.914 86.0475 114.127C85.9056 114.163 85.7991 114.233 85.6571 114.269C85.5151 113.67 85.3022 113.068 85.0932 112.469C84.8447 111.729 84.5647 111.023 84.2808 110.389C83.8903 109.294 83.4684 108.203 83.0109 107.002C82.9399 106.86 82.9044 106.719 82.8334 106.577C82.7979 106.435 82.727 106.293 82.656 106.151C82.4785 105.695 82.301 105.234 82.092 104.741C81.7726 103.93 81.4216 103.083 81.0312 102.166C80.9957 102.095 80.9602 101.988 80.9247 101.917C80.9247 101.882 80.8892 101.847 80.8892 101.811C80.8182 101.705 80.7827 101.598 80.7117 101.457C80.4278 100.929 80.1833 100.362 79.9348 99.7985C79.6509 99.0226 79.3709 98.353 79.0159 97.7189L78.9844 97.7425ZM66.7984 68.4275C66.6209 68.4984 66.4789 68.5693 66.3409 68.6402C66.3172 68.6402 66.2936 68.652 66.2699 68.6757C66.2699 68.6048 66.2699 68.5339 66.2344 68.463V68.3921C65.9505 67.3326 65.5285 66.3125 65.0316 65.3594C64.9961 65.253 64.9251 65.1467 64.8541 65.0758C64.4992 64.4417 64.1127 63.8076 63.6868 63.205C63.8997 63.0277 64.1088 62.8505 64.3217 62.6772C64.9921 62.0076 65.5245 61.5114 66.0175 61.0899L66.5105 61.019C66.6169 61.019 66.7234 60.9836 66.8299 60.9836C66.8654 60.9836 66.9009 60.9836 66.9719 60.9481C67.0074 60.9481 67.0784 60.9481 67.1138 60.9127H67.1493C67.7488 60.8064 68.3837 60.7 68.9871 60.5582C69.3065 60.4873 69.622 60.381 69.9415 60.2746V60.3101C69.9415 60.4873 69.906 60.6646 69.906 60.8379L69.7285 61.8974C69.622 62.5315 69.5156 63.201 69.4091 63.8745C69.3381 64.934 69.2671 66.0604 69.1961 67.1554C68.9832 67.2617 68.8412 67.3681 68.7387 67.439C68.6322 67.5453 68.4902 67.6162 68.2457 67.758C67.8553 67.9707 67.2913 68.1833 66.7984 68.4275ZM70.0835 59.1482C70.048 59.2546 70.048 59.3609 70.048 59.4672C69.4485 59.6799 68.7781 59.8572 68.0682 59.995C67.8553 60.0305 67.6108 60.0659 67.3978 60.1013C68.1037 59.676 68.9161 59.3963 70.1189 59.0419C70.0835 59.0773 70.0835 59.1128 70.0835 59.1482ZM49.6314 70.8261C49.4895 70.897 49.3475 70.9325 49.241 71.0034C48.0737 71.673 46.6618 72.2047 45.4274 72.6615L45.0055 72.8388C44.0511 73.1224 43.8381 73.0515 43.8381 73.016C43.9446 72.6615 45.25 72.1692 45.6759 72.0274L45.9953 71.8856C46.9497 71.4603 48.0461 71.2161 49.0675 70.9679C49.2449 70.897 49.4224 70.8616 49.6314 70.8261ZM56.0952 30.2546C55.4602 28.3484 54.8253 25.9498 55.4247 24.0474C55.6732 23.3779 56.0242 22.7437 56.5921 22.0033C56.663 21.8969 56.7695 21.7906 56.876 21.6488C56.8997 21.6252 56.9115 21.6015 56.9115 21.5779C57.089 21.3652 57.2664 21.1525 57.4045 20.9438C57.8974 20.3097 58.5008 19.5692 58.9583 18.7579C59.0648 18.5806 58.9938 18.3325 58.8163 18.2301C58.6388 18.1277 58.3943 18.1947 58.2879 18.3719C58.1814 18.5491 58.0749 18.6909 57.9684 18.8288C58.0039 18.6161 58.0394 18.3719 58.0394 18.1592C58.0749 17.9465 58.0749 17.7023 58.1104 17.5251C58.2169 16.9973 58.2524 16.6074 58.2169 16.2923C58.1814 15.8354 58.0394 15.5519 57.7949 15.5164C57.3374 15.4101 56.9825 15.9063 56.6985 17.0328C56.6985 17.0682 56.663 17.1037 56.663 17.1391C56.5211 17.6314 56.3436 18.4073 56.2056 19.2896C55.4642 18.5846 54.6873 17.7732 53.9103 16.891C53.3819 16.3987 52.956 15.9024 52.5695 15.4455C52.4275 15.2683 52.25 15.091 52.1475 14.9177C52.041 14.7405 51.7926 14.7051 51.6191 14.8468C51.5481 14.8823 51.5126 14.9532 51.5126 14.9886C51.4771 15.095 51.4771 15.2368 51.5481 15.3786C52.041 16.0481 52.6799 16.7531 53.3858 17.4227C54.3047 18.4822 55.2236 19.4353 56.1425 20.2821V21.3062C56.1425 21.3062 56.1425 21.3416 56.107 21.3416C53.7408 20.3885 51.2326 19.329 49.0438 17.9544C48.8309 17.8481 48.6534 17.7417 48.4444 17.6354C47.703 17.2809 46.997 16.8595 46.3266 16.3671C45.3722 15.8394 44.4534 15.2368 43.7119 14.6381C42.3001 13.6495 40.9553 12.3813 39.9339 11.0737C39.6144 10.6483 39.5119 10.156 39.5789 9.62821C39.6854 9.10043 40.0009 8.60417 40.4268 8.32453C40.7108 8.14729 40.9908 8.0055 41.3102 7.86765C42.1226 7.44228 42.935 7.0563 43.6764 6.73727C44.5598 6.34735 45.4077 6.06771 46.2556 5.85503C46.3976 5.81958 46.5751 5.74869 46.7131 5.71324L47.068 5.64234C47.9869 5.46511 48.9058 5.28787 49.7537 5.07912C50.4596 4.97278 51.059 4.90189 51.6624 4.83099C51.9819 4.79555 52.3329 4.7601 52.6523 4.6892C52.3329 5.57145 52.5458 6.80423 52.5813 7.05236C52.6523 7.30049 52.7588 7.50924 52.8298 7.72192C53.0782 8.2497 53.3227 8.67506 53.6422 8.95471C52.5813 9.27373 51.5914 9.65971 50.5345 10.0851C50.1796 10.2269 49.8286 10.3687 49.4382 10.5105L48.3418 10.5813C47.352 10.6168 46.2241 10.6877 45.3052 10.8649C44.4928 11.0067 43.9643 11.2903 43.8224 11.6763C43.7514 11.889 43.7869 12.1016 43.9643 12.2749C44.1773 12.4876 44.5283 12.6294 44.9897 12.6294C45.2382 12.6294 45.5182 12.594 45.8021 12.5231C46.721 12.3458 47.8844 11.889 48.9807 11.2903H49.0162L49.4382 11.2548C49.5092 11.2903 49.6866 11.3257 49.8602 11.3966C50.1441 11.503 50.4951 11.6448 50.85 11.7511C51.7689 11.9283 52.8298 12.2434 53.7802 12.5625C54.0287 12.6334 54.2377 12.7397 54.4861 12.8106C54.7701 12.9169 55.0146 13.0233 55.263 13.0587C55.5115 13.1296 55.7915 13.1296 56.0754 13.1651C56.2884 13.1651 56.4659 13.2005 56.6394 13.236C57.3098 13.4132 58.0157 13.555 58.6901 13.6928C58.5836 13.7283 58.4771 13.7637 58.2997 13.7992C58.0867 13.8701 57.9802 14.0828 58.0512 14.2561C58.0867 14.4333 58.2642 14.5396 58.4062 14.5396H58.5126C58.9346 14.3978 59.1121 14.3624 59.325 14.327C59.538 14.2915 59.7825 14.2206 60.3859 14.0434C60.4569 14.0434 60.4924 14.0788 60.5634 14.0788C60.9183 14.5711 61.1983 14.9611 61.3048 15.1738C61.4822 15.5991 61.2693 16.4774 61.0918 17.1864C61.0208 17.3991 60.9853 17.6117 60.9498 17.785L60.8789 18.2104C60.7369 18.9154 60.6304 19.6559 60.5594 20.3609C60.5239 20.4318 60.5239 20.5381 60.4884 20.609C59.96 22.2317 59.5696 24.4176 59.5696 25.8316C58.9346 27.1707 58.9346 28.5138 59.5341 29.782C59.5696 29.9593 59.676 30.1365 59.747 30.3098C58.8991 29.6757 58.0867 29.144 57.3453 28.6516C57.1678 28.5453 56.9233 28.5807 56.8169 28.758C56.7104 28.9352 56.7459 29.1833 56.9233 29.2858C57.4873 29.6402 58.0552 30.0617 58.6901 30.487C58.9741 30.6643 59.2186 30.8415 59.5025 31.0502C59.751 31.1566 59.9955 31.2984 60.2439 31.4402C60.3859 31.7237 60.5279 32.0034 60.5989 32.2515C60.8828 32.9565 60.7053 33.5552 60.5279 34.2641C60.4569 34.5477 60.3859 34.8628 60.3149 35.1818C60.2084 35.9932 60.2794 36.7336 60.4924 37.159C60.8473 38.1476 60.9853 39.5576 61.0918 40.7943L61.1273 41.2197C60.9853 42.3855 61.3758 43.8664 61.4822 44.2879C61.6952 45.1347 62.1882 46.6156 62.4011 47.1473C62.4366 47.2536 62.4721 47.3245 62.4721 47.3954C62.5076 47.5372 62.5431 47.6436 62.5786 47.7499C62.6141 47.998 62.6496 48.2068 62.6851 48.4904C61.9792 47.998 61.3442 47.3245 60.7408 46.5841C60.3189 46.0209 59.8929 45.4183 59.538 44.7487C59.5025 44.6423 59.4315 44.5715 59.396 44.4651C58.9386 43.5474 58.5836 42.5588 58.3707 41.6411C58.1577 39.597 57.5938 37.4071 57.0298 35.2921C56.8523 34.6934 56.7104 34.0908 56.5723 33.4922C56.4304 32.9644 56.3949 32.5036 56.3594 32.0467C56.3239 31.5544 56.2884 31.0581 56.1109 30.4949C56.1464 30.3886 56.1464 30.3531 56.1109 30.2822L56.0952 30.2546ZM56.9785 19.9198C57.0495 19.0021 57.2625 18.1198 57.4005 17.5212C57.365 17.6984 57.365 17.9111 57.3295 18.0844C57.294 18.4034 57.2585 18.7185 57.2231 19.0021C57.1166 19.4944 57.0456 19.6716 56.9746 19.8843C56.9746 19.8843 56.9746 19.8961 56.9746 19.9198H56.9785ZM62.4524 3.19647C61.8884 3.5155 61.4625 3.83059 61.076 4.18506C61.0406 4.22051 61.0051 4.25596 60.9696 4.25596C60.5476 4.61043 60.0862 4.92552 59.5222 5.2091C59.3448 5.31544 59.2383 5.52812 59.3448 5.70142C59.4157 5.84321 59.5577 5.91411 59.6997 5.91411C59.7707 5.91411 59.8062 5.91411 59.8772 5.87866C60.4411 5.63053 60.867 5.31544 61.2535 4.99641C61.36 4.92552 61.4665 4.81918 61.573 4.74828C62.1369 4.2914 62.7048 3.83059 63.5882 3.48005C63.9076 3.33826 64.649 3.02318 64.9645 2.81049C64.8581 2.91683 64.8226 3.09407 64.929 3.23586C65 3.3422 65.1065 3.4131 65.213 3.4131C64.72 3.83847 63.6237 4.22445 63.2332 4.33079C62.9848 4.40169 62.8113 4.54347 62.5273 4.72071L62.2434 4.8625C62.1724 4.89795 62.0659 4.9334 61.9594 5.00429C61.782 5.11063 61.7465 5.35876 61.853 5.53206L61.9239 5.60296C61.6755 5.63841 61.4665 5.7093 61.3245 5.78019C61.2535 5.81564 61.1825 5.85109 61.1115 5.85109C60.8631 5.95743 60.6896 6.02833 60.4056 6.02833C60.2636 6.02833 60.1217 6.02833 59.9481 6.06377C59.3842 6.09922 58.6428 6.17012 58.2169 6.24101C58.1814 6.17012 58.1814 6.06377 58.1459 5.99288C58.0749 5.50055 58.1104 4.9334 58.2169 4.54741C58.2524 4.37018 58.2879 4.19294 58.3233 4.05509C58.5363 4.01964 58.6783 3.98419 58.8163 3.94875C59.2738 3.8424 59.4867 3.80696 59.8417 3.70061L60.4766 3.55883H60.5121L61.289 3.38159C61.711 3.31069 62.1369 3.2398 62.4563 3.20435L62.4524 3.19647ZM72.8007 1.50288C73.4356 1.75101 73.9325 2.24333 74.177 2.87745C74.67 3.6888 74.248 4.4647 73.755 4.92158C73.2266 5.41391 72.3787 5.62659 71.6728 5.09882C71.4953 4.32291 71.0378 3.6888 70.2964 3.19254C70.1899 2.66476 70.6868 1.78252 71.3218 1.49894C71.7438 1.28625 72.2761 1.28625 72.8046 1.49894L72.8007 1.50288ZM69.7285 4.71283C69.7995 4.67739 69.906 4.60649 70.0125 4.50015C70.1189 4.35836 70.1899 4.21657 70.2254 4.04327C70.6474 4.39775 70.9313 4.89007 71.0023 5.3824C71.0378 5.52419 71.0378 5.63053 71.0378 5.77232C70.8249 5.77232 70.5804 5.80777 70.3674 5.91411C70.2964 5.94955 70.2609 5.985 70.2254 5.985C70.1899 5.87866 70.1544 5.77232 70.1189 5.63053C70.048 5.34695 69.9415 5.20516 69.8705 5.06731C69.7285 4.99641 69.693 4.96097 69.7285 4.71283ZM68.8096 3.33826C69.3026 3.5864 69.4801 3.86604 69.4446 3.97238C69.4209 3.99601 69.3854 4.01964 69.3381 4.04327C69.1606 4.14961 68.9832 4.2914 68.9477 4.64194C68.9122 5.09882 69.0187 5.27605 69.1606 5.48874C69.2316 5.59508 69.2671 5.66598 69.3381 5.84321C69.5156 6.47733 69.5156 6.72546 69.4801 6.8318C69.4446 7.04449 69.5511 7.22172 69.764 7.25717C69.977 7.29262 70.1544 7.18627 70.2215 7.00904C70.2925 6.79635 70.4344 6.65456 70.6119 6.55216C70.7894 6.48127 71.0023 6.44582 71.1404 6.51671C71.2823 6.58761 71.3888 6.69395 71.4243 6.83574C71.4953 7.19021 71.3533 7.46985 71.2114 7.64709C70.9274 8.00156 70.3989 8.2812 69.906 8.2812C69.764 8.2812 69.6575 8.2812 69.5156 8.21031C69.4801 8.17486 69.4446 8.13941 69.3736 8.10397C69.1606 8.03307 68.9832 8.10397 68.9161 8.31665C68.6677 8.74202 67.8198 9.16345 67.1493 9.37613C66.7944 9.44703 66.3369 9.44703 65.915 9.37613C65.28 9.23435 64.8186 8.91926 64.6806 8.56478C64.6096 8.3521 64.6451 8.17486 64.7161 7.93067C64.7516 7.82433 64.7871 7.71799 64.8581 7.61164C64.929 7.43441 65 7.25717 65.0355 7.08387C65.1065 6.83574 65.1065 6.4852 65.1065 6.09528V5.8826C65.1065 5.49268 65.1065 4.75222 65.3195 4.43713C65.4259 4.2599 65.5679 4.08266 65.7414 3.94481C66.5183 3.34614 67.6502 3.09801 68.8136 3.34614L68.8096 3.33826ZM73.0136 13.8149C73.0136 13.8504 73.1201 14.0276 73.1556 14.7681C73.1911 15.3313 73.1911 15.9339 73.1911 16.3553C73.2266 17.1667 73.2621 18.0135 73.2621 18.8603C73.2621 19.2148 73.2621 19.5653 73.2976 19.9198C73.2621 19.8843 73.2621 19.8134 73.2266 19.778C72.6981 18.7894 72.2722 17.978 71.7792 17.7338C71.5308 17.5921 71.3218 17.5566 70.8959 17.6629C70.8604 17.6629 70.7894 17.6629 70.7539 17.6984C70.5764 17.7338 70.3635 17.8047 70.1189 17.9111C69.7995 18.0174 69.3775 18.1592 68.9161 18.301C69.0936 18.1592 69.271 18.0174 69.4801 17.8441C70.8209 16.7846 72.4457 15.481 72.5522 13.9292V13.8583C72.5522 13.7165 72.5522 13.5747 72.5167 13.4329C72.4812 13.2202 72.3038 13.0784 72.0947 13.1139C72.0238 13.1139 71.9883 13.1493 71.9173 13.1848C71.8818 13.2202 71.8463 13.2557 71.8108 13.3265C71.2823 13.0075 71.2114 12.7988 70.9629 12.0583C71.1759 12.1647 71.3849 12.3065 71.5623 12.4128C72.1618 12.7673 72.7297 13.2241 73.0097 13.8228L73.0136 13.8149ZM75.2734 15.8591C76.6852 16.4932 78.1365 17.1273 79.4419 18.045C80.2897 18.5373 81.0667 19.1399 81.7726 19.8449C81.95 19.9867 82.1275 20.1285 82.301 20.2703C82.514 20.4475 82.7585 20.6248 82.9715 20.7981C83.6419 21.3967 84.3123 22.1017 85.0222 22.984C85.2351 23.1967 85.4442 23.3739 85.6216 23.5472C85.7991 23.689 85.9766 23.8662 86.1146 24.0041C86.2526 24.1419 86.363 24.3231 86.505 24.4964C86.647 24.7091 86.8245 24.9533 86.998 25.1305C87.1715 25.3078 87.3884 25.485 87.5619 25.6229C87.7354 25.7607 87.9169 25.9064 88.0904 26.0797L88.2678 26.2924C89.6442 27.7733 91.2335 29.4669 93.0713 30.3846C93.2842 30.491 93.4932 30.5973 93.7062 30.6682C94.4121 31.0936 95.118 31.4087 95.824 31.7277C96.5299 32.0467 97.2003 32.3263 97.8392 32.7163C99.5705 33.8821 101.089 35.1503 102.572 36.6312C103.313 37.3008 104.054 38.0767 104.725 38.8881C104.938 39.1007 105.115 39.278 105.289 39.4158C105.076 39.5222 104.831 39.6285 104.618 39.7703C104.125 40.0539 103.664 40.4753 103.207 40.9361C102.465 41.712 101.83 42.7006 101.617 43.7601C101.617 43.7955 101.582 43.831 101.582 43.8664C100.876 43.2678 99.9925 42.4564 99.5665 41.9956C99.4956 41.9602 99.4246 41.8893 99.3536 41.8184C99.0341 41.5702 98.6122 41.2552 98.1862 40.9361C97.7958 40.6525 97.4448 40.4084 97.1254 40.1602C96.455 39.6679 95.7136 39.2071 95.0076 38.7857C94.9011 38.7148 94.7947 38.6439 94.6882 38.573C94.6882 38.573 94.6527 38.573 94.6527 38.5375L94.5817 38.5021C94.0178 38.0452 93.7338 37.7262 93.4144 37.3717C93.1304 37.0527 92.8504 36.7021 92.318 36.2768C91.7541 35.749 91.1152 35.1818 90.5158 34.6186L89.8098 33.9845C89.5969 33.7718 89.3879 33.5946 89.2459 33.4567C89.4234 33.5276 89.5653 33.5985 89.7388 33.7049C89.8453 33.7403 89.9518 33.8112 90.0583 33.8466C90.2712 33.953 90.4487 34.0239 90.6577 34.1302C90.7287 34.1657 90.7642 34.1657 90.8352 34.1657C90.9772 34.1657 91.1191 34.0948 91.1546 33.953C91.2611 33.7758 91.1901 33.5276 91.0127 33.4607C90.4487 33.1416 89.8808 32.8974 89.2459 32.6139L88.3625 32.1885C87.905 31.9758 87.4081 31.7316 86.9152 31.448C86.7377 31.3771 86.5957 31.2708 86.4222 31.1999C86.1028 31.0227 85.7873 30.8809 85.4678 30.7076C85.1484 30.5658 84.8329 30.424 84.5134 30.2822C84.478 30.2822 84.4425 30.2468 84.4425 30.2468C84.407 30.2468 84.336 30.2113 84.3005 30.2113C84.194 30.1404 84.0875 30.0695 83.981 30.0341C83.4526 29.6796 82.8847 29.3645 82.3562 29.0455C82.2143 28.9392 82.0368 28.8683 81.8988 28.7619C81.5438 28.5847 81.1219 28.372 80.6959 28.1278C80.3055 27.9151 79.919 27.7024 79.5641 27.4582C80.7669 27.7064 82.0368 28.0569 83.4486 28.5177C84.616 28.7659 85.4284 28.9746 86.3118 29.1873H86.4183C86.4892 29.1873 86.5247 29.1518 86.5957 29.1164C86.7022 29.0809 86.7732 29.01 86.8087 28.9037C86.8797 28.691 86.7377 28.4783 86.5247 28.4468C85.8543 28.2696 85.2194 28.0924 84.474 27.9545C84.2256 27.8836 83.9456 27.8482 83.6616 27.7773C81.9658 27.2495 80.4475 26.8596 79.0711 26.576C78.8227 26.5405 78.6137 26.5051 78.4007 26.4342C78.5427 26.1506 78.6847 25.9064 78.7911 25.7292L79.0396 25.3747C79.6035 24.5279 80.3095 23.5039 80.345 22.728C80.3095 22.2357 80.0255 22.0584 79.8875 22.023C79.288 21.8103 78.5466 22.5507 78.3692 22.7989C77.9787 23.2242 77.6632 23.8584 77.4858 24.4925C77.0953 25.6583 76.8508 26.7138 76.7799 27.8088C76.3224 28.6201 76.1449 29.2188 76.1449 29.7505V29.9277C76.1804 30.0341 76.2514 30.1759 76.3579 30.2822C76.5353 30.5303 76.7799 30.7391 77.0993 31.0227C77.4187 31.3063 77.9472 31.7631 77.9472 31.9758C77.9827 32.2948 77.9472 32.4327 77.9117 32.6454C77.8762 32.7872 77.8407 32.9999 77.8407 33.2795C77.8052 33.8073 77.9472 33.9845 78.1601 34.2326C78.2311 34.3035 78.3376 34.4099 78.4441 34.6226C78.5151 34.7289 78.5861 34.7998 78.6571 34.9061C77.8801 34.658 77.1032 34.5162 76.4683 34.5517C76.3618 34.5517 76.2553 34.5871 76.1489 34.6226C76.0069 34.658 75.8649 34.7998 75.8649 34.9416C75.8649 35.0834 75.8294 35.2961 75.8294 35.4694C75.7939 36.3516 75.8294 37.5135 76.2199 38.6439C76.2553 38.7502 76.3618 39.1362 76.1844 39.8766C75.5139 42.5234 73.7117 45.2056 71.3809 47.0725C70.3201 47.8129 69.0147 48.0965 67.7409 48.3407L67.3505 48.4116C66.4316 48.6952 65.4062 48.7306 64.4558 48.6952H64.2073C63.9589 48.6952 63.7499 48.6597 63.5014 48.6597V48.1319C63.4659 47.6396 63.3949 47.3206 63.182 46.7219C62.969 46.2296 62.4761 44.7448 62.2986 43.9688C62.0146 42.9094 61.8766 41.8538 61.9437 41.1094L61.9082 40.6171C61.8017 39.3489 61.6952 37.864 61.2732 36.7376C61.0958 36.3831 61.0603 35.8199 61.1313 35.1503C61.1667 34.8667 61.2377 34.5871 61.3087 34.3035C61.4862 33.5631 61.6992 32.7872 61.3797 31.9049C61.5217 31.9758 61.6637 32.0467 61.7701 32.1176C61.9121 32.1885 62.0541 32.2948 62.1921 32.3657L62.2986 32.4012C63.0045 32.7202 63.7104 33.0353 64.4519 33.3189C64.7713 33.953 65.0513 34.4493 65.3707 34.9061C65.4772 35.0479 65.5837 35.1897 65.6902 35.3315C65.7612 35.686 65.7967 36.0011 65.8676 36.3201C65.6902 36.3201 65.5127 36.3201 65.1617 36.3555C64.8107 36.391 64.6333 36.4264 64.4913 36.4619C64.3138 36.4973 64.1719 36.4973 63.8209 36.5682C63.6434 36.6037 63.4659 36.71 63.3634 36.8518C63.2609 36.9936 63.2214 37.2063 63.2569 37.3796C63.3634 37.8364 63.4699 38.0491 63.5409 38.2618C63.6118 38.4745 63.6828 38.6517 63.7893 39.0732C63.8958 39.4985 63.9313 39.7073 64.0023 39.92C64.0378 40.1327 64.1088 40.3768 64.2152 40.8022C64.2862 41.1567 64.5702 41.4009 64.8857 41.4009H64.9566C65.2761 41.3654 65.4496 41.3654 65.6271 41.33C65.8045 41.33 65.982 41.2945 66.2975 41.2591C67.3229 41.1527 68.0288 41.0464 69.0187 40.8692C69.3381 40.8337 69.5116 40.8337 69.6536 40.8337C69.8311 40.8337 70.0085 40.8337 70.395 40.7983C70.5725 40.7628 70.7499 40.6565 70.8525 40.5147C70.888 40.4792 70.888 40.4438 70.888 40.4084C70.959 40.2666 70.9944 40.0893 70.959 39.9515C70.8525 39.5261 70.7815 39.2819 70.7105 39.0692C70.6395 38.8565 70.604 38.6439 70.462 38.2224C70.3556 37.7656 70.2846 37.5529 70.2136 37.3402C70.1426 37.1275 70.0716 36.9148 69.9651 36.4934C69.9651 36.4225 69.9296 36.387 69.8942 36.3516C69.7522 36.1035 69.5037 35.9262 69.2237 35.9617C68.9043 35.9971 68.7308 35.9971 68.5533 36.0326C68.3758 36.0326 68.1984 36.068 67.8474 36.1035C67.4964 36.1389 67.3189 36.1744 67.1415 36.2098C66.9995 36.2453 66.8575 36.2807 66.613 36.3162C66.542 35.9617 66.471 35.5757 66.4 35.2212V35.1149C66.3291 34.725 66.2936 34.4099 66.2581 34.0908C66.8575 34.3035 67.4254 34.5162 67.9539 34.6895H68.0603C68.2378 34.6895 68.3798 34.5832 68.4153 34.4414C68.4863 34.2287 68.3798 34.016 68.1668 33.9845C67.5319 33.7718 66.8615 33.5591 66.1516 33.2795V32.539C66.5065 32.7163 66.8575 32.8581 67.2479 33.0314C67.7764 33.244 68.3443 33.4567 68.9082 33.63C69.8981 33.9845 70.888 34.335 71.8029 34.725C71.8384 34.7604 71.9094 34.7604 71.9449 34.7604C72.0868 34.7604 72.2288 34.6895 72.2998 34.5123C72.3708 34.335 72.2998 34.0869 72.0868 34.0199C71.1325 33.63 70.1426 33.2795 69.1567 32.8896C68.5927 32.6769 68.0603 32.4996 67.5319 32.2909C67.0744 32.0782 66.613 31.8655 66.1555 31.6568V31.1999C66.1555 30.9163 66.1555 30.6367 66.191 30.3531C66.262 29.0494 66.404 27.6355 66.826 26.2964C67.3544 24.9572 68.0603 23.5787 68.8412 22.275C69.0187 21.9915 69.1961 21.7118 69.3696 21.4282C70.0401 20.4042 70.7815 19.3132 71.1364 18.2537C71.2429 18.2537 71.2784 18.2537 71.3494 18.2892C71.6688 18.4664 72.1973 19.4196 72.4812 20.0182C72.5877 20.2664 72.7297 20.4751 72.8007 20.6169C72.9071 20.7941 73.1201 20.9005 73.3291 20.9005C73.4001 20.9005 73.4356 20.9005 73.5066 20.865C73.7905 20.7941 73.9641 20.546 73.9641 20.2664C73.9286 19.774 73.9286 19.2423 73.9286 18.7146C73.8931 17.8678 73.8931 16.9855 73.8576 16.2096V15.1147C74.3505 15.4337 74.8119 15.6424 75.2694 15.8551L75.2734 15.8591ZM109.927 44.1185C110.349 44.1894 110.81 44.2603 111.303 44.3312C111.445 44.3666 111.587 44.3666 111.725 44.4021C111.76 44.4021 111.796 44.4021 111.867 44.4375C111.831 44.473 111.796 44.5439 111.796 44.6148C111.76 44.8275 111.867 45.0047 112.08 45.0717C112.293 45.1071 112.47 45.1425 112.644 45.178H112.608C111.973 45.1071 111.374 45.0362 110.877 45.1426C110.029 45.2134 109.852 45.2489 109.146 45.4261C109.11 45.4261 109.075 45.4616 109.039 45.4616H109.004C108.404 45.6388 106.989 45.4616 106.354 45.178C106.212 45.1071 106.105 45.1426 105.999 45.2134C106.247 44.5439 106.705 43.8743 107.233 43.3781C107.655 43.5553 108.116 43.6971 108.574 43.8349C108.964 43.9413 109.386 44.0476 109.844 44.1185C109.879 44.0831 109.915 44.0831 109.915 44.1185H109.927ZM114.766 44.0831H114.837C114.482 44.1894 114.131 44.3312 113.776 44.4375C113.705 44.473 113.669 44.5084 113.598 44.5439C113.456 44.5084 113.314 44.5084 113.141 44.473C113.598 44.3666 114.166 44.2249 114.766 44.087V44.0831ZM115.649 46.4817C115.542 46.5526 115.471 46.6235 115.471 46.7653C115.471 46.8361 115.471 46.9425 115.542 47.0134C114.943 47.0488 114.166 47.0488 113.705 46.907C113.247 46.8007 112.786 46.6589 112.435 46.588H112.257C112.009 46.6589 111.902 46.7298 111.835 46.8361C111.8 46.8716 111.764 46.8716 111.729 46.907C111.658 46.9425 111.622 46.9779 111.551 47.0488C111.48 47.1197 111.48 47.2261 111.48 47.3324C111.374 47.2615 111.232 47.2261 111.058 47.1552C110.495 46.9425 109.927 46.907 109.398 46.907C109.15 46.907 108.87 46.8716 108.621 46.8361C108.408 46.8007 108.093 46.7298 107.738 46.588C107.702 46.588 107.667 46.5526 107.667 46.5526C107.383 46.4462 107.067 46.3399 106.748 46.1981C106.713 46.1626 106.677 46.1626 106.642 46.1626C106.287 46.0209 106.042 45.8791 105.829 45.7727C105.829 45.7018 105.865 45.6664 105.865 45.5955C105.9 45.6664 105.971 45.7727 106.042 45.8082C106.5 46.0209 107.347 46.1981 108.124 46.2335H108.337C108.657 46.2335 108.972 46.1981 109.221 46.1272C109.962 45.9145 110.069 45.9145 111.023 45.8082C111.413 45.7373 111.942 45.7727 112.506 45.8436C112.999 45.9145 113.496 45.95 113.953 45.9145C114.166 45.9854 114.344 46.0918 114.517 46.1626C114.659 46.2335 114.801 46.3044 114.908 46.3399C115.191 46.4108 115.436 46.4462 115.649 46.4817ZM105.758 46.9385C105.758 46.8677 105.723 46.7259 105.723 46.6195C105.794 46.655 105.9 46.6904 105.971 46.7259C105.9 46.7968 105.829 46.8677 105.758 46.9385ZM108.515 42.9172L108.479 42.9527C108.302 42.8818 108.124 42.8463 107.986 42.7755C108.235 42.6337 108.408 42.5982 108.586 42.6337H108.657C108.621 42.7046 108.55 42.8109 108.515 42.9172ZM106.925 42.6337C106.854 42.7046 106.784 42.74 106.748 42.8109C106.5 43.059 106.255 43.3032 106.042 43.5868C105.514 44.3273 105.123 45.1741 105.052 45.9854C105.017 46.1981 105.017 46.4108 105.017 46.6195V47.0055C104.488 46.6865 103.569 45.7727 103.179 45.3828L103.072 45.2765C102.895 45.0992 102.718 44.922 102.58 44.7487C102.509 44.6778 102.438 44.6069 102.367 44.536V44.3942C102.438 43.3347 103.037 42.2792 103.885 41.4324C104.275 41.0425 104.697 40.6919 105.119 40.4438C105.79 40.0184 106.003 40.0539 106.074 40.0893C106.109 40.0893 106.145 40.1248 106.18 40.1248C106.744 40.6525 107.521 41.393 108.089 41.9956C107.596 42.102 107.205 42.3855 106.922 42.6297L106.925 42.6337ZM77.8171 26.1231C77.9235 25.6977 78.0655 25.2408 78.2075 24.7839C78.314 24.3586 78.5624 23.7599 78.9134 23.3739C79.3038 22.9485 79.5838 22.8107 79.5838 22.7752V22.8461C79.5838 23.3739 78.8779 24.3625 78.4165 25.0321L78.1325 25.4574C78.0616 25.6701 77.9551 25.8789 77.8131 26.127L77.8171 26.1231ZM80.7472 38.2933V38.3642L80.6407 38.2579C80.5697 38.187 80.4633 38.1161 80.3923 38.0452C80.1793 37.868 79.9348 37.6553 79.7219 37.482C79.3314 37.1275 78.9449 36.8124 78.5545 36.4579C78.2706 36.2098 77.9906 35.9302 77.7066 35.682C77.6356 35.6111 77.5647 35.5402 77.4937 35.4694C77.5647 35.4694 77.6711 35.5048 77.7421 35.5402C78.0616 35.6111 78.4125 35.7175 78.732 35.8593C79.2249 36.0365 79.6509 36.2846 79.9664 36.4934C80.2148 36.777 80.3568 37.0212 80.4948 37.2693C80.6723 37.5883 80.7433 37.9389 80.7433 38.2933H80.7472ZM58.7414 7.21384C58.6349 7.14295 58.5994 7.07205 58.5284 7.00116C58.8124 6.96571 59.1988 6.93027 59.6248 6.89482V6.93027C59.6958 7.52893 59.5538 7.67072 58.7769 7.84796C58.8124 7.81251 58.8479 7.77706 58.8833 7.74162C58.9898 7.52893 58.9188 7.31625 58.7414 7.21384ZM50.6883 10.8492C50.7593 10.8137 50.8658 10.7783 50.9368 10.7428C52.2067 10.2505 53.4095 9.75424 54.7149 9.4037C54.9278 9.33281 55.1723 9.29736 55.4208 9.26192C56.2332 9.08468 57.2585 8.87199 58.1419 8.73414C58.2839 8.6987 58.4614 8.66325 58.5994 8.6278C59.5538 8.41512 60.5082 8.20243 60.3662 6.82786H60.4017C60.7921 6.82786 61.0366 6.72152 61.2851 6.61518H61.356C61.6045 6.50884 61.8845 6.40249 62.3459 6.3316C62.6299 6.29615 62.9099 6.29615 63.1938 6.3316C63.1583 6.47339 63.1583 6.61518 63.1938 6.78848C63.3003 7.52893 63.4778 7.74162 63.9707 8.0567C63.9352 8.26939 63.8997 8.54903 64.0062 8.86806C64.2192 9.43128 64.7476 9.85664 65.4536 10.1008C65.4181 10.3844 65.3826 10.6641 65.3116 10.9476C64.8896 11.0185 64.3927 11.0894 63.8997 11.1603C62.8389 11.3021 61.7465 11.4793 60.9696 11.6526H60.5791C60.0862 11.6526 59.6603 11.6526 59.4828 11.9362C59.3763 12.078 59.4118 12.2907 59.5183 12.464C59.5893 12.5703 59.6958 12.6767 59.8022 12.8185C59.8732 12.8894 59.9442 12.9957 59.9797 13.0666V13.102C58.9898 12.9248 57.9645 12.7121 56.8721 12.4679C56.6591 12.4325 56.4501 12.397 56.2016 12.397C55.9532 12.3616 55.7442 12.3616 55.5312 12.3261C55.3182 12.2907 55.0737 12.1844 54.8608 12.1135C54.6123 12.0426 54.3678 11.9362 54.1194 11.8653C53.165 11.5463 52.0686 11.2312 51.1537 11.054C51.0117 11.0185 50.8698 10.9476 50.6962 10.9122V10.8413L50.6883 10.8492ZM64.3217 6.96965C64.2862 7.07599 64.2507 7.18234 64.2152 7.28868C64.0378 7.14689 64.0023 7.04055 63.9313 6.65456V6.44188C64.0733 6.47733 64.2152 6.51277 64.3217 6.54822H64.3572C64.3572 6.69001 64.3572 6.86725 64.3217 6.97359V6.96965ZM64.3927 5.41784H64.3217C64.1088 5.3115 63.8642 5.24061 63.5803 5.16971C63.5093 5.13426 63.4383 5.13426 63.3673 5.13426C63.4028 5.13426 63.4028 5.09882 63.4383 5.09882C63.6513 5.06337 64.0378 4.92158 64.4992 4.7089C64.4282 4.92158 64.3927 5.13426 64.3927 5.41391V5.41784ZM61.1431 13.425C61.0721 13.3187 61.0011 13.2123 60.8946 13.106C60.7882 12.9288 60.6462 12.787 60.5397 12.6137C60.4687 12.5073 60.3977 12.4364 60.3622 12.3655H60.9262C60.9972 12.3655 61.0682 12.3655 61.1391 12.3301C61.6676 12.1883 62.409 12.082 63.1899 11.9756C63.4738 11.9402 63.7183 11.9047 64.0023 11.8693C64.3572 11.8338 64.7082 11.7629 65.0631 11.7275C65.0276 11.7629 65.0276 11.8338 64.9921 11.8693C64.6372 12.7515 64.1088 13.5629 63.5448 14.4097C63.1228 15.0438 62.6614 15.7133 62.2749 16.4892C62.133 16.7728 61.991 17.0525 61.853 17.336C61.853 17.3715 61.8175 17.4069 61.8175 17.4424C61.8175 17.4069 61.8175 17.3715 61.853 17.336C62.0659 16.4892 62.3104 15.5361 62.0304 14.8311C61.9239 14.4766 61.6084 14.0197 61.147 13.4211L61.1431 13.425ZM61.0721 21.2549C61.1076 21.6094 61.1431 21.96 61.1431 22.279L61.1786 22.7359C61.2141 22.9485 61.2851 23.1927 61.3206 23.4054C60.9656 23.7244 60.6856 24.075 60.4017 24.394C60.5791 23.4054 60.7921 22.279 61.0721 21.2549ZM60.2952 26.0167C60.5436 25.4889 60.9301 24.9572 61.427 24.4295C61.4625 24.394 61.498 24.3586 61.5335 24.2877C61.6045 24.5712 61.6755 24.8863 61.7465 25.1699C61.782 25.3117 61.8175 25.4889 61.853 25.6622C62.1369 27.2495 62.5589 28.8013 63.0873 30.3177H63.0518C62.5944 30.105 62.133 29.8923 61.711 29.6835C61.5335 29.5772 61.289 29.6481 61.218 29.8608C61.147 29.9671 61.1825 30.1089 61.218 30.2153C61.2535 30.2862 61.289 30.3216 61.36 30.357C61.431 30.3925 61.5375 30.4279 61.6084 30.4634C62.2079 30.7824 62.8428 31.0621 63.4462 31.3456L63.8011 32.157C63.8366 32.2633 63.8721 32.3342 63.9076 32.4406C63.4502 32.2279 62.9887 32.0506 62.4958 31.8419C61.9318 31.4874 61.3639 31.1723 60.7645 30.8533C60.6935 30.747 60.658 30.6052 60.587 30.4988C60.4096 30.1444 60.2676 29.7938 60.1651 29.4748C59.7076 28.309 59.7431 27.1825 60.307 26.0167H60.2952ZM67.2913 19.6677C68.0327 19.3841 69.0226 19.0336 69.764 18.7854C69.9415 18.7146 70.1189 18.6791 70.257 18.6082C69.902 19.4196 69.3381 20.2664 68.8096 21.0777C68.6322 21.3613 68.4192 21.6409 68.2457 21.9245C67.4333 23.2636 66.7274 24.6776 66.1634 26.0876C65.706 27.5331 65.5285 29.0494 65.493 30.4279C65.493 30.6406 65.493 30.8533 65.4575 31.0621V31.4165C65.0671 31.2393 64.6451 31.0266 64.2547 30.8533L64.0772 30.7824C64.0417 30.7115 64.0062 30.6406 64.0062 30.5697C64.0062 30.5343 63.9707 30.4988 63.9707 30.4634C63.3713 28.8761 62.9099 27.218 62.6299 25.5244C62.5589 25.1699 62.4524 24.8548 62.3814 24.5004C62.3104 24.2522 62.2394 23.9726 62.2039 23.7245C62.7324 23.2676 63.3003 22.7713 63.9707 22.3144L64.3611 21.9954C65.28 21.2195 66.5499 20.2309 67.2913 19.6677ZM69.622 40.1642C69.4446 40.1642 69.2671 40.1642 68.8806 40.1996C67.8908 40.3768 67.2203 40.4832 66.195 40.5895C65.8755 40.625 65.702 40.625 65.5245 40.6604C65.4535 40.6604 65.3471 40.6604 65.2761 40.6959C65.1696 40.6959 65.0631 40.7313 64.9212 40.7313C64.8147 40.306 64.7792 40.0972 64.7082 39.8845C64.6727 39.6718 64.6017 39.4276 64.4952 39.0023C64.3888 38.5454 64.2823 38.3327 64.2113 38.12C64.1403 37.9428 64.0693 37.7656 63.9983 37.415C64.2113 37.3796 64.3178 37.3796 64.4558 37.3441C64.4913 37.3441 64.5623 37.3441 64.5978 37.3087C64.7752 37.2732 64.9172 37.2732 65.2682 37.2023C65.6902 37.1669 65.8676 37.1669 66.0806 37.1669C66.1516 37.2732 66.2581 37.3796 66.4 37.3796H66.5065C66.6485 37.3441 66.7195 37.2378 66.755 37.1314C67.0389 37.096 67.1769 37.0605 67.3544 37.0251C67.4964 36.9897 67.6739 36.9542 67.9893 36.9188C68.3088 36.8833 68.4823 36.8833 68.6598 36.8479C68.8372 36.8479 69.0147 36.8124 69.2947 36.7415C69.4012 37.1984 69.4722 37.4111 69.5432 37.6238C69.6142 37.8364 69.6851 38.0491 69.7916 38.4706C69.8981 38.8959 69.9691 39.1047 70.0401 39.3528C70.1111 39.5655 70.1466 39.7782 70.253 40.1642C69.8981 40.1642 69.7601 40.1642 69.6181 40.1642H69.622ZM65.4536 32.2279C65.4536 32.476 65.4181 32.7202 65.4536 33.0038C65.3471 32.9683 65.2761 32.9329 65.1696 32.8974L64.9921 32.8265C64.8502 32.5075 64.6727 32.157 64.5347 31.838V31.8025C64.8186 31.9443 65.1341 32.0861 65.4536 32.2239V32.2279ZM70.2215 12.2592C70.5054 13.2478 70.679 13.5983 71.7043 14.13C71.4559 15.2604 70.0795 16.3514 68.9477 17.2691C68.6282 17.5172 68.3127 17.7614 68.0643 17.9741C67.6423 18.3286 67.0744 18.8209 66.9679 18.9627C66.9324 18.9981 66.8969 18.9981 66.8615 19.0336C66.12 19.5968 64.8107 20.6208 63.8603 21.3613L63.4699 21.6449C62.9414 22.0348 62.4445 22.4208 61.987 22.8107C61.987 22.7398 61.9515 22.6689 61.9515 22.598L61.9161 22.1726C61.8806 21.7158 61.8451 21.2549 61.8096 20.7626C61.7741 20.3057 61.7386 19.8449 61.7386 19.3881C61.987 18.7894 62.3025 18.1868 62.5865 17.5881C62.7285 17.3045 62.8704 17.0249 62.9769 16.7413C63.0479 16.5995 63.1544 16.4223 63.2609 16.2844C63.3673 16.3908 63.4738 16.5326 63.5448 16.6389C63.7223 16.887 63.9352 17.1312 64.2152 17.5212C64.2862 17.6275 64.3927 17.6629 64.5347 17.6629C64.6057 17.6629 64.6766 17.6275 64.7476 17.5921C64.9251 17.4857 64.9606 17.2376 64.8541 17.0643C64.4992 16.5365 64.2547 16.2529 64.0062 15.9339C63.8997 15.7921 63.7933 15.6858 63.6868 15.544C63.8642 15.2604 64.0417 14.9808 64.2152 14.6972C64.8857 13.6731 65.4851 12.72 65.8755 11.5936C65.911 11.4872 65.982 11.3454 66.0175 11.2391C66.124 10.8492 66.195 10.4632 66.2305 10.0733C66.3724 10.0733 66.5144 10.1087 66.6524 10.1087C66.9364 10.1087 67.1809 10.0733 67.4293 10.0024C67.7843 9.89603 68.8767 9.4746 69.4446 8.83655C69.5156 8.87199 69.5865 8.87199 69.6575 8.87199C69.764 9.61245 69.906 10.4947 70.048 11.2352L70.2254 12.2592H70.2215ZM57.645 3.72031C57.574 3.93299 57.5031 4.17719 57.4676 4.42532C57.3611 4.88219 57.3256 5.62659 57.4321 6.29615C57.4676 6.47339 57.5031 6.61518 57.5385 6.78848C57.716 7.2808 57.996 7.63527 58.351 7.84796C58.3864 7.88341 58.4219 7.88341 58.4929 7.88341H58.4219C58.28 7.91885 58.1025 7.9543 57.9645 7.98975C57.0811 8.13154 56.0202 8.34422 55.2078 8.51752C54.9949 8.55297 54.8174 8.58842 54.6439 8.65931C54.2219 8.48207 53.9025 8.09609 53.6185 7.49348C53.512 7.2808 53.441 7.06812 53.3701 6.82392C53.1926 5.90623 53.2636 4.8113 53.654 4.56711C53.6895 4.56711 53.6895 4.53166 53.725 4.49621C53.9379 4.46076 54.147 4.42532 54.3599 4.35442C54.7504 4.24808 55.1723 4.14174 55.5943 4.07084C56.1583 3.9645 56.7261 3.85816 57.1836 3.78726C57.3611 3.75182 57.5031 3.71637 57.6411 3.71637L57.645 3.72031ZM47.0838 11.3769C46.6263 11.5542 46.1649 11.696 45.7429 11.7669C45.25 11.8732 44.9305 11.8732 44.7531 11.8023C44.8951 11.7314 45.1435 11.6251 45.53 11.5542C46.0229 11.4833 46.5553 11.4478 47.0838 11.3769ZM89.8256 63.9769C89.9676 64.2605 90.145 64.5756 90.2831 64.9655C90.705 65.7414 91.0955 66.6237 91.3794 67.5414C91.4859 67.7895 91.5924 68.0337 91.6989 68.2464C91.8053 68.4591 91.9118 68.6363 91.9473 68.8096C92.1603 69.4083 92.2313 69.9045 92.2313 70.1133C92.2313 70.2905 92.1248 70.5032 91.9118 70.7119C91.5569 71.0664 90.9929 71.2397 90.5355 71.1688C90.358 71.1688 90.216 71.0979 90.0425 71.027C89.5495 70.8143 89.0526 70.3575 88.6307 69.9321C88.4887 69.7903 88.3467 69.6485 88.2087 69.5422C88.1022 69.4713 88.0312 69.4004 87.9247 69.294C88.0312 68.975 88.1022 68.6245 88.2087 68.27C88.3862 67.246 88.5991 66.2928 88.8436 65.3082C88.9501 64.6032 89.0921 63.8627 89.2656 63.1223C89.4076 63.3349 89.5495 63.5476 89.6876 63.7918C89.7586 63.8627 89.7941 63.8982 89.8295 63.9691L89.8256 63.9769ZM99.1525 105.537C99.2234 105.714 99.3299 105.856 99.4009 106.029C99.5784 106.384 99.7558 106.699 99.9294 107.018C100.071 107.372 100.249 107.758 100.422 108.184C100.706 108.853 101.022 109.558 101.306 110.196C101.448 110.551 101.625 110.831 101.728 111.079C101.763 111.15 101.799 111.185 101.87 111.22C101.941 111.256 101.976 111.256 102.047 111.256C102.118 111.256 102.154 111.256 102.225 111.22C102.402 111.114 102.473 110.901 102.402 110.728C102.331 110.622 102.26 110.48 102.189 110.338C102.367 110.338 102.402 110.374 102.544 110.515C102.58 110.586 102.615 110.657 102.615 110.799C102.651 111.012 102.686 111.327 102.97 111.681C103.254 112.071 103.711 112.138 104.204 112.244C104.559 112.315 104.91 112.386 105.159 112.599C105.549 112.918 106.113 113.304 106.677 113.729C107.489 114.293 108.373 114.895 108.937 115.458C109.82 116.27 110.104 116.797 110.562 117.751C110.633 117.928 110.704 118.07 110.775 118.243C110.846 118.42 110.881 118.597 110.917 118.771C111.271 120.252 110.81 121.839 110.282 123.32L110.14 123.777C109.856 124.694 109.647 125.328 110.104 126.565C110.14 126.707 110.211 126.884 110.317 127.058L110.424 127.27C110.53 127.483 110.637 127.66 110.743 127.904C110.814 128.082 110.885 128.294 110.956 128.503C111.027 128.751 111.133 129.031 111.24 129.279C111.346 129.527 111.488 129.736 111.63 129.948C112.265 131.043 112.727 131.855 112.194 133.052C111.666 134.427 110.924 135.805 110.076 137.002C109.193 138.696 107.923 140.705 105.908 141.095C105.344 141.272 104.847 141.414 104.425 141.449C104.07 141.485 103.719 141.449 103.4 141.449C103.151 141.449 102.942 141.414 102.765 141.449C102.552 141.485 102.41 141.449 102.272 141.414C102.059 141.343 101.917 141.236 101.85 141.13C101.321 140.496 101.321 139.507 101.392 138.732C101.392 137.499 101.921 136.156 102.418 134.994L102.631 134.501C103.23 133.091 103.301 132.914 103.021 131.433C102.986 131.221 102.986 131.043 102.986 130.835C102.986 130.551 102.95 130.271 102.915 130.023C102.879 129.775 102.879 129.598 102.879 129.46C102.879 129.141 102.844 128.932 102.56 128.471C102.347 128.117 102.102 127.944 101.925 127.837C101.747 127.696 101.641 127.66 101.57 127.345C101.499 127.061 101.605 126.817 101.712 126.569C101.818 126.321 101.96 126.077 101.854 125.758C101.854 125.722 101.783 125.581 101.641 125.368C101.499 125.12 101.286 124.734 101.077 124.308C100.687 123.497 100.158 122.438 99.5587 121.484C99.2392 120.815 98.3913 118.979 98.1113 118.59C98.0403 118.483 97.9339 118.377 97.7919 118.271C97.6854 118.2 97.5789 118.093 97.437 117.987C97.0465 117.703 96.5536 117.353 96.5891 117.034C96.8375 115.833 96.66 115.588 96.1986 114.919C96.0566 114.742 95.9147 114.529 95.7057 114.214C95.5282 113.93 95.3152 113.651 95.1417 113.367C94.6488 112.662 94.1518 111.957 93.7299 111.216C93.6589 111.075 93.5879 110.933 93.4814 110.791C93.8718 110.543 94.2228 110.299 94.6488 110.051C96.5575 108.428 97.9693 106.734 98.8527 105.005C98.9237 105.147 99.0302 105.324 99.1012 105.498C99.1367 105.498 99.1367 105.533 99.1722 105.533L99.1525 105.537ZM112.364 121.729C112.541 122.083 112.719 122.434 112.963 122.824C113.105 123.001 113.141 123.178 113.105 123.316L112.999 123.67C112.821 124.269 112.644 125.045 112.435 125.577C112.364 125.718 112.257 125.825 112.186 125.931C111.622 125.155 111.197 124.415 110.952 123.745L110.987 123.603C111.342 122.65 111.622 121.697 111.764 120.709C111.871 120.957 112.013 121.201 112.155 121.449L112.368 121.733L112.364 121.729ZM110.846 126.384C110.846 126.349 110.81 126.313 110.81 126.278C110.562 125.644 110.562 125.218 110.633 124.797C110.881 125.254 111.161 125.75 111.516 126.242C111.338 126.313 111.126 126.349 110.846 126.384Z" fill="#454138"/>
<path d="M45.8849 108.361H44.4731C44.1181 108.361 43.9091 108.361 43.7317 108.396C43.5542 108.396 43.3767 108.432 43.0612 108.432C42.7457 108.432 42.5683 108.432 42.3908 108.396C42.2133 108.361 42.0004 108.361 41.6494 108.361C41.259 108.361 41.0854 108.396 40.8725 108.432C40.695 108.467 40.553 108.467 40.2375 108.467C39.922 108.467 39.7446 108.432 39.6026 108.432C39.4251 108.396 39.2122 108.361 38.8257 108.361C38.4708 108.361 38.2617 108.361 38.0843 108.396C37.9068 108.396 37.7293 108.432 37.4138 108.432C35.931 108.432 34.6572 108.432 33.1744 108.467H32.4684C32.291 108.467 32.1135 108.432 31.727 108.467C31.5496 108.467 31.3366 108.467 31.1276 108.432C30.5281 108.361 29.4673 108.255 29.2898 109.42C29.2898 109.633 29.3253 109.739 29.3608 109.846C29.3963 109.881 29.3963 109.917 29.3963 109.988C29.3963 110.551 29.8183 111.012 30.3507 111.012C31.447 110.976 32.1175 110.941 33.1783 110.976C33.5332 110.976 33.7068 110.976 33.9197 110.941C34.0972 110.941 34.2747 110.905 34.5902 110.905C34.9057 110.905 35.0831 110.941 35.2606 110.941C35.4381 110.976 35.651 110.976 36.002 110.976C37.0629 110.941 37.7688 110.941 38.8296 110.976C39.3936 110.941 39.9615 110.941 40.4899 110.941C41.3378 110.941 42.1857 110.941 43.0691 110.87C43.3886 110.87 43.5621 110.905 43.7395 110.905C43.917 110.941 44.13 110.941 44.481 110.941C44.8319 110.941 45.0094 110.941 45.2224 110.905C45.3998 110.905 45.5773 110.941 45.9283 110.87C46.9891 110.799 46.9537 109.881 46.9182 109.353C46.9182 108.861 46.4252 108.365 45.8928 108.365L45.8849 108.361ZM45.8849 110.125C45.53 110.125 45.3565 110.125 45.179 110.161C45.0015 110.161 44.8241 110.196 44.5086 110.196C44.1931 110.196 44.0156 110.161 43.8381 110.161C43.6607 110.125 43.4832 110.125 43.0612 110.125C42.1778 110.196 41.3654 110.196 40.5175 110.196C39.9891 110.196 39.4212 110.196 38.8572 110.232C38.3288 110.196 37.8674 110.196 37.4454 110.196C36.9879 110.196 36.562 110.196 36.0336 110.232C35.7141 110.232 35.5406 110.196 35.3631 110.196C35.1857 110.161 34.9727 110.161 34.6217 110.161C34.2707 110.161 34.0933 110.161 33.8803 110.196C33.7028 110.196 33.5254 110.232 33.2099 110.232C32.1845 110.196 31.4431 110.196 30.3467 110.267C30.2403 110.267 30.1693 110.125 30.1693 110.019C30.1693 109.806 30.1338 109.7 30.0983 109.594C30.0628 109.558 30.0628 109.523 30.0628 109.523C30.1338 109.204 30.2403 109.133 31.0527 109.204C31.3011 109.239 31.5456 109.275 31.7586 109.239H32.4645C32.642 109.239 32.8194 109.204 33.2059 109.239C34.6887 109.204 35.9626 109.204 37.4099 109.204C37.8003 109.204 37.9739 109.204 38.1513 109.168C38.3288 109.168 38.5063 109.133 38.8217 109.133C39.1372 109.133 39.3147 109.168 39.4922 109.168C39.6696 109.204 39.8826 109.239 40.2336 109.239C40.624 109.239 40.7975 109.204 41.0105 109.168C41.188 109.133 41.3299 109.133 41.6454 109.133C41.9609 109.133 42.1384 109.133 42.3159 109.168C42.4933 109.204 42.7063 109.204 43.0573 109.204C43.4083 109.204 43.6212 109.204 43.7987 109.168C43.9762 109.168 44.1536 109.133 44.4691 109.133H45.881C46.0229 109.133 46.1649 109.275 46.1649 109.417C46.1649 110.086 46.1294 110.122 45.881 110.122L45.8849 110.125Z" fill="#454138"/>
<path d="M29.4239 121.52C29.4239 121.13 29.4239 120.957 29.3884 120.779C29.3884 120.602 29.3529 120.425 29.3529 120.074V119.405C29.3529 118.842 29.3529 118.452 29.2465 118.204C29.069 117.747 28.6115 117.64 27.5507 117.605L26.9867 117.569C26.5963 117.569 26.4228 117.605 26.2098 117.64C26.0323 117.676 25.8904 117.676 25.5394 117.676C24.585 117.711 23.9146 117.676 22.9602 117.605H22.6763C21.6154 117.676 20.9095 117.676 19.8486 117.64C18.7878 117.64 18.0463 117.676 17.021 117.711C16.7015 117.711 16.528 117.676 16.3506 117.676C16.1731 117.64 15.9601 117.605 15.5737 117.605H14.0908C13.5979 117.676 13.3494 117.924 13.2429 118.239C13.101 118.629 13.1364 119.086 13.1719 119.44C13.2074 119.688 13.2074 119.897 13.2074 120.11C13.2429 121.205 13.2074 121.91 13.1364 123.036C13.3139 124.167 14.3038 124.025 14.9387 123.954C15.1517 123.918 15.3607 123.883 15.5737 123.918L16.2796 123.954C16.9855 123.989 17.5849 124.025 18.3973 124.025C18.7878 124.025 18.9613 123.989 19.1388 123.989C19.3162 123.954 19.4582 123.954 19.8092 123.954C20.7281 123.918 21.6469 123.954 22.5303 123.954C23.0943 123.954 23.6977 123.989 24.2971 123.989V123.954C24.2971 123.564 24.3326 123.462 24.3326 123.213C23.7332 123.213 23.1298 123.213 22.5658 123.178C21.6824 123.143 20.7636 123.143 19.8092 123.178C19.4188 123.178 19.2452 123.213 19.0678 123.213C18.8903 123.249 18.7483 123.249 18.3973 123.249C17.5849 123.249 16.9855 123.213 16.2796 123.178L15.5737 123.143C15.3252 123.107 15.0452 123.143 14.7967 123.178C13.9843 123.284 13.8779 123.213 13.8424 122.965C13.9134 121.906 13.9488 121.165 13.9134 120.106C13.9488 119.858 13.9134 119.578 13.8779 119.33C13.7714 118.483 13.8424 118.377 14.0908 118.341H15.5027C15.8221 118.341 15.9956 118.377 16.1376 118.377C16.3151 118.412 16.528 118.448 16.9145 118.448C17.9754 118.412 18.6813 118.377 19.7421 118.377C20.803 118.412 21.5089 118.412 22.5698 118.341H22.8182C23.7726 118.377 24.443 118.412 25.4329 118.412C25.8233 118.412 25.9968 118.377 26.2098 118.341C26.3873 118.306 26.5292 118.306 26.8447 118.306L27.3732 118.341C28.1041 118.365 28.4695 118.706 28.4695 119.365V120.07C28.4695 120.46 28.4695 120.634 28.505 120.811C28.505 120.988 28.5405 121.165 28.5405 121.48C28.505 121.693 28.5405 121.937 28.576 122.185H29.3529V122.15C29.4239 121.937 29.3884 121.729 29.4239 121.516V121.52Z" fill="#454138"/>
<path d="M14.5522 132.28H11.8311C10.9122 132.28 10.0288 132.28 9.03893 132.316C8.71949 132.316 8.54597 132.316 8.404 132.28C8.22653 132.245 8.04906 132.245 7.66258 132.245C7.2761 132.245 7.09863 132.28 6.92117 132.316C6.77919 132.351 6.60173 132.351 6.28623 132.351C6.10876 132.351 5.9313 132.316 5.72228 132.316C5.22932 132.245 4.66143 132.174 4.27495 132.528C4.06199 132.705 3.95551 133.021 3.95551 133.41C3.991 133.694 4.09748 133.938 4.27495 134.115C4.66537 134.434 5.19383 134.399 5.68679 134.328C5.89975 134.293 6.10876 134.293 6.28623 134.328C7.06314 134.328 7.66258 134.364 8.33695 134.399L10.4192 134.434C10.7742 134.434 10.9832 134.399 11.1606 134.364C11.3026 134.328 11.4801 134.328 11.7956 134.328C12.1111 134.328 12.2885 134.328 12.4305 134.364C12.608 134.364 12.7854 134.399 13.1719 134.399C13.5269 134.399 13.7004 134.399 13.8779 134.364C14.0553 134.364 14.1973 134.328 14.5483 134.328C15.1122 134.328 15.5381 133.903 15.5381 133.375C15.5381 133.34 15.5381 133.233 15.4672 133.127C15.3962 132.635 15.0097 132.28 14.5483 132.28H14.5522ZM14.5522 133.584C14.1973 133.584 14.0238 133.584 13.8463 133.619C13.6688 133.619 13.5269 133.655 13.1759 133.655C12.8564 133.655 12.6829 133.655 12.5409 133.619C12.3635 133.619 12.186 133.584 11.7995 133.584C11.413 133.584 11.2356 133.619 11.0581 133.655C10.9161 133.69 10.7387 133.69 10.4232 133.69H9.08231L8.41188 133.655C7.70596 133.619 7.10652 133.584 6.36116 133.584H6.1482C5.97074 133.584 5.82876 133.584 5.65524 133.619C5.3358 133.655 4.91382 133.69 4.80734 133.584C4.77185 133.548 4.73636 133.513 4.73636 133.442C4.73636 133.371 4.73636 133.194 4.80734 133.158C4.94932 133.052 5.3358 133.087 5.65524 133.158C5.90369 133.194 6.1482 133.229 6.32567 133.194C6.71609 133.194 6.88962 133.158 7.06708 133.123C7.20906 133.087 7.38652 133.087 7.70202 133.087C8.01752 133.087 8.19498 133.087 8.33695 133.123C8.51442 133.158 8.69189 133.158 9.07837 133.158C10.0327 133.087 10.9161 133.123 11.835 133.123H14.5562C14.6981 133.123 14.7336 133.3 14.7336 133.407C14.7336 133.442 14.7336 133.513 14.7691 133.584C14.7336 133.548 14.6272 133.584 14.5562 133.584H14.5522Z" fill="#454138"/>
<path d="M9.32683 103.528C9.39781 104.623 9.43331 105.328 9.43331 106.388C9.43331 106.951 9.82373 107.376 10.3522 107.376H11.7285C12.7539 107.341 13.6373 107.341 14.5917 107.305H18.7602C19.6435 107.341 20.314 107.376 21.2683 107.376C22.2582 107.341 22.9286 107.341 23.9895 107.412H25.3659C25.8943 107.412 26.3557 106.955 26.3557 106.423V104.978C26.3557 104.623 26.3557 104.45 26.3912 104.273C26.3912 104.096 26.4267 103.883 26.4267 103.532C26.4267 103.142 26.4267 102.969 26.3912 102.792C26.3912 102.615 26.3557 102.437 26.3557 102.087C26.3557 101.524 25.8982 101.063 25.3659 101.063C25.0109 101.063 24.8019 101.098 24.6244 101.134C24.4825 101.169 24.305 101.169 24.025 101.169C22.7906 101.063 21.5878 101.098 20.4205 101.098C19.821 101.098 19.1861 101.134 18.5117 101.098C17.4863 101.134 16.8514 101.134 15.826 101.134H14.4497C14.1303 101.134 13.9922 101.098 13.8148 101.098C13.6373 101.063 13.4243 101.027 13.0733 101.027C12.048 101.098 11.3776 101.098 10.3522 101.098C9.78824 101.098 9.32683 101.524 9.32683 102.051V103.532V103.528ZM10.3522 101.87C11.3776 101.87 12.048 101.835 13.0733 101.799C13.3928 101.799 13.5308 101.835 13.7083 101.835C13.8857 101.87 14.0632 101.906 14.4497 101.906H15.826C16.8514 101.941 17.5573 101.906 18.5472 101.87H20.4205C21.6233 101.835 22.7512 101.835 23.9895 101.941C24.3799 101.941 24.5534 101.906 24.7309 101.87C24.8729 101.835 25.0504 101.835 25.3659 101.835C25.4723 101.835 25.6143 101.977 25.6143 102.118C25.6143 102.508 25.6143 102.682 25.6498 102.859C25.6498 103.036 25.6853 103.213 25.6853 103.564C25.6853 103.914 25.6853 104.092 25.6498 104.269C25.6498 104.446 25.6143 104.659 25.6143 105.009V106.49C25.6143 106.632 25.5078 106.738 25.4013 106.738H24.0605C23.3901 106.703 22.8932 106.703 22.3292 106.703C22.0098 106.703 21.6588 106.703 21.3038 106.738C20.385 106.738 19.75 106.703 18.8666 106.667H14.6627C13.7083 106.667 12.7894 106.667 11.768 106.738H10.4271C10.2497 106.738 10.2497 106.526 10.2497 106.49C10.2497 105.395 10.2142 104.655 10.1432 103.595V102.15C10.1077 101.937 10.2497 101.866 10.3561 101.866L10.3522 101.87Z" fill="#454138"/>
<path d="M26.4228 99.0108C26.7422 99.0108 26.9157 99.0462 27.0577 99.0462C27.2352 99.0816 27.4126 99.0817 27.7991 99.0817C28.154 99.0817 28.3631 99.0462 28.5405 99.0462C28.718 99.0108 28.86 99.0108 29.1755 99.0108L29.9879 99.0462C30.6228 99.0816 31.1907 99.0816 31.9321 99.1171H32.2161C33.0994 99.0816 33.7344 99.0462 34.6888 99.0462H36.0651C36.3845 99.0462 36.5226 99.0817 36.7 99.0817C36.8775 99.1171 37.055 99.1525 37.4415 99.1525C38.0054 99.1171 38.5378 99.1171 39.0308 99.1171C39.8787 99.0816 40.6556 99.0816 41.5744 99.0462C41.7874 99.0462 41.9294 98.869 41.9294 98.6563C41.9294 98.4436 41.7164 98.3018 41.539 98.3018C40.6556 98.3373 39.8432 98.3727 39.0308 98.3727C38.5023 98.3727 37.9699 98.4081 37.4415 98.4081C37.122 98.4081 36.984 98.3727 36.8065 98.3727C36.6291 98.3373 36.4516 98.3018 36.0651 98.3018H34.6888C33.7344 98.3018 33.0994 98.3373 32.1806 98.3727H31.9321C31.1907 98.3727 30.6622 98.3373 30.0234 98.3018L29.1755 98.2664C28.8205 98.2664 28.6115 98.3018 28.434 98.3018C28.2566 98.3373 28.1146 98.3373 27.7991 98.3373C27.4836 98.3373 27.3061 98.3018 27.1642 98.3018C26.9867 98.2664 26.8092 98.2664 26.4228 98.2664C26.2098 98.2664 26.0323 98.4436 26.0323 98.6563C26.0678 98.8335 26.2453 99.0108 26.4228 99.0108Z" fill="#454138"/>
<path d="M66.3369 6.86325C65.982 7.21772 65.915 7.25317 65.7375 7.21772C65.5245 7.18228 65.3471 7.32407 65.3155 7.53675C65.284 7.74943 65.422 7.92667 65.635 7.96212H65.8479C66.3054 7.96212 66.5893 7.71399 66.9088 7.36345C67.0507 7.22166 67.0507 6.97353 66.9088 6.83568C66.6958 6.69389 66.4868 6.69389 66.3448 6.87113L66.3369 6.86325Z" fill="#454138"/>
<path d="M98.2375 114.923C98.273 115.1 98.415 115.242 98.6279 115.242H98.6989C99.4049 115.135 100.04 114.749 100.501 114.359C100.892 114.04 101.172 113.725 101.314 113.548C101.949 112.879 102.232 112.489 102.303 112.209C102.339 111.996 102.232 111.784 102.02 111.752C101.878 111.717 101.771 111.752 101.665 111.823C101.594 111.858 101.558 111.929 101.558 112C101.523 112.107 101.381 112.355 100.746 113.024C100.111 113.836 99.2629 114.363 98.557 114.505C98.344 114.541 98.202 114.718 98.2375 114.927V114.923Z" fill="#454138"/>
<path d="M99.1564 116.439C98.5925 116.581 98.0246 116.616 97.5671 116.581H97.4251C97.2122 116.545 97.0347 116.687 97.0031 116.9C96.9677 117.113 97.1096 117.29 97.3226 117.325H97.571C97.855 117.361 98.206 117.361 98.5254 117.29C99.1958 117.219 99.9373 117.042 100.608 116.727C100.998 116.585 101.349 116.478 101.669 116.337C101.14 116.864 100.572 117.396 99.9018 117.747C99.7598 117.818 99.6888 118.03 99.7243 118.172C99.7243 118.208 99.7243 118.243 99.7598 118.243C99.8308 118.349 99.9728 118.42 100.079 118.42C100.15 118.42 100.221 118.42 100.257 118.385C100.399 118.314 100.505 118.208 100.612 118.137C101.881 117.29 102.871 116.092 103.577 115.104C103.684 114.962 103.684 114.714 103.506 114.612C103.364 114.47 103.151 114.505 103.013 114.612C102.52 115.104 101.601 115.565 100.292 115.986C99.9728 116.234 99.5508 116.341 99.1604 116.443L99.1564 116.439Z" fill="#454138"/>
<path d="M103.289 132.666C103.325 132.843 103.502 132.95 103.644 132.95H103.751C103.964 132.879 104.173 132.843 104.386 132.772H104.457C105.624 132.56 107.142 132.772 108.483 133.336C108.519 133.371 108.59 133.371 108.625 133.371C108.767 133.371 108.909 133.3 108.98 133.158C109.051 132.981 108.98 132.733 108.767 132.666C108.31 132.489 107.848 132.347 107.391 132.209C108.487 132.138 109.544 132.245 110.427 132.772C110.605 132.879 110.849 132.808 110.956 132.631C111.062 132.453 110.991 132.205 110.814 132.103C108.732 130.937 106.117 131.469 103.818 132.138C103.711 132.174 103.64 132.174 103.534 132.209C103.356 132.28 103.214 132.493 103.285 132.666H103.289Z" fill="#454138"/>
<path d="M82.1985 47.7893C82.305 47.5412 82.2695 47.2615 82.1275 47.0489C82.021 46.8362 81.7371 46.592 81.2086 46.4856C81.1376 46.4502 81.0667 46.4502 80.9602 46.4147C79.0869 46.2021 76.5787 47.4742 75.2379 48.2501C75.0604 48.3565 74.9894 48.5692 75.0959 48.7779C75.2024 48.9551 75.4153 49.026 75.6243 48.9197C76.8272 48.2147 78.9804 47.1198 80.6052 47.1907H80.8892C81.2441 47.2261 81.4531 47.3679 81.5241 47.4742C81.5596 47.5097 81.5596 47.5451 81.5241 47.5806C81.4531 47.7578 81.1337 48.0375 80.6407 48.0729C80.3213 48.0729 80.0058 48.1083 79.6509 48.1438C78.6965 48.2856 77.6001 48.5337 76.3303 49.026C75.0959 49.4514 73.4001 50.0146 72.4457 51.212C72.3038 51.3892 72.3392 51.6019 72.5167 51.7397C72.5877 51.8106 72.6587 51.8106 72.7652 51.8106C72.8716 51.8106 72.9781 51.7752 73.0491 51.6688C73.8615 50.6448 75.4508 50.117 76.6182 49.7271C77.3241 49.479 77.9235 49.2702 78.4914 49.1284C79.3038 48.9158 80.0452 48.8094 80.6802 48.8094C81.3861 48.7385 82.021 48.3171 82.1985 47.7854V47.7893Z" fill="#454138"/>
<path d="M64.2547 50.5739C63.8327 50.3612 63.4068 50.184 63.0203 49.9752C62.3499 49.6562 61.7149 49.3766 61.1115 49.0221C60.9341 48.9157 60.7566 48.8094 60.5831 48.6676C60.4056 48.5613 60.2281 48.4549 60.0191 48.384C59.7707 48.2777 59.5617 48.1714 59.3842 48.0296C59.1712 47.8523 58.9622 47.6396 58.7493 47.3955C58.6428 47.2891 58.5718 47.1828 58.4653 47.0764C58.3233 46.9346 58.0749 46.8992 57.9369 47.0764C57.7949 47.2182 57.7594 47.4663 57.9369 47.6042C58.0433 47.7105 58.1143 47.8169 58.2208 47.9232C58.4338 48.1714 58.6783 48.451 58.9622 48.6637C59.2107 48.8764 59.4907 48.9827 59.7391 49.1206C59.9166 49.1915 60.0586 49.2623 60.1966 49.3687C60.516 49.6168 60.9025 49.7941 61.2574 50.0028C61.7504 50.2509 62.2473 50.4951 62.7403 50.7433C63.1307 50.9205 63.5527 51.0977 63.9431 51.3065C64.0141 51.3419 64.0496 51.3419 64.1206 51.3419C64.2625 51.3419 64.4045 51.271 64.4755 51.1292C64.5465 50.8811 64.4755 50.6369 64.2625 50.566L64.2547 50.5739Z" fill="#454138"/>
</svg>
