<svg width="41" height="41" viewBox="0 0 41 41" fill="none" xmlns="http://www.w3.org/2000/svg">
<path d="M29 20.625C29 20.6582 28.9668 20.6914 28.9668 20.7246C28.9668 21.9531 27.8711 22.75 26.6426 22.75H23.4219C22.5254 22.75 21.8281 23.4805 21.8281 24.3438C21.8281 24.4766 21.8281 24.5762 21.8613 24.6758C21.9277 25.041 22.0605 25.3398 22.1934 25.6719C22.3926 26.1367 22.625 26.6016 22.625 27.0664C22.625 28.1289 21.8945 29.0918 20.832 29.125C20.7324 29.125 20.5996 29.125 20.5 29.125C15.7852 29.125 12 25.3398 12 20.625C12 15.9434 15.7852 12.125 20.5 12.125C25.1816 12.125 29 15.9434 29 20.625ZM15.1875 20.625C14.5898 20.625 14.125 21.123 14.125 21.6875C14.125 22.2852 14.5898 22.75 15.1875 22.75C15.752 22.75 16.25 22.2852 16.25 21.6875C16.25 21.123 15.752 20.625 15.1875 20.625ZM16.25 18.5C16.8145 18.5 17.3125 18.0352 17.3125 17.4375C17.3125 16.873 16.8145 16.375 16.25 16.375C15.6523 16.375 15.1875 16.873 15.1875 17.4375C15.1875 18.0352 15.6523 18.5 16.25 18.5ZM20.5 14.25C19.9023 14.25 19.4375 14.748 19.4375 15.3125C19.4375 15.9102 19.9023 16.375 20.5 16.375C21.0645 16.375 21.5625 15.9102 21.5625 15.3125C21.5625 14.748 21.0645 14.25 20.5 14.25ZM24.75 18.5C25.3145 18.5 25.8125 18.0352 25.8125 17.4375C25.8125 16.873 25.3145 16.375 24.75 16.375C24.1523 16.375 23.6875 16.873 23.6875 17.4375C23.6875 18.0352 24.1523 18.5 24.75 18.5Z" fill="#463738"/>
<rect x="0.75" y="0.75" width="39.5" height="39.5" stroke="#383B45" stroke-opacity="0.4" stroke-width="1.5"/>
</svg>
