<svg width="17" height="18" viewBox="0 0 17 18" fill="none" xmlns="http://www.w3.org/2000/svg">
<path d="M17 8.625C17 8.6582 16.9668 8.69141 16.9668 8.72461C16.9668 9.95312 15.8711 10.75 14.6426 10.75H11.4219C10.5254 10.75 9.82812 11.4805 9.82812 12.3438C9.82812 12.4766 9.82812 12.5762 9.86133 12.6758C9.92773 13.041 10.0605 13.3398 10.1934 13.6719C10.3926 14.1367 10.625 14.6016 10.625 15.0664C10.625 16.1289 9.89453 17.0918 8.83203 17.125C8.73242 17.125 8.59961 17.125 8.5 17.125C3.78516 17.125 0 13.3398 0 8.625C0 3.94336 3.78516 0.125 8.5 0.125C13.1816 0.125 17 3.94336 17 8.625ZM3.1875 8.625C2.58984 8.625 2.125 9.12305 2.125 9.6875C2.125 10.2852 2.58984 10.75 3.1875 10.75C3.75195 10.75 4.25 10.2852 4.25 9.6875C4.25 9.12305 3.75195 8.625 3.1875 8.625ZM4.25 6.5C4.81445 6.5 5.3125 6.03516 5.3125 5.4375C5.3125 4.87305 4.81445 4.375 4.25 4.375C3.65234 4.375 3.1875 4.87305 3.1875 5.4375C3.1875 6.03516 3.65234 6.5 4.25 6.5ZM8.5 2.25C7.90234 2.25 7.4375 2.74805 7.4375 3.3125C7.4375 3.91016 7.90234 4.375 8.5 4.375C9.06445 4.375 9.5625 3.91016 9.5625 3.3125C9.5625 2.74805 9.06445 2.25 8.5 2.25ZM12.75 6.5C13.3145 6.5 13.8125 6.03516 13.8125 5.4375C13.8125 4.87305 13.3145 4.375 12.75 4.375C12.1523 4.375 11.6875 4.87305 11.6875 5.4375C11.6875 6.03516 12.1523 6.5 12.75 6.5Z" fill="#463738"/>
</svg>
