<svg width="180" height="180" viewBox="0 0 180 180" fill="none" xmlns="http://www.w3.org/2000/svg">
<path d="M61.4945 171.526C69.8853 171.982 68.4129 163.301 68.3097 157.356C67.7628 157.287 67.212 157.218 66.6307 157.114C66.5963 155.433 66.6996 153.682 67.0744 152.207C66.5045 152.33 65.9614 152.418 65.3266 152.517C60.9285 163.738 56.6757 164.458 46.4185 162.949C46.1164 163.903 44.556 166.113 44.8773 166.895C49.8032 168.948 55.8955 172.189 61.4907 171.526H61.4945Z" fill="#F5B731" fill-opacity="0.8"/>
<path d="M122.058 139.443C123.018 137.351 123.841 135.152 124.594 133.302C122.238 135.045 120.119 137.175 118.188 139.339C119.137 139.508 120.949 139.424 122.058 139.443Z" fill="#F5B731" fill-opacity="0.8"/>
<path d="M108.872 135.531C107.193 136.937 110.138 141.297 105.208 136.765C100.045 132.513 95.184 127.912 92.396 121.737C93.922 125.292 94.3197 129.092 93.4592 133.267C95.1687 135.11 98.0906 137.382 100.072 139.27C102.026 139.309 102.577 139.136 104.558 139.132C106.722 139.209 108.168 139.554 110.314 139.339C110.21 138.071 110.245 136.765 110.245 136.114C110.038 135.566 109.629 135.118 108.876 135.531H108.872Z" fill="#F5B731" fill-opacity="0.8"/>
<path d="M57.1079 152.893C56.4424 152.82 56.473 152.429 56.3889 151.625C56.3277 151.299 56.3659 150.866 56.3544 150.491C52.0443 151.269 47.3899 149.962 43.0301 149.633C41.0414 149.46 36.0084 148.982 33.0292 147.71C33.6717 152.816 42.1466 152.337 46.0476 153.096C50.1359 153.851 54.7291 154.521 58.5841 154.95C58.3087 154.402 58.106 153.682 57.9339 152.755C57.6242 152.824 57.3526 152.893 57.1117 152.893H57.1079Z" fill="#F5B731" fill-opacity="0.8"/>
<g opacity="0.8">
<path d="M107.227 88.2128C109.449 89.339 111.281 85.738 108.975 84.6769C106.711 83.5353 105.043 87.1669 107.227 88.2128Z" fill="#F5B731" fill-opacity="0.8"/>
<path d="M113.014 127.985C114.367 125.939 115.886 122.461 116.918 120.572C114.914 119.951 114.497 122.84 113.905 123.867C112.501 126.406 111.828 128.46 110.138 131.107C110.447 131.383 110.753 131.655 110.994 131.896C111.545 130.666 112.134 129.207 113.014 127.985Z" fill="#F5B731" fill-opacity="0.8"/>
<path d="M44.5713 164.562C46.2235 161.409 47.6309 157.842 48.8203 154.544C48.3843 154.479 47.9215 154.383 47.4856 154.337C46.8163 157.302 45.6192 160.083 44.1965 162.742L44.231 162.776C43.5655 164.248 42.923 165.864 42.5864 167.374C44.361 167.634 45.8908 169.059 47.6921 169.465C47.715 169.4 47.7533 169.346 47.7953 169.327C45.2062 168.274 42.4602 167.73 44.5752 164.558L44.5713 164.562Z" fill="#F5B731" fill-opacity="0.8"/>
<path d="M48.8203 169.641C48.7859 169.549 48.5679 169.523 48.4761 169.469C48.5793 169.538 48.6826 169.607 48.8203 169.641Z" fill="#F5B731" fill-opacity="0.8"/>
<path d="M46.4224 154.096C44.3916 153.824 42.1581 153.621 40.0508 153.134C42.3455 153.682 44.5713 154.061 46.9693 154.199C46.7972 154.165 46.6251 154.13 46.4224 154.096Z" fill="#F5B731" fill-opacity="0.8"/>
<path d="M65.9462 151.418C65.9462 151.395 65.9462 151.395 65.9462 151.418C65.8085 151.418 65.6708 151.452 65.5369 151.487C65.6746 151.452 65.8123 151.418 65.9462 151.418Z" fill="#F5B731" fill-opacity="0.8"/>
<path d="M89.9254 111.926C90.1702 113.975 90.5029 116.963 91.3978 119.166C91.3978 116.438 91.0536 112.313 90.1319 110.21C89.9943 110.382 89.8566 110.895 89.9254 111.926Z" fill="#F5B731" fill-opacity="0.8"/>
<path d="M60.5346 97.9584C60.6149 97.7363 60.5805 97.4183 60.7411 97.2382C61.8884 95.9741 61.6054 95.5182 63.0702 94.5605C62.6418 93.6181 61.2459 94.2004 60.7411 94.9053C60.6149 95.9358 60.4772 97.4566 60.263 98.1653C60.328 98.0772 60.4619 97.9814 60.5384 97.9584H60.5346Z" fill="#F5B731" fill-opacity="0.8"/>
<path d="M59.4025 97.5485C59.437 97.3762 59.5058 97.1386 59.5746 96.7939C58.7027 98.874 57.5974 100.253 55.8764 101.563C56.8707 100.843 58.2399 99.7781 59.3375 98.92C59.2687 98.1998 59.3031 97.9584 59.4064 97.5485H59.4025Z" fill="#F5B731" fill-opacity="0.8"/>
<path d="M77.4922 157.697C74.8227 157.647 71.9735 157.85 69.3384 157.455C69.2199 162.386 70.9562 169.684 65.1927 172.039C65.0895 172.177 64.9862 172.315 64.8141 172.449C68.4244 172.189 72.2259 172.622 75.8094 172.587C76.5437 170.798 77.8784 167.638 78.345 165.895C76.4596 166.056 71.8893 165.91 71.9391 164.213C72.2909 162.148 77.6834 162.409 79.9551 162.359C80.0239 162.221 80.0928 162.049 80.196 161.88C79.9895 160.474 79.8518 159.034 79.8174 157.727C78.9263 157.693 78.1729 157.727 77.4883 157.693L77.4922 157.697Z" fill="#F5B731" fill-opacity="0.8"/>
<path d="M86.3304 145.45C85.6765 142.791 85.9136 140.286 85.9212 137.696C85.8218 137.569 85.7606 137.324 85.8524 137.183C85.7606 128.368 84.1505 119.714 80.4408 111.619C80.1501 112.401 79.9474 113.09 79.6185 113.814C82.4104 122.771 85.0416 127.395 83.8331 136.907C83.7145 140.125 84.4832 143.389 85.099 146.342C85.2711 146.959 85.4088 147.61 85.577 148.231C85.6306 148.104 86.4222 146.231 86.4681 146.174C86.4222 145.94 86.3687 145.691 86.3304 145.453V145.45Z" fill="#F5B731" fill-opacity="0.8"/>
<path d="M77.3545 107.98C77.5572 105.375 76.7961 102.935 75.8132 100.74C75.3849 99.7743 75.5876 98.2649 74.6812 97.4796C74.2681 97.1003 73.5836 97.4106 73.6524 97.9929C74.2108 101.563 76.0312 104.689 77.3506 107.98H77.3545Z" fill="#F5B731" fill-opacity="0.8"/>
<path d="M57.1079 152.893C57.3144 152.893 57.6203 152.824 57.9645 152.72C57.9569 152.613 57.9186 152.567 57.9301 152.479C57.2761 152.621 56.4271 152.437 56.3889 151.621C56.4654 152.429 56.4577 152.816 57.1079 152.889V152.893Z" fill="#F5B731" fill-opacity="0.8"/>
<path d="M60.9476 120.606C62.2479 120.492 63.7433 120.606 64.9212 120.572C64.7835 120.331 64.6114 120.059 64.4776 119.783C62.5539 119.982 61.1312 119.971 59.1692 119.886C59.043 119.863 58.8365 120.028 58.8939 120.128C58.7983 120.921 60.0297 120.637 60.9476 120.606Z" fill="#F5B731" fill-opacity="0.8"/>
<path d="M86.5676 122.491C86.1507 119.346 86.0283 115.155 85.9174 112.163C84.1429 111.014 83.0032 109.987 81.3625 108.765C80.4523 107.854 83.0414 106.597 83.4851 105.816C81.8444 103.314 78.911 102.621 76.8726 100.805C76.8726 100.805 76.8726 100.839 76.8382 100.839C78.0849 103.62 79.3432 106.52 80.4676 109.279C80.8768 109.367 80.8959 109.765 80.8118 110.102C84.0396 117.419 86.3496 124.97 86.5676 132.953C87.2521 129.517 87.0303 126.008 86.5676 122.487V122.491Z" fill="#F5B731" fill-opacity="0.8"/>
<path d="M51.5242 116.419C52.1629 118.741 52.9469 121.016 53.5129 123.28C53.2375 119.645 51.9716 113.845 50.8052 112.504C50.7708 113.362 51.2832 115.523 51.5242 116.415V116.419Z" fill="#F5B731" fill-opacity="0.8"/>
<path d="M79.1367 112.336C79.4044 111.665 79.6721 110.922 79.8557 110.141C79.3776 108.972 78.8613 107.739 78.3488 106.54C78.4177 107.605 78.3144 108.666 78.0735 109.662C78.4177 110.52 78.7925 111.447 79.1367 112.339V112.336Z" fill="#F5B731" fill-opacity="0.8"/>
<path d="M48.6138 107.325C41.9478 109.742 44.1162 117.243 41.3167 122.56C37.9895 130.869 33.882 138.489 33.0942 147.679C36.0734 148.947 41.1102 149.43 43.0951 149.602C47.4244 149.924 52.1246 151.249 56.4195 150.46C56.385 148.265 56.5916 144.388 58.0984 143.599C55.3601 143.159 52.6256 142.262 49.9791 141.542V141.577C50.0135 141.577 50.0135 141.611 50.0479 141.611C47.8183 141.243 46.3421 139.558 44.2577 141.473C42.4526 142.592 39.1483 145.17 37.5076 143.91C36.3411 140.987 41.9095 139.791 44.9079 139.106C45.7531 136.945 46.9387 134.976 48.1625 133.034C48.3116 133.539 48.4073 133.98 48.5067 134.509C48.9044 133.781 49.3328 133.018 49.7726 132.52C51.115 130.597 52.1973 128.383 53.337 126.207C52.966 123.089 48.5296 113.55 50.4916 111.416C53.5167 111.501 55.0082 124.127 54.3963 126.238C53.1457 128.471 52.0825 130.877 50.6293 132.93C51.4859 136.225 52.3082 139.071 53.1304 141.473C58.1099 143.155 63.4756 143.021 68.5812 144.116C70.5776 134.474 71.331 129.743 65.4987 121.572C63.9919 121.254 58.4235 122.633 57.9263 120.645C57.693 118.986 59.4217 118.852 60.4963 119.032C61.4907 119.128 62.9172 118.997 63.9574 118.929C63.4985 117.653 59.5555 112.458 60.7717 112.271C61.3339 111.064 62.5921 109.581 63.3761 108.394C54.882 107.363 58.4349 108.172 60.2248 99.5406C58.3661 101.065 56.4386 102.51 54.5378 103.659C52.3656 105.049 50.744 106.298 48.6099 107.329L48.6138 107.325Z" fill="#F5B731" fill-opacity="0.8"/>
<path d="M111.27 135.669C111.239 136.845 111.273 138.102 111.338 139.305H112.023C111.901 138.11 111.534 136.83 111.27 135.669Z" fill="#F5B731" fill-opacity="0.8"/>
<path d="M126.958 120.4C127.13 120.434 127.336 120.434 127.539 120.434C127.332 120.4 127.13 120.365 126.958 120.4Z" fill="#F5B731" fill-opacity="0.8"/>
<path d="M62.4544 97.1003C62.4889 96.8245 62.6265 96.4836 62.7642 96.1388C62.4009 96.6981 62.2441 97.0505 61.5978 97.8205C60.9935 100.698 59.9762 104.18 58.9589 106.812C66.1986 107.911 65.5599 106.524 61.6322 112.814C64.512 118.699 69.5373 124.365 70.9141 130.728C73.2049 119.476 62.9554 108.309 62.4544 97.1003Z" fill="#F5B731" fill-opacity="0.8"/>
<path d="M128.021 121.396C124.567 121.369 121.167 121.185 117.813 120.917C116.142 124.541 113.312 129.084 111.648 132.823C111.893 134.704 112.83 137.263 113.017 139.274C114.429 139.259 116.884 139.086 118.192 139.378C120.116 137.19 122.273 135.091 124.598 133.34C123.844 135.229 123.022 137.389 122.062 139.481H122.2C124.758 133.114 126.72 127.751 129.153 121.499C128.774 121.499 128.403 121.426 128.021 121.396Z" fill="#F5B731" fill-opacity="0.8"/>
<path d="M38.1654 143.22C39.6263 143.706 42.8886 141.19 44.3648 140.236C42.575 140.692 38.8614 141.577 38.1654 143.22Z" fill="#F5B731" fill-opacity="0.8"/>
<path d="M75.469 163.531C73.5836 163.669 72.9678 164.079 72.899 164.217C73.3923 164.784 76.7732 165.094 78.7236 164.903C79.0334 164.113 79.2705 163.669 79.477 163.29C78.127 163.202 76.6393 163.309 75.469 163.531Z" fill="#F5B731" fill-opacity="0.8"/>
<path d="M109.247 132.685H109.178C105.782 130.126 103.449 127.464 100.58 124.276C99.3144 123.043 98.4578 122.767 98.4578 120.844C98.4233 119.3 98.4922 117.618 98.0141 117.036C93.8722 114.351 94.4115 113.604 92.0212 109.658C89.6195 106.474 86.6861 105.099 83.1485 103.927C85.8715 106.363 84.1735 106.137 82.3951 108.217C88.2159 112.929 86.6173 109.888 87.1221 117.825C87.321 121.989 88.2886 126.268 87.9099 130.417C87.1871 135.175 86.3381 139.657 87.1221 144.484C87.6422 142.887 88.2541 141.27 89.8642 140.06C90.1396 139.063 90.3499 137.968 90.7553 136.937C90.9198 136.294 90.9504 132.961 92.331 134.126C93.1188 130.226 93.2297 126.199 91.7497 122.767C90.327 119.388 87.6652 112.248 89.5927 109.282C92.3692 107.796 92.4649 119.434 92.3692 121.43C95.0922 127.789 100.041 132.375 105.284 136.734C110.218 141.262 107.269 136.872 108.948 135.501C109.702 135.091 110.08 135.535 110.352 136.118C110.386 134.85 110.421 133.612 110.593 132.789C110.317 132.513 110.011 132.241 109.702 131.965C109.495 132.241 109.357 132.513 109.258 132.685H109.247Z" fill="#F5B731" fill-opacity="0.8"/>
<path d="M80.9189 159.896C81.2286 159.072 81.5346 158.283 81.8444 157.459C81.5002 157.494 81.1598 157.528 80.7812 157.563C80.7812 158.317 80.85 159.107 80.9189 159.896Z" fill="#F5B731" fill-opacity="0.8"/>
<path d="M49.7458 169.948C49.7458 169.982 49.7458 170.017 49.7114 170.051C50.4648 170.362 51.3215 170.634 52.247 170.875C51.4553 170.549 50.5948 170.273 49.7458 169.948Z" fill="#F5B731" fill-opacity="0.8"/>
<path d="M48.8891 135.842C48.8547 135.876 48.8547 135.911 48.8203 135.945C49.1951 137.018 49.807 139.305 50.7057 140.749C51.115 140.853 51.528 140.99 51.9716 141.128C51.2871 139.037 50.6025 136.635 49.8835 133.957C49.5737 134.539 49.1989 135.191 48.8891 135.846V135.842Z" fill="#F5B731" fill-opacity="0.8"/>
<path d="M93.3177 134.466C93.3177 134.604 93.2833 134.708 93.2489 134.846C93.7307 135.29 94.1323 135.777 94.4803 136.114C94.553 136.187 94.6677 136.301 94.7213 136.355C95.7118 137.317 96.5876 138.259 97.5973 139.201H98.626C96.9242 137.669 94.8666 135.999 93.3177 134.466Z" fill="#F5B731" fill-opacity="0.8"/>
<path d="M56.3889 151.008C56.3889 151.226 56.385 151.437 56.4233 151.625C56.4233 151.315 56.4271 150.939 56.4577 150.491C56.4654 150.491 56.3965 150.491 56.3889 150.491V151.004V151.008Z" fill="#F5B731" fill-opacity="0.8"/>
<path d="M32.3063 148.982C31.4191 146.618 32.8571 144.239 33.0942 141.983C34.1574 134.899 38.0048 128.781 40.3912 122.185C45.1527 108.417 39.416 111.47 53.2375 103.28C44.7511 107.072 40.7048 109.317 39.6722 118.791C37.8633 126.629 32.8647 133.31 31.8971 141.439C30.9716 146.005 28.9561 151.801 35.4233 152.008C34.0312 151.38 32.8456 150.46 32.3063 148.989V148.982Z" fill="#F5B731" fill-opacity="0.8"/>
<path d="M63.0702 152.759C63.1734 154.877 62.0835 156.881 59.5746 156.019C56.6642 155.709 53.1687 155.264 49.742 154.716C48.7553 157.318 47.7189 160.39 46.4185 162.918C56.7292 164.424 60.9094 163.704 65.3266 152.487C64.642 152.59 63.8542 152.694 63.0663 152.763L63.0702 152.759Z" fill="#F5B731" fill-opacity="0.8"/>
<path d="M59.0277 152.927C59.3031 154.264 59.6779 154.816 59.9533 155.019C60.1751 155.034 60.4466 155 60.6034 155.191C61.8005 155.122 62.007 154.575 62.1102 152.789C61.047 152.858 59.9877 152.893 59.131 152.893C59.0622 152.962 59.0277 152.927 59.0277 152.927Z" fill="#F5B731" fill-opacity="0.8"/>
<path d="M154.295 133.302C154.692 138.385 154.719 143.503 154.91 148.606C156.161 144.499 154.979 140.021 154.979 135.773C154.777 134.398 154.792 125.353 153.644 125.686C153.656 128.165 153.801 130.846 154.295 133.306V133.302Z" fill="#F5B731" fill-opacity="0.8"/>
<path d="M158.131 156.053C158.295 154.927 157.844 148.009 156.934 147.851C157.63 154.073 158.318 160.769 156.008 166.791H156.555C157.664 163.317 158.299 159.704 158.131 156.049V156.053Z" fill="#F5B731" fill-opacity="0.8"/>
<path d="M148.091 142.53C148.615 144.825 149.308 147.17 149.839 149.495C149.801 148.652 149.801 147.652 149.805 146.817C149.101 145.338 149.063 141.431 147.885 140.745C147.785 141.312 148.026 141.921 148.091 142.53Z" fill="#F5B731" fill-opacity="0.8"/>
<path d="M151.143 162.501C150.566 155.969 148.956 149.564 147.239 143.251C146.237 150.836 149.273 158.271 151.178 165.485C151.327 164.489 151.159 163.497 151.143 162.501Z" fill="#F5B731" fill-opacity="0.8"/>
<path d="M153.882 145.07C153.755 139.65 153.518 134.221 152.922 128.839C150.811 137.608 151.304 146.744 151.721 155.705C151.354 154.387 151.262 152.598 150.864 151.177C150.967 152.812 151.101 154.621 151.243 156.256C151.64 159.685 152.31 163.16 151.996 166.619H152.75C153.258 159.524 154.073 152.211 153.882 145.07Z" fill="#F5B731" fill-opacity="0.8"/>
<path d="M156.314 162.229C156.895 158.206 156.754 154.027 156.211 150.012C155.786 151.188 155.874 152.498 155.561 153.717C155.442 153.084 155.515 152.042 155.492 151.28C154.402 156.333 154.612 161.581 154.191 166.722H154.57C154.685 165.807 154.712 165.868 154.742 166.722H155.052C155.721 165.255 155.974 163.776 156.318 162.229H156.314Z" fill="#F5B731" fill-opacity="0.8"/>
</g>
</svg>
