<?xml version="1.0" encoding="UTF-8"?><svg id="Layer_1" xmlns="http://www.w3.org/2000/svg" viewBox="0 0 1369.1 792"><defs><style>.cls-1{fill:#a459ff;}</style></defs><path class="cls-1" d="m674.36,508.06c-25.11,0-47.48-5.43-67.12-16.29-19.64-10.86-35.16-25.72-46.56-44.59-11.4-18.87-17.1-40.24-17.1-64.12,0-17.87,3.35-34.35,10.05-49.45,6.7-15.1,16.1-28.3,28.19-39.62,12.09-11.32,26.26-20.14,42.51-26.46,16.25-6.31,33.93-9.47,53.03-9.47,17.87,0,34.46,2.47,49.79,7.39,15.33,4.93,29.23,12.25,41.7,21.95l-33.97,57.3c-7.55-6.93-15.82-12.05-24.84-15.37-9.01-3.31-18.37-4.97-28.07-4.97-12.94,0-24.03,2.31-33.27,6.93-9.24,4.62-16.33,11.29-21.26,19.99-4.93,8.7-7.4,19.29-7.4,31.77,0,18.33,5.51,32.69,16.52,43.09,11.01,10.4,26.22,15.6,45.64,15.6,10.94,0,21.29-2.04,31.08-6.12,9.78-4.08,18.75-9.97,26.92-17.68l31.19,58.23c-13.25,9.86-28.46,17.64-45.64,23.34-17.18,5.7-34.31,8.55-51.41,8.55Z"/><path class="cls-1" d="m907.27,508.06c-25.11,0-47.48-5.43-67.12-16.29-19.64-10.86-35.16-25.72-46.56-44.59-11.4-18.87-17.1-40.24-17.1-64.12,0-17.87,3.35-34.35,10.05-49.45,6.7-15.1,16.1-28.3,28.19-39.62,12.09-11.32,26.26-20.14,42.51-26.46,16.25-6.31,33.93-9.47,53.03-9.47,17.87,0,34.46,2.47,49.79,7.39,15.33,4.93,29.23,12.25,41.7,21.95l-33.97,57.3c-7.55-6.93-15.82-12.05-24.84-15.37-9.01-3.31-18.37-4.97-28.07-4.97-12.94,0-24.03,2.31-33.27,6.93-9.24,4.62-16.33,11.29-21.26,19.99-4.93,8.7-7.4,19.29-7.4,31.77,0,18.33,5.51,32.69,16.52,43.09,11.01,10.4,26.22,15.6,45.64,15.6,10.94,0,21.29-2.04,31.08-6.12,9.78-4.08,18.75-9.97,26.92-17.68l31.19,58.23c-13.25,9.86-28.46,17.64-45.64,23.34-17.18,5.7-34.31,8.55-51.41,8.55Z"/><path class="cls-1" d="m403.73,507.67c-26.1,0-48.99-5.21-68.68-15.64-19.69-10.42-34.98-25.05-45.86-43.9-10.89-18.84-16.33-40.77-16.33-65.79,0-18.37,3.16-35.21,9.5-50.5,6.33-15.29,15.29-28.49,26.87-39.61,11.58-11.12,25.25-19.77,41-25.94,15.75-6.18,33.05-9.27,51.89-9.27,20.85,0,39.38,3.71,55.59,11.12,16.21,7.41,29.65,17.68,40.31,30.81,10.66,13.13,17.99,28.53,22.01,46.21,4.01,17.68,4.09,36.95.23,57.8h-176.98c.15,9.11,2.9,17.07,8.22,23.86,5.33,6.79,12.66,12.08,22.01,15.86,9.34,3.79,20.11,5.68,32.31,5.68,14.05,0,27.33-1.77,39.84-5.33,12.51-3.55,24.56-9.11,36.14-16.68l24.09,52.12c-7.26,5.56-16.68,10.54-28.26,14.94-11.58,4.4-23.86,7.88-36.83,10.42-12.97,2.55-25.33,3.82-37.06,3.82Zm-55.6-156.59h98.68c-.16-11.58-4.44-20.85-12.86-27.8-8.42-6.95-19.73-10.42-33.94-10.42s-26.52,3.48-36.02,10.42c-9.5,6.95-14.79,16.21-15.87,27.8Z"/><path class="cls-1" d="m281.91,261.62c-10.77-2.19-22.11-3.28-34.01-3.28-19.1,0-36.78,3.16-53.03,9.47-16.25,6.32-30.42,15.14-42.51,26.46-12.1,11.32-21.49,24.53-28.19,39.62-6.7,15.1-10.05,31.58-10.05,49.44h0v125.01h76.47v-124.99s0,0,0,0c0,0,0,0,0-.01,0-12.48,2.46-23.06,7.39-31.77,4.93-8.7,12.02-15.37,21.26-19.99,7.24-3.62,15.62-5.82,25.14-6.61l37.53-63.36Z"/><path class="cls-1" d="m1139.46,506.71c-25.6,0-48.15-5.6-67.66-16.8-19.51-11.2-34.78-26.17-45.83-44.92-11.05-18.74-16.57-39.39-16.57-61.94,0-16.31,3.16-31.89,9.48-46.74,6.32-14.86,15.27-28.03,26.86-39.54,11.58-11.5,25.33-20.61,41.26-27.31,15.92-6.7,33.41-10.06,52.46-10.06,25.45,0,47.96,5.64,67.54,16.91,19.58,11.28,34.89,26.28,45.94,45.03,11.05,18.74,16.57,39.32,16.57,61.71,0,16.31-3.16,31.89-9.49,46.74-6.33,14.86-15.28,28.04-26.86,39.54-11.58,11.51-25.3,20.61-41.14,27.32-15.85,6.7-33.37,10.06-52.57,10.06Zm0-65.6c10.51,0,19.96-2.36,28.34-7.08,8.38-4.72,15.01-11.43,19.89-20.12,4.88-8.68,7.32-18.97,7.32-30.86s-2.4-22.17-7.2-30.86c-4.8-8.68-11.39-15.39-19.77-20.11-8.38-4.72-17.91-7.08-28.57-7.08s-20.19,2.36-28.57,7.08c-8.38,4.72-14.97,11.43-19.77,20.11-4.8,8.69-7.2,18.97-7.2,30.86s2.44,22.37,7.31,30.97c4.88,8.61,11.5,15.28,19.89,20,8.38,4.72,17.83,7.08,28.34,7.08Z"/></svg>