<svg width="180" height="114" viewBox="0 0 180 114" fill="none" xmlns="http://www.w3.org/2000/svg">
<path d="M131.753 111.121C131.718 110.63 131.718 110.383 131.718 110.136C131.718 109.889 131.718 109.681 131.682 109.187C131.647 108.732 131.612 108.485 131.577 108.273C131.541 108.026 131.506 107.782 131.471 107.288C131.436 106.763 131.436 106.515 131.401 106.233C131.401 106.021 131.401 105.778 131.365 105.354C131.33 104.899 131.295 104.687 131.26 104.476C131.189 104.228 131.154 103.95 131.119 103.456C131.083 102.93 131.083 102.648 131.119 102.365C131.154 102.153 131.154 101.981 131.154 101.663C130.735 101.663 130.488 101.628 130.277 101.628C130.066 101.592 129.823 101.592 129.4 101.592C128.946 101.592 128.735 101.628 128.523 101.628C128.276 101.663 128.034 101.663 127.54 101.663H126.981L127.4 103.385C127.505 103.84 127.576 104.087 127.681 104.299C127.752 104.546 127.822 104.789 127.963 105.284C128.069 105.739 128.139 105.951 128.21 106.198C128.28 106.445 128.351 106.688 128.492 107.182C128.633 107.673 128.668 107.92 128.703 108.167C128.738 108.414 128.809 108.622 128.915 109.081C129.02 109.54 129.091 109.783 129.161 109.995C129.232 110.242 129.302 110.485 129.443 110.98C129.584 111.47 129.619 111.717 129.655 111.964C129.69 112.141 129.725 112.317 129.795 112.596C130.32 112.596 130.637 112.631 130.919 112.631C131.201 112.666 131.479 112.666 131.937 112.666C131.902 112.419 131.902 112.282 131.866 112.105C131.831 111.858 131.796 111.615 131.761 111.121H131.753Z" fill="#F5F3F1"/>
<path d="M119.903 111.05C119.867 110.595 119.832 110.383 119.797 110.136C119.762 109.889 119.726 109.646 119.691 109.116C119.656 108.661 119.621 108.414 119.621 108.167C119.585 107.92 119.585 107.676 119.55 107.182C119.515 106.727 119.515 106.48 119.515 106.233C119.515 105.986 119.48 105.743 119.445 105.248C119.409 104.758 119.409 104.511 119.409 104.264C119.409 104.016 119.409 103.809 119.374 103.314C119.339 102.82 119.339 102.542 119.339 102.294C119.339 102.083 119.339 101.871 119.304 101.557H119.268C119.022 101.557 118.779 101.592 118.286 101.592C117.792 101.592 117.55 101.592 117.303 101.557C117.092 101.557 116.849 101.522 116.426 101.522C116.003 101.522 115.796 101.557 115.584 101.592C115.444 101.628 115.303 101.628 115.095 101.628C115.166 101.945 115.201 102.153 115.271 102.33C115.307 102.577 115.377 102.785 115.483 103.279C115.588 103.773 115.659 103.981 115.729 104.228C115.8 104.475 115.87 104.683 116.011 105.178C116.187 105.774 116.223 105.986 116.293 106.303C116.328 106.515 116.399 106.727 116.504 107.112L116.994 109.046C117.1 109.501 117.205 109.712 117.276 109.924C117.381 110.171 117.487 110.415 117.593 110.944C117.734 111.435 117.769 111.717 117.804 111.964C117.839 112.141 117.875 112.349 117.945 112.666C118.47 112.666 118.752 112.666 119.033 112.702C119.315 112.702 119.593 112.702 120.016 112.737C119.981 112.419 119.981 112.247 119.946 112.07C119.946 111.788 119.946 111.544 119.91 111.05H119.903Z" fill="#F5F3F1"/>
<path d="M63.693 112.56L63.8339 113.015V112.525C63.7635 112.525 63.7282 112.525 63.693 112.56Z" fill="#F5F3F1"/>
<path d="M64.5699 101.596C64.1158 101.596 63.8691 101.596 63.6225 101.561C63.4111 101.561 63.1684 101.526 62.7103 101.526H62.08C62.0448 101.91 62.0448 102.122 62.0096 102.334C61.9743 102.581 61.9743 102.789 61.9391 103.248C61.9039 103.738 61.8686 103.985 61.8334 104.232C61.7982 104.444 61.7629 104.687 61.7629 105.111C61.7277 105.566 61.7277 105.813 61.7277 106.06C61.7277 106.307 61.7277 106.551 61.6925 107.045C61.6572 107.5 61.6572 107.747 61.6572 107.959C61.6572 108.206 61.6572 108.449 61.622 108.944C61.5868 109.469 61.5515 109.716 61.4811 109.964C61.4458 110.175 61.4106 110.387 61.3754 110.842C61.3401 111.266 61.3754 111.474 61.4106 111.721C61.4458 111.933 61.4458 112.176 61.4458 112.564C61.8334 112.564 62.0761 112.529 62.3228 112.494C62.6399 112.458 62.9531 112.423 63.5168 112.388C63.5873 112.105 63.6577 111.933 63.693 111.756C63.7634 111.509 63.8339 111.266 63.9396 110.772C64.0453 110.348 64.0805 110.105 64.1158 109.893C64.151 109.646 64.1862 109.367 64.2919 108.838C64.4329 108.347 64.5033 108.1 64.609 107.853C64.6795 107.641 64.7852 107.398 64.8909 106.939C64.9966 106.48 65.0671 106.237 65.1023 106.025C65.1376 105.778 65.208 105.535 65.3137 105.04C65.4194 104.585 65.4899 104.338 65.5251 104.126C65.5604 103.879 65.6308 103.636 65.7365 103.142C65.8775 102.651 65.9832 102.369 66.0889 102.122C66.1593 101.945 66.265 101.737 66.3355 101.42H65.4586C65.2824 101.596 65.071 101.596 64.5816 101.596H64.5699Z" fill="#F5F3F1"/>
<path d="M52.5395 101.702H51.6274C51.138 101.702 50.8914 101.702 50.68 101.667H50.4333C50.3981 101.984 50.3981 102.192 50.3629 102.369C50.3276 102.616 50.3276 102.859 50.2924 103.318C50.2572 103.844 50.1867 104.126 50.1515 104.338C50.1162 104.55 50.0458 104.762 50.0105 105.217C49.9753 105.672 50.0105 105.884 50.0105 106.096C50.0105 106.343 50.0458 106.621 50.0105 107.116C49.9753 107.641 49.9401 107.888 49.8696 108.135C49.8344 108.347 49.7991 108.559 49.7639 109.014C49.7287 109.469 49.7287 109.681 49.7639 109.928C49.7639 110.175 49.7991 110.419 49.7639 110.948C49.7287 111.403 49.7287 111.65 49.7287 111.862C49.7287 112.074 49.7287 112.286 49.6934 112.635C50.0458 112.635 50.2532 112.6 50.4999 112.564C50.7818 112.529 51.0597 112.494 51.5882 112.494C51.6939 112.176 51.7644 111.968 51.8349 111.791C51.9053 111.58 52.011 111.336 52.1167 110.877C52.2224 110.419 52.2929 110.175 52.3281 109.963C52.3634 109.716 52.4338 109.473 52.5395 108.979C52.6805 108.488 52.7509 108.241 52.8214 107.994C52.8919 107.782 52.9623 107.539 53.068 107.08C53.209 106.59 53.2794 106.343 53.3499 106.096C53.4204 105.884 53.4908 105.641 53.5965 105.182C53.7375 104.656 53.8079 104.409 53.9136 104.162C53.9841 103.95 54.0546 103.738 54.1955 103.318C54.3012 102.863 54.3717 102.616 54.4421 102.404C54.4774 102.192 54.5479 102.02 54.6183 101.667H53.5652C53.0054 101.702 52.794 101.702 52.5474 101.702H52.5395Z" fill="#F5F3F1"/>
<path d="M62.3932 90.1063C62.3932 89.616 62.4285 89.3688 62.4637 89.1217C62.4989 88.9099 62.4989 88.698 62.4989 88.243C62.4989 87.8193 62.4637 87.6114 62.4285 87.3643C62.3932 87.1172 62.358 86.8739 62.358 86.3797C62.358 85.8854 62.3932 85.6422 62.3932 85.395C62.4285 85.1832 62.4285 84.9714 62.4285 84.5163C62.4285 84.026 62.4285 83.7789 62.4637 83.5317C62.4637 83.3199 62.4989 83.0767 62.4989 82.653C62.4989 82.198 62.4637 81.9861 62.4285 81.7743C62.3932 81.5272 62.358 81.284 62.358 80.7897V78.9264C62.358 78.436 62.358 78.2242 62.3932 77.977C62.3932 77.7652 62.4285 77.522 62.4285 77.0983V75.235C62.4285 74.78 62.4285 74.5681 62.3932 74.321C62.3932 74.0739 62.358 73.8307 62.358 73.3717C62.358 72.846 62.3932 72.5989 62.4285 72.3518C62.4637 72.1399 62.4989 71.9281 62.4989 71.5084C62.4989 71.0533 62.4989 70.8062 62.4637 70.5943C62.4637 70.3472 62.4285 70.1393 62.4285 69.645C62.4285 69.2214 62.3932 68.9782 62.358 68.7663C62.3228 68.5192 62.2875 68.276 62.2875 67.7817C62.2875 67.2874 62.2875 67.0442 62.3228 66.7971C62.3228 66.5852 62.358 66.342 62.358 65.9184C62.358 65.4633 62.3228 65.2515 62.3228 65.0397C62.2875 64.7925 62.2875 64.5493 62.2875 64.0904C62.2875 63.5647 62.3228 63.3176 62.3932 63.0704C62.4285 62.8586 62.4637 62.6468 62.4637 62.227V58.5396C62.4637 58.0846 62.4285 57.8727 62.4285 57.6609C62.3932 57.4138 62.3932 57.1705 62.3932 56.6763C62.3932 56.182 62.4285 55.9388 62.4637 55.6916C62.4989 55.4798 62.4989 55.268 62.4989 54.8129C62.4989 54.3579 62.4637 54.1461 62.4637 53.9342C62.4285 53.7577 62.4285 53.5498 62.4285 53.2321H60.6041C60.1853 53.2321 59.9386 53.2674 59.7272 53.2674C59.4806 53.3027 59.2379 53.3027 58.7798 53.3027C58.2905 53.3027 58.0791 53.3027 57.8324 53.2674C57.621 53.2674 57.3783 53.2321 56.9555 53.2321H55.1312C54.677 53.2321 54.4656 53.2321 54.219 53.2674C53.9724 53.2674 53.7649 53.3027 53.2716 53.3027H51.5882C51.5882 53.6204 51.6234 53.793 51.6234 53.9695C51.6587 54.2167 51.6939 54.4599 51.6939 54.9542V62.2623C51.6939 62.7174 51.6939 62.9645 51.6587 63.2116C51.6587 63.4235 51.6234 63.6667 51.6234 64.0904V65.9184C51.6234 66.342 51.6587 66.5499 51.6939 66.7618C51.7291 67.0089 51.7644 67.2521 51.7644 67.7464C51.7644 68.2407 51.7291 68.4839 51.6939 68.731C51.6587 68.9428 51.6234 69.1547 51.6234 69.5744C51.6234 70.0295 51.6234 70.2413 51.6587 70.4531C51.6587 70.7003 51.6939 70.9082 51.6939 71.4024C51.6939 71.8967 51.6939 72.1046 51.6587 72.3518C51.6587 72.5636 51.6234 72.8068 51.6234 73.2305V75.0585C51.6234 75.5135 51.6234 75.7254 51.6587 75.9372C51.6587 76.1843 51.6939 76.4275 51.6939 76.8865C51.6939 77.3769 51.6587 77.624 51.6587 77.8358C51.6234 78.0476 51.6234 78.2595 51.6234 78.7145C51.6234 79.1696 51.6234 79.3814 51.6587 79.6285C51.6587 79.8757 51.6939 80.0836 51.6939 80.5779V82.4059C51.6939 82.8295 51.7291 83.0374 51.7644 83.2493C51.7996 83.4964 51.8348 83.7396 51.8348 84.2339C51.8348 84.7282 51.8348 84.9361 51.7996 85.1832C51.7996 85.395 51.7644 85.6383 51.7644 86.0619V87.8899C51.7644 88.3803 51.7291 88.6274 51.6939 88.8746C51.6587 89.0864 51.6234 89.2982 51.6234 89.718V91.5107C51.6234 91.9657 51.6234 92.2129 51.5882 92.4247C51.5882 92.6365 51.553 92.8797 51.553 93.3387C51.553 93.7977 51.553 94.0056 51.5882 94.2174C51.5882 94.4645 51.6234 94.7078 51.6234 95.1667C51.6234 95.6571 51.5882 95.9042 51.5882 96.116C51.5882 96.2926 51.553 96.4691 51.553 96.7123H52.3242C52.5708 96.7123 52.7783 96.677 53.2716 96.677H56.9203C57.3744 96.677 57.621 96.677 57.8677 96.7123C58.0791 96.7123 58.3218 96.7476 58.7446 96.7476C59.2339 96.7476 59.4806 96.7829 59.7272 96.7829C59.9386 96.8182 60.1461 96.8182 60.6041 96.8182C61.0622 96.8182 61.3049 96.8182 61.5515 96.8535C61.7629 96.8535 62.0057 96.8888 62.4285 96.8888V93.7624C62.4285 93.2367 62.4989 92.9543 62.5342 92.7071C62.5694 92.4953 62.6046 92.2835 62.6046 91.899C62.6046 91.4754 62.5694 91.2675 62.5342 91.0556C62.4285 90.8791 62.3932 90.6006 62.3932 90.1063Z" fill="#F5F3F1"/>
<path d="M97.6348 82.6569C97.6348 82.2332 97.5996 81.99 97.5644 81.7782C97.5291 81.531 97.4939 81.2878 97.4939 80.7936V78.9302C97.4939 78.4399 97.5291 78.1927 97.5644 77.9456C97.5996 77.7338 97.6348 77.5219 97.6348 77.1022C97.6348 76.6472 97.5996 76.4353 97.5996 76.2235C97.5644 75.9764 97.5291 75.7332 97.5291 75.2389V67.8248C97.5291 67.3345 97.5291 67.0873 97.5644 66.8755C97.5644 66.6637 97.5996 66.4204 97.5996 65.9968V64.1335C97.5996 63.7098 97.5644 63.4666 97.5291 63.2547C97.4939 63.0076 97.4587 62.7644 97.4587 62.2701C97.4587 61.7759 97.4939 61.4973 97.5291 61.2502C97.5644 61.0384 97.5996 60.8265 97.5996 60.4068C97.5996 59.9518 97.5996 59.7046 97.5644 59.4928C97.5644 59.2457 97.5291 59.0377 97.5291 58.5435C97.5291 58.0492 97.5291 57.806 97.5644 57.5942C97.5644 57.3823 97.5996 57.1391 97.5996 56.7155V54.8521C97.5996 54.3971 97.5996 54.1852 97.5644 53.9381C97.5644 53.7616 97.5291 53.5851 97.5291 53.3065H97.4587C97.0398 53.3065 96.8284 53.3419 96.617 53.3772C96.3703 53.4125 96.1276 53.4478 95.6343 53.4478C95.1411 53.4478 94.9336 53.4478 94.6869 53.4125C94.4755 53.4125 94.2328 53.3772 93.81 53.3772C93.3559 53.3772 93.1445 53.3772 92.9331 53.4125C92.6865 53.4125 92.4437 53.4478 91.9857 53.4478C91.4963 53.4478 91.2145 53.4125 90.9678 53.3418C90.7564 53.3065 90.5489 53.2712 90.1261 53.2712H86.7241C86.7241 53.6243 86.6889 53.8322 86.6536 54.044C86.6184 54.2559 86.6184 54.4677 86.6184 54.9227C86.6184 55.3464 86.6536 55.5543 86.6536 55.8014C86.6889 56.0486 86.7241 56.2918 86.7241 56.7861V58.6141C86.7241 59.1044 86.7241 59.3516 86.6889 59.5634C86.6889 59.7752 86.6536 59.9871 86.6536 60.4421V62.2701C86.6536 62.7605 86.6184 63.0076 86.5832 63.2547C86.5479 63.4666 86.5479 63.6784 86.5479 64.1335C86.5479 64.5571 86.5832 64.765 86.6184 64.9769C86.6536 65.224 86.6889 65.4672 86.6889 65.9615V69.5783C86.6889 70.0333 86.6889 70.2452 86.7241 70.4923C86.7241 70.7394 86.7593 70.9474 86.7593 71.4416C86.7593 71.9359 86.7241 72.1791 86.6889 72.4262C86.6536 72.6381 86.6536 72.8499 86.6536 73.305C86.6536 73.7286 86.6536 73.9718 86.6889 74.1837C86.6889 74.4308 86.7241 74.674 86.7241 75.133C86.7241 75.6233 86.6889 75.8705 86.6536 76.1176C86.6184 76.3294 86.6184 76.5413 86.6184 76.9963C86.6184 77.42 86.6536 77.6632 86.6536 77.875C86.6889 78.1221 86.6889 78.3654 86.6889 78.8243C86.6889 79.2833 86.6889 79.4912 86.7241 79.7383C86.7241 79.9855 86.7593 80.1934 86.7593 80.6876C86.7593 81.1427 86.7593 81.3898 86.7241 81.637C86.7241 81.8488 86.6889 82.092 86.6889 82.551C86.6889 83.0099 86.6889 83.2178 86.7241 83.465C86.7241 83.7121 86.7593 83.92 86.7593 84.4143C86.7593 84.9086 86.7241 85.1518 86.6889 85.3989C86.6536 85.6107 86.6184 85.8226 86.6184 86.2423V88.0703C86.6184 88.494 86.6536 88.7019 86.6536 88.949C86.6889 89.1962 86.6889 89.4394 86.6889 89.8984C86.6889 90.3573 86.6889 90.6005 86.6536 90.8124C86.6536 91.0242 86.6184 91.2674 86.6184 91.6911V93.5191C86.6184 93.9741 86.6184 94.186 86.6536 94.4331C86.6536 94.6802 86.6889 94.8882 86.6889 95.3824V97.0692C87.006 97.0692 87.1782 97.0339 87.3544 97.0339C87.601 96.9986 87.8438 96.9633 88.337 96.9633H95.6304C96.0846 96.9633 96.3312 96.9633 96.5778 96.9986C96.7892 96.9986 97.0319 97.0339 97.4548 97.0339H97.5605C97.5605 96.928 97.5605 96.8574 97.5252 96.7515C97.49 96.5043 97.49 96.2611 97.49 95.8022C97.49 95.3118 97.5252 95.0647 97.5605 94.8175C97.5957 94.6057 97.5957 94.3939 97.5957 93.9388C97.5957 93.4838 97.5957 93.272 97.5605 93.0248C97.5605 92.7777 97.5252 92.5345 97.5252 92.0755C97.5252 91.5852 97.5252 91.338 97.5605 91.0909C97.5605 90.8791 97.5957 90.6358 97.5957 90.2122C97.5957 89.7885 97.5605 89.5453 97.5252 89.3335C97.49 89.0863 97.4548 88.8431 97.4548 88.3489C97.4548 87.8232 97.49 87.5761 97.5605 87.3289C97.5957 87.1171 97.6309 86.9053 97.6309 86.4855V84.6222C97.6309 84.1672 97.6309 83.9553 97.5957 83.7082C97.6309 83.3944 97.6309 83.1472 97.6309 82.653L97.6348 82.6569Z" fill="#F5F3F1"/>
<path d="M86.728 36.4895C86.728 36.9132 86.7633 37.1211 86.7633 37.3682C86.7985 37.6153 86.8337 37.8586 86.8337 38.3528C86.8337 38.8471 86.7985 39.0903 86.7633 39.3375C86.728 39.5493 86.728 39.7611 86.728 40.1809C86.728 40.6006 86.7633 40.8477 86.7633 41.0596C86.7985 41.3067 86.8337 41.5499 86.8337 42.0089V43.8369C86.8337 44.2919 86.8337 44.5391 86.7985 44.7509C86.7985 44.9627 86.7633 45.206 86.7633 45.6296V47.4576C86.7633 47.948 86.728 48.1598 86.6928 48.407C86.6576 48.5835 86.6576 48.7247 86.6576 49.0032H90.13C90.5842 49.0032 90.7956 49.0032 91.007 48.9679C91.2536 48.9679 91.4611 48.9326 91.9544 48.9326C92.4476 48.9326 92.6904 48.9679 92.937 49.0032C93.1484 49.0385 93.3559 49.0385 93.8139 49.0385C94.272 49.0385 94.4795 49.0385 94.6909 49.0032C94.9375 49.0032 95.1802 48.9679 95.6383 48.9679C96.1276 48.9679 96.3743 49.0032 96.6209 49.0385C96.8323 49.0738 97.0398 49.0738 97.4626 49.0738H97.6035V48.6502C97.6035 48.403 97.5683 48.1951 97.5683 47.7008V45.8728C97.5683 45.4492 97.5331 45.206 97.4978 44.9941C97.4626 44.747 97.4273 44.5038 97.4273 44.0095C97.4273 43.5152 97.4273 43.272 97.4626 43.0249C97.4626 42.813 97.4978 42.5698 97.4978 42.1462C97.4978 41.6911 97.4978 41.444 97.4626 41.2322C97.4626 40.985 97.4273 40.7771 97.4273 40.2828C97.4273 39.7886 97.4626 39.5454 97.4978 39.2629C97.5331 39.0511 97.5683 38.8393 97.5683 38.4195V36.5915C97.5683 36.1011 97.5683 35.854 97.6035 35.6422C97.6035 35.4303 97.6388 35.1871 97.6388 34.7635C97.6388 34.3084 97.6387 34.0966 97.6035 33.8495C97.6035 33.6023 97.5683 33.3591 97.5683 32.9001C97.5683 32.4098 97.6035 32.1627 97.6035 31.9155C97.6387 31.7037 97.6388 31.4919 97.6388 31.0368C97.6388 30.6132 97.6035 30.3699 97.5683 30.1581C97.533 29.911 97.4978 29.6678 97.4978 29.1735C97.4978 28.7184 97.4978 28.4713 97.4626 28.2595C97.4626 28.0123 97.4273 27.8044 97.4273 27.3102V23.6227C97.4273 23.1324 97.4273 22.8853 97.4626 22.6734C97.4626 22.4616 97.4978 22.2184 97.4978 21.7947C97.4978 21.3044 97.533 21.0572 97.5683 20.8101C97.6035 20.5983 97.6035 20.3864 97.6035 19.9314C97.6035 19.441 97.6035 19.1939 97.6388 18.9468C97.6388 18.7349 97.674 18.4917 97.674 18.0681C97.674 17.6444 97.6387 17.4365 97.6035 17.1894C97.5683 16.9422 97.5331 16.699 97.5331 16.2047C97.5331 15.7105 97.5683 15.4672 97.5683 15.2201C97.6035 15.0083 97.6035 14.7965 97.6035 14.3414V12.5134C97.6035 12.0583 97.6035 11.8465 97.5683 11.5994C97.5683 11.3522 97.5331 11.1443 97.5331 10.6501C97.5331 10.1558 97.5683 9.91257 97.5683 9.66544C97.6035 9.45361 97.6035 9.24177 97.6035 8.78673C97.6035 8.33169 97.5683 8.11986 97.5683 7.90802C97.533 7.66089 97.4978 7.41768 97.4978 6.9234C97.4978 6.42913 97.4978 6.18592 97.5331 5.97409V5.51904H97.3921C97.0045 5.51904 96.7971 5.55435 96.5857 5.58965C96.339 5.62496 96.0963 5.66026 95.603 5.66026C95.1489 5.66026 94.9023 5.66026 94.6556 5.62496C94.4442 5.62496 94.2015 5.58965 93.7787 5.58965C93.3559 5.58965 93.1484 5.62496 92.937 5.62496C92.6904 5.66026 92.4476 5.69557 91.9544 5.69557H88.3057C87.7811 5.69557 87.5345 5.62496 87.2879 5.58965C87.1469 5.55435 86.9707 5.51904 86.7633 5.51904C86.7633 5.9427 86.728 6.15061 86.6928 6.36244C86.6576 6.57427 86.6576 6.78611 86.6576 7.24115C86.6576 7.66481 86.6928 7.87272 86.728 8.08455C86.7633 8.33169 86.7985 8.5749 86.7985 9.06917C86.7985 9.56344 86.7985 9.77135 86.7633 10.0185C86.7633 10.2303 86.728 10.4735 86.728 10.8972C86.728 11.3875 86.728 11.6347 86.6928 11.8465C86.6928 12.0583 86.6576 12.3016 86.6576 12.7252C86.6576 13.1489 86.6928 13.3215 86.728 13.5333C86.7633 13.7804 86.7985 14.0237 86.7985 14.5179V16.346C86.7985 16.801 86.7985 17.0481 86.7633 17.2953C86.7633 17.5071 86.728 17.7503 86.728 18.2093V20.0373C86.728 20.4923 86.728 20.7042 86.7633 20.916C86.7633 21.1631 86.7985 21.4064 86.7985 21.8653C86.7985 22.3557 86.7633 22.6028 86.728 22.8499C86.6928 23.0618 86.6576 23.2736 86.6576 23.6933C86.6576 24.1484 86.6576 24.3602 86.6928 24.6074C86.6928 24.8545 86.728 25.0624 86.728 25.5567C86.728 25.9803 86.7633 26.1882 86.7985 26.4001C86.8337 26.6472 86.869 26.8904 86.869 27.3847C86.869 27.879 86.869 28.0869 86.8337 28.334C86.8337 28.5458 86.7985 28.7891 86.7985 29.2127C86.7985 29.6678 86.7985 29.8796 86.8337 30.0914C86.8337 30.3386 86.869 30.5818 86.869 31.0407C86.869 31.5311 86.8337 31.8135 86.7633 32.0607C86.728 32.2725 86.6928 32.4843 86.6928 32.9041V35.6108C86.728 35.7834 86.728 35.9952 86.728 36.4856V36.4895Z" fill="#F5F3F1"/>
<path d="M62.499 16.1773V14.314C62.499 13.8589 62.499 13.6118 62.4637 13.4C62.4637 13.1528 62.4285 12.9449 62.4285 12.4507V10.5873C62.4285 10.1323 62.3933 9.92046 62.3933 9.70863C62.358 9.4615 62.358 9.21829 62.358 8.72401C62.358 8.22974 62.358 7.98653 62.3933 7.73939C62.3933 7.52756 62.4285 7.28435 62.4285 6.86069C62.4285 6.43702 62.3933 6.19381 62.358 5.98198C62.3228 5.80545 62.3228 5.66423 62.2876 5.42102H60.5337C60.0796 5.42102 59.8682 5.42102 59.6568 5.45633C59.4101 5.45633 59.1674 5.49163 58.7094 5.49163C58.22 5.49163 58.0086 5.45633 57.762 5.45633C57.5506 5.42102 57.3431 5.42102 56.885 5.42102C56.427 5.42102 56.2195 5.42102 55.9729 5.45633C55.7262 5.45633 55.5188 5.49163 55.0255 5.49163H53.2012C52.7823 5.49163 52.5709 5.52694 52.3595 5.56224C52.1481 5.59755 51.9719 5.63285 51.6235 5.63285V7.14313C51.6235 7.63348 51.5882 7.88061 51.553 8.12775C51.5178 8.33958 51.4825 8.55141 51.4825 8.97115V10.7992C51.4825 11.2542 51.4825 11.5014 51.4473 11.7485C51.4473 11.9603 51.4121 12.2035 51.4121 12.6272C51.4121 13.0509 51.4121 13.2588 51.4473 13.4706C51.4473 13.7177 51.4825 13.9256 51.4825 14.4199C51.4825 14.9142 51.4473 15.1574 51.4473 15.3692C51.4121 15.5811 51.4121 15.7929 51.4121 16.2479C51.4121 16.6716 51.4473 16.8795 51.4825 17.0913C51.5178 17.3385 51.553 17.5817 51.553 18.076C51.553 18.531 51.553 18.7428 51.5882 18.99C51.5882 19.2371 51.6235 19.445 51.6235 19.9393V23.5914C51.6235 24.0464 51.6235 24.2936 51.5882 24.5407C51.5882 24.7525 51.553 24.9958 51.553 25.4547C51.553 25.9451 51.5178 26.1922 51.4825 26.4394C51.4473 26.6512 51.4473 26.863 51.4473 27.2828C51.4473 27.7731 51.4473 27.9849 51.4121 28.2321C51.4121 28.4439 51.3768 28.6871 51.3768 29.1108C51.3768 29.5344 51.4121 29.7423 51.4473 29.9542C51.4825 30.2013 51.5178 30.4445 51.5178 30.9388C51.5178 31.4331 51.4825 31.6763 51.4825 31.8881C51.4473 32.0999 51.4473 32.3118 51.4473 32.7668V36.3836C51.4473 36.874 51.4121 37.1211 51.3768 37.3683C51.3416 37.5801 51.3416 37.7919 51.3416 38.247C51.3416 38.6706 51.3768 38.8785 51.3768 39.1257C51.4121 39.3728 51.4473 39.616 51.4473 40.075C51.4473 40.5653 51.4473 40.7772 51.4121 41.0243C51.4121 41.2361 51.3768 41.4793 51.3768 41.903C51.3768 42.3267 51.4121 42.5346 51.4121 42.7817C51.4473 43.0288 51.4825 43.2721 51.4825 43.7663V47.4184C51.4825 47.9088 51.4121 48.1912 51.3768 48.4031C51.3416 48.5443 51.3064 48.7208 51.3064 48.9287C51.7253 48.9287 51.9367 48.964 52.1481 48.9993C52.3595 49.0346 52.567 49.0346 52.9898 49.0346C53.4126 49.0346 53.6201 48.9993 53.8315 48.964C54.0781 48.9287 54.3208 48.8934 54.8141 48.8934C55.3074 48.8934 55.5148 48.9287 55.7615 48.9287C55.9729 48.964 56.1804 48.964 56.6384 48.964C57.1278 48.964 57.3392 48.9993 57.5858 48.9993C57.7972 48.9993 58.0399 49.0346 58.4627 49.0346C58.8855 49.0346 59.093 48.9993 59.3044 48.964C59.5511 48.9287 59.7938 48.8934 60.2871 48.8934H62.1466C62.1466 48.7522 62.1466 48.6463 62.1819 48.5404C62.1819 48.3285 62.2171 48.0853 62.2171 47.6617V45.8336C62.2171 45.3433 62.2523 45.0962 62.2876 44.849C62.3228 44.6372 62.3228 44.4254 62.3228 43.9703C62.3228 43.5467 62.2876 43.3034 62.2523 43.0916C62.2171 42.8445 62.1819 42.6013 62.1819 42.107V38.4196C62.1819 37.9645 62.1819 37.7174 62.1466 37.5056C62.1466 37.2584 62.1114 37.0505 62.1114 36.5562C62.1114 36.062 62.1466 35.8188 62.1819 35.5716C62.2171 35.3598 62.2171 35.148 62.2171 34.6929C62.2171 34.2379 62.2171 34.026 62.1819 33.7789C62.1819 33.5318 62.1466 33.2885 62.1466 32.8296C62.1466 32.3392 62.1819 32.0921 62.1819 31.845C62.2171 31.6331 62.2171 31.4213 62.2171 30.9663C62.2171 30.5112 62.1819 30.2994 62.1819 30.0522C62.1466 29.8051 62.1466 29.5619 62.1466 29.1029V27.2749C62.1466 26.7846 62.1466 26.5727 62.1819 26.3256C62.1819 26.1138 62.2171 25.8705 62.2171 25.4469C62.2171 24.9918 62.2171 24.7447 62.1819 24.5329C62.1819 24.2857 62.1466 24.0778 62.1466 23.5836C62.1466 23.0579 62.1819 22.8108 62.2171 22.5636C62.2523 22.3518 62.2876 22.14 62.2876 21.7202V19.8569C62.2876 19.4019 62.2523 19.19 62.2523 18.9782C62.2171 18.7311 62.2171 18.4878 62.2171 18.0289C62.2171 17.5385 62.2171 17.2914 62.2523 17.0443C62.499 16.8324 62.499 16.6245 62.499 16.1656V16.1773Z" fill="#F5F3F1"/>
<path d="M132.806 95.3432C132.806 94.8529 132.806 94.641 132.841 94.3939C132.841 94.1821 132.876 93.9389 132.876 93.5152V91.6872C132.876 91.1968 132.876 90.985 132.912 90.7379C132.912 90.526 132.947 90.3142 132.947 89.8592C132.947 89.4355 132.912 89.2276 132.876 89.0157C132.841 88.7686 132.806 88.5254 132.806 88.0311C132.806 87.5369 132.841 87.2936 132.876 87.0465C132.912 86.8347 132.947 86.6228 132.947 86.2031V84.3751C132.947 83.9514 132.912 83.7435 132.876 83.5317C132.841 83.2845 132.806 83.0413 132.806 82.5471C132.806 82.0528 132.841 81.8096 132.841 81.5977C132.876 81.3859 132.876 81.1741 132.876 80.719V77.0669C132.876 76.6119 132.876 76.4 132.841 76.1529C132.841 75.9058 132.806 75.6979 132.806 75.2389C132.806 74.7486 132.841 74.5014 132.876 74.2543C132.912 74.0424 132.912 73.8306 132.912 73.3756C132.912 72.9205 132.912 72.7087 132.876 72.4969C132.876 72.2497 132.841 72.0065 132.841 71.5475V69.7195C132.841 69.2645 132.841 69.0173 132.876 68.7702C132.876 68.5584 132.912 68.3152 132.912 67.8915C132.912 67.4678 132.876 67.2599 132.841 67.0481C132.806 66.801 132.771 66.5578 132.771 66.0635V64.2355C132.771 63.7451 132.806 63.498 132.806 63.2861C132.841 63.0743 132.841 62.8625 132.841 62.4074C132.841 61.9524 132.841 61.7053 132.876 61.4934C132.876 61.2816 132.912 61.0384 132.912 60.5794V58.7514C132.912 58.3277 132.876 58.0845 132.876 57.8727C132.841 57.6256 132.841 57.3823 132.841 56.9234C132.841 56.433 132.876 56.1859 132.912 55.9388C132.947 55.7269 132.947 55.5151 132.947 55.06C132.947 54.6364 132.912 54.4285 132.876 54.2166C132.841 53.9695 132.806 53.7263 132.806 53.232V51.404C132.806 50.9137 132.806 50.7018 132.841 50.4547C132.841 50.2429 132.876 49.9996 132.876 49.576C132.876 49.1209 132.876 48.9091 132.841 48.6973C132.841 48.4501 132.806 48.2069 132.806 47.748C132.806 47.2576 132.806 47.0458 132.841 46.7986C132.841 46.5868 132.876 46.375 132.876 45.9199C132.876 45.4963 132.841 45.2884 132.806 45.0765C132.771 44.8294 132.736 44.5862 132.736 44.0919C132.736 43.5976 132.736 43.3897 132.771 43.1426C132.771 42.9308 132.806 42.6876 132.806 42.2639V40.4359C132.806 39.9808 132.806 39.7337 132.841 39.4866C132.841 39.2747 132.876 39.0315 132.876 38.6079C132.876 38.1528 132.876 37.9057 132.912 37.6585C132.912 37.4467 132.947 37.2035 132.947 36.7445C132.947 36.3209 132.912 36.113 132.876 35.9011C132.841 35.654 132.806 35.4108 132.806 34.9165C132.806 34.4222 132.841 34.179 132.876 33.9319C132.912 33.72 132.947 33.5082 132.947 33.0885C132.947 32.6687 132.912 32.4569 132.876 32.2451C132.841 31.9979 132.806 31.7547 132.806 31.2605C132.806 30.7662 132.876 30.4877 132.912 30.2405C132.947 30.0287 132.982 29.8169 132.982 29.4324V27.6044C132.982 27.1808 132.947 26.9728 132.912 26.761C132.876 26.5139 132.841 26.2707 132.841 25.7764C132.841 25.2821 132.876 25.0389 132.912 24.7918C132.947 24.5799 132.947 24.3681 132.947 23.9131C132.947 23.458 132.912 23.2815 132.912 23.0344C132.876 22.7872 132.841 22.544 132.841 22.0497C132.841 21.5555 132.876 21.3123 132.876 21.1004C132.912 20.8886 132.912 20.6768 132.912 20.2217C132.912 19.7981 132.876 19.5901 132.841 19.3783C132.806 19.1312 132.771 18.888 132.771 18.3937C132.771 17.8994 132.806 17.6562 132.806 17.4091C132.841 17.1972 132.841 16.9854 132.841 16.5304V14.7023C132.841 14.2787 132.806 14.0708 132.806 13.8236C132.771 13.5765 132.736 13.3333 132.736 12.839C132.736 12.3447 132.771 12.1015 132.806 11.8544C132.841 11.6426 132.841 11.4307 132.841 10.9757C132.841 10.5206 132.841 10.3088 132.806 10.097C132.806 9.84985 132.771 9.60663 132.771 9.14767C132.771 8.65732 132.806 8.41018 132.841 8.16305C132.876 7.95122 132.912 7.73938 132.912 7.31965V5.49162C132.912 5.03658 132.912 4.82475 132.876 4.57761C132.876 4.33048 132.841 4.12257 132.841 3.6283V2.09056C132.454 2.09056 132.246 2.05526 132.035 2.05526C131.823 2.01995 131.581 2.01995 131.158 2.01995C130.735 2.01995 130.528 2.05526 130.316 2.09056C130.069 2.12587 129.827 2.16117 129.333 2.16117C128.84 2.16117 128.598 2.16117 128.351 2.12587C128.139 2.12587 127.897 2.09056 127.474 2.09056C127.02 2.09056 126.773 2.09056 126.527 2.05526C126.315 2.05526 126.072 2.01995 125.614 2.01995C125.125 2.01995 124.914 2.01995 124.667 1.98465C124.456 1.98465 124.213 1.94934 123.755 1.94934C123.297 1.94934 123.089 1.94934 122.878 1.98465C122.631 1.98465 122.389 2.01995 121.93 2.01995H120.071C119.617 2.01995 119.37 2.01995 119.124 1.98465C118.912 1.98465 118.669 1.94934 118.211 1.94934C117.792 1.94934 117.616 1.98465 117.405 2.01995C117.158 2.05526 116.88 2.12587 116.352 2.12587C115.862 2.12587 115.581 2.09056 115.334 2.05526C115.123 2.01995 114.915 1.98465 114.492 1.98465C114.038 1.98465 113.827 1.98465 113.615 2.01995C113.369 2.01995 113.126 2.05526 112.668 2.05526H107.128C106.639 2.05526 106.392 2.01995 106.146 2.01995C105.934 1.98465 105.692 1.98465 105.269 1.98465C104.815 1.98465 104.603 1.98465 104.357 2.01995C104.11 2.01995 103.867 2.05526 103.409 2.05526C102.99 2.05526 102.779 2.09056 102.532 2.12587C102.286 2.16117 102.043 2.19648 101.55 2.19648C101.096 2.19648 100.849 2.19648 100.602 2.16117C100.391 2.16117 100.148 2.12587 99.6902 2.12587H97.8658C97.3765 2.12587 97.1651 2.09056 96.9184 2.09056C96.707 2.05526 96.4643 2.05526 96.0415 2.05526C95.6187 2.05526 95.4112 2.09056 95.1998 2.12587C94.9532 2.16117 94.7104 2.19648 94.1819 2.19648C93.7278 2.19648 93.5164 2.19648 93.2698 2.23178C93.0231 2.23178 92.7804 2.26709 92.3224 2.26709C91.833 2.26709 91.5864 2.23178 91.3397 2.19648C91.1283 2.16117 90.9209 2.12587 90.4628 2.12587C90.0048 2.12587 89.7973 2.16117 89.5859 2.16117C89.3393 2.19648 89.0965 2.19648 88.6033 2.19648H86.7437C86.2543 2.19648 86.0077 2.16117 85.7611 2.12587C85.5497 2.09056 85.3422 2.05526 84.8841 2.05526H83.0598C82.6409 2.05526 82.4648 2.09056 82.2181 2.12587C81.9715 2.16117 81.7288 2.19648 81.2003 2.19648H79.3759C78.8866 2.19648 78.6752 2.16117 78.4285 2.16117C78.2171 2.12587 77.9744 2.12587 77.5164 2.12587C77.0975 2.12587 76.8861 2.16117 76.6747 2.19648C76.428 2.23178 76.1853 2.26709 75.6568 2.26709C75.1674 2.26709 74.956 2.23178 74.7094 2.23178C74.498 2.19648 74.2553 2.19648 73.7972 2.19648H71.9377C71.4836 2.19648 71.2722 2.19648 71.0608 2.23178C70.8141 2.23178 70.5714 2.26709 70.1134 2.26709C69.624 2.26709 69.3774 2.26709 69.1307 2.23178C68.9193 2.23178 68.6766 2.19648 68.2538 2.19648C67.7644 2.19648 67.553 2.16117 67.3064 2.16117C67.095 2.12587 66.8523 2.12587 66.3942 2.12587H64.5699C64.151 2.12587 63.9044 2.16117 63.693 2.19648C63.4463 2.23178 63.2036 2.26709 62.7104 2.26709C62.2171 2.26709 61.9744 2.23178 61.7277 2.19648C61.5163 2.16117 61.3088 2.12587 60.8508 2.12587C60.4319 2.12587 60.2205 2.16117 60.0091 2.19648C59.7625 2.23178 59.5197 2.26709 58.9912 2.26709C58.5019 2.26709 58.2905 2.23178 58.0438 2.23178C57.8324 2.19648 57.5897 2.19648 57.1669 2.19648C56.7128 2.19648 56.5014 2.23178 56.29 2.23178C56.0433 2.26709 55.8006 2.30239 55.3073 2.30239C54.8141 2.30239 54.5714 2.26709 54.3247 2.23178C54.1133 2.19648 53.9058 2.16117 53.4478 2.16117C53.0289 2.16117 52.8527 2.19648 52.6061 2.23178C52.3595 2.26709 52.1167 2.3377 51.5882 2.3377H49.6934C49.2041 2.3377 48.9222 2.30239 48.6756 2.23178C48.4994 2.19648 48.3585 2.16117 48.0805 2.16117V3.84797C48.0805 4.30302 48.0805 4.51485 48.1157 4.72668C48.1157 4.97381 48.151 5.18172 48.151 5.67599V7.50402C48.151 7.99437 48.151 8.2062 48.1157 8.45333C48.1157 8.66516 48.0805 8.90838 48.0805 9.33204C48.0805 9.7557 48.1157 9.99891 48.1157 10.2107C48.151 10.4579 48.151 10.7011 48.151 11.1601V12.9881C48.151 13.4784 48.1157 13.7256 48.0805 13.9727C48.0453 14.1845 48.01 14.3964 48.01 14.8161C48.01 15.2711 48.01 15.483 48.0453 15.6948C48.0453 15.9419 48.0805 16.1499 48.0805 16.6441C48.0805 17.0992 48.0805 17.3463 48.0453 17.5581C48.0453 17.77 48.01 18.0132 48.01 18.4721V20.3002C48.01 20.7238 48.0453 20.967 48.0453 21.1789C48.0805 21.426 48.0805 21.6692 48.0805 22.1282C48.0805 22.5872 48.0453 22.8657 48.0453 23.0775C48.01 23.2893 48.01 23.5012 48.01 23.9562C48.01 24.4113 48.01 24.6231 48.0453 24.8349C48.0453 25.0821 48.0805 25.3253 48.0805 25.7842C48.0805 26.2746 48.0453 26.5217 48.01 26.7689C47.9748 26.9807 47.9748 27.1925 47.9748 27.6476C47.9748 28.1026 47.9748 28.3144 48.01 28.5263C48.01 28.7734 48.0453 28.9813 48.0453 29.4756V33.0924C48.0453 33.5161 48.0805 33.724 48.1157 33.9358C48.151 34.1829 48.1862 34.4262 48.1862 34.9204C48.1862 35.4147 48.151 35.6579 48.1157 35.905C48.0805 36.1169 48.0805 36.3287 48.0805 36.7838V38.6118C48.0805 39.1021 48.0805 39.314 48.0453 39.5611C48.0453 39.7729 48.01 40.0161 48.01 40.4398V42.2678C48.01 42.6915 48.0453 42.8994 48.0453 43.1465C48.0805 43.3937 48.1157 43.6369 48.1157 44.1311C48.1157 44.6254 48.0805 44.8686 48.0453 45.1158C48.01 45.3276 48.01 45.5394 48.01 45.9945C48.01 46.4181 48.0453 46.626 48.0453 46.8732C48.0805 47.1203 48.1157 47.3635 48.1157 47.8225V51.4746C48.1157 51.965 48.0805 52.2474 48.01 52.4945C47.9748 52.7064 47.9396 52.9182 47.9396 53.3379C47.9396 53.7577 47.9748 54.0048 47.9748 54.2166C48.01 54.4638 48.01 54.707 48.01 55.166C48.01 55.6563 48.01 55.8681 47.9748 56.1153C47.9748 56.3271 47.9396 56.5703 47.9396 56.994C47.9396 57.4176 47.9748 57.6256 48.01 57.8374C48.0453 58.0845 48.0805 58.3277 48.0805 58.822C48.0805 59.2771 48.0805 59.4889 48.1157 59.736C48.1157 59.9832 48.151 60.1911 48.151 60.65C48.151 61.1404 48.1157 61.4228 48.0805 61.6347C48.0453 61.8465 48.01 62.0583 48.01 62.4781C48.01 62.9331 48.01 63.1449 48.0453 63.3568C48.0453 63.6039 48.0805 63.8471 48.0805 64.3061V66.1341C48.0805 66.5891 48.0805 66.8363 48.0453 67.0834C48.0453 67.2952 48.01 67.5385 48.01 67.9621V69.7901C48.01 70.2138 48.0453 70.4217 48.0805 70.6335C48.1157 70.8807 48.151 71.1239 48.151 71.6182C48.151 72.1124 48.151 72.3203 48.1157 72.5675C48.1157 72.7793 48.0805 73.0225 48.0805 73.4462C48.0805 73.9012 48.0453 74.1484 48.0453 74.3955C48.01 74.6073 48.01 74.8505 48.01 75.2742C48.01 75.6979 48.0453 75.9058 48.0805 76.1176C48.1157 76.3647 48.151 76.608 48.151 77.1022C48.151 77.5965 48.1157 77.8397 48.0805 78.0868C48.0453 78.2987 48.0453 78.5105 48.0453 78.9656C48.0453 79.3892 48.0805 79.5618 48.1157 79.809C48.151 80.0561 48.2214 80.2993 48.2214 80.8289C48.2214 81.3192 48.151 81.6017 48.1157 81.8488C48.0805 82.0606 48.0453 82.2725 48.0453 82.6569V86.309C48.0453 86.7327 48.0805 86.9406 48.0805 87.1877C48.1157 87.4349 48.151 87.6781 48.151 88.1723C48.151 88.6274 48.151 88.8745 48.1157 89.0864C48.1157 89.2982 48.0805 89.5414 48.0805 90.0004C48.0805 90.424 48.1157 90.6319 48.151 90.8438C48.1862 91.0909 48.2214 91.3341 48.2214 91.8284C48.2214 92.3227 48.1862 92.5659 48.151 92.813C48.1157 93.0248 48.1157 93.2367 48.1157 93.6917V97.3438C48.1157 97.8342 48.0805 98.0813 48.0805 98.2932C48.0453 98.505 48.0453 98.7168 48.0453 99.1719C48.0453 99.5955 48.0805 99.8034 48.1157 100.015C48.151 100.227 48.1862 100.4 48.1862 100.717C48.4681 100.717 48.6403 100.753 48.8517 100.753C49.0631 100.788 49.2706 100.788 49.6934 100.788H49.7287C50.1828 100.788 50.4294 100.788 50.6761 100.823C50.8875 100.823 51.1302 100.859 51.5882 100.859H55.3034C55.7576 100.859 55.969 100.859 56.2156 100.823C56.4622 100.823 56.705 100.788 57.163 100.788C57.5819 100.788 57.7933 100.753 58.0047 100.717C58.2513 100.682 58.494 100.647 59.0226 100.647C59.5119 100.647 59.7233 100.682 59.97 100.682C60.1814 100.717 60.4241 100.717 60.8821 100.717H61.759C62.0057 100.717 62.2484 100.682 62.7417 100.682C63.2349 100.682 63.4777 100.682 63.6891 100.717C63.9005 100.717 64.1432 100.753 64.566 100.753H66.9501C67.1263 100.753 67.2673 100.788 67.4043 100.788C67.6157 100.823 67.8232 100.859 68.2812 100.859C68.7392 100.859 68.9467 100.859 69.1934 100.823C69.44 100.823 69.6827 100.788 70.1408 100.788C70.5988 100.788 70.8415 100.788 71.0882 100.823C71.2996 100.823 71.5423 100.859 72.0003 100.859C72.4192 100.859 72.6306 100.823 72.842 100.788C73.0887 100.753 73.3314 100.717 73.8599 100.717H75.7194C76.1736 100.717 76.4202 100.717 76.6316 100.682C76.8782 100.682 77.0857 100.647 77.579 100.647C78.0723 100.647 78.2798 100.682 78.5264 100.682C78.7378 100.717 78.9805 100.717 79.4033 100.717C79.8575 100.717 80.0689 100.717 80.3155 100.682C80.5621 100.682 80.8048 100.647 81.2629 100.647H83.1224C83.5766 100.647 83.8232 100.647 84.0698 100.682C84.2812 100.682 84.524 100.717 84.982 100.717C85.44 100.717 85.6475 100.717 85.8589 100.682C86.1056 100.682 86.3483 100.647 86.8063 100.647C87.2957 100.647 87.5423 100.682 87.789 100.717C88.0004 100.753 88.2079 100.788 88.6659 100.788C89.0848 100.788 89.2962 100.753 89.5076 100.717C89.7542 100.682 89.9969 100.647 90.5255 100.647H92.385C92.8391 100.647 93.0858 100.647 93.3324 100.682C93.5438 100.682 93.7865 100.717 94.2446 100.717H101.573C102.027 100.717 102.239 100.682 102.45 100.682C102.697 100.647 102.939 100.612 103.433 100.612C103.957 100.612 104.204 100.647 104.451 100.682C104.662 100.717 104.87 100.753 105.292 100.753H107.117C107.536 100.753 107.782 100.717 107.994 100.682C108.24 100.647 108.483 100.612 108.976 100.612C109.43 100.612 109.642 100.612 109.853 100.576C110.1 100.576 110.342 100.541 110.836 100.541H112.695C113.185 100.541 113.467 100.576 113.713 100.612C113.889 100.647 114.03 100.682 114.273 100.682H114.555C115.009 100.682 115.22 100.647 115.432 100.612C115.678 100.576 115.921 100.541 116.414 100.541C116.869 100.541 117.115 100.541 117.362 100.576C117.573 100.576 117.816 100.612 118.274 100.612C118.732 100.612 118.94 100.612 119.186 100.576C119.327 100.576 119.503 100.541 119.746 100.541H120.165C120.552 100.541 120.795 100.541 121.007 100.576H121.148C121.359 100.612 121.566 100.612 121.989 100.612H122.024C122.479 100.612 122.69 100.576 122.937 100.576C123.183 100.541 123.426 100.541 123.884 100.541C124.342 100.541 124.585 100.541 124.831 100.576C125.043 100.576 125.286 100.612 125.744 100.612H127.603C128.022 100.612 128.233 100.576 128.48 100.576C128.727 100.541 128.969 100.506 129.463 100.506C129.956 100.506 130.199 100.541 130.445 100.541C130.657 100.576 130.899 100.576 131.322 100.576H133.006V98.96C133.006 98.5364 132.97 98.3638 132.935 98.1166C132.9 97.8695 132.829 97.6263 132.829 97.0967C132.829 96.6417 132.829 96.3945 132.865 96.1474C132.794 96.0768 132.794 95.8336 132.794 95.3746L132.806 95.3432ZM83.2595 55.8838V56.7978C83.2595 57.2882 83.2595 57.5 83.2242 57.7472C83.2242 57.959 83.189 58.2022 83.189 58.6259V60.4539C83.189 60.8775 83.2242 61.1208 83.2242 61.3326C83.2595 61.5797 83.2947 61.8229 83.2947 62.2819C83.2947 62.7723 83.2595 63.0194 83.2242 63.2665C83.189 63.4784 83.189 63.6902 83.189 64.1452C83.189 64.6003 83.2242 64.7768 83.2242 65.0239C83.2595 65.2711 83.2947 65.5143 83.2947 66.0086V69.6607C83.2947 70.151 83.2595 70.4335 83.189 70.6806C83.1538 70.8924 83.1185 71.1043 83.1185 71.524C83.1185 71.9437 83.1538 72.1556 83.1538 72.4027C83.189 72.6499 83.189 72.8931 83.189 73.3873C83.189 73.8816 83.1538 74.0895 83.1538 74.3367C83.1185 74.5485 83.1185 74.7603 83.1185 75.2154C83.1185 75.639 83.1538 75.8469 83.189 76.0588C83.2242 76.3059 83.2595 76.5491 83.2595 77.0434C83.2595 77.4984 83.2595 77.7103 83.2947 77.9574C83.2947 78.2045 83.3299 78.4124 83.3299 78.9067C83.3299 79.401 83.2947 79.6442 83.2595 79.8913C83.2242 80.1032 83.189 80.315 83.189 80.7347C83.189 81.1898 83.189 81.4016 83.2242 81.6134C83.2242 81.8606 83.2595 82.0685 83.2595 82.5275V84.3555C83.2595 84.8105 83.2595 85.0577 83.2242 85.3048C83.2242 85.5166 83.189 85.7598 83.189 86.2188V88.0468C83.189 88.4705 83.2242 88.6784 83.2595 88.8902C83.2947 89.1374 83.3299 89.3806 83.3299 89.8395C83.3299 90.3299 83.3299 90.5417 83.2947 90.7889C83.2947 91.0007 83.2595 91.2439 83.2595 91.6676C83.2595 92.1579 83.2595 92.3697 83.2242 92.6169C83.2242 92.8287 83.189 93.0719 83.189 93.4956C83.189 93.9192 83.2242 94.1272 83.2595 94.339C83.2947 94.5861 83.3299 94.8293 83.3299 95.3236C83.3299 95.8179 83.2947 96.0611 83.2595 96.3082C83.2242 96.5201 83.2242 96.7319 83.2242 97.1869C83.2242 97.6773 82.9424 98.0656 82.5235 98.0656C81.9989 98.0656 81.7522 97.995 81.5056 97.9597C81.2942 97.9244 81.0867 97.8891 80.6992 97.8891H77.0505C76.6316 97.8891 76.4202 97.9244 76.1736 97.9244C75.9269 97.9597 75.6842 97.9597 75.1909 97.9597C74.7368 97.9597 74.4902 97.9597 74.2435 97.9244C74.0321 97.9244 73.7894 97.8891 73.3666 97.8891C72.9438 97.8891 72.7363 97.9244 72.5249 97.9597C72.2783 97.995 72.0356 98.0303 71.5423 98.0303C71.049 98.0303 70.8063 97.995 70.5597 97.9597C70.3483 97.9244 70.1408 97.9244 69.718 97.9244H66.0693C65.5799 97.9244 65.3685 97.8891 65.1219 97.8891C64.9105 97.8538 64.703 97.8538 64.245 97.8538C63.7869 97.8538 63.5795 97.8891 63.3681 97.9244C63.3328 97.9244 63.2623 97.9244 63.2271 97.9597C63.1566 98.0303 63.0509 98.0656 62.91 98.0656C62.8043 98.0656 62.7338 98.0303 62.6634 97.995H62.3815C61.9274 97.995 61.6807 97.995 61.4341 97.9597C61.2227 97.9597 60.98 97.9244 60.5572 97.9244C60.0678 97.9244 59.8212 97.8891 59.5745 97.8891C59.3631 97.8538 59.1557 97.8538 58.6976 97.8538C58.2396 97.8538 57.9969 97.8538 57.7502 97.8185C57.5388 97.8185 57.2961 97.7832 56.8381 97.7832H53.1894C52.7353 97.7832 52.5239 97.7832 52.3125 97.8185C52.0658 97.8185 51.8584 97.8538 51.3651 97.8538C50.8718 97.8538 50.4882 97.5361 50.4882 97.1163C50.4882 96.626 50.5234 96.3788 50.5234 96.167C50.5586 95.9552 50.5586 95.7433 50.5586 95.2883C50.5586 94.8333 50.5586 94.6214 50.5234 94.4096C50.5234 94.1625 50.4882 93.9192 50.4882 93.4603C50.4882 93.0013 50.4882 92.7581 50.5234 92.511C50.5234 92.2991 50.5586 92.0873 50.5586 91.6323V89.8042C50.5586 89.3139 50.5939 89.0667 50.6291 88.8196C50.6643 88.6078 50.6996 88.396 50.6996 87.9762V86.1482C50.6996 85.6578 50.6996 85.446 50.7348 85.1989C50.7348 84.987 50.77 84.7438 50.77 84.3202C50.77 83.8965 50.7348 83.6886 50.6996 83.4768C50.6643 83.2296 50.6291 82.9864 50.6291 82.4921V80.6288C50.6291 80.1738 50.6291 79.9619 50.5939 79.7148C50.5939 79.4677 50.5586 79.2598 50.5586 78.7655C50.5586 78.2712 50.5939 78.028 50.5939 77.8162C50.6291 77.6043 50.6291 77.3925 50.6291 76.9375C50.6291 76.4824 50.6291 76.2706 50.5939 76.0588C50.5939 75.8116 50.5586 75.5684 50.5586 75.1094V73.2814C50.5586 72.8264 50.5586 72.5792 50.5939 72.3321C50.5939 72.1203 50.6291 71.8771 50.6291 71.4534C50.6291 70.9984 50.6291 70.7865 50.5939 70.5747C50.5939 70.3276 50.5586 70.1197 50.5586 69.6254C50.5586 69.1311 50.5939 68.8879 50.6291 68.6408C50.6643 68.4289 50.6996 68.2171 50.6996 67.7974C50.6996 67.3776 50.6643 67.1658 50.6291 66.954C50.5939 66.7068 50.5586 66.4636 50.5586 66.0046V64.1766C50.5586 63.7216 50.5586 63.4744 50.5939 63.2273C50.5939 63.0155 50.6291 62.7723 50.6291 62.3486V55.0404C50.6291 54.6168 50.5939 54.4089 50.5939 54.1617C50.5586 53.9146 50.5234 53.6714 50.5234 53.1771C50.5234 52.7221 50.9775 52.369 51.3651 52.369H53.1894C53.6435 52.369 53.8549 52.369 54.0663 52.3337C54.313 52.3337 54.5205 52.2984 55.0137 52.2984H56.8381C57.3274 52.2984 57.5388 52.2984 57.7855 52.3337C57.9969 52.3337 58.2396 52.369 58.6624 52.369C59.0852 52.369 59.3279 52.3337 59.5393 52.3337C59.786 52.2984 60.0287 52.2984 60.4867 52.2984H62.311C62.5577 52.2984 62.7652 52.2984 62.9061 52.3337C63.047 52.3337 63.188 52.369 63.325 52.4043C63.5364 52.4396 63.7439 52.4749 64.1314 52.4749C64.5856 52.4749 64.797 52.4749 65.0084 52.4396C65.255 52.4396 65.4625 52.4043 65.9558 52.4043C66.4099 52.4043 66.6565 52.4043 66.9032 52.4396C67.1146 52.4396 67.3573 52.4749 67.8153 52.4749H69.6397C70.0586 52.4749 70.3052 52.4396 70.5166 52.4396C70.7632 52.4043 71.0059 52.4043 71.464 52.4043C71.9533 52.4043 72.2 52.4396 72.4466 52.4749C72.658 52.5102 72.8655 52.5102 73.2883 52.5102C73.7424 52.5102 73.9538 52.5102 74.1652 52.4749C74.4119 52.4749 74.6546 52.4396 75.1126 52.4396C75.602 52.4396 75.8486 52.4749 76.0953 52.5102C76.3067 52.5455 76.5142 52.5455 76.937 52.5455C77.3911 52.5455 77.6025 52.5455 77.8491 52.5102C78.0958 52.5102 78.3033 52.4749 78.7965 52.4749H82.4452C82.9345 52.4749 83.2869 52.7927 83.2869 53.1771C83.2869 53.6675 83.2516 53.9146 83.2164 54.1617C83.1812 54.3736 83.1812 54.5854 83.1812 55.0404C83.2164 55.4249 83.2164 55.6367 83.2516 55.8799L83.2595 55.8838ZM83.3299 13.5098C83.3652 13.757 83.3652 14.0002 83.3652 14.4591V16.2872C83.3652 16.7775 83.3299 17.0246 83.2947 17.2718C83.2595 17.4836 83.2242 17.6954 83.2242 18.1152C83.2242 18.5702 83.2242 18.782 83.2595 19.0292C83.2595 19.2763 83.2947 19.4842 83.2947 19.9432C83.2947 20.4022 83.2947 20.6454 83.2595 20.8925C83.2595 21.1043 83.2242 21.3476 83.2242 21.8065V23.6345C83.2242 24.0582 83.2595 24.3014 83.2595 24.5133C83.2947 24.7604 83.2947 25.0036 83.2947 25.4626C83.2947 25.9529 83.2595 26.2001 83.2242 26.4472C83.189 26.659 83.189 26.8708 83.189 27.2906C83.189 27.7456 83.189 27.9575 83.2242 28.1693C83.2242 28.4164 83.2595 28.6596 83.2595 29.1186C83.2595 29.609 83.2242 29.8561 83.189 30.1032C83.1538 30.3151 83.1538 30.5269 83.1538 30.9819C83.1538 31.437 83.1538 31.6488 83.189 31.896C83.189 32.1431 83.2242 32.351 83.2242 32.8453V36.4621C83.2242 36.8857 83.2595 37.0937 83.2947 37.3055C83.3299 37.5526 83.3652 37.7958 83.3652 38.2901C83.3652 38.7844 83.3299 39.0276 83.2947 39.2747C83.2595 39.4866 83.2595 39.6984 83.2595 40.1181V41.9461C83.2595 42.4365 83.2595 42.6483 83.2242 42.8955C83.2242 43.1073 83.189 43.3505 83.189 43.7742V45.6022C83.189 46.0259 83.2242 46.2338 83.2242 46.4809C83.2595 46.728 83.2947 46.9712 83.2947 47.4655C83.2947 47.9598 83.2595 48.203 83.2242 48.4501C83.189 48.662 83.189 48.8738 83.189 49.3288C83.189 49.7839 82.8719 50.1369 82.453 50.1369H78.8396C78.3502 50.1369 78.0684 50.1016 77.8217 50.031C77.6103 49.9957 77.4028 49.9604 76.98 49.9604C76.5259 49.9604 76.3145 49.9604 76.1031 49.9957C75.8565 49.9957 75.649 50.031 75.1557 50.031C74.6624 50.031 74.4549 50.031 74.2083 49.9957C73.9969 49.9957 73.7542 49.9604 73.3314 49.9604C72.9086 49.9604 72.7011 49.9957 72.4897 50.031C72.243 50.0663 72.0003 50.1016 71.507 50.1016C71.0529 50.1016 70.8415 50.1016 70.6301 50.1369C70.3835 50.1369 70.176 50.1722 69.6827 50.1722C69.1895 50.1722 68.9115 50.1369 68.7001 50.1016C68.4887 50.0663 68.2812 50.031 67.8584 50.031C67.4043 50.031 67.1929 50.031 66.9815 50.0663C66.7348 50.0663 66.4921 50.1016 66.0341 50.1016H64.2097C63.6499 50.1016 63.4385 50.1016 63.1566 50.0663H63.1214C63.0509 50.1016 62.9805 50.1016 62.91 50.1016C62.8395 50.1016 62.7338 50.0663 62.6634 50.031H60.5611C60.1422 50.031 59.9308 50.0663 59.7194 50.1016C59.4728 50.1369 59.23 50.1722 58.7368 50.1722C58.2435 50.1722 58.036 50.1369 57.7894 50.1369C57.578 50.1369 57.3352 50.1016 56.9124 50.1016C56.4231 50.1016 56.1764 50.0663 55.965 50.0663C55.7536 50.031 55.5462 50.031 55.0881 50.031C54.6692 50.031 54.4578 50.0663 54.2464 50.1016C53.9998 50.1369 53.7571 50.1722 53.2638 50.1722C52.7705 50.1722 52.5278 50.1369 52.2812 50.1016C52.0698 50.0663 51.8623 50.0663 51.4395 50.0663C50.9501 50.0663 50.5625 49.7839 50.5625 49.3642C50.5625 48.8385 50.633 48.5914 50.6682 48.3442C50.7035 48.1324 50.7387 47.9598 50.7387 47.5361V43.9193C50.7387 43.4957 50.7035 43.2877 50.7035 43.0406C50.6682 42.7935 50.633 42.5503 50.633 42.056C50.633 41.6009 50.633 41.3538 50.6682 41.142C50.6682 40.9301 50.7035 40.6869 50.7035 40.228C50.7035 39.8043 50.6682 39.5964 50.6682 39.3846C50.633 39.1374 50.5978 38.8942 50.5978 38.3999C50.5978 37.9057 50.633 37.6625 50.6682 37.4153C50.7035 37.2035 50.7035 36.9917 50.7035 36.5366V32.8845C50.7035 32.3941 50.7387 32.147 50.7387 31.9352C50.7739 31.7233 50.7739 31.5115 50.7739 31.0565C50.7739 30.6328 50.7387 30.4249 50.7035 30.2131C50.6682 29.9659 50.633 29.7227 50.633 29.2284C50.633 28.7342 50.633 28.5263 50.6682 28.2791C50.6682 28.0673 50.7035 27.8241 50.7035 27.4004C50.7035 26.9101 50.7387 26.6629 50.7739 26.4511C50.8092 26.2393 50.8092 26.0275 50.8092 25.5724C50.8092 25.1174 50.8092 24.8702 50.8444 24.6231C50.8444 24.4113 50.8796 24.168 50.8796 23.7091V20.057C50.8796 19.6019 50.8796 19.3901 50.8444 19.1429C50.8444 18.8958 50.8092 18.6879 50.8092 18.1936C50.8092 17.77 50.7739 17.5621 50.7387 17.3502C50.7035 17.1031 50.6682 16.8599 50.6682 16.3656C50.6682 15.8713 50.7035 15.6281 50.7035 15.4163C50.7387 15.2045 50.7387 14.9926 50.7387 14.5376C50.7387 14.0825 50.7387 13.8707 50.7035 13.6589C50.7035 13.4117 50.6682 13.2038 50.6682 12.7449C50.6682 12.2859 50.6682 12.0427 50.7035 11.8309C50.7035 11.619 50.7387 11.3758 50.7387 10.9168V9.08883C50.7387 8.59848 50.7739 8.35134 50.8092 8.1042C50.8444 7.89237 50.8796 7.68054 50.8796 7.2608V5.43278C50.8796 5.25626 50.9501 4.76591 51.6156 4.76591C52.0345 4.76591 52.2459 4.7306 52.4573 4.6953C52.704 4.65999 52.9467 4.62469 53.44 4.62469H55.2643C55.7184 4.62469 55.9298 4.62469 56.1412 4.58938C56.3878 4.58938 56.5953 4.55408 57.0886 4.55408C57.5819 4.55408 57.7894 4.58938 58.036 4.58938C58.2474 4.62469 58.4549 4.62469 58.9129 4.62469C59.371 4.62469 59.5785 4.62469 59.7899 4.58938C60.0365 4.58938 60.2792 4.55408 60.7373 4.55408H62.5616C62.5968 4.55408 62.6673 4.55408 62.7025 4.58938C62.773 4.62469 62.8787 4.62469 62.9844 4.62469H63.5442C63.7204 4.62469 63.9318 4.65999 64.3154 4.65999C64.7696 4.65999 64.981 4.65999 65.2276 4.62469C65.4742 4.62469 65.6817 4.58938 66.175 4.58938C66.6683 4.58938 66.9462 4.62469 67.1576 4.65999C67.369 4.6953 67.5765 4.7306 67.9993 4.7306C68.4221 4.7306 68.6296 4.6953 68.841 4.65999C69.0877 4.62469 69.3304 4.58938 69.8237 4.58938H71.648C72.1021 4.58938 72.3487 4.58938 72.5954 4.62469C72.8068 4.62469 73.0495 4.65999 73.4723 4.65999H80.8362C81.2551 4.65999 81.4665 4.62469 81.6779 4.62469C81.9245 4.58938 82.1672 4.55408 82.6605 4.55408C83.1146 4.55408 83.5022 5.00912 83.5022 5.39748V7.2255C83.5022 7.68054 83.5022 7.89237 83.5374 8.13951C83.5374 8.38665 83.5727 8.59455 83.5727 9.05352V10.8815C83.5727 11.3719 83.5727 11.5837 83.5374 11.8309C83.5374 12.0427 83.5022 12.2545 83.5022 12.7096C83.2908 13.094 83.326 13.3058 83.326 13.5177L83.3299 13.5098ZM85.8198 46.575V45.661C85.8198 45.1707 85.8198 44.9589 85.855 44.7117C85.855 44.4999 85.8903 44.2881 85.8903 43.833V42.005C85.8903 41.5813 85.855 41.3734 85.855 41.1616C85.8198 40.9145 85.7846 40.6712 85.7846 40.177C85.7846 39.6827 85.8198 39.4395 85.855 39.2276C85.8903 39.0158 85.8903 38.804 85.8903 38.3489C85.8903 37.9253 85.855 37.7174 85.855 37.4702C85.8198 37.2231 85.7846 36.9799 85.7846 36.4856V32.8335C85.7846 32.3431 85.8198 32.0607 85.8903 31.8136C85.9255 31.6017 85.9607 31.3899 85.9607 30.9702C85.9607 30.5151 85.9607 30.3033 85.9255 30.0915C85.9255 29.8443 85.8903 29.6011 85.8903 29.1421C85.8903 28.6832 85.8903 28.44 85.9255 28.1928C85.9255 27.981 85.9607 27.7378 85.9607 27.3141C85.9607 26.8905 85.9255 26.6826 85.8903 26.4707C85.855 26.2236 85.8198 25.9804 85.8198 25.4861C85.8198 25.0311 85.8198 24.8192 85.7846 24.5721C85.7846 24.325 85.7493 24.117 85.7493 23.6228C85.7493 23.1285 85.7846 22.8853 85.8198 22.6382C85.855 22.4263 85.8903 22.2145 85.8903 21.7948C85.8903 21.3397 85.8903 21.1279 85.855 20.916C85.855 20.6689 85.8198 20.4257 85.8198 19.9667V18.1387C85.8198 17.6837 85.8198 17.4365 85.855 17.1894C85.855 16.9776 85.8903 16.7343 85.8903 16.2754V14.4474C85.8903 14.0237 85.855 13.8158 85.8198 13.604C85.7846 13.3568 85.7493 13.1136 85.7493 12.6546C85.7493 12.1957 85.7493 11.9525 85.7846 11.7053C85.7846 11.4935 85.8198 11.2503 85.8198 10.8266C85.8198 10.3363 85.8198 10.1244 85.855 9.87731C85.855 9.66548 85.8903 9.42226 85.8903 8.9986C85.8903 8.57494 85.855 8.36703 85.8198 8.1552C85.7846 7.90806 85.7493 7.66485 85.7493 7.17058C85.7493 6.67631 85.7846 6.43309 85.8198 6.18596C85.855 5.97413 85.855 5.7623 85.855 5.30725C85.855 4.8169 86.1369 4.42855 86.5558 4.42855C87.0451 4.42855 87.327 4.49916 87.5737 4.53446C87.7851 4.56977 87.9925 4.60507 88.3801 4.60507H92.0288C92.4477 4.60507 92.6591 4.56977 92.8705 4.56977C93.1171 4.53446 93.3598 4.49916 93.8531 4.49916C94.3072 4.49916 94.5538 4.49916 94.8005 4.53446C95.0119 4.53446 95.2546 4.56977 95.6774 4.56977C96.1002 4.56977 96.3077 4.53446 96.5191 4.53446C96.7657 4.49916 97.0085 4.46385 97.5017 4.46385C97.8188 4.49916 97.9559 4.46385 98.132 4.49916C98.3082 4.49916 98.4139 4.53446 98.5509 4.53446C98.7623 4.56977 98.9698 4.56977 99.3574 4.56977H103.037C103.527 4.56977 103.773 4.60507 104.02 4.60507C104.231 4.64038 104.439 4.64038 104.897 4.64038C105.316 4.64038 105.527 4.60507 105.739 4.56977C105.985 4.53446 106.228 4.49916 106.721 4.49916C107.215 4.49916 107.422 4.49916 107.669 4.53446C107.88 4.53446 108.123 4.56977 108.546 4.56977C109.035 4.56977 109.282 4.60507 109.528 4.64038C109.74 4.67568 109.947 4.67568 110.37 4.67568C110.824 4.67568 111.071 4.67568 111.317 4.71099C111.529 4.71099 111.771 4.74629 112.194 4.74629H115.843C116.297 4.74629 116.508 4.74629 116.72 4.71099C116.966 4.71099 117.174 4.67568 117.667 4.67568C118.16 4.67568 118.544 4.99343 118.544 5.41317C118.544 5.90352 118.509 6.15065 118.509 6.36248C118.474 6.57431 118.474 6.78615 118.474 7.24119C118.474 7.69623 118.474 7.90806 118.509 8.1199C118.509 8.36703 118.544 8.57494 118.544 9.03391C118.544 9.49287 118.544 9.73609 118.509 9.94792C118.509 10.1597 118.474 10.403 118.474 10.8619V12.6899C118.474 13.1803 118.438 13.4274 118.403 13.6746C118.368 13.8864 118.333 14.0982 118.333 14.5533C118.333 15.0083 118.333 15.2202 118.368 15.432C118.368 15.6791 118.403 15.887 118.403 16.3813C118.403 16.8756 118.403 17.0835 118.368 17.3306C118.368 17.5424 118.333 17.7857 118.333 18.2093C118.333 18.633 118.368 18.8409 118.403 19.0527C118.438 19.2999 118.474 19.5431 118.474 20.002V21.8301C118.474 22.2851 118.474 22.4969 118.509 22.7441C118.509 22.9912 118.544 23.1991 118.544 23.6934C118.544 24.1877 118.509 24.4309 118.509 24.6427C118.474 24.8545 118.474 25.0664 118.474 25.5214C118.474 25.9765 118.474 26.1883 118.509 26.4001C118.509 26.6473 118.544 26.8552 118.544 27.3141V29.1421C118.544 29.5972 118.544 29.8443 118.509 30.0915C118.509 30.3033 118.474 30.5465 118.474 31.0055C118.474 31.4644 118.474 31.6723 118.509 31.9195C118.509 32.1666 118.544 32.3745 118.544 32.8688C118.544 33.3631 118.509 33.6416 118.474 33.8534C118.438 34.0653 118.403 34.2771 118.403 34.6615C118.403 35.0852 118.438 35.2931 118.474 35.5049C118.509 35.7521 118.544 35.9953 118.544 36.4895V38.3176C118.544 38.7726 118.544 39.0197 118.509 39.2669C118.509 39.4787 118.474 39.7219 118.474 40.1456V47.4538C118.474 47.8774 118.509 48.0853 118.509 48.3325C118.544 48.5796 118.579 48.8228 118.579 49.3171C118.579 49.7721 118.125 50.1252 117.738 50.1252H115.913C115.459 50.1252 115.248 50.1252 115.001 50.1605C114.755 50.1605 114.547 50.1958 114.054 50.1958H112.229C111.74 50.1958 111.529 50.1605 111.282 50.1605C111.071 50.1605 110.828 50.1252 110.405 50.1252C109.982 50.1252 109.74 50.1605 109.528 50.1605C109.282 50.1958 109.039 50.1958 108.581 50.1958H106.756C106.267 50.1958 105.985 50.1605 105.774 50.1252C105.562 50.0899 105.355 50.0546 104.932 50.0546C104.478 50.0546 104.267 50.0546 104.055 50.0899C103.809 50.0899 103.601 50.1252 103.108 50.1252C102.654 50.1252 102.407 50.1252 102.16 50.0899C101.949 50.0899 101.706 50.0546 101.284 50.0546H98.7937L98.5118 50.0899C98.4413 50.0899 98.3708 50.0899 98.3004 50.1252H98.2651C98.089 50.1252 97.9128 50.1605 97.6348 50.1605C97.1455 50.1605 96.8989 50.1252 96.6522 50.0899C96.4408 50.0546 96.2333 50.0546 95.8105 50.0546C95.3564 50.0546 95.145 50.0546 94.9336 50.0899C94.687 50.0899 94.4442 50.1252 93.9862 50.1252C93.4968 50.1252 93.2502 50.0899 93.0036 50.0546C92.7922 50.0193 92.5847 50.0193 92.1266 50.0193C91.6686 50.0193 91.4611 50.0193 91.2145 50.0546C90.9678 50.0546 90.7603 50.0899 90.2671 50.0899H86.6184C86.1291 50.0899 85.7767 49.7721 85.7767 49.3877C85.7767 48.8973 85.812 48.6502 85.8472 48.4031C85.8824 48.1912 85.8824 47.9794 85.8824 47.5597C85.812 47.0379 85.812 46.7908 85.812 46.579L85.8198 46.575ZM113.979 97.9087C113.525 97.9087 113.314 97.9087 113.067 97.944C112.821 97.944 112.613 97.9793 112.12 97.9793C111.627 97.9793 111.384 97.944 111.172 97.944C110.961 97.9087 110.754 97.9087 110.296 97.9087C109.837 97.9087 109.63 97.9087 109.419 97.944C109.172 97.944 108.929 97.9793 108.471 97.9793H106.647C106.193 97.9793 105.946 97.9793 105.699 97.944C105.488 97.944 105.245 97.9087 104.823 97.9087C104.368 97.9087 104.157 97.9087 103.946 97.944C103.699 97.944 103.491 97.9793 102.998 97.9793C102.505 97.9793 102.262 97.944 102.016 97.9087C101.804 97.8734 101.597 97.8381 101.174 97.8381C100.751 97.8381 100.544 97.8734 100.332 97.9087C100.086 97.944 99.8428 97.9793 99.3496 97.9793H98.4726C98.3669 98.0499 98.2612 98.1206 98.1555 98.1206C98.0498 98.1206 97.9089 98.0853 97.8384 97.9793H97.5565C97.1024 97.9793 96.8558 97.9793 96.6092 97.944C96.3978 97.944 96.155 97.9087 95.7322 97.9087H88.4388C88.0199 97.9087 87.8085 97.944 87.5619 97.944C87.3153 97.9793 87.0725 98.0146 86.5793 98.0146C86.1251 98.0146 85.7728 97.5596 85.7728 97.1712V95.3432C85.7728 94.8882 85.7728 94.6763 85.7376 94.4292C85.7376 94.1821 85.7023 93.9742 85.7023 93.4799V91.6872C85.7023 91.1968 85.7023 90.985 85.7376 90.7379C85.7376 90.526 85.7728 90.3142 85.7728 89.8592C85.7728 89.4355 85.7376 89.1923 85.7376 88.9804C85.7023 88.7333 85.7023 88.4901 85.7023 88.0311V86.2031C85.7023 85.7128 85.7376 85.4656 85.7728 85.2185C85.808 85.0067 85.8433 84.7948 85.8433 84.3751C85.8433 83.92 85.8433 83.7082 85.808 83.4611C85.808 83.2139 85.7728 83.006 85.7728 82.5118C85.7728 82.0175 85.7728 81.8096 85.808 81.5624C85.808 81.3506 85.8433 81.1074 85.8433 80.6484C85.8433 80.1895 85.8433 79.9816 85.808 79.7344C85.808 79.4873 85.7728 79.2794 85.7728 78.7851C85.7728 78.3614 85.7376 78.1182 85.7376 77.9064C85.7023 77.6593 85.7023 77.4161 85.7023 76.9571C85.7023 76.4667 85.7376 76.2196 85.7728 75.9725C85.808 75.7606 85.808 75.5488 85.808 75.0938C85.808 74.6387 85.808 74.4269 85.7728 74.215C85.7728 73.9679 85.7376 73.76 85.7376 73.2657C85.7376 72.7715 85.7728 72.5283 85.808 72.2811C85.8433 72.0693 85.8433 71.8575 85.8433 71.4024C85.8433 70.9474 85.8433 70.7355 85.808 70.4884C85.808 70.2413 85.7728 70.0334 85.7728 69.5391V65.887C85.7728 65.4633 85.7376 65.2554 85.7023 65.0436C85.6671 64.7964 85.6319 64.5532 85.6319 64.0589C85.6319 63.5647 85.6671 63.3215 85.7023 63.0743C85.7376 62.8625 85.7376 62.6507 85.7376 62.1956V60.3323C85.7376 59.8772 85.7376 59.6301 85.7728 59.383C85.7728 59.1711 85.808 58.9279 85.808 58.5043V56.6762C85.808 56.2526 85.7728 56.0447 85.7728 55.7975C85.7376 55.5504 85.7023 55.3072 85.7023 54.8129C85.7023 54.3186 85.7376 54.0754 85.7728 53.8283C85.808 53.6165 85.808 53.4046 85.808 52.9496C85.808 52.4945 86.1252 52.1415 86.544 52.1415H90.1927C90.6821 52.1415 90.9639 52.1768 91.2106 52.2474C91.422 52.2827 91.6294 52.318 92.0523 52.318C92.5064 52.318 92.7178 52.318 92.9292 52.2827C93.1758 52.2827 93.4185 52.2474 93.8766 52.2474C94.3659 52.2474 94.5773 52.2474 94.824 52.2827C95.0354 52.2827 95.2781 52.318 95.7009 52.318C96.1237 52.318 96.3312 52.2827 96.5426 52.2474C96.7892 52.2121 97.032 52.1768 97.5252 52.1768H98.2965C98.5783 52.1768 98.7858 52.1415 99.3496 52.1415C99.8389 52.1415 100.121 52.1768 100.332 52.2121C100.544 52.2474 100.751 52.2827 101.174 52.2827C101.628 52.2827 101.839 52.2827 102.051 52.2474C102.297 52.2121 102.54 52.2121 102.998 52.2121H104.823C105.277 52.2121 105.523 52.2121 105.77 52.2474C105.981 52.2474 106.224 52.2827 106.647 52.2827H108.471C108.89 52.2827 109.101 52.2474 109.313 52.2121C109.56 52.1768 109.802 52.1415 110.296 52.1415C110.789 52.1415 110.996 52.1415 111.243 52.1768C111.454 52.1768 111.697 52.2121 112.12 52.2121C112.609 52.2121 112.856 52.2474 113.067 52.2474C113.279 52.2827 113.486 52.2827 113.944 52.2827C114.363 52.2827 114.574 52.2474 114.786 52.2121C115.033 52.1768 115.275 52.1415 115.769 52.1415C116.262 52.1415 116.504 52.1768 116.751 52.2121C116.963 52.2474 117.17 52.2474 117.593 52.2474C118.082 52.2474 118.47 52.5298 118.47 52.9496C118.47 53.4399 118.399 53.7224 118.364 53.9695C118.329 54.1813 118.294 54.3932 118.294 54.7776V58.4297C118.294 58.8534 118.329 59.0966 118.329 59.3084C118.364 59.5556 118.399 59.7988 118.399 60.2577C118.399 60.7167 118.399 60.9599 118.364 61.2071C118.364 61.4189 118.329 61.6621 118.329 62.0858C118.329 62.5094 118.364 62.7173 118.399 62.9292C118.435 63.1763 118.47 63.4195 118.47 63.9138C118.47 64.4081 118.435 64.6513 118.399 64.8984C118.364 65.1102 118.364 65.3221 118.364 65.7771V69.4292C118.364 69.9196 118.329 70.1667 118.329 70.3786C118.294 70.5904 118.294 70.8022 118.294 71.2573C118.294 71.6809 118.329 71.8888 118.364 72.1007C118.399 72.3478 118.435 72.591 118.435 73.1206C118.435 73.5756 118.435 73.8228 118.399 74.0699C118.399 74.2817 118.364 74.5249 118.364 74.9486C118.364 75.439 118.329 75.6861 118.294 75.9332C118.258 76.1451 118.258 76.3569 118.258 76.8119C118.258 77.267 118.258 77.5141 118.223 77.7613C118.223 77.9731 118.188 78.2163 118.188 78.64V82.2568C118.188 82.7118 118.188 82.9237 118.223 83.1355C118.223 83.3826 118.258 83.5905 118.258 84.0848C118.258 84.5085 118.294 84.7164 118.329 84.9282C118.364 85.1753 118.399 85.4185 118.399 85.9128C118.399 86.4071 118.364 86.615 118.364 86.8621C118.329 87.074 118.329 87.2858 118.329 87.7408C118.329 88.1959 118.329 88.4077 118.364 88.6196C118.364 88.8667 118.399 89.0746 118.399 89.5336C118.399 89.9925 118.399 90.2357 118.364 90.4829C118.364 90.6947 118.329 90.9379 118.329 91.3969V93.2249C118.329 93.7153 118.294 93.9624 118.258 94.2095C118.223 94.4214 118.188 94.6332 118.188 95.0529C118.188 95.508 118.188 95.7198 118.223 95.9316C118.223 96.1788 118.258 96.3867 118.258 96.881C118.258 97.0575 118.188 97.5478 117.522 97.5478C117.103 97.5478 116.892 97.5831 116.681 97.6184C116.434 97.6537 116.191 97.689 115.698 97.689H114.786C114.68 97.9009 114.434 97.9009 113.979 97.9009V97.9087Z" fill="#F5F3F1"/>
</svg>
