<svg width="180" height="180" viewBox="0 0 180 180" fill="none" xmlns="http://www.w3.org/2000/svg">
<path d="M112.457 32.942C113.196 37.1362 113.793 41.3304 114.358 45.3829C115.026 50.246 115.729 55.2861 116.75 60.3262C116.962 61.7348 116.997 62.439 117.032 63.1473C117.068 63.8555 117.103 64.5204 117.315 65.8621C117.527 67.2352 117.669 67.9041 117.806 68.5769C117.947 69.2457 118.089 69.95 118.297 71.3271C118.474 72.5271 118.65 73.6524 118.823 74.817C118.929 74.7108 119.035 74.6045 119.212 74.4983C119.389 74.3567 119.601 74.3921 119.738 74.5691C119.774 74.6045 119.774 74.64 119.774 74.64L121.25 73.5462C121.109 72.7357 120.932 71.8897 120.759 70.973C120.339 68.2228 120.795 68.1519 120.37 65.4057C119.491 61.3531 118.929 58.6029 118.434 54.4795C116.958 47.0079 116.326 40.0674 115.34 32.5249C114.531 28.2245 110.238 25.0179 105.981 25.5491C105.561 25.6199 105.243 25.6553 104.925 25.6907C108.617 26.1471 111.821 29.1452 112.453 32.9499L112.457 32.942Z" fill="#F5B731" fill-opacity="0.8"/>
<path d="M119.774 77.347C119.632 77.4886 119.491 77.6302 119.283 77.8388C119.424 78.9326 119.601 80.0224 119.738 81.0808C120.127 83.7956 120.547 86.5773 120.967 89.3984C121.179 90.7007 121.356 91.9715 121.564 93.2739C121.67 93.9427 121.741 94.4385 121.847 94.8241C121.953 95.249 122.024 95.5992 122.13 95.9533C122.307 96.6221 122.483 97.3264 122.691 98.7035C122.903 100.112 122.903 100.816 122.903 101.525C122.903 102.233 122.903 102.898 123.116 104.239C123.328 105.577 123.504 106.214 123.748 106.883C123.96 107.552 124.168 108.256 124.38 109.634C124.769 113.899 125.048 116.609 125.786 120.631C125.998 122.039 126.033 122.743 126.069 123.452C126.104 124.16 126.139 124.825 126.351 126.166C126.564 127.504 126.74 128.142 126.948 128.81C127.16 129.479 127.369 130.184 127.581 131.561C127.651 131.986 127.687 132.371 127.757 132.69C127.899 132.69 128.04 132.69 128.178 132.654C128.39 132.619 128.566 132.796 128.566 133.009C128.566 133.221 128.425 133.398 128.213 133.398C128.072 133.398 127.966 133.398 127.824 133.433C127.859 133.752 127.895 134.031 127.93 134.315H128.178C128.39 134.315 128.598 134.35 128.81 134.35C129.199 134.35 129.654 134.421 130.18 134.492H130.322C130.145 133.61 130.004 132.942 129.76 131.25C129.34 128.5 129.831 128.429 129.407 125.682C128.983 122.936 128.987 122.932 128.562 120.186C128.142 117.436 127.753 117.507 127.365 114.76C126.944 112.01 127.329 111.975 126.909 109.228C126.065 104.542 125.326 100.454 124.694 95.9415C124.553 94.9185 124.411 93.864 124.239 92.7703C123.956 90.8305 123.783 90.2679 123.571 89.1741C123.465 88.7177 123.394 88.1511 123.253 87.3406C122.833 84.5904 123.147 84.555 122.762 81.8087C122.373 79.4834 122.024 77.5437 121.635 75.6079C121.494 75.7141 121.388 75.8204 121.282 75.8912C121.069 76.0682 120.893 76.2099 120.543 76.5247C120.123 77.0165 119.982 77.1935 119.77 77.3706L119.774 77.347Z" fill="#F5B731" fill-opacity="0.8"/>
<path d="M123.96 146.142C124.031 146.142 124.066 146.142 124.137 146.106C124.557 146.036 124.981 145.965 125.366 145.823C125.26 145.681 125.154 145.54 125.012 145.434C124.694 145.717 124.309 145.925 123.956 146.138L123.96 146.142Z" fill="#F5B731" fill-opacity="0.8"/>
<path d="M130.821 137.683C130.785 137.683 130.75 137.647 130.715 137.647C129.906 137.506 129.132 137.435 128.323 137.399C128.676 140.323 127.585 143.108 125.613 144.942C125.79 145.154 125.967 145.331 126.139 145.575C129.163 144.308 131.099 141.169 130.817 137.683H130.821Z" fill="#F5B731" fill-opacity="0.8"/>
<path d="M72.0785 85.6645C72.0785 85.6645 72.1139 85.6645 72.1139 85.6291C72.0785 85.5937 72.0432 85.5582 72.0432 85.5228C72.0432 85.5936 72.0785 85.6291 72.0785 85.6645Z" fill="#F5B731" fill-opacity="0.8"/>
<path d="M75.8054 34.3191C76.0881 36.0817 77.8475 37.4549 79.5676 37.1755C80.1998 37.0693 80.5179 36.9985 80.8321 36.8923C81.1463 36.786 81.4997 36.6798 82.1673 36.5736C83.0117 36.4319 83.7853 35.9755 84.3116 35.3066C84.8378 34.6024 85.0852 33.7564 84.9438 32.9105C84.555 31.7459 84.6964 30.4082 85.2973 29.4206C85.3679 29.3144 85.4386 29.2436 85.5093 29.1373C81.4997 29.9124 77.769 30.3374 73.9361 30.7229C73.9714 30.7584 74.0068 30.7584 74.0421 30.7938C74.9925 31.498 75.6247 32.765 75.8015 34.3191H75.8054Z" fill="#F5B731" fill-opacity="0.8"/>
<path d="M97.6127 147.83C98.2804 147.865 98.948 147.901 99.5842 148.007H99.7255C99.4781 147.444 99.27 146.878 99.0579 146.315L98.7398 145.504C98.6691 145.292 98.6338 145.15 98.5985 145.048C98.5631 144.942 98.5631 144.871 98.4924 144.694C98.4571 144.588 98.4217 144.481 98.3864 144.411C98.5631 144.973 98.6691 145.575 98.7398 146.138L98.8105 146.594C98.8459 146.807 98.7045 146.984 98.4924 147.019H98.4217C98.245 147.019 98.0683 146.878 98.0329 146.701L97.9623 146.244C97.8562 145.54 97.7502 144.871 97.5421 144.269C97.436 143.879 97.2946 143.529 97.1886 143.211C97.0119 142.719 96.7998 142.329 96.5917 142.011C96.2029 141.058 95.6413 140.283 95.0797 139.508L94.797 139.083C94.5496 138.871 94.2708 138.556 93.988 138.273C93.6699 137.954 93.3911 137.604 93.0376 137.321C92.6489 136.967 92.2286 136.652 91.7024 136.333L91.2822 136.05L90.8267 136.825C91.0387 136.931 91.2154 137.073 91.4236 137.179L91.9498 137.635C92.6528 138.269 93.4264 138.902 94.0587 139.646C94.691 140.35 95.1504 141.161 95.5353 141.9C95.9555 142.64 96.3089 143.486 96.5917 144.367C96.7684 144.93 96.9451 145.497 97.0826 146.059C97.1886 146.693 97.224 147.291 97.2593 147.893L97.6127 147.822V147.83Z" fill="#F5B731" fill-opacity="0.8"/>
<path d="M97.546 148.609L97.2632 148.573V148.644C97.2632 148.998 97.2279 149.348 97.1925 149.703C97.6834 149.632 98.1782 149.561 98.7045 149.49C98.9872 149.207 99.3368 148.963 99.6902 148.75H99.5135C98.8459 148.68 98.2136 148.644 97.5421 148.609H97.546Z" fill="#F5B731" fill-opacity="0.8"/>
<path d="M83.0863 137.364H82.1006C81.5743 137.47 81.0088 137.576 80.4119 137.647C78.9 138.001 77.6315 138.564 76.6497 139.339C76.0881 139.729 75.6287 140.043 75.2438 140.362C74.8904 140.716 74.5409 141.137 74.1521 141.629C73.7633 142.085 73.4138 142.652 73.0957 143.25C73.3784 143.392 73.6572 143.533 73.9753 143.742C74.1167 143.813 74.2228 143.848 74.3288 143.883C74.4348 143.919 74.5409 143.954 74.749 144.06C75.3106 144.344 75.6994 144.552 76.2963 144.836C76.5083 144.942 76.579 144.977 76.6851 145.048C76.7558 145.083 76.8618 145.154 77.0385 145.225C77.2152 145.331 77.3213 145.367 77.392 145.402C77.498 145.438 77.604 145.473 77.8122 145.579C78.4798 145.969 79.0767 146.248 79.7482 146.567L80.1017 146.708C80.3491 146.815 80.4198 146.885 80.5219 146.992C80.5926 147.062 80.6633 147.098 80.84 147.169C80.9813 147.24 81.1581 147.31 81.2955 147.381C81.7864 146.712 82.5954 146.358 83.369 146.535C83.5104 146.535 83.6518 146.571 83.8246 146.571L88.5725 138.816C87.4101 138.005 86.0041 137.687 84.6689 137.478C84.1427 137.407 83.6125 137.372 83.0863 137.372V137.364Z" fill="#F5B731" fill-opacity="0.8"/>
<path d="M73.3077 138.245C73.3784 138.174 73.4138 138.139 73.4845 138.068C73.5198 138.033 73.5905 137.997 73.6258 137.962L73.9439 137.714C75.3498 136.447 77.2152 135.495 79.4655 134.858C80.0624 134.716 80.6279 134.61 81.2248 134.504C81.8571 134.468 82.454 134.433 83.0195 134.433C85.2344 134.362 87.5554 134.96 89.8802 136.16L90.163 136.337L90.6539 135.562C90.3004 135.35 89.9509 135.106 89.5621 134.929C89.4207 134.858 89.2794 134.822 89.1419 134.787C89.0045 134.751 88.8945 134.716 88.7531 134.645C88.6471 134.61 88.5411 134.539 88.435 134.504C88.2937 134.433 88.1523 134.362 88.0148 134.327C87.7674 134.256 87.4886 134.185 87.2058 134.114C86.6443 133.972 86.1141 133.795 85.5879 133.725C84.8142 133.512 84.0759 133.512 83.2669 133.512H83.0549C81.9278 133.512 80.8046 133.618 79.7482 133.866C79.222 134.008 78.6565 134.149 78.0949 134.291C77.4273 134.539 76.689 134.854 75.8447 135.314C75.1771 135.704 74.5448 136.16 73.9086 136.616L73.7672 136.723C73.4138 136.935 73.0996 137.214 72.7815 137.533C72.7815 137.557 72.7697 137.58 72.7462 137.604L72.2199 138.131C72.1139 138.237 72.0432 138.344 71.9372 138.45C71.7251 138.698 71.517 138.942 71.3049 139.19C71.2696 139.225 71.2342 139.296 71.1989 139.331H71.1635C71.0575 139.473 70.9515 139.615 70.8101 139.721C70.7394 139.827 70.6687 139.969 70.5627 140.11C70.492 140.217 70.4566 140.323 70.3859 140.429C70.1385 140.818 69.9304 141.204 69.7183 141.594C69.9657 141.735 70.2446 141.841 70.492 141.983C70.7394 141.527 70.9829 141.102 71.2656 140.681C71.3717 140.539 71.4777 140.433 71.5837 140.291C71.7604 140.079 71.9018 139.835 72.0746 139.622C72.3574 139.095 72.8483 138.67 73.3038 138.249L73.3077 138.245Z" fill="#F5B731" fill-opacity="0.8"/>
<path d="M97.2632 131.69V131.974H98.2489V131.726C97.8955 131.69 97.6167 131.69 97.2632 131.69Z" fill="#F5B731" fill-opacity="0.8"/>
<path d="M93.7092 132.643C93.6385 132.43 93.6031 132.288 93.5678 132.186L91.6317 135.357L92.0519 135.641C92.5782 135.959 93.073 136.31 93.4932 136.699C93.8466 137.018 94.1608 137.368 94.4789 137.722C94.7263 138.005 95.0051 138.285 95.2879 138.568L95.6413 139.024C96.2029 139.835 96.8037 140.645 97.1886 141.598C97.224 141.633 97.2593 141.704 97.2946 141.775C97.2593 141.668 97.224 141.562 97.1886 141.42C96.9412 140.752 96.6624 140.083 96.3796 139.378C96.0262 138.462 95.6413 137.545 95.2879 136.628C95.2172 136.451 95.1818 136.345 95.1465 136.274C95.1112 136.168 95.0405 136.062 94.9698 135.849C94.7577 135.216 94.6163 134.826 94.3729 134.228C94.3022 134.016 94.2668 133.909 94.2315 133.803C94.1961 133.697 94.1608 133.626 94.0901 133.414C94.0194 133.237 93.9841 133.13 93.9134 133.06C93.8427 132.989 93.772 132.883 93.7013 132.639L93.7092 132.643Z" fill="#F5B731" fill-opacity="0.8"/>
<path d="M125.087 144.379C126.917 142.652 127.938 140.079 127.549 137.368H127.337C127.196 137.368 127.054 137.403 126.917 137.439C126.78 137.474 126.634 137.51 126.497 137.51C125.9 137.545 125.37 137.651 124.879 137.828C124.282 138.005 123.752 138.253 123.155 138.533C122.943 138.639 122.699 138.745 122.487 138.851C122.24 139.028 121.961 139.241 121.678 139.414C122.416 140.893 123.367 142.235 124.494 143.679C124.706 143.962 124.914 144.171 125.091 144.383L125.087 144.379Z" fill="#F5B731" fill-opacity="0.8"/>
<path d="M84.072 150.545C84.0367 150.58 83.966 150.58 83.9306 150.615C84.2134 150.722 84.4569 150.863 84.6689 150.969C85.1598 151.111 85.69 151.324 86.2162 151.532C86.3222 151.568 86.3929 151.603 86.499 151.674C87.626 151.532 88.7845 151.32 90.0884 151.111C90.5439 151.005 91.0034 150.899 91.4589 150.828L84.9163 149.526C84.7749 149.915 84.4961 150.301 84.072 150.548V150.545Z" fill="#F5B731" fill-opacity="0.8"/>
<path d="M112.952 138.914C112.705 139.197 112.497 139.441 112.249 139.725L112.143 139.866C111.511 140.535 110.981 141.066 110.384 141.771L110.066 142.16C109.818 142.479 109.575 142.758 109.257 143.112C109.08 143.289 109.009 143.36 108.903 143.466C108.833 143.537 108.762 143.608 108.62 143.75C108.479 143.891 108.408 143.998 108.338 144.068C108.267 144.139 108.196 144.245 108.055 144.387C107.702 144.812 107.352 145.162 107.034 145.552C106.787 145.8 106.578 146.044 106.331 146.327L106.296 146.362L106.649 146.681C107.069 146.256 107.352 145.941 107.741 145.481C108.196 145.024 108.444 144.706 108.868 144.214C109.323 143.722 109.748 143.262 110.132 142.841C110.486 142.451 110.8 142.066 111.189 141.676C111.68 141.078 112.175 140.582 112.701 139.984L112.877 139.772C112.984 139.63 113.125 139.489 113.231 139.347C113.196 139.312 113.16 139.276 113.125 139.241C113.054 139.064 113.019 138.993 112.948 138.922L112.952 138.914Z" fill="#F5B731" fill-opacity="0.8"/>
<path d="M123.925 144.202C122.833 142.794 121.851 141.417 121.073 139.902C120.653 140.22 120.3 140.606 119.911 141.031C119.699 141.243 119.522 141.456 119.314 141.664L119.173 141.877C118.925 142.266 118.646 142.687 118.399 143.077C118.152 143.533 117.908 144.064 117.661 144.592C117.413 145.296 117.241 145.965 117.099 146.634C117.696 146.563 118.12 146.563 118.54 146.563C119.208 146.563 119.84 146.563 121.109 146.35C122.409 146.138 123.571 145.611 124.521 144.871C124.345 144.659 124.133 144.45 123.925 144.202Z" fill="#F5B731" fill-opacity="0.8"/>
<path d="M82.242 150.686L82.1006 150.615C82.0299 150.58 81.9592 150.509 81.9239 150.438C81.2562 150.049 80.8321 149.38 80.8675 148.64C80.9028 148.428 80.9381 148.251 80.9735 148.078C80.8321 148.007 80.6907 147.936 80.5179 147.865C80.3059 147.759 80.1998 147.688 80.0977 147.617C80.0271 147.546 79.9564 147.511 79.7796 147.44L79.4615 147.299C78.7939 146.98 78.1617 146.701 77.4548 146.276C77.3134 146.205 77.2074 146.169 77.1367 146.134C77.0307 146.099 76.8893 146.063 76.6811 145.922C76.4691 145.815 76.3984 145.78 76.2924 145.709C76.2217 145.674 76.1156 145.603 75.9389 145.532C75.3773 145.213 74.9885 145.04 74.427 144.757C74.2502 144.686 74.1442 144.651 74.0735 144.615C73.9675 144.58 73.8615 144.544 73.6533 144.438C73.3352 144.261 73.0564 144.12 72.7736 143.982C72.5262 144.474 72.3181 144.969 72.1414 145.39C71.9647 145.882 71.8586 146.413 71.8233 146.976C71.6819 147.609 71.6112 148.176 71.6466 148.703C71.6466 149.655 71.8586 150.608 72.0668 151.524L72.1728 152.087C72.1728 152.122 72.2081 152.158 72.2081 152.193C73.3352 152.827 74.5644 153.039 75.7975 153.074C76.3591 153.004 76.7832 152.933 77.1681 152.862C77.8004 152.756 78.468 152.685 79.7364 152.472L79.9132 152.437C81.8139 152.225 83.3965 152.048 84.9438 151.874C84.7318 151.804 84.555 151.733 84.3469 151.662C83.7146 151.312 82.835 150.922 82.238 150.674L82.242 150.686Z" fill="#F5B731" fill-opacity="0.8"/>
<path d="M106.197 147.161L105.844 146.842L105.809 146.878C105.703 147.019 105.491 147.125 105.247 147.125H105.176C104.929 147.125 104.721 146.984 104.579 146.736C104.438 146.453 104.473 146.067 104.686 145.855C104.686 145.855 104.686 145.819 104.721 145.819C104.579 145.678 104.544 145.465 104.686 145.292C104.827 145.119 105.039 145.115 105.212 145.257C105.424 145.044 105.601 144.832 105.844 144.552C106.476 143.919 107.006 143.352 107.603 142.683C108.024 142.192 108.306 141.873 108.766 141.381C109.292 140.748 109.787 140.216 110.525 139.477C110.914 138.985 111.334 138.489 111.896 137.891C111.825 137.749 111.825 137.572 111.931 137.435C112.037 137.297 112.249 137.258 112.387 137.364L112.807 136.908C113.439 136.239 113.969 135.676 114.566 135.003C114.672 134.932 114.743 134.826 114.814 134.72C114.99 134.472 115.202 134.193 115.552 134.122C115.764 134.086 115.972 134.157 116.184 134.299C116.361 134.441 116.432 134.618 116.467 134.826C116.467 135.003 116.396 135.18 116.255 135.353C116.113 135.495 116.078 135.566 116.043 135.637C115.972 135.743 115.901 135.849 115.725 136.026C115.548 136.203 115.477 136.274 115.371 136.345C115.301 136.416 115.23 136.487 115.088 136.628C114.947 136.77 114.912 136.841 114.841 136.947C114.77 137.053 114.7 137.124 114.558 137.301C114.276 137.62 114.032 137.864 113.785 138.111L113.537 138.359C113.573 138.43 113.643 138.501 113.749 138.607C113.785 138.643 113.82 138.678 113.855 138.678C114.311 138.151 114.806 137.655 115.297 137.163C115.403 137.057 115.473 136.951 115.509 136.88C115.579 136.774 115.65 136.668 115.791 136.49C116.212 136.034 116.494 135.751 116.919 135.361L117.025 135.255C117.131 135.149 117.166 135.078 117.237 134.972C117.307 134.866 117.378 134.759 117.555 134.582L117.908 134.228C118.12 134.016 118.364 133.772 118.576 133.559C118.505 133.382 118.47 133.276 118.434 133.17C118.399 133.063 118.364 132.957 118.293 132.78C118.222 132.603 118.187 132.532 118.116 132.426C118.046 132.32 117.975 132.214 117.904 132.001C117.869 131.895 117.834 131.789 117.798 131.718H117.692C116.954 131.682 116.322 131.682 115.583 131.718C114.88 131.682 114.492 131.718 113.895 131.718H113.368C112.98 131.718 112.63 131.682 112.171 131.682C111.574 131.718 111.114 131.718 110.482 131.718C109.708 131.753 108.97 131.718 108.196 131.718C107.843 131.718 107.493 131.718 107.14 131.682C106.048 131.718 105.031 131.718 103.763 131.682C102.706 131.718 101.721 131.718 100.668 131.718H99.8237C99.8237 131.789 99.8237 131.824 99.8591 131.895C100.739 132.037 100.703 132.847 100.668 133.268C100.668 133.374 100.633 133.481 100.668 133.587V133.835C100.703 134.645 100.703 135.314 100.668 136.089C100.668 136.723 100.668 137.148 100.633 137.781C100.633 138.591 100.106 139.26 99.2621 139.437C99.1208 139.473 99.0147 139.473 98.8734 139.473C98.3118 139.473 97.7816 139.19 97.4321 138.733C97.2907 138.591 97.1847 138.45 97.114 138.277C96.9726 137.887 97.008 137.852 96.8666 137.466C96.7252 137.077 96.6545 137.077 96.5131 136.691C96.3011 136.093 96.1244 135.704 95.8809 135.106C95.7866 134.846 95.6806 134.587 95.5628 134.33C95.4214 133.941 95.4567 133.905 95.3154 133.52C95.174 133.13 95.1033 133.13 94.9619 132.745C94.8912 132.568 94.9973 132.355 95.1386 132.288C95.1386 132.253 95.1387 132.218 95.174 132.218C95.28 132.041 95.4921 131.934 95.7002 131.934V131.686C95.3114 131.686 94.9619 131.651 94.5378 131.616H94.2197C94.255 131.757 94.2904 131.863 94.3257 131.934C94.3611 132.041 94.3611 132.111 94.4318 132.288C94.5025 132.465 94.5378 132.536 94.5731 132.607C94.6438 132.713 94.6792 132.82 94.7852 133.063C94.8559 133.276 94.8912 133.382 94.9266 133.488C94.9619 133.595 94.9973 133.665 95.068 133.878C95.3154 134.476 95.4567 134.866 95.6649 135.534C95.7356 135.711 95.7709 135.782 95.8063 135.853C95.877 135.959 95.9123 136.066 95.983 136.278C96.3364 137.23 96.6859 138.111 97.0747 139.028C97.3575 139.697 97.6363 140.401 97.8837 141.106C98.0958 141.739 98.2018 142.129 98.4453 142.727L98.516 142.904C98.728 143.396 98.9048 143.785 99.1129 144.312C99.1836 144.525 99.2189 144.666 99.2543 144.769C99.2896 144.875 99.2896 144.946 99.3603 145.123L99.6784 145.933C99.9258 146.602 100.205 147.271 100.487 147.944C101.084 147.979 101.685 148.015 102.105 148.121H102.141C102.702 148.156 103.232 148.298 103.688 148.51C103.794 148.581 103.9 148.652 104.006 148.723C104.254 148.687 104.497 148.652 104.744 148.617C105.133 148.16 105.553 147.664 106.044 147.208C106.115 147.243 106.15 147.208 106.186 147.173L106.197 147.161Z" fill="#F5B731" fill-opacity="0.8"/>
<path d="M93.4303 148.396C92.4446 148.326 91.4589 148.255 90.4418 148.113C89.5975 148.078 88.7531 147.971 87.9441 147.83C87.6614 147.794 87.3826 147.759 87.0998 147.724C86.5736 147.653 86.0434 147.617 85.5525 147.582C85.2698 147.547 84.9909 147.547 84.7082 147.511C84.9556 147.865 85.0616 148.251 85.0616 148.711L93.3636 150.403C93.6463 150.332 93.8898 150.297 94.1726 150.261C94.2786 149.699 94.3493 149.168 94.3493 148.711V148.463L93.4343 148.392L93.4303 148.396Z" fill="#F5B731" fill-opacity="0.8"/>
<path d="M113.164 143.498C113.2 143.321 113.27 143.144 113.306 143.006C113.482 142.479 113.726 141.912 114.079 141.385C114.327 140.893 114.605 140.397 114.888 139.906C114.994 139.729 115.1 139.587 115.242 139.481C115.312 139.41 115.383 139.304 115.454 139.233C115.524 139.127 115.56 139.056 115.63 138.95C115.736 138.808 115.807 138.631 115.913 138.493C116.475 137.86 117.076 137.191 117.814 136.66C118.203 136.235 118.658 135.849 119.149 135.566C119.184 135.566 119.184 135.53 119.22 135.53C119.149 135.353 119.078 135.212 119.008 135.039C118.902 134.826 118.831 134.614 118.76 134.37C118.619 134.511 118.478 134.653 118.34 134.795L117.987 135.149C117.881 135.29 117.81 135.361 117.775 135.432C117.704 135.538 117.633 135.645 117.492 135.822L117.386 135.928C116.997 136.317 116.683 136.597 116.294 137.022C116.188 137.163 116.117 137.234 116.082 137.305C116.011 137.411 115.941 137.517 115.764 137.694C115.273 138.186 114.814 138.647 114.358 139.138C114.499 139.28 114.535 139.528 114.393 139.666C114.323 139.736 114.217 139.772 114.111 139.772C114.04 139.772 113.934 139.736 113.863 139.666C113.722 139.807 113.616 139.984 113.474 140.122L113.262 140.334C112.736 140.897 112.241 141.393 111.75 141.991C111.362 142.38 111.047 142.766 110.694 143.156C110.274 143.612 109.885 144.072 109.429 144.529C109.041 144.985 108.762 145.339 108.302 145.796C107.914 146.252 107.635 146.571 107.211 146.996C107.352 147.137 107.352 147.385 107.211 147.523C107.14 147.594 107.034 147.629 106.928 147.629C106.857 147.629 106.787 147.594 106.716 147.523C106.68 147.558 106.645 147.594 106.574 147.664C106.327 147.912 106.119 148.121 105.907 148.369C107.454 148.121 108.966 147.806 110.655 147.452C111.358 147.346 111.853 147.275 112.273 147.204V147.133C112.343 146.641 112.414 146.217 112.485 145.796L112.555 145.406C112.626 144.843 112.803 144.241 113.046 143.679C113.117 143.714 113.152 143.608 113.152 143.502L113.164 143.498Z" fill="#F5B731" fill-opacity="0.8"/>
<path d="M118.332 138.422C118.509 138.245 118.721 138.033 118.965 137.86C119 137.824 119.035 137.789 119.071 137.753L119.88 137.155C119.844 137.085 119.809 137.014 119.774 136.872C119.703 136.66 119.668 136.553 119.632 136.447C119.597 136.376 119.597 136.341 119.561 136.235C119.141 136.518 118.752 136.833 118.364 137.222C117.625 137.75 117.064 138.387 116.534 138.985C116.463 139.091 116.392 139.197 116.322 139.339C116.251 139.445 116.18 139.587 116.11 139.693C116.039 139.799 115.933 139.906 115.827 140.012C115.721 140.118 115.65 140.224 115.544 140.331C115.261 140.787 115.018 141.283 114.77 141.775C114.452 142.266 114.209 142.762 114.067 143.254C113.997 143.431 113.961 143.573 113.926 143.71C113.891 143.817 113.855 143.958 113.82 144.064C113.573 144.627 113.431 145.123 113.364 145.65L113.294 146.075C113.223 146.464 113.152 146.85 113.117 147.24C113.188 147.24 113.294 147.204 113.364 147.204C113.577 147.169 113.785 147.133 114.032 147.098C114.067 146.779 114.103 146.464 114.138 146.146C114.209 145.969 114.244 145.756 114.315 145.583C114.421 145.158 114.527 144.737 114.668 144.316C114.88 143.399 115.336 142.518 115.689 141.849C116.11 141.145 116.463 140.512 116.954 139.945C117.374 139.312 117.798 138.851 118.324 138.43L118.332 138.422Z" fill="#F5B731" fill-opacity="0.8"/>
<path d="M85.6193 146.846C86.1455 146.882 86.711 146.917 87.2373 146.988C87.52 147.023 87.7988 147.059 88.0816 147.094C88.8906 147.2 89.7349 147.342 90.5439 147.377C91.565 147.484 92.5507 147.59 93.5325 147.661L94.2708 147.731C94.2354 147.519 94.2354 147.306 94.1647 147.063C94.094 146.465 93.988 145.969 93.7759 145.442C93.6346 144.808 93.4578 144.312 93.179 143.856C92.9669 143.293 92.6881 142.833 92.3347 142.412L92.1933 142.199C91.7378 141.566 91.2783 140.933 90.7167 140.472C90.2258 139.945 89.731 139.556 89.2754 139.272L84.6689 146.779C84.7043 146.779 84.7396 146.779 84.775 146.815C84.987 146.779 85.3012 146.815 85.6193 146.85V146.846Z" fill="#F5B731" fill-opacity="0.8"/>
<path d="M68.2417 145.225C68.3478 145.929 68.4891 146.598 68.6973 147.236C68.7326 146.846 68.768 146.461 68.8387 146.106C69.0861 145.296 69.2589 144.45 69.577 143.64C69.7183 143.285 69.8951 142.935 70.0325 142.581C69.7851 142.475 69.5416 142.333 69.2589 142.192C68.8387 143.179 68.4852 144.202 68.2378 145.221L68.2417 145.225Z" fill="#F5B731" fill-opacity="0.8"/>
<path d="M122.943 135.428L123.504 135.251C123.575 135.216 123.61 135.216 123.681 135.216C123.787 135.18 123.893 135.145 123.999 135.11C124.211 135.039 124.419 134.968 124.631 134.897C125.193 134.72 125.794 134.614 126.426 134.578L126.744 134.543C126.886 134.508 127.027 134.508 127.164 134.508C127.129 134.224 127.094 133.945 127.058 133.626L126.497 133.662C126.355 133.662 126.214 133.697 126.077 133.768C125.935 133.803 125.829 133.839 125.688 133.839C124.949 133.91 124.176 134.087 123.261 134.437C122.487 134.614 121.855 134.964 121.152 135.353L120.975 135.46C120.657 135.601 120.378 135.743 120.096 135.916C120.166 136.093 120.202 136.199 120.237 136.306C120.272 136.412 120.308 136.483 120.378 136.695C120.378 136.731 120.414 136.766 120.414 136.801L120.449 136.766L120.905 136.553C121.293 136.306 121.678 136.097 122.134 135.885C122.452 135.637 122.695 135.495 122.943 135.428Z" fill="#F5B731" fill-opacity="0.8"/>
<path d="M69.6869 139.972C69.7576 139.866 69.7929 139.795 69.8636 139.689C69.9697 139.512 70.0404 139.371 70.1464 139.233C70.1817 139.162 70.2524 139.127 70.2878 139.056C70.2524 138.985 70.2171 138.95 70.1817 138.879C70.005 138.454 70.0404 137.891 70.111 137.328C70.111 137.222 70.1464 137.116 70.1464 137.01C70.2171 136.727 70.2878 136.447 70.3585 136.306C70.4645 136.058 70.7119 135.849 70.9907 135.778C71.2735 135.743 71.5523 135.814 71.729 136.026L72.432 136.766C72.7147 136.518 72.9936 136.309 73.2763 136.097L73.4177 135.991C74.05 135.534 74.7176 135.039 75.4245 134.618C76.3041 134.161 77.1131 133.807 77.8161 133.559C78.413 133.418 78.9432 133.276 79.5047 133.134C80.6318 132.851 81.7903 132.745 83.0235 132.745H83.2355C84.0445 132.745 84.8888 132.745 85.6978 132.993C86.2594 133.063 86.8249 133.205 87.3865 133.382C87.6692 133.453 87.9127 133.524 88.1955 133.595C88.4075 133.665 88.5843 133.736 88.7571 133.843C88.8631 133.878 88.9691 133.949 89.0398 133.984C89.1458 134.02 89.2519 134.055 89.3579 134.09C89.5346 134.161 89.7114 134.197 89.8841 134.267C90.3044 134.445 90.6931 134.692 91.0466 134.936L93.2968 131.269C92.9787 130.423 92.6292 129.578 92.2051 128.625C92.099 128.377 92.099 128.271 92.0637 128.134C92.0284 128.027 92.0284 127.956 91.9577 127.779C91.887 127.567 91.8516 127.496 91.8163 127.39C91.7809 127.355 91.7809 127.284 91.7456 127.213H91.6396C91.4275 127.213 91.2508 127.071 91.2508 126.859C91.2508 126.646 91.3922 126.469 91.6042 126.469C92.2011 126.434 92.7313 126.434 93.2929 126.469V126.151C92.802 126.151 92.3072 125.938 91.887 125.694C91.5335 125.553 91.184 125.305 90.7952 125.096C90.7599 125.167 90.7245 125.202 90.6539 125.238C90.7599 125.309 90.8306 125.415 90.8306 125.592C90.8306 125.663 90.7952 125.733 90.7599 125.804C90.7363 125.828 90.7128 125.852 90.6892 125.875C90.7245 125.911 90.7599 125.946 90.7599 125.981H90.8306V126.123C90.9013 126.194 90.9366 126.3 90.9366 126.371L90.9013 127.146V127.465C90.9366 127.819 90.972 128.665 90.0923 128.696H89.7035C89.3147 128.696 88.7531 128.625 88.6824 127.921C88.6824 127.744 88.6471 127.638 88.6471 127.567C88.6471 127.461 88.6118 127.355 88.6118 127.142V126.717C88.435 126.682 88.2937 126.505 88.2937 126.328C88.329 126.115 88.5057 125.974 88.7139 125.974H88.8199C88.8435 125.974 88.867 125.962 88.8906 125.938C88.8199 125.832 88.8199 125.726 88.8552 125.619C88.8906 125.549 88.9259 125.513 88.9613 125.478C88.8906 125.407 88.8552 125.301 88.8552 125.194C88.8552 125.053 88.8906 124.982 88.9613 124.876C88.8552 124.805 88.7845 124.699 88.7845 124.557H88.7139C88.4664 124.557 88.2937 124.451 88.1523 124.274C88.0816 124.274 88.0109 124.274 87.9402 124.309C87.6575 124.309 87.52 123.991 87.6575 123.782C87.7988 123.534 88.0463 123.357 88.2897 123.219C88.3958 123.078 88.5371 122.936 88.7099 122.794C89.1655 122.547 89.731 122.44 90.3633 122.405C90.9602 122.44 91.4197 122.511 91.8752 122.582L92.3307 122.653C92.857 122.724 93.4932 122.759 94.1608 122.759L94.3729 122.724C94.8637 122.653 95.3232 122.582 95.7434 122.547L96.0262 122.511C96.5171 122.44 97.0119 122.405 97.5381 122.688C97.7855 122.83 98.2764 123.322 98.2411 123.782C98.2057 123.994 98.0644 124.238 97.6795 124.309C97.5381 124.309 97.3614 124.345 97.1886 124.38L96.9058 124.451C96.2382 124.557 95.4999 124.876 94.8323 125.368C94.5496 125.651 94.3061 125.793 94.0233 125.93V126.422C94.2001 126.422 94.3768 126.422 94.5849 126.457C94.797 126.457 94.9384 126.634 94.9384 126.847C94.9384 127.059 94.7616 127.201 94.5496 127.201H94.5142C93.8113 127.166 93.179 127.13 92.5075 127.13C92.5428 127.201 92.5782 127.307 92.6488 127.449C92.7195 127.661 92.7549 127.803 92.7902 127.905C92.8256 128.012 92.8256 128.082 92.8963 128.259C93.3165 129.176 93.6346 130.022 93.988 130.868H94.0587C94.1647 130.868 94.2708 130.833 94.4789 130.833H94.6203C95.0758 130.868 95.3939 130.903 95.818 130.903C95.9594 130.691 96.2068 130.62 96.5563 130.656H96.6977C96.8744 130.656 97.0158 130.726 97.1179 130.797C97.5735 130.797 97.9269 130.797 98.3825 130.833C98.4885 130.691 98.6299 130.585 98.8027 130.585H99.2229C99.4349 130.585 99.5763 130.691 99.6431 130.868H100.593C101.614 130.868 102.636 130.868 103.688 130.833C104.953 130.868 105.974 130.833 107.065 130.833C107.454 130.833 107.804 130.833 108.157 130.868C108.931 130.903 109.669 130.903 110.443 130.868C111.075 130.903 111.499 130.868 112.131 130.833C112.622 130.833 112.976 130.868 113.361 130.868H113.851C114.413 130.833 114.872 130.833 115.54 130.868C116.208 130.833 116.875 130.833 117.512 130.868C117.335 130.376 117.158 130.022 116.95 129.495C116.844 129.247 116.809 129.141 116.773 129.038C116.738 128.936 116.703 128.861 116.632 128.649C116.243 127.838 116 127.099 115.681 126.182C115.611 126.005 115.575 125.899 115.54 125.793C115.505 125.686 115.469 125.58 115.399 125.403C115.328 125.226 115.293 125.155 115.222 125.049C115.151 124.943 115.081 124.836 115.01 124.592C114.869 124.136 115.045 123.817 115.187 123.64C115.257 123.522 115.257 123.416 115.187 123.322C115.045 123.18 114.975 123.074 114.904 122.968C114.869 122.897 114.833 122.826 114.692 122.72C114.55 122.578 114.48 122.507 114.444 122.472C114.374 122.401 114.303 122.33 114.162 122.188C113.282 121.201 112.226 120.638 111.173 120.532C110.961 120.851 110.576 120.886 110.364 120.886C110.258 120.886 110.152 120.886 110.081 120.922L107.128 121.52H106.951C106.598 121.52 106.319 121.272 106.213 120.922C106.142 120.497 106.39 120.111 106.81 120.04L109.869 119.442C110.258 119.371 110.714 119.301 111.032 119.548C111.102 119.584 111.138 119.69 111.208 119.796C112.438 119.903 113.671 120.571 114.692 121.701C114.798 121.807 114.869 121.878 114.939 121.948C115.01 122.019 115.081 122.09 115.222 122.232C115.363 122.409 115.434 122.48 115.505 122.586C115.54 122.657 115.575 122.728 115.717 122.834C116.208 123.396 115.964 123.821 115.787 124.065C115.681 124.242 115.681 124.278 115.681 124.349C115.752 124.526 115.787 124.596 115.823 124.667C115.894 124.773 115.964 124.88 116.035 125.124C116.106 125.336 116.141 125.442 116.176 125.549C116.212 125.655 116.247 125.761 116.318 125.938C116.6 126.855 116.844 127.559 117.233 128.334C117.339 128.582 117.374 128.688 117.409 128.791C117.445 128.893 117.48 128.968 117.551 129.18C117.586 129.216 117.586 129.251 117.586 129.286H117.692C117.763 129.286 117.834 129.251 117.975 129.216C118.187 129.109 118.328 128.968 118.501 128.826C118.536 128.791 118.572 128.755 118.607 128.72C118.046 128.33 117.904 127.909 117.869 127.626C117.834 127.028 118.258 126.426 119.031 126.005C120.088 125.513 121.282 125.301 122.373 125.407C122.621 125.407 123.006 125.407 123.218 125.69C123.288 125.796 123.359 126.009 123.253 126.288C123.147 126.536 123.112 126.642 123.076 126.745C123.041 126.886 123.006 127.028 122.9 127.272C122.793 127.484 122.723 127.697 122.723 127.905C122.723 128.047 122.723 128.189 122.758 128.295C122.793 128.649 122.829 129.035 122.617 129.318C122.475 129.495 122.299 129.566 122.055 129.601H121.878C121.034 129.495 120.19 129.353 119.416 129.074C119.275 129.18 119.169 129.286 119.063 129.357C118.886 129.534 118.674 129.711 118.324 129.884C118.148 129.955 118.042 129.991 117.971 129.991C118.077 130.239 118.183 130.482 118.289 130.766C118.36 130.907 118.395 131.014 118.395 131.12L118.43 131.226C118.466 131.332 118.466 131.403 118.536 131.58C118.607 131.757 118.643 131.828 118.713 131.899C118.784 132.005 118.855 132.111 118.925 132.355C118.996 132.568 119.031 132.674 119.067 132.78C119.102 132.886 119.137 132.957 119.208 133.17L119.243 133.276C119.279 133.311 119.314 133.382 119.314 133.453C119.455 133.843 119.597 134.193 119.734 134.547C119.77 134.653 119.84 134.795 119.876 134.901C120.123 134.759 120.402 134.618 120.685 134.476L120.826 134.405C121.529 134.016 122.267 133.63 123.076 133.453C123.991 133.099 124.836 132.926 125.609 132.855C125.68 132.855 125.786 132.82 125.892 132.784C126.069 132.749 126.245 132.678 126.418 132.678L126.944 132.642C126.909 132.324 126.838 132.009 126.803 131.584C126.591 130.246 126.414 129.609 126.206 128.905C125.994 128.236 125.786 127.532 125.574 126.154C125.362 124.777 125.326 124.042 125.291 123.369C125.256 122.665 125.22 121.996 125.008 120.654C124.27 116.637 123.952 113.887 123.567 109.622C123.355 108.319 123.178 107.682 122.97 106.978C122.758 106.309 122.55 105.605 122.338 104.192C122.126 102.78 122.126 102.079 122.126 101.371C122.126 100.663 122.126 99.9978 121.914 98.6562C121.702 97.3185 121.525 96.6456 121.388 95.9768C121.282 95.5204 121.14 95.0246 120.999 94.3558C120.928 94.0371 120.857 93.6515 120.822 93.2266C120.61 91.8888 120.402 90.5826 120.225 89.2448C119.805 86.4592 119.381 83.7129 118.996 81.0335C118.855 80.1168 118.713 79.2 118.607 78.2833C118.536 78.3541 118.466 78.3895 118.395 78.4603C118.218 78.602 118.042 78.779 117.657 79.0938C117.303 79.4125 117.166 79.5856 116.989 79.7626C116.812 79.9397 116.636 80.1522 116.251 80.5023C115.759 80.9483 115.266 81.3824 114.774 81.8047C114.633 81.9463 114.527 82.0171 114.421 82.1234C114.279 82.7568 114.067 83.3549 113.895 83.9214C113.683 84.5549 113.541 85.2238 113.227 85.9634C112.944 86.5615 112.595 87.0926 112.277 87.6553C111.959 88.2179 111.609 88.7491 111.22 89.2763C111.185 89.3471 111.114 89.4179 111.044 89.4888C110.69 89.9452 110.305 90.3347 109.952 90.7557L109.426 91.2829C109.355 91.3537 109.32 91.4245 109.249 91.46C109.143 91.6016 109.072 91.7078 108.966 91.8495C108.683 92.2036 108.334 92.4829 107.98 92.8016C107.804 92.9433 107.662 93.0849 107.525 93.2266C107.105 93.6161 106.645 94.0371 106.048 94.5289L105.659 94.8476C105.271 95.1663 104.886 95.4456 104.462 95.7289C104.144 95.9414 103.794 96.1184 103.441 96.2561C103.193 96.3624 102.95 96.504 102.702 96.6102C102.526 96.7165 102.349 96.8227 102.176 96.9289C101.823 97.1768 101.438 97.3853 101.014 97.5978C100.452 97.8811 99.8512 98.1604 99.2543 98.4437C98.622 98.6916 98.0251 98.9355 97.3889 99.148C97.0354 99.2896 96.6506 99.3959 96.2618 99.5021C96.0144 99.5729 95.7709 99.6437 95.5235 99.7146C95.2761 99.7854 95.068 99.8916 94.8205 99.9624C94.4318 100.104 94.0469 100.246 93.6581 100.352C92.9905 100.529 92.3229 100.671 91.6514 100.844L91.3333 100.915C90.7717 101.056 90.2062 101.162 89.6092 101.269C89.2205 101.34 88.8356 101.375 88.4115 101.41C88.1287 101.446 87.8145 101.446 87.5318 101.517C86.8288 101.623 86.1612 101.694 85.4583 101.729L84.826 101.764C84.3351 101.8 83.8403 101.835 83.3847 101.835C82.8939 101.835 82.399 101.764 81.9435 101.694C81.7314 101.658 81.5233 101.658 81.2759 101.623C80.8557 101.587 80.4315 101.481 80.0113 101.41C79.7639 101.375 79.4851 101.304 79.2377 101.269C79.0256 101.233 78.8175 101.198 78.6054 101.162C78.1499 101.092 77.6551 101.021 77.1995 100.844C76.5673 100.667 75.8643 100.49 75.2281 100.246C74.6312 99.9978 74.0303 99.7185 73.3274 99.3644C73.1153 99.2582 72.9386 99.1873 72.7304 99.0811C72.3102 98.8686 71.8861 98.6916 71.4659 98.4122C70.975 98.129 70.3388 97.6726 69.6712 97.1099C69.251 96.7558 68.8622 96.3348 68.5088 95.9453L68.12 95.5558C67.5231 94.9223 66.9222 94.3243 66.6434 93.8639C66.3606 93.439 66.1878 93.0534 66.0111 92.6993C65.9051 92.4869 65.8344 92.3098 65.7637 92.1367C65.5163 91.6095 65.4456 91.0429 65.8697 90.197C65.8697 90.1262 65.8698 90.0907 65.9051 90.0199C65.9051 89.9491 65.9404 89.8783 65.9758 89.8075L66.0111 89.7012C66.0818 89.5596 66.1878 89.4888 66.3292 89.4888C66.3999 89.3825 66.4706 89.3117 66.5413 89.2055C66.7534 88.9222 66.9968 88.6428 67.3149 88.3596C67.7037 88.0055 68.1593 87.7261 68.6502 87.4428L69.0704 87.1949C69.5613 86.8763 70.1974 86.4553 70.8651 86.1366C70.9711 86.0657 71.1125 86.0303 71.2185 85.9595C71.2892 85.9241 71.3599 85.8887 71.4306 85.8533C71.3245 85.5346 71.2538 85.1844 71.2185 84.8303C71.1478 84.2677 71.0418 83.5988 71.1478 82.926C71.2185 82.3279 71.3952 81.726 71.674 81.1279C71.7447 80.9509 71.9921 80.8446 72.1649 80.9155C72.3417 80.9863 72.4477 81.2342 72.377 81.4073C72.1296 81.9699 71.9882 82.5011 71.9215 83.0283C71.8861 83.2762 71.8861 83.5201 71.8861 83.768C71.9568 83.5909 72.0275 83.4139 72.1335 83.2408C72.6244 82.5365 73.2959 82.0407 73.9989 81.9384C74.1756 81.903 74.317 81.9384 74.4898 81.9384C76.3198 81.1279 77.4783 81.7968 78.1145 82.7844C78.2206 82.7489 78.3266 82.6781 78.4326 82.6427C78.7861 82.5011 79.1709 82.4302 79.5597 82.324C79.8778 82.2532 80.1566 82.1824 80.4747 82.0761C80.7928 81.9699 81.0717 81.8283 81.3898 81.6512C81.7079 81.5096 82.022 81.3325 82.3401 81.2263C82.7289 81.0846 83.1138 81.0492 83.4672 80.9784C83.7146 80.943 83.9581 80.8722 84.2055 80.8368C84.7671 80.6597 85.3326 80.4473 85.8942 80.2741C85.9649 80.2387 86.0709 80.2387 86.1416 80.2033C86.2123 80.1679 86.283 80.1679 86.3537 80.1325C87.0213 79.92 87.6889 79.743 88.3251 79.5699C88.3604 79.5699 88.4311 79.5345 88.4665 79.5345C88.922 79.3574 89.3461 79.1803 89.8017 79.0426C90.5046 78.8302 91.1722 78.7239 91.8084 78.5862C91.8438 78.5862 91.8791 78.5862 91.9145 78.5508C92.0559 78.5154 92.1972 78.48 92.3347 78.4446C92.476 78.4092 92.6174 78.4092 92.7549 78.3738C93.1437 78.3029 93.5285 78.2321 93.8466 78.1613C94.4435 78.0197 95.0758 77.7718 95.8887 77.6341C96.521 77.4924 97.1886 77.3862 97.9308 77.2446C98.5631 77.1383 99.2307 76.8905 99.9729 76.7527C100.641 76.6111 101.344 76.5403 102.046 76.4341C102.749 76.3278 103.417 76.2216 104.12 76.1154C104.823 76.0445 105.491 75.9737 106.194 75.9383C106.896 75.8675 107.635 75.8675 108.267 75.8675C108.97 75.8675 109.708 76.0091 110.341 76.0445C111.114 76.0799 111.817 76.0445 112.449 76.1862C113.223 76.3986 113.926 76.6426 114.386 77.0321C114.633 77.28 114.774 77.5239 114.876 77.8072C115.194 77.5593 115.367 77.3823 115.509 77.2446C115.685 77.0675 115.862 76.8905 116.247 76.5757C116.632 76.2609 116.879 76.1508 117.091 76.0131C117.303 75.9068 117.512 75.7652 117.865 75.4858C118.042 75.3442 118.148 75.238 118.254 75.1671C118.042 73.8294 117.865 72.5231 117.657 71.15C117.445 69.7769 117.303 69.108 117.166 68.4352C117.025 67.7663 116.883 67.062 116.675 65.685C116.463 64.3118 116.428 63.5721 116.392 62.8993C116.357 62.1951 116.322 61.5262 116.11 60.1845C115.124 55.1444 114.421 50.0689 113.718 45.2058C113.156 41.1533 112.555 36.9945 111.817 32.8003C111.185 28.9956 107.737 26.0684 104.01 26.0684C103.727 26.0684 103.413 26.1038 103.13 26.1392C101.83 26.3516 101.194 26.4225 100.527 26.4933C99.8944 26.5641 99.2268 26.6349 97.9583 26.8474C94.8637 27.3392 92.5428 27.7287 89.7624 28.1497L87.6535 28.4684C87.5828 28.4684 87.5122 28.5038 87.4415 28.5038C86.8445 28.6809 86.3851 29.031 86.0356 29.5622C85.5447 30.3727 85.4386 31.5019 85.7528 32.4855C85.9295 33.6148 85.6468 34.6338 84.9792 35.5151C84.3115 36.361 83.3965 36.9237 82.3401 37.0653C81.7079 37.1716 81.4251 37.2424 81.1109 37.3486C80.7968 37.4548 80.4433 37.5611 79.7404 37.6673C79.5637 37.7027 79.3869 37.7027 79.2141 37.7027C77.2781 37.7027 75.452 36.1525 75.1339 34.1774C74.9571 32.8397 74.4309 31.7104 73.6926 31.1478C73.2017 30.7937 72.6362 30.656 72.0039 30.7229H71.8626L71.407 30.8291C67.959 31.5688 65.4613 32.0606 61.8759 32.6272C61.1729 32.698 60.5053 32.7334 59.8691 32.7334C59.4489 32.7688 59.0601 32.7688 58.6713 32.8042C56.9473 33.2961 55.5767 34.2836 54.5203 35.6961C51.3197 39.8903 53.0084 42.5697 53.9588 47.1495C54.5203 51.2728 54.7678 54.0585 55.2233 58.1818C55.9263 63.9971 56.912 68.8601 57.7916 74.6399C58.3179 78.7633 58.6713 81.5489 59.2682 85.6369C59.5157 86.8369 59.7238 87.8913 59.9005 88.9143C60.2186 90.677 60.4974 92.3334 60.7448 94.2023C60.8509 94.9774 60.9569 95.7525 61.0629 96.5984C61.9073 100.651 62.4689 103.401 62.999 107.525C63.7727 113.34 64.1614 118.274 65.4967 123.983C65.9169 126.733 65.532 126.768 65.9169 129.515C66.197 131.348 66.4785 133.18 66.7612 135.011C67.1814 137.761 67.2874 137.761 67.7116 140.472C67.8883 141.354 67.9943 142.306 68.1318 143.222C68.3438 142.589 68.6227 141.955 68.9054 141.318C69.0115 141.003 69.3256 140.472 69.6791 139.945L69.6869 139.972Z" fill="#F5B731" fill-opacity="0.8"/>
</svg>
