<svg width="33" height="32" viewBox="0 0 33 32" fill="none" xmlns="http://www.w3.org/2000/svg">
<path d="M23.5 12H22.5V7C22.5 5.4087 21.8679 3.88258 20.7426 2.75736C19.6174 1.63214 18.0913 1 16.5 1C14.9087 1 13.3826 1.63214 12.2574 2.75736C11.1321 3.88258 10.5 5.4087 10.5 7V12H9.5C8.43949 12.0012 7.42275 12.423 6.67285 13.1729C5.92296 13.9227 5.50116 14.9395 5.5 16V27C5.50116 28.0605 5.92296 29.0773 6.67285 29.8271C7.42275 30.577 8.43949 30.9988 9.5 31H23.5C24.5605 30.9988 25.5773 30.577 26.3271 29.8271C27.077 29.0773 27.4988 28.0605 27.5 27V16C27.4988 14.9395 27.077 13.9227 26.3271 13.1729C25.5773 12.423 24.5605 12.0012 23.5 12ZM20.5 12H12.5V7C12.5 5.93913 12.9214 4.92172 13.6716 4.17157C14.4217 3.42143 15.4391 3 16.5 3C17.5609 3 18.5783 3.42143 19.3284 4.17157C20.0786 4.92172 20.5 5.93913 20.5 7V12Z" fill="#383B45"/>
</svg>
