<svg width="16" height="16" viewBox="0 0 16 16" fill="none" xmlns="http://www.w3.org/2000/svg">
<g id="volume-medium">
<g id="Vector">
<path fill-rule="evenodd" clip-rule="evenodd" d="M8.18754 3.00261C8.32563 2.99107 8.46422 3.01801 8.58793 3.08045C8.71164 3.14288 8.81563 3.23837 8.88837 3.35632C8.96111 3.47427 8.99975 3.61006 9 3.74864L9 3.74955V12.2495L9 12.2505C8.99975 12.389 8.96111 12.5248 8.88837 12.6428C8.81563 12.7607 8.71164 12.8562 8.58793 12.9186C8.46422 12.9811 8.32563 13.008 8.18754 12.9965C8.04945 12.9849 7.91726 12.9354 7.80562 12.8533C7.79866 12.8481 7.79182 12.8428 7.78513 12.8374L4.92973 10.4995C4.9293 10.4995 4.92886 10.4995 4.92842 10.4995C4.9278 10.4995 4.92718 10.4995 4.92656 10.4995H2.75C2.55109 10.4995 2.36032 10.4205 2.21967 10.2799C2.07902 10.1392 2 9.94846 2 9.74954V6.24955C2 6.05063 2.07902 5.85987 2.21967 5.71922C2.36032 5.57856 2.55109 5.49955 2.75 5.49955H4.92975L7.78513 3.16173C7.79182 3.15625 7.79866 3.15095 7.80562 3.14582C7.91725 3.06372 8.04945 3.01415 8.18754 3.00261ZM8 4.27822L5.56261 6.27381C5.387 6.42073 5.165 6.50072 4.93599 6.49955H3V9.49954H4.9249C5.15508 9.49825 5.37866 9.57658 5.55773 9.7213C5.55855 9.72196 5.55937 9.72263 5.56019 9.7233L8 11.7209V4.27822Z" fill="#2E313B" fill-opacity="0.6"/>
<path fill-rule="evenodd" clip-rule="evenodd" d="M10.7728 5.55462C11.0187 5.42912 11.3199 5.52679 11.4454 5.77276C11.7881 6.44443 12 7.17463 12 8C12 8.8172 11.779 9.56248 11.4469 10.2243C11.323 10.4711 11.0226 10.5707 10.7757 10.4469C10.5289 10.323 10.4293 10.0226 10.5531 9.77575C10.8298 9.22439 11 8.63218 11 8C11 7.35599 10.8369 6.78057 10.5546 6.22723C10.4291 5.98126 10.5268 5.68012 10.7728 5.55462Z" fill="#2E313B" fill-opacity="0.6"/>
<path fill-rule="evenodd" clip-rule="evenodd" d="M12.2481 4.06806C12.4867 3.92897 12.7928 4.00959 12.9319 4.24814C13.5877 5.3728 14 6.38763 14 8C14 9.61485 13.5697 10.6387 12.9338 11.7486C12.7966 11.9882 12.491 12.0711 12.2514 11.9338C12.0118 11.7966 11.9289 11.491 12.0662 11.2514C12.6478 10.2363 13 9.38514 13 8C13 6.61237 12.6623 5.77095 12.0681 4.75186C11.929 4.51331 12.0096 4.20716 12.2481 4.06806Z" fill="#2E313B" fill-opacity="0.6"/>
</g>
</g>
</svg>
