<svg width="180" height="180" viewBox="0 0 180 180" fill="none" xmlns="http://www.w3.org/2000/svg">
<path d="M147.556 104.37C147.556 103.073 147.592 103.073 147.592 101.807C147.846 98.268 147.52 95.0193 147.556 91.4804C147.773 87.7965 147.665 84.2616 147.628 80.6502C147.09 81.154 146.37 81.6256 145.538 82.0206C144.71 82.4196 143.701 82.7783 142.587 83.0685C140.067 83.3225 137.691 83.1774 136.071 82.6695C134.917 84.1125 133.37 84.7977 131.605 85.5957C131.102 85.8134 130.56 86.0633 130.021 86.3172C129.949 86.3535 129.912 86.3535 129.84 86.3535C129.732 86.3535 129.587 86.2809 129.514 86.1721C129.406 86.027 129.442 85.8094 129.551 85.6683L130.089 85.1645C131.315 83.9714 132.718 82.6373 133.112 81.158C130.773 78.8847 130.7 75.2733 130.954 71.6982C131.171 69.6385 131.601 67.0065 133.008 65.0194C129.876 64.9106 126.922 65.2733 123.754 64.9106C121.808 64.9106 120.514 65.0194 118.568 65.1282C116.622 65.0194 115.328 64.9469 113.382 64.9469C111.437 64.9831 110.142 64.9831 108.196 64.9106C106.902 64.9106 106.902 65.092 105.604 65.092C104.305 65.092 104.309 64.9831 103.047 64.9831C103.513 65.487 103.947 66.0311 104.341 66.6075C105.744 68.8082 106.464 72.202 106.178 75.2733C106.323 77.333 105.853 79.316 104.848 80.759C104.595 81.1943 104.486 81.553 104.382 81.7707C104.164 82.3108 104.02 82.5647 103.372 83C103.734 85.3096 103.77 87.2967 103.481 89.0298C104.956 89.6062 106.219 90.2592 107.296 90.9806C108.699 92.0286 110.283 93.2539 111.654 94.5195C112.482 95.3861 113.812 97.5506 113.346 98.8887C113.238 99.2515 112.916 99.719 112.156 99.8641H111.903C111.65 99.8641 111.4 99.8279 111.111 99.7916C111.473 100.441 111.722 101.126 111.903 101.815C112.803 102.319 113.631 102.972 114.387 103.693C115.682 104.85 116.546 106.22 117.374 107.736C117.804 108.566 118.094 109.542 118.564 110.336C120.51 110.227 121.804 110.118 123.75 110.154C125.695 110.118 126.99 110.227 128.936 110.336C130.23 110.336 130.23 110.154 131.528 110.154C132.827 110.154 132.823 110.263 134.121 110.263C135.42 110.263 135.416 110.154 136.714 110.154C138.013 110.154 138.009 110.299 139.307 110.299C140.819 110.227 141.972 110.191 143.339 110.154H144.493C146.366 110.299 147.769 108.856 147.769 106.942C147.733 105.64 147.552 105.64 147.552 104.378L147.556 104.37Z" fill="#F5B731" fill-opacity="0.8"/>
<path d="M133.804 80.7227C133.912 80.8315 133.948 80.9766 133.912 81.0855C133.623 82.4196 132.686 83.6127 131.645 84.6606C133.265 83.9392 134.596 83.2902 135.569 81.9521C135.677 81.807 135.858 81.7707 135.999 81.807C137.51 82.3471 139.886 82.4922 142.37 82.2423C143.307 81.9883 144.352 81.6659 145.321 81.158C146.221 80.7227 147.013 80.1463 147.552 79.4249C147.552 78.2681 147.516 77.1153 147.552 75.9585C147.624 74.044 147.661 72.7461 147.661 70.7953C147.516 68.0504 147.986 65.0557 144.384 64.9469C142.945 64.9106 141.502 64.8743 140.135 64.838C138.117 64.8018 136.139 64.838 134.049 64.9831H133.904C132.357 66.8614 131.886 69.6022 131.673 71.6982C131.492 75.2008 131.565 78.7034 133.796 80.7227H133.804ZM140.32 66.9299C140.61 66.9299 140.859 66.9662 141.148 67.0025C143.343 67.329 145.506 68.9896 145.791 72.2383C145.719 73.5724 145.18 74.9106 144.316 75.9585C143.99 76.3575 143.596 76.7163 143.198 77.0065C142.334 77.5466 141.289 77.6191 140.425 77.6191H140.28C137.361 77.6191 135.239 74.9106 134.949 72.3108V72.2383C135.167 68.5905 137.9 66.9299 140.316 66.9299H140.32Z" fill="#F5B731" fill-opacity="0.8"/>
<path d="M140.393 76.8251C141.184 76.8251 142.085 76.7525 142.768 76.3575C143.271 75.9948 143.705 75.5272 144.063 74.9871C144.601 74.1568 144.963 73.1814 144.999 72.2423C144.782 69.7514 143.198 68.3447 141.506 67.8731C141.108 67.7643 140.714 67.6917 140.316 67.6917C138.194 67.6917 135.958 69.0984 135.673 72.2423C135.962 74.5518 137.763 76.9339 140.388 76.8291L140.393 76.8251ZM138.592 73.4313C138.736 73.2862 138.99 73.2862 139.13 73.4313C139.456 73.7941 139.922 73.9351 140.388 73.9714C140.855 73.9714 141.289 73.79 141.578 73.4313C141.723 73.2862 141.976 73.2862 142.117 73.4313C142.258 73.5764 142.262 73.8303 142.117 73.9714C141.651 74.4752 141.036 74.7292 140.352 74.7292H140.316C139.633 74.7292 139.022 74.4752 138.515 73.9714C138.443 73.8263 138.443 73.5724 138.588 73.4313H138.592Z" fill="#F5B731" fill-opacity="0.8"/>
</svg>
