<svg width="167" height="48" viewBox="0 0 167 48" fill="none" xmlns="http://www.w3.org/2000/svg">
<g id="Frame" clip-path="url(#clip0_3_66)">
<path id="Vector" d="M14.1691 16.5504C9.36838 15.789 4.98768 15.0746 4.98768 10.5469C4.98768 6.5926 8.01647 4.30524 13.1421 4.30524C18.2677 4.30524 21.4375 7.44801 21.7165 12.8311H25.6772C25.2572 5.30479 20.6435 0.827209 13.28 0.827209C5.54562 0.830343 0.931933 4.40238 0.931933 10.7882C0.931933 18.0294 7.03855 19.0289 12.7221 19.9345C17.7558 20.793 22.5565 21.5544 22.5565 26.7934C22.5565 31.0798 19.1537 33.5583 13.3291 33.5583C7.50452 33.5583 4.33472 30.2244 3.96072 24.5092H0C0.465967 32.4178 5.40767 37.0364 13.2831 37.0364C21.6705 37.0364 26.6582 33.1291 26.6582 26.5083C26.6582 18.5527 20.0396 17.5061 14.1691 16.5536V16.5504Z" fill="#463738"/>
<path id="Vector_2" d="M75.4192 12.5021C70.5265 12.5021 67.5897 15.695 67.5897 21.075H67.4977V12.9784H63.675V36.557H67.4977V23.6475C67.4977 18.6467 69.9226 15.6919 74.0703 15.6919C77.798 15.6919 79.9439 18.0263 79.9439 21.9806V36.557H83.7667V21.8866C83.7667 15.9802 80.6919 12.5021 75.4253 12.5021H75.4192Z" fill="#463738"/>
<path id="Vector_3" d="M92.3748 0H88.552V5.00085H92.3748V0Z" fill="#463738"/>
<path id="Vector_4" d="M92.3748 12.9784H88.552V36.557H92.3748V12.9784Z" fill="#463738"/>
<path id="Vector_5" d="M33.7918 0H29.969V5.00085H33.7918V0Z" fill="#463738"/>
<path id="Vector_6" d="M33.7918 12.9784H29.969V36.557H33.7918V12.9784Z" fill="#463738"/>
<path id="Vector_7" d="M131.556 33.7933C126.988 33.7933 124.284 30.4594 124.284 24.7411C124.284 19.0227 126.988 15.6919 131.556 15.6919C134.959 15.6919 137.288 17.55 138.312 20.7899H142.135C141.016 15.5008 137.197 12.5021 131.556 12.5021C124.566 12.5021 120.37 17.0737 120.37 24.7442C120.37 32.4147 124.563 37.0332 131.556 37.0332C137.43 37.0332 141.249 33.7933 142.276 28.2191H138.453C137.567 31.7441 135.146 33.7933 131.556 33.7933Z" fill="#463738"/>
<path id="Vector_8" d="M55.0638 20.6959H54.9718C54.9718 15.5509 51.756 12.5021 46.4434 12.5021C40.2908 12.5021 36.655 17.0267 36.655 24.6972C36.655 32.3677 40.2908 36.9392 46.4434 36.9392C51.756 36.9392 54.9718 33.8435 54.9718 28.6985H55.0638V37.3685C55.0638 42.0372 52.4059 44.8008 47.8873 44.8008C43.9296 44.8008 41.3668 42.7109 40.9407 39.2266H37.262C37.728 44.7037 41.6887 47.9906 47.8873 47.9906C54.7848 47.9906 58.8865 43.9423 58.8865 37.0834V12.9784H55.0638V20.6959ZM47.9333 33.6993C43.2736 33.6993 40.5698 30.3654 40.5698 24.6972C40.5698 19.0289 43.2736 15.695 47.9333 15.695C52.5929 15.695 55.3427 19.1731 55.3427 24.6972C55.3427 30.2213 52.6389 33.6993 47.9333 33.6993Z" fill="#463738"/>
<path id="Vector_9" d="M155.722 12.5021C148.637 12.5021 144.398 17.0737 144.398 24.7442C144.398 32.4147 148.637 37.0332 155.722 37.0332C162.806 37.0332 167 32.4617 167 24.7442C167 17.0267 162.806 12.5021 155.722 12.5021ZM155.722 33.7965C151.062 33.7965 148.312 30.4626 148.312 24.7442C148.312 19.0258 151.062 15.695 155.722 15.695C160.381 15.695 163.131 19.0759 163.131 24.7442C163.131 30.4124 160.381 33.7965 155.722 33.7965Z" fill="#463738"/>
<path id="Vector_10" d="M105.204 9.26222C105.597 6.9028 106.063 5.05725 107.059 3.69737L107.227 3.46863H116.464V0H111.308L105.6 3.8133C103.23 5.44579 102.05 6.00979 101.115 10.7286L100.658 12.9878H95.655V15.0339H100.293L96.1516 39.2579C95.7806 41.5954 95.4833 42.8989 94.6495 44.2274H88.552V48.0031H90.3209L95.8849 44.0614C98.3895 42.338 99.6893 42.2879 100.45 37.074L104.223 15.0339H112.641V36.5601H116.464V12.9784L104.576 12.9878L104.585 12.9283L105.204 9.26222Z" fill="#463738"/>
</g>
<defs>
<clipPath id="clip0_3_66">
<rect width="167" height="48" fill="white"/>
</clipPath>
</defs>
</svg>
