<svg width="18" height="22" viewBox="0 0 18 22" fill="none" xmlns="http://www.w3.org/2000/svg">
<path fill-rule="evenodd" clip-rule="evenodd" d="M8.46967 1.18842C8.76257 0.895527 9.23744 0.895527 9.53033 1.18842L13.2803 4.93842C13.5732 5.23131 13.5732 5.70619 13.2803 5.99908L9.53033 9.74908C9.23744 10.042 8.76257 10.042 8.46967 9.74908C8.17678 9.45619 8.17678 8.98131 8.46967 8.68842L11.0521 6.10599C10.6147 6.06209 9.9611 6.03125 9 6.03125C7.66498 6.03125 6.35994 6.42713 5.2499 7.16883C4.13987 7.91053 3.27471 8.96474 2.76382 10.1981C2.25293 11.4315 2.11925 12.7887 2.3797 14.0981C2.64015 15.4075 3.28303 16.6102 4.22703 17.5542C5.17104 18.4982 6.37377 19.1411 7.68314 19.4016C8.99252 19.662 10.3497 19.5283 11.5831 19.0174C12.8165 18.5065 13.8707 17.6414 14.6124 16.5313C15.3541 15.4213 15.75 14.1163 15.75 12.7812C15.75 12.367 16.0858 12.0312 16.5 12.0312C16.9142 12.0312 17.25 12.367 17.25 12.7812C17.25 14.4129 16.7661 16.008 15.8596 17.3647C14.9531 18.7214 13.6646 19.7788 12.1571 20.4033C10.6497 21.0277 8.99085 21.1911 7.39051 20.8727C5.79017 20.5544 4.32016 19.7687 3.16637 18.6149C2.01259 17.4611 1.22685 15.9911 0.908525 14.3907C0.590197 12.7904 0.753575 11.1316 1.378 9.62411C2.00242 8.11662 3.05984 6.82815 4.41655 5.92163C5.77326 5.0151 7.36831 4.53125 9 4.53125C9.74856 4.53125 10.3379 4.5493 10.801 4.58039L8.46967 2.24908C8.17678 1.95619 8.17678 1.48131 8.46967 1.18842Z" fill="white"/>
</svg>
