<svg width="24" height="24" viewBox="0 0 24 24" fill="none" xmlns="http://www.w3.org/2000/svg">
<path d="M1.87219 8.34375L8.62969 8.63062C8.84578 8.6475 9.75 8.68781 9.75 9.84375C9.75 10.9594 8.85188 11.0311 8.61844 11.0569L1.87219 11.3438C1.27828 11.3377 0.75 10.6669 0.75 9.84375C0.75 9.02063 1.27828 8.34984 1.87219 8.34375ZM8.50266 14.5153L3.49922 14.9062C2.90625 14.9062 2.25 14.1239 2.25 13.3181V13.3027C2.25 12.5372 2.77219 11.9137 3.41625 11.9062L8.49984 11.9869C9.75 12.1406 9.75 12.8981 9.75 13.2244C9.75 14.2969 8.72812 14.4966 8.50266 14.5153ZM4.22578 1.5L8.415 1.91859C9.5625 1.96219 9.75 2.72719 9.75 3.20625C9.75 4.06828 9.12141 4.35938 8.49984 4.35938L4.23422 4.5C3.55219 4.48969 3 3.82078 3 3C3 2.17922 3.5475 1.51594 4.22578 1.5ZM2.61516 4.85156L8.54016 5.14313C8.98031 5.17266 9.75 5.28375 9.75 6.37875C9.75 6.94125 9.54609 7.57969 8.57812 7.66922L2.61516 7.85156C1.99922 7.84453 1.5 7.21875 1.5 6.37875C1.5 5.53875 1.99922 4.85859 2.61516 4.85156Z" fill="#373737"/>
<path d="M17.7398 12.8405C17.8484 12.7813 17.9701 12.7502 18.0938 12.75C17.9708 12.7504 17.8499 12.7812 17.7417 12.8395L17.7398 12.8405Z" fill="#373737"/>
<path d="M15.8372 16.0884L15.8311 16.0988C15.833 16.0952 15.835 16.0918 15.8372 16.0884C16.7981 14.4239 17.2603 13.5103 17.4225 13.1822C17.2598 13.5131 16.7972 14.4248 15.8372 16.0884Z" fill="#373737"/>
<path d="M17.4684 13.0856L17.4216 13.1794C17.4894 13.0357 17.6003 12.9167 17.7389 12.8391C17.6303 12.8984 17.5375 12.983 17.4684 13.0856Z" fill="#373737"/>
<path d="M9.18469 21.5334C9.62672 22.1564 10.3594 22.5 11.25 22.5C11.3893 22.5 11.5258 22.4611 11.6443 22.3879C11.7628 22.3146 11.8585 22.2098 11.9208 22.0852C12.0614 21.8011 12.6356 20.9602 13.2422 20.0742C14.0859 18.84 15.1336 17.3048 15.8311 16.0988L15.8372 16.0884C16.7972 14.4248 17.2598 13.5131 17.4225 13.1822L17.4694 13.0884C17.5389 12.9862 17.632 12.9021 17.7408 12.8433C17.8489 12.7835 17.9702 12.7514 18.0938 12.75H19.2806C20.3335 12.7498 21.3431 12.3313 22.0875 11.5868C22.8318 10.8422 23.25 9.83252 23.25 8.77969V6.97031C23.25 5.9174 22.8318 4.90761 22.0873 4.16304C21.3428 3.41848 20.3331 3.00012 19.2802 3H16.9931C16.8334 2.99962 16.6773 2.95253 16.5441 2.86453C15.4688 2.16234 13.4372 1.5 11.25 1.5C10.9008 1.5 10.5848 1.50656 10.2998 1.51781C10.2319 1.52023 10.166 1.54105 10.109 1.57804C10.052 1.61504 10.0061 1.66682 9.9763 1.72785C9.94646 1.78889 9.93375 1.85688 9.93955 1.92458C9.94535 1.99227 9.96943 2.05712 10.0092 2.11219L10.0139 2.11875C10.4156 2.69953 10.5 3.32812 10.5 3.75C10.5007 4.14976 10.4179 4.54526 10.2567 4.91109C10.2108 5.01489 10.1871 5.12713 10.1871 5.24063C10.1871 5.35412 10.2108 5.46636 10.2567 5.57016C10.4171 5.94325 10.4998 6.34508 10.4998 6.75117C10.4998 7.15726 10.4171 7.5591 10.2567 7.93219C10.211 8.03555 10.1875 8.14731 10.1875 8.26031C10.1875 8.37332 10.211 8.48507 10.2567 8.58844C10.4163 8.95507 10.4986 9.35063 10.4986 9.75047C10.4986 10.1503 10.4163 10.5459 10.2567 10.9125C10.2087 11.0209 10.184 11.1381 10.184 11.2566C10.184 11.3751 10.2087 11.4923 10.2567 11.6006C10.4238 11.9769 10.5068 12.3852 10.5 12.7969C10.5 13.1812 10.4062 13.7953 10.125 14.2584C10.0682 14.3541 10.0339 14.4614 10.0246 14.5722C10.0154 14.6831 10.0314 14.7945 10.0716 14.8983C10.0894 14.9452 10.1072 14.9948 10.1245 15.0469C10.1807 15.2219 10.1945 15.4078 10.1648 15.5892C10.0242 16.4963 9.71156 17.2908 9.38016 18.128C9.23578 18.4927 9.08625 18.8695 8.94797 19.2656C8.66016 20.0887 8.74641 20.9156 9.18469 21.5334Z" fill="#373737"/>
</svg>
