<svg width="24" height="24" viewBox="0 0 24 24" fill="none" xmlns="http://www.w3.org/2000/svg">
<g id="thumbs-down">
<path id="Vector" d="M21 15C21.6 15 22 14.5966 22 13.9916L22 4.0084C22 3.4034 21.6 3 21 3C20.4 3 20 3.4034 20 4.0084L20 13.9916C20 14.5966 20.4 15 21 15Z" fill="#7B61FF"/>
<path id="Vector_2" d="M4.2987 15.1313L10.5417 15.1313L9.3334 18.7677C8.8299 20.2828 10.0382 22 11.75 22C12.4549 22 13.1597 21.697 13.5625 21.1919L17.9931 16.1414C18.5972 15.4343 19 14.5253 19 13.6162L19 4.3232C19 3.0101 17.9931 2 16.684 2L7.3195 2C6.0105 2 4.8021 2.9091 4.3994 4.2222L2.0834 12.101C1.6806 13.6162 2.7883 15.1313 4.2987 15.1313Z" fill="#7B61FF"/>
</g>
</svg>
