<svg width="14" height="16" viewBox="0 0 14 16" fill="none" xmlns="http://www.w3.org/2000/svg">
<path d="M13.4785 11.7422C13.7441 11.7422 13.9434 12.0742 13.7441 12.3398C12.3496 14.0332 10.2578 15.0625 7.9668 15.0625C3.88281 15.0625 0.5625 11.7422 0.5625 7.625C0.5625 3.54102 3.88281 0.1875 8 0.1875C8.39844 0.1875 8.99609 0.253906 9.36133 0.320312C9.69336 0.386719 9.75977 0.818359 9.46094 0.984375C7.63477 2.01367 6.53906 3.93945 6.53906 6.03125C6.53906 9.31836 9.16211 11.875 12.3164 11.875C12.6816 11.875 13.0469 11.8418 13.4121 11.7754C13.4453 11.7422 13.4453 11.7422 13.4785 11.7422ZM7.9668 13.4688C8.69727 13.4688 9.39453 13.3691 10.0586 13.1035C7.07031 12.1406 4.91211 9.35156 4.91211 6.03125C4.91211 4.63672 5.31055 3.27539 6.00781 2.14648C3.75 2.94336 2.15625 5.10156 2.15625 7.625C2.15625 10.8457 4.74609 13.4688 7.9668 13.4688Z" fill="white"/>
</svg>
