<svg width="24" height="24" viewBox="0 0 24 24" fill="none" xmlns="http://www.w3.org/2000/svg">
<g id="bookmark">
<path id="Vector" fill-rule="evenodd" clip-rule="evenodd" d="M4.88 2.88C5.44 2.32 6.21 2 7 2H16C16.8 2 17.56 2.32 18.12 2.88C18.68 3.44 19 4.21 19 5V22.25C19 22.55 18.83 22.81 18.56 22.93C18.29 23.05 17.98 23 17.75 22.81L11.5 17.25L5.25 22.81C5.03 23.01 4.71 23.05 4.44 22.93C4.17 22.81 4 22.54 4 22.25V5C4 4.2 4.32 3.44 4.88 2.88ZM7.42 4.04C7.06 4.04 6.71 4.19 6.46 4.45C6.2 4.71 6.06 5.07 6.06 5.44V19.28L11.05 14.7C11.31 14.46 11.7 14.46 11.95 14.7L16.94 19.28V5.44C16.94 5.07 16.8 4.71 16.54 4.45C16.28 4.19 15.94 4.04 15.58 4.04H7.42Z" fill="#2E313B"/>
</g>
</svg>
