<svg width="24" height="24" viewBox="0 0 24 24" fill="none" xmlns="http://www.w3.org/2000/svg">
<path fill-rule="evenodd" clip-rule="evenodd" d="M5.37868 2.37868C5.94129 1.81607 6.70435 1.5 7.5 1.5H16.5C17.2956 1.5 18.0587 1.81607 18.6213 2.37868C19.1839 2.94129 19.5 3.70435 19.5 4.5V21.75C19.5 22.0453 19.3267 22.3132 19.0572 22.4342C18.7878 22.5552 18.4725 22.5068 18.2517 22.3106L12 16.7535L5.74827 22.3106C5.52753 22.5068 5.21218 22.5552 4.94276 22.4342C4.67333 22.3132 4.5 22.0453 4.5 21.75V4.5C4.5 3.70435 4.81607 2.94129 5.37868 2.37868ZM7.5 3C7.10218 3 6.72064 3.15804 6.43934 3.43934C6.15804 3.72064 6 4.10218 6 4.5V20.0799L11.5017 15.1894C11.7859 14.9369 12.2141 14.9369 12.4983 15.1894L18 20.0799V4.5C18 4.10218 17.842 3.72064 17.5607 3.43934C17.2794 3.15804 16.8978 3 16.5 3H7.5Z" fill="#373737"/>
</svg>
