<svg width="180" height="180" viewBox="0 0 180 180" fill="none" xmlns="http://www.w3.org/2000/svg">
<path d="M69.8496 86.6066C67.185 84.0833 65.26 80.895 64.2427 77.2177C64.3835 79.0055 64.5596 80.8285 64.7318 82.7532C65.5026 91.1641 66.3086 99.8879 65.1191 108.052C68.5545 102.13 69.4661 95.4712 69.8144 86.7122C69.8144 86.7122 69.8496 86.6418 69.8496 86.6066Z" fill="#F5F3F1"/>
<path d="M102.302 111.276C102.302 109.629 102.337 107.947 102.372 106.3C102.442 102.165 102.513 97.9241 102.231 93.8243C102.513 88.4648 102.337 83.031 101.672 76.7952C100.619 79.8779 98.8662 82.7885 96.589 85.2765L96.5538 85.3117L96.6242 86.2584C97.2189 94.9823 97.8841 103.953 102.302 111.276Z" fill="#F5F3F1"/>
<path d="M177.195 174.49C176.948 173.755 176.67 172.843 176.283 171.513C175.336 167.66 173.129 160.442 168.641 155.255C165.171 151.014 161.563 148.108 156.935 145.831C156.269 145.408 155.675 145.025 155.041 144.606C153.605 143.624 152.098 142.607 150.416 141.837C148.315 140.819 146.139 139.873 143.757 138.996C144.003 140.084 143.897 141.273 143.369 142.326C141.828 145.373 140.634 148.561 139.374 151.75C138.009 154.938 136.569 158.091 135.626 161.35C134.574 165.027 134.331 169.444 133.873 173.508C133.591 176.243 131.807 178.484 129.42 179.537C135.763 179.607 142.004 179.678 148.205 179.748C155.076 179.748 161.802 179.818 168.849 179.818C170.25 179.854 171.654 179.889 173.02 179.924H178.345C177.958 176.982 177.821 176.525 177.187 174.494L177.195 174.49Z" fill="#F5F3F1"/>
<path d="M67.7797 124.311C69.7087 125.504 72.8976 126.552 77.2407 127.675C78.8879 128.098 80.7112 128.763 82.7419 129.252C88.8731 129.357 95.5678 128.411 102.474 125.993C102.755 125.887 102.998 125.782 103.28 125.676L103.209 125.011C102.928 122.734 102.65 120.559 102.438 118.353C102.262 116.287 102.262 114.077 102.262 111.941L102.227 111.976C102.157 112.011 102.086 112.047 102.016 112.047C101.875 112.047 101.769 111.976 101.699 111.87C97.1446 104.371 96.4403 95.1896 95.7751 86.3602L95.7399 86.0785C92.062 89.7558 87.5741 91.9309 83.0549 92.1773C78.3949 92.0717 73.9775 90.3543 70.4717 87.3069C70.0843 96.1011 69.1061 102.83 65.4595 108.893C65.3891 108.999 65.2482 109.069 65.1426 109.069C65.0722 109.069 65.0017 109.069 64.9313 108.999L64.8961 108.964C63.9492 114.323 62.3372 118.74 59.9191 122.421C59.8839 122.492 59.8487 122.527 59.8135 122.597C60.7604 123.298 61.8129 123.963 63.0023 124.596C64.4031 123.368 66.1912 123.266 67.768 124.315L67.7797 124.311Z" fill="#F5F3F1"/>
<path d="M56.5659 126.693C57.9667 126.904 59.1953 127.918 60.1774 127.116C61.089 126.345 61.719 125.923 62.4898 125.117C61.3668 124.522 60.3887 123.857 59.4418 123.188C58.6358 124.448 57.6537 125.606 56.5699 126.693H56.5659Z" fill="#F5F3F1"/>
<path d="M93.7484 29.2797C93.6075 29.2093 93.5019 29.1037 93.361 29.0333C93.2202 28.9276 93.1145 28.8572 92.9736 28.7516C90.1682 26.823 87.2611 25.7393 84.2835 25.5281C97.215 29.5927 102.368 47.9205 103.35 58.4674C103.421 58.3969 103.491 58.3265 103.561 58.2913C104.579 57.4502 105.627 56.926 106.715 56.7148C106.05 56.6444 105.944 56.2923 105.944 55.6977C105.874 49.5323 105.138 46.1679 102.196 41.1566C100.584 36.3918 97.9897 32.2568 94.0301 29.5223C93.9949 29.4871 93.9244 29.4518 93.8892 29.4166C93.854 29.311 93.8188 29.311 93.7484 29.2758V29.2797Z" fill="#F5F3F1"/>
<path d="M109.274 179.85C108.468 179.85 107.627 179.885 106.821 179.955H114.74C115.159 179.955 115.581 179.92 116 179.92C113.899 179.885 111.653 179.85 109.27 179.85H109.274Z" fill="#F5F3F1"/>
<path d="M84.1114 29.667C84.3227 29.667 84.4987 29.8078 84.4987 30.0191C84.4987 30.2303 84.3579 30.4064 84.1466 30.4064C67.8502 31.2122 59.3674 46.7 57.055 59.6996C57.055 60.0517 57.055 60.5407 56.9846 60.9945C56.8437 65.5129 56.9494 70.0704 57.3367 75.6412C57.548 78.1292 57.7906 80.6877 58.0371 83.387L58.2484 85.6638C58.984 92.2868 58.7375 99.4693 58.4949 106.409L58.4245 108.827L58.1428 110.791C57.6185 114.679 57.055 118.638 55.9712 122.39C56.0768 122.249 56.2881 122.179 56.4603 122.249C56.6364 122.355 56.7068 122.566 56.6364 122.773C56.5307 122.985 56.4251 123.09 56.3194 123.196C55.9321 123.65 55.6543 123.966 55.4078 124.213C54.9539 125.473 54.4257 126.631 53.8662 127.648C54.1831 127.472 54.4961 127.26 54.8483 127.053C55.0595 126.912 55.2669 126.842 55.443 126.771C56.7733 125.512 57.9315 124.143 58.9136 122.672C58.8783 122.566 58.9136 122.425 58.984 122.355C59.0544 122.249 59.1601 122.214 59.2657 122.214C59.3009 122.143 59.3713 122.073 59.4066 122.003C61.8246 118.325 63.4366 113.909 64.3483 108.514C65.6434 100.279 64.8022 91.4145 64.0314 82.8628C63.8201 80.4803 63.6127 78.2035 63.4366 75.958C63.4719 74.4871 63.5071 73.0514 63.5423 71.5766C63.5775 68.1418 63.6479 64.6053 64.0666 61.1706C63.9257 61.0649 63.8553 60.8889 63.9609 60.7168C64.0314 60.5759 64.1018 60.4351 64.1722 60.263C64.9078 54.2697 67.0129 45.9684 76.0512 41.3053C76.2273 41.1997 76.4699 41.2701 76.5755 41.4813C76.6811 41.6574 76.6107 41.9038 76.3994 42.0055C70.1626 45.229 66.692 50.3108 65.256 58.2639C69.7439 50.4516 78.0819 42.7762 88.1415 41.6182C88.3527 41.6182 88.5288 41.7591 88.5601 41.9703C88.5914 42.1816 88.4193 42.3576 88.2432 42.3928C77.6241 43.6173 68.9692 52.2746 64.9391 60.5446C64.9391 60.6503 64.9039 60.7559 64.9039 60.8615C64.45 64.4019 64.3796 68.0792 64.3444 71.6548C64.3444 72.848 64.3092 74.0724 64.274 75.2656C64.4852 75.2304 64.6613 75.3712 64.7278 75.5473C65.6043 79.9992 67.811 83.8525 71.1055 86.6887C74.4705 89.6658 78.7823 91.348 83.231 91.4184C87.7189 91.1719 92.2028 88.9303 95.8495 85.077V84.8305C95.8495 84.6193 95.9903 84.4432 96.2016 84.408C96.272 84.408 96.3425 84.408 96.4129 84.4432C98.6549 81.92 100.337 78.9781 101.284 75.8602C101.39 75.5434 101.496 75.2304 101.566 74.9135C101.147 71.201 100.513 67.6254 99.9539 64.5427L99.9187 64.4371C99.8835 64.3315 99.8483 64.2259 99.8483 64.0498C99.7074 63.2439 99.4961 62.3676 99.324 61.4914C99.1479 60.6503 98.9718 59.774 98.7997 58.8977C98.7644 58.6864 98.9053 58.5104 99.1166 58.4439C99.3279 58.4087 99.5039 58.5495 99.5705 58.7608C99.7113 59.6371 99.9226 60.4781 100.095 61.3192L100.619 63.9481C100.619 64.0537 100.654 64.1241 100.654 64.1594C100.689 64.2298 100.689 64.3002 100.689 64.4058C101.179 67.0347 101.707 70.1174 102.125 73.3761H102.266C102.478 73.4113 102.618 73.6226 102.548 73.8299C102.478 74.182 102.407 74.5302 102.302 74.9174C102.337 75.3047 102.372 75.6881 102.442 76.0754C103.178 82.6281 103.389 88.234 103.072 93.7695C103.354 97.8341 103.284 102.11 103.213 106.245C103.178 108.103 103.143 109.957 103.143 111.78C103.143 113.916 103.143 116.162 103.319 118.228C103.53 120.399 103.808 122.574 104.09 124.851L104.16 125.34C104.755 125.093 105.353 124.851 105.948 124.569C105.983 124.569 106.019 124.534 106.054 124.534C106.265 123.204 106.472 121.87 106.613 120.61C107.384 114.617 107.771 108.87 107.771 103.475C107.001 93.2101 105.565 83.6765 103.53 75.0935C102.618 71.1697 101.742 67.9462 100.83 64.93C100.76 64.7188 100.866 64.5075 101.077 64.4762C101.288 64.4058 101.496 64.5114 101.531 64.7227C102.478 67.735 103.319 70.9937 104.266 74.9214C106.3 83.5396 107.736 93.1436 108.542 103.444C108.542 108.909 108.155 114.691 107.349 120.684C107.208 121.842 107.032 122.996 106.86 124.154C107.56 123.837 108.261 123.489 108.961 123.102C109.137 122.996 109.38 123.067 109.485 123.243C109.591 123.419 109.52 123.665 109.344 123.767C108.468 124.221 107.591 124.678 106.75 125.062C106.68 125.516 106.609 125.973 106.539 126.462C108.116 126.04 109.587 125.621 110.816 125.097C111.586 124.78 112.392 124.538 113.198 124.397C111.34 123.239 109.52 122.05 107.975 120.892C107.799 120.751 107.764 120.54 107.905 120.367C108.045 120.191 108.257 120.156 108.429 120.297C110.146 121.592 112.248 122.926 114.388 124.256C114.67 124.221 114.912 124.221 115.194 124.221C116.035 116.651 115.789 109.05 114.947 101.793C113.895 96.6761 112.635 91.7353 111.406 86.7592C110.213 81.8887 109.2 77.0534 108.636 71.8661C107.513 72.8128 106.218 73.6186 104.923 74.1781C104.888 74.2133 104.817 74.2133 104.782 74.2133C104.641 74.2133 104.5 74.1429 104.43 73.9668C104.36 73.7908 104.43 73.5443 104.641 73.4778C106.077 72.8832 107.447 71.9717 108.636 70.8489C112.107 67.2029 113.997 62.0195 110.984 58.3031C108.707 56.4448 105.972 57.3915 104.219 58.8273C102.677 60.0517 101.73 61.8395 101.589 63.6977C101.589 63.909 101.378 64.0498 101.171 64.0498C100.963 64.0498 100.819 63.8386 100.819 63.6273C100.959 61.9451 101.695 60.3334 102.885 59.0737C102.849 59.0385 102.814 59.0033 102.814 58.9329C101.902 47.8971 96.2251 27.398 81.259 25.575C80.6291 25.6454 79.9991 25.7863 79.3653 25.9271C79.154 25.9623 78.9466 25.8567 78.9114 25.6454V25.575C76.6694 26.0288 74.3922 26.7995 72.1111 27.7462C69.7635 28.7633 67.4511 30.023 65.4517 31.4235C58.2327 37.4167 53.2558 47.6467 52.798 57.5989C54.1988 57.8453 55.533 58.6512 56.4446 59.7701V59.5588C58.6866 46.2775 67.3806 30.512 84.0957 29.6709L84.1114 29.667ZM86.459 78.9703C85.9699 79.917 85.0935 80.5821 83.9001 80.8989C83.3053 81.075 82.6402 81.1454 82.0063 81.1454C80.813 81.1454 79.6587 80.8637 78.9583 80.4803C78.7823 80.3747 78.7118 80.1283 78.8175 79.9561C78.9231 79.7801 79.1696 79.7097 79.3418 79.8153C80.2182 80.3395 82.1472 80.6212 83.6888 80.1674C84.6709 79.8857 85.3713 79.3615 85.7547 78.5908C85.8603 78.4148 86.0716 78.3444 86.279 78.45C86.4903 78.5908 86.5607 78.8021 86.4551 78.9742L86.459 78.9703Z" fill="#F5F3F1"/>
<path d="M49.5896 127.358C50.0435 127.006 50.5365 126.658 51.0608 126.235C52.1133 125.535 52.7784 125.113 53.2675 124.835C53.8975 124.448 54.2496 124.24 54.7035 123.818C54.7739 123.642 54.8443 123.431 54.9148 123.258C56.2099 119.264 56.8085 114.918 57.368 110.713L57.6498 108.784L57.7202 106.401C57.9667 99.4967 58.2093 92.3494 57.4737 85.7616L57.2624 83.4848C57.0159 80.7855 56.7733 78.227 56.562 75.7077C56.1747 70.1017 56.0729 65.509 56.2451 60.9202V60.7794C56.1394 60.7794 55.9986 60.709 55.9282 60.6033C55.1221 59.4102 53.7566 58.573 52.2815 58.3617C51.9294 58.2913 51.722 58.2913 51.4051 58.2913C50.5286 58.2913 49.7578 58.4674 49.0222 58.8859C47.5511 59.9735 46.745 61.4796 46.6746 63.2674C46.569 66.0371 48.2867 69.3311 51.1273 71.8504C52.4224 73.0436 53.9992 73.9512 55.5799 74.4793C55.7912 74.5497 55.8969 74.761 55.8264 74.9683C55.7912 75.1443 55.6151 75.2148 55.4743 75.2148C55.4391 75.2148 55.4039 75.2148 55.3686 75.1796C54.0383 74.7258 52.7745 74.0568 51.6203 73.1805C51.4794 74.405 51.4442 75.5629 51.409 76.6857C51.3386 78.1918 51.3034 79.6275 51.0569 80.9967C50.7399 82.0491 50.4621 83.0271 50.1804 83.9738C48.8853 88.2496 47.7624 91.9622 47.2733 96.727C46.1503 110.008 46.6785 120.203 48.8853 127.879C48.9557 127.843 48.9909 127.808 49.0614 127.773L49.5857 127.354L49.5896 127.358Z" fill="#F5F3F1"/>
<path d="M89.6478 179.955H94.9065C93.9948 179.885 93.0832 179.85 92.1363 179.85C91.2951 179.85 90.4891 179.885 89.6478 179.955Z" fill="#F5F3F1"/>
<path d="M49.2766 179.85C47.418 179.85 45.9821 178.555 45.9116 176.732C45.8412 174.244 45.1761 170.985 44.9648 167.762C44.6478 164.397 44.7183 161.033 44.3348 158.721C43.7049 155.427 43.0397 152.098 42.1633 149.05C41.1108 145.373 39.6748 142.181 38.6223 139.763C37.9923 138.328 38.4462 136.469 39.8157 135.769C42.3041 134.404 45.3521 132.651 48.4705 130.828C50.2939 129.776 51.3425 129.181 52.395 128.516C53.0602 127.534 53.6549 126.415 54.1831 125.152C54.007 125.257 53.831 125.363 53.6588 125.469C53.1697 125.75 52.5006 126.169 51.4872 126.834C50.9982 127.221 50.5052 127.605 50.0161 127.957L49.4918 128.379C49.3509 128.485 49.1748 128.591 49.0379 128.696C49.0027 128.802 48.9322 128.907 48.7914 128.943H48.6857C45.0391 131.501 40.9386 133.813 36.2081 135.949C35.1908 136.508 34.2087 137.001 33.2658 137.455C13.851 147.548 4.49177 155.079 2.95016 179.819C4.10832 179.819 4.91434 179.854 5.61472 179.924H40.9777C40.4534 163.384 37.8593 149.895 33.0584 138.648C32.988 138.472 33.0584 138.226 33.2697 138.159C33.481 138.089 33.6884 138.159 33.7588 138.371C38.5949 149.688 41.2242 163.286 41.7485 179.893C42.4137 179.858 43.1845 179.822 44.237 179.822C45.4617 179.822 46.3029 179.858 47.0424 179.928H51.5968C50.7204 179.893 49.9496 179.858 49.2844 179.858L49.2766 179.85Z" fill="#F5F3F1"/>
<path d="M32.9097 136.786C33.8918 136.297 34.8387 135.804 35.8873 135.28C40.6178 133.144 44.6478 130.899 48.2593 128.344C48.1888 128.168 48.1536 127.992 48.1184 127.785C44.0531 130.832 39.5653 133.215 35.0109 135.214C33.9583 135.773 33.0115 136.266 32.0685 136.72C12.2311 147.055 3.01669 154.977 1.57681 179.748C1.57681 179.795 1.60029 179.819 1.64724 179.819H2.20676C3.67793 155.779 12.5089 147.407 32.9058 136.79L32.9097 136.786Z" fill="#F5F3F1"/>
<path d="M105.596 126.693C105.666 126.271 105.737 125.887 105.772 125.469C105.213 125.715 104.684 125.958 104.125 126.169C104.16 126.451 104.195 126.728 104.23 127.045C104.684 126.94 105.142 126.834 105.596 126.693Z" fill="#F5F3F1"/>
<path d="M102.72 126.693C97.2541 128.622 91.925 129.6 86.8777 129.881C86.9481 129.881 87.0185 129.881 87.1242 129.917C89.7535 130.093 92.555 129.67 95.2195 129.357C97.9545 129.04 100.513 127.992 102.998 127.358C103.174 127.323 103.35 127.253 103.522 127.217C103.487 126.971 103.452 126.693 103.417 126.447C103.17 126.517 102.928 126.623 102.716 126.693H102.72Z" fill="#F5F3F1"/>
<path d="M46.5064 96.6292C46.9955 91.794 48.1184 88.0462 49.4487 83.7352C49.7304 82.7885 50.0082 81.8417 50.3252 80.8285C50.5365 79.5689 50.6069 78.1644 50.6773 76.6935C50.7125 75.469 50.783 74.1703 50.9238 72.805C50.9238 72.7345 50.959 72.6993 50.9942 72.6641C50.8886 72.5585 50.783 72.4881 50.6773 72.4177C50.1178 71.9287 49.5896 71.3653 49.1005 70.8059C49.5896 71.4357 50.1178 72.0656 50.6773 72.6289V72.6993L50.5013 72.8754C50.1843 75.8524 50.3604 78.4813 49.9417 80.7933C48.4353 86.2936 46.9994 90.5343 46.4359 96.3163C45.7356 105.181 45.3834 115.763 47.3476 124.663C45.806 117.34 45.5243 108.123 46.5064 96.6292Z" fill="#F5F3F1"/>
</svg>
