<svg width="24" height="24" viewBox="0 0 24 24" fill="none" xmlns="http://www.w3.org/2000/svg">
<path d="M22.1278 15.6562L15.3703 15.3689C15.1542 15.352 14.25 15.3122 14.25 14.1562C14.25 13.0402 15.1481 12.9689 15.3816 12.9431L22.1278 12.6562C22.7217 12.6623 23.25 13.3327 23.25 14.1562C23.25 14.9798 22.7217 15.6502 22.1278 15.6562ZM15.4973 9.48422L20.5008 9.09375C21.0938 9.09375 21.75 9.87563 21.75 10.6819V10.6973C21.75 11.4623 21.2278 12.0858 20.5837 12.0938L15.5002 12.0127C14.25 11.8594 14.25 11.1014 14.25 10.7756C14.25 9.70312 15.2719 9.50297 15.4973 9.48422ZM19.7742 22.5L15.585 22.0814C14.4375 22.0378 14.25 21.2728 14.25 20.7933C14.25 19.9317 14.8786 19.6402 15.5002 19.6402L19.7658 19.4995C20.4473 19.5103 20.9995 20.1792 20.9995 20.9995C20.9995 21.8198 20.4525 22.4841 19.7742 22.5ZM21.3848 19.1484L15.4598 18.8573C15.0197 18.8278 14.25 18.7167 14.25 17.6213C14.25 17.0588 14.4539 16.4208 15.4219 16.3308L21.3839 16.1489C22.0008 16.1555 22.5 16.7812 22.5 17.6208C22.5 18.4603 22.0008 19.1409 21.3848 19.148V19.1484Z" fill="#373737"/>
<path d="M6.26016 11.1591C6.1516 11.2184 6.02995 11.2496 5.90625 11.25C6.02924 11.2497 6.15022 11.2187 6.25828 11.16L6.26016 11.1591Z" fill="#373737"/>
<path d="M8.16281 7.91156C7.20187 9.57609 6.73969 10.4873 6.5775 10.8178C6.74016 10.4864 7.20281 9.57516 8.16281 7.91156Z" fill="#373737"/>
<path d="M6.53156 10.9144L6.57844 10.8206C6.51061 10.9642 6.39967 11.083 6.26109 11.1605C6.36979 11.1015 6.46258 11.017 6.53156 10.9144Z" fill="#373737"/>
<path d="M14.8153 2.46656C14.3733 1.84312 13.6406 1.5 12.75 1.5C12.6107 1.49999 12.4742 1.53874 12.3558 1.61193C12.2373 1.68512 12.1415 1.78984 12.0792 1.91438C11.9386 2.19891 11.3644 3.03938 10.7578 3.92578C9.91406 5.16 8.86641 6.69469 8.16891 7.90078L8.16281 7.91156C7.20281 9.57516 6.74016 10.4864 6.5775 10.8178L6.53063 10.9116C6.46121 11.0138 6.36809 11.0978 6.25922 11.1562C6.15122 11.2164 6.02988 11.2487 5.90625 11.25H4.71984C3.66698 11.25 2.65723 11.6682 1.91274 12.4127C1.16825 13.1572 0.75 14.167 0.75 15.2198V17.0297C0.749938 17.5511 0.852576 18.0673 1.05205 18.549C1.25153 19.0307 1.54393 19.4684 1.91257 19.8371C2.28121 20.2058 2.71887 20.4982 3.20054 20.6978C3.68222 20.8973 4.19848 21 4.71984 21H7.00688C7.16654 21.0006 7.32257 21.0477 7.45594 21.1355C8.53125 21.8377 10.5628 22.5 12.75 22.5C13.0992 22.5 13.4152 22.4934 13.7002 22.4822C13.7681 22.4798 13.834 22.459 13.891 22.422C13.948 22.385 13.9939 22.3332 14.0237 22.2721C14.0535 22.2111 14.0662 22.1431 14.0604 22.0754C14.0546 22.0077 14.0306 21.9429 13.9908 21.8878L13.9861 21.8812C13.5844 21.3005 13.5 20.6719 13.5 20.25C13.4993 19.8502 13.5822 19.4548 13.7433 19.0889C13.7892 18.9852 13.8129 18.873 13.8129 18.7596C13.8129 18.6462 13.7892 18.534 13.7433 18.4303C13.5829 18.0572 13.5002 17.6554 13.5002 17.2493C13.5002 16.8432 13.5829 16.4414 13.7433 16.0683C13.789 15.9649 13.8125 15.8532 13.8125 15.7402C13.8125 15.6272 13.789 15.5154 13.7433 15.412C13.5837 15.0453 13.5014 14.6497 13.5014 14.2498C13.5014 13.8498 13.5837 13.4542 13.7433 13.0875C13.7913 12.9791 13.816 12.8619 13.816 12.7434C13.816 12.6249 13.7913 12.5077 13.7433 12.3994C13.5761 12.0231 13.493 11.6148 13.5 11.2031C13.5 10.8188 13.5938 10.2047 13.875 9.74109C13.9318 9.64556 13.9662 9.53834 13.9754 9.42757C13.9847 9.31679 13.9686 9.20536 13.9284 9.10172C13.9106 9.05484 13.8928 9.00469 13.8755 8.95312C13.8193 8.77791 13.8055 8.59189 13.8352 8.41031C13.9758 7.50375 14.2884 6.70922 14.6198 5.87156C14.7642 5.50688 14.9137 5.13 15.052 4.73438C15.3398 3.91078 15.2536 3.08437 14.8153 2.46656Z" fill="#373737"/>
</svg>
