<svg width="25" height="24" viewBox="0 0 25 24" fill="none" xmlns="http://www.w3.org/2000/svg">
<g id="thumbs-up">
<path id="Vector" d="M3.5 9C2.9 9 2.5 9.40336 2.5 10.0084V19.9916C2.5 20.5966 2.9 21 3.5 21C4.1 21 4.5 20.5966 4.5 19.9916V10.0084C4.5 9.40336 4.1 9 3.5 9Z" fill="#7B61FF"/>
<path id="Vector_2" d="M20.2013 8.86869H13.9583L15.1666 5.23232C15.6701 3.71717 14.4618 2 12.75 2C12.0451 2 11.3403 2.30303 10.9375 2.80808L6.50694 7.85859C5.90278 8.56566 5.5 9.47475 5.5 10.3838V19.6768C5.5 20.9899 6.50694 22 7.81596 22H17.1805C18.4895 22 19.6979 21.0909 20.1006 19.7778L22.4166 11.899C22.8194 10.3838 21.7117 8.86869 20.2013 8.86869Z" fill="#7B61FF"/>
</g>
</svg>
