<svg width="180" height="180" viewBox="0 0 180 180" fill="none" xmlns="http://www.w3.org/2000/svg">
<path d="M93.008 136.665C92.9123 137.489 92.7364 138.347 92.6638 139.205C94.3159 139.086 96.0178 139.313 97.6661 139.24C96.7177 138.293 95.7042 137.351 94.7901 136.393C94.6907 136.305 94.576 136.164 94.4804 136.083C94.1706 135.738 93.7614 135.294 93.3139 134.884C93.2412 135.302 93.0768 136.248 93.0041 136.669L93.008 136.665Z" fill="#F2E5D1"/>
<path d="M18.8099 159.175C18.7411 158.731 18.7066 158.352 18.6722 157.701C18.3739 157.689 18.045 157.731 17.7811 157.666C18.0221 158.559 18.2248 159.451 18.5001 160.344C18.6378 160.206 18.7755 160.103 18.9438 160.034C18.8749 159.689 18.8405 159.417 18.8061 159.175H18.8099Z" fill="#F2E5D1"/>
<path d="M67.5218 69.1351C73.2203 68.4724 80.3414 72.1155 79.8557 78.4326C83.5157 78.5475 83.2212 84.673 79.7524 84.7114C80.1769 86.1786 80.3108 87.7799 79.0678 88.8295C79.2399 92.3233 80.9839 96.6674 78.8269 99.8432C83.5348 105.141 93.2298 103.559 95.2682 111.478C96.6871 116.274 101.322 115.128 100.645 120.227C100.228 123.717 107.614 128.59 110.203 131.137C111.889 128.429 112.593 126.464 113.97 123.897C114.563 122.867 114.976 119.986 116.983 120.603C117.094 119.99 117.852 119.894 118.49 120.055C119.901 116.507 121.404 113.244 123.183 109.796C123.493 106.647 125.049 104.356 127.875 103.31C124.059 102.073 123.642 97.6941 122.873 94.3536C120.911 89.0977 119.768 83.8149 117.905 78.536C115.27 78.6509 112.501 78.4517 109.855 78.5705C109.266 78.5935 108.891 78.4249 108.348 78.536V78.5015H108.245V78.536C106.661 78.605 105.028 78.5437 103.414 78.4671C102.018 78.4441 100.737 78.6471 99.303 78.4671C94.6716 79.2907 95.773 73.9926 95.7386 71.0544C94.3159 71.0659 92.7938 71.0007 91.3864 71.0544C89.0917 70.8858 89.1032 68.6984 89.2294 66.8596C89.1147 65.7869 89.2409 64.5496 89.195 63.4693C81.9974 63.8026 74.708 64.3963 67.889 66.9362C68.0267 67.7598 67.8546 68.4456 67.5104 69.1313L67.5218 69.1351ZM114.899 95.7978C115.53 95.3611 116.486 95.9013 116.475 96.656C116.211 98.7974 113.22 97.0965 114.899 95.7978ZM106.198 86.0177C106.677 83.8073 110.031 84.221 110 86.4621C109.923 89.2701 105.575 88.8525 106.198 86.0177ZM98.148 102.111C99.0735 101.575 100.381 102.287 100.339 103.379C99.9608 106.459 95.6009 103.954 98.148 102.111Z" fill="#F2E5D1"/>
<path d="M95.7156 69.4799C95.7539 67.6526 95.773 65.7486 95.7845 63.9213C93.9335 63.7911 92.0862 63.6225 90.2696 63.4769C90.5679 69.9013 88.3574 70.3725 95.7845 70.135C95.796 69.9128 95.6889 69.6484 95.7156 69.4837V69.4799Z" fill="#F2E5D1"/>
<path d="M19.0853 154.885C22.3093 154.916 25.1891 155.122 28.2333 154.885C29.0518 154.778 31.2087 154.429 31.5568 155.915C32.0769 156.885 32.1419 157.957 30.7345 157.735C30.681 158.873 30.6466 159.198 30.5968 160.344C30.7001 160.447 30.7689 160.62 30.7689 160.788C31.3197 160.83 32.4746 160.57 32.4823 161.371C32.379 163.294 32.2413 163.259 32.1725 165.144C32.0692 167.067 32.2758 167.067 32.2069 168.952C32.0731 169.729 30.7728 169.396 30.2871 169.465C30.2641 169.634 30.222 169.925 30.0805 169.978C29.9429 172.403 29.8052 172.522 29.6713 174.955C34.972 174.966 40.7622 174.633 45.9099 174.851C46.2656 172.967 47.0764 171.151 47.5888 169.327C45.7875 168.921 44.2577 167.496 42.4832 167.236C42.8198 165.726 43.4623 164.14 44.1277 162.639L44.0933 162.604C45.5007 159.961 46.7207 157.157 47.3823 154.199C43.294 153.671 39.1789 153.295 35.2894 151.901C32.1649 151.77 30.115 150.039 30.7689 146.135C31.6103 142.216 32.2528 138.271 33.5111 134.47C34.9835 128.946 38.5823 124.384 39.5384 118.687C40.6704 108.647 44.8888 107.08 53.5473 102.904C52.6027 98.081 55.2148 94.0625 57.6586 90.2086C58.6644 88.094 59.7238 85.037 60.4657 82.1447C60.3357 79.0685 59.8844 75.5518 61.3224 72.7093C60.4046 72.1768 59.4523 71.56 58.8557 70.5832C26.7303 84.47 8.54509 122.384 17.1998 156.256C17.3184 155.387 18.3663 154.85 19.0853 154.885Z" fill="#F2E5D1"/>
<path d="M148.948 103.586C146.447 103.509 144.248 103.709 141.754 103.689C140.833 106.823 139.448 107.149 136.308 107.053H136.274C135.226 107.723 133.903 108.968 132.778 109.317C132.434 109.42 132.266 109.489 131.922 109.968C131.092 111.121 131.662 111.301 131.134 112.68C130.128 114.91 129.616 117.729 128.874 119.99C131.061 120.311 132.216 120.495 131.237 122.564C130.824 124.23 129.516 126.797 128.736 128.636C127.39 132.095 125.734 135.83 124.181 139.512C126.98 139.458 130.063 139.569 133.019 139.339C134.836 139.167 136.855 138.96 138.159 141.021C139.704 143.366 137.823 145.66 137.131 147.986C133.096 156.191 130.465 165.178 126.613 173.239C126.59 174.058 126.766 174.227 126.785 174.92C130.235 174.74 133.777 175.089 137.234 174.989C138.737 175.066 139.658 175.062 141.173 174.886C142.852 174.89 144.431 175.142 146.003 175.058C145.12 174.112 145.001 173.066 145.353 171.971C145.475 171.032 145.537 170.021 145.831 169.159C146.137 166.362 147.996 167.025 150.08 166.895C148.233 161.267 146.217 155.402 145.628 149.464C145.399 147.629 145.219 145.71 145.491 143.871C145.732 142.871 145.915 140.067 147.032 139.96C147.717 140.132 147.854 140.473 147.854 140.853C149.063 141.554 149.005 145.392 149.774 146.89C149.564 142.331 149.812 137.642 150.493 133.13C150.895 130.601 151.281 128.1 152.138 125.682C152.359 125.154 152.268 124.073 153.063 124.242C154.061 124.637 153.744 125.211 153.679 125.751C154.777 125.452 154.524 131.425 154.88 132.543C155.021 137.447 155.576 142.366 155.461 147.265C155.752 145.936 157.228 147.032 156.934 147.813C157.695 147.936 157.947 151.878 157.962 152.789C158.62 157.386 158.069 162.248 156.628 166.722C157.538 166.722 158.536 166.738 159.469 166.653C167.73 146.687 166.873 122.514 156.283 103.586C153.675 103.483 151.621 103.659 148.952 103.586H148.948Z" fill="#F2E5D1"/>
<path d="M79.718 82.1753C79.63 82.8074 79.5077 83.2097 79.5803 83.7536C81.8788 83.9452 82.3531 79.6585 79.959 79.4631C80.0048 80.3518 79.8251 81.3938 79.718 82.1753Z" fill="#F2E5D1"/>
<path d="M164.399 74.1803C166.284 80.6966 168.143 87.1095 170.327 93.5683C171.206 96.564 173.646 100.475 170.637 102.969C175.482 100.705 170.472 94.7903 170.193 91.0284C169.061 87.393 167.761 84.1329 166.904 80.4246C165.588 76.8619 165.428 70.9509 161.699 69.342C163.496 70.4184 164.032 72.3645 164.406 74.1803H164.399Z" fill="#F7A495"/>
<path d="M131.103 69.9932C131.145 71.901 131.184 73.8317 131.172 75.7242C132.576 76.6168 133.88 77.5783 135.214 78.605C134.239 70.2346 144.458 70.2154 148.336 75.6552C151.488 78.7774 151.113 83.4433 152.069 87.4926C152.207 88.2128 151.931 88.3851 151.522 88.4196C151.197 88.9291 150.631 88.9559 149.399 88.933C149.296 89.2433 149.365 89.5842 149.468 89.929C154.998 94.7673 163.382 93.6985 165.5 102.693C173.134 103.705 171.218 98.8434 169.371 93.8748C167.772 89.3237 166.521 84.6386 165.122 80.0799C163.519 75.5978 163.55 68.0855 156.83 69.4416C153.652 69.4875 150.673 69.3381 147.514 69.5105C144.657 69.2998 141.965 69.4301 139.188 69.5795C136.431 69.3726 133.884 69.5871 131.172 69.3726C131.149 69.6484 131.092 69.6408 131.103 69.9894V69.9932Z" fill="#F7A495"/>
<path d="M136.721 79.3941C135.693 76.6129 137.643 73.372 140.523 72.874C136.951 72.874 135.513 76.1456 136.205 79.4286C136.308 79.4976 136.377 79.5665 136.48 79.6355C136.584 79.5665 136.652 79.4631 136.721 79.3941Z" fill="#F7A495"/>
<path d="M141.414 90.5113C141.311 90.3734 141.173 90.2699 141.07 90.132C140.557 91.1625 139.769 92.0206 138.569 92.8443V92.9132C139.773 92.5301 141.024 91.6337 141.41 90.5113H141.414Z" fill="#F7A495"/>
<path d="M129.252 102.387C128.036 93.9705 138.66 94.3996 140.488 88.9368C139.498 88.7223 136.626 89.1705 136.584 87.8373C136.729 84.5696 135.253 82.0872 135.146 78.5743C133.845 77.5783 132.507 76.5823 131.103 75.6935C131.264 78.7927 127.787 78.7046 125.554 78.5743C123.535 78.5169 121.477 78.5207 119.492 78.5054C120.846 82.8955 122.158 87.2665 123.5 91.6797C125.038 95.1696 124.866 101.215 128.946 102.59C129.084 102.521 129.187 102.452 129.256 102.383L129.252 102.387Z" fill="#F7A495"/>
<path d="M141.552 88.7989C141.517 88.9023 141.483 89.0402 141.483 89.1437C141.586 89.2471 141.689 89.385 141.793 89.4884C141.93 89.1437 141.793 88.9061 141.552 88.8027V88.7989Z" fill="#F7A495"/>
<path d="M137.199 82.8611C137.004 82.7461 136.874 82.5393 136.721 82.3477C137.199 84.1252 137.681 85.9755 137.578 87.7684H138.4C138.022 86.1556 137.475 84.5428 137.203 82.8955C137.238 82.93 137.238 82.8955 137.203 82.8611H137.199Z" fill="#F7A495"/>
<path d="M136.205 79.4286C136.239 79.6355 136.239 79.8079 136.274 80.0109C136.343 79.873 136.412 79.7351 136.48 79.6316C136.412 79.5972 136.308 79.5282 136.205 79.4248V79.4286Z" fill="#F7A495"/>
<path d="M135.28 94.6984C135.004 94.8708 134.733 95.0432 134.492 95.2117C134.733 95.0393 135.004 94.9014 135.28 94.7673V94.6984Z" fill="#F7A495"/>
<path d="M130.862 100.636C130.931 100.567 130.966 100.533 131.034 100.498C131.444 98.3722 132.541 96.518 134.358 95.2845C131.868 96.4951 130.17 98.6174 130.178 101.322C130.35 101.115 130.556 100.908 130.862 100.636Z" fill="#F7A495"/>
<path d="M116.918 75.8966C116.555 74.7933 116.689 74.6094 116.44 73.6325C115.129 74.4983 115.848 72.5599 115.687 71.9508C114.142 72.3913 112.195 72.3454 110.788 71.4719C110.382 71.7477 109.843 72.7246 109.247 72.1576C108.868 72.399 108.493 72.6365 108.049 72.8434C108.099 73.4218 108.589 74.1344 108.631 74.8354C109.231 74.9159 110.554 74.5136 110.65 75.4522C110.715 77.0765 110.379 77.0994 108.902 77.0305C108.937 77.2374 108.937 77.4097 108.971 77.5783C111.771 77.6434 114.704 77.6358 117.534 77.6473C117.312 77.0113 117.186 76.8351 116.918 75.8966Z" fill="#DCEADE"/>
<path d="M118.769 77.6128C118.98 75.6284 117.691 73.939 117.741 71.9163C117.519 71.8052 117.312 71.6328 117.09 71.5064C117.224 73.6747 117.836 75.6744 118.528 77.6128H118.769Z" fill="#DCEADE"/>
<path d="M120.074 73.0464C119.374 72.7323 118.437 72.3147 117.744 71.9125C117.905 73.6632 118.318 75.0461 118.876 76.7164C119.033 75.4254 119.42 74.1957 120.074 73.0464Z" fill="#DCEADE"/>
<path d="M120.242 75.004C119.966 75.8621 119.833 76.8236 119.729 77.6128H119.901C120.112 76.1111 120.517 74.7894 121.167 73.4257C121.133 73.3912 121.064 73.3912 121.03 73.3567C120.72 73.9045 120.448 74.4562 120.242 75.004Z" fill="#DCEADE"/>
<path d="M117.4 75.7586C117.056 74.4217 117.068 74.0233 116.716 72.671C116.601 72.9775 116.628 73.3605 116.475 73.6325C116.685 74.8737 117.064 76.5248 117.572 77.6473H118.085C117.809 76.996 117.706 76.7547 117.4 75.7586Z" fill="#DCEADE"/>
<path d="M117.844 75.6207C117.584 74.0884 117.117 73.1383 117.09 71.5026C117.041 71.4566 116.976 71.426 116.918 71.4336C116.85 71.9699 116.601 72.5139 116.746 73.0464C117.155 74.6592 117.393 76.249 118.012 77.6434C118.184 77.6434 118.356 77.6434 118.525 77.609C118.238 76.7777 118.177 76.6742 117.84 75.6169L117.844 75.6207Z" fill="#DCEADE"/>
<path opacity="0.5" d="M105.032 74.935H104.998C104.52 75.4828 104.21 76.1686 104.072 77.0956C105.265 77.0803 106.581 77.1339 107.736 77.0956C107.667 76.3065 107.564 75.5863 107.426 74.935C106.604 74.935 105.85 74.9005 105.028 74.935H105.032Z" fill="#D4D9DA"/>
<path opacity="0.5" d="M108.7 77.0956H108.941C108.814 76.3218 108.868 75.5633 108.7 74.8661H108.424C108.528 75.5518 108.631 76.3065 108.7 77.0956Z" fill="#D4D9DA"/>
<path opacity="0.5" d="M101.024 74.935C99.5439 75.0538 98.1442 74.3757 98.3851 76.4789C98.4425 77.6664 102.034 76.7853 103.078 77.1301C103.215 76.2375 103.456 75.5173 103.831 74.9005C102.837 74.9005 102.015 74.9695 101.024 74.935Z" fill="#D4D9DA"/>
<path d="M108.872 76.5823C108.872 76.7547 108.906 76.9271 108.941 77.0956C110.447 77.1799 110.738 77.088 110.688 75.5173C110.6 74.5787 109.266 74.9542 108.669 74.9005C108.784 75.4828 108.845 75.8812 108.876 76.5823H108.872Z" fill="#DCEADE"/>
<path opacity="0.5" d="M108.872 76.5823C108.872 76.7547 108.906 76.9271 108.941 77.0956C110.447 77.1799 110.738 77.088 110.688 75.5173C110.6 74.5787 109.266 74.9542 108.669 74.9005C108.784 75.4828 108.845 75.8812 108.876 76.5823H108.872Z" fill="#D4D9DA"/>
<path opacity="0.5" d="M88.0782 59.1519C87.6996 59.1519 87.4281 58.9795 87.256 58.7075C85.8103 58.6845 84.38 58.7152 82.9382 58.673C82.0471 58.742 82.3569 59.6346 82.3569 60.2514C82.3836 61.3661 85.3629 60.6919 86.1928 60.8681C87.7799 60.6689 89.4933 61.4887 88.9349 59.1174C88.6595 59.1519 88.388 59.1519 88.0782 59.1519Z" fill="#D4D9DA"/>
<path d="M47.7571 169.193C47.0917 170.975 46.3574 172.959 45.9749 174.855C46.3382 174.92 46.9387 174.924 47.3096 174.89C47.6768 173.135 48.1395 171.327 48.8853 169.676C48.8853 169.641 48.9197 169.607 48.9197 169.572C48.5755 169.343 48.0669 169.362 47.7533 169.193H47.7571Z" fill="#B8D0BD"/>
<path d="M53.7194 171.457C52.465 170.883 50.9008 170.549 49.7114 170.051C49.7114 170.051 49.7114 170.086 49.677 170.086C49.3251 170.909 49.1148 171.802 48.8203 172.66C52.1591 172.258 54.9585 172.511 58.3432 172.384C56.7446 172.116 55.2492 171.714 53.7194 171.457Z" fill="#B8D0BD"/>
<path d="M64.3705 171.254C62.8254 171.285 61.548 171.541 60.1215 171.699C61.5672 171.848 63.227 171.733 64.5082 171.289C64.4393 171.254 64.4049 171.254 64.3705 171.254Z" fill="#B8D0BD"/>
<path d="M48.5449 173.721C48.4417 174.066 48.3308 174.449 48.2696 174.821H48.5105C48.545 174.261 48.5755 174.035 48.6138 173.38C48.6023 173.518 48.5373 173.618 48.5449 173.725V173.721Z" fill="#B8D0BD"/>
<path d="M63.7203 172.488C64.0645 172.488 64.4049 172.488 64.7491 172.453C64.9212 172.315 65.0245 172.177 65.1277 172.043C64.6841 172.216 64.2022 172.354 63.7242 172.488H63.7203Z" fill="#B8D0BD"/>
<path d="M30.7307 163.018C30.9296 165.132 30.3941 167.22 30.287 169.434C30.7766 169.366 32.0463 169.699 32.2069 168.921C32.3102 166.998 32.1037 166.998 32.1725 165.113C32.2758 163.19 32.4134 163.225 32.4823 161.34C32.4899 160.539 31.2891 160.8 30.7689 160.758C30.7039 161.876 30.7307 162.447 30.7345 163.022L30.7307 163.018Z" fill="#F7A495"/>
<path d="M21.4143 168.232C21.4296 168.55 21.4564 168.887 21.552 169.193C21.6553 169.193 21.793 169.228 21.8962 169.228C21.7241 168.917 21.5864 168.576 21.4182 168.232H21.4143Z" fill="#F7A495"/>
<path d="M21.4143 168.232C21.5864 168.576 21.7241 168.917 21.8924 169.228C24.4395 169.304 26.7915 168.822 29.3271 169.159C29.7134 166.205 29.9084 164.029 29.8052 161.06C26.9751 161.156 24.1259 160.865 21.3111 160.888C20.9707 163.55 21.2767 165.726 21.4143 168.232Z" fill="#F7A495"/>
<path d="M99.0735 103.827C99.6739 103.567 99.2265 102.636 98.6299 102.969C98.125 103.245 98.5878 104.092 99.0735 103.827Z" fill="#F5F3F1"/>
<path d="M147.441 90.3427C146.963 90.8905 146.344 91.2698 145.728 91.4422H145.693C145.621 92.917 143.303 92.691 143.055 91.3732C142.301 91.3043 141.789 90.8944 141.376 90.4806C140.947 91.6184 139.758 92.4727 138.534 92.8826C138.5 93.1929 138.465 93.6372 138.465 94.1161C138.932 94.2004 145.204 93.825 142.883 95.25C141.601 95.1849 139.643 95.1121 138.465 95.0776C138.5 96.1081 138.603 97.1348 138.741 97.4796C141.456 98.0504 145.101 97.7094 147.923 97.8205C151.377 98.1232 152.627 97.606 152.31 94.2195C151.553 94.4149 145.468 96.1618 147.514 94.1851C148.868 94.0395 150.856 93.5261 152.241 93.1546C152.241 93.0511 152.241 92.9477 152.207 92.8443C150.528 91.9172 148.986 90.8867 147.789 89.5497C147.789 89.929 147.652 90.132 147.445 90.3389L147.441 90.3427Z" fill="#F5F3F1"/>
<path d="M160.938 102.624C161.932 102.624 162.926 102.624 163.951 102.659C163.508 98.5752 160.972 96.0354 155.901 94.5605C156.211 96.3457 156.999 100.222 158.058 102.659C159.018 102.659 159.978 102.624 160.934 102.624H160.938Z" fill="#F5F3F1"/>
<path d="M165.531 102.728C164.881 100.671 164.162 99.0234 162.926 97.6826C163.955 98.9506 164.674 100.598 164.915 102.728C165.122 102.693 165.324 102.693 165.531 102.728Z" fill="#F5F3F1"/>
<path d="M138.672 80.7349C138.465 80.8652 138.075 80.7694 138.022 80.4936C136.63 78.8885 137.001 82.6274 138.809 82.4856C138.427 81.8267 139.502 81.3747 139.701 82.1064C139.926 82.8611 140.32 83.5621 141.001 83.9605H141.035C141.242 83.926 141.445 84.0639 141.548 84.2708C143.571 85.014 146.906 84.5275 146.481 81.9033C146.451 81.0682 147.686 81.2789 147.476 82.0757C149.568 81.3555 147.828 77.6243 146.963 80.6008C146.412 81.98 145.667 80.0147 145.422 79.4669C143.406 79.3903 141.242 79.1873 139.188 79.4324C139.238 79.8423 139.41 80.3097 138.676 80.7349H138.672ZM142.202 82.4512C142.561 81.9608 143.234 82.7653 143.605 82.3822C144.087 81.9761 144.718 82.7385 144.221 83.1369C143.709 83.6809 141.666 83.5161 142.202 82.4512Z" fill="#F5F3F1"/>
<path d="M137.096 79.2256C137.008 78.2985 136.683 75.23 138.159 75.3832C138.4 75.5211 138.469 75.8314 138.331 76.069C137.853 76.8236 137.922 78.4709 138.09 79.2945C138.125 79.2945 138.159 79.329 138.194 79.329C138.102 78.9153 138.561 78.3215 138.809 78.4364C140.729 78.264 142.699 78.3023 144.531 78.4364C145.303 78.4939 146.137 78.3062 146.347 79.2945C146.845 78.6433 147.548 78.333 148.267 78.5743C146.351 71.1501 135.008 70.7096 136.691 79.4324C136.863 79.329 136.966 79.2601 137.1 79.2256H137.096Z" fill="#F5F3F1"/>
<path d="M150.252 81.3862C150.482 84.5696 152.046 86.3127 151.518 88.4196C151.927 88.3851 152.203 88.1783 152.065 87.4926C151.136 82.6618 151.174 77.1339 146.653 74.1114C148.803 76.1341 149.132 77.8082 150.252 81.3862Z" fill="#F5F3F1"/>
<path d="M148.47 88.864C148.78 89.2433 149.12 89.5842 149.499 89.8945C149.361 89.5497 149.327 89.1743 149.43 88.8985C149.155 88.8985 148.849 88.8985 148.47 88.864Z" fill="#F5F3F1"/>
<path d="M150.765 87.8718C150.409 86.0177 149.682 84.2172 149.258 81.3517C149.051 82.2634 148.294 82.9185 147.372 83.0679C147.261 83.5813 147.04 84.0218 146.688 84.3704C146.757 85.7074 147.166 86.8758 147.751 87.8718C148.619 87.9025 150.589 88.0365 150.765 87.8718Z" fill="#F5F3F1"/>
<path d="M137.815 100.567C139.597 98.7131 140.316 98.9889 140.592 99.1269C140.798 98.9889 140.97 98.8855 141.173 98.7821C136.794 98.8587 137.727 97.1157 137.578 93.4993C137.169 93.7407 136.756 93.9437 136.278 94.1851C136.209 95.9013 136.106 98.6097 135.662 101.081C136.599 100.786 136.855 100.889 137.819 100.567H137.815Z" fill="#F5F3F1"/>
<path d="M152.34 98.3722C150.417 99.4333 146.397 98.5637 143.98 98.9889C144.083 99.5023 143.842 100.123 143.261 100.809C144.083 101.272 143.705 102.065 142.883 102.732C147.613 102.563 152.275 102.624 156.995 102.732C155.863 99.9198 155.075 95.6293 154.838 94.2578C154.325 94.0165 153.809 93.779 153.331 93.5376C153.373 95.1926 153.572 97.2229 152.337 98.376L152.34 98.3722Z" fill="#F5F3F1"/>
<path d="M119.286 78.5705C119.251 78.5705 119.217 78.605 119.182 78.605H118.838C120.659 83.7498 121.775 88.9521 123.703 94.1161C124.491 97.1731 124.636 101.303 128.189 102.421C124.904 99.9428 124.931 95.3228 123.496 91.6797C122.173 87.2665 120.838 82.8994 119.488 78.5015C119.454 78.5705 119.351 78.5705 119.282 78.5705H119.286Z" fill="#F5F3F1"/>
<path d="M134.22 99.1269C134.87 99.6747 134.392 100.809 133.604 102.008C133.88 101.87 134.186 101.697 134.599 101.529C135.042 99.2648 135.215 96.656 135.283 94.8018C133.023 95.9204 131.505 98.0964 131.034 100.567C132.713 99.0234 133.673 98.6097 134.22 99.1269Z" fill="#F5F3F1"/>
<path d="M144.053 91.0974C143.953 91.4115 144.458 91.6299 144.634 91.5073C144.959 91.2736 144.565 90.7679 144.19 90.8216C144.156 90.8905 144.087 90.9595 144.053 91.0974Z" fill="#F5F3F1"/>
<path d="M145.491 90.5113C146.271 90.3044 147.005 89.6072 147.204 88.795C146.451 87.7301 145.973 86.4621 145.801 84.9872C144.818 85.4814 142.955 85.7304 141.724 85.3664C141.827 86.7034 141.793 87.8373 141.586 88.7989C141.827 88.9023 141.965 89.1781 141.861 89.4846C142.313 90.0056 142.668 90.4308 143.299 90.4461C143.774 89.5306 145.028 89.7987 145.491 90.5151V90.5113Z" fill="#F5F3F1"/>
<path d="M138.435 87.8373C139.402 87.8986 139.593 87.9523 140.695 88.0097C140.798 87.1516 140.798 86.1211 140.661 84.9221C140.045 84.5773 139.528 84.0984 139.188 83.4817C138.481 83.6004 137.777 83.3552 137.199 82.8649C137.482 84.5198 138.102 86.1901 138.431 87.8412L138.435 87.8373Z" fill="#F5F3F1"/>
<path d="M97.2569 56.75C96.1669 58.2019 96.8821 60.3088 96.71 62.0327C96.7865 64.7181 96.7023 67.4342 96.6756 70.0966C97.2569 77.1952 94.3886 78.1721 102.944 77.7124C103.013 74.3144 105.866 72.897 108.7 71.5026C108.401 70.2154 108.39 67.6679 108.906 66.0474C109.051 65.7142 109.013 65.3196 109.078 64.948C108.436 64.2469 108.283 62.8793 109.319 62.5805C109.564 60.5195 111.109 58.7152 113.121 58.4623C115.251 57.9988 116.876 60.4889 116.991 62.4426C118.004 62.8104 117.939 64.1435 117.301 64.8446C117.618 66.9592 118.448 69.0585 118.123 71.2268C121.362 73.0081 125.512 73.4678 126.036 77.9193C128.162 78.0227 130.713 78.0993 130.182 75.1725C130.204 73.123 130.086 71.108 130.147 69.0662C130.162 65.7869 130.128 62.4694 130.147 59.217C130.602 56.0068 127.569 56.5469 125.42 56.6427C116.364 56.4741 107.384 56.6657 98.3239 56.6427C97.9453 56.3324 97.5705 56.4703 97.2607 56.7461L97.2569 56.75ZM99.0047 58.018C99.0047 58.041 99.0047 58.041 99.0047 58.018C99.3106 57.7728 99.8193 57.0181 100.236 57.5046C100.718 57.8992 99.9684 58.447 99.7237 58.7382C101.104 59.6652 100.118 60.757 99.0735 59.4584C98.7943 59.7304 98.3277 60.3739 97.907 59.9372C97.4366 59.5541 98.1403 59.0255 98.3851 58.7382C98.1862 58.493 97.3831 57.9107 97.8726 57.5046C98.3507 56.9951 98.7561 57.8341 99.0047 58.018Z" fill="#F5F3F1"/>
<path d="M116.75 63.1666C116.555 63.0517 116.303 63.3237 116.272 63.5114C116.341 63.7183 116.41 63.9213 116.444 64.1282C116.754 63.8179 116.957 63.408 116.754 63.1666H116.75Z" fill="#F5F3F1"/>
<path d="M114.318 61.1746C112.333 61.278 110.524 64.3427 112.23 65.944C114.524 67.3231 115.836 65.151 114.972 62.9253C114.933 62.6073 115.178 62.3047 115.484 62.343C115.312 61.2435 114.834 59.9755 113.943 59.4277C113.258 59.8951 112.184 59.8223 111.683 60.6613C112.008 60.3548 112.769 59.8185 113.017 60.4889C113.538 60.282 114.467 59.7955 114.696 60.5578C114.765 60.9026 114.593 61.1401 114.318 61.1746ZM114.387 65.6337C114.042 66.3079 112.31 66.2696 112.673 65.3234C112.834 64.8829 113.3 65.1817 113.599 65.1165C113.901 64.5879 114.75 65.1165 114.387 65.6299V65.6337Z" fill="#F5F3F1"/>
<path d="M109.793 63.3697C109.373 63.1475 109.602 63.9098 109.793 64.1243C109.759 63.883 109.759 63.611 109.793 63.3697Z" fill="#F5F3F1"/>
<path d="M88.0094 58.1214C89.0343 58.1022 90.0402 58.2785 90.9542 58.0869V56.7844C91.0995 55.8229 89.7189 55.9991 88.7628 55.9953C87.6728 56.1025 88.0285 57.3322 88.0094 58.1214Z" fill="#F5F3F1"/>
<path d="M89.7533 54.2446C89.9599 54.1411 90.0287 53.9343 90.0631 53.6623C90.0975 53.1758 89.5124 52.9268 89.1376 53.1834C88.5678 53.5627 89.0573 54.6545 89.7533 54.2484V54.2446Z" fill="#F5F3F1"/>
<path d="M81.4313 55.4781C81.8329 57.1867 80.3796 61.6343 82.8693 61.7224C87.1107 61.8373 91.4437 61.6343 95.7501 61.7914C95.7883 59.5158 95.0234 55.3785 98.3889 55.3747C98.2513 54.0377 98.9397 52.2564 97.7044 51.2565C93.5013 50.9309 89.2026 51.2527 84.9613 51.0841C80.8003 50.6781 81.5652 52.2296 81.4313 55.4743V55.4781ZM88.5563 55.0337C87.6652 54.5089 87.6116 52.8693 88.5907 52.356C90.3652 51.2527 92.0174 53.9381 90.3041 55.0682C91.8262 55.0299 92.1321 56.6963 91.983 58.1214C91.7268 59.8721 89.3479 58.8837 88.1471 59.1864C87.1871 59.217 87.0418 58.0984 87.1183 57.4433C86.9615 56.4243 87.3975 55.1678 88.5563 55.0376V55.0337ZM82.5634 52.9766C82.0433 51.8809 83.4009 52.061 83.7298 52.8042C84.009 52.5437 84.533 51.8082 84.9269 52.2908C85.4011 52.7467 84.6783 53.1873 84.4144 53.4899C84.6707 53.7849 85.3744 54.3212 84.8925 54.7234C84.4565 55.164 83.9937 54.4859 83.726 54.2101C82.7661 55.5241 81.7603 54.3863 83.0759 53.4899C82.9038 53.352 82.7317 53.1796 82.5634 52.9766Z" fill="#F5F3F1"/>
<path d="M105.101 77.6779C105.95 77.6664 106.914 77.6971 107.74 77.7124C107.663 76.2298 107.464 74.7856 106.986 73.4563C105.154 74.414 104.099 75.5709 103.973 77.6779C104.244 77.7047 104.822 77.7009 105.105 77.6779H105.101Z" fill="#F5F3F1"/>
<path d="M115.515 70.9892C115.496 69.6025 114.796 68.4341 114.727 67.0435C113.985 67.4802 113.105 67.5108 112.329 67.1814C112.26 67.9016 112.088 68.6907 111.679 69.3765C111.679 69.4109 111.644 69.4109 111.644 69.4109C111.541 69.8553 111.404 70.269 111.235 70.6445C112.402 71.3991 114.146 71.3991 115.519 70.9892H115.515Z" fill="#F5F3F1"/>
<path d="M109.591 70.7824C110.172 69.3573 109.981 67.5376 109.935 66.013C109.503 67.4457 109.377 69.5565 109.591 70.7824Z" fill="#F5F3F1"/>
<path d="M110.719 71.5026C110.742 71.5026 110.765 71.4911 110.788 71.4681C110.788 71.4681 110.753 71.4681 110.753 71.4336C110.719 71.4681 110.719 71.5026 110.719 71.5026Z" fill="#F5F3F1"/>
<path d="M107.877 72.943C108.424 74.3987 108.677 76.0153 108.734 77.6434H108.975C108.864 76.023 108.612 74.3182 108.084 72.874C108.015 72.874 107.946 72.9085 107.877 72.943Z" fill="#F5F3F1"/>
<path d="M125.038 77.6434C124.693 75.4292 123.114 74.1229 121.202 73.3874C120.536 74.7167 120.123 76.1188 119.936 77.5745C121.68 77.5975 123.328 77.5745 125.041 77.6434H125.038Z" fill="#F5F3F1"/>
<path d="M117.194 69.3764V69.2385C117.171 69.614 117.133 69.9856 117.056 70.338C117.09 70.3725 117.125 70.3725 117.159 70.4069C117.205 70.0622 117.194 69.748 117.194 69.3764Z" fill="#F5F3F1"/>
<path d="M64.8524 67.1814C64.8944 68.1467 64.6306 69.1083 64.2022 70.0277C64.8677 69.8017 65.4911 69.499 66.1565 69.3764C68.1911 67.0894 65.7588 64.1014 63.1084 63.9558C64.1831 64.6607 64.8906 66.013 64.8562 67.1814H64.8524Z" fill="#F5F3F1"/>
<path d="M67.3842 152.104C67.3153 152.138 67.1776 152.173 67.0744 152.173C66.6958 153.648 66.5963 155.398 66.6307 157.08C67.1776 157.183 67.7628 157.287 68.3097 157.321C68.2906 155.605 68.2523 153.778 68.4474 151.935C68.2064 152.004 67.866 152.039 67.3842 152.108V152.104Z" fill="#F5F3F1"/>
<path d="M124.284 136.562C125.715 133.543 126.632 130.927 127.814 128.153C128.847 125.79 130.025 123.487 130.556 121.223C130.384 121.154 130.113 121.12 129.837 121.051C129.757 121.353 129.447 121.468 129.153 121.43C126.762 127.697 124.705 133.041 122.2 139.412H123.125C123.535 138.485 123.913 137.523 124.292 136.566L124.284 136.562Z" fill="#F5F3F1"/>
<path d="M66.8717 148.744C67.9349 147.947 67.3191 146.618 66.3248 146.687C64.0684 146.787 65.078 149.656 66.8717 148.744Z" fill="#F5F3F1"/>
<path d="M58.8556 151.97C60.9323 151.962 63.7968 151.828 65.9117 151.353C65.7396 150.874 65.6708 150.322 65.6364 149.775C63.3073 149.238 63.5941 145.978 65.8773 145.725C65.8773 145.381 65.9117 144.971 65.9806 144.557C64.0722 144.373 61.9726 144.17 60.0871 143.906C58.3699 145.687 58.4464 149.457 58.8556 151.97Z" fill="#F5F3F1"/>
<path d="M76.8764 89.9635C76.3984 90.1014 75.9165 90.2048 75.404 90.2738C75.6105 93.4955 75.2128 95.7749 77.2551 97.924C77.974 95.3841 77.5993 92.2964 76.8764 89.9635Z" fill="#F5F3F1"/>
<path d="M76.5322 99.6402C76.6355 99.4678 76.7388 99.2609 76.842 99.0234C76.6355 98.7476 76.3984 98.4411 76.1919 98.1653C76.2951 98.6786 76.4328 99.1958 76.5361 99.6402H76.5322Z" fill="#F5F3F1"/>
<path d="M73.2432 83.7881C75.9318 83.8916 76.0809 79.4976 73.6868 79.3635C70.2869 78.7199 70.1454 83.8532 73.2432 83.7881Z" fill="#F5F3F1"/>
<path d="M70.2984 133.746C69.5373 137.328 69.3843 140.565 68.585 144.074C69.086 144.193 69.5794 144.178 70.0919 143.971C70.4016 142.048 70.5699 140.266 70.6732 138.585C70.524 136.803 70.459 135.053 70.2945 133.746H70.2984Z" fill="#F5F3F1"/>
<path d="M58.0334 143.63C56.561 144.454 56.3545 148.296 56.3545 150.491C56.3621 150.491 56.4309 150.491 56.4233 150.491C56.2053 151.686 56.5457 152.824 57.9301 152.483C57.7045 149.813 57.0467 147.013 59.0277 143.768C58.718 143.733 58.3776 143.664 58.0334 143.63Z" fill="#F5F3F1"/>
<path d="M90.8165 136.972C90.4723 138.002 90.1664 139.029 89.9598 140.06C90.5067 139.715 91.0575 139.512 91.6044 139.374C91.8682 137.681 92.113 135.846 92.3578 134.16C90.9771 132.988 91.0269 136.363 90.8165 136.976V136.972Z" fill="#F5F3F1"/>
<path d="M68.1758 99.7436C68.5085 97.7363 68.9484 95.6408 68.3823 93.5683C68.0687 91.1357 67.9158 88.3392 67.1164 85.9526C67.1509 88.9023 66.5696 92.0589 65.5752 94.4264C65.0704 95.4569 64.9633 96.3227 65.0971 97.652C66.3936 101.785 70.5164 106.543 73.7289 109.351C73.117 106.455 76.5246 105.697 77.3239 108.631C77.3583 108.424 77.3927 108.221 77.4271 107.98C76.972 107.018 71.0441 94.4532 75.2357 98.0619C75.1325 97.5141 75.0292 96.9624 74.9604 96.3457C74.7883 96.1733 74.7118 95.8476 74.8571 95.6599C74.6506 94.1161 74.5473 92.4344 74.4785 90.3427C72.31 90.3197 70.1454 89.565 68.6539 88.0787C69.2543 92.013 70.2066 96.02 69.2352 99.8815C69.0937 100.299 69.1969 102.107 68.2408 101.939C67.4874 101.659 68.2944 100.188 68.172 99.7436H68.1758Z" fill="#F5F3F1"/>
<path d="M70.2984 150.767C72.3368 150.79 74.6124 150.123 76.6699 149.874C78.0429 150.085 80.2764 151.169 81.2248 150.56C81.2248 150.594 81.2248 150.525 81.0871 150.422C80.4102 149.989 79.718 149.663 78.7236 149.288C78.781 149.051 78.934 148.587 79.0334 148.361C80.0278 148.771 80.9189 149.116 81.5002 149.495C82.4295 149.709 82.9917 149.782 83.2135 149.771C82.8426 148.652 78.5362 146.346 79.1367 145.446C79.936 144.794 81.9285 147.33 82.8349 147.882C83.313 148.158 83.726 148.192 83.8981 148.158C83.3665 147.311 79.3203 144.875 79.7868 144.074C80.8041 143.228 82.6207 144.687 83.3512 144.932C76.1307 138.719 72.6428 146.553 67.0438 144.622C66.9405 144.967 66.9405 145.342 66.9405 145.687C69.0172 146.032 68.8489 149.495 66.6996 149.736C66.734 150.25 66.8028 150.732 66.9749 151.073C68.6845 150.698 68.6692 150.84 70.2984 150.763V150.767Z" fill="#F5F3F1"/>
<path d="M71.2583 133.746C73.4038 124.828 69.5373 116.308 66.9061 107.907V107.873C65.5982 103.636 63.4947 99.5138 64.2673 95.1083C58.6224 97.4681 67.9005 112.447 68.8566 116.898C71.8741 123.545 70.5776 127.582 71.2545 133.746H71.2583Z" fill="#F5F3F1"/>
<path d="M94.3465 111.857C93.115 107.666 89.9866 106.191 86.2616 105.095C91.1148 107.13 92.5108 110.983 95.1688 115.048C96.0254 115.906 97.1919 116.044 97.9797 117.071C98.4578 117.653 98.3889 119.335 98.4234 120.878C98.4578 122.767 99.28 123.074 100.546 124.311C103.395 127.49 105.747 130.168 109.143 132.716H109.212C109.35 132.509 109.487 132.271 109.621 131.996C106.638 128.962 99.3145 124.468 99.651 120.193C100.144 115.519 95.9566 117.101 94.3427 111.853L94.3465 111.857Z" fill="#F5F3F1"/>
<path d="M81.4313 119.3C80.8844 117.412 80.2649 115.561 79.6492 113.776C77.3277 119.377 72.7843 114.201 68.4474 109.692C71.6025 117.929 74.207 126.889 71.9773 135.6C72.4936 135.194 78.15 132.268 79.2055 133.509C79.2744 133.785 79.1023 134.022 78.8269 134.091C75.6756 134.708 73.3465 135.669 71.8052 136.937C71.6025 139.129 71.5681 141.136 71.1551 143.492C75.4423 141.059 81.6302 140.753 84.9269 145.312C82.7011 135.171 85.8409 129.18 81.4313 119.304V119.3Z" fill="#F5F3F1"/>
<path d="M49.9485 141.573C48.9809 141.289 47.8183 140.902 46.9348 140.68C47.9177 141.006 48.8777 141.389 49.9829 141.642C49.9829 141.607 49.9485 141.607 49.9485 141.573Z" fill="#F5F3F1"/>
<path d="M76.842 86.328C76.7732 86.2935 76.6699 86.259 76.5667 86.2245C76.7043 86.4659 76.7732 86.3625 76.842 86.328Z" fill="#F5F3F1"/>
<path d="M76.2225 111.206C77.3851 110.765 76.2339 107.854 75.3658 107.67C74.3829 107.838 74.5588 108.922 74.8877 109.83C75.2013 110.328 75.5226 111.351 76.2225 111.202V111.206Z" fill="#F5F3F1"/>
<path d="M78.6892 84.5083C77.6605 84.0639 77.0103 83.0679 76.907 81.6965C76.8611 81.6505 76.7847 81.5126 76.7005 81.5241C76.582 81.4973 76.4596 81.7003 76.3563 81.7999C76.081 83.8226 74.6086 84.7152 73.2394 84.7152C71.5796 84.7995 69.5985 83.0947 70.0192 80.9073C69.0593 80.8039 68.5468 80.7694 67.9655 80.7349C67.1088 85.4047 69.2543 89.4463 74.5435 89.3467C74.7271 89.1628 74.9833 89.1705 75.1937 89.3122C78.0161 89.0326 79.8939 87.4849 78.6892 84.5083ZM78.0047 86.2245C77.4731 88.0978 75.3505 87.3355 75.4002 85.6767C75.2319 84.3589 76.9988 85.443 77.5572 85.5043C77.9358 85.4852 78.1232 85.9219 78.0008 86.2245H78.0047Z" fill="#F5F3F1"/>
<path d="M78.0735 98.9889C78.1079 99.0234 78.1079 99.0579 78.1423 99.0579C79.7104 96.4567 78.4139 92.5493 78.1423 89.4846C78.0391 89.5536 77.9358 89.588 77.7981 89.657C78.3106 91.3387 79.2705 95.3879 77.9702 98.8855C78.0047 98.8855 78.0391 98.92 78.0735 98.9889Z" fill="#F5F3F1"/>
<path d="M69.0631 71.7784C69.8165 72.3952 70.5355 72.9775 71.0174 72.9123C70.7764 71.403 68.0343 69.8783 66.6996 70.2346C67.5907 70.6138 68.3785 71.2306 69.0631 71.7784Z" fill="#F5F3F1"/>
<path d="M77.867 81.4551C77.9014 82.2788 78.1768 82.93 78.6204 83.3093C78.6204 82.137 79.0717 80.8499 78.999 79.5359C78.521 79.7083 77.867 80.2216 77.867 81.459V81.4551Z" fill="#F5F3F1"/>
<path d="M60.1598 70.4721C60.4007 70.7479 60.6722 70.9854 60.9132 71.1578C64.5388 71.9316 65.0512 63.8792 61.0509 64.2623C58.5 65.4805 58.8939 68.5758 60.1598 70.4721Z" fill="#F5F3F1"/>
<path d="M61.2536 92.4688C61.047 93.3269 60.8749 94.1161 60.7755 94.9053C61.3301 94.2387 62.638 93.6066 63.1046 94.5605C63.7012 94.1084 64.1257 94.1161 64.6114 93.9782C65.6402 91.5418 66.1527 88.3507 66.0494 85.4009C60.8635 86.1824 61.2153 77.4021 65.9462 79.5665C66.3898 79.6355 66.6919 79.5933 67.0438 79.67C67.3191 77.4749 67.9349 75.7931 68.8948 74.5213C67.2312 73.7168 64.9671 72.5676 63.5521 71.5715C60.7487 73.9505 61.4333 77.9997 61.4639 81.4551C61.9802 84.6194 62.2173 88.9444 61.2574 92.4688H61.2536Z" fill="#F5F3F1"/>
<path d="M71.8052 72.0197C72.333 73.2111 71.8779 73.8777 70.983 73.9083C68.8948 73.7666 66.9711 70.361 64.6459 70.9586C64.577 70.9931 64.5426 71.0275 64.5082 71.0275C65.1392 71.8742 71.2124 73.8126 69.8853 74.732C69.1013 76.1379 68.26 77.4979 68.0343 79.7772C68.6501 79.8117 69.2008 79.8462 70.2946 79.9496C71.6561 77.494 75.6679 77.9154 76.2569 80.6353C76.3946 80.6008 76.4978 80.5664 76.6355 80.5664C76.7388 80.5664 76.8076 80.5664 76.9109 80.6008C77.1862 79.4018 78.0085 78.7467 78.8307 78.5092C78.7772 75.659 77.9779 73.1498 75.0292 71.7171C75.5952 72.4373 77.1174 74.1765 76.058 74.8737C75.7941 74.9044 75.5111 74.7435 75.4767 74.4945C74.9986 72.127 72.2565 70.4797 69.7209 70.1005C70.7153 70.6828 71.4687 71.3685 71.809 72.0236L71.8052 72.0197Z" fill="#F5F3F1"/>
<path d="M140.592 104C139.693 104.417 139.127 104.666 138.637 104.789C138.11 105.467 138.167 105.429 137.505 106.022C139.425 106.022 139.938 105.678 140.588 104H140.592Z" fill="#F5F3F1"/>
<path d="M47.7227 138.516C47.585 138.96 47.4817 139.27 46.9693 139.684C48.0745 139.887 49.5202 140.435 50.7019 140.749C49.7955 139.316 49.2525 136.983 48.8165 135.945C48.434 136.757 47.9139 137.803 47.7189 138.52L47.7227 138.516Z" fill="#F5F3F1"/>
<path d="M74.8877 156.739C77.3163 156.701 79.8021 156.869 82.2536 156.429C83.3512 153.713 84.4603 151 85.6459 148.261C85.4738 147.645 85.3017 146.993 85.1678 146.373C84.4986 147.285 83.2594 145.936 82.4257 145.653C83.3436 146.484 86.4261 148.598 83.967 149.154C84.9766 150.514 83.4507 151.035 82.2536 150.663C81.4773 152.697 78.2379 151.207 76.6699 150.836C74.3638 151.226 71.8052 151.744 69.4761 151.797C69.304 153.341 69.2696 154.988 69.304 156.498C71.0174 156.774 72.9679 156.739 74.8877 156.739Z" fill="#F5F3F1"/>
<path d="M66.4281 81.1793C65.9194 81.3938 65.7588 80.7196 65.537 80.4591C62.225 79.011 62.4392 85.8031 66.975 84.3015C66.9061 82.8955 66.9405 81.7616 67.0094 80.7005C66.9291 80.7158 66.8105 80.6583 66.734 80.666C66.7684 80.8728 66.6652 81.1104 66.4242 81.1793H66.4281Z" fill="#F5F3F1"/>
<path d="M78.0735 100.429C77.867 100.395 77.6949 100.222 77.6949 99.985C77.6605 99.9505 77.5916 99.8815 77.5572 99.8471C77.3316 100.199 77.2551 100.556 76.9415 100.774C77.9702 101.874 79.4771 102.525 80.9495 103.073C80.8462 102.969 80.743 102.866 80.6397 102.762C80.3873 102.617 79.871 102.402 79.8863 102.008C79.0755 101.268 78.8346 101.241 78.0697 100.429H78.0735Z" fill="#F5F3F1"/>
<path d="M46.7628 138.244C47.1376 137.048 47.5774 136.336 48.4417 134.539C48.3729 134.007 48.2275 133.57 48.0975 133.064C46.9004 135.007 45.6307 136.98 44.8429 139.136C45.321 139.067 45.8028 138.998 46.212 139.033C46.6213 138.723 46.6557 138.588 46.7589 138.244H46.7628Z" fill="#F5F3F1"/>
<path d="M55.4978 101.835C57.4636 100.456 59.1693 98.6557 59.7123 96.1388C60.0833 92.3577 61.5404 88.412 61.0471 84.5083C59.7735 91.128 53.7921 95.5833 54.6755 102.352C54.8821 102.215 55.188 102.008 55.4978 101.839V101.835Z" fill="#F5F3F1"/>
<path d="M77.8326 110.347C77.7981 110.451 77.7293 110.52 77.6604 110.554C77.5381 112.876 74.8839 112.504 74.1305 110.589C70.4208 108.543 68.3594 104.915 65.9424 101.805C66.5084 103.743 67.0055 105.107 67.759 107.329C72.4401 112.527 77.6337 118.89 79.1673 112.305C78.8231 111.378 78.4483 110.485 78.0697 109.593C77.9664 109.869 77.8976 110.141 77.8287 110.347H77.8326Z" fill="#F5F3F1"/>
<path d="M141.139 102.659C141.961 102.215 142.404 101.87 142.577 101.663C142.492 101.655 142.332 101.728 142.232 101.766C142.091 101.897 141.907 101.996 141.72 101.904C141.242 102.05 140.576 102.421 140.075 102.555C139.903 102.824 139.716 103.092 139.563 103.379C140.094 103.199 140.595 102.804 141.139 102.659Z" fill="#F5F3F1"/>
<path d="M143.024 99.1613C142.955 99.1269 142.339 99.1269 141.035 100.019C141.035 100.295 140.966 100.705 140.726 101.287C141.762 101.192 143.261 99.4333 143.02 99.1613H143.024Z" fill="#F5F3F1"/>
<path d="M129.868 103.176C129.673 103.306 129.47 103.506 129.252 103.62H129.218C125.738 105.333 124.583 106.072 124.013 110.175C122.33 113.577 120.873 116.63 119.492 120.059C121.867 120.331 124.51 120.446 126.996 120.438C127.164 120.331 127.512 120.461 127.749 120.438C128.476 117.668 129.788 113.895 130.526 111.037C130.56 110.489 130.629 110.11 131.21 109.321C131.757 108.601 132.136 108.463 132.545 108.325C133.731 107.907 134.985 106.681 136.075 105.957C138.018 104.502 139.716 101.889 140.152 99.9198C139.857 99.87 137.819 101.839 137.582 102.563C137.207 103.249 136.805 104.218 135.903 104.452C134.534 104.348 131.86 105.034 130.629 106.03C130.151 106.436 129.516 105.674 130.013 105.275C131.379 104.245 133.861 103.425 135.769 103.525C136.404 103.008 136.572 102.464 136.966 101.774C136.079 101.824 134.736 102.559 133.918 103.008C133.406 103.257 131.505 104.632 131.623 103.145C132.423 102.126 133.769 100.272 133.677 99.9198C132.927 99.962 130.705 102.36 129.876 103.18L129.868 103.176Z" fill="#F5F3F1"/>
<path d="M147.239 143.151C147.124 142.649 147.07 142.155 146.929 141.676C145.047 150.127 148.753 158.766 151.04 166.795H151.109C151.174 166.37 151.094 165.872 151.178 165.424C149.262 158.206 146.233 150.748 147.239 143.155V143.151Z" fill="#F5F3F1"/>
<path d="M150.834 141.948C150.413 146.488 150.879 151.089 151.69 155.571C151.575 148.097 150.784 137.309 152.991 128.942C152.929 128.257 152.83 127.579 152.853 126.92C151.335 131.754 151.063 136.922 150.834 141.948Z" fill="#F5F3F1"/>
<path d="M154.601 166.105C154.566 166.347 154.532 166.584 154.497 166.826H154.669C154.601 166.68 154.7 166.182 154.601 166.105Z" fill="#F5F3F1"/>
<path d="M155.561 153.717C155.767 152.042 156.394 150.334 155.97 148.706C155.97 148.729 155.958 148.752 155.935 148.775C155.43 150.349 155.404 152.096 155.492 153.751C155.526 153.751 155.561 153.751 155.561 153.717Z" fill="#F5F3F1"/>
<path d="M146.21 172.143C145.801 173.254 146.424 174.039 147.239 174.821C148.615 174.805 149.694 174.855 151.04 174.89C151.996 174.855 153.117 174.503 154.054 174.786C155.056 175.016 155.874 174.771 156.964 174.717C158.138 174.771 158.8 175.016 159.943 174.89C160.842 174.085 161.347 173.193 161.041 171.974C160.942 170.794 160.743 169.465 160.46 168.304C160.031 167.282 158.899 167.86 157.958 167.757C156.658 167.76 155.844 167.737 154.532 167.791C152.444 167.653 150.528 167.818 148.504 167.826C147.135 167.657 146.967 168.117 146.722 169.335C146.367 170.212 146.554 171.201 146.21 172.147V172.143Z" fill="#F5F3F1"/>
<path d="M109.725 155.502C108.225 155.41 106.65 157.172 106.504 158.52C106.619 161.202 110.853 159.482 111.231 157.628C111.599 156.521 110.91 155.486 109.725 155.502Z" fill="#F5F3F1"/>
<path d="M83.5539 172.419C89.3288 172.273 94.9355 172.442 100.649 172.35C108.994 172.457 117.626 172.449 125.998 172.315C128.526 166.324 130.365 160.796 133.123 154.609C133.895 151.303 138.997 143.952 137.337 141.465C136.343 139.887 134.836 140.06 133.088 140.232C129.933 140.462 126.759 140.354 123.737 140.404C118.509 140.385 113.568 140.017 108.39 140.404C104.936 140.033 102.026 140.251 98.6261 140.266C89.979 139.968 89.8145 139.83 86.8085 148.058C84.5215 153.287 82.7202 158.517 80.437 163.635C79.0908 166.197 78.2303 169.611 76.9415 172.35C79.2017 172.246 81.3931 172.35 83.5539 172.419C83.531 172.419 83.531 172.419 83.5539 172.419ZM112.191 157.938C111.644 159.585 109.759 160.922 107.977 160.922C103.192 160.528 106.397 154.188 109.759 154.54C111.526 154.437 112.78 156.272 112.191 157.938Z" fill="#F5F3F1"/>
<path d="M49.5049 174.411C49.5049 174.549 49.4705 174.652 49.4705 174.79C54.4002 175.07 59.2304 174.771 64.1678 174.756C65.7473 174.962 66.5542 174.974 68.1414 174.756C74.0922 174.825 79.9628 175.169 85.9212 174.79C95.1764 174.863 104.282 175.066 113.495 174.756C115.584 174.985 117.347 174.553 119.389 174.928C121.63 174.694 123.481 174.997 125.76 174.79C125.707 174.25 125.627 174.058 125.588 173.384C100.202 173.549 74.903 173.231 49.5393 173.488C49.5737 173.901 49.5393 174.139 49.5049 174.415V174.411Z" fill="#F5F3F1"/>
<path d="M20.42 174.717C23.3801 174.572 25.6748 174.56 28.7114 174.717C28.8376 172.453 28.9714 172.227 29.1206 170.086C26.1069 169.714 23.12 170.473 20.0758 169.948C20.2096 172.116 20.2785 172.495 20.42 174.717Z" fill="#F5F3F1"/>
<path d="M19.6322 169.021C20.6265 169.021 20.9172 169.117 21.552 169.193C21.2346 166.351 20.986 163.841 21.2423 160.922H19.2535C19.5289 163.895 19.6781 166.136 19.6322 169.021Z" fill="#F5F3F1"/>
<path d="M29.6713 158.9C29.7057 158.52 29.7057 158.145 29.7402 157.597C26.5009 157.394 22.8485 157.934 19.636 157.735C19.6857 158.662 19.8004 159.076 19.8769 159.965C23.078 159.892 26.4129 160.221 29.6063 160.137C29.6407 159.589 29.6407 159.244 29.6752 158.903L29.6713 158.9Z" fill="#F5F3F1"/>
<path d="M19.1541 156.739C22.9327 156.946 27.0631 156.264 30.834 156.739C30.6083 156.367 30.6657 155.812 30.1494 155.743C28.3175 155.747 28.3136 155.973 26.4511 155.984C23.7434 155.984 21.8962 155.95 19.0853 155.881C18.416 155.835 18.4275 156.39 18.2974 156.739H19.1541Z" fill="#F5F3F1"/>
<path d="M170.736 175.713C168.629 175.644 166.9 175.962 164.808 175.886C162.724 175.602 160.976 175.855 158.915 175.955C157.981 175.962 156.93 175.598 156.012 175.821C154.96 176.081 154.084 175.782 152.926 175.717C150.333 176.1 147.755 175.775 145.143 175.958C142.118 175.64 139.349 175.966 136.335 175.859C130.384 175.69 124.365 175.897 118.425 175.786C117.312 175.499 115.893 175.966 114.796 175.786C103.322 175.97 91.7306 175.64 80.2649 175.958C73.7366 175.698 67.2427 175.84 60.7029 175.717C56.3277 175.981 51.9831 175.725 47.65 175.889C45.3095 175.901 43.4814 175.614 40.8349 175.889C39.7373 175.889 38.8882 175.529 37.9245 175.832C34.0159 176.096 29.9352 175.717 26.0037 175.828C22.8141 175.74 19.4333 175.79 16.2437 175.786C14.3965 176.119 7.80314 174.56 8.12822 177.345C8.15499 179.196 9.75361 178.667 11.2375 178.675C13.0273 178.759 14.8937 178.797 16.6797 178.743C22.707 178.537 28.784 178.812 34.8764 178.537C40.2765 178.828 45.3592 178.613 50.7019 178.468C57.8651 178.636 65.0933 178.552 72.3521 178.571C86.1469 178.613 100.018 178.652 113.767 178.502C116.517 178.659 118.892 178.69 121.68 178.537C127.543 178.46 133.585 178.954 139.425 178.537C142.095 178.847 144.535 178.341 147.2 178.709C150.505 178.491 153.805 178.908 157.171 178.709C161.737 178.56 166.334 178.717 170.977 178.64C171.78 178.705 171.883 177.613 172.109 176.889C171.73 176.307 171.252 175.721 170.74 175.721L170.736 175.713Z" fill="#F5F3F1"/>
</svg>
