<svg width="180" height="180" viewBox="0 0 180 180" fill="none" xmlns="http://www.w3.org/2000/svg">
<path d="M106.484 131.034C107.008 131.663 107.571 132.362 107.919 133.202C108.096 133.62 108.272 134.042 108.479 134.425C108.655 134.776 108.725 135.089 108.796 135.405C108.866 135.687 108.901 135.894 109.042 136.069C109.461 136.734 109.567 137.538 109.637 138.238L109.672 138.484C109.919 140.128 109.883 141.844 109.637 143.594V143.664C109.285 145.973 108.514 148.211 107.36 150.313C107.078 150.837 106.73 151.329 106.378 151.817C106.061 152.27 105.783 152.692 105.537 153.11C104.977 154.091 104.277 154.755 103.33 155.595C100.423 158.15 97.3718 159.795 94.2889 160.599C98.7059 160.248 102.63 158.115 105.854 155.282C106.695 154.548 107.395 153.919 107.919 153.009C108.444 152.063 109.214 151.188 109.743 150.208C110.865 148.145 111.601 145.973 111.949 143.805C112.196 142.125 112.231 140.48 112.02 138.871C111.914 138.171 111.879 137.366 111.495 136.737C111.178 136.214 111.214 135.581 110.901 135.022C110.689 134.604 110.482 134.183 110.306 133.729C109.989 132.995 109.465 132.366 108.976 131.733C107.783 130.299 106.206 128.897 104.281 128.162C103.51 127.846 102.74 127.604 101.934 127.393C103.968 128.338 105.509 129.877 106.488 131.034H106.484Z" fill="#F5B731" fill-opacity="0.8"/>
<path d="M108.166 138.73L108.131 138.449C108.06 137.89 107.99 137.292 107.743 136.874C107.497 136.487 107.426 136.105 107.325 135.753C107.254 135.507 107.219 135.3 107.114 135.124C106.902 134.702 106.695 134.249 106.484 133.796C106.202 133.167 105.713 132.569 105.259 132.01C104.347 130.889 102.841 129.42 100.877 128.651C98.7763 127.811 97.0236 127.459 95.2004 127.459C94.7818 127.459 94.3593 127.494 93.9759 127.529C92.8178 127.846 91.6989 128.229 90.6113 128.721C89.418 129.28 88.2991 129.944 87.2467 130.717C86.7576 131.104 86.2295 131.487 85.8108 131.94C85.3922 132.393 85.1105 132.921 84.6528 133.339C84.1951 133.757 83.9173 134.214 83.6004 134.702C82.8649 135.858 82.1998 137.046 81.429 138.203C80.0636 140.164 79.5003 142.508 79.2929 144.641C79.1873 145.656 79.1873 146.703 79.2929 147.719C79.3633 148.172 79.2929 148.629 79.3633 149.083C79.4689 149.606 79.5394 150.098 79.6802 150.587C79.9267 151.567 80.2749 152.513 80.7326 153.388C81.2921 154.474 82.0628 155.486 82.7983 156.466C83.3226 157.165 83.8156 158.005 84.6919 158.427C85.3218 158.744 85.9869 159.021 86.6207 159.302C87.2506 159.443 87.8805 159.584 88.5143 159.654C89.0737 159.619 89.5667 159.654 90.0205 159.654C94.2263 159.654 98.3616 157.904 102.321 154.474C103.197 153.739 103.792 153.181 104.214 152.376C104.496 151.888 104.809 151.395 105.126 150.942C105.443 150.489 105.756 150.032 106.002 149.579C107.09 147.653 107.79 145.59 108.103 143.492V143.457C108.35 141.847 108.385 140.238 108.174 138.734L108.166 138.73ZM101.824 139.429L96.3585 144.152C96.2881 144.223 96.2529 144.293 96.2529 144.328L100.247 149.016C100.772 149.645 100.666 150.661 99.9657 151.255L98.1073 152.864C97.7552 153.181 97.3014 153.317 96.8788 153.282C96.4915 153.247 96.1081 153.071 95.8616 152.794L91.8671 148.106C91.8319 148.106 91.7967 148.106 91.7263 148.176L86.2608 152.899C85.9439 153.146 85.5605 153.282 85.1379 153.282H85.0323C84.645 153.247 84.2968 153.071 84.0151 152.794L82.6497 151.184C82.1254 150.555 82.2311 149.54 82.9314 148.946L88.3969 144.223C88.4673 144.152 88.5025 144.082 88.5025 144.047L84.508 139.359C83.9838 138.73 84.0894 137.714 84.7897 137.12L86.6481 135.511C87.0002 135.194 87.454 135.058 87.8766 135.093C88.2639 135.128 88.6121 135.304 88.8938 135.581L92.8883 140.304C92.8883 140.304 92.9587 140.269 93.0291 140.234L98.4946 135.511C98.8467 135.194 99.3006 135.058 99.7231 135.093C100.11 135.128 100.494 135.304 100.74 135.581L102.106 137.191C102.63 137.82 102.524 138.835 101.824 139.429Z" fill="#F5B731" fill-opacity="0.8"/>
</svg>
