<svg width="180" height="115" viewBox="0 0 180 115" fill="none" xmlns="http://www.w3.org/2000/svg">
<path d="M133.824 95.3432C133.824 94.8881 133.824 94.6763 133.859 94.4645C133.859 94.2173 133.894 93.9741 133.894 93.5152V91.6871C133.894 91.2321 133.894 91.0203 133.93 90.8084C133.93 90.5613 133.965 90.3534 133.965 89.8591C133.965 89.3649 133.93 89.0863 133.894 88.8745C133.859 88.6627 133.824 88.4508 133.824 88.0311C133.824 87.6114 133.859 87.3995 133.894 87.1877C133.93 86.9406 133.965 86.6974 133.965 86.2031V84.3751C133.965 83.8847 133.93 83.6376 133.894 83.3904C133.859 83.1786 133.824 82.9668 133.824 82.547C133.824 82.1273 133.859 81.8802 133.859 81.6683C133.894 81.4212 133.894 81.178 133.894 80.719V77.0669C133.894 76.6119 133.894 76.3647 133.859 76.1176C133.859 75.9058 133.824 75.6625 133.824 75.2389C133.824 74.8152 133.859 74.6073 133.859 74.3602C133.894 74.113 133.93 73.8698 133.93 73.3755C133.93 72.8813 133.93 72.6734 133.894 72.4262C133.894 72.2144 133.859 71.9712 133.859 71.5475V69.7195C133.859 69.2645 133.859 69.0526 133.894 68.8408C133.894 68.5937 133.93 68.3858 133.93 67.8915C133.93 67.3972 133.894 67.154 133.859 66.9069C133.824 66.695 133.789 66.4832 133.789 66.0635V64.2354C133.789 63.8118 133.824 63.5686 133.824 63.3567C133.859 63.1096 133.859 62.8664 133.859 62.4074C133.859 61.9484 133.859 61.7405 133.894 61.5287C133.894 61.2816 133.93 61.0384 133.93 60.5794V58.7514C133.93 58.261 133.894 58.0139 133.894 57.8021C133.859 57.5902 133.859 57.3784 133.859 56.9233C133.859 56.4997 133.894 56.2918 133.894 56.0446C133.93 55.7975 133.965 55.5543 133.965 55.06C133.965 54.5658 133.93 54.3225 133.894 54.0754C133.859 53.8636 133.824 53.6517 133.824 53.232V51.404C133.824 50.9489 133.824 50.7371 133.859 50.5253C133.859 50.2781 133.894 50.0349 133.894 49.576C133.894 49.117 133.894 48.8738 133.859 48.6266C133.859 48.4148 133.824 48.1716 133.824 47.7479C133.824 47.2929 133.824 47.0811 133.859 46.8692C133.859 46.6221 133.894 46.4142 133.894 45.9199C133.894 45.4256 133.859 45.1824 133.824 44.9353C133.789 44.7235 133.753 44.5116 133.753 44.0919C133.753 43.6368 133.753 43.425 133.789 43.2132C133.789 42.966 133.824 42.7228 133.824 42.2639V40.4358C133.824 39.9808 133.824 39.769 133.859 39.5571C133.859 39.31 133.894 39.1021 133.894 38.6078C133.894 38.1528 133.894 37.9409 133.93 37.6938C133.93 37.4467 133.965 37.2388 133.965 36.7445C133.965 36.2502 133.93 36.007 133.894 35.7599C133.859 35.548 133.824 35.3362 133.824 34.9165C133.824 34.4967 133.859 34.2849 133.894 34.0731C133.93 33.8259 133.965 33.5827 133.965 33.0885C133.965 32.5942 133.93 32.351 133.894 32.1038C133.859 31.892 133.824 31.6802 133.824 31.2604C133.824 30.8407 133.859 30.6642 133.894 30.4523C133.93 30.2052 134 29.962 134 29.4324V27.6044C134 27.114 133.965 26.8669 133.93 26.6198C133.894 26.4079 133.859 26.1961 133.859 25.7764C133.859 25.3566 133.894 25.1448 133.894 24.8977C133.93 24.6505 133.965 24.4073 133.965 23.913C133.965 23.4188 133.93 23.1756 133.894 22.9284C133.859 22.7166 133.859 22.5048 133.859 22.0497C133.859 21.6261 133.894 21.3828 133.894 21.171C133.93 20.9239 133.93 20.6807 133.93 20.2217C133.93 19.7313 133.894 19.4842 133.859 19.2371C133.824 19.0252 133.789 18.8134 133.789 18.3937C133.789 17.9739 133.824 17.7268 133.824 17.515C133.859 17.2678 133.859 17.0246 133.859 16.5656V14.7376C133.859 14.2473 133.824 14.0001 133.789 13.753C133.753 13.5412 133.753 13.3293 133.753 12.8743C133.753 12.4506 133.789 12.2427 133.789 11.9956C133.824 11.7485 133.859 11.5052 133.859 11.011C133.859 10.5167 133.859 10.3088 133.824 10.0617C133.824 9.84982 133.789 9.60661 133.789 9.18295C133.789 8.75929 133.824 8.55138 133.859 8.33955C133.894 8.09241 133.93 7.8492 133.93 7.35493V5.5269C133.93 5.07186 133.93 4.82472 133.894 4.57759C133.894 4.36576 133.859 4.12254 133.859 3.69888V1.91401C133.859 1.49035 133.507 1.14122 133.017 1.14122C132.598 1.14122 132.387 1.10592 132.14 1.10592C131.894 1.07061 131.651 1.07061 131.158 1.07061C130.633 1.07061 130.387 1.10592 130.14 1.14122C129.929 1.17653 129.721 1.21183 129.298 1.21183C128.844 1.21183 128.633 1.21183 128.386 1.17653C128.139 1.17653 127.897 1.14122 127.439 1.14122C126.981 1.14122 126.773 1.14122 126.527 1.10592C126.28 1.10592 126.037 1.07061 125.579 1.07061C125.121 1.07061 124.914 1.07061 124.667 1.03531C124.42 1.03531 124.213 1 123.72 1C123.265 1 123.019 1 122.772 1.03531C122.561 1.03531 122.318 1.07061 121.86 1.07061H120C119.546 1.07061 119.335 1.07061 119.124 1.03531C118.877 1.03531 118.634 1 118.141 1C117.616 1 117.37 1.07061 117.123 1.10592C116.912 1.14122 116.704 1.21183 116.281 1.21183C115.859 1.21183 115.686 1.17653 115.44 1.14122C115.193 1.10592 114.915 1.07061 114.422 1.07061C113.968 1.07061 113.721 1.07061 113.474 1.10592C113.263 1.10592 113.02 1.14122 112.562 1.14122H107.023C106.604 1.14122 106.392 1.10592 106.146 1.10592C105.899 1.07061 105.656 1.07061 105.163 1.07061C104.709 1.07061 104.462 1.07061 104.216 1.10592C104.004 1.10592 103.762 1.14122 103.304 1.14122C102.779 1.14122 102.532 1.17653 102.286 1.21183C102.074 1.24714 101.867 1.28244 101.444 1.28244C100.99 1.28244 100.778 1.28244 100.567 1.24714C100.32 1.24714 100.078 1.21183 99.6197 1.21183H97.7601C97.3412 1.21183 97.0946 1.17653 96.8832 1.17653C96.6366 1.14122 96.3938 1.14122 95.9006 1.14122C95.4073 1.14122 95.1646 1.17653 94.9179 1.21183C94.7065 1.24714 94.499 1.28244 94.041 1.28244C93.583 1.28244 93.3402 1.28244 93.0936 1.31775C92.8822 1.31775 92.6395 1.35305 92.1814 1.35305C91.7626 1.35305 91.5511 1.31775 91.3397 1.28244C91.0931 1.24714 90.8504 1.21183 90.3219 1.21183C89.8325 1.21183 89.5859 1.24714 89.3392 1.28244C89.1278 1.31775 88.9204 1.31775 88.4623 1.31775H86.638C86.2191 1.31775 86.0077 1.28244 85.7963 1.24714C85.5497 1.21183 85.3069 1.17653 84.7784 1.17653H82.9189C82.4295 1.17653 82.1476 1.21183 81.901 1.24714C81.6896 1.28244 81.4821 1.31775 81.0593 1.31775H79.1998C78.7809 1.31775 78.5342 1.28244 78.3228 1.28244C78.0762 1.24714 77.8335 1.24714 77.3402 1.24714C76.8469 1.24714 76.6042 1.28244 76.3576 1.31775C76.1462 1.35305 75.9387 1.38836 75.4806 1.38836C75.0617 1.38836 74.8151 1.35305 74.6037 1.35305C74.3571 1.31775 74.1143 1.31775 73.6211 1.31775H71.7615C71.2722 1.31775 71.0255 1.31775 70.8141 1.35305C70.6027 1.35305 70.36 1.38836 69.9372 1.38836C69.4831 1.38836 69.2717 1.38836 69.025 1.35305C68.7784 1.35305 68.5357 1.31775 68.0776 1.31775C67.6587 1.31775 67.4121 1.28244 67.2007 1.28244C66.9541 1.24714 66.7113 1.24714 66.2181 1.24714H64.3585C63.8691 1.24714 63.6225 1.28244 63.3759 1.31775C63.1645 1.35305 62.957 1.38836 62.4989 1.38836C62.0801 1.38836 61.8687 1.35305 61.6573 1.31775C61.4106 1.28244 61.1679 1.24714 60.6394 1.24714C60.15 1.24714 59.9034 1.28244 59.6568 1.31775C59.4454 1.35305 59.2379 1.38836 58.7798 1.38836C58.3609 1.38836 58.1143 1.35305 57.9029 1.35305C57.6563 1.31775 57.4135 1.31775 56.9203 1.31775C56.427 1.31775 56.1843 1.35305 55.9376 1.35305C55.7262 1.38836 55.5187 1.38836 55.0607 1.38836C54.6418 1.38836 54.4304 1.35305 54.219 1.31775C53.9724 1.28244 53.7297 1.24714 53.2011 1.24714C52.6726 1.24714 52.4299 1.31775 52.1833 1.35305C51.9719 1.38836 51.7644 1.42366 51.3416 1.42366H49.6934C49.2745 1.42366 49.0984 1.38836 48.887 1.35305C48.6403 1.31775 48.3624 1.24714 47.9043 1.24714C47.7282 1.21183 47.5168 1.28244 47.3797 1.42366C47.1683 1.60019 47.0979 1.87871 47.0979 2.09054V3.91856C47.0979 4.3736 47.0979 4.62074 47.1331 4.86787C47.1331 5.07971 47.1683 5.32292 47.1683 5.74658V7.5746C47.1683 8.02965 47.1683 8.24148 47.1331 8.45331C47.1331 8.70044 47.0979 8.94366 47.0979 9.40262C47.0979 9.89297 47.1331 10.1401 47.1331 10.3519C47.1683 10.5638 47.1683 10.7756 47.1683 11.2306V13.0587C47.1683 13.4823 47.1331 13.6902 47.0979 13.9021C47.0626 14.1492 47.0274 14.3924 47.0274 14.8867C47.0274 15.3417 47.0274 15.5889 47.0626 15.836C47.0626 16.0478 47.0979 16.2911 47.0979 16.75C47.0979 17.209 47.0979 17.4169 47.0626 17.6287C47.0626 17.8759 47.0274 18.0838 47.0274 18.578V20.4061C47.0274 20.8964 47.0626 21.1435 47.0626 21.3554C47.0979 21.5672 47.0979 21.779 47.0979 22.2341C47.0979 22.6891 47.0626 22.901 47.0626 23.1128C47.0274 23.3599 47.0274 23.6031 47.0274 24.0621C47.0274 24.5525 47.0274 24.7643 47.0626 25.0114C47.0626 25.2233 47.0979 25.4665 47.0979 25.8901C47.0979 26.3138 47.0626 26.5217 47.0626 26.7688C47.0274 27.016 46.9922 27.2592 46.9922 27.7535C46.9922 28.2085 46.9922 28.4556 47.0274 28.7028C47.0274 28.9146 47.0626 29.1578 47.0626 29.5815V33.2336C47.0626 33.7239 47.0979 33.9711 47.1331 34.2182C47.1683 34.43 47.2036 34.6419 47.2036 35.0616C47.2036 35.4814 47.1683 35.6932 47.1683 35.9403C47.1331 36.1875 47.0979 36.4307 47.0979 36.9249V38.753C47.0979 39.208 47.0979 39.4198 47.0626 39.6317C47.0626 39.8788 47.0274 40.122 47.0274 40.581V42.409C47.0274 42.8994 47.0626 43.1465 47.0979 43.3936C47.1331 43.6055 47.1331 43.8173 47.1331 44.2723C47.1331 44.696 47.0979 44.9039 47.0979 45.151C47.0626 45.3982 47.0274 45.6414 47.0274 46.1357C47.0274 46.6299 47.0626 46.8731 47.0979 47.1203C47.1331 47.3321 47.1331 47.5439 47.1331 47.9637V51.6158C47.1331 52.0395 47.0979 52.2121 47.0626 52.4592C47.0274 52.7063 46.9569 52.9496 46.9569 53.4791C46.9569 53.9695 46.9922 54.2166 46.9922 54.4285C47.0274 54.6403 47.0274 54.8521 47.0274 55.3072C47.0274 55.7622 47.0274 55.974 46.9922 56.1859C46.9922 56.433 46.9569 56.6762 46.9569 57.1352C46.9569 57.6255 46.9922 57.8727 47.0274 58.1198C47.0626 58.3316 47.0979 58.5435 47.0979 58.9632C47.0979 59.4182 47.0979 59.6654 47.1331 59.9125C47.1331 60.1243 47.1683 60.3676 47.1683 60.7912C47.1683 61.2149 47.1331 61.4228 47.0979 61.6346C47.0626 61.8818 47.0274 62.125 47.0274 62.6192C47.0274 63.1135 47.0274 63.3214 47.0626 63.5686C47.0626 63.7804 47.0979 64.0236 47.0979 64.4473V66.2753C47.0979 66.7303 47.0979 66.9422 47.0626 67.154C47.0626 67.4011 47.0274 67.609 47.0274 68.1033V69.9313C47.0274 70.4217 47.0626 70.6688 47.0979 70.916C47.1331 71.1278 47.1683 71.3396 47.1683 71.7594C47.1683 72.2144 47.1683 72.4262 47.1331 72.6381C47.1331 72.8852 47.0979 73.1284 47.0979 73.5874C47.0979 74.011 47.0626 74.2189 47.0626 74.4661C47.0274 74.7132 47.0274 74.9564 47.0274 75.4507C47.0274 75.945 47.0626 76.1882 47.0979 76.4353C47.1331 76.6472 47.1683 76.859 47.1683 77.2787C47.1683 77.6985 47.1331 77.9103 47.1331 78.1574C47.0979 78.4046 47.0626 78.6478 47.0626 79.1421C47.0626 79.6363 47.0979 79.9148 47.1683 80.162C47.2036 80.3738 47.2388 80.5856 47.2388 81.0054C47.2388 81.4251 47.2036 81.6016 47.1683 81.8135C47.1331 82.0606 47.0626 82.3038 47.0626 82.8334V86.4855C47.0626 86.9759 47.0979 87.223 47.1331 87.4701C47.1683 87.682 47.1683 87.8938 47.1683 88.3489C47.1683 88.8039 47.1683 89.0157 47.1331 89.2276C47.1331 89.4747 47.0979 89.7179 47.0979 90.1769C47.0979 90.6672 47.1331 90.9144 47.1683 91.1615C47.2036 91.3733 47.2388 91.5852 47.2388 92.0049C47.2388 92.4246 47.2036 92.6365 47.2036 92.8836C47.1683 93.1307 47.1331 93.374 47.1331 93.8682V97.5203C47.1331 97.944 47.0979 98.1872 47.0979 98.399C47.0626 98.6462 47.0626 98.8894 47.0626 99.3484C47.0626 99.8387 47.0979 100.086 47.1331 100.333C47.1683 100.545 47.2036 100.757 47.2036 101.176C47.2036 101.843 47.7282 101.879 47.8691 101.879C48.288 101.879 48.4994 101.914 48.746 101.914C48.9222 101.949 49.0984 101.949 49.3763 101.949C49.3411 102.232 49.3411 102.404 49.3411 102.581C49.3059 102.828 49.3059 103.071 49.2706 103.565C49.2354 103.989 49.2002 104.197 49.1297 104.444C49.0592 104.691 49.024 104.97 48.9888 105.464C48.9535 105.958 48.9888 106.237 48.9888 106.484C48.9888 106.696 49.024 106.939 48.9888 107.398C48.9535 107.857 48.9183 108.065 48.8831 108.277C48.8478 108.524 48.7774 108.767 48.7421 109.297C48.7069 109.787 48.7069 110.069 48.7421 110.317C48.7421 110.528 48.7774 110.772 48.7421 111.231C48.7069 111.721 48.7069 111.968 48.7069 112.215C48.7069 112.427 48.7069 112.67 48.6716 113.094C48.6012 113.306 48.6364 113.517 48.7421 113.69C48.8478 113.902 49.0592 114.008 49.3019 114.008C49.9322 114.008 50.2846 113.973 50.5978 113.937C50.9149 113.902 51.1928 113.867 51.7918 113.867C52.3164 113.867 52.4221 113.482 52.4221 113.376C52.5278 112.953 52.6335 112.709 52.704 112.498C52.8097 112.25 52.8801 112.007 53.0211 111.478C53.162 110.987 53.1972 110.74 53.2325 110.493C53.2677 110.246 53.3382 110.038 53.4439 109.579C53.5496 109.124 53.62 108.877 53.6905 108.665C53.761 108.418 53.8314 108.21 53.9724 107.716C54.0781 107.261 54.1485 107.014 54.219 106.802C54.2895 106.555 54.3599 106.311 54.5009 105.852C54.6418 105.362 54.7123 105.15 54.7828 104.903C54.8532 104.691 54.9237 104.448 55.0646 103.989C55.2056 103.499 55.2408 103.287 55.3113 103.04C55.3817 102.793 55.417 102.585 55.5579 102.09C55.875 102.09 56.0473 102.09 56.2587 102.055C56.4701 102.055 56.7128 102.02 57.1708 102.02C57.6602 102.02 57.9068 101.984 58.1534 101.949C58.3649 101.914 58.5723 101.879 59.0304 101.879C59.4493 101.879 59.6959 101.914 59.9073 101.914C60.1539 101.949 60.3967 101.949 60.8899 101.949H61.1366C61.1013 102.267 61.1013 102.44 61.0661 102.651C61.0309 102.898 61.0309 103.142 60.9956 103.601C60.9604 104.06 60.9252 104.303 60.8899 104.55C60.8547 104.797 60.8195 105.04 60.7842 105.499C60.749 105.99 60.749 106.237 60.749 106.484C60.749 106.731 60.749 106.939 60.7138 107.433C60.6785 107.928 60.6785 108.171 60.6785 108.418C60.6785 108.665 60.6785 108.873 60.6433 109.332C60.6081 109.791 60.5728 109.999 60.5376 110.211C60.5024 110.458 60.4319 110.701 60.3967 111.231C60.3614 111.76 60.3967 112.039 60.4319 112.286C60.4671 112.498 60.4671 112.709 60.4671 113.164C60.4671 113.2 60.5024 113.341 60.5024 113.376C60.6081 113.831 60.8195 114.043 61.1679 114.043C61.8334 114.043 62.1505 114.008 62.4637 113.937C62.7808 113.902 63.094 113.867 63.6891 113.867C64.2841 113.902 64.4251 113.482 64.4251 113.412C64.5308 112.957 64.6012 112.745 64.6717 112.498C64.7422 112.25 64.8126 112.007 64.9536 111.513C65.0945 111.023 65.1297 110.74 65.1297 110.493C65.165 110.246 65.165 110.038 65.3059 109.579C65.4116 109.155 65.5173 108.912 65.5878 108.7C65.6935 108.453 65.7639 108.21 65.9049 107.68C66.0458 107.19 66.081 106.943 66.1163 106.696C66.1515 106.449 66.222 106.241 66.3277 105.782C66.4686 105.291 66.5039 105.044 66.5743 104.797C66.6096 104.55 66.68 104.342 66.7857 103.883C66.8914 103.459 66.9971 103.252 67.1028 103.04C67.2085 102.793 67.3142 102.549 67.4552 102.02V101.984C67.6666 102.02 67.9093 102.02 68.3321 102.02C68.7862 102.02 69.0329 102.02 69.2795 101.984C69.4909 101.984 69.7336 101.949 70.1917 101.949C70.6497 101.949 70.8572 101.949 71.0686 101.984C71.3152 101.984 71.5579 102.02 72.0512 102.02C72.5445 102.02 72.7872 101.984 73.0338 101.949C73.2452 101.914 73.4527 101.879 73.9108 101.879H75.7351C76.2245 101.879 76.4711 101.879 76.6825 101.843C76.8939 101.843 77.1366 101.808 77.5594 101.808C77.9822 101.808 78.225 101.843 78.4364 101.843C78.683 101.879 78.9257 101.879 79.419 101.879C79.9123 101.879 80.155 101.879 80.4016 101.843C80.613 101.843 80.8557 101.808 81.2785 101.808H83.1381C83.5922 101.808 83.8036 101.808 84.015 101.843C84.2617 101.843 84.5044 101.879 84.9624 101.879C85.4205 101.879 85.6632 101.879 85.9098 101.843C86.1212 101.843 86.364 101.808 86.822 101.808C87.2409 101.808 87.4523 101.843 87.6637 101.879C87.9103 101.914 88.153 101.949 88.6816 101.949C89.1709 101.949 89.4175 101.914 89.6642 101.879C89.8756 101.843 90.0831 101.808 90.5411 101.808H92.4007C92.8548 101.808 93.0662 101.808 93.2776 101.843C93.5242 101.843 93.767 101.879 94.225 101.879H101.659C102.149 101.879 102.395 101.843 102.642 101.843C102.853 101.808 103.061 101.808 103.519 101.808C103.938 101.808 104.149 101.843 104.396 101.879C104.642 101.914 104.885 101.949 105.378 101.949H107.238C107.727 101.949 107.974 101.914 108.256 101.879C108.467 101.843 108.675 101.808 109.098 101.808C109.552 101.808 109.798 101.808 110.045 101.773C110.256 101.773 110.499 101.737 110.957 101.737H112.817C113.236 101.737 113.412 101.773 113.658 101.808C113.799 101.843 113.975 101.843 114.183 101.879C114.289 102.334 114.359 102.581 114.394 102.793C114.43 103.04 114.5 103.283 114.641 103.777C114.782 104.268 114.852 104.515 114.923 104.762C114.993 104.974 115.064 105.217 115.17 105.676C115.31 106.237 115.381 106.484 115.451 106.766C115.487 106.978 115.557 107.19 115.663 107.574L116.152 109.508C116.293 110.034 116.399 110.281 116.469 110.493C116.54 110.705 116.645 110.917 116.751 111.372C116.857 111.827 116.892 112.074 116.927 112.286C116.963 112.533 116.998 112.811 117.139 113.306C117.209 113.623 117.491 113.831 117.769 113.831C118.435 113.831 118.752 113.831 119.1 113.867C119.452 113.867 119.766 113.902 120.466 113.902C120.642 113.902 120.854 113.796 120.991 113.655C121.132 113.478 121.202 113.27 121.167 113.129C121.132 112.639 121.132 112.392 121.097 112.145C121.061 111.897 121.061 111.689 121.026 111.195C120.991 110.705 120.956 110.422 120.92 110.175C120.885 109.963 120.85 109.72 120.815 109.261C120.78 108.771 120.744 108.524 120.744 108.277C120.709 108.03 120.709 107.822 120.674 107.363C120.639 106.908 120.639 106.66 120.639 106.413C120.639 106.166 120.603 105.923 120.568 105.393C120.533 104.903 120.533 104.691 120.533 104.444C120.533 104.197 120.533 103.954 120.498 103.459C120.462 103.004 120.462 102.757 120.462 102.51C120.462 102.298 120.462 102.086 120.427 101.737C120.744 101.737 120.952 101.773 121.128 101.773C121.375 101.808 121.617 101.843 122.111 101.843C122.604 101.843 122.847 101.808 123.093 101.808C123.305 101.773 123.512 101.773 123.97 101.773C124.428 101.773 124.636 101.773 124.882 101.808C125.129 101.808 125.372 101.843 125.83 101.843H126.076V101.914L126.566 103.812C126.707 104.303 126.777 104.55 126.848 104.797C126.918 105.009 126.988 105.252 127.129 105.711C127.235 106.166 127.306 106.413 127.376 106.625C127.447 106.872 127.517 107.115 127.623 107.61C127.728 108.065 127.799 108.312 127.834 108.559C127.869 108.806 127.94 109.049 128.046 109.544C128.186 110.034 128.257 110.246 128.327 110.493C128.398 110.74 128.468 110.948 128.574 111.442C128.68 111.897 128.75 112.145 128.785 112.356C128.821 112.603 128.891 112.847 128.997 113.341C129.032 113.447 129.138 113.796 129.627 113.796C130.293 113.796 130.61 113.831 130.923 113.831C131.275 113.867 131.624 113.867 132.289 113.867C132.571 113.867 132.849 113.69 132.955 113.482C133.025 113.376 133.025 113.27 133.025 113.164C132.99 112.674 132.955 112.427 132.92 112.18C132.884 111.933 132.849 111.725 132.814 111.266C132.779 110.775 132.779 110.564 132.779 110.317C132.779 110.069 132.779 109.826 132.743 109.332C132.708 108.842 132.673 108.594 132.638 108.347C132.602 108.1 132.567 107.892 132.532 107.398C132.497 106.872 132.497 106.625 132.461 106.378C132.461 106.166 132.461 105.923 132.426 105.464C132.391 104.938 132.356 104.691 132.285 104.444C132.25 104.232 132.18 103.989 132.18 103.565C132.144 103.11 132.144 102.898 132.18 102.651C132.215 102.44 132.215 102.228 132.215 101.879H133.127C133.515 101.879 133.969 101.561 133.969 101.106V99.2778C133.969 98.7874 133.933 98.505 133.863 98.2578C133.828 98.046 133.793 97.8342 133.793 97.4144C133.793 96.9594 133.793 96.7476 133.828 96.5357C133.828 96.116 133.828 95.8688 133.828 95.3785L133.824 95.3432ZM128.703 108.132C128.668 107.884 128.597 107.641 128.492 107.147C128.351 106.657 128.28 106.409 128.21 106.162C128.139 105.95 128.069 105.707 127.963 105.248C127.822 104.758 127.752 104.511 127.681 104.264C127.611 104.052 127.54 103.809 127.4 103.35L126.981 101.628H127.54C128.03 101.628 128.276 101.592 128.523 101.592C128.735 101.557 128.977 101.557 129.4 101.557C129.854 101.557 130.066 101.592 130.277 101.592C130.488 101.628 130.731 101.628 131.154 101.628C131.154 101.945 131.154 102.153 131.119 102.33C131.083 102.612 131.083 102.855 131.119 103.42C131.154 103.946 131.189 104.193 131.26 104.44C131.295 104.652 131.365 104.895 131.365 105.319C131.401 105.743 131.401 105.986 131.401 106.198C131.401 106.48 131.401 106.723 131.471 107.253C131.506 107.743 131.541 107.99 131.577 108.237C131.612 108.485 131.647 108.692 131.682 109.151C131.718 109.61 131.718 109.854 131.718 110.101C131.718 110.348 131.718 110.591 131.753 111.085C131.788 111.576 131.823 111.823 131.859 112.105C131.894 112.247 131.894 112.423 131.929 112.666C131.44 112.666 131.193 112.631 130.911 112.631C130.629 112.596 130.316 112.596 129.788 112.596C129.717 112.313 129.682 112.141 129.647 111.964C129.611 111.717 129.541 111.474 129.435 110.979C129.294 110.489 129.224 110.242 129.153 109.995C129.083 109.783 129.012 109.54 128.907 109.081C128.766 108.587 128.731 108.379 128.695 108.132H128.703ZM123.829 100.576C123.34 100.576 123.128 100.612 122.882 100.612C122.67 100.647 122.428 100.647 121.97 100.647H121.934C121.516 100.647 121.304 100.612 121.093 100.612H120.952C120.74 100.576 120.533 100.576 120.11 100.576H119.691C119.48 100.576 119.304 100.576 119.131 100.612C118.92 100.612 118.677 100.647 118.219 100.647C117.761 100.647 117.554 100.647 117.307 100.612C117.06 100.612 116.818 100.576 116.36 100.576C115.87 100.576 115.624 100.612 115.377 100.647C115.166 100.682 114.958 100.717 114.5 100.717H114.218C113.972 100.717 113.799 100.682 113.658 100.647C113.412 100.612 113.169 100.576 112.641 100.576H110.781C110.292 100.576 110.045 100.576 109.798 100.612C109.587 100.612 109.344 100.647 108.921 100.647C108.432 100.647 108.185 100.682 107.939 100.717C107.727 100.753 107.52 100.788 107.062 100.788H105.238C104.819 100.788 104.607 100.753 104.396 100.717C104.149 100.682 103.906 100.647 103.378 100.647C102.889 100.647 102.642 100.682 102.395 100.717C102.184 100.753 101.941 100.753 101.518 100.753H94.1898C93.7356 100.753 93.489 100.753 93.2776 100.717C93.031 100.717 92.8235 100.682 92.3302 100.682H90.4706C89.9813 100.682 89.7346 100.717 89.4528 100.753C89.2414 100.788 89.0339 100.823 88.6111 100.823C88.1883 100.823 87.9808 100.788 87.7342 100.753C87.4875 100.717 87.2448 100.682 86.7515 100.682C86.2583 100.682 86.0155 100.682 85.8041 100.717C85.5927 100.717 85.35 100.753 84.9272 100.753C84.4731 100.753 84.2264 100.753 84.015 100.717C83.7684 100.717 83.5609 100.682 83.0676 100.682H81.2081C80.754 100.682 80.5073 100.682 80.2607 100.717C80.0493 100.717 79.8066 100.753 79.3485 100.753C78.8905 100.753 78.683 100.717 78.4716 100.717C78.225 100.682 77.9822 100.682 77.5242 100.682C77.0662 100.682 76.8234 100.682 76.5768 100.717C76.3654 100.717 76.1227 100.753 75.6646 100.753H73.8051C73.3157 100.753 73.0691 100.788 72.7872 100.823C72.5758 100.859 72.3683 100.894 71.9455 100.894C71.4914 100.894 71.28 100.894 71.0333 100.859C70.7867 100.859 70.544 100.823 70.086 100.823C69.5966 100.823 69.35 100.823 69.1386 100.859C68.9272 100.859 68.6844 100.894 68.2264 100.894C67.8075 100.894 67.5609 100.859 67.3495 100.823C67.2085 100.823 67.0676 100.788 66.8953 100.788H64.5112C64.0571 100.788 63.8457 100.788 63.6343 100.753C63.3876 100.753 63.1449 100.717 62.6869 100.717C62.1975 100.717 61.9509 100.717 61.7042 100.753H60.8273C60.3732 100.753 60.1618 100.717 59.9151 100.717C59.6685 100.682 59.4258 100.682 58.9677 100.682C58.4784 100.682 58.2317 100.717 57.9499 100.753C57.7385 100.788 57.531 100.823 57.1082 100.823C56.6188 100.823 56.3722 100.823 56.1608 100.859C55.9494 100.859 55.7067 100.894 55.2486 100.894H51.5334C51.0793 100.894 50.8327 100.894 50.6213 100.859C50.3746 100.859 50.1671 100.823 49.6739 100.823H49.6386C49.2197 100.823 49.0083 100.788 48.7969 100.788C48.6208 100.753 48.4446 100.753 48.1314 100.753C48.1314 100.435 48.0962 100.227 48.0609 100.051C48.0257 99.8387 47.9905 99.6269 47.9905 99.2071C47.9905 98.7874 48.0257 98.5403 48.0257 98.3284C48.0609 98.0813 48.0609 97.8381 48.0609 97.3791V93.727C48.0609 93.3033 48.0962 93.0954 48.0962 92.8483C48.1314 92.6012 48.1666 92.3579 48.1666 91.8637C48.1666 91.3694 48.1314 91.1262 48.0962 90.8791C48.0609 90.6672 48.0257 90.4554 48.0257 90.0357C48.0257 89.5806 48.0257 89.3688 48.0609 89.1216C48.0609 88.8745 48.0962 88.6666 48.0962 88.2076C48.0962 87.7173 48.0609 87.4701 48.0257 87.223C47.9905 87.0112 47.9905 86.7993 47.9905 86.3443V82.6922C47.9905 82.2685 48.0257 82.0959 48.0609 81.8841C48.0962 81.637 48.1666 81.3937 48.1666 80.8642C48.1666 80.3738 48.1314 80.0914 48.0609 79.8442C48.0257 79.6324 47.9905 79.4206 47.9905 79.0008C47.9905 78.5811 48.0257 78.3693 48.0257 78.1221C48.0609 77.875 48.0962 77.6318 48.0962 77.1375C48.0962 76.6432 48.0609 76.3647 48.0257 76.1529C47.9905 75.9411 47.9552 75.7292 47.9552 75.3095C47.9552 74.8897 47.9905 74.6426 47.9905 74.4308C48.0257 74.1836 48.0257 73.9404 48.0257 73.4815C48.0257 73.0225 48.0257 72.8146 48.0609 72.6028C48.0609 72.3556 48.0962 72.1124 48.0962 71.6534C48.0962 71.1631 48.0609 70.916 48.0257 70.6688C47.9905 70.457 47.9552 70.2452 47.9552 69.8254V67.9974C47.9552 67.5424 47.9552 67.3305 47.9905 67.1187C47.9905 66.8716 48.0257 66.6637 48.0257 66.1694V64.3414C48.0257 63.851 48.0257 63.6392 47.9905 63.392C47.9905 63.1802 47.9552 62.937 47.9552 62.5133C47.9552 62.0897 47.9905 61.8818 48.0257 61.6699C48.0609 61.4228 48.0962 61.1796 48.0962 60.6853C48.0962 60.2303 48.0962 59.9831 48.0609 59.7713C48.0609 59.5595 48.0257 59.3163 48.0257 58.8573C48.0257 58.3669 47.9905 58.1198 47.9552 57.8727C47.92 57.6608 47.8848 57.449 47.8848 57.0293C47.8848 56.5742 47.8848 56.3624 47.92 56.1506C47.92 55.9034 47.9552 55.6602 47.9552 55.2012C47.9552 54.7109 47.92 54.4638 47.92 54.2519C47.8848 54.0401 47.8848 53.8283 47.8848 53.3732C47.8848 52.9496 47.92 52.777 47.9552 52.5298C47.9905 52.2827 48.0609 52.0395 48.0609 51.5099V47.8578C48.0609 47.3674 48.0257 47.1203 47.9905 46.9085C47.9552 46.6966 47.9552 46.4848 47.9552 46.0298C47.9552 45.6061 47.9905 45.3982 47.9905 45.151C48.0257 44.9039 48.0609 44.6607 48.0609 44.1664C48.0609 43.6722 48.0257 43.4289 47.9905 43.1818C47.9552 42.97 47.9552 42.7581 47.9552 42.3031V40.4751C47.9552 40.02 47.9552 39.8082 47.9905 39.5964C47.9905 39.3492 48.0257 39.106 48.0257 38.6471V36.819C48.0257 36.3954 48.0609 36.1875 48.0609 35.9403C48.0962 35.6932 48.1314 35.45 48.1314 34.9557C48.1314 34.4614 48.0962 34.2182 48.0609 33.9711C48.0257 33.7593 47.9905 33.5474 47.9905 33.1277V29.5109C47.9905 29.0558 47.9905 28.8087 47.9552 28.5616C47.9552 28.3497 47.92 28.1065 47.92 27.6828C47.92 27.2592 47.9552 27.0513 47.9552 26.8041C47.9905 26.557 48.0257 26.3138 48.0257 25.8195C48.0257 25.3252 48.0257 25.1173 47.9905 24.8702C47.9905 24.6584 47.9552 24.4152 47.9552 23.9915C47.9552 23.5678 47.9905 23.3246 47.9905 23.1128C48.0257 22.8657 48.0257 22.6224 48.0257 22.1635C48.0257 21.7045 47.9905 21.426 47.9905 21.2142C47.9552 21.0023 47.9552 20.7905 47.9552 20.3355V18.5074C47.9552 18.0524 47.9552 17.8406 47.9905 17.5934C47.9905 17.3463 48.0257 17.1384 48.0257 16.6794C48.0257 16.2204 48.0257 15.9772 47.9905 15.7301C47.9905 15.5183 47.9552 15.275 47.9552 14.8514C47.9552 14.4277 47.9905 14.2198 48.0257 14.008C48.0609 13.7608 48.0962 13.5176 48.0962 13.0234V11.1953C48.0962 10.705 48.0609 10.4579 48.0609 10.246C48.0257 10.0342 48.0257 9.82236 48.0257 9.36732C48.0257 8.91228 48.0257 8.70044 48.0609 8.48861C48.0609 8.24148 48.0962 7.99826 48.0962 7.5393V5.71128C48.0962 5.25623 48.0962 5.0091 48.0609 4.76196C48.0609 4.55013 48.0257 4.30692 48.0257 3.88325V2.23176C48.2723 2.23176 48.4446 2.26706 48.6208 2.30237C48.8674 2.33767 49.1101 2.40828 49.6386 2.40828H51.4982C52.0228 2.40828 52.2694 2.37298 52.516 2.30237C52.7274 2.26706 52.9349 2.23176 53.3577 2.23176C53.7805 2.23176 53.988 2.26706 54.2347 2.30237C54.4813 2.33767 54.724 2.37298 55.2173 2.37298C55.7106 2.37298 55.9533 2.33767 56.1999 2.30237C56.4113 2.26706 56.6188 2.26706 57.0769 2.26706C57.5349 2.26706 57.7424 2.30237 57.9538 2.30237C58.2004 2.33767 58.4431 2.33767 58.9012 2.33767C59.3905 2.33767 59.6372 2.30237 59.9191 2.26706C60.1305 2.23176 60.3379 2.19645 60.7607 2.19645C61.1836 2.19645 61.391 2.23176 61.6377 2.26706C61.8843 2.30237 62.127 2.33767 62.6203 2.33767C63.1136 2.33767 63.3563 2.30237 63.6029 2.26706C63.8143 2.23176 64.0218 2.19645 64.4799 2.19645H66.3042C66.7583 2.19645 66.9697 2.23176 67.2164 2.23176C67.463 2.26706 67.7057 2.26706 68.1638 2.26706C68.6218 2.26706 68.8293 2.26706 69.0407 2.30237C69.2873 2.30237 69.53 2.33767 70.0233 2.33767C70.5166 2.33767 70.7593 2.33767 70.9707 2.30237C71.1821 2.30237 71.4248 2.26706 71.8476 2.26706H73.7072C74.1613 2.26706 74.3727 2.30237 74.6194 2.30237C74.866 2.33767 75.1087 2.33767 75.5668 2.33767C76.0561 2.33767 76.338 2.30237 76.5846 2.26706C76.796 2.23176 77.0035 2.19645 77.4263 2.19645C77.8804 2.19645 78.0918 2.23176 78.3385 2.23176C78.5851 2.26706 78.8278 2.26706 79.2859 2.26706H81.1102C81.6348 2.26706 81.8814 2.23176 82.1281 2.19645C82.3395 2.16115 82.547 2.12584 82.9698 2.12584H84.7941C85.213 2.12584 85.4244 2.16115 85.671 2.19645C85.9177 2.23176 86.1604 2.26706 86.6537 2.26706H88.5132C89.0026 2.26706 89.2492 2.23176 89.4958 2.23176C89.7072 2.19645 89.95 2.19645 90.3728 2.19645C90.7956 2.19645 91.0383 2.23176 91.2497 2.26706C91.4963 2.30237 91.7391 2.33767 92.2323 2.33767C92.7256 2.33767 92.9331 2.33767 93.1797 2.30237C93.3911 2.30237 93.6339 2.26706 94.0919 2.26706C94.5812 2.26706 94.8279 2.23176 95.1098 2.19645C95.3212 2.16115 95.5286 2.12584 95.9515 2.12584C96.4056 2.12584 96.617 2.16115 96.8284 2.16115C97.075 2.19645 97.3177 2.19645 97.7758 2.19645H99.6001C100.054 2.19645 100.301 2.19645 100.512 2.23176C100.759 2.23176 100.966 2.26706 101.46 2.26706C101.953 2.26706 102.196 2.23176 102.442 2.19645C102.654 2.16115 102.861 2.12584 103.319 2.12584C103.809 2.12584 104.055 2.12584 104.267 2.09054C104.478 2.09054 104.721 2.05523 105.179 2.05523C105.637 2.05523 105.844 2.09054 106.056 2.09054C106.302 2.12584 106.545 2.12584 107.038 2.12584H112.578C113.067 2.12584 113.314 2.12584 113.525 2.09054C113.737 2.09054 113.979 2.05523 114.402 2.05523C114.825 2.05523 115.033 2.09054 115.244 2.12584C115.491 2.16115 115.733 2.19645 116.262 2.19645C116.79 2.19645 117.068 2.12584 117.315 2.09054C117.526 2.05523 117.734 2.01993 118.121 2.01993C118.575 2.01993 118.787 2.01993 119.033 2.05523C119.28 2.05523 119.523 2.09054 119.981 2.09054H121.84C122.33 2.09054 122.576 2.09054 122.788 2.05523C122.999 2.05523 123.242 2.01993 123.665 2.01993C124.119 2.01993 124.33 2.01993 124.577 2.05523C124.824 2.05523 125.031 2.09054 125.524 2.09054C125.978 2.09054 126.225 2.09054 126.436 2.12584C126.683 2.12584 126.891 2.16115 127.384 2.16115C127.838 2.16115 128.049 2.16115 128.261 2.19645C128.507 2.19645 128.75 2.23176 129.243 2.23176C129.737 2.23176 130.015 2.19645 130.226 2.16115C130.437 2.12584 130.645 2.09054 131.068 2.09054C131.522 2.09054 131.733 2.12584 131.945 2.12584C132.156 2.16115 132.364 2.16115 132.751 2.16115V3.74203C132.751 4.19708 132.751 4.44421 132.786 4.69135C132.786 4.90318 132.822 5.14639 132.822 5.60536V7.43338C132.822 7.85704 132.786 8.06495 132.751 8.27678C132.716 8.52392 132.681 8.76713 132.681 9.2614C132.681 9.75568 132.681 9.96358 132.716 10.2107C132.716 10.4226 132.751 10.6658 132.751 11.0894C132.751 11.5131 132.716 11.721 132.716 11.9681C132.681 12.2153 132.645 12.4585 132.645 12.9528C132.645 13.447 132.681 13.6902 132.716 13.9374C132.751 14.1492 132.751 14.361 132.751 14.8161V16.6441C132.751 17.0678 132.716 17.2757 132.716 17.5228C132.681 17.7699 132.681 18.0132 132.681 18.5074C132.681 19.0017 132.716 19.2449 132.751 19.4921C132.786 19.7039 132.822 19.9157 132.822 20.3355C132.822 20.7552 132.786 21.0023 132.786 21.2142C132.751 21.4613 132.751 21.7045 132.751 22.1635C132.751 22.6538 132.786 22.901 132.822 23.1481C132.857 23.3599 132.857 23.5718 132.857 24.0268C132.857 24.4818 132.822 24.6584 132.822 24.9055C132.786 25.1526 132.751 25.3959 132.751 25.8901C132.751 26.3844 132.786 26.6276 132.822 26.8747C132.857 27.0866 132.892 27.2984 132.892 27.7181V29.5462C132.892 29.9698 132.857 30.1424 132.822 30.3543C132.786 30.6014 132.716 30.8446 132.716 31.3742C132.716 31.8645 132.751 32.1117 132.786 32.3588C132.822 32.5706 132.857 32.7825 132.857 33.2022C132.857 33.622 132.822 33.8338 132.786 34.0456C132.751 34.2928 132.716 34.536 132.716 35.0302C132.716 35.5245 132.751 35.7677 132.786 36.0149C132.822 36.2267 132.857 36.4385 132.857 36.8583C132.857 37.3133 132.857 37.5251 132.822 37.7723C132.822 38.0194 132.786 38.2273 132.786 38.7216C132.786 39.1766 132.786 39.3885 132.751 39.6003C132.751 39.8474 132.716 40.0553 132.716 40.5496V42.3776C132.716 42.8327 132.716 43.0445 132.681 43.2563C132.681 43.5035 132.645 43.7467 132.645 44.2057C132.645 44.696 132.681 44.9431 132.716 45.1903C132.751 45.4021 132.786 45.6139 132.786 46.0337C132.786 46.4887 132.786 46.7006 132.751 46.9124C132.751 47.1595 132.716 47.3674 132.716 47.8617C132.716 48.356 132.716 48.5639 132.751 48.811C132.751 49.0228 132.786 49.2661 132.786 49.6897C132.786 50.1448 132.786 50.3566 132.751 50.5684C132.751 50.8156 132.716 51.0588 132.716 51.5177V53.3458C132.716 53.8361 132.751 54.0832 132.786 54.3304C132.822 54.5422 132.857 54.754 132.857 55.1738C132.857 55.5935 132.822 55.8054 132.822 56.0525C132.786 56.2996 132.751 56.5428 132.751 57.0371C132.751 57.5314 132.786 57.7746 132.786 57.9864C132.822 58.1983 132.822 58.4101 132.822 58.8651V60.6932C132.822 61.1482 132.822 61.36 132.786 61.6072C132.786 61.8543 132.751 62.0622 132.751 62.5212C132.751 62.9448 132.716 63.1881 132.716 63.3999C132.681 63.647 132.681 63.8902 132.681 64.3492V66.1772C132.681 66.6676 132.716 66.9147 132.751 67.1618C132.786 67.3737 132.822 67.5855 132.822 68.0052C132.822 68.4603 132.822 68.6721 132.786 68.8839C132.786 69.1311 132.751 69.339 132.751 69.8333V71.6613C132.751 72.1516 132.751 72.3635 132.786 72.6106C132.786 72.8224 132.822 73.0656 132.822 73.4893C132.822 73.913 132.786 74.1209 132.786 74.368C132.751 74.6152 132.716 74.8584 132.716 75.3526C132.716 75.8077 132.716 76.0548 132.751 76.2666C132.751 76.4785 132.786 76.7217 132.786 77.1807V80.8328C132.786 81.2564 132.751 81.4997 132.751 81.7115C132.716 81.9586 132.716 82.2018 132.716 82.6608C132.716 83.1511 132.751 83.3983 132.786 83.6454C132.822 83.8572 132.857 84.0691 132.857 84.4888V86.3168C132.857 86.7405 132.822 86.9484 132.786 87.1602C132.751 87.4074 132.716 87.6506 132.716 88.1449C132.716 88.6391 132.751 88.8824 132.786 89.1295C132.822 89.3413 132.857 89.5531 132.857 89.9729C132.857 90.3926 132.857 90.6398 132.822 90.8516C132.822 91.0987 132.786 91.3419 132.786 91.8009V93.6289C132.786 94.084 132.786 94.2958 132.751 94.5076C132.751 94.7548 132.716 94.998 132.716 95.4569C132.716 95.9159 132.716 96.1238 132.681 96.3357C132.681 96.5828 132.645 96.7907 132.645 97.285C132.645 97.7792 132.681 98.0578 132.751 98.3049C132.786 98.5167 132.822 98.7286 132.822 99.1483V100.764H131.138C130.719 100.764 130.473 100.729 130.261 100.729C130.015 100.694 129.772 100.694 129.279 100.694C128.785 100.694 128.543 100.729 128.296 100.764C128.085 100.8 127.877 100.8 127.419 100.8H125.56C125.105 100.8 124.859 100.8 124.647 100.764C124.542 100.659 124.295 100.623 123.841 100.623L123.829 100.576ZM116.324 106.339C116.254 106.021 116.183 105.813 116.043 105.213C115.902 104.723 115.831 104.511 115.761 104.264C115.69 104.016 115.62 103.809 115.514 103.314C115.408 102.82 115.338 102.612 115.303 102.365C115.267 102.188 115.232 101.981 115.126 101.663C115.303 101.663 115.479 101.628 115.616 101.628C115.827 101.592 116.035 101.557 116.458 101.557C116.912 101.557 117.123 101.557 117.334 101.592C117.581 101.592 117.824 101.628 118.317 101.628C118.81 101.628 119.053 101.628 119.3 101.592H119.335C119.37 101.945 119.37 102.153 119.37 102.33C119.37 102.577 119.37 102.82 119.405 103.35C119.441 103.805 119.441 104.052 119.441 104.299C119.441 104.546 119.441 104.789 119.476 105.284C119.511 105.774 119.511 106.021 119.546 106.268C119.546 106.515 119.582 106.759 119.582 107.217C119.617 107.708 119.652 107.955 119.652 108.202C119.687 108.449 119.687 108.657 119.722 109.151C119.758 109.642 119.793 109.924 119.828 110.171C119.863 110.383 119.899 110.626 119.934 111.085C119.969 111.576 119.969 111.823 120.004 112.07C120.004 112.247 120.04 112.423 120.075 112.737C119.621 112.737 119.339 112.737 119.092 112.702C118.81 112.702 118.497 112.702 118.004 112.666C117.933 112.349 117.898 112.176 117.863 111.964C117.828 111.717 117.792 111.438 117.652 110.944C117.511 110.418 117.405 110.171 117.334 109.924C117.264 109.712 117.158 109.501 117.053 109.046L116.563 107.112C116.387 106.762 116.352 106.551 116.317 106.339H116.324ZM65.5486 104.268C65.5134 104.515 65.4429 104.723 65.3372 105.182C65.1963 105.672 65.1611 105.919 65.1258 106.166C65.0906 106.413 65.0201 106.621 64.9144 107.08C64.8087 107.535 64.703 107.747 64.6325 107.994C64.5268 108.241 64.4564 108.485 64.3154 108.979C64.1745 109.504 64.1393 109.787 64.1393 110.034C64.104 110.281 64.104 110.489 63.9631 110.913C63.8222 111.403 63.7869 111.65 63.7165 111.897C63.6812 112.074 63.6108 112.25 63.5403 112.529C62.9452 112.529 62.6281 112.564 62.3463 112.635C62.0996 112.67 61.8569 112.705 61.4693 112.705C61.4693 112.282 61.4693 112.074 61.4341 111.862C61.3989 111.65 61.3989 111.438 61.3989 110.983C61.4341 110.528 61.4693 110.316 61.5046 110.105C61.5398 109.858 61.6103 109.614 61.6455 109.085C61.6807 108.594 61.6807 108.347 61.6807 108.1C61.6807 107.853 61.6807 107.645 61.716 107.186C61.7512 106.696 61.7512 106.449 61.7512 106.201C61.7512 105.954 61.7512 105.746 61.7864 105.252C61.8217 104.797 61.8569 104.585 61.8569 104.373C61.8921 104.126 61.9274 103.883 61.9626 103.389C61.9978 102.934 61.9978 102.687 62.0331 102.475C62.0683 102.263 62.0683 102.02 62.1035 101.667H62.7338C63.188 101.667 63.4346 101.667 63.646 101.702C63.8926 101.702 64.1001 101.737 64.5934 101.737H66.3825C66.2768 102.055 66.2063 102.263 66.1359 102.44C66.0302 102.687 65.9245 102.93 65.7835 103.459C65.6426 103.777 65.6073 104.02 65.5369 104.268H65.5486ZM54.3639 102.44C54.2934 102.687 54.2582 102.895 54.1172 103.354C54.0115 103.777 53.9058 103.985 53.8354 104.197C53.7297 104.444 53.6592 104.687 53.5183 105.217C53.4125 105.672 53.3421 105.884 53.2716 106.131C53.2011 106.378 53.1307 106.621 52.9897 107.116C52.884 107.571 52.8136 107.782 52.7431 108.03C52.6726 108.277 52.6022 108.52 52.4612 109.014C52.3203 109.504 52.2851 109.752 52.2498 109.999C52.2146 110.246 52.1441 110.454 52.0384 110.913C51.9327 111.368 51.827 111.58 51.7566 111.827C51.6861 112.003 51.6156 112.211 51.5099 112.529C51.0206 112.529 50.7035 112.564 50.4216 112.6C50.175 112.635 49.9675 112.67 49.6151 112.67C49.6504 112.317 49.6504 112.109 49.6504 111.897C49.6504 111.65 49.6504 111.442 49.6856 110.983C49.7208 110.493 49.7208 110.246 49.6856 109.963C49.6856 109.752 49.6504 109.508 49.6856 109.049C49.7208 108.59 49.7561 108.383 49.7913 108.171C49.8265 107.924 49.897 107.68 49.9322 107.151C49.9675 106.621 49.9322 106.378 49.9322 106.131C49.9322 105.919 49.897 105.676 49.9322 105.252C49.9675 104.829 50.0027 104.621 50.0732 104.373C50.1436 104.126 50.1789 103.848 50.2141 103.354C50.2493 102.859 50.2493 102.616 50.2846 102.404C50.2846 102.228 50.3198 102.02 50.355 101.702H50.6017C50.8483 101.702 51.091 101.737 51.5491 101.737H54.4226C54.4578 102.02 54.3874 102.232 54.3521 102.44H54.3639ZM63.7948 113.015L63.6538 112.56C63.6891 112.525 63.7595 112.525 63.7948 112.525V113.015Z" fill="#454138"/>
<path d="M83.3652 10.8383V9.01031C83.3652 8.55526 83.3652 8.30813 83.3299 8.0963C83.3299 7.88447 83.2947 7.64125 83.2947 7.18229V5.35427C83.2947 4.96983 82.9424 4.51086 82.453 4.51086C81.9636 4.51086 81.717 4.54617 81.4704 4.58147C81.259 4.61678 81.0515 4.61678 80.6287 4.61678H73.2648C72.8107 4.61678 72.5993 4.61678 72.3879 4.58147C72.1413 4.58147 71.9338 4.54617 71.4405 4.54617H69.6162C69.1268 4.54617 68.8802 4.58147 68.6335 4.61678C68.4221 4.65209 68.2146 4.68739 67.7918 4.68739C67.369 4.68739 67.1615 4.65209 66.9501 4.61678C66.7035 4.58147 66.4608 4.54617 65.9675 4.54617C65.5134 4.54617 65.2668 4.54617 65.0201 4.58147C64.8087 4.58147 64.566 4.61678 64.108 4.61678C63.7204 4.61678 63.5129 4.61678 63.3367 4.58147H62.7769C62.6712 4.58147 62.5655 4.58147 62.495 4.54617C62.4598 4.54617 62.3893 4.51086 62.3541 4.51086H60.6002C60.1109 4.51086 59.8995 4.51086 59.6528 4.54617C59.4414 4.54617 59.1987 4.58147 58.7759 4.58147C58.3531 4.58147 58.1104 4.54617 57.899 4.54617C57.6523 4.51086 57.4096 4.51086 56.9516 4.51086C56.4935 4.51086 56.2508 4.51086 56.0042 4.54617C55.7928 4.54617 55.5501 4.58147 55.1273 4.58147H53.3029C52.8136 4.58147 52.5669 4.61678 52.3203 4.65209C52.1089 4.68739 51.9014 4.7227 51.4786 4.7227C50.7778 4.7227 50.7426 5.24835 50.7426 5.38957V7.21759C50.7426 7.64125 50.7074 7.84916 50.6721 8.06099C50.6369 8.30813 50.6017 8.55134 50.6017 9.04561V10.8736C50.6017 11.3287 50.6017 11.5405 50.5664 11.7876C50.5664 12.0348 50.5312 12.2427 50.5312 12.7017C50.5312 13.1606 50.5312 13.4038 50.5664 13.6157C50.5664 13.8275 50.6017 14.0707 50.6017 14.4944C50.6017 14.918 50.5664 15.1612 50.5664 15.3731C50.5312 15.6202 50.5312 15.8634 50.5312 16.3224C50.5312 16.8127 50.5664 17.0599 50.6017 17.307C50.6369 17.5188 50.6721 17.7307 50.6721 18.1504C50.6721 18.6055 50.6721 18.8526 50.7074 19.0997C50.7074 19.3116 50.7426 19.5548 50.7426 20.0137V23.6659C50.7426 24.1209 50.7426 24.3327 50.7074 24.5799C50.7074 24.827 50.6721 25.0349 50.6721 25.5292C50.6721 25.9529 50.6369 26.1608 50.6369 26.4079C50.6017 26.655 50.5664 26.8982 50.5664 27.3572C50.5664 27.8162 50.5664 28.0241 50.5312 28.2359C50.5312 28.4831 50.496 28.7263 50.496 29.1852C50.496 29.6756 50.5312 29.9227 50.5664 30.1699C50.6017 30.3817 50.6369 30.5935 50.6369 31.0133C50.6369 31.433 50.6017 31.6801 50.6017 31.892C50.5664 32.1391 50.5664 32.3823 50.5664 32.8413V36.4934C50.5664 36.9171 50.5312 37.125 50.5312 37.3721C50.496 37.6192 50.4607 37.8625 50.4607 38.3567C50.4607 38.851 50.496 39.0942 50.5312 39.3414C50.5664 39.5532 50.5664 39.765 50.5664 40.1848C50.5664 40.6398 50.5664 40.8516 50.5312 41.0988C50.5312 41.3459 50.496 41.5538 50.496 42.0128C50.496 42.5031 50.5312 42.7503 50.5664 42.9974C50.6017 43.2092 50.6017 43.4211 50.6017 43.8761V47.4929C50.6017 47.8773 50.5664 48.0892 50.5312 48.301C50.496 48.5481 50.4255 48.7914 50.4255 49.3209C50.4255 49.7446 50.7778 50.0231 51.3024 50.0231C51.7213 50.0231 51.9327 50.0584 52.1441 50.0584C52.3908 50.0937 52.6335 50.129 53.1268 50.129C53.62 50.129 53.898 50.0937 54.1094 50.0584C54.3208 50.0231 54.5283 49.9878 54.9511 49.9878C55.3739 49.9878 55.6166 50.0231 55.828 50.0231C56.0747 50.0584 56.3174 50.0584 56.7754 50.0584C57.2335 50.0584 57.4409 50.0584 57.6523 50.0937C57.899 50.0937 58.1417 50.129 58.5997 50.129C59.0891 50.129 59.3357 50.0937 59.5824 50.0584C59.7938 50.0231 60.0013 49.9878 60.4241 49.9878H62.5263C62.5968 50.0231 62.6673 50.0584 62.773 50.0584C62.8435 50.0584 62.9139 50.0231 62.9844 50.0231H63.0196C63.3015 50.0231 63.5442 50.0584 64.0727 50.0584H65.897C66.3864 50.0584 66.5978 50.0584 66.8444 50.0231C67.0558 50.0231 67.2986 49.9878 67.7214 49.9878C68.1442 49.9878 68.3517 50.0231 68.5631 50.0584C68.8097 50.0937 69.0524 50.129 69.5457 50.129C69.9998 50.129 70.2465 50.129 70.4931 50.0937C70.7045 50.0937 70.9472 50.0584 71.37 50.0584C71.8594 50.0584 72.106 50.0231 72.3527 49.9878C72.5641 49.9525 72.7715 49.9172 73.1944 49.9172C73.6485 49.9172 73.8599 49.9172 74.0713 49.9525C74.3179 49.9525 74.5606 49.9878 75.0187 49.9878C75.508 49.9878 75.7194 49.9878 75.9661 49.9525C76.1775 49.9525 76.4202 49.9172 76.843 49.9172C77.2658 49.9172 77.4381 49.9525 77.6847 49.9878C77.9313 50.0231 78.1741 50.0937 78.7026 50.0937H82.3512C82.7701 50.0937 83.0872 49.7407 83.0872 49.2856C83.0872 48.862 83.1224 48.6541 83.1224 48.4069C83.1577 48.1598 83.1929 47.9166 83.1929 47.4223C83.1929 46.928 83.1577 46.6848 83.1224 46.4377C83.0872 46.2259 83.0872 46.014 83.0872 45.559V43.731C83.0872 43.2759 83.0872 43.0641 83.1224 42.8523C83.1224 42.6051 83.1577 42.3619 83.1577 41.9029V40.0749C83.1577 39.6513 83.1929 39.4433 83.1929 39.2315C83.2281 38.9844 83.2634 38.7412 83.2634 38.2469C83.2634 37.7526 83.2281 37.5094 83.1929 37.2623C83.1577 37.0504 83.1224 36.8386 83.1224 36.4189V32.8021C83.1224 32.347 83.1224 32.0999 83.0872 31.8527C83.0872 31.6409 83.052 31.3977 83.052 30.9387C83.052 30.5151 83.0872 30.3072 83.0872 30.06C83.1224 29.8129 83.1577 29.5697 83.1577 29.0754C83.1577 28.5811 83.1577 28.3732 83.1224 28.1261C83.1224 27.9143 83.0872 27.671 83.0872 27.2474C83.0872 26.8237 83.1224 26.6158 83.1224 26.404C83.1577 26.1568 83.1929 25.9136 83.1929 25.4194C83.1929 24.9251 83.1577 24.6819 83.1577 24.47C83.1224 24.2582 83.1224 24.0464 83.1224 23.5913V21.7633C83.1224 21.3083 83.1224 21.0964 83.1577 20.8493C83.1577 20.6022 83.1929 20.3943 83.1929 19.9C83.1929 19.4449 83.1929 19.1978 83.1577 18.986C83.1577 18.7741 83.1224 18.5309 83.1224 18.072C83.1224 17.6483 83.1577 17.4404 83.1929 17.2286C83.2281 16.9814 83.2634 16.7382 83.2634 16.2439V14.4159C83.2634 13.9256 83.2281 13.6784 83.2281 13.4666C83.1929 13.2548 83.1929 13.0429 83.1929 12.5879C83.1929 12.1642 83.1929 11.9563 83.2281 11.7092C83.3338 11.5327 83.3691 11.2895 83.3691 10.8305L83.3652 10.8383ZM82.3473 13.6157C82.3825 13.8275 82.3825 14.0393 82.3825 14.4944V16.3224C82.3825 16.7461 82.3473 16.954 82.3121 17.1658C82.2768 17.4129 82.2416 17.6561 82.2416 18.1504C82.2416 18.6055 82.2416 18.8526 82.2768 19.0997C82.2768 19.3116 82.3121 19.5548 82.3121 19.9784C82.3121 20.4335 82.3121 20.6453 82.2768 20.8925C82.2768 21.1396 82.2416 21.3475 82.2416 21.8418V23.6698C82.2416 24.1601 82.2768 24.4073 82.2768 24.6191C82.3121 24.8309 82.3121 25.0428 82.3121 25.4978C82.3121 25.9215 82.2768 26.1647 82.2768 26.3765C82.2416 26.6237 82.2064 26.8316 82.2064 27.3258C82.2064 27.8201 82.2064 28.028 82.2416 28.2751C82.2416 28.487 82.2768 28.7302 82.2768 29.1539C82.2768 29.5775 82.2416 29.7854 82.2416 30.0326C82.2064 30.2797 82.1711 30.5229 82.1711 31.0172C82.1711 31.4722 82.1711 31.7194 82.2064 31.9665C82.2064 32.1783 82.2416 32.4215 82.2416 32.8805V36.5326C82.2416 37.023 82.2768 37.2701 82.3121 37.5173C82.3473 37.7291 82.3825 37.9409 82.3825 38.3607C82.3825 38.7804 82.3473 38.9922 82.3473 39.2041C82.3121 39.4512 82.2768 39.6944 82.2768 40.1887V42.052C82.2768 42.507 82.2768 42.7189 82.2416 42.9307C82.2416 43.1778 82.2064 43.4211 82.2064 43.88V45.708C82.2064 46.1984 82.2416 46.4455 82.2768 46.6927C82.3121 46.9045 82.3121 47.1163 82.3121 47.5714C82.3121 48.0264 82.2768 48.2029 82.2768 48.4501C82.2416 48.6619 82.2416 48.8737 82.2416 49.2229H78.8396C78.4207 49.2229 78.2445 49.1876 78.0331 49.1523C77.7865 49.117 77.5438 49.0463 77.0153 49.0463C76.5259 49.0463 76.3145 49.0463 76.0679 49.0816C75.8565 49.0816 75.6137 49.117 75.1909 49.117C74.7368 49.117 74.5254 49.117 74.314 49.0816C74.0674 49.0816 73.8246 49.0463 73.3666 49.0463C72.8772 49.0463 72.6306 49.0816 72.384 49.117C72.1726 49.1523 71.9651 49.1876 71.5423 49.1876C71.0882 49.1876 70.8415 49.1876 70.5949 49.2229C70.3835 49.2229 70.1408 49.2582 69.718 49.2582C69.2951 49.2582 69.0877 49.2229 68.8763 49.1876C68.6296 49.1523 68.3869 49.117 67.8936 49.117C67.4004 49.117 67.1929 49.117 66.9462 49.1523C66.7348 49.1523 66.4921 49.1876 66.0693 49.1876H63.4385C63.4385 49.0816 63.4385 48.9757 63.4737 48.8698C63.4737 48.6227 63.509 48.4148 63.509 47.9205V46.0572C63.509 45.6021 63.5442 45.3903 63.5442 45.1785C63.5794 44.9313 63.5794 44.6881 63.5794 44.1938C63.5794 43.6996 63.5442 43.4564 63.509 43.1739C63.4737 42.9621 63.4385 42.7503 63.4385 42.3305V38.6431C63.4385 38.1527 63.4385 37.9056 63.4033 37.6938C63.4033 37.4819 63.368 37.2387 63.368 36.8151C63.368 36.36 63.4033 36.1482 63.4033 35.9364C63.4385 35.6892 63.4385 35.446 63.4385 34.9517C63.4385 34.4575 63.4385 34.2143 63.4033 33.9671C63.4033 33.7553 63.368 33.5121 63.368 33.0884C63.368 32.6334 63.4033 32.4215 63.4033 32.1744C63.4385 31.9273 63.4385 31.6841 63.4385 31.2251C63.4385 30.7347 63.4033 30.4876 63.4033 30.2405C63.368 30.0286 63.368 29.8168 63.368 29.3618V27.4984C63.368 27.0434 63.368 26.8316 63.4033 26.5844C63.4033 26.3373 63.4385 26.1294 63.4385 25.6351C63.4385 25.1408 63.4385 24.8976 63.4033 24.6858C63.4033 24.474 63.368 24.2307 63.368 23.8071C63.368 23.3834 63.4033 23.1755 63.4385 22.9284C63.4737 22.6812 63.509 22.438 63.509 21.9438V20.0804C63.509 19.5901 63.4737 19.3429 63.4737 19.0958C63.4385 18.884 63.4385 18.6721 63.4385 18.2171C63.4385 17.7621 63.4385 17.5502 63.4737 17.3031C63.4737 17.056 63.509 16.8127 63.509 16.3538V14.5258C63.509 14.0354 63.509 13.7883 63.4737 13.5764C63.4737 13.3646 63.4385 13.1214 63.4385 12.6977V10.8344C63.4385 10.3441 63.4033 10.0969 63.4033 9.84979C63.368 9.63796 63.368 9.42613 63.368 8.97108C63.368 8.51604 63.368 8.30421 63.4033 8.05707C63.4033 7.80993 63.4385 7.56672 63.4385 7.10775C63.4385 6.6174 63.4033 6.33496 63.368 6.08783C63.368 5.98191 63.3328 5.84069 63.3328 5.70339C63.5442 5.70339 63.7517 5.7387 64.1745 5.7387C64.6286 5.7387 64.8753 5.7387 65.1219 5.70339C65.3333 5.70339 65.576 5.66809 65.9988 5.66809C66.4216 5.66809 66.6291 5.70339 66.8405 5.7387C67.0872 5.774 67.3299 5.80931 67.8232 5.80931C68.3164 5.80931 68.5592 5.774 68.8058 5.7387C69.0172 5.70339 69.2247 5.66809 69.6475 5.66809H71.4718C71.9259 5.66809 72.1373 5.66809 72.3487 5.70339C72.5954 5.70339 72.8029 5.7387 73.2961 5.7387H80.66C81.1494 5.7387 81.396 5.70339 81.6426 5.66809C81.8188 5.63278 81.995 5.63278 82.3082 5.63278V7.31959C82.3082 7.77463 82.3082 8.02177 82.3434 8.2689C82.3434 8.48073 82.3786 8.69256 82.3786 9.14761V10.9756C82.3786 11.4307 82.3786 11.6425 82.3434 11.8543C82.3434 12.1015 82.3082 12.3094 82.3082 12.7683C82.3082 13.1214 82.3082 13.3646 82.3434 13.6117L82.3473 13.6157ZM51.6626 46.5358V43.7937C51.6626 43.3034 51.6274 43.0562 51.5921 42.8091C51.5569 42.5973 51.5569 42.3854 51.5569 41.9304C51.5569 41.4753 51.5569 41.2635 51.5921 41.0517C51.5921 40.8046 51.6274 40.5966 51.6274 40.1024C51.6274 39.6081 51.5921 39.3649 51.5569 39.1531C51.5217 38.9412 51.5217 38.7294 51.5217 38.2743C51.5217 37.8507 51.5569 37.6428 51.5569 37.3956C51.5921 37.1485 51.6274 36.9053 51.6274 36.411V32.7942C51.6274 32.3705 51.6626 32.1273 51.6626 31.9155C51.6978 31.6684 51.6978 31.4252 51.6978 30.9662C51.6978 30.4758 51.6626 30.2287 51.6274 29.9816C51.5921 29.7697 51.5569 29.5579 51.5569 29.1382C51.5569 28.6831 51.5569 28.4713 51.5921 28.2595C51.5921 28.0123 51.6274 27.7691 51.6274 27.3101C51.6274 26.8865 51.6626 26.6786 51.6626 26.4667C51.6978 26.2196 51.7331 25.9764 51.7331 25.4821C51.7331 25.0271 51.7331 24.8152 51.7683 24.5681C51.7683 24.321 51.8035 24.1131 51.8035 23.6188V19.9667C51.8035 19.5116 51.8035 19.2645 51.7683 19.0174C51.7683 18.8055 51.7331 18.5623 51.7331 18.1033C51.7331 17.613 51.6978 17.3659 51.6626 17.1187C51.6274 16.9069 51.5921 16.6951 51.5921 16.2753C51.5921 15.8556 51.6274 15.6084 51.6274 15.3966C51.6626 15.1495 51.6626 14.9063 51.6626 14.4473C51.6626 13.957 51.6626 13.7451 51.6274 13.498C51.6274 13.2862 51.5921 13.0743 51.5921 12.6546C51.5921 12.2348 51.5921 11.9877 51.6274 11.7759C51.6274 11.5287 51.6626 11.2855 51.6626 10.8266V8.99854C51.6626 8.57488 51.6978 8.36697 51.7331 8.15514C51.7683 7.908 51.8035 7.66479 51.8035 7.17052V5.66024C52.1206 5.66024 52.3281 5.62494 52.5395 5.58963C52.7509 5.55433 52.9584 5.51902 53.3812 5.51902H55.2056C55.6597 5.51902 55.9063 5.51902 56.153 5.48372C56.3644 5.48372 56.6071 5.44841 57.0651 5.44841C57.484 5.44841 57.7306 5.48372 57.942 5.48372C58.1887 5.51902 58.4314 5.51902 58.8894 5.51902C59.3788 5.51902 59.5902 5.51902 59.8368 5.48372C60.0482 5.48372 60.291 5.44841 60.7138 5.44841H62.4676C62.4676 5.69555 62.5029 5.83285 62.5381 6.00937C62.5733 6.2212 62.6086 6.43303 62.6086 6.88808C62.6086 7.34312 62.6086 7.55495 62.5733 7.76678C62.5733 8.01392 62.5381 8.25713 62.5381 8.7514C62.5381 9.24568 62.5733 9.48889 62.5733 9.73603C62.6086 9.94786 62.6086 10.1597 62.6086 10.6147V12.4781C62.6086 12.9331 62.6086 13.1802 62.6438 13.4274C62.6438 13.6392 62.679 13.8824 62.679 14.3414V16.2047C62.679 16.6598 62.679 16.8716 62.6438 17.0834C62.6438 17.3306 62.6086 17.5738 62.6086 18.068C62.6086 18.5623 62.6438 18.7702 62.6438 19.0174C62.679 19.2292 62.679 19.4724 62.679 19.8961V21.7594C62.679 22.1831 62.6438 22.391 62.6086 22.6028C62.5733 22.8499 62.5381 23.0931 62.5381 23.6227C62.5381 24.0778 62.5381 24.3249 62.5733 24.572C62.5733 24.7839 62.6086 25.0271 62.6086 25.486C62.6086 25.945 62.6086 26.1529 62.5733 26.3647C62.5733 26.6119 62.5381 26.8551 62.5381 27.3141V29.1421C62.5381 29.6324 62.5733 29.8443 62.5733 30.0914C62.6086 30.3032 62.6086 30.5464 62.6086 31.0054C62.6086 31.4291 62.5733 31.6723 62.5733 31.8841C62.5381 32.1313 62.5381 32.3745 62.5381 32.8687C62.5381 33.3238 62.5381 33.5709 62.5733 33.8181C62.5733 34.0299 62.6086 34.2731 62.6086 34.7321C62.6086 35.1557 62.5733 35.3636 62.5733 35.6108C62.5381 35.8579 62.5029 36.1011 62.5029 36.5954C62.5029 37.0504 62.5029 37.2976 62.5381 37.5447C62.5381 37.7565 62.5733 37.9998 62.5733 38.4587V42.1461C62.5733 42.6365 62.6086 42.8836 62.6438 43.1308C62.679 43.3426 62.7143 43.5544 62.7143 44.0095C62.7143 44.4331 62.679 44.641 62.679 44.8882C62.6438 45.1353 62.6086 45.3785 62.6086 45.8728V47.7008C62.6086 48.1559 62.6086 48.3677 62.5733 48.5795C62.5733 48.6854 62.5733 48.7914 62.5381 48.9326H60.6785C60.1892 48.9326 59.9425 48.9679 59.6959 49.0032C59.4845 49.0385 59.277 49.0738 58.8542 49.0738C58.4001 49.0738 58.1887 49.0738 57.9773 49.0385C57.7306 49.0385 57.4879 49.0032 57.0299 49.0032C56.611 49.0032 56.3644 48.9679 56.153 48.9679C55.9063 48.9326 55.6636 48.9326 55.2056 48.9326C54.7162 48.9326 54.4343 48.9679 54.2229 49.0032C54.0115 49.0385 53.804 49.0738 53.3812 49.0738C52.9584 49.0738 52.7509 49.0385 52.5395 49.0385C52.3281 49.0032 52.1206 49.0032 51.6978 48.9679C51.6978 48.7561 51.7331 48.6148 51.7683 48.4422C51.8035 48.1951 51.874 47.9519 51.874 47.4576C51.6978 46.9986 51.6978 46.7907 51.6626 46.5436V46.5358Z" fill="#454138"/>
<path d="M83.3299 53.1418C83.3299 52.7181 82.9776 52.4396 82.4882 52.4396H78.8396C78.3855 52.4396 78.1388 52.4396 77.8922 52.4749C77.6808 52.4749 77.4381 52.5102 76.98 52.5102C76.5611 52.5102 76.3497 52.4749 76.1383 52.4749C75.8917 52.4396 75.649 52.4043 75.1557 52.4043C74.6624 52.4043 74.4549 52.4396 74.2083 52.4396C73.9969 52.4396 73.7542 52.4749 73.3314 52.4749C72.9086 52.4749 72.7011 52.4396 72.4897 52.4396C72.243 52.4043 72.0003 52.369 71.507 52.369C71.0138 52.369 70.771 52.4043 70.5596 52.4043C70.3482 52.4396 70.1408 52.4396 69.6827 52.4396H67.8584C67.4043 52.4396 67.1929 52.4396 66.9462 52.4043C66.6996 52.4043 66.4921 52.369 65.9988 52.369C65.5447 52.369 65.2981 52.369 65.0514 52.4043C64.84 52.4043 64.5973 52.4396 64.1745 52.4396C63.7517 52.4396 63.5794 52.4043 63.368 52.369C63.2271 52.3337 63.0862 52.3337 62.9492 52.2984C62.8082 52.2631 62.632 52.2631 62.3541 52.2631H60.5298C60.0404 52.2631 59.7938 52.2984 59.5824 52.2984C59.371 52.3337 59.1635 52.3337 58.7054 52.3337C58.2474 52.3337 58.0399 52.3337 57.8285 52.2984C57.5819 52.2984 57.3392 52.2631 56.8811 52.2631H55.0568C54.6027 52.2631 54.356 52.2631 54.1094 52.2984C53.898 52.2984 53.6553 52.3337 53.2325 52.3337H51.4081C51.0206 52.3337 50.5664 52.6867 50.5664 53.1418C50.5664 53.6321 50.6017 53.8793 50.6369 54.1264C50.6721 54.3382 50.6721 54.5501 50.6721 55.0051V62.3133C50.6721 62.7683 50.6721 62.9801 50.6369 63.192C50.6369 63.4391 50.6017 63.647 50.6017 64.1413V65.9693C50.6017 66.4597 50.6369 66.7068 50.6721 66.9186C50.7074 67.1305 50.7426 67.3423 50.7426 67.762C50.7426 68.1818 50.7074 68.3936 50.6721 68.6054C50.6369 68.8526 50.6017 69.0958 50.6017 69.59C50.6017 70.0451 50.6017 70.2922 50.6369 70.5394C50.6369 70.7512 50.6721 70.9944 50.6721 71.4181C50.6721 71.8731 50.6721 72.0849 50.6369 72.2968C50.6369 72.5439 50.6017 72.7518 50.6017 73.2461V75.0741C50.6017 75.5645 50.6017 75.7763 50.6369 76.0234C50.6369 76.2353 50.6721 76.4785 50.6721 76.9021C50.6721 77.3258 50.6369 77.569 50.6369 77.7808C50.6017 78.028 50.6017 78.2712 50.6017 78.7302C50.6017 79.1891 50.6017 79.4323 50.6369 79.6795C50.6369 79.8913 50.6721 80.1345 50.6721 80.5935V82.4568C50.6721 82.9472 50.7074 83.1943 50.7426 83.4414C50.7778 83.6533 50.8131 83.8651 50.8131 84.2848C50.8131 84.7399 50.8131 84.9517 50.7778 85.1635C50.7778 85.4107 50.7426 85.6539 50.7426 86.1129V87.9409C50.7426 88.3645 50.7074 88.5724 50.6721 88.7843C50.6369 89.0314 50.6017 89.2746 50.6017 89.7689V91.5969C50.6017 92.0206 50.6017 92.2638 50.5664 92.4756C50.5664 92.7228 50.5312 92.9307 50.5312 93.4249C50.5312 93.9192 50.5312 94.1271 50.5664 94.3743C50.5664 94.5861 50.6017 94.8293 50.6017 95.253C50.6017 95.6766 50.5664 95.9198 50.5664 96.1317C50.5312 96.3788 50.5312 96.622 50.5312 97.081C50.5312 97.5046 50.9188 97.8185 51.4081 97.8185C51.8623 97.8185 52.1089 97.8185 52.3555 97.7832C52.5669 97.7832 52.8097 97.7479 53.2325 97.7479H56.8811C57.3352 97.7479 57.5466 97.7479 57.7933 97.7832C58.0399 97.7832 58.2474 97.8185 58.7407 97.8185C59.1596 97.8185 59.371 97.8538 59.6176 97.8538C59.8642 97.8891 60.107 97.8891 60.6002 97.8891C61.0544 97.8891 61.2658 97.8891 61.4772 97.9244C61.7238 97.9244 61.9313 97.9597 62.4246 97.9597H62.7064C62.7769 97.995 62.8474 98.0303 62.9531 98.0303C63.0588 98.0303 63.1645 97.995 63.2702 97.9244C63.3054 97.9244 63.3759 97.9244 63.4111 97.8891C63.6577 97.8538 63.83 97.8185 64.288 97.8185C64.7069 97.8185 64.9536 97.8538 65.165 97.8538C65.4116 97.8891 65.6543 97.8891 66.1124 97.8891H69.761C70.1799 97.8891 70.3913 97.9244 70.6027 97.9244C70.8493 97.9597 71.0921 97.995 71.5853 97.995C72.0786 97.995 72.3213 97.9597 72.568 97.9244C72.7794 97.8891 72.9869 97.8538 73.4097 97.8538C73.8638 97.8538 74.0752 97.8538 74.2866 97.8891C74.5332 97.8891 74.7407 97.9244 75.234 97.9244C75.7273 97.9244 75.97 97.8891 76.2166 97.8891C76.428 97.8538 76.6355 97.8538 77.0936 97.8538H80.7422C81.1611 97.8538 81.3373 97.8891 81.5487 97.9244C81.7953 97.9597 82.038 98.0303 82.5665 98.0303C82.9854 98.0303 83.2673 97.6772 83.2673 97.1516C83.2673 96.7279 83.3025 96.52 83.3025 96.2729C83.3378 96.0257 83.373 95.7825 83.373 95.2883C83.373 94.794 83.3378 94.5508 83.3025 94.3036C83.2673 94.0918 83.2321 93.88 83.2321 93.4602C83.2321 93.0052 83.2321 92.7934 83.2673 92.5815C83.2673 92.3344 83.3025 92.0912 83.3025 91.6322C83.3025 91.1733 83.3025 90.9654 83.3378 90.7535C83.3378 90.5064 83.373 90.2632 83.373 89.8042C83.373 89.3139 83.3378 89.0667 83.3025 88.8549C83.2673 88.6431 83.2321 88.4312 83.2321 88.0115V86.1835C83.2321 85.7284 83.2321 85.5166 83.2673 85.2695C83.2673 85.0223 83.3025 84.8144 83.3025 84.3201V82.4921C83.3025 82.0371 83.3025 81.7899 83.2673 81.5781C83.2673 81.3663 83.2321 81.1231 83.2321 80.6994C83.2321 80.2757 83.2673 80.0678 83.3025 79.856C83.3378 79.6089 83.373 79.3656 83.373 78.8714C83.373 78.4163 83.373 78.1692 83.3378 77.9221C83.3378 77.7102 83.3025 77.467 83.3025 77.008C83.3025 76.5177 83.2673 76.2706 83.2321 76.0234C83.1968 75.8116 83.1616 75.5998 83.1616 75.18C83.1616 74.7603 83.1968 74.5132 83.1968 74.3013C83.2321 74.0542 83.2321 73.811 83.2321 73.352C83.2321 72.8617 83.1968 72.6145 83.1968 72.3674C83.1616 72.1556 83.1616 71.9437 83.1616 71.4887C83.1616 71.065 83.1968 70.8924 83.2321 70.6453C83.2673 70.3981 83.3378 70.1549 83.3378 69.6254V65.9732C83.3378 65.4829 83.3025 65.2357 83.2673 64.9886C83.2321 64.7768 83.2321 64.5649 83.2321 64.1099C83.2321 63.6549 83.2673 63.4783 83.2673 63.2312C83.3025 62.9841 83.3378 62.7408 83.3378 62.2466C83.3378 61.7915 83.3025 61.5444 83.2673 61.2973C83.2321 61.0854 83.2321 60.8736 83.2321 60.4186V58.5905C83.2321 58.1355 83.2321 57.9237 83.2673 57.7118C83.2673 57.4647 83.3025 57.2215 83.3025 56.7625V54.9345C83.3025 54.5108 83.3378 54.3029 83.3378 54.0558C83.3025 53.8832 83.3378 53.636 83.3378 53.1457L83.3299 53.1418ZM78.8748 96.7829H77.0505C76.5611 96.7829 76.3145 96.8182 76.0679 96.8182C75.8565 96.8535 75.649 96.8535 75.1909 96.8535C74.7329 96.8535 74.5254 96.8535 74.2788 96.8182C74.0321 96.8182 73.8246 96.7829 73.3314 96.7829C72.8381 96.7829 72.5954 96.8182 72.3487 96.8535C72.1373 96.8888 71.9298 96.9241 71.507 96.9241C71.0842 96.9241 70.8767 96.8888 70.6653 96.8888C70.4187 96.8535 70.176 96.8182 69.6827 96.8182H66.0341C65.6152 96.8182 65.3685 96.7829 65.1571 96.7829C64.9105 96.7475 64.6678 96.7475 64.2097 96.7475C63.8222 96.7475 63.5794 96.7829 63.368 96.7829V93.727C63.368 93.3033 63.4033 93.0954 63.4385 92.8836C63.4737 92.6365 63.5442 92.3932 63.5442 91.8637C63.5442 91.3341 63.509 91.0909 63.4385 90.8437C63.4033 90.6319 63.368 90.4201 63.368 90.0003C63.368 89.5453 63.4033 89.3335 63.4033 89.1216C63.4385 88.8745 63.4737 88.6313 63.4737 88.137C63.4737 87.6114 63.4385 87.3642 63.4033 87.1171C63.368 86.9053 63.3328 86.6934 63.3328 86.2737C63.3328 85.8186 63.368 85.6068 63.368 85.395C63.4033 85.1478 63.4033 84.9046 63.4033 84.4457C63.4033 83.9867 63.4033 83.7788 63.4385 83.5317C63.4385 83.2845 63.4737 83.0413 63.4737 82.5823C63.4737 82.092 63.4385 81.8449 63.4033 81.5624C63.368 81.3506 63.3328 81.1388 63.3328 80.719V78.8557C63.3328 78.4006 63.3328 78.1888 63.368 77.9417C63.368 77.6945 63.4033 77.4866 63.4033 76.9924V75.129C63.4033 74.6387 63.4033 74.3915 63.368 74.1444C63.368 73.9326 63.3328 73.6894 63.3328 73.2657C63.3328 72.842 63.368 72.6341 63.4033 72.387C63.4385 72.1399 63.4737 71.8966 63.4737 71.4024C63.4737 70.9081 63.4737 70.6649 63.4385 70.4531C63.4385 70.2412 63.4033 69.998 63.4033 69.5744C63.4033 69.084 63.368 68.8369 63.3328 68.5544C63.2976 68.3426 63.2623 68.1308 63.2623 67.711C63.2623 67.256 63.2623 67.0442 63.2976 66.797C63.2976 66.5499 63.3328 66.3067 63.3328 65.8477C63.3328 65.3573 63.2976 65.1102 63.2976 64.8631C63.2623 64.6512 63.2623 64.4394 63.2623 63.9844C63.2623 63.5607 63.2976 63.3528 63.3328 63.141C63.368 62.8938 63.4385 62.6506 63.4385 62.121V58.3983C63.4385 57.908 63.4033 57.6608 63.368 57.4137C63.3328 57.2019 63.3328 56.99 63.3328 56.535C63.3328 56.1113 63.368 55.8681 63.368 55.6563C63.4033 55.4091 63.4385 55.1659 63.4385 54.6717C63.4385 54.1774 63.4033 53.9342 63.368 53.687C63.368 53.5458 63.3328 53.4046 63.3328 53.1967C63.509 53.232 63.7517 53.232 64.1393 53.232C64.5934 53.232 64.84 53.232 65.0867 53.1967C65.2981 53.1967 65.5408 53.1614 65.9988 53.1614C66.4569 53.1614 66.6644 53.1614 66.8758 53.1967C67.1224 53.1967 67.3299 53.232 67.8232 53.232H69.6475C70.1368 53.232 70.3835 53.1967 70.6301 53.1967C70.8415 53.1614 71.049 53.1614 71.507 53.1614C71.9259 53.1614 72.1373 53.1967 72.3487 53.1967C72.5954 53.232 72.8381 53.2673 73.3314 53.2673C73.8246 53.2673 74.0321 53.232 74.2788 53.232C74.4902 53.232 74.7329 53.1967 75.1557 53.1967C75.5785 53.1967 75.786 53.232 75.9974 53.232C76.244 53.2673 76.4867 53.3026 76.98 53.3026C77.4341 53.3026 77.6808 53.3026 77.9274 53.2673C78.1388 53.2673 78.3815 53.232 78.8043 53.232H82.2768C82.2768 53.4791 82.2416 53.6557 82.2416 53.8283C82.2064 54.0754 82.1711 54.3186 82.1711 54.8129V56.6056C82.1711 57.0606 82.1711 57.2725 82.1359 57.4843C82.1359 57.7314 82.1007 57.9747 82.1007 58.4336V60.2263C82.1007 60.7167 82.1359 60.9638 82.1711 61.211C82.2064 61.4228 82.2064 61.6346 82.2064 62.0544C82.2064 62.4741 82.1711 62.6859 82.1711 62.9331C82.1359 63.1802 82.1007 63.4234 82.1007 63.9177C82.1007 64.412 82.1359 64.6552 82.1711 64.9023C82.2064 65.1141 82.2064 65.326 82.2064 65.781V69.4331C82.2064 69.8568 82.1711 70.0294 82.1359 70.2765C82.1007 70.5237 82.0302 70.7669 82.0302 71.2965C82.0302 71.7868 82.0654 71.9986 82.0654 72.2458C82.1007 72.4576 82.1007 72.7008 82.1007 73.1245C82.1007 73.5481 82.0654 73.7561 82.0654 74.0032C82.0302 74.2503 82.0302 74.4935 82.0302 74.9525C82.0302 75.4429 82.0654 75.69 82.1007 75.9371C82.1359 76.149 82.1711 76.3608 82.1711 76.7805C82.1711 77.2356 82.1711 77.4827 82.2064 77.7298C82.2064 77.9417 82.2416 78.1849 82.2416 78.6439C82.2416 79.0675 82.2064 79.2754 82.1711 79.4873C82.1359 79.7344 82.1007 79.9776 82.1007 80.4719C82.1007 80.9661 82.1007 81.1741 82.1359 81.4212C82.1359 81.633 82.1711 81.8449 82.1711 82.2999V84.1279C82.1711 84.583 82.1711 84.7948 82.1359 85.0419C82.1359 85.2891 82.1007 85.497 82.1007 85.9912V87.8546C82.1007 88.3449 82.1359 88.5921 82.1711 88.8392C82.2064 89.051 82.2416 89.2629 82.2416 89.6826C82.2416 90.1376 82.2416 90.3495 82.2064 90.5613C82.2064 90.8084 82.1711 91.0516 82.1711 91.5106C82.1711 91.9696 82.1711 92.1775 82.1359 92.3893C82.1359 92.6365 82.1007 92.8797 82.1007 93.3386C82.1007 93.829 82.1359 94.0761 82.1711 94.3233C82.2064 94.5351 82.2416 94.7469 82.2416 95.1667C82.2416 95.5864 82.2064 95.7982 82.2064 96.0454C82.1711 96.2572 82.1711 96.469 82.1359 96.8888C81.9245 96.8888 81.7836 96.8535 81.6113 96.8182C81.3647 96.7828 81.1219 96.7122 80.5934 96.7122H79.6813C79.5403 96.7829 79.3289 96.7829 78.8748 96.7829ZM51.5217 96.8182C51.5217 96.5357 51.5569 96.3631 51.5569 96.2219C51.5921 95.9748 51.5921 95.7315 51.5921 95.2726C51.5921 94.7822 51.5921 94.5704 51.5569 94.3233C51.5569 94.1114 51.5217 93.8682 51.5217 93.4446C51.5217 92.9895 51.5217 92.7777 51.5569 92.5305C51.5569 92.2834 51.5921 92.0755 51.5921 91.6165V89.8238C51.5921 89.4002 51.6274 89.1922 51.6626 88.9804C51.6978 88.7333 51.7331 88.4901 51.7331 87.9958V86.1678C51.7331 85.7127 51.7331 85.5009 51.7683 85.2891C51.7683 85.0419 51.8035 84.7987 51.8035 84.3397C51.8035 83.8494 51.7683 83.6023 51.7331 83.3551C51.6978 83.1433 51.6626 82.9315 51.6626 82.5117V80.6837C51.6626 80.2287 51.6626 79.9815 51.6274 79.7344C51.6274 79.5226 51.5921 79.2793 51.5921 78.8204C51.5921 78.3967 51.6274 78.1535 51.6274 77.9417C51.6626 77.6945 51.6626 77.4513 51.6626 76.9924C51.6626 76.502 51.6626 76.2902 51.6274 76.043C51.6274 75.8312 51.5921 75.588 51.5921 75.1643V73.3363C51.5921 72.8813 51.5921 72.6694 51.6274 72.4576C51.6274 72.2105 51.6626 72.0026 51.6626 71.5083C51.6626 71.014 51.6626 70.8061 51.6274 70.559C51.6274 70.3471 51.5921 70.1039 51.5921 69.6803C51.5921 69.2566 51.6274 69.0487 51.6626 68.8369C51.6978 68.5897 51.7331 68.3465 51.7331 67.8522C51.7331 67.358 51.6978 67.1148 51.6626 66.8676C51.6274 66.6558 51.5921 66.444 51.5921 66.0242V64.1962C51.5921 63.7412 51.5921 63.5293 51.6274 63.3175C51.6274 63.0704 51.6626 62.8625 51.6626 62.3682V55.06C51.6626 54.5697 51.6274 54.3225 51.5921 54.0754C51.5569 53.8989 51.5569 53.7223 51.5569 53.4085H53.2403C53.6944 53.4085 53.941 53.4085 54.1877 53.3732C54.3991 53.3732 54.6418 53.3379 55.0998 53.3379H56.9242C57.3783 53.3379 57.5897 53.3379 57.8011 53.3732C58.0477 53.3732 58.2905 53.4085 58.7485 53.4085C59.2379 53.4085 59.4493 53.3732 59.6959 53.3732C59.9073 53.3379 60.1148 53.3379 60.5728 53.3379H62.3972C62.3972 53.6557 62.4324 53.8283 62.4324 54.0401C62.4676 54.2519 62.4676 54.4951 62.4676 54.9188C62.4676 55.3425 62.4324 55.5504 62.4324 55.7975C62.3972 56.0446 62.3619 56.2878 62.3619 56.7821C62.3619 57.2764 62.3972 57.5196 62.3972 57.7667C62.4324 57.9786 62.4324 58.2218 62.4324 58.6454V62.3329C62.4324 62.7565 62.3972 62.9291 62.3619 63.1763C62.3267 63.4234 62.2562 63.7019 62.2562 64.1962C62.2562 64.6905 62.2915 64.8984 62.2915 65.1455C62.3267 65.3574 62.3267 65.6006 62.3267 66.0242C62.3267 66.4793 62.3267 66.6911 62.2915 66.9029C62.2915 67.1501 62.2562 67.3933 62.2562 67.8876C62.2562 68.3818 62.2915 68.625 62.3267 68.8722C62.3619 69.084 62.3972 69.2958 62.3972 69.7509C62.3972 70.2059 62.3972 70.4531 62.4324 70.7002C62.4324 70.912 62.4676 71.1552 62.4676 71.6142C62.4676 72.0379 62.4324 72.2458 62.3972 72.4576C62.3619 72.7047 62.3267 72.948 62.3267 73.4775C62.3267 73.9326 62.3267 74.1797 62.3619 74.4268C62.3619 74.6387 62.3972 74.8819 62.3972 75.3409V77.2042C62.3972 77.6592 62.3972 77.8711 62.3619 78.0829C62.3619 78.33 62.3267 78.5732 62.3267 79.0322V80.8955C62.3267 81.3859 62.3619 81.633 62.3972 81.8802C62.4324 82.092 62.4676 82.3038 62.4676 82.7589C62.4676 83.2139 62.4676 83.4257 62.4324 83.6376C62.4324 83.8847 62.3972 84.1279 62.3972 84.6222C62.3972 85.0459 62.3619 85.2891 62.3619 85.5009C62.3267 85.748 62.3267 85.9912 62.3267 86.4855C62.3267 86.9798 62.3619 87.223 62.3972 87.4701C62.4324 87.682 62.4676 87.8938 62.4676 88.3488C62.4676 88.7725 62.4324 88.9804 62.4324 89.2276C62.3972 89.4747 62.3619 89.7179 62.3619 90.2122C62.3619 90.7064 62.3972 90.985 62.4676 91.2321C62.5029 91.4439 62.5381 91.6558 62.5381 92.0755C62.5381 92.4952 62.5029 92.6718 62.4676 92.8836C62.4324 93.1307 62.3619 93.4092 62.3619 93.9388V97.0653C61.9078 97.0653 61.6964 97.0653 61.485 97.03C61.2384 97.03 61.0309 96.9947 60.5376 96.9947C60.1187 96.9947 59.9073 96.9594 59.6607 96.9594C59.414 96.9241 59.1713 96.9241 58.678 96.9241C58.2239 96.9241 58.0125 96.9241 57.8011 96.8888C57.5545 96.8888 57.347 96.8535 56.8537 96.8535H53.2051C52.7509 96.8535 52.5043 96.8535 52.2577 96.8888C52.0815 96.8182 51.8701 96.8182 51.5217 96.8182Z" fill="#454138"/>
<path d="M118.536 53.1064C118.536 52.6828 118.184 52.4043 117.659 52.4043C117.24 52.4043 117.029 52.3689 116.818 52.3689C116.571 52.3336 116.328 52.2983 115.835 52.2983C115.342 52.2983 115.064 52.3336 114.852 52.3689C114.641 52.4043 114.434 52.4396 114.011 52.4396C113.588 52.4396 113.345 52.4043 113.134 52.4043C112.887 52.3689 112.644 52.3689 112.186 52.3689C111.728 52.3689 111.521 52.3689 111.309 52.3336C111.063 52.3336 110.82 52.2983 110.362 52.2983C109.873 52.2983 109.626 52.3336 109.379 52.3689C109.168 52.4043 108.961 52.4396 108.538 52.4396H106.713C106.259 52.4396 106.048 52.4396 105.836 52.4043C105.59 52.4043 105.382 52.3689 104.889 52.3689H103.03C102.54 52.3689 102.329 52.4043 102.082 52.4043C101.871 52.4043 101.628 52.4396 101.205 52.4396C100.782 52.4396 100.575 52.4043 100.364 52.3689C100.117 52.3336 99.8741 52.2983 99.3809 52.2983C98.8563 52.2983 98.6096 52.2983 98.3278 52.3336H97.5565C97.0672 52.3336 96.8206 52.3689 96.5739 52.4043C96.3625 52.4396 96.155 52.4749 95.7322 52.4749C95.2781 52.4749 95.0667 52.4749 94.8553 52.4396C94.6087 52.4396 94.3659 52.4043 93.9079 52.4043C93.4499 52.4043 93.2071 52.4043 92.9605 52.4396C92.7491 52.4396 92.5064 52.4749 92.0836 52.4749C91.6608 52.4749 91.4885 52.4396 91.2419 52.4043C90.9952 52.3689 90.7525 52.2983 90.224 52.2983H86.5754C86.1565 52.2983 85.8394 52.6514 85.8394 53.1064C85.8394 53.5301 85.8041 53.738 85.8041 53.9851C85.7689 54.2323 85.7337 54.4755 85.7337 54.9698C85.7337 55.464 85.7689 55.7072 85.8041 55.9544C85.8394 56.1662 85.8394 56.378 85.8394 56.8331V58.6611C85.8394 59.1162 85.8394 59.328 85.8041 59.5398C85.8041 59.787 85.7689 59.9949 85.7689 60.4891V62.3525C85.7689 62.7761 85.7337 62.984 85.7337 63.2312C85.6984 63.4783 85.6632 63.7215 85.6632 64.2158C85.6632 64.7101 85.6984 64.9533 85.7337 65.2004C85.7689 65.4122 85.8041 65.6241 85.8041 66.0438V69.6959C85.8041 70.151 85.8041 70.3981 85.8394 70.6452C85.8394 70.8571 85.8746 71.1003 85.8746 71.5593C85.8746 71.9829 85.8394 72.1908 85.8394 72.438C85.8041 72.6851 85.7689 72.9283 85.7689 73.4226C85.7689 73.8776 85.7689 74.1248 85.8041 74.3719C85.8041 74.5837 85.8394 74.8269 85.8394 75.2506C85.8394 75.6743 85.8041 75.8822 85.8041 76.1293C85.7689 76.3764 85.7337 76.6197 85.7337 77.1139C85.7337 77.6082 85.7689 77.8514 85.7689 78.0632C85.8041 78.2751 85.8041 78.4869 85.8041 78.942C85.8041 79.397 85.8041 79.6441 85.8394 79.8913C85.8394 80.1031 85.8746 80.3463 85.8746 80.8053C85.8746 81.2642 85.8746 81.4722 85.8394 81.7193C85.8394 81.9664 85.8041 82.1743 85.8041 82.6686C85.8041 83.1629 85.8041 83.3708 85.8394 83.6179C85.8394 83.8298 85.8746 84.073 85.8746 84.5319C85.8746 84.9556 85.8394 85.1635 85.8041 85.3753C85.7689 85.6225 85.7337 85.8657 85.7337 86.36V88.188C85.7337 88.6783 85.7689 88.8902 85.7689 89.1373C85.8041 89.3491 85.8041 89.561 85.8041 90.016C85.8041 90.4397 85.8041 90.6476 85.7689 90.8947C85.7689 91.1418 85.7337 91.3851 85.7337 91.844V93.6367C85.7337 94.0918 85.7337 94.3389 85.7689 94.5861C85.7689 94.7979 85.8041 95.0411 85.8041 95.5001V97.3281C85.8041 97.7125 86.1565 98.1715 86.6106 98.1715C87.0999 98.1715 87.3466 98.1362 87.5932 98.1009C87.8046 98.0656 88.0121 98.0656 88.4701 98.0656H95.7635C96.2177 98.0656 96.4291 98.0656 96.6405 98.1009C96.8871 98.1009 97.0946 98.1362 97.5879 98.1362H97.8697C97.9754 98.2068 98.0811 98.2774 98.1868 98.2774C98.2925 98.2774 98.4335 98.2421 98.5039 98.1362H99.3456C99.835 98.1362 100.082 98.1009 100.328 98.0656C100.54 98.0303 100.747 97.995 101.17 97.995C101.593 97.995 101.8 98.0303 102.012 98.0656C102.258 98.1009 102.501 98.1362 102.994 98.1362C103.448 98.1362 103.695 98.1362 103.942 98.1009C104.153 98.1009 104.396 98.0656 104.819 98.0656C105.273 98.0656 105.484 98.0656 105.696 98.1009C105.942 98.1009 106.15 98.1362 106.643 98.1362H108.467C108.957 98.1362 109.168 98.1362 109.415 98.1009C109.626 98.1009 109.869 98.0656 110.292 98.0656C110.714 98.0656 110.957 98.1009 111.169 98.1009C111.415 98.1362 111.658 98.1362 112.116 98.1362C112.574 98.1362 112.817 98.1362 113.063 98.1009C113.275 98.1009 113.517 98.0656 113.975 98.0656H115.8C116.289 98.0656 116.536 98.0303 116.782 97.995C116.994 97.9597 117.201 97.9244 117.624 97.9244C118.325 97.9244 118.36 97.3987 118.36 97.2575C118.36 96.8024 118.36 96.5553 118.325 96.3082C118.325 96.0963 118.29 95.8531 118.29 95.4295C118.29 95.0058 118.325 94.7979 118.36 94.5861C118.395 94.3389 118.431 94.0957 118.431 93.6014V91.7734C118.431 91.3184 118.431 91.1065 118.466 90.8594C118.466 90.6123 118.501 90.4044 118.501 89.9101C118.501 89.455 118.501 89.2079 118.466 88.9961C118.466 88.7842 118.431 88.541 118.431 88.1174C118.431 87.6937 118.466 87.4505 118.466 87.2387C118.501 86.9915 118.501 86.7483 118.501 86.2893C118.501 85.799 118.466 85.5519 118.431 85.3047C118.395 85.0929 118.36 84.8811 118.36 84.4613C118.36 84.0063 118.36 83.7591 118.325 83.512C118.325 83.3002 118.29 83.057 118.29 82.6333V79.0165C118.29 78.5614 118.29 78.3496 118.325 78.1378C118.325 77.8906 118.36 77.6827 118.36 77.1885C118.36 76.7648 118.395 76.5569 118.395 76.3098C118.431 76.0626 118.466 75.8194 118.466 75.3251C118.466 74.8701 118.466 74.6583 118.501 74.4464C118.501 74.1993 118.536 73.9914 118.536 73.4971C118.536 73.0028 118.501 72.7243 118.466 72.4772C118.431 72.2654 118.395 72.0535 118.395 71.6338C118.395 71.214 118.431 70.9669 118.431 70.7551C118.466 70.5079 118.466 70.2647 118.466 69.8058V66.1536C118.466 65.73 118.501 65.5221 118.501 65.2749C118.536 65.0278 118.572 64.7846 118.572 64.2903C118.572 63.796 118.536 63.5528 118.501 63.3057C118.466 63.0939 118.431 62.882 118.431 62.4623C118.431 62.0426 118.431 61.7954 118.466 61.5836C118.466 61.3365 118.501 61.1285 118.501 60.6343C118.501 60.14 118.466 59.9321 118.431 59.685C118.395 59.4731 118.395 59.2613 118.395 58.8063V55.1541C118.395 54.7305 118.431 54.5579 118.466 54.346C118.466 53.8871 118.536 53.6439 118.536 53.1143V53.1064ZM117.448 66.8441V69.5861C117.448 70.0098 117.413 70.253 117.413 70.4648C117.378 70.7119 117.378 70.9551 117.378 71.4141C117.378 71.9045 117.413 72.1516 117.448 72.3987C117.483 72.6106 117.518 72.8224 117.518 73.2421C117.518 73.6619 117.518 73.909 117.483 74.1208C117.483 74.368 117.448 74.6112 117.448 75.0702C117.448 75.4938 117.413 75.7017 117.413 75.9489C117.378 76.196 117.342 76.4392 117.342 76.9335C117.342 77.3885 117.342 77.6004 117.307 77.8122C117.307 78.0593 117.272 78.2672 117.272 78.7615V82.4136C117.272 82.8687 117.272 83.1158 117.307 83.3629C117.307 83.5748 117.342 83.818 117.342 84.2416C117.342 84.732 117.378 84.9791 117.413 85.2263C117.448 85.4381 117.483 85.6499 117.483 86.0697C117.483 86.4894 117.448 86.7012 117.448 86.9484C117.413 87.1955 117.413 87.4387 117.413 87.8977C117.413 88.388 117.413 88.5999 117.448 88.847C117.448 89.0588 117.483 89.2707 117.483 89.7257C117.483 90.1808 117.483 90.3926 117.448 90.6397C117.448 90.8869 117.413 91.0948 117.413 91.589V93.4171C117.413 93.8407 117.377 94.0486 117.342 94.2605C117.307 94.5076 117.272 94.7508 117.272 95.2451C117.272 95.7001 117.272 95.9473 117.307 96.1944V96.7907C116.99 96.7907 116.782 96.826 116.571 96.8613C116.36 96.8966 116.152 96.9319 115.729 96.9319H113.905C113.451 96.9319 113.204 96.9319 112.958 96.9672C112.746 96.9672 112.503 97.0025 112.081 97.0025C111.658 97.0025 111.415 96.9672 111.204 96.9672C110.957 96.9319 110.714 96.9319 110.256 96.9319C109.798 96.9319 109.556 96.9319 109.309 96.9672C109.098 96.9672 108.855 97.0025 108.432 97.0025H106.608C106.154 97.0025 105.942 97.0025 105.696 96.9672C105.449 96.9672 105.241 96.9319 104.748 96.9319C104.294 96.9319 104.047 96.9319 103.801 96.9672C103.589 96.9672 103.347 97.0025 102.889 97.0025C102.47 97.0025 102.258 96.9672 102.047 96.9319C101.8 96.8966 101.558 96.8613 101.064 96.8613C100.571 96.8613 100.328 96.8966 100.082 96.9319C99.8702 96.9672 99.6627 97.0025 99.2399 97.0025H98.5392C98.5392 96.8613 98.5392 96.7554 98.5039 96.6494C98.4687 96.4376 98.4687 96.2258 98.4687 95.7707C98.4687 95.3157 98.5039 95.1039 98.5039 94.892C98.5392 94.6449 98.5744 94.4017 98.5744 93.9074C98.5744 93.4131 98.5744 93.1699 98.5392 92.9228C98.5392 92.711 98.5039 92.4677 98.5039 92.0441C98.5039 91.589 98.5039 91.3772 98.5392 91.1301C98.5392 90.8829 98.5744 90.6397 98.5744 90.1808C98.5744 89.6904 98.5392 89.408 98.5039 89.1608C98.4687 88.949 98.4335 88.7372 98.4335 88.3174C98.4335 87.8977 98.4687 87.6859 98.5039 87.474C98.5392 87.2269 98.6096 86.9837 98.6096 86.4541V84.5908C98.6096 84.1004 98.6096 83.8533 98.5744 83.6062C98.5744 83.3943 98.5392 83.1511 98.5392 82.7274C98.5392 82.2371 98.5039 81.99 98.4687 81.7075C98.4335 81.4957 98.3982 81.2839 98.3982 80.8641V79.0008C98.3982 78.5771 98.4335 78.3692 98.4687 78.1221C98.5039 77.875 98.5392 77.6317 98.5392 77.1375C98.5392 76.6432 98.5039 76.4 98.4687 76.1528C98.4335 75.941 98.4335 75.7292 98.4335 75.2741V67.8954C98.4335 67.4403 98.4335 67.1932 98.4687 66.9814C98.4687 66.7342 98.5039 66.5263 98.5039 66.032V64.1687C98.5039 63.6784 98.4687 63.4312 98.4335 63.1488C98.3982 62.937 98.363 62.7251 98.363 62.3054C98.363 61.8856 98.3982 61.6738 98.4335 61.4267C98.4687 61.1795 98.5039 60.9363 98.5039 60.4421C98.5039 59.9478 98.5039 59.7046 98.4687 59.4927C98.4687 59.2809 98.4335 59.0377 98.4335 58.614C98.4335 58.159 98.4335 57.9119 98.4687 57.7C98.4687 57.4529 98.5039 57.245 98.5039 56.7507V54.9227C98.5039 54.4323 98.5039 54.1852 98.4687 53.9381C98.4687 53.7615 98.4335 53.6203 98.4335 53.3771H99.2047C99.6236 53.3771 99.835 53.4124 100.046 53.4477C100.293 53.483 100.536 53.5183 101.029 53.5183C101.522 53.5183 101.73 53.483 101.976 53.483C102.188 53.483 102.431 53.4477 102.853 53.4477H104.678C105.132 53.4477 105.343 53.4477 105.555 53.483C105.801 53.483 106.009 53.5183 106.502 53.5183H108.326C108.816 53.5183 109.062 53.483 109.309 53.4477C109.52 53.4124 109.728 53.3771 110.151 53.3771C110.605 53.3771 110.816 53.3771 111.028 53.4124C111.274 53.4124 111.517 53.4477 111.975 53.4477C112.394 53.4477 112.641 53.483 112.852 53.483C113.099 53.5183 113.341 53.5183 113.835 53.5183C114.328 53.5183 114.606 53.483 114.817 53.4477C115.029 53.4124 115.236 53.3771 115.659 53.3771C116.082 53.3771 116.289 53.4124 116.501 53.4124C116.712 53.4477 116.919 53.4477 117.342 53.483C117.342 53.6949 117.307 53.8361 117.272 54.0087C117.237 54.2558 117.166 54.499 117.166 55.0286V58.6454C117.166 59.1358 117.201 59.3829 117.237 59.63C117.272 59.8419 117.272 60.0537 117.272 60.4734C117.272 60.9285 117.272 61.1403 117.237 61.3875C117.237 61.6346 117.201 61.8425 117.201 62.3015C117.201 62.7918 117.237 63.0389 117.272 63.2861C117.307 63.4979 117.342 63.7097 117.342 64.1295C117.342 64.5492 117.307 64.7611 117.307 65.0082C117.272 65.2553 117.237 65.4985 117.237 65.9928C117.448 66.3812 117.448 66.593 117.448 66.8362V66.8441ZM86.6967 94.3193C86.6967 94.1075 86.6615 93.8643 86.6615 93.4053V91.5773C86.6615 91.1222 86.6615 90.9104 86.6967 90.6986C86.6967 90.4514 86.7319 90.2435 86.7319 89.7846C86.7319 89.2942 86.6967 89.0471 86.6967 88.8352C86.6615 88.6234 86.6615 88.4116 86.6615 87.9565V86.1285C86.6615 85.7048 86.6967 85.4969 86.7319 85.2851C86.7672 85.038 86.8024 84.7948 86.8024 84.3005C86.8024 83.8454 86.8024 83.5983 86.7672 83.3512C86.7672 83.1393 86.7319 82.8961 86.7319 82.4372C86.7319 81.9782 86.732 81.7703 86.7672 81.5232C86.7672 81.276 86.8024 81.0681 86.8024 80.5738C86.8024 80.1188 86.8024 79.8717 86.7672 79.6245C86.7672 79.4127 86.7319 79.1695 86.7319 78.7105C86.7319 78.2202 86.6967 77.973 86.6967 77.7612C86.6615 77.5494 86.6615 77.3375 86.6615 76.8825C86.6615 76.4588 86.6967 76.2509 86.6967 76.0038C86.732 75.7566 86.7672 75.5134 86.7672 75.0192C86.7672 74.5249 86.7672 74.317 86.7319 74.0698C86.7319 73.858 86.6967 73.6462 86.6967 73.1911C86.6967 72.7675 86.7319 72.5596 86.7319 72.3124C86.7672 72.0653 86.8024 71.8221 86.8024 71.3278C86.8024 70.8728 86.8024 70.6256 86.7672 70.3785C86.7672 70.1667 86.7319 69.9235 86.7319 69.4645V65.8477C86.7319 65.3573 86.6967 65.1102 86.6615 64.863C86.6262 64.6512 86.591 64.4394 86.591 64.0196C86.591 63.5999 86.6262 63.3881 86.6262 63.1409C86.6615 62.8938 86.6967 62.6506 86.6967 62.1563V60.3283C86.6967 59.9046 86.6967 59.6614 86.7319 59.4496C86.7319 59.2025 86.7672 58.9592 86.7672 58.5003V56.6723C86.7672 56.1819 86.732 55.9348 86.6967 55.6876C86.6615 55.4758 86.6615 55.264 86.6615 54.8089C86.6615 54.3853 86.6967 54.1774 86.6967 53.9302C86.732 53.7184 86.732 53.5066 86.7672 53.1574H90.1692C90.5881 53.1574 90.7643 53.1927 91.0109 53.228C91.2575 53.2633 91.5003 53.334 92.0288 53.334C92.5181 53.334 92.7295 53.334 92.9762 53.2987C93.1876 53.2987 93.4303 53.2633 93.8531 53.2633C94.3072 53.2633 94.5186 53.2633 94.73 53.2987C94.9767 53.2987 95.2194 53.334 95.6774 53.334C96.1668 53.334 96.4134 53.2986 96.66 53.2633C96.8714 53.228 97.0789 53.1927 97.5017 53.1927H97.5722C97.5722 53.4752 97.5722 53.6478 97.6074 53.8243C97.6074 54.0361 97.6427 54.2794 97.6427 54.7383V56.6016C97.6427 57.0567 97.6427 57.2685 97.6074 57.4803C97.6074 57.7275 97.5722 57.9707 97.5722 58.4297C97.5722 58.8886 97.5722 59.1318 97.6074 59.379C97.6074 59.5908 97.6427 59.834 97.6427 60.293C97.6427 60.7167 97.6074 60.9246 97.5722 61.1364C97.537 61.3835 97.5017 61.6267 97.5017 62.1563C97.5017 62.6467 97.537 62.8938 97.5722 63.1409C97.6074 63.3528 97.6427 63.5646 97.6427 64.0196V65.883C97.6427 66.338 97.6427 66.5498 97.6074 66.7617C97.6074 67.0088 97.5722 67.252 97.5722 67.711V75.1251C97.5722 75.6154 97.6074 75.8626 97.6427 76.1097C97.6779 76.3215 97.6779 76.5647 97.6779 76.9884C97.6779 77.4121 97.6427 77.62 97.6074 77.8318C97.5722 78.0789 97.537 78.3222 97.537 78.8164V80.6798C97.537 81.1701 97.5722 81.4172 97.6074 81.6644C97.6427 81.8762 97.6779 82.088 97.6779 82.5431C97.6779 82.9981 97.6779 83.2453 97.7131 83.4924C97.7131 83.7042 97.7484 83.9474 97.7484 84.4064V86.2697C97.7484 86.6934 97.7131 86.866 97.6779 87.1131C97.6427 87.3603 97.5722 87.6388 97.5722 88.1331C97.5722 88.6273 97.6074 88.8705 97.6427 89.1177C97.6779 89.3295 97.7131 89.5413 97.7131 89.9964C97.7131 90.4514 97.7131 90.6633 97.6779 90.8751C97.6779 91.1222 97.6427 91.3654 97.6427 91.8597C97.6427 92.3148 97.6427 92.5619 97.6779 92.809C97.6779 93.0209 97.7131 93.2641 97.7131 93.723C97.7131 94.1467 97.6779 94.3546 97.6779 94.6017C97.6427 94.8489 97.6074 95.0921 97.6074 95.5864C97.6074 96.0806 97.6427 96.2885 97.6427 96.5357C97.6427 96.6063 97.6427 96.7122 97.6779 96.8181H97.5722C97.1181 96.8181 96.9067 96.8181 96.6953 96.7828C96.4486 96.7828 96.2412 96.7475 95.7479 96.7475H88.4545C87.9651 96.7475 87.7185 96.7828 87.4719 96.8181C87.2957 96.8534 87.1195 96.8534 86.8063 96.8534V95.1666C86.7359 94.7783 86.7359 94.5664 86.7006 94.3232L86.6967 94.3193Z" fill="#454138"/>
<path d="M118.536 5.35828C118.536 4.93462 118.149 4.62079 117.659 4.62079C117.205 4.62079 116.959 4.62079 116.712 4.6561C116.501 4.6561 116.258 4.6914 115.835 4.6914H112.186C111.732 4.6914 111.521 4.6914 111.309 4.6561C111.063 4.6561 110.855 4.62079 110.362 4.62079C109.943 4.62079 109.732 4.58549 109.52 4.58549C109.274 4.55018 109.031 4.51488 108.538 4.51488C108.084 4.51488 107.872 4.51488 107.661 4.47957C107.414 4.47957 107.171 4.44427 106.713 4.44427C106.224 4.44427 105.942 4.47957 105.731 4.51488C105.519 4.55018 105.312 4.58549 104.889 4.58549C104.466 4.58549 104.224 4.55018 104.012 4.55018C103.766 4.51488 103.523 4.51488 103.03 4.51488H99.3496C98.962 4.51488 98.7545 4.47957 98.5431 4.47957C98.4022 4.47957 98.2612 4.44427 98.1242 4.44427C97.948 4.40896 97.8071 4.44427 97.4939 4.40896C97.0045 4.40896 96.7579 4.44427 96.5113 4.47957C96.2999 4.51488 96.0924 4.51488 95.6696 4.51488C95.2155 4.51488 95.0041 4.51488 94.7927 4.47957C94.546 4.47957 94.3385 4.44427 93.8453 4.44427C93.352 4.44427 93.1093 4.47957 92.8626 4.51488C92.6512 4.55018 92.4437 4.55018 92.0209 4.55018H88.3723C87.9534 4.55018 87.7772 4.51488 87.5658 4.47957C87.3192 4.44427 87.0765 4.37366 86.5479 4.37366C86.1291 4.37366 85.8472 4.72671 85.8472 5.25236C85.8472 5.67602 85.812 5.88393 85.812 6.13107C85.7767 6.3782 85.7415 6.62142 85.7415 7.11569C85.7415 7.60996 85.7767 7.85318 85.812 8.10031C85.8472 8.31214 85.8824 8.52397 85.8824 8.94371C85.8824 9.39876 85.8824 9.61059 85.8472 9.82242C85.8472 10.0696 85.812 10.3128 85.812 10.7717C85.812 11.2307 85.812 11.4386 85.7767 11.6504C85.7767 11.8976 85.7415 12.1408 85.7415 12.5998C85.7415 13.0901 85.7767 13.3019 85.812 13.5491C85.8472 13.7609 85.8824 13.9727 85.8824 14.3925V16.2205C85.8824 16.6755 85.8824 16.8874 85.8472 17.1345C85.8472 17.3816 85.812 17.5895 85.812 18.0838V19.9118C85.812 20.4022 85.812 20.614 85.8472 20.8612C85.8472 21.073 85.8824 21.3162 85.8824 21.7399C85.8824 22.1635 85.8472 22.3714 85.812 22.5833C85.7767 22.8304 85.7415 23.0736 85.7415 23.5679C85.7415 24.0229 85.7415 24.2701 85.7767 24.5172C85.7767 24.729 85.812 24.9722 85.812 25.4312C85.812 25.9216 85.8472 26.1687 85.8824 26.4158C85.9177 26.6277 85.9529 26.8395 85.9529 27.2592C85.9529 27.7143 85.9529 27.9261 85.9177 28.1379C85.9177 28.3851 85.8824 28.6283 85.8824 29.0873C85.8824 29.5462 85.8824 29.7894 85.9177 30.0366C85.9177 30.2484 85.9529 30.4916 85.9529 30.9153C85.9529 31.3389 85.9177 31.5115 85.8824 31.7587C85.8472 32.0058 85.7767 32.249 85.7767 32.7786V36.4307C85.7767 36.9211 85.812 37.1682 85.8472 37.4154C85.8824 37.6272 85.8824 37.839 85.8824 38.2941C85.8824 38.7177 85.8472 38.9256 85.8472 39.1728C85.812 39.4199 85.7767 39.6631 85.7767 40.1221C85.7767 40.6124 85.812 40.8596 85.8472 41.1067C85.8824 41.3185 85.8824 41.5304 85.8824 41.9501V43.7781C85.8824 44.2018 85.8824 44.4097 85.8472 44.6568C85.8472 44.904 85.812 45.1472 85.812 45.6061V47.4342C85.812 47.8578 85.7767 48.0657 85.7767 48.2776C85.7415 48.5247 85.7063 48.7679 85.7063 49.2622C85.7063 49.6858 86.0586 49.9644 86.5479 49.9644H90.1966C90.6507 49.9644 90.8974 49.9644 91.144 49.9291C91.3554 49.9291 91.5981 49.8938 92.0562 49.8938C92.475 49.8938 92.7217 49.9291 92.9331 49.9291C93.1797 49.9644 93.4224 49.9997 93.9157 49.9997C94.409 49.9997 94.6165 49.9997 94.8631 49.9644C95.0745 49.9644 95.3172 49.9291 95.74 49.9291C96.1629 49.9291 96.3703 49.9644 96.5817 49.9644C96.8284 49.9997 97.0711 50.035 97.5644 50.035C97.8462 50.035 98.0185 50.035 98.1947 49.9997H98.2299C98.3004 49.9997 98.3708 49.9997 98.4413 49.9644L98.7232 49.9291H101.213C101.667 49.9291 101.879 49.9291 102.09 49.9644C102.337 49.9644 102.544 49.9997 103.037 49.9997C103.491 49.9997 103.738 49.9997 103.985 49.9644C104.196 49.9644 104.439 49.9291 104.862 49.9291C105.284 49.9291 105.492 49.9644 105.703 49.9997C105.95 50.035 106.193 50.0703 106.686 50.0703H108.51C109 50.0703 109.246 50.035 109.458 50.035C109.669 49.9997 109.877 49.9997 110.335 49.9997C110.793 49.9997 111 49.9997 111.212 50.035C111.458 50.035 111.701 50.0703 112.159 50.0703H113.983C114.437 50.0703 114.684 50.0703 114.931 50.035C115.142 50.035 115.385 49.9997 115.843 49.9997H117.667C118.055 49.9997 118.509 49.6466 118.509 49.1916C118.509 48.7012 118.474 48.4541 118.438 48.207C118.403 47.9951 118.403 47.7833 118.403 47.3283V40.0201C118.403 39.565 118.403 39.3532 118.438 39.1414C118.438 38.8942 118.474 38.6863 118.474 38.1921V36.364C118.474 35.8737 118.438 35.6266 118.403 35.3794C118.368 35.1676 118.333 34.9558 118.333 34.536C118.333 34.1163 118.368 33.9398 118.403 33.7279C118.438 33.4808 118.474 33.2376 118.474 32.7433C118.474 32.2883 118.474 32.0411 118.438 31.794C118.438 31.5822 118.403 31.3389 118.403 30.88C118.403 30.421 118.403 30.2131 118.438 29.966C118.438 29.7188 118.474 29.5109 118.474 29.0166V27.1886C118.474 26.7336 118.474 26.4864 118.438 26.2746C118.438 26.0628 118.403 25.8196 118.403 25.3959C118.403 24.9722 118.438 24.729 118.438 24.5172C118.474 24.2701 118.474 24.0269 118.474 23.5679C118.474 23.1089 118.474 22.8657 118.438 22.6186C118.438 22.4067 118.403 22.1635 118.403 21.7046V19.8765C118.403 19.3862 118.368 19.1391 118.333 18.9272C118.297 18.7154 118.262 18.5036 118.262 18.0838C118.262 17.6288 118.262 17.4169 118.297 17.2051C118.297 16.958 118.333 16.7148 118.333 16.2558C118.333 15.7968 118.333 15.5536 118.297 15.3065C118.297 15.0947 118.262 14.8514 118.262 14.4278C118.262 14.0041 118.297 13.7962 118.333 13.5491C118.368 13.3019 118.403 13.0587 118.403 12.5645V10.7364C118.403 10.2814 118.403 10.0696 118.438 9.82242C118.438 9.57528 118.474 9.36737 118.474 8.90841C118.474 8.44944 118.474 8.20623 118.438 7.9944C118.438 7.78256 118.403 7.53935 118.403 7.11569C118.403 6.69203 118.438 6.44882 118.438 6.23698C118.509 6.09184 118.544 5.8447 118.544 5.35436L118.536 5.35828ZM114.923 49.1406C114.711 49.1406 114.469 49.1759 114.046 49.1759H112.222C111.803 49.1759 111.556 49.1759 111.345 49.1406C111.098 49.1406 110.855 49.1053 110.397 49.1053C109.908 49.1053 109.661 49.1406 109.45 49.1406C109.238 49.1759 109.031 49.1759 108.573 49.1759H106.749C106.33 49.1759 106.118 49.1406 105.907 49.1053C105.66 49.07 105.418 49.0347 104.924 49.0347C104.47 49.0347 104.224 49.0347 103.977 49.07C103.766 49.07 103.523 49.1053 103.1 49.1053C102.646 49.1053 102.434 49.1053 102.188 49.07C101.941 49.07 101.734 49.0347 101.24 49.0347H98.7153V48.611C98.7153 48.3992 98.6801 48.156 98.6801 47.7323V45.869C98.6801 45.3786 98.6449 45.0962 98.6096 44.849C98.5744 44.6372 98.5392 44.4254 98.5392 44.0056C98.5392 43.5506 98.5392 43.3388 98.5744 43.0916C98.5744 42.8445 98.6096 42.6013 98.6096 42.1423C98.6096 41.652 98.6096 41.4048 98.5744 41.193C98.5744 40.9812 98.5392 40.738 98.5392 40.3143C98.5392 39.8906 98.5744 39.6474 98.6096 39.4356C98.6449 39.1885 98.6801 38.9452 98.6801 38.451V36.5876C98.6801 36.1326 98.6801 35.8855 98.7153 35.6736C98.7153 35.4265 98.7506 35.2186 98.7506 34.7243C98.7506 34.23 98.7506 33.9868 98.7153 33.7397C98.7153 33.5279 98.6801 33.2846 98.6801 32.861C98.6801 32.4059 98.7153 32.1941 98.7153 31.947C98.7506 31.6998 98.7506 31.4566 98.7506 30.9977C98.7506 30.5073 98.7153 30.2249 98.6801 29.9777C98.6449 29.7659 98.6096 29.5541 98.6096 29.1343C98.6096 28.644 98.6096 28.3968 98.5744 28.185C98.5744 27.9732 98.5392 27.73 98.5392 27.3063V23.5836C98.5392 23.1285 98.5392 22.8814 98.5744 22.6696C98.5744 22.4224 98.6096 22.2145 98.6096 21.7203C98.6096 21.2652 98.6449 21.0534 98.6449 20.8415C98.6801 20.5944 98.7153 20.3512 98.7153 19.8569C98.7153 19.4019 98.7153 19.19 98.7506 18.9429C98.7506 18.6958 98.7858 18.4526 98.7858 17.9936C98.7858 17.4679 98.7506 17.2208 98.7153 16.9737C98.6801 16.7618 98.6449 16.55 98.6449 16.1303C98.6449 15.6752 98.6801 15.4634 98.6801 15.2516C98.7153 15.0044 98.7153 14.7612 98.7153 14.3022V12.4389C98.7153 11.9486 98.7153 11.7367 98.6801 11.4896C98.6801 11.2778 98.6449 11.0346 98.6449 10.5756C98.6449 10.1166 98.6801 9.90872 98.6801 9.69689C98.7153 9.44975 98.7153 9.20654 98.7153 8.71227C98.7153 8.21799 98.6801 7.97478 98.6449 7.72765C98.6096 7.51581 98.6096 7.30398 98.6096 6.84894C98.6096 6.3939 98.6096 6.14676 98.6449 5.93493V5.47988C98.821 5.51519 99.0638 5.51519 99.4161 5.51519H103.096C103.515 5.51519 103.762 5.5505 103.973 5.5505C104.22 5.5858 104.462 5.5858 104.92 5.5858C105.41 5.5858 105.692 5.5505 105.903 5.51519C106.114 5.47988 106.322 5.44458 106.745 5.44458C107.199 5.44458 107.41 5.44458 107.622 5.47988C107.868 5.47988 108.111 5.51519 108.569 5.51519C108.988 5.51519 109.199 5.5505 109.411 5.5505C109.657 5.5858 109.9 5.62111 110.393 5.62111C110.847 5.62111 111.059 5.62111 111.306 5.65641C111.552 5.65641 111.76 5.69172 112.253 5.69172H115.902C116.356 5.69172 116.602 5.69172 116.849 5.65641H117.62C117.62 5.93885 117.585 6.11145 117.585 6.25268C117.55 6.49981 117.55 6.74302 117.55 7.20199C117.55 7.69234 117.55 7.90417 117.585 8.15131C117.585 8.36314 117.62 8.57497 117.62 9.03001C117.62 9.45367 117.62 9.69689 117.585 9.90872C117.585 10.1559 117.55 10.3991 117.55 10.858V12.6508C117.55 13.0744 117.515 13.2823 117.479 13.4942C117.444 13.7413 117.409 13.9845 117.409 14.4788C117.409 14.9338 117.409 15.181 117.444 15.3928C117.444 15.6046 117.479 15.8478 117.479 16.2715C117.479 16.7265 117.479 16.9384 117.444 17.1502C117.444 17.3973 117.409 17.6405 117.409 18.0995C117.409 18.5899 117.444 18.837 117.479 19.0841C117.515 19.296 117.55 19.5078 117.55 19.9275V21.7556C117.55 22.2106 117.55 22.4577 117.585 22.7049C117.585 22.9167 117.62 23.1599 117.62 23.6189C117.62 24.0425 117.585 24.2858 117.585 24.4976C117.55 24.7447 117.55 24.9879 117.55 25.4469C117.55 25.9373 117.55 26.1491 117.585 26.3962C117.585 26.6081 117.62 26.8199 117.62 27.2396V29.0676C117.62 29.5227 117.62 29.7345 117.585 29.9817C117.585 30.2288 117.55 30.4367 117.55 30.931C117.55 31.386 117.55 31.6332 117.585 31.8803C117.585 32.0921 117.62 32.3353 117.62 32.7943C117.62 33.218 117.585 33.4259 117.55 33.6377C117.515 33.8848 117.479 34.128 117.479 34.6223C117.479 35.1166 117.515 35.3598 117.55 35.6069C117.585 35.8188 117.62 36.0306 117.62 36.4503V38.2784C117.62 38.7334 117.62 38.9452 117.585 39.1924C117.585 39.4395 117.55 39.6474 117.55 40.1064V47.4499C117.55 47.9402 117.585 48.1873 117.62 48.4345C117.655 48.611 117.655 48.7875 117.655 49.1014H115.972C115.377 49.1014 115.166 49.1367 114.919 49.1367L114.923 49.1406ZM86.728 48.9994C86.728 48.7522 86.7633 48.5757 86.7633 48.4031C86.7985 48.156 86.8337 47.9127 86.8337 47.4538V45.6258C86.8337 45.1707 86.8337 44.9589 86.869 44.7471C86.869 44.4999 86.9042 44.292 86.9042 43.833V42.005C86.9042 41.5147 86.869 41.3028 86.8337 41.0557C86.7985 40.8439 86.7985 40.632 86.7985 40.177C86.7985 39.7533 86.8337 39.5454 86.8337 39.3336C86.869 39.0865 86.9042 38.8432 86.9042 38.349C86.9042 37.8547 86.869 37.6115 86.8337 37.3644C86.7985 37.1525 86.7985 36.9407 86.7985 36.4856V32.8649C86.7985 32.4412 86.8337 32.2686 86.869 32.0215C86.9042 31.7744 86.9747 31.5312 86.9747 31.0016C86.9747 30.5112 86.9747 30.2994 86.9394 30.0523C86.9394 29.8404 86.9042 29.5972 86.9042 29.1736C86.9042 28.7185 86.9042 28.5067 86.9394 28.2949C86.9394 28.0477 86.9747 27.8045 86.9747 27.3455C86.9747 26.8552 86.9394 26.6081 86.9042 26.3609C86.869 26.1491 86.8337 25.9373 86.8337 25.5175C86.8337 25.0625 86.8337 24.8153 86.7985 24.5682C86.7985 24.3564 86.7633 24.1132 86.7633 23.6542C86.7633 23.2305 86.7985 23.0226 86.8337 22.8108C86.869 22.5637 86.9042 22.3204 86.9042 21.8262C86.9042 21.3319 86.9042 21.124 86.869 20.8769C86.869 20.665 86.8337 20.4218 86.8337 19.9981V18.1701C86.8337 17.7151 86.8337 17.5032 86.869 17.2561C86.869 17.009 86.9042 16.8011 86.9042 16.3068V14.4788C86.9042 13.9884 86.869 13.7413 86.8337 13.4942C86.7985 13.2823 86.7633 13.0705 86.7633 12.6861C86.7633 12.2624 86.7633 12.0192 86.7985 11.8074C86.7985 11.5602 86.8337 11.317 86.8337 10.858C86.8337 10.3991 86.8337 10.1912 86.869 9.97933C86.869 9.73219 86.9042 9.48898 86.9042 9.03001C86.9042 8.53966 86.869 8.29253 86.8337 8.04539C86.7985 7.83356 86.7633 7.62173 86.7633 7.20199C86.7633 6.78225 86.7985 6.57042 86.7985 6.32329C86.8337 6.11145 86.8337 5.89962 86.869 5.47988C87.0804 5.47988 87.2213 5.51519 87.3936 5.5505C87.6402 5.5858 87.8829 5.65641 88.4114 5.65641H92.0601C92.5494 5.65641 92.7961 5.62111 93.0427 5.5858C93.2541 5.5505 93.4616 5.5505 93.8844 5.5505C94.3385 5.5505 94.5499 5.5505 94.7613 5.5858C95.008 5.5858 95.2155 5.62111 95.7087 5.62111C96.202 5.62111 96.4447 5.5858 96.6914 5.5505C96.9028 5.51519 97.1103 5.51519 97.4978 5.47988H97.6388V5.93493C97.6388 6.18207 97.6035 6.42528 97.6035 6.88425C97.6035 7.37459 97.6388 7.62173 97.674 7.86887C97.7092 8.0807 97.7092 8.32391 97.7092 8.74757C97.7092 9.20262 97.674 9.41445 97.674 9.62628C97.6388 9.87341 97.6388 10.1166 97.6388 10.6109C97.6388 11.1052 97.6388 11.3131 97.674 11.5602C97.674 11.772 97.7092 12.0153 97.7092 12.4742V14.3022C97.7092 14.7259 97.674 14.9691 97.674 15.181C97.6388 15.4281 97.6388 15.6713 97.6388 16.1656C97.6388 16.6598 97.674 16.9031 97.7092 17.1502C97.7445 17.362 97.7797 17.5739 97.7797 18.0289C97.7797 18.4839 97.7797 18.6958 97.7445 18.9076C97.7445 19.1547 97.7092 19.398 97.7092 19.8922C97.7092 20.3159 97.674 20.5238 97.674 20.7709C97.6388 21.0181 97.6035 21.2613 97.6035 21.7556C97.6035 22.2106 97.6035 22.4224 97.5683 22.6343C97.5683 22.8814 97.5331 23.1246 97.5331 23.5836V27.271C97.5331 27.726 97.5331 27.9732 97.5683 28.2203C97.5683 28.4322 97.6035 28.6754 97.6035 29.1343C97.6035 29.6247 97.6388 29.8718 97.674 30.119C97.7092 30.3308 97.7445 30.5426 97.7445 30.9977C97.7445 31.4213 97.7092 31.6645 97.7092 31.8764C97.674 32.1235 97.674 32.3667 97.674 32.861C97.674 33.316 97.674 33.5632 97.7092 33.8103C97.7092 34.0221 97.7445 34.2653 97.7445 34.7243C97.7445 35.1833 97.7445 35.3912 97.7092 35.603C97.7092 35.8502 97.674 36.0934 97.674 36.5523V38.3804C97.674 38.804 97.6388 39.0119 97.6035 39.2238C97.5683 39.4709 97.5331 39.7141 97.5331 40.2437C97.5331 40.6987 97.5331 40.9459 97.5683 41.193C97.5683 41.4048 97.6035 41.648 97.6035 42.107C97.6035 42.566 97.6035 42.7739 97.5683 42.9857C97.5683 43.2329 97.5331 43.4761 97.5331 43.9703C97.5331 44.4646 97.5683 44.7078 97.6035 44.955C97.6388 45.1668 97.674 45.3786 97.674 45.8337V47.6617C97.674 48.1167 97.674 48.3639 97.7092 48.611V49.0347H97.5683C97.1494 49.0347 96.938 48.9994 96.7266 48.9994C96.48 48.9641 96.2372 48.9287 95.744 48.9287C95.2507 48.9287 95.0432 48.9287 94.7966 48.9641C94.5852 48.9641 94.3424 48.9994 93.9196 48.9994C93.4968 48.9994 93.2893 48.9641 93.0427 48.9641C92.7961 48.9287 92.5533 48.8934 92.0601 48.8934C91.606 48.8934 91.3593 48.8934 91.1127 48.9287C90.9013 48.9287 90.6586 48.9641 90.2357 48.9641H87.4993C87.2526 49.0033 87.0804 49.0033 86.728 49.0033V48.9994Z" fill="#454138"/>
</svg>
