<svg width="24" height="24" viewBox="0 0 24 24" fill="none" xmlns="http://www.w3.org/2000/svg">
<path fill-rule="evenodd" clip-rule="evenodd" d="M12.0792 1.91459C12.2062 1.6605 12.4659 1.5 12.75 1.5C13.6234 1.5 14.3837 1.83911 14.8326 2.49093C15.2771 3.1365 15.3241 3.9558 15.0516 4.73421C14.9258 5.09406 14.7912 5.43779 14.6615 5.76569C14.6472 5.80192 14.6329 5.83792 14.6187 5.87372C14.5031 6.16574 14.3928 6.44426 14.2899 6.72627C14.0884 7.27882 13.9242 7.82129 13.8342 8.41082L19.5326 8.85962C20.8124 8.87894 21.75 10.0334 21.75 11.2031V11.2131L21.75 11.2151C21.7484 11.5135 21.6875 11.8056 21.574 12.0755C21.955 12.1767 22.3062 12.3769 22.5896 12.6604C23.0107 13.0815 23.2481 13.6521 23.25 14.2477V14.2523C23.2481 14.8479 23.0107 15.4185 22.5896 15.8396C22.4732 15.9561 22.3453 16.0585 22.2086 16.1457C22.3969 16.4792 22.4989 16.8582 22.5 17.2479V17.2521C22.4983 17.8478 22.261 18.4186 21.8398 18.8398C21.5603 19.1193 21.2149 19.3178 20.8401 19.4203C20.944 19.6812 20.9992 19.9617 21 20.2479V20.2521C20.9983 20.8478 20.761 21.4186 20.3398 21.8398C19.9186 22.261 19.3478 22.4983 18.7521 22.5L18.7149 22.4992L15.6997 22.3578L15.6845 22.3565C15.4645 22.3372 15.2478 22.3014 15.0407 22.2439C15.0356 22.2452 15.0303 22.2465 15.025 22.2478C14.8948 22.2794 14.7076 22.318 14.4521 22.3553C13.9416 22.4298 13.1548 22.5 12 22.5C9.68061 22.5 8.32927 21.7561 7.25883 21H4.5C3.50544 21 2.55161 20.6049 1.84835 19.9016C1.14509 19.1984 0.75 18.2446 0.75 17.25V15C0.75 14.0054 1.14509 13.0516 1.84835 12.3484C2.55161 11.6451 3.50544 11.25 4.5 11.25H5.90383C6.03337 11.249 6.16055 11.2151 6.27347 11.1516C6.37679 11.0935 6.46507 11.0122 6.5315 10.9144L6.53193 10.9135C6.54685 10.8822 6.56886 10.8366 6.59877 10.7759C6.65859 10.6546 6.75002 10.4731 6.87942 10.226C7.13818 9.73181 7.54904 8.97486 8.16299 7.91154C8.78874 6.8278 9.69547 5.48316 10.478 4.33548C10.5737 4.19506 10.6676 4.05766 10.7589 3.92392L10.759 3.9238L10.759 3.92375L10.7592 3.9235C11.0445 3.50567 11.3056 3.12347 11.5244 2.79606C11.8234 2.34863 12.0108 2.05138 12.0792 1.91459ZM14.1105 18.7543C13.714 18.3644 13.5 17.8367 13.5 17.25C13.5 16.6595 13.7168 16.1329 14.117 15.7448C13.7417 15.3815 13.5 14.8768 13.5 14.25C13.5 13.6056 13.7537 13.0974 14.1418 12.7363L14.1401 12.7347C13.7105 12.3387 13.5 11.7997 13.5 11.2031C13.5 10.687 13.6628 10.2584 13.927 9.92278L13.3908 9.88055C12.9116 9.86292 12.6257 9.51823 12.5072 9.3223C12.3728 9.1002 12.2762 8.79509 12.3113 8.48456L12.3114 8.48333C12.4086 7.63553 12.6306 6.89789 12.8808 6.21217C12.9911 5.90984 13.1092 5.61171 13.2238 5.32221L13.2239 5.32205L13.2239 5.32191L13.2239 5.32183L13.2244 5.32076C13.2385 5.28505 13.2526 5.24946 13.2666 5.21402C13.396 4.88695 13.5208 4.56769 13.6358 4.23878L13.6359 4.23861C13.7853 3.81186 13.7151 3.51296 13.5971 3.34161C13.5203 3.22998 13.3822 3.11313 13.1506 3.04915C13.0403 3.22439 12.9104 3.4217 12.7715 3.62953C12.548 3.96394 12.2807 4.35532 11.994 4.77513L11.9917 4.77851L11.9916 4.77861L11.9882 4.78367C11.8995 4.91353 11.809 5.04608 11.7173 5.1805C10.9295 6.3359 10.055 7.63454 9.46201 8.66158C8.85721 9.70905 8.45643 10.4479 8.20824 10.9218C8.08416 11.1588 7.99828 11.3294 7.94416 11.4392C7.91711 11.494 7.898 11.5337 7.88603 11.5588C7.88338 11.5644 7.88107 11.5692 7.87911 11.5734L7.87632 11.5793L7.87334 11.5856L7.8707 11.5913L7.87053 11.5917C7.85802 11.6188 7.84387 11.6453 7.8281 11.671C7.62644 11.9989 7.34455 12.2701 7.00902 12.4589C6.67348 12.6477 6.29538 12.7479 5.91039 12.75L5.90625 12.75H4.5C3.90326 12.75 3.33097 12.9871 2.90901 13.409C2.48705 13.831 2.25 14.4033 2.25 15V17.25C2.25 17.8467 2.48705 18.419 2.90901 18.841C3.33097 19.2629 3.90326 19.5 4.5 19.5H7.5C7.65851 19.5 7.81294 19.5502 7.94113 19.6434C8.90033 20.3411 9.96612 21 12 21C12.6691 21 13.1956 20.9751 13.6013 20.9415C13.5323 20.7229 13.5 20.49 13.5 20.25C13.5 19.6388 13.7373 19.1262 14.1105 18.7543ZM19.5145 10.3596L15.7933 10.5456C15.224 10.584 15 10.8877 15 11.2031C15 11.4315 15.0707 11.5525 15.1568 11.6318C15.256 11.7233 15.4501 11.8249 15.7956 11.8603L19.5078 11.9531C19.7032 11.9511 19.8902 11.8728 20.0289 11.7349C20.1691 11.5955 20.2485 11.4064 20.25 11.2088V11.2031C20.25 10.7392 19.8644 10.3696 19.5145 10.3596ZM21.529 14.779C21.3895 14.9184 21.2012 14.9976 21.0042 15L15.7753 14.9066C15.2328 14.8778 15 14.5739 15 14.25C15 13.9356 15.2216 13.634 15.782 13.5933L21.0042 13.5C21.2012 13.5024 21.3895 13.5816 21.529 13.721C21.6694 13.8614 21.7488 14.0515 21.75 14.25C21.7488 14.4485 21.6694 14.6386 21.529 14.779ZM18.7633 20.9998C18.957 20.9953 19.1418 20.9164 19.2791 20.7791C19.4195 20.6387 19.4989 20.4485 19.5 20.25C19.4989 20.0515 19.4195 19.8613 19.2791 19.7209C19.1407 19.5825 18.954 19.5034 18.7585 19.5001L15.7617 19.5938H15.75C15.2741 19.5938 15 19.9014 15 20.25C15 20.4946 15.0691 20.5923 15.1316 20.6483C15.2159 20.724 15.406 20.8244 15.8012 20.861L18.7633 20.9998ZM20.7791 16.7209C20.9195 16.8613 20.9989 17.0515 21 17.25C20.9989 17.4485 20.9195 17.6387 20.7791 17.7791C20.6399 17.9183 20.4519 17.9975 20.2552 17.9999L15.7752 17.9066C15.4758 17.8919 15.2834 17.797 15.1749 17.6968C15.0738 17.6035 15 17.4657 15 17.25C15 17.036 15.0726 16.9026 15.1727 16.8108C15.2819 16.7108 15.477 16.6143 15.782 16.5932L20.2552 16.5001C20.4519 16.5025 20.6399 16.5817 20.7791 16.7209Z" fill="#373737"/>
</svg>
