<svg width="180" height="180" viewBox="0 0 180 180" fill="none" xmlns="http://www.w3.org/2000/svg">
<path d="M95.8707 96.8219V97.2438C97.4407 99.3767 99.3613 101.303 101.559 102.982C100.164 101.021 99.2912 98.4001 100.686 97.0328C99.7782 96.9977 98.7302 96.9625 97.5108 96.8922L95.8707 96.8219Z" fill="#F5F3F1"/>
<path d="M96.1862 63.2307C97.8264 66.2386 99.6067 71.1021 101.523 77.6805C102.466 83.7003 103.686 87.8645 104.488 90.6264C105.361 93.7046 105.813 95.2437 105.08 96.1539C104.975 96.2946 104.8 96.4352 104.663 96.5407C106.374 96.7868 107.944 96.6461 107.387 94.0562C104.734 83.001 105.817 70.2622 97.1641 61.7267C95.524 60.1524 93.954 58.2969 91.9632 57.1445C91.1957 56.6914 90.3582 56.375 89.4855 56.0585C91.8931 57.9141 94.1254 60.2931 96.1862 63.2307Z" fill="#F5F3F1"/>
<path d="M77.132 86.466C75.1763 85.4504 73.6414 83.9464 72.6986 82.0557C72.6635 82.0909 72.6285 82.0909 72.5584 82.126C72.1415 82.2315 71.6857 82.3018 71.2689 82.3018C69.7339 82.3018 68.2691 81.6377 67.0108 80.4111C66.8355 80.2353 66.6602 80.0244 66.4887 79.8173C66.5589 80.4463 66.664 81.0752 66.8043 81.6729C67.6769 86.3254 69.2469 90.9115 70.2248 95.5289C70.2598 95.7047 70.2949 95.8453 70.33 95.982C71.1676 96.0172 71.7948 96.1227 72.422 96.193C73.4349 96.3336 74.479 96.4391 76.5048 96.4391C76.7152 96.4391 76.8905 96.6149 76.8905 96.8258C76.8905 97.0368 76.7152 97.2126 76.5048 97.2126C74.4127 97.2126 73.3297 97.0719 72.3168 96.9665C71.8649 96.8961 71.374 96.861 70.8169 96.7907C71.2338 97.2126 71.8649 97.4196 72.6674 97.3845C74.0621 97.279 75.4607 97.4899 76.8554 97.4899C77.5878 94.5171 77.6579 90.9467 77.1359 86.4699L77.132 86.466Z" fill="#F5F3F1"/>
<path d="M67.0147 60.293C63.8046 64.0705 64.8525 68.6215 65.7252 73.0631C66.1771 72.5396 66.7731 72.2232 67.4354 72.1529H67.6107C67.0186 69.7036 66.8082 64.5237 68.4133 61.8673C68.5184 61.6915 68.7639 61.6212 68.9353 61.7267C69.1106 61.8322 69.1807 62.0783 69.0755 62.2502C67.5406 64.805 67.8562 70.0864 68.4483 72.2232C69.2158 72.4342 69.9131 73.028 70.404 73.8327C70.7546 73.5514 70.7196 73.2389 70.6144 72.6412C70.5442 72.1529 70.4391 71.5552 70.6144 70.856L70.6494 70.7154C70.6845 70.5396 70.7897 70.1919 71.2766 70.1919C72.8116 70.1919 73.5791 70.1216 74.3816 70.0161C75.149 69.9106 75.9866 69.8403 77.5566 69.8403C80.9771 69.8755 83.56 70.0161 86.5948 70.1567C87.6779 70.2271 88.8271 70.2622 90.0855 70.3325C90.2257 70.3325 90.366 70.438 90.401 70.5435C90.9581 71.6998 91.2386 72.2935 91.5542 73.028C91.6593 73.2741 91.7645 73.5514 91.9048 73.8327C92.4969 71.7701 93.8605 70.7193 95.0798 70.438C96.3693 70.1216 97.6277 70.5786 98.29 71.5591C99.373 73.4147 99.4081 75.9695 98.4302 77.9618C97.5576 79.7118 96.0226 80.7978 94.102 81.04H94.0669C93.9618 81.04 93.8566 80.9697 93.7864 80.8994C93.6111 82.4033 93.0891 83.6651 92.1814 84.6769C92.0061 84.8878 91.7957 85.0636 91.5892 85.2355C91.6944 85.3058 91.7645 85.4113 91.7645 85.5167C92.01 89.6458 93.2294 93.0757 95.15 96.0836C95.2201 96.0133 95.2902 95.9781 95.4305 95.9781L97.5926 96.0836C99.5834 96.1891 101.118 96.2594 102.268 96.2242C102.338 96.1891 102.408 96.1891 102.513 96.1539C102.583 96.1539 102.688 96.1891 102.793 96.1891C103.701 96.1188 104.328 95.9781 104.574 95.6304C105.061 95.0015 104.609 93.4272 103.841 90.767C103.039 87.9661 101.816 83.7706 100.877 77.7508C98.9912 71.2779 97.2147 66.4496 95.6408 63.5432C93.1281 59.9376 90.3036 57.1757 87.2299 55.285C86.6377 55.1092 86.0416 54.9335 85.4495 54.7616C78.6436 52.4177 71.0039 53.992 67.0264 60.2891L67.0147 60.293Z" fill="#F5F3F1"/>
<path d="M87.4285 105.99C87.9856 105.814 88.3012 105.432 88.3363 104.939C88.4415 104.275 88.2311 103.611 87.7792 103.119C87.2922 102.596 86.591 102.279 85.7884 102.35C85.3716 102.385 84.8457 102.873 84.6002 103.471C84.46 103.857 84.2847 104.662 84.9859 105.397C85.7183 106.131 86.7312 106.236 87.4285 105.99Z" fill="#F5F3F1"/>
<path d="M97.7212 77.6805C98.5938 75.9304 98.5588 73.5865 97.616 72.0123C97.129 71.313 96.1862 70.9966 95.2084 71.2075C93.7085 71.5591 92.6606 72.9928 92.3801 75.0202V75.0554C92.4151 75.2311 92.345 75.4069 92.1697 75.4772C91.9944 75.5827 91.7528 75.4772 91.6827 75.3015C91.297 74.4616 91.0555 73.903 90.8101 73.4108C90.4945 72.7467 90.253 72.1529 89.7621 71.1372C88.6089 71.1021 87.5298 71.0318 86.4819 70.9966C83.4821 70.856 80.8641 70.7153 77.4787 70.6802C75.9438 70.6802 75.1763 70.7505 74.3738 70.856C73.6063 70.9263 72.8038 71.0318 71.3039 71.0318L71.2688 71.1372C71.1637 71.6958 71.2338 72.188 71.3039 72.6412C71.4091 73.4108 71.5493 74.2155 70.3611 74.8093C70.2559 74.8444 70.1508 74.8796 70.0456 74.8444C69.9404 74.8093 69.8703 74.7389 69.8352 74.6335C69.3482 73.5475 68.4054 72.8834 67.4627 72.9537C66.7653 73.024 66.2433 73.4772 65.8927 74.1764C65.9277 74.317 65.9628 74.4577 65.9628 74.5983C66.103 75.7898 66.2082 76.9773 66.3134 78.1688C66.629 78.7625 67.0458 79.3602 67.5679 79.8485C68.3704 80.6532 70.0806 81.9463 72.383 81.3876C72.1727 80.8642 71.9974 80.3368 71.8961 79.743C71.861 79.5321 72.0013 79.3212 72.1766 79.2899C72.3869 79.2547 72.5934 79.3954 72.6285 79.5712C73.1505 82.1611 74.7906 84.2589 77.0619 85.5909C77.132 85.4855 77.2021 85.38 77.3424 85.38C77.5527 85.3448 77.728 85.4855 77.7592 85.6964C77.7592 85.8019 77.7943 85.8722 77.7943 85.9777C79.3993 86.7472 81.2849 87.134 83.3068 87.0285C87.2143 86.923 90.0075 85.9777 91.5425 84.2276C92.7307 82.8643 93.2176 80.9736 92.9722 78.6297C92.9372 78.4188 93.1125 78.243 93.3228 78.2078C93.5332 78.2078 93.7085 78.3485 93.7397 78.5594C93.8098 79.2235 93.8098 79.8524 93.7747 80.4501C93.8098 80.4149 93.8799 80.3798 93.9501 80.3798C96.1122 80.0985 97.1602 78.7704 97.7173 77.6844L97.7212 77.6805ZM85.2975 81.458C84.7755 81.8799 84.008 82.1221 83.2055 82.1221C82.4731 82.1221 81.7407 81.9111 81.1797 81.458C81.0044 81.3173 81.0044 81.1064 81.1096 80.9345C81.2498 80.7587 81.4602 80.7587 81.6316 80.8642C82.5744 81.6338 84.1794 81.3876 84.8067 80.8642C84.982 80.7236 85.1924 80.7587 85.3287 80.9345C85.504 81.1103 85.469 81.3212 85.2936 81.458H85.2975Z" fill="#F5F3F1"/>
<path d="M129.721 116.17C124.871 113.58 120.928 112.006 115.517 110.291C114.434 110.045 113.355 109.768 112.237 109.416C113.561 110.08 114.89 110.674 116.249 111.307C126.472 113.967 140.224 119.495 141.584 136.64C142.562 136.675 143.539 136.675 144.513 136.71C144.478 136.71 144.443 136.675 144.373 136.675C141.443 127.331 138.58 121.174 129.717 116.17H129.721Z" fill="#F5F3F1"/>
<path d="M86.8013 43.39C87.674 43.4955 88.6168 43.5658 90.3971 43.5658H90.8841C90.0114 43.4603 89.0687 43.3549 87.3234 43.3549C87.113 43.39 86.9377 43.39 86.8013 43.39Z" fill="#F5F3F1"/>
<path d="M116.565 112.182C117.227 116.03 119.67 129.222 123.02 136.64C125.88 136.57 128.708 136.499 131.466 136.499C134.536 136.499 137.641 136.534 140.785 136.605C139.807 124.112 132.097 116.346 116.569 112.182H116.565Z" fill="#F5F3F1"/>
<path d="M109.689 108.963C110.005 113.373 110.492 120.686 107.457 123.135C106.409 123.694 103.479 124.327 99.8833 124.499C98.6639 124.534 97.3705 124.428 96.046 124.288C94.8578 124.182 93.6033 124.077 92.3489 124.077C91.0945 124.077 89.8361 124.218 88.5817 124.323C87.3623 124.464 86.0689 124.569 84.8495 124.569C83.56 124.428 81.6394 124.288 79.5785 124.147C74.6231 123.796 71.0624 123.518 70.0884 123.026C70.0534 122.991 69.9832 122.956 69.9482 122.921C68.6236 121.206 68.4834 113.475 68.7288 109.658C68.4132 109.799 68.1016 109.904 67.8211 110.045C66.216 110.885 64.7512 111.971 63.2163 112.916C62.9708 119.006 62.4839 128.976 60.3879 136.288C63.041 136.288 65.5537 136.359 68.5184 136.464L71.7285 136.499C75.7061 136.534 79.1266 136.605 83.6613 136.605C89.244 136.324 93.0813 136.253 98.8042 136.324C102.606 136.464 106.167 136.464 109.588 136.429C113.39 136.429 117.301 136.394 121.52 136.605H122.113C118.657 128.769 116.179 115.049 115.657 111.865C113.702 110.955 111.68 109.975 109.689 108.963Z" fill="#F5F3F1"/>
<path d="M62.3397 113.51C53.1964 117.534 48.9733 126.702 49.3941 136.499H49.6044C50.5472 136.464 51.49 136.429 53.4067 136.429C55.7442 136.359 57.7349 136.324 59.6516 136.324C61.6775 129.257 62.2346 119.565 62.48 113.405C62.4449 113.44 62.4099 113.475 62.3397 113.51Z" fill="#F5F3F1"/>
<path d="M79.3682 99.5173C79.263 99.904 79.1227 100.252 79.0175 100.603C80.1356 101.861 81.2498 102.982 83.1354 103.158C83.3457 103.193 83.486 103.369 83.486 103.58C83.4509 103.791 83.3107 103.932 83.1003 103.932H83.0652C81.0745 103.721 79.8201 102.639 78.737 101.412C77.7943 103.826 76.5048 105.889 73.8167 107.467C72.4921 108.236 71.0234 108.76 69.5586 109.322C69.2781 112.893 69.4183 120.694 70.5715 122.374C71.6545 122.827 76.084 123.143 79.6798 123.389C81.7368 123.53 83.6574 123.671 84.9157 123.811C86.0689 123.811 87.3233 123.671 88.5466 123.565C89.801 123.425 91.0944 123.319 92.3839 123.319C93.6734 123.319 94.9318 123.425 96.1512 123.565C97.4757 123.671 98.699 123.811 99.8833 123.776C103.545 123.565 106.304 122.936 107.071 122.518C109.268 120.733 109.303 115.452 109.097 111.393C109.062 111.463 108.992 111.498 108.922 111.533C105.014 112.655 99.0808 114.053 95.3486 114.471H95.3136C95.1383 114.471 94.9629 114.33 94.9279 114.119C94.8928 113.909 95.0331 113.733 95.2434 113.698C98.9405 113.244 104.804 111.877 108.676 110.76C108.816 110.725 108.957 110.76 109.027 110.865C108.992 110.166 108.957 109.502 108.886 108.904V108.693C108.886 108.623 108.886 108.588 108.922 108.518C103.686 105.717 98.9756 102.498 95.6603 98.2321C94.9279 101.068 92.345 103.236 89.7971 103.971H89.692C89.5166 103.971 89.3764 103.865 89.3413 103.689C89.2712 103.478 89.4115 103.267 89.5868 103.236C92.0995 102.502 94.6824 100.228 95.0642 97.3922C92.7618 94.1382 91.262 90.3255 90.9815 85.6691C89.2362 86.9269 86.6883 87.6301 83.338 87.6965H82.7809C81.0356 87.6965 79.3604 87.3449 77.8956 86.7511C78.3475 90.9857 78.3124 94.4155 77.6501 97.3531C78.9396 97.318 79.7772 98.2633 79.3604 99.5212L79.3682 99.5173ZM82.438 114.459C78.7409 114.248 73.1544 114.037 70.0845 114.037C69.8742 114.037 69.6988 113.862 69.6988 113.651C69.6988 113.44 69.8742 113.264 70.0845 113.264C73.1895 113.264 78.7721 113.475 82.4731 113.686C82.6835 113.686 82.8237 113.862 82.8237 114.073C82.7886 114.284 82.6484 114.459 82.438 114.459ZM83.9028 103.158C84.2535 102.283 85.0209 101.619 85.7533 101.584C86.8013 101.549 87.709 101.9 88.3362 102.599C88.9284 103.264 89.2089 104.139 89.0686 105.014C88.9985 105.783 88.4765 106.412 87.6389 106.693C87.3233 106.799 87.0117 106.869 86.6961 106.869C85.8585 106.869 85.0209 106.518 84.4288 105.889C83.7314 105.119 83.5561 104.139 83.9067 103.158H83.9028Z" fill="#F5F3F1"/>
<path d="M36.1328 127.331C33.4097 119.878 31.5631 113.264 29.3269 105.604C28.2439 101.931 28.4543 101.861 27.4063 98.2204C26.2532 94.6148 25.7662 94.7554 24.6832 91.1185C23.1132 85.6613 22.1704 81.8799 20.6705 76.4226C18.9603 70.9654 17.6708 67.3949 15.8203 62.008C14.7373 58.3359 15.1229 58.2656 14.0399 54.6248C12.4387 49.7262 15.3333 44.9291 19.942 43.7767C16.9423 43.9174 14.149 44.476 12.1972 46.9605C10.7675 48.9215 10.4519 51.5075 11.3246 54.449C11.9167 56.3398 12.092 57.3515 12.2323 58.332C12.3725 59.2422 12.5128 60.1876 13.0348 61.9025C13.5919 63.758 13.9075 64.6331 14.2542 65.5433C14.5697 66.4183 14.9165 67.2933 15.4736 69.0786C17.4292 74.4303 18.5434 78.0711 19.9732 83.5635C20.7056 86.0129 21.438 88.3567 22.1704 90.5951C23.7404 95.4937 25.2052 100.111 26.4285 105.432C26.9505 107.147 27.3362 108.022 27.718 108.826C28.1037 109.701 28.5205 110.612 29.0776 112.498C29.6347 114.354 29.7399 115.334 29.8801 116.276C30.0204 117.221 30.1256 118.131 30.6476 119.948C31.1346 121.592 31.4151 122.503 31.6956 123.343C32.0111 124.323 32.2877 125.233 32.8838 127.19C34.7693 132.441 39.8611 136.218 45.3775 136.499C41.1194 135.136 37.5275 131.671 36.1289 127.331H36.1328Z" fill="#F5F3F1"/>
</svg>
