<svg width="180" height="180" viewBox="0 0 180 180" fill="none" xmlns="http://www.w3.org/2000/svg">
<path d="M101.82 139.429C102.52 138.835 102.626 137.82 102.102 137.191L100.736 135.581C100.49 135.3 100.107 135.128 99.7192 135.093C99.3006 135.058 98.8428 135.198 98.4907 135.511L93.0252 140.234C92.9548 140.269 92.8843 140.304 92.8843 140.304L88.8898 135.581C88.6082 135.3 88.26 135.128 87.8726 135.093C87.454 135.058 86.9963 135.198 86.6442 135.511L84.7858 137.12C84.0855 137.714 83.9799 138.73 84.5041 139.359L88.4986 144.047C88.4986 144.082 88.4634 144.152 88.393 144.223L82.9274 148.946C82.2271 149.54 82.1215 150.555 82.6458 151.184L84.0112 152.794C84.2928 153.075 84.641 153.247 85.0284 153.282H85.134C85.5526 153.282 85.9399 153.142 86.2568 152.899L91.7224 148.176C91.7928 148.106 91.828 148.106 91.8632 148.106L95.8577 152.794C96.1042 153.075 96.4876 153.247 96.8749 153.282C97.2935 153.317 97.7513 153.177 98.1034 152.864L99.9617 151.255C100.662 150.661 100.768 149.645 100.243 149.016L96.2489 144.328C96.2489 144.293 96.2841 144.223 96.3546 144.152L101.82 139.429ZM98.9485 150.173L97.0901 151.782C97.0197 151.852 96.9492 151.852 96.9492 151.852L92.9548 147.129C92.6731 146.848 92.3249 146.676 91.9375 146.641C91.5189 146.606 91.0612 146.746 90.7091 147.059L85.2435 151.782C85.1731 151.852 85.1027 151.852 85.1027 151.852L83.7725 150.278C83.7725 150.243 83.8077 150.173 83.8781 150.102L89.3437 145.379C90.044 144.785 90.1496 143.77 89.6254 143.141L85.6309 138.453C85.6309 138.417 85.6661 138.347 85.7365 138.277L87.5949 136.667C87.6653 136.597 87.7357 136.597 87.7357 136.597L91.7302 141.32C91.9767 141.601 92.3601 141.773 92.7474 141.808C93.166 141.844 93.6238 141.703 93.9759 141.386L99.4414 136.663C99.5118 136.628 99.5822 136.593 99.5822 136.593L100.912 138.167C100.912 138.202 100.877 138.273 100.807 138.343L95.3413 143.066C94.641 143.66 94.5353 144.676 95.0596 145.305L99.0541 149.993C99.0541 150.028 99.0189 150.098 98.9485 150.169V150.173Z" fill="#454138"/>
<path d="M148.08 119.521C147.45 118.751 146.538 118.298 145.521 118.298C145.032 118.298 144.75 118.333 144.504 118.368C144.292 118.403 144.116 118.439 143.733 118.439C143.35 118.439 143.138 118.403 142.927 118.403C142.681 118.368 142.438 118.333 141.91 118.333H141.875C140.58 118.403 139.703 118.403 138.334 118.333C137.563 118.368 136.969 118.368 136.335 118.403L134.864 118.439C133.463 118.368 132.587 118.333 131.253 118.368C129.958 118.403 129.081 118.368 127.712 118.333C127.223 118.333 126.976 118.368 126.73 118.403C126.519 118.439 126.343 118.439 125.924 118.439C125.505 118.439 125.294 118.403 125.118 118.403C124.872 118.368 124.629 118.368 124.171 118.368C123.682 118.368 123.436 118.403 123.189 118.439C122.978 118.474 122.802 118.474 122.419 118.474C119.613 118.333 116.742 118.333 113.483 118.439C112.223 118.474 111.347 118.439 109.942 118.368C109.453 118.368 109.171 118.403 108.96 118.439C108.749 118.474 108.573 118.509 108.189 118.509C107.771 118.509 107.56 118.474 107.383 118.474C107.137 118.439 106.93 118.474 106.401 118.439C105.142 118.474 104.265 118.474 102.826 118.403C101.425 118.509 100.549 118.509 99.3201 118.509C98.4086 118.509 97.7083 118.474 96.9023 118.439C96.5502 118.439 96.202 118.403 95.7443 118.403C94.4845 118.439 93.5729 118.474 92.2036 118.439C91.7146 118.439 91.4329 118.474 91.2216 118.509C91.0103 118.544 90.8343 118.579 90.4509 118.579C90.0675 118.579 89.8562 118.544 89.6449 118.509C89.3985 118.474 89.1559 118.439 88.6629 118.439C88.17 118.439 87.8922 118.474 87.6809 118.509C87.4697 118.544 87.2936 118.579 86.9102 118.579C86.5268 118.579 86.3507 118.544 86.1395 118.509C85.893 118.474 85.6504 118.439 85.1223 118.439C83.1583 118.439 81.5816 118.439 79.8289 118.544C77.3406 118.403 75.0637 118.439 72.7515 118.544C71.3861 118.439 70.1576 118.474 68.8978 118.474H67.3916C65.3572 118.403 62.9393 118.368 60.2437 118.509H59.5786C58.4558 118.474 57.196 118.474 56.1436 119.384C55.1264 120.224 54.919 121.38 54.7078 122.392C54.6726 122.673 54.6021 122.916 54.5317 123.197C54.2148 124.596 54.0427 125.471 53.8666 126.697C53.7962 127.084 53.7258 127.256 53.6554 127.432C53.5849 127.643 53.4793 127.92 53.3737 128.412C53.268 128.866 53.268 129.112 53.2328 129.358C53.1976 129.569 53.1976 129.776 53.092 130.163C53.0216 130.616 52.9863 130.862 52.9511 131.073C52.9159 131.284 52.9159 131.491 52.8455 131.878C52.7751 132.264 52.7047 132.436 52.6342 132.612C52.5638 132.823 52.4582 133.065 52.3525 133.593C52.2469 134.046 52.2469 134.292 52.2117 134.538C52.1765 134.749 52.1765 134.956 52.1061 135.343C52.0356 135.761 51.9652 135.972 51.93 136.183C51.8596 136.394 51.8244 136.636 51.7187 137.058C51.6131 137.546 51.6131 137.792 51.5779 138.038C51.5779 138.249 51.5427 138.425 51.4723 138.843C51.2962 139.824 51.1202 140.558 50.9128 141.398L50.7015 142.238C50.5959 142.726 50.5959 143.008 50.5959 143.254C50.5959 143.465 50.5959 143.641 50.5255 144.023C50.4551 144.41 50.3846 144.582 50.3142 144.758C50.2438 145.004 50.1382 145.211 50.0677 145.703C49.9973 146.156 49.9621 146.403 49.9269 146.614C49.8917 146.825 49.8917 147.032 49.8213 147.453C49.7508 147.872 49.6804 148.047 49.61 148.258C49.5396 148.469 49.4692 148.711 49.3635 149.169C49.2227 149.833 49.117 150.426 49.0114 150.989C48.9058 151.513 48.8001 152.04 48.6945 152.669C48.4128 154.419 48.1703 155.958 47.6773 157.814C47.5717 158.302 47.5717 158.548 47.5365 158.795C47.5365 159.006 47.5013 159.181 47.4308 159.599C47.3604 159.986 47.29 160.193 47.2196 160.404C47.1491 160.65 47.0787 160.857 46.9731 161.385C46.7266 163.518 46.3432 165.444 45.9207 167.542L45.7798 168.311C45.7094 168.698 45.639 168.905 45.5686 169.081C45.4981 169.327 45.4277 169.534 45.3221 170.026C45.2164 170.515 45.2164 170.726 45.1812 170.972C45.146 171.183 45.146 171.39 45.0756 171.776C44.8291 172.933 44.657 173.773 44.4457 174.96C44.0271 174.96 43.8158 174.996 43.6046 174.996C43.3933 175.031 43.1859 175.031 42.7634 175.031C42.3761 175.031 42.204 174.996 41.9927 174.96C41.7462 174.925 41.5036 174.89 40.9755 174.89C40.4864 174.89 40.24 174.925 39.9935 174.925C39.7822 174.96 39.5749 174.96 39.1523 174.96C37.3644 174.96 35.7525 174.996 33.7924 174.855H33.1978C31.7267 174.855 30.3926 174.89 28.992 174.96C28.8159 174.96 28.6399 174.996 28.4325 174.996C28.0452 174.996 27.8731 174.96 27.6618 174.925C27.4153 174.89 27.1728 174.855 26.6446 174.855C26.1164 174.855 25.8739 174.89 25.6274 174.925C25.4161 174.96 25.2401 174.996 24.8567 174.996C22.0515 174.96 19.039 174.925 15.9209 174.996L14.9741 174.96C14.0977 174.925 13.327 174.89 12.3098 174.89C11.8208 174.89 11.5391 174.925 11.2926 174.96C11.0813 174.996 10.9053 175.031 10.4867 175.031C10.068 175.031 9.85677 175.031 9.6455 174.996C9.39902 174.996 9.19167 174.96 8.69871 174.96C8.28009 174.96 8.06883 174.96 7.85756 174.925C7.61109 174.89 7.36852 174.89 6.87557 174.89C6.52346 174.925 6.21047 174.89 5.92878 174.855C5.2989 174.82 4.21127 174.714 4 175.8V175.941C4 176.328 4.03521 176.535 4.07042 176.711C4.10563 176.851 4.10563 176.922 4.10563 177.164C4.14084 178.668 5.2989 179.824 6.76993 179.824H6.80514C7.71672 179.824 8.41703 179.859 9.22297 179.895L10.4475 179.93C11.5704 179.859 12.5485 179.859 13.6009 179.859C14.3012 179.859 15.0367 179.859 15.7722 179.824C16.1595 179.824 16.3669 179.859 16.5782 179.859C16.8246 179.895 17.0672 179.93 17.5602 179.93H19.3481C19.8371 179.93 20.1188 179.895 20.3653 179.859C20.5766 179.824 20.7526 179.789 21.1712 179.789C21.5586 179.789 21.7307 179.824 21.942 179.859C22.1884 179.895 22.431 179.965 22.9592 179.965C23.4482 179.965 23.6595 179.965 23.906 179.93C24.1172 179.93 24.3246 179.895 24.7471 179.895C26.1125 179.93 27.0241 179.93 28.3582 179.859C28.7768 179.859 28.9881 179.859 29.1993 179.895C29.4458 179.93 29.6884 179.93 30.1813 179.93C30.6743 179.93 30.9521 179.895 31.1633 179.859C31.3746 179.824 31.5507 179.789 31.9693 179.789C32.3879 179.789 32.5992 179.824 32.7752 179.824C33.0217 179.859 33.2643 179.859 33.722 179.859C35.1226 179.895 36.0342 179.859 37.3331 179.824C38.6633 179.824 39.5749 179.824 40.9442 179.859C42.8025 179.789 44.3792 179.789 46.3041 179.859C47.5286 179.824 48.6163 179.824 49.8095 179.859H51.6679C52.1217 179.859 52.3682 179.859 52.6147 179.824C52.8259 179.824 53.0333 179.789 53.491 179.789C53.9097 179.789 54.0857 179.824 54.297 179.824C54.5435 179.859 54.786 179.859 55.3494 179.895C57.5912 179.719 59.696 179.824 61.9026 179.895L62.462 179.93C62.9511 179.93 63.2328 179.895 63.4792 179.859C63.6905 179.824 63.8666 179.789 64.2852 179.789C64.6725 179.789 64.8798 179.824 65.0911 179.859C65.3376 179.895 65.5802 179.93 66.1083 179.93C66.6365 179.93 66.8791 179.895 67.1255 179.859C67.3368 179.824 67.5129 179.789 67.8963 179.789C68.3149 179.789 68.4909 179.824 68.7022 179.824C68.9487 179.859 69.1912 179.895 69.649 179.895C71.926 179.965 74.1364 179.93 76.832 179.789C78.1622 179.754 79.0738 179.789 80.4431 179.859C82.231 179.789 83.7373 179.754 85.803 179.789C86.1903 179.789 86.3977 179.824 86.5737 179.859C86.8202 179.895 87.0628 179.93 87.591 179.93C88.1191 179.93 88.3617 179.895 88.6082 179.859C88.8194 179.824 88.9955 179.789 89.3789 179.789C89.8679 179.789 90.3257 179.824 90.7443 179.824C91.4446 179.859 92.1097 179.859 92.9509 179.895C93.4047 179.895 93.6512 179.895 93.8976 179.859C94.1089 179.859 94.3163 179.824 94.774 179.824C95.1926 179.824 95.3687 179.859 95.5799 179.859C95.8264 179.895 96.069 179.93 96.5619 179.93C97.0549 179.93 97.2975 179.895 97.5439 179.859C97.7552 179.824 97.9313 179.824 98.3147 179.824C99.8209 179.895 101.257 179.895 102.661 179.859C103.573 179.859 104.52 179.824 105.466 179.859C106.519 179.93 107.466 179.895 108.408 179.895H110.897C111.386 179.895 111.632 179.859 111.879 179.824C112.09 179.789 112.297 179.789 112.649 179.789H112.826C114.085 179.859 114.997 179.895 116.296 179.895C118.154 179.859 119.907 179.859 121.691 179.824H123.408C124.703 179.895 125.65 179.93 127.019 179.895H128.807C129.226 179.895 129.402 179.93 129.613 179.93C129.86 179.965 130.102 180 130.595 180H131.049C132.066 180 132.872 179.965 133.89 179.895L134.171 179.859C134.488 179.859 134.766 179.895 135.012 179.93C135.854 180.035 136.8 180.141 137.712 179.23C137.747 179.195 137.818 179.16 137.853 179.09C138.342 178.601 138.588 177.969 138.588 177.234C138.588 177.023 138.623 176.953 138.659 176.816C138.694 176.64 138.764 176.429 138.764 176.011C138.764 175.8 138.694 175.593 138.553 175.453C138.553 175.417 138.588 175.382 138.588 175.347C138.659 174.859 138.729 174.648 138.764 174.402C138.799 174.191 138.87 173.984 138.94 173.597C139.046 173.109 139.046 172.827 139.081 172.616C139.081 172.405 139.116 172.23 139.187 171.812C139.257 171.394 139.328 171.218 139.398 171.007C139.469 170.761 139.539 170.554 139.645 170.061C139.75 169.569 139.75 169.292 139.785 169.081C139.785 168.87 139.821 168.694 139.891 168.276C139.961 167.889 140.032 167.717 140.102 167.506C140.173 167.295 140.278 167.018 140.384 166.526L140.979 162.99C141.296 161.592 141.468 160.681 141.644 159.42C141.714 159.033 141.785 158.861 141.855 158.65C141.925 158.439 142.031 158.162 142.137 157.669C142.242 157.181 142.242 156.935 142.278 156.689C142.278 156.478 142.313 156.271 142.383 155.884C142.489 155.431 142.489 155.185 142.524 154.974C142.559 154.763 142.594 154.556 142.665 154.134C142.735 153.747 142.806 153.575 142.876 153.399C142.947 153.188 143.052 152.911 143.158 152.419L143.51 150.634C143.616 150.145 143.616 149.864 143.616 149.618C143.616 149.407 143.616 149.231 143.721 148.848C143.792 148.43 143.862 148.219 143.897 147.973C143.932 147.727 144.003 147.52 144.073 147.028C144.249 145.942 144.461 144.965 144.703 143.949C144.879 143.25 145.055 142.551 145.192 141.781C145.263 141.293 145.298 141.047 145.298 140.8C145.298 140.589 145.333 140.382 145.404 139.996C145.474 139.609 145.544 139.437 145.615 139.226C145.685 139.015 145.791 138.738 145.896 138.245C146.143 136.952 146.284 136.042 146.491 134.71C146.667 133.765 146.843 133.065 147.051 132.26L147.297 131.21C147.403 130.721 147.403 130.44 147.403 130.194C147.403 129.983 147.403 129.807 147.508 129.424L147.86 127.674C147.966 127.151 148.072 126.658 148.177 126.205C148.318 125.541 148.459 124.912 148.631 124.142C148.737 123.689 148.772 123.478 148.807 123.232C148.842 123.021 148.878 122.814 148.983 122.357C148.948 121.306 148.702 120.294 148.072 119.521H148.08ZM147.274 121.97C147.168 122.423 147.133 122.634 147.098 122.881C147.062 123.091 147.027 123.299 146.922 123.756C146.781 124.525 146.64 125.154 146.468 125.787C146.362 126.24 146.256 126.732 146.151 127.256L145.799 129.041C145.693 129.53 145.693 129.811 145.693 130.057C145.693 130.268 145.693 130.444 145.623 130.792L145.376 131.807C145.165 132.647 144.989 133.382 144.781 134.362C144.57 135.726 144.429 136.601 144.187 137.898C144.116 138.285 144.046 138.492 143.976 138.667C143.905 138.878 143.799 139.156 143.729 139.613C143.623 140.136 143.623 140.382 143.588 140.629C143.588 140.839 143.553 141.015 143.518 141.398C143.377 142.133 143.201 142.832 143.029 143.496C142.782 144.512 142.54 145.559 142.364 146.68C142.293 147.133 142.223 147.344 142.188 147.555C142.152 147.766 142.082 148.008 142.012 148.43C141.906 148.918 141.906 149.2 141.906 149.446C141.906 149.657 141.906 149.833 141.8 150.216L141.448 152.001C141.378 152.388 141.307 152.56 141.237 152.77C141.166 152.981 141.061 153.259 140.955 153.751C140.85 154.204 140.814 154.45 140.814 154.696C140.779 154.907 140.744 155.114 140.674 155.536C140.568 156.025 140.568 156.271 140.533 156.517C140.533 156.728 140.497 156.935 140.427 157.322C140.357 157.709 140.286 157.916 140.216 158.091C140.145 158.302 140.04 158.58 139.934 159.107C139.758 160.33 139.617 161.205 139.304 162.607L138.71 166.143C138.639 166.53 138.569 166.702 138.498 166.913C138.428 167.124 138.322 167.401 138.217 167.893C138.111 168.382 138.111 168.663 138.076 168.874C138.076 169.085 138.041 169.261 137.97 169.679C137.9 170.097 137.829 170.272 137.759 170.483C137.688 170.729 137.618 170.937 137.512 171.429C137.407 171.921 137.407 172.198 137.372 172.444C137.372 172.655 137.336 172.831 137.266 173.249C137.195 173.636 137.16 173.843 137.09 174.019C137.019 174.265 136.984 174.472 136.914 174.859C136.319 174.859 135.791 174.824 135.231 174.788C134.742 174.753 134.249 174.753 133.655 174.718C133.338 174.718 133.131 174.718 132.954 174.753H132.043C131.624 174.753 131.378 174.788 131.167 174.824H131.061C130.779 174.788 130.501 174.753 130.008 174.753C128.991 174.824 128.326 174.859 127.591 174.859C127.379 174.824 127.102 174.788 126.609 174.788C126.362 174.788 126.12 174.824 125.873 174.824C125.732 174.824 125.627 174.788 125.521 174.788C125.31 174.753 125.067 174.753 124.645 174.753C124.156 174.753 123.909 174.788 123.663 174.788C123.451 174.824 123.244 174.824 122.857 174.824C121.562 174.753 120.263 174.753 119.038 174.753C117.915 174.753 116.797 174.753 115.638 174.718H115.498C115.286 174.753 115.044 174.753 114.797 174.788H114.062C112.767 174.859 111.89 174.859 110.521 174.788H108.733C108.315 174.788 108.068 174.824 107.857 174.824H107.505C106.734 174.788 105.787 174.753 104.77 174.788H104.664C104.524 174.788 104.347 174.788 104.175 174.824H103.299L102.458 174.859C102.317 174.859 102.176 174.824 102.039 174.824C100.427 174.718 98.9211 174.718 97.4853 174.753C96.3976 174.718 95.4195 174.753 94.6136 174.753L93.4555 174.788C93.0017 174.788 92.544 174.824 92.0901 174.824H90.1261C89.8092 174.824 89.6371 174.788 89.461 174.753C89.1794 174.718 88.9016 174.683 88.4791 174.683H87.4618C87.2858 174.683 87.0745 174.718 86.6911 174.683H86.5503C85.85 174.683 85.2553 174.683 84.6567 174.718C84.375 174.718 84.0972 174.753 83.8156 174.753C83.5339 174.753 83.2209 174.788 82.9392 174.788H82.7279L82.4462 174.753C82.1998 174.718 81.922 174.683 81.3586 174.683H81.0769C80.9713 174.683 80.8656 174.683 80.7952 174.718H80.2006C79.7115 174.718 79.5002 174.718 79.2538 174.753H79.1481C78.9017 174.753 78.6591 174.753 78.3774 174.718H78.1309C77.9197 174.718 77.6771 174.683 77.4658 174.718H76.6247C75.6075 174.683 74.6607 174.683 73.6826 174.683C73.577 174.683 73.4713 174.683 73.4009 174.648C73.1544 174.613 72.9471 174.613 72.3837 174.613C71.5073 174.648 70.8422 174.648 70.1419 174.648C69.825 174.648 69.5121 174.648 69.1247 174.613H68.8078C68.4205 174.613 68.1779 174.648 67.8963 174.648C67.8258 174.648 67.7906 174.648 67.7202 174.683C67.1607 174.683 66.6326 174.683 65.9323 174.648H65.8266C65.6506 174.648 65.4745 174.613 65.1615 174.613L62.0786 174.648H61.5896C60.5372 174.578 59.5239 174.578 58.4362 174.578H57.9824C57.4934 174.578 57.2469 174.613 57.0004 174.648H55.8424C55.6663 174.648 55.5255 174.648 55.4237 174.613H55.2477C55.0364 174.578 54.7586 174.578 54.3361 174.578H54.2305C54.0544 174.542 53.8118 174.542 53.4597 174.542C52.9707 174.542 52.689 174.578 52.4777 174.613H52.3721C51.9535 174.613 51.5662 174.613 51.1475 174.648C50.7289 174.648 50.3064 174.613 49.923 174.613C49.3635 174.578 48.8001 174.578 48.0646 174.542C47.8886 174.542 47.7125 174.542 47.5404 174.578H47.0513C46.8401 174.578 46.6327 174.578 46.4214 174.613L46.1398 174.648H45.9285C46.1045 173.597 46.2806 172.827 46.5232 171.745C46.6288 171.292 46.6288 171.046 46.664 170.8C46.6992 170.589 46.6992 170.382 46.7696 169.995C46.8401 169.608 46.9105 169.401 46.9809 169.225C47.0513 168.979 47.1218 168.772 47.2274 168.28L47.3682 167.51C47.7869 165.412 48.1742 163.451 48.4207 161.318C48.4911 160.932 48.5615 160.724 48.6319 160.549C48.7023 160.303 48.7728 160.095 48.8784 159.603C48.984 159.115 48.984 158.869 49.0192 158.623C49.0192 158.412 49.0544 158.236 49.1249 157.888C49.6139 156.033 49.8956 154.423 50.1773 152.638C50.2829 152.044 50.3886 151.516 50.4942 150.993C50.5998 150.434 50.7407 149.837 50.8463 149.172C50.9167 148.786 50.9871 148.614 51.0576 148.403C51.128 148.157 51.1984 147.914 51.304 147.457C51.4097 146.969 51.4097 146.723 51.4449 146.477C51.4449 146.266 51.4801 146.09 51.5505 145.707C51.6209 145.32 51.6914 145.149 51.7618 144.973C51.8322 144.762 51.9378 144.484 52.0083 144.027C52.1139 143.539 52.1139 143.258 52.1139 143.012C52.1139 142.801 52.1139 142.625 52.1843 142.312L52.3956 141.508C52.6068 140.632 52.8142 139.863 52.9903 138.847C53.0959 138.359 53.0959 138.113 53.1311 137.867C53.1311 137.656 53.1663 137.48 53.2367 137.062C53.3072 136.675 53.3776 136.468 53.4128 136.292C53.4832 136.046 53.5536 135.839 53.6241 135.347C53.7297 134.894 53.7297 134.647 53.7649 134.401C53.8001 134.19 53.8001 133.983 53.8705 133.597C53.941 133.21 54.0114 133.073 54.0818 132.862C54.1522 132.651 54.2579 132.374 54.3635 131.881C54.4691 131.393 54.4691 131.147 54.5043 130.901C54.5043 130.69 54.5395 130.514 54.61 130.131C54.7156 129.678 54.7156 129.432 54.7508 129.221C54.786 129.01 54.786 128.803 54.8917 128.416C54.9621 128.03 55.0325 127.822 55.1029 127.647C55.1733 127.401 55.279 127.193 55.3846 126.666C55.5607 125.443 55.7367 124.603 56.0145 123.271C56.0849 122.99 56.1553 122.677 56.1906 122.396C56.3666 121.521 56.5075 120.751 57.1373 120.228C57.7672 119.669 58.5732 119.669 59.5904 119.704H60.3259C62.9902 119.599 65.3728 119.634 67.4033 119.669H68.9448C70.2045 119.669 71.3626 119.634 72.7632 119.74C75.1106 119.599 77.3524 119.599 79.8758 119.74C81.6638 119.669 83.2404 119.634 85.1692 119.634C85.5565 119.634 85.7287 119.669 85.9399 119.704C86.1864 119.74 86.429 119.775 86.9572 119.775C87.4462 119.775 87.7279 119.74 87.9391 119.704C88.1504 119.669 88.3265 119.634 88.7099 119.634C89.0933 119.634 89.3046 119.669 89.4806 119.704C89.7271 119.74 89.9697 119.775 90.4626 119.775C90.9556 119.775 91.2333 119.74 91.4446 119.704C91.6559 119.669 91.8319 119.634 92.2153 119.634C93.5807 119.634 94.5275 119.634 95.756 119.599C96.1433 119.599 96.5267 119.634 96.8788 119.634C97.6848 119.669 98.4203 119.704 99.3319 119.704C100.592 119.704 101.503 119.704 102.837 119.599C104.238 119.704 105.15 119.704 106.448 119.669C106.867 119.669 107.043 119.704 107.254 119.704C107.501 119.74 107.743 119.74 108.201 119.74C108.69 119.74 108.972 119.704 109.183 119.669C109.394 119.634 109.57 119.599 109.919 119.599C111.284 119.669 112.196 119.704 113.53 119.669C116.789 119.529 119.559 119.529 122.395 119.704C122.884 119.704 123.131 119.669 123.377 119.634C123.588 119.599 123.764 119.599 124.183 119.599C124.602 119.599 124.778 119.634 124.989 119.634C125.235 119.669 125.478 119.669 125.936 119.669C126.425 119.669 126.671 119.634 126.918 119.599C127.129 119.564 127.305 119.564 127.688 119.564C129.054 119.599 129.93 119.634 131.3 119.599C132.595 119.564 133.436 119.599 134.84 119.669L136.382 119.634C137.012 119.599 137.641 119.599 138.346 119.564C139.711 119.634 140.623 119.634 141.922 119.564C142.309 119.564 142.516 119.599 142.727 119.599C142.974 119.634 143.217 119.669 143.709 119.669C144.202 119.669 144.48 119.634 144.727 119.599C144.938 119.564 145.114 119.529 145.497 119.529C146.057 119.529 146.55 119.775 146.898 120.193C147.285 120.892 147.422 121.416 147.285 121.978L147.274 121.97ZM55.2164 178.308C54.7978 178.308 54.6217 178.273 54.4104 178.273C54.164 178.238 53.9214 178.203 53.4284 178.203C52.9355 178.203 52.7281 178.203 52.4817 178.238C52.2704 178.238 52.063 178.273 51.6405 178.273H49.8174C48.6241 178.273 47.5052 178.238 46.3119 178.273C44.4183 178.168 42.7712 178.168 40.9168 178.273C39.5866 178.238 38.6398 178.238 37.2705 178.238C35.9755 178.273 35.0639 178.308 33.6946 178.273C33.276 178.273 33.0647 178.238 32.8535 178.238C32.6422 178.203 32.4348 178.203 32.118 178.203H31.8715C31.3824 178.203 31.1007 178.238 30.8895 178.273C30.6782 178.308 30.5022 178.344 30.0835 178.344C29.6649 178.344 29.4536 178.344 29.2424 178.308C28.9959 178.273 28.7886 178.273 28.2604 178.273C26.9302 178.379 26.0538 178.379 24.7197 178.308C24.2307 178.308 24.0194 178.308 23.7729 178.344C23.5617 178.344 23.3543 178.379 22.9318 178.379C22.5445 178.379 22.3723 178.344 22.1611 178.308C21.9146 178.273 21.6368 178.203 21.1439 178.203C20.6509 178.203 20.3731 178.238 20.1266 178.273C19.9154 178.308 19.7393 178.344 19.3207 178.344H17.5328C17.1141 178.344 16.9029 178.308 16.7268 178.308C16.4803 178.273 16.2026 178.238 15.7448 178.238C15.0093 178.273 14.309 178.273 13.6087 178.273C12.5211 178.273 11.5078 178.273 10.4201 178.344L9.26209 178.308C8.45615 178.273 7.72063 178.273 6.80906 178.238H6.77385C6.10875 178.238 5.61579 177.75 5.58058 177.047C5.58058 176.66 5.54537 176.453 5.51016 176.277C5.51016 176.242 5.51016 176.207 5.47495 176.171C5.58058 176.171 5.72143 176.171 5.79185 176.207C6.10875 176.242 6.49216 176.242 6.87948 176.242C7.2981 176.242 7.50936 176.242 7.72063 176.277C7.96711 176.312 8.17446 176.312 8.66742 176.312C9.08604 176.312 9.2973 176.312 9.50857 176.347C9.75504 176.347 9.9624 176.382 10.4554 176.382C10.9796 176.382 11.2261 176.347 11.4726 176.312C11.6838 176.277 11.8599 176.242 12.2433 176.242C13.2253 176.242 13.9608 176.277 14.8372 176.312L15.8544 176.347C18.9725 176.277 21.9537 176.312 24.7549 176.347C25.2792 176.347 25.5257 176.312 25.7721 176.277C25.9834 176.242 26.1595 176.207 26.5429 176.207C26.9263 176.207 27.1376 176.242 27.3488 176.277C27.5953 176.312 27.8379 176.347 28.4012 176.347C28.8551 176.312 29.2776 176.277 29.6962 176.277C30.8543 176.242 31.938 176.207 33.1312 176.207H33.6907C35.6547 176.312 37.3018 176.312 39.0858 176.312C39.5749 176.312 39.8213 176.277 40.0678 176.277C40.2791 176.242 40.4864 176.242 40.8738 176.242C41.2611 176.242 41.4332 176.277 41.6445 176.312C41.891 176.347 42.1335 176.382 42.6617 176.382C43.1507 176.382 43.3972 176.347 43.6437 176.347C43.855 176.312 44.0623 176.312 44.4496 176.312H45.1852C45.4668 176.347 45.7446 176.347 46.0967 176.312C46.5506 176.312 47.0083 176.277 47.4621 176.277C47.6382 176.277 47.779 176.312 47.916 176.312C48.1624 176.347 48.405 176.382 48.898 176.382H51.6327C51.9848 176.382 52.2274 176.347 52.4034 176.347C52.9629 176.347 53.5262 176.312 54.1209 176.312H54.2266C54.473 176.347 54.7156 176.382 55.2086 176.382H56.1201C56.4722 176.382 56.7148 176.382 56.8909 176.347H57.0317C57.4855 176.312 57.9433 176.312 58.3971 176.277C59.4847 176.312 60.5332 176.347 61.5504 176.347C61.8321 176.347 62.1099 176.382 62.3916 176.418C63.3032 176.418 64.0387 176.382 64.8094 176.347L65.7562 176.312C65.8618 176.312 65.9323 176.312 66.0027 176.347C66.2492 176.382 66.4917 176.418 66.9847 176.418C67.3368 176.418 67.5794 176.418 67.7906 176.382C68.3501 176.382 68.8783 176.382 69.5081 176.347C69.9268 176.347 70.138 176.382 70.3141 176.382C70.5606 176.418 70.8031 176.453 71.3313 176.453C72.0668 176.382 72.8023 176.382 73.5378 176.347C73.7139 176.347 73.9252 176.382 74.1677 176.347C75.2201 176.382 76.0261 176.382 76.9377 176.347C77.4267 176.347 77.9197 176.382 78.4087 176.382C78.796 176.382 79.0034 176.382 79.1794 176.347C79.5981 176.347 80.0558 176.347 80.5448 176.312C80.7561 176.312 80.8969 176.347 80.9987 176.347C81.2451 176.382 81.4877 176.418 82.0159 176.418C82.3328 176.382 82.6105 176.382 82.9275 176.347H83.2091L83.5612 176.312H83.8429C84.3672 176.312 84.9306 176.277 85.5957 176.312C86.8554 176.277 87.7318 176.277 89.1363 176.312C89.5549 176.312 89.7662 176.347 89.9423 176.347C90.1887 176.382 90.4313 176.418 90.9243 176.418L91.6246 176.382C92.6066 176.347 93.4125 176.312 94.4297 176.312C95.8303 176.382 96.6715 176.418 98.0056 176.382C99.5823 176.453 101.018 176.382 102.524 176.347C102.665 176.347 102.771 176.347 102.912 176.382H103.052C103.471 176.347 103.858 176.347 104.277 176.312C104.801 176.312 105.294 176.347 105.783 176.347L106.977 176.382C107.466 176.382 107.712 176.347 107.959 176.312C108.099 176.312 108.24 176.312 108.412 176.347C109.042 176.347 109.672 176.347 110.306 176.382H112.129C112.935 176.382 113.741 176.347 114.582 176.312C114.723 176.312 114.829 176.347 114.934 176.347C115.181 176.382 115.423 176.418 115.916 176.418C116.828 176.418 117.528 176.382 118.334 176.382L119.422 176.347C121.663 176.558 123.768 176.453 125.904 176.347H126.393C126.746 176.347 127.094 176.382 127.446 176.382C127.692 176.418 127.935 176.453 128.428 176.453H130.216C130.67 176.453 130.916 176.418 131.163 176.382C131.339 176.418 131.55 176.418 131.863 176.418C132.352 176.418 132.634 176.382 132.88 176.347C132.915 176.347 132.986 176.347 133.021 176.312C133.862 176.312 134.633 176.347 135.615 176.347C136.033 176.347 136.245 176.347 136.491 176.382C136.632 176.382 136.808 176.382 137.015 176.418C136.98 176.593 136.91 176.804 136.91 177.187C136.91 177.64 136.734 177.886 136.593 178.027C136.174 178.48 135.857 178.48 135.016 178.379C134.699 178.344 134.386 178.308 133.964 178.308L133.612 178.344C132.454 178.414 131.648 178.484 130.423 178.449C130.005 178.449 129.829 178.414 129.617 178.414C129.371 178.379 129.128 178.344 128.635 178.344H126.812C125.447 178.379 124.57 178.344 123.236 178.273H121.448C119.625 178.273 117.908 178.308 116.053 178.344C114.793 178.379 113.917 178.308 112.689 178.238H112.477C111.988 178.238 111.742 178.273 111.495 178.308C111.284 178.344 111.108 178.344 110.725 178.344C109.848 178.308 109.007 178.308 108.201 178.344C107.254 178.344 106.343 178.379 105.329 178.308H102.458C101.022 178.344 99.6527 178.344 98.1464 178.273C97.6574 178.273 97.4109 178.308 97.1644 178.344C96.9532 178.379 96.7771 178.379 96.3585 178.379C95.9399 178.379 95.7638 178.344 95.5526 178.344C95.3061 178.308 95.0635 178.273 94.5706 178.273C94.0776 178.273 93.8702 178.273 93.6238 178.308C93.4125 178.308 93.2052 178.344 92.7826 178.344C91.9767 178.344 91.3116 178.308 90.6113 178.273C90.1927 178.273 89.7349 178.238 89.2107 178.238C88.6864 178.238 88.4399 178.273 88.1935 178.308C87.9822 178.344 87.8061 178.379 87.4227 178.379C87.0041 178.379 86.828 178.344 86.6168 178.308C86.3703 178.273 86.1277 178.238 85.6348 178.238C83.5691 178.203 82.0237 178.238 80.3101 178.308C78.9799 178.238 78.0683 178.168 76.6325 178.203C73.933 178.344 71.7616 178.379 69.5199 178.308C69.1013 178.308 68.9252 178.273 68.7139 178.273C68.4675 178.238 68.2249 178.203 67.7319 178.203C67.2077 178.203 66.9612 178.238 66.7147 178.273C66.5035 178.308 66.3274 178.344 65.944 178.344C65.5606 178.344 65.3493 178.308 65.1381 178.273C64.8916 178.238 64.649 178.203 64.1209 178.203C63.5927 178.203 63.3501 178.238 63.1036 178.273C62.8924 178.308 62.7163 178.344 62.3681 178.344L61.8439 178.308C59.6021 178.203 57.4621 178.133 55.2203 178.308H55.2164Z" fill="#454138"/>
<path d="M144.363 121.9C143.944 121.9 143.733 121.9 143.522 121.865C143.275 121.865 143.033 121.83 142.575 121.83C141.21 121.9 140.333 121.9 139.105 121.9C137.493 121.794 136.127 121.83 134.617 121.9L133.741 121.935C132.375 121.865 131.464 121.865 130.165 121.935C129.148 121.9 128.201 121.9 127.325 121.935H125.466C125.431 121.935 125.431 121.9 125.396 121.9C125.255 121.865 125.114 121.865 124.977 121.935H124.801C123.749 121.935 122.978 121.9 121.996 121.865L121.225 121.83C119.966 121.865 119.124 121.865 117.685 121.794C117.196 121.794 116.949 121.83 116.703 121.865C116.491 121.9 116.315 121.9 115.897 121.9C115.478 121.9 115.267 121.9 115.056 121.865C114.809 121.865 114.602 121.83 114.109 121.83C113.616 121.83 113.373 121.865 113.127 121.9C112.915 121.935 112.739 121.935 112.321 121.935C111.933 121.935 111.726 121.9 111.515 121.865C111.268 121.83 111.026 121.794 110.533 121.794C110.04 121.794 109.797 121.83 109.586 121.83C109.375 121.865 109.167 121.865 108.851 121.865C106.957 121.724 105.38 121.759 103.491 121.865L102.579 121.83C101.108 121.759 99.6722 121.724 98.1269 121.794C97.7082 121.794 97.497 121.794 97.2857 121.759C97.0392 121.724 96.8319 121.724 96.3389 121.724C95.846 121.724 95.5682 121.759 95.3217 121.794C95.1105 121.83 94.9344 121.865 94.551 121.865C94.1676 121.865 93.9563 121.83 93.7803 121.794C93.5338 121.759 93.256 121.724 92.7631 121.724C91.5385 121.794 90.5917 121.83 89.2576 121.83C88.8703 121.83 88.6629 121.794 88.4517 121.794C88.2052 121.759 87.9626 121.724 87.4697 121.724C86.9767 121.724 86.7341 121.759 86.4877 121.759C86.2764 121.794 86.069 121.794 85.6817 121.794C85.2944 121.794 85.0871 121.759 84.8758 121.759C84.6293 121.724 84.3867 121.689 83.8938 121.689C83.4008 121.689 83.1583 121.724 82.9118 121.759C82.7005 121.794 82.5245 121.794 82.1059 121.794C81.6872 121.794 81.476 121.794 81.2647 121.759C81.0182 121.724 80.8109 121.724 80.3179 121.724C79.825 121.724 79.6176 121.759 79.3711 121.759C79.1599 121.759 78.9525 121.794 78.53 121.794C78.1427 121.794 77.9353 121.759 77.7592 121.724C77.5128 121.689 77.2702 121.654 76.7773 121.654C75.8305 121.619 74.9189 121.689 74.0777 121.724C73.2014 121.759 72.3602 121.794 71.4839 121.794C69.9072 121.759 68.3657 121.759 66.8243 121.759C64.8603 121.759 62.865 121.724 60.8306 121.689C60.3767 121.689 60.1303 121.689 59.8838 121.724C59.6725 121.724 59.4652 121.759 59.0426 121.759C58.5536 121.759 58.1663 122.076 58.0959 122.529C57.9902 123.017 57.9902 123.228 57.955 123.474C57.9198 123.685 57.9198 123.892 57.8494 124.279C57.7789 124.666 57.7085 124.873 57.6381 125.049C57.5677 125.26 57.4621 125.502 57.3564 126.029L56.797 129.53C56.7265 129.916 56.6561 130.123 56.5857 130.334C56.5153 130.581 56.4448 130.788 56.3392 131.245C56.0575 132.608 55.8854 133.518 55.7093 134.745C55.6389 135.132 55.5685 135.339 55.4981 135.515C55.4276 135.761 55.322 135.968 55.2164 136.495C55.0051 137.788 54.8291 138.663 54.5513 140.031C54.4104 141.254 54.1992 142.375 53.9566 143.531C53.851 144.09 53.7453 144.652 53.6045 145.246L53.5693 145.352C53.358 146.574 53.182 147.45 52.9394 148.747C52.869 149.133 52.7985 149.27 52.7281 149.481C52.6577 149.692 52.5521 149.969 52.4464 150.426C52.3408 150.95 52.3408 151.231 52.3408 151.477C52.3408 151.688 52.3408 151.864 52.2704 152.212C52.0943 152.981 51.9535 153.61 51.7813 154.275C51.6757 154.693 51.5701 155.15 51.4292 155.673C51.3236 156.197 51.3236 156.478 51.3236 156.724C51.3236 156.935 51.3236 157.111 51.2532 157.458C51.1828 157.877 51.1123 158.052 51.0419 158.263C50.9715 158.509 50.9011 158.716 50.8306 159.174C50.549 160.467 50.3768 161.342 50.1655 162.709C50.0951 163.127 50.0247 163.338 49.9543 163.514C49.8839 163.725 49.8134 163.967 49.7078 164.424C49.4261 165.788 49.3205 166.768 49.1836 167.924C48.8667 169.253 48.6945 170.163 48.4832 171.46C48.4128 171.878 48.5889 172.159 48.6945 172.3C49.0818 172.718 49.6061 172.652 50.1303 172.581C50.412 172.546 50.725 172.511 50.9715 172.546H51.0771C51.6718 172.546 52.1648 172.581 52.6186 172.616C53.2485 172.652 53.8784 172.687 54.653 172.687C55.142 172.687 55.3885 172.652 55.635 172.616C55.8463 172.581 56.0223 172.546 56.4409 172.546H58.2289C58.6162 172.546 58.8235 172.581 59.0348 172.616C59.2813 172.652 59.5239 172.687 60.0168 172.687C60.5098 172.687 60.7523 172.652 60.9636 172.652C61.1749 172.616 61.3822 172.616 61.7695 172.616H63.5575C63.9448 172.616 64.1521 172.652 64.3634 172.652C64.6099 172.687 64.8525 172.722 65.3454 172.722C65.8384 172.722 66.1161 172.687 66.3274 172.652C66.5387 172.616 66.7147 172.581 67.0629 172.581H67.2038C68.4635 172.652 69.3399 172.687 70.6388 172.687C72.0042 172.722 72.9158 172.652 74.2147 172.581C74.6333 172.581 74.8093 172.616 75.0206 172.616C75.2671 172.652 75.5097 172.652 75.9674 172.652C76.4251 172.652 76.6677 172.652 76.9142 172.616C77.1255 172.616 77.3328 172.581 77.7553 172.581C78.9799 172.546 79.8211 172.546 80.9791 172.581H81.296C83.7138 172.581 85.9204 172.616 88.4086 172.652C88.9329 172.652 89.4258 172.616 89.9149 172.616C91.1746 172.581 92.3327 172.546 93.6981 172.616C94.1519 172.616 94.3984 172.616 94.6449 172.581C94.8562 172.581 95.0635 172.546 95.486 172.546C95.8734 172.546 96.0807 172.581 96.292 172.581C96.5385 172.616 96.781 172.652 97.274 172.652C97.7669 172.652 98.0447 172.616 98.256 172.581C98.4672 172.546 98.6433 172.511 99.0267 172.511C99.4101 172.511 99.6214 172.546 99.8326 172.546C100.079 172.581 100.322 172.616 100.815 172.616C102.11 172.581 103.021 172.546 104.355 172.581C104.809 172.581 105.056 172.546 105.302 172.546C105.513 172.546 105.721 172.511 106.143 172.511C106.566 172.511 106.773 172.546 106.949 172.546C107.196 172.581 107.438 172.581 107.896 172.581C109.121 172.616 110.067 172.616 111.437 172.581C112.802 172.652 113.714 172.652 115.013 172.581C115.502 172.581 115.748 172.546 115.959 172.546C116.171 172.511 116.378 172.511 116.765 172.511C117.153 172.511 117.36 172.546 117.536 172.581C117.782 172.616 118.025 172.652 118.518 172.652C119.011 172.652 119.253 172.616 119.5 172.581C119.711 172.546 119.887 172.546 120.306 172.546C120.725 172.546 120.936 172.546 121.147 172.581C121.394 172.616 121.636 172.616 122.094 172.616C122.583 172.616 122.865 172.581 123.076 172.546C123.287 172.511 123.463 172.476 123.847 172.476C124.406 172.476 124.934 172.511 125.423 172.546C126.053 172.581 126.683 172.616 127.422 172.616H129.559C130.611 172.616 131.624 172.581 132.747 172.652C133.236 172.652 133.518 172.616 133.764 172.581C133.976 172.546 134.152 172.511 134.535 172.511C135.271 172.511 135.411 171.917 135.447 171.776C135.728 170.097 136.006 168.593 136.499 166.561C136.746 165.475 136.953 164.498 137.164 163.483C137.305 162.783 137.446 162.049 137.618 161.244C137.864 159.494 138.142 157.919 138.635 156.029C138.882 154.736 139.022 153.825 139.195 152.493C139.265 152.075 139.335 151.864 139.371 151.618C139.406 151.407 139.476 151.165 139.547 150.743C139.617 150.356 139.688 150.149 139.758 149.973C139.828 149.762 139.934 149.485 140.005 148.993C140.216 147.907 140.392 146.825 140.599 145.738C140.916 143.848 141.229 142.097 141.652 140.211C141.933 138.917 142.105 138.007 142.317 136.71C142.598 135.452 142.806 134.542 143.017 133.175C143.087 132.757 143.158 132.581 143.228 132.37C143.299 132.124 143.369 131.917 143.475 131.424C143.58 130.936 143.58 130.69 143.616 130.444C143.616 130.233 143.651 130.057 143.721 129.709C144.073 128.381 144.245 127.471 144.422 126.174L145.087 122.638C145.122 122.252 145.016 122.009 144.875 121.869C144.84 122.009 144.594 121.904 144.351 121.904L144.363 121.9ZM135.603 139.011C135.568 138.941 135.533 138.906 135.497 138.835C135.568 138.765 135.603 138.73 135.638 138.66C135.709 138.484 135.814 138.449 135.814 138.449C135.85 138.449 136.061 138.554 136.167 138.867C136.237 139.078 136.166 139.32 135.955 139.531C135.885 139.636 135.779 139.707 135.674 139.777C135.709 139.496 135.674 139.253 135.603 139.007V139.011ZM135.92 136.144C135.897 136.144 135.873 136.155 135.85 136.179C135.603 136.284 135.361 136.632 135.361 136.913C135.361 136.984 135.361 137.019 135.325 137.054C134.907 137.195 134.555 137.507 134.308 137.964C134.167 138.21 134.203 138.488 134.379 138.734C134.167 138.945 134.097 139.222 134.203 139.503C134.379 139.992 133.537 141.218 132.555 141.601C132.168 141.777 131.573 141.812 130.873 141.812L130.419 141.847C129.86 141.883 129.367 141.918 129.054 141.812C128.635 141.672 128.107 141.426 127.896 140.937C127.72 140.484 127.896 139.957 128.072 139.574C128.248 139.222 128.107 138.769 127.755 138.558C127.685 138.523 127.649 138.523 127.579 138.523C127.649 138.488 127.72 138.453 127.755 138.382C128.001 138.066 127.966 137.577 127.649 137.331C127.579 137.261 127.473 137.226 127.403 137.191C127.438 137.085 127.438 136.945 127.473 136.839C127.544 137.085 127.685 137.292 127.892 137.433C128.138 137.609 128.381 137.679 128.627 137.679C129.015 137.679 129.363 137.468 129.645 137.261C129.75 137.331 129.856 137.366 129.997 137.402C130.873 137.577 131.433 136.948 132.031 136.109C132.767 136.144 133.467 136.144 134.203 136.144H134.308C134.59 136.144 134.903 136.144 135.22 136.109C135.431 136.144 135.674 136.144 135.92 136.144ZM131.609 159.064C131.609 159.134 131.644 159.205 131.644 159.31H131.503C131.538 159.24 131.573 159.134 131.609 159.064ZM131.292 158.013C130.904 157.837 130.486 158.013 130.31 158.365C130.098 158.783 130.028 158.923 129.785 159.275C129.539 159.275 129.398 159.31 129.226 159.345C129.015 159.381 128.839 159.416 128.526 159.416C127.125 159.31 125.861 159.345 124.566 159.381H124.461C124.39 158.963 124.426 158.857 124.426 158.822C124.602 158.435 124.426 158.017 124.038 157.841C123.862 157.771 123.651 157.771 123.479 157.841C123.584 157.666 123.69 157.525 123.76 157.49C124.042 157.384 124.32 157.279 124.566 157.173C125.126 156.962 125.619 156.755 126.002 156.544C126.456 156.72 127.019 156.79 127.614 156.79C128.103 156.79 128.596 156.72 129.015 156.615C129.05 156.65 129.085 156.65 129.12 156.65C130.521 157.173 131.12 157.419 131.397 158.119C131.397 158.084 131.327 158.048 131.292 158.013ZM127.297 164.24C127.297 164.276 127.262 164.276 127.262 164.311C127.227 164.381 127.227 164.522 127.192 164.592C127.156 164.803 127.156 164.979 127.086 165.08C127.086 165.08 127.086 165.116 127.051 165.116C126.945 165.291 126.699 165.362 126.21 165.362C125.721 165.362 125.509 165.291 125.474 165.256C125.474 165.256 125.439 165.186 125.474 164.869V164.764C125.474 164.658 125.474 164.588 125.439 164.483C125.509 164.448 125.58 164.412 125.615 164.377C125.65 164.412 125.685 164.412 125.721 164.448C126.28 164.729 126.808 164.658 127.297 164.237V164.24ZM126.073 166.831H126.249C126.249 167.077 126.284 167.284 126.319 167.46C126.143 167.495 125.932 167.495 125.76 167.46C125.936 167.249 126.006 167.038 126.077 166.831H126.073ZM126.738 162.631C126.738 162.631 126.738 162.666 126.703 162.666C126.667 162.631 126.632 162.596 126.597 162.596C126.35 162.42 125.967 162.42 125.685 162.561C125.58 162.631 125.474 162.701 125.404 162.736C125.368 162.631 125.333 162.525 125.263 162.42C125.857 162.209 126.421 162.244 126.875 162.385C126.839 162.49 126.769 162.561 126.734 162.631H126.738ZM122.462 140.41C122.602 139.851 122.708 139.253 122.849 138.66C123.025 137.82 123.201 137.05 123.338 136.28C123.338 136.245 123.338 136.21 123.373 136.14C123.479 136.14 123.549 136.175 123.655 136.175C123.901 136.21 124.144 136.245 124.602 136.245C125.091 136.245 125.372 136.21 125.584 136.175C125.76 136.14 125.936 136.14 126.214 136.105C126.108 136.386 126.002 136.698 125.967 137.05C125.861 137.085 125.756 137.12 125.65 137.226C124.879 137.784 124.563 139.011 124.879 139.886C125.267 141.109 125.58 141.461 126.667 141.672C126.879 142.09 127.192 142.441 127.614 142.723C127.332 143.422 126.914 144.297 126.354 144.82C126.319 144.856 126.284 144.891 126.249 144.926C125.897 145.207 125.408 145.414 124.742 145.66C123.866 146.047 122.814 146.254 121.484 146.289H121.343C121.519 145.555 121.66 144.82 121.796 143.875C121.937 142.683 122.184 141.566 122.462 140.41ZM137.567 129.319C137.461 129.705 137.25 129.877 136.972 130.018L136.796 130.088C136.867 129.807 136.902 129.565 136.972 129.319C137.008 129.248 137.113 128.866 137.325 128.866H137.36C137.465 128.936 137.641 129.077 137.571 129.319H137.567ZM134.308 131.245C133.537 131.526 132.102 131.596 131.296 131.245C131.19 131.174 131.084 131.139 131.014 131.069C131.331 131.069 131.679 130.999 131.996 130.858C132.313 130.717 132.555 130.506 132.767 130.299C133.084 130.823 133.643 131.139 134.308 131.139C134.414 131.139 134.484 131.139 134.555 131.104C134.484 131.139 134.414 131.21 134.308 131.245ZM132.309 143.211C132.309 143.246 132.309 143.281 132.344 143.351C132.379 143.633 132.415 143.91 132.45 144.227L132.485 144.402C132.52 144.649 132.555 144.926 132.626 145.172C131.82 145.383 131.014 145.524 130.243 145.559C129.472 145.488 128.631 145.348 128.001 145.172C128.42 144.543 128.737 143.879 128.983 143.316C129.23 143.351 129.472 143.387 129.719 143.387C129.965 143.387 130.243 143.387 130.525 143.351L130.944 143.316C131.397 143.281 131.89 143.281 132.309 143.211ZM126.491 138.417C126.527 138.382 126.562 138.347 126.738 138.488C126.808 138.558 126.914 138.593 127.019 138.628C126.914 138.699 126.843 138.769 126.773 138.874C126.597 139.226 126.491 139.539 126.421 139.82C126.386 139.714 126.315 139.574 126.28 139.367C126.104 139.05 126.28 138.597 126.491 138.421V138.417ZM134.304 129.6C134.093 129.6 134.023 129.53 134.023 129.495C133.952 129.354 133.952 129.041 134.128 128.795C134.199 128.69 134.339 128.514 134.582 128.514C134.723 128.514 134.828 128.584 134.828 128.584C134.899 128.655 134.934 128.795 134.899 128.971C134.899 129.358 134.617 129.6 134.304 129.6ZM130.728 129.495V129.389C130.764 129.178 130.728 129.002 130.728 128.83C130.869 128.655 131.116 128.549 131.323 128.549H131.393C131.746 128.584 131.781 128.795 131.781 129.002C131.746 129.248 131.534 129.389 131.393 129.42C131.112 129.561 130.869 129.561 130.728 129.491V129.495ZM128.976 128.795C129.011 128.795 129.046 128.76 129.046 128.76C129.07 128.76 129.093 128.772 129.116 128.795C129.116 128.866 129.081 128.936 129.081 129.041C129.046 129.323 129.081 129.6 129.152 129.846V129.916C128.905 129.67 128.8 129.463 128.8 129.147C128.8 128.971 128.87 128.83 128.976 128.795ZM132.935 127.92C132.9 127.85 132.864 127.815 132.829 127.779H133.076C133.005 127.815 132.97 127.885 132.935 127.92ZM129.535 131.733H129.57C129.782 132.049 130.095 132.292 130.482 132.503V132.678C130.095 132.678 129.711 132.714 129.359 132.749C129.429 132.397 129.5 132.049 129.535 131.733ZM119.864 153.778C119.934 153.532 120.005 153.29 120.11 152.763C120.286 151.399 120.427 150.559 120.74 149.262C120.846 148.809 120.846 148.563 120.881 148.317C120.881 148.176 120.916 148 120.951 147.793H123.369C124.457 147.793 125.611 147.793 126.769 147.829C125.963 148.215 125.439 149.02 125.263 150.032H125.228C124.809 150.278 124.563 150.731 124.598 151.188C124.598 151.747 124.668 152.309 125.052 152.692C125.016 152.763 125.016 152.833 124.981 152.938C124.876 153.29 124.77 153.708 124.664 154.095C124.594 154.341 124.559 154.583 124.488 154.829C124.418 155.111 124.347 155.458 124.277 155.669C124.206 155.704 124.136 155.74 124.03 155.775C123.749 155.88 123.436 155.986 123.084 156.126C123.048 156.126 123.013 156.161 122.978 156.197C122.243 156.65 121.437 158.365 121.084 159.381H118.667C118.948 158.33 119.156 157.49 119.367 156.337C119.473 155.884 119.473 155.638 119.508 155.392C119.543 155.181 119.543 154.974 119.649 154.552C119.719 154.165 119.789 153.958 119.86 153.782L119.864 153.778ZM127.082 152.028C127.082 151.993 127.047 151.993 127.047 151.958C127.047 151.888 127.012 151.747 127.082 151.505V151.399C127.082 151.153 127.047 150.946 126.976 150.77C127.188 150.7 127.364 150.665 127.571 150.63C127.888 150.559 128.271 150.454 128.624 150.278C128.764 150.524 128.905 150.837 129.011 151.259V151.294C128.976 151.681 128.94 151.852 128.8 151.993C128.694 152.099 128.412 152.134 127.888 152.169C127.364 152.134 127.117 152.063 127.082 152.028ZM127.818 153.603H127.994C127.958 154.126 127.958 154.724 128.099 155.282C127.818 155.318 127.505 155.318 127.258 155.282C127.469 154.829 127.645 154.302 127.818 153.603ZM122.947 158.818V159.412H122.665C122.771 159.236 122.841 159.025 122.947 158.818ZM131.636 134.636C131.812 134.077 131.918 133.479 131.988 132.921C132.235 132.956 132.512 132.991 132.759 132.991C133.005 132.991 133.248 132.956 133.494 132.956V133.307C133.459 133.796 133.459 134.253 133.459 134.741C132.829 134.706 132.266 134.706 131.636 134.636ZM134.965 132.538C135.419 132.327 135.771 132.049 136.018 131.733H136.405C136.37 131.874 136.37 131.979 136.335 132.12C136.3 132.366 136.229 132.608 136.159 132.925C135.771 132.784 135.388 132.714 134.965 132.608C134.965 132.608 134.965 132.573 134.965 132.538ZM136.472 127.639C136.018 126.834 135.314 126.346 134.508 126.24C134.472 126.135 134.437 126.064 134.402 125.889C134.332 125.572 134.015 125.33 133.702 125.33H133.667C133.35 125.33 133.037 125.576 132.896 125.889C132.825 126.064 132.79 126.17 132.72 126.307V126.342H132.579C131.703 126.342 130.756 126.342 130.055 127.041C130.372 126.272 130.826 125.643 131.386 125.256C132.262 124.662 133.42 124.486 134.856 124.767C135.697 124.838 136.644 125.221 136.679 127.569C136.609 127.533 136.538 127.569 136.468 127.639H136.472ZM127.36 123.439C128.236 123.439 129.148 123.404 130.2 123.439C130.795 123.404 131.323 123.404 131.812 123.404C131.358 123.545 130.936 123.72 130.552 123.998C129.465 124.732 128.729 125.959 128.346 127.463C127.751 127.744 127.364 128.338 127.329 129.108C127.329 130.018 127.747 130.542 128.099 130.963L128.17 131.034C128.029 131.733 127.853 132.714 127.818 133.378C127.782 133.694 127.888 133.901 127.994 134.042C128.134 134.218 128.412 134.358 128.624 134.358H128.729L128.87 134.323C129.187 134.288 129.711 134.218 130.235 134.183C130.165 134.393 130.095 134.601 130.024 134.812H128.06C127.673 134.812 127.501 134.776 127.289 134.741C127.043 134.706 126.8 134.671 126.307 134.671C125.814 134.671 125.537 134.706 125.325 134.741C125.114 134.776 124.938 134.812 124.555 134.812C124.171 134.812 123.96 134.776 123.784 134.776C123.749 134.776 123.678 134.776 123.643 134.741C123.714 134.323 123.819 133.901 123.925 133.448C124.136 132.538 124.277 131.663 124.414 130.858C124.555 129.948 124.696 129.108 124.903 128.127C125.009 127.533 125.114 126.936 125.22 126.377C125.396 125.396 125.572 124.486 125.814 123.509C126.304 123.439 126.832 123.439 127.356 123.439H127.36ZM52.4738 159.76C52.5442 159.342 52.6147 159.166 52.6851 158.955C52.7555 158.709 52.8259 158.502 52.8964 158.044C53.002 157.556 53.002 157.275 53.002 156.994C53.002 156.783 53.002 156.607 53.0724 156.259C53.178 155.771 53.3189 155.314 53.4245 154.896C53.6006 154.232 53.7766 153.567 53.9488 152.763C54.0544 152.274 54.0544 151.993 54.0544 151.712C54.0544 151.501 54.0544 151.325 54.1248 150.977C54.1953 150.63 54.2657 150.454 54.3361 150.243C54.4417 149.997 54.5122 149.755 54.6178 149.262C54.8643 148.004 55.0364 147.094 55.2477 145.867L55.2829 145.762C55.3885 145.168 55.4941 144.606 55.5998 144.082C55.8463 142.891 56.0536 141.738 56.1945 140.511C56.4761 139.218 56.6483 138.308 56.8596 137.011C56.93 136.624 57.0004 136.452 57.0708 136.241C57.1412 136.03 57.2469 135.753 57.3525 135.226C57.5638 133.968 57.7046 133.093 57.9824 131.76C58.0528 131.374 58.1232 131.167 58.1937 130.956C58.2641 130.709 58.3345 130.502 58.4401 129.975L58.9996 126.475C59.07 126.088 59.1404 125.881 59.2109 125.705C59.2813 125.494 59.3869 125.217 59.4573 124.724C59.563 124.236 59.563 124.025 59.5982 123.779C59.5982 123.674 59.6334 123.568 59.6334 123.392C59.8447 123.392 59.9855 123.392 60.1224 123.357C60.3337 123.357 60.5411 123.322 60.9636 123.322C62.998 123.357 64.9581 123.357 66.9573 123.392C68.4987 123.392 70.0402 123.427 71.6169 123.427C72.5637 123.427 73.4752 123.392 74.3164 123.357C75.1928 123.322 75.9987 123.287 76.9455 123.287C77.3328 123.287 77.5402 123.322 77.7162 123.357C77.9627 123.392 78.2053 123.427 78.6982 123.427C79.1912 123.427 79.3985 123.392 79.645 123.392C79.8563 123.392 80.0636 123.357 80.4861 123.357C80.9087 123.357 81.116 123.357 81.3273 123.392C81.5738 123.427 81.7811 123.427 82.2741 123.427C82.767 123.427 83.0096 123.392 83.2561 123.357C83.4673 123.322 83.6434 123.322 84.062 123.322C84.4493 123.322 84.6567 123.357 84.868 123.357C85.1144 123.392 85.357 123.427 85.85 123.427C86.3429 123.427 86.5855 123.392 86.7967 123.392C87.008 123.357 87.2154 123.357 87.6027 123.357C87.99 123.357 88.1974 123.392 88.4086 123.392C88.6551 123.427 88.8977 123.463 89.3906 123.463C90.7912 123.463 91.738 123.392 92.9313 123.357C93.3186 123.357 93.526 123.392 93.702 123.427C93.9485 123.463 94.1911 123.498 94.684 123.498C95.177 123.498 95.4547 123.463 95.7012 123.427C95.9125 123.392 96.0885 123.357 96.4719 123.357C96.8906 123.357 97.1018 123.357 97.3131 123.392C97.5596 123.392 97.8021 123.427 98.2951 123.427C99.8013 123.322 101.135 123.392 102.642 123.463L103.624 123.498C105.517 123.392 107.059 123.322 108.882 123.498C109.371 123.498 109.617 123.463 109.829 123.463C110.04 123.427 110.247 123.427 110.635 123.427C111.022 123.427 111.229 123.463 111.405 123.498C111.652 123.533 111.894 123.568 112.387 123.568C112.88 123.568 113.123 123.533 113.369 123.498C113.581 123.463 113.757 123.463 114.175 123.463C114.594 123.463 114.805 123.463 115.016 123.498C115.263 123.498 115.47 123.533 115.963 123.533C116.456 123.533 116.699 123.498 116.945 123.463C117.156 123.427 117.333 123.427 117.716 123.427C119.152 123.498 120.063 123.498 121.292 123.463L121.992 123.498C122.798 123.533 123.498 123.568 124.34 123.568C124.128 124.443 123.952 125.318 123.815 126.193C123.71 126.752 123.604 127.315 123.498 127.908C123.287 128.889 123.111 129.799 122.974 130.709C122.833 131.514 122.692 132.354 122.52 133.194C122.274 134.245 122.066 135.226 121.89 136.167C121.75 136.937 121.609 137.706 121.437 138.511C121.296 139.105 121.19 139.667 121.049 140.226C120.768 141.418 120.525 142.535 120.349 143.832C120.138 145.195 119.93 146.106 119.649 147.332C119.543 147.821 119.543 148.032 119.508 148.278C119.473 148.489 119.473 148.696 119.402 149.083C119.085 150.376 118.913 151.286 118.737 152.653C118.667 153.04 118.596 153.247 118.526 153.458C118.455 153.704 118.385 153.946 118.279 154.439C118.174 154.892 118.174 155.138 118.138 155.384C118.103 155.595 118.103 155.802 117.998 156.224C117.751 157.482 117.544 158.322 117.227 159.584L117.156 160.002C116.98 161.158 116.875 161.998 116.632 163.186C116.108 163.186 115.65 163.151 115.196 163.151C114.637 163.115 114.074 163.115 113.373 163.08C112.884 163.08 112.638 163.115 112.391 163.151C112.18 163.186 111.973 163.221 111.585 163.221C111.198 163.221 110.991 163.186 110.779 163.151C110.533 163.115 110.29 163.08 109.797 163.08C109.304 163.08 109.062 163.115 108.815 163.151C108.604 163.186 108.397 163.186 108.009 163.186C107.622 163.186 107.45 163.151 107.239 163.115C106.992 163.08 106.714 163.01 106.221 163.01C105.697 163.01 105.451 163.045 105.204 163.08C104.993 163.115 104.817 163.151 104.434 163.151H102.786C102.681 163.08 102.575 163.045 102.434 163.08C101.104 163.115 95.5643 163.115 94.2341 163.045C92.3405 163.045 90.7639 163.045 88.8742 163.08H87.9978C87.7514 163.08 87.544 163.045 87.0863 163.045C86.5972 163.045 86.3155 163.08 86.069 163.115C85.8578 163.151 85.6817 163.186 85.2983 163.186C84.8797 163.186 84.6684 163.186 84.4572 163.151C84.2107 163.115 83.9681 163.115 83.5104 163.115C83.0918 163.115 82.8805 163.115 82.6692 163.08C82.4228 163.045 82.2154 163.045 81.7224 163.045C81.2295 163.045 80.9869 163.08 80.7405 163.115C80.5292 163.151 80.3531 163.186 79.9345 163.186C79.5472 163.186 79.3398 163.151 79.1638 163.115C78.9173 163.08 78.6747 163.045 78.1818 163.045C77.6888 163.045 77.4463 163.08 77.1998 163.115C76.9885 163.151 76.8125 163.151 76.3938 163.151H76.253C76.1474 163.08 76.0417 163.045 75.9009 163.045H75.4118C75.2006 163.01 74.958 162.975 74.6059 162.975C74.1169 162.975 73.8352 163.01 73.5887 163.045C72.6419 163.045 71.523 163.08 70.4001 163.08C67.8767 163.115 65.3532 163.151 64.9346 163.151C64.516 163.151 64.3399 163.151 64.1287 163.115C63.8822 163.08 63.6748 163.08 63.1819 163.08C62.7633 163.08 62.5872 163.08 62.3759 163.045C62.1295 163.01 61.9221 163.01 61.4292 163.01C60.9362 163.01 60.6936 163.045 60.4472 163.08C60.2711 163.115 60.0598 163.151 59.6764 163.151C59.293 163.151 59.117 163.115 58.9057 163.08C58.6592 163.045 58.4167 163.01 57.9237 163.01C57.4308 163.01 57.1882 163.045 56.9769 163.08C56.7657 163.115 56.5896 163.115 56.2062 163.115C55.8228 163.115 55.6819 163.08 55.4707 163.045C55.2242 163.01 54.9816 162.94 54.4535 162.94C53.9644 162.94 53.6827 162.975 53.4715 163.01C53.2602 163.045 53.0841 163.08 52.7007 163.08H51.8244C52.0709 161.787 52.243 160.947 52.4895 159.756L52.4738 159.76ZM81.1747 171.308C80.0167 171.272 79.1403 171.272 77.9157 171.308C77.4619 171.308 77.2154 171.308 76.969 171.343C76.7577 171.343 76.5503 171.378 76.1278 171.378C75.7053 171.378 75.5331 171.343 75.3219 171.343H75.2514C75.3571 170.854 75.4275 170.397 75.5331 169.944C75.7092 168.999 75.8852 168.089 76.0926 167.108C76.3039 167.108 76.4447 167.073 76.5464 167.038C76.7577 167.002 76.9337 166.967 77.2819 166.967C78.5769 167.002 79.4885 167.002 80.7874 166.967C81.1747 166.967 81.3469 167.002 81.5581 167.002C81.8046 167.038 82.0472 167.108 82.4697 167.073C83.6278 167.143 84.6763 167.108 85.6935 167.073C86.3586 167.038 86.9884 167.038 87.7279 167.038C88.1152 167.038 88.3226 167.038 88.5338 167.073H88.7451C88.569 168.229 88.3265 169.311 88.08 170.468C88.0096 170.784 87.9391 171.097 87.8687 171.448C85.6974 171.413 83.6982 171.378 81.5268 171.378L81.1747 171.308ZM111.628 171.378C110.263 171.413 109.316 171.413 108.088 171.378C107.669 171.378 107.493 171.343 107.282 171.343C107.035 171.308 106.793 171.308 106.335 171.308C105.846 171.308 105.635 171.343 105.388 171.343C105.177 171.343 104.97 171.378 104.582 171.378C103.217 171.343 102.305 171.378 101.006 171.413C100.619 171.413 100.412 171.378 100.2 171.378C99.9539 171.343 99.7114 171.308 99.2184 171.308C98.7255 171.308 98.4477 171.343 98.2364 171.378C98.0251 171.413 97.8491 171.448 97.4305 171.448C97.0431 171.448 96.8358 171.413 96.6245 171.413C96.3781 171.378 96.1355 171.343 95.6425 171.343C95.1887 171.343 94.9422 171.343 94.6958 171.378C94.4845 171.378 94.2771 171.413 93.8898 171.413C92.5244 171.308 91.2959 171.378 90.0009 171.413C89.7897 171.413 89.5471 171.413 89.3358 171.448C89.3711 171.237 89.4415 171.03 89.4767 170.819C89.7936 169.421 90.0714 168.124 90.2826 166.655C90.3178 166.409 90.2474 166.131 90.1066 165.956C89.9305 165.745 89.688 165.639 89.4063 165.639C88.9877 165.639 88.7764 165.639 88.5651 165.604C88.3539 165.604 88.1113 165.569 87.6535 165.569C86.918 165.569 86.2529 165.604 85.5878 165.639C84.5706 165.674 83.5886 165.709 82.4697 165.639C82.0824 165.639 81.875 165.604 81.699 165.604C81.4525 165.569 81.2099 165.569 80.717 165.534C79.4572 165.569 78.5808 165.569 77.2819 165.534C76.7929 165.534 76.5112 165.569 76.2999 165.604C76.0887 165.639 75.9126 165.674 75.5644 165.674C75.3532 165.674 75.1106 165.745 74.9698 165.885C74.8641 165.991 74.7937 166.166 74.7585 166.303C74.4416 167.526 74.2694 168.577 74.0582 169.733C73.9525 170.292 73.8469 170.854 73.7413 171.413C72.7241 171.483 71.9181 171.519 70.7992 171.483C69.5394 171.483 68.6631 171.448 67.4346 171.378H67.2233C66.7343 171.378 66.4526 171.413 66.2413 171.448C66.0301 171.483 65.854 171.519 65.4706 171.519C65.0872 171.519 64.8759 171.483 64.6647 171.483C64.4182 171.448 64.1756 171.413 63.6827 171.413H61.9299C61.4409 171.413 61.2296 171.448 60.9832 171.448C60.7719 171.483 60.5645 171.483 60.1772 171.483C59.7899 171.483 59.5825 171.448 59.3713 171.413C59.1248 171.378 58.8822 171.343 58.3893 171.343H56.6013C56.1123 171.343 55.8658 171.378 55.6193 171.413C55.4081 171.448 55.232 171.483 54.8486 171.483C54.1131 171.483 53.5184 171.448 52.8846 171.413C52.3956 171.378 51.9378 171.378 51.3432 171.343C50.9558 171.272 50.5724 171.343 50.2555 171.378C50.3964 170.397 50.5724 169.628 50.8502 168.475C50.9911 167.253 51.1319 166.342 51.3745 165.01C51.4097 164.799 51.4449 164.658 51.4801 164.557H52.7047C53.1937 164.557 53.4754 164.522 53.6867 164.487C53.8979 164.451 54.074 164.416 54.4574 164.416C54.8408 164.416 54.9816 164.451 55.1929 164.487C55.4394 164.522 55.6819 164.592 56.2101 164.592C56.6992 164.592 56.9456 164.557 57.1569 164.522C57.3682 164.487 57.5442 164.487 57.9276 164.487C58.311 164.487 58.4871 164.522 58.6983 164.557C58.9448 164.592 59.1874 164.627 59.6803 164.627C60.1733 164.627 60.4159 164.592 60.6623 164.557C60.8384 164.522 61.0497 164.487 61.4331 164.487C61.8517 164.487 62.0277 164.487 62.239 164.522C62.4855 164.557 62.6928 164.557 63.1506 164.557C63.5692 164.557 63.7453 164.557 63.9565 164.592C64.203 164.627 64.4104 164.627 64.9033 164.627C65.3571 164.627 67.8806 164.592 70.4041 164.557H70.7562C70.8266 164.592 70.9322 164.627 71.0379 164.627C71.4917 164.627 71.7382 164.627 71.9494 164.592H72.8258C73.2444 164.592 73.4909 164.557 73.7022 164.522C74.332 164.522 74.8954 164.522 75.2788 164.487H75.3493C75.5957 164.522 75.8735 164.592 76.3665 164.592C76.8594 164.592 77.102 164.557 77.3485 164.522C77.5597 164.487 77.7358 164.487 78.1544 164.487C78.5417 164.487 78.7491 164.522 78.9251 164.557C79.1716 164.592 79.4142 164.627 79.9071 164.627C80.4001 164.627 80.6426 164.592 80.8891 164.557C81.1004 164.522 81.2764 164.487 81.6951 164.487C82.1137 164.487 82.3249 164.487 82.5362 164.522C82.7827 164.557 82.99 164.557 83.483 164.557C83.9016 164.557 84.1129 164.557 84.3241 164.592C84.5706 164.627 84.8132 164.627 85.2709 164.627C85.76 164.627 86.0417 164.592 86.2881 164.557C86.4994 164.522 86.6755 164.487 87.0589 164.487H87.9352C88.1817 164.487 88.3891 164.522 88.8468 164.522C90.7404 164.487 92.3171 164.487 94.1402 164.487C95.4352 164.557 100.588 164.557 102.235 164.522C102.34 164.557 102.446 164.592 102.552 164.592C103.006 164.592 103.252 164.592 103.499 164.557H104.375C104.864 164.557 105.146 164.522 105.392 164.487C105.603 164.451 105.779 164.416 106.198 164.416C106.585 164.416 106.757 164.451 106.969 164.487C107.215 164.522 107.493 164.592 107.986 164.592C108.479 164.592 108.721 164.557 108.968 164.522C109.179 164.487 109.355 164.487 109.774 164.487C110.161 164.487 110.369 164.522 110.58 164.557C110.826 164.592 111.069 164.627 111.562 164.627C112.055 164.627 112.297 164.592 112.544 164.557C112.755 164.522 112.962 164.487 113.315 164.487C113.98 164.487 114.539 164.522 115.102 164.557C115.49 164.557 115.908 164.592 116.327 164.592C116.081 165.92 115.838 167.147 115.451 168.546C115.31 169.597 115.169 170.436 114.962 171.483C113.768 171.413 112.896 171.413 111.632 171.378H111.628ZM119.582 171.378C119.371 171.413 119.195 171.413 118.776 171.413C118.389 171.413 118.181 171.378 118.005 171.343C117.759 171.308 117.516 171.272 117.023 171.272H116.464C116.64 170.362 116.746 169.593 116.883 168.718C117.372 166.897 117.689 165.323 118.005 163.401C118.217 162.455 118.322 161.721 118.459 160.881C120.177 160.846 121.648 160.846 123.26 160.916C123.714 160.916 124.171 160.881 124.625 160.881C124.977 160.881 125.325 160.846 125.678 160.846C125.396 160.881 125.118 160.916 124.836 161.021C124.136 161.267 123.33 161.791 123.33 162.561C123.33 162.877 123.471 163.154 123.682 163.33C123.647 163.401 123.647 163.471 123.647 163.541C123.295 163.787 123.052 164.17 123.088 164.627C123.088 165.08 123.123 165.643 123.541 165.956C123.823 166.202 124.136 166.237 124.453 166.237C124.523 166.307 124.629 166.377 124.699 166.448C124.594 166.694 124.453 167.006 124.105 167.323C123.788 167.639 123.404 167.776 122.912 167.952C122.595 168.092 122.246 168.198 121.93 168.37C121.159 168.788 120.318 170.433 120.001 171.308C119.789 171.343 119.684 171.343 119.582 171.378ZM121.683 171.132V171.378H121.577C121.577 171.272 121.613 171.202 121.683 171.132ZM125.713 171.308C125.224 171.272 124.696 171.272 124.101 171.237C123.647 171.237 123.365 171.272 123.154 171.308C123.154 171.097 123.189 170.89 123.189 170.819C123.365 170.433 123.189 170.015 122.837 169.839C122.732 169.804 122.626 169.768 122.52 169.768C122.555 169.733 122.591 169.698 122.626 169.663C122.872 169.522 123.115 169.417 123.432 169.311C123.819 169.171 124.273 168.995 124.692 168.682C125.11 168.858 125.568 168.964 126.057 168.964C126.511 168.964 126.969 168.858 127.387 168.718C127.598 168.823 127.806 168.928 128.052 169.034C128.471 169.21 128.858 169.386 129.14 169.698C129.21 169.804 129.281 169.944 129.351 170.05C129.246 169.944 129.105 169.874 128.964 169.874C128.577 169.839 128.193 170.12 128.158 170.538V170.679C128.123 170.96 128.123 171.097 128.088 171.343H127.771C126.929 171.378 126.3 171.343 125.705 171.308H125.713ZM129.496 171.378C129.496 171.308 129.496 171.272 129.531 171.202C129.531 171.272 129.566 171.308 129.566 171.378H129.496ZM136.331 161.264C136.155 162.033 136.014 162.768 135.877 163.467C135.666 164.448 135.49 165.428 135.247 166.475C134.793 168.331 134.512 169.765 134.265 171.269C134.054 171.269 133.878 171.304 133.741 171.339C133.53 171.374 133.354 171.409 133.005 171.409C132.305 171.374 131.675 171.339 131.041 171.339C131.041 171.198 131.006 171.093 130.971 170.952C130.9 170.288 130.795 169.518 130.2 168.749C129.641 168.155 129.007 167.874 128.518 167.663C127.853 167.381 127.642 167.276 127.712 166.44C127.818 166.37 127.923 166.299 127.994 166.229C128.659 166.299 129.394 166.229 129.782 165.006C129.922 164.448 129.676 163.885 129.222 163.572C129.187 162.697 128.87 161.928 128.24 161.404C127.821 161.053 127.293 160.881 126.734 160.775C127.293 160.775 127.892 160.81 128.487 160.846C128.976 160.846 129.257 160.81 129.469 160.775C129.645 160.74 129.785 160.74 130.063 160.705H130.169C130.192 160.705 130.216 160.693 130.239 160.67H131.045C131.257 160.67 131.464 160.705 131.922 160.67H132.168C132.239 160.705 132.344 160.705 132.415 160.705H132.45C132.52 160.705 132.591 160.67 132.626 160.67H133.361C134.379 160.67 135.396 160.705 136.409 160.74C136.409 161.021 136.374 161.127 136.339 161.264H136.331ZM138.749 149.016C138.678 149.403 138.608 149.575 138.537 149.786C138.467 149.997 138.361 150.274 138.256 150.766C138.185 151.184 138.115 151.395 138.08 151.641C138.044 151.852 137.974 152.095 137.904 152.587C137.728 153.95 137.587 154.79 137.379 156.017C137.062 157.24 136.855 158.361 136.644 159.447C135.486 159.377 134.437 159.377 133.35 159.377H133.103C132.962 157.416 132.508 156.576 130.967 155.841C130.826 155.353 130.861 154.372 130.897 153.673C130.897 153.427 130.897 153.22 130.932 152.974C131.284 152.798 131.597 152.45 131.808 151.751C131.984 151.192 131.703 150.594 131.213 150.247C131.178 149.583 131.073 148.778 130.478 148.215C130.302 148.039 130.126 147.934 129.919 147.829C130.165 147.864 130.408 147.899 130.83 147.864C132.125 147.899 133.001 147.864 134.3 147.793C135.56 147.829 136.753 147.864 138.048 147.899C138.154 147.899 138.295 147.934 138.4 147.934H138.436C138.506 147.934 138.541 147.899 138.612 147.899H138.964C138.893 148.25 138.823 148.633 138.753 149.02L138.749 149.016ZM141.026 136.734C140.814 138.027 140.638 138.937 140.361 140.199C139.973 142.09 139.625 143.977 139.308 145.762C139.273 145.973 139.238 146.149 139.202 146.356H138.115C137.274 146.25 136.327 146.004 135.451 145.586L135.032 145.445C134.785 145.375 134.472 145.27 134.261 145.164C134.226 145.094 134.156 145.059 134.085 145.024C134.015 144.848 133.944 144.43 133.909 144.148L133.874 143.973C133.839 143.656 133.803 143.344 133.733 143.062C133.698 142.887 133.698 142.746 133.663 142.609C134.152 142.293 134.609 141.875 134.958 141.386H135.098C135.834 141.386 136.569 141 137.062 140.406C137.551 139.777 137.728 139.042 137.516 138.343C137.411 138.027 137.235 137.784 137.062 137.574C137.238 137.468 137.379 137.363 137.45 137.187C137.626 136.87 137.661 136.523 137.555 136.171C137.767 136.206 138.009 136.241 138.467 136.241H138.502C139.555 136.171 140.29 136.171 141.131 136.171C141.096 136.347 141.061 136.558 141.026 136.73V136.734ZM143.091 126.236C142.915 127.529 142.739 128.405 142.391 129.702C142.285 130.19 142.285 130.471 142.25 130.682C142.25 130.893 142.215 131.069 142.145 131.452C142.074 131.835 142.004 132.046 141.933 132.221C141.863 132.467 141.792 132.71 141.687 133.237C141.616 133.761 141.511 134.218 141.44 134.671C140.423 134.671 139.617 134.671 138.463 134.741C138.076 134.741 137.904 134.706 137.728 134.671C137.481 134.636 137.238 134.601 136.746 134.601C136.186 134.601 135.658 134.636 135.169 134.636H134.922V134.077C135.204 134.147 135.447 134.218 135.728 134.288C135.904 134.323 136.045 134.358 136.217 134.358C136.499 134.358 136.777 134.288 137.023 134.112C137.411 133.866 137.653 133.483 137.724 133.026C137.759 132.815 137.794 132.573 137.829 132.362C137.9 131.944 138.005 131.487 138.005 131.069C138.494 130.752 138.846 130.299 139.022 129.635C139.234 128.76 138.811 127.99 138.217 127.604C138.217 124.736 137.023 123.615 135.834 123.299C136.851 123.263 137.9 123.263 139.058 123.334C140.388 123.334 141.229 123.334 142.598 123.263C143.017 123.263 143.228 123.263 143.44 123.299H143.616L143.091 126.236Z" fill="#454138"/>
<path d="M130.803 139.992C130.732 140.062 130.521 140.097 130.384 140.062C130.173 139.781 129.789 139.675 129.473 139.851C129.085 140.027 128.948 140.48 129.12 140.832C129.332 141.25 129.75 141.496 130.314 141.531H130.455C131.014 141.531 131.679 141.32 131.996 140.797C132.207 140.445 132.137 139.992 131.785 139.746C131.503 139.535 131.049 139.64 130.803 139.992Z" fill="#454138"/>
<path d="M75.6075 148.039C75.6075 148.286 75.6075 148.598 75.6779 148.879C75.7483 149.297 75.8539 149.895 75.9948 150.454C76.2765 151.47 76.6599 152.485 77.1176 153.392C77.6771 154.513 78.4478 155.49 79.1833 156.47L79.2538 156.576C79.3594 156.681 79.4298 156.822 79.5355 156.962C79.9893 157.591 80.5174 158.326 81.429 158.783C83.4282 159.763 85.7756 160.814 88.4712 161.057C88.9603 161.092 89.4884 161.127 90.0479 161.127C91.4837 161.127 92.8883 160.916 94.2889 160.568C97.3718 159.763 100.419 158.119 103.33 155.564C104.277 154.724 104.977 154.095 105.537 153.079C105.783 152.661 106.061 152.239 106.378 151.786C106.73 151.298 107.043 150.805 107.36 150.282C108.518 148.184 109.289 145.942 109.637 143.633V143.562C109.883 141.812 109.919 140.097 109.672 138.453L109.637 138.206C109.567 137.507 109.461 136.737 109.042 136.038C108.937 135.862 108.866 135.62 108.796 135.374C108.725 135.093 108.655 134.745 108.479 134.393C108.268 133.975 108.092 133.589 107.919 133.171C107.567 132.331 106.973 131.631 106.484 131.002C105.537 129.846 103.96 128.307 101.93 127.397C101.789 127.326 101.648 127.256 101.511 127.221C99.2341 126.311 97.3405 125.928 95.2396 125.928C92.6809 125.928 89.9814 126.557 87.3914 127.748C86.1317 128.342 84.9736 129.041 83.9212 129.811C83.4321 130.198 82.8688 130.616 82.3797 131.104C82.2037 131.315 82.0276 131.522 81.8555 131.733C81.6442 131.979 81.4681 132.221 81.2608 132.432C80.7718 132.85 80.4549 133.343 80.1732 133.796L80.0675 133.972C79.7506 134.46 79.4376 134.952 79.156 135.44C78.7686 136.105 78.35 136.769 77.8962 137.437C76.6716 139.222 75.9322 141.425 75.6192 144.227C75.5136 145.348 75.5136 146.465 75.6192 147.481C75.6192 147.692 75.6192 147.868 75.6192 148.039H75.6075ZM77.0433 144.434C77.325 141.879 77.9901 139.886 79.0777 138.343C79.5668 137.679 79.9893 136.945 80.3727 136.28C80.6544 135.792 80.9674 135.3 81.2491 134.847L81.3547 134.671C81.6364 134.253 81.8437 133.901 82.1958 133.62C82.548 133.339 82.7905 132.991 83.0018 132.71C83.1426 132.534 83.2835 132.358 83.4204 132.186C83.8077 131.768 84.2968 131.417 84.7506 131.065C85.7326 130.331 86.785 129.702 87.9744 129.139C89.9736 128.229 92.0041 127.705 94.0385 127.529C94.4571 127.494 94.8796 127.459 95.263 127.459C97.0862 127.459 98.8389 127.811 100.94 128.651C102.904 129.42 104.41 130.889 105.322 132.01C105.775 132.569 106.268 133.167 106.546 133.796C106.757 134.249 106.934 134.706 107.176 135.124C107.282 135.3 107.317 135.511 107.387 135.753C107.458 136.105 107.563 136.487 107.806 136.874C108.052 137.292 108.123 137.855 108.193 138.449L108.229 138.73C108.44 140.269 108.44 141.844 108.158 143.453V143.488C107.806 145.586 107.106 147.653 106.057 149.579C105.811 150.032 105.498 150.489 105.181 150.942C104.864 151.395 104.551 151.852 104.269 152.376C103.815 153.146 103.217 153.704 102.376 154.474C98.4164 157.939 94.281 159.654 90.0753 159.654C89.5862 159.654 89.1285 159.619 88.6747 159.584C88.0096 159.513 87.3797 159.408 86.7811 159.232C85.0636 158.814 83.5221 158.111 82.1567 157.412C81.5973 157.13 81.2099 156.607 80.8265 156.048C80.7209 155.908 80.6153 155.767 80.5448 155.661L80.4744 155.556C79.7389 154.611 79.0738 153.7 78.5456 152.688C78.127 151.849 77.7749 150.973 77.5284 150.028C77.3876 149.504 77.2819 148.977 77.2115 148.594C77.1763 148.383 77.1763 148.176 77.1763 148C77.1763 147.754 77.1763 147.512 77.1411 147.266C76.9298 146.426 76.9298 145.445 77.0355 144.43L77.0433 144.434Z" fill="#454138"/>
<path d="M91.9376 111.332C92.0784 112.067 92.2193 112.801 92.5675 113.958C92.6731 114.274 92.9548 114.481 93.2678 114.481C93.3382 114.481 93.4086 114.481 93.479 114.446C93.8664 114.341 94.0737 113.923 93.9681 113.501C93.6512 112.45 93.5142 111.786 93.3734 111.051C93.2326 110.317 93.0917 109.547 92.7435 108.426C92.6379 108.039 92.2193 107.832 91.7967 107.937C91.4094 108.043 91.2021 108.461 91.3077 108.883C91.695 109.934 91.7967 110.598 91.9376 111.332Z" fill="#454138"/>
<path d="M99.7544 115.216C99.86 115.286 100.001 115.321 100.142 115.321C100.388 115.321 100.631 115.18 100.772 114.969C101.225 114.2 101.542 113.395 101.859 112.625C102.071 112.137 102.247 111.68 102.489 111.192C102.806 110.563 103.89 108.113 103.89 108.113L102.524 107.519C102.524 107.519 101.437 109.934 101.159 110.563C100.912 111.051 100.705 111.579 100.494 112.067C100.177 112.836 99.8992 113.536 99.4766 114.235C99.3006 114.551 99.4062 115.005 99.7583 115.216H99.7544Z" fill="#454138"/>
<path d="M96.425 115.915C96.4954 115.915 96.5306 115.915 96.6011 115.88C97.1605 115.739 97.1957 115.356 97.3014 114.27C97.3366 113.954 97.3718 113.676 97.407 113.501C97.4422 113.43 97.4422 113.395 97.4422 113.325C97.5126 112.938 97.5126 112.59 97.5126 112.204C97.5126 111.887 97.5126 111.575 97.5478 111.293C97.7239 110.348 97.7239 109.367 97.7239 108.426V107.48C97.7239 106.957 97.7943 105.383 97.8647 103.773C97.9352 102.093 98.0056 100.343 98.0056 99.8194C98.0056 99.4014 97.6887 99.085 97.2701 99.0498C96.8514 99.0498 96.5345 99.3662 96.5345 99.7843C96.5345 100.343 96.4641 102.023 96.3937 103.738C96.3233 105.347 96.2881 106.957 96.2529 107.48V108.461C96.2529 109.336 96.2529 110.246 96.112 111.086C96.0416 111.504 96.0416 111.891 96.0416 112.278C96.0416 112.559 96.0416 112.801 96.0064 113.047C95.936 113.294 95.9007 113.641 95.8303 114.133C95.7951 114.45 95.7599 114.727 95.7247 114.903C95.6543 115.044 95.6543 115.22 95.6895 115.391C95.7951 115.708 96.1081 115.915 96.425 115.915Z" fill="#454138"/>
</svg>
