<svg width="24" height="24" viewBox="0 0 24 24" fill="none" xmlns="http://www.w3.org/2000/svg">
<g id="bookmark">
<path id="Vector" d="M18.75 22.5C18.5665 22.5005 18.3893 22.4338 18.2517 22.3125L12 16.7536L5.74825 22.3125C5.64007 22.4087 5.50636 22.4715 5.36327 22.4933C5.22018 22.5152 5.07382 22.4952 4.94184 22.4357C4.80987 22.3763 4.69793 22.2799 4.61952 22.1582C4.54111 22.0365 4.4996 21.8948 4.49997 21.75V4.5C4.50084 3.70462 4.81719 2.94206 5.37961 2.37964C5.94203 1.81722 6.70459 1.50087 7.49997 1.5H16.5C17.2954 1.50087 18.0579 1.81722 18.6203 2.37964C19.1828 2.94206 19.4991 3.70462 19.5 4.5V21.75C19.5 21.9489 19.421 22.1397 19.2803 22.2803C19.1397 22.421 18.9489 22.5 18.75 22.5Z" fill="#7B61FF"/>
</g>
</svg>
