<svg width="180" height="180" viewBox="0 0 180 180" fill="none" xmlns="http://www.w3.org/2000/svg">
<path d="M95.0724 54.712C95.7135 54.748 96.3187 54.82 96.7488 55C96.7846 55.036 96.8563 55.072 96.8921 55.108C97.3182 55.216 97.6407 55.396 97.8199 55.788C97.9991 56.324 97.8199 57.184 97.8199 57.76C97.7483 58.692 97.6407 59.588 97.6049 60.52C97.8199 60.592 98.031 60.772 98.1743 61.092C98.3177 61.164 98.4252 61.308 98.4252 61.488V61.596C98.6044 61.632 98.8871 61.632 99.0304 61.668C99.4565 61.704 99.8507 61.74 100.066 61.992C100.492 62.6 100.599 63.316 100.707 64.036C100.743 64.396 100.814 64.752 100.886 65.076C101.029 65.54 101.28 65.936 101.527 66.364C101.742 66.724 101.989 67.08 102.168 67.548C102.383 67.976 102.594 68.408 102.809 68.836C103.486 68.692 103.773 69.016 104.199 70.556C104.557 71.596 104.912 72.776 105.019 73.888C105.055 74.104 105.019 74.316 104.983 74.496L105.019 74.532V74.604C104.84 75.248 104.342 75.68 103.805 76.144C103.411 76.504 102.949 76.788 102.415 77.04C101.81 77.364 101.097 77.612 100.344 77.756C99.9184 77.936 99.0623 78.152 98.2739 78.152C98.023 78.152 97.7761 78.116 97.5611 78.044C96.92 77.9 96.2789 77.648 95.7055 77.256C95.9564 77.864 96.1316 78.188 96.705 78.544C96.9917 78.724 97.1669 78.796 97.0992 79.188C97.4217 79.368 97.7761 79.548 98.1345 79.724C98.7039 80.012 99.2415 80.296 99.775 80.62C99.8826 80.692 99.9901 80.764 100.098 80.872C100.205 80.944 100.313 80.98 100.42 81.052C104.486 83.272 105.342 88.04 106.27 92.268C106.52 93.88 107.09 95.028 107.731 96.676C108.623 99.22 109.156 101.62 109.73 104.056C109.802 103.912 109.873 103.804 109.909 103.66C110.017 103.408 110.124 103.16 110.303 102.908C110.447 102.656 110.662 102.48 110.837 102.264C110.944 102.12 111.088 102.012 111.195 101.868C111.303 101.724 111.41 101.58 111.482 101.404C111.625 101.152 111.769 100.94 111.944 100.724L112.477 100.188C112.621 100.044 112.764 99.936 112.872 99.792C113.369 99.148 113.979 98.54 114.548 97.964L114.691 97.82C115.727 96.708 116.404 95.74 116.937 94.74C117.507 94.024 117.972 93.344 118.434 92.484C118.506 92.34 118.649 92.268 118.793 92.232C119.398 92.16 119.649 92.376 119.864 92.66C120.079 92.336 120.258 92.016 120.469 91.656C120.397 91.62 120.326 91.548 120.218 91.44C119.824 91.08 119.756 90.472 120.039 90.008C120.147 89.864 120.147 89.792 120.182 89.684C120.218 89.576 120.254 89.432 120.397 89.22C120.684 88.576 120.792 87.644 120.895 86.784C120.931 86.532 120.931 86.284 120.967 86.068C121.003 85.672 121.038 85.352 121.038 85.1C121.038 84.956 121.039 84.848 121.074 84.776C121.11 84.276 121.289 84.024 121.433 83.772C121.54 83.628 121.648 83.448 121.755 83.164C121.863 82.912 121.827 82.84 121.791 82.664C121.755 82.52 121.719 82.304 121.719 82.02C121.719 81.448 121.719 80.908 121.684 80.732V80.552C121.863 79.944 122.54 79.764 123.539 79.728C124.359 79.728 125.395 79.836 126.534 79.98L127.103 80.052C127.39 80.088 127.672 80.124 127.959 80.196C128.385 80.304 128.779 80.412 129.138 80.52C129.162 80.52 129.186 80.532 129.209 80.556C129.46 80.628 129.707 80.7 129.958 80.772C130.173 80.844 130.316 80.916 130.456 80.988C130.671 81.096 130.882 81.204 131.133 81.276C131.774 81.456 132.487 81.74 133.167 82.028C133.024 81.668 132.845 81.312 132.67 80.988C130.46 75.436 126.749 70.632 122.719 66.3C120.222 63.756 117.367 61.572 114.373 59.672C112.947 58.56 111.343 57.808 109.738 57.056C108.989 56.696 108.241 56.304 107.528 55.908C106.923 56.052 106.246 56.196 105.601 56.196C104.956 56.196 104.354 56.088 103.817 55.732C103.319 55.48 102.961 55.088 102.602 54.728C102.28 54.368 101.961 54.048 101.459 53.832C100.388 53.368 98.9986 53.436 97.6447 53.58C97.2505 53.688 96.8961 53.832 96.5736 53.904C96.5019 53.94 96.3944 53.904 96.3227 53.904C95.7891 54.084 95.3233 54.264 94.9689 54.44V54.476C95.0405 54.62 95.0764 54.656 95.0764 54.728L95.0724 54.712Z" fill="#F2E5D1"/>
<path d="M137.265 101.72C137.444 97.672 136.803 93.624 135.911 89.716H135.377C135.055 89.716 134.736 89.68 134.521 89.644C134.485 89.644 134.414 89.68 134.342 89.716C134.306 89.752 134.235 89.788 134.199 89.788C134.055 89.86 133.876 89.968 133.701 90.076C133.522 90.22 133.343 90.328 133.096 90.472C133.096 90.508 133.06 90.544 133.06 90.544C132.988 90.652 132.845 90.688 132.702 90.688C132.63 90.724 132.558 90.76 132.522 90.796L132.307 90.94C132.164 91.012 131.985 91.12 131.845 91.192C131.845 91.228 131.881 91.3 131.845 91.336C131.81 91.588 131.451 91.732 131.204 91.696C131.133 91.696 131.061 91.66 130.989 91.624C130.953 91.66 130.882 91.696 130.846 91.696V91.732C130.846 91.984 130.631 92.196 130.384 92.232H130.348C130.241 92.232 130.133 92.232 130.026 92.196C129.954 92.232 129.918 92.268 129.847 92.304C129.524 92.52 129.277 92.592 129.134 92.628C129.014 92.676 128.895 92.772 128.775 92.916C128.596 93.132 128.596 93.24 128.525 93.416C128.489 93.524 128.453 93.668 128.381 93.812C128.309 94.028 128.094 94.24 127.883 94.492C127.848 94.528 127.812 94.6 127.74 94.636C127.418 94.96 127.027 95.28 126.812 95.352C126.705 95.388 126.597 95.424 126.49 95.424C126.131 95.424 125.777 95.244 125.347 94.996C125.096 95.248 124.885 95.496 124.706 95.784C124.742 95.82 124.813 95.856 124.849 95.892C124.921 95.928 124.993 96.036 125.028 96.108C126.028 96.896 125.315 97.36 123.101 101.552C122.138 104.06 121.532 106.82 120.107 109.112C119.573 109.972 119.071 110.904 118.61 111.836V111.872C118.466 112.16 118.323 112.408 118.183 112.696C117.471 114.092 116.722 115.564 115.83 116.888C114.759 118.464 113.477 119.288 111.944 119.324C111.339 119.648 110.697 119.86 110.088 119.86C109.873 119.86 109.694 119.824 109.483 119.788C107.412 119.144 105.597 117.46 104.064 115.92C103.669 115.42 103.423 115.024 103.207 114.668C103.028 114.344 102.813 114.024 102.531 113.628C101.782 112.588 101.033 111.516 100.285 110.44C99.7153 109.616 99.1419 108.756 98.5367 107.932C98.1783 107.432 97.8239 106.892 97.4656 106.356C97.2147 107.36 96.932 108.468 96.6811 109.328C96.3944 110.404 96.1117 111.228 95.7892 112.124C95.61 112.624 95.4308 113.128 95.2556 113.736C94.8972 114.848 94.722 117.104 94.8614 117.964V118.036C95.1481 119.612 96.8603 120.256 96.2152 122.048C95.8569 123.052 95.4666 123.3 95.7533 124.376C96.8245 127.852 97.7881 131.576 96.6811 135.124C95.9683 137.488 94.7539 141.324 94.1128 143.76C93.7544 145.156 93.6509 146.268 93.3642 147.7C93.2208 148.488 93.2925 149.276 93.0775 149.672C93.0058 149.816 92.7908 149.924 92.5081 149.996C92.4005 150.248 92.1855 150.392 91.9386 150.424C91.7953 150.424 91.6519 150.424 91.4767 150.388C91.2259 150.352 90.9432 150.352 90.6206 150.352C90.5131 150.816 90.4056 151.248 90.2981 151.676C91.19 151.712 92.0462 151.64 92.9381 151.46C94.1526 151.424 95.2914 151.208 96.4342 150.888C98.2181 150.708 99.9662 150.388 101.607 149.668C103.924 149.168 106.174 148.308 108.241 147.16C108.774 146.908 109.383 146.764 109.917 146.516C110.451 146.228 110.916 145.836 111.45 145.584C112.521 145.084 113.552 144.508 114.552 143.828C115.551 143.184 116.515 142.468 117.407 141.68C119.334 140.284 121.186 138.776 122.826 137.06C123.718 136.272 124.503 135.376 125.18 134.408C126.462 133.156 127.461 131.684 128.532 130.288C129.568 128.856 130.46 127.28 131.316 125.736C131.957 124.732 132.423 123.624 132.849 122.512C133.454 121.472 133.92 120.4 134.274 119.252C134.916 117.568 135.557 115.92 135.843 114.128C136.202 112.98 136.484 111.836 136.664 110.652C136.986 109.504 137.09 108.324 137.09 107.104C137.305 105.312 137.412 103.52 137.269 101.728L137.265 101.72Z" fill="#F2E5D1"/>
<path d="M78.7346 52.492C77.0224 52.956 75.2385 53.136 73.5262 53.712C71.2804 54.5 69.0307 55.252 66.8924 56.22C65.2877 57.008 63.7546 57.94 62.1499 58.656C60.581 59.552 59.1913 60.664 57.726 61.664C56.4438 62.884 54.9426 63.884 53.6246 65.068C51.8766 66.68 50.3793 68.544 48.7746 70.3C47.7752 71.768 46.704 73.204 45.7086 74.672C44.9958 75.64 44.4264 76.68 43.9963 77.788C42.9969 79.256 42.2124 80.868 41.5713 82.552C40.6794 84.772 40.0741 87.068 39.3255 89.324C39.1464 90.508 38.9313 91.652 38.6486 92.836C38.5411 94.02 38.3261 95.2 38.0792 96.348C37.9359 98.104 37.9 99.896 37.9359 101.688C37.8283 104.66 38.0434 107.672 38.6128 110.572C39.0747 112.292 39.2897 114.084 39.8273 115.768C40.0781 116.952 40.5042 118.06 41.0417 119.136C41.7903 121.392 42.7181 123.58 44.0003 125.584C45.0715 127.696 46.497 129.632 47.7433 131.64C48.1017 132.104 48.5636 132.5 48.9578 132.964C49.3162 133.392 49.5989 133.968 49.9931 134.396C50.8492 135.22 51.6337 136.116 52.4181 137.012C52.5614 137.12 52.669 137.228 52.8123 137.336C52.9915 136.728 53.1348 136.188 53.31 135.508C53.4176 135.148 53.4534 134.972 53.4892 134.792C53.5251 134.612 53.5967 134.468 53.6684 134.112L53.7401 133.716C53.8834 132.892 54.0268 132.248 54.2378 131.352C54.3812 130.78 54.5245 130.24 54.6639 129.74C54.8789 128.952 55.09 128.164 55.305 127.304C55.6275 126.016 55.9461 124.76 56.2686 123.508C56.838 121.288 57.4114 118.956 58.0525 116.7L58.1242 116.448L58.7653 113.724C59.052 112.756 59.2272 112.076 59.4422 111.036L60.155 108.276C60.3341 107.308 60.5133 106.592 60.7961 105.552C61.3296 104.048 61.6522 102.616 62.0105 101.072C62.1897 100.32 62.3689 99.532 62.5441 98.744C62.795 97.632 63.0777 96.632 63.3644 95.592L63.6152 94.66C63.9019 93.336 64.1847 92.08 64.5072 90.792C63.5077 89.896 62.7591 89.144 61.8672 88.212C61.688 88.32 61.5088 88.392 61.2978 88.428C61.3336 88.572 61.3694 88.68 61.3336 88.856C61.2978 89.072 61.1544 89.216 60.9394 89.32C60.8677 89.356 60.7602 89.356 60.6527 89.356C60.0833 89.356 59.2272 88.928 58.8688 88.604C58.7255 88.496 58.6538 88.352 58.5463 88.176C57.5826 87.924 56.9416 86.924 57.0132 85.776C57.0849 84.736 59.5099 83.696 59.7249 83.628C59.8683 83.52 60.0116 83.484 60.151 83.448C61.0071 83.34 62.5043 83.376 63.7188 83.52C63.7188 83.484 63.7188 83.448 63.7546 83.412C63.9338 82.912 64.5391 82.66 65.001 82.48C65.1801 82.408 65.3952 82.336 65.427 82.264C66.2473 81.8 66.6415 81.44 67.2826 80.76C67.7445 80.26 68.0312 80.08 68.2821 79.972H68.3179V79.864C68.3179 79.684 68.3179 79.468 68.4971 79.148C68.5329 79.112 68.6046 79.004 68.6763 78.86C68.8196 78.68 68.9988 78.396 69.174 78.072L69.5324 77.464C70.3168 76.104 71.1013 74.812 72.6343 73.952C73.3112 73.488 74.239 72.948 75.2026 72.484C75.5968 72.304 75.9154 72.196 76.2379 72.124C76.8073 71.944 77.1657 71.836 77.4524 71.444C77.6674 71.048 77.775 70.764 77.8466 70.476C78.0617 69.724 78.2727 69.364 79.7739 68.9C79.9531 68.792 80.4866 68.148 80.8808 67.68C81.0242 67.5 81.1675 67.32 81.3069 67.18C81.3069 67.036 81.3069 66.892 81.3428 66.752C81.3786 66 81.3786 65.14 81.737 64.352C82.5572 62.632 84.2695 61.592 85.8025 60.66L85.91 60.588C86.5869 60.192 87.1564 59.728 87.6939 59.3V59.192C87.7656 58.904 87.7656 58.512 87.8014 58.08C87.8731 56.896 87.9448 55.536 88.7292 54.928C88.9801 54.784 89.442 54.712 89.8004 54.676L89.872 54.352C90.0154 53.528 90.1946 52.596 90.3339 51.664C89.442 51.592 88.5859 51.556 87.6939 51.556C84.592 51.736 81.6653 52.128 78.7426 52.488L78.7346 52.492Z" fill="#F2E5D1"/>
<path d="M85.3327 86.564C85.476 86.456 85.6552 86.312 85.7269 86.24C85.7269 85.988 85.476 85.452 85.3008 85.092C85.2291 84.948 85.1933 84.804 85.1216 84.696C83.6602 84.552 83.4811 83.372 83.3019 82.332L83.266 82.188C83.2302 81.9 83.1944 81.652 83.0869 81.364C81.1238 81.04 80.5902 79.824 80.411 78.428C80.3035 78.572 80.196 78.716 80.0885 78.892C79.304 79.968 78.5196 81.112 77.4126 81.972C76.9865 82.224 76.5565 82.472 76.1304 82.688C75.2743 83.404 74.1673 83.908 73.1719 84.3C73.148 84.3 73.1241 84.312 73.1002 84.336C72.8852 84.48 72.706 84.66 72.5666 84.836C72.3874 85.052 72.2441 85.264 71.9972 85.408C71.6747 85.588 71.3561 85.804 70.9977 85.944C70.5717 86.16 70.1416 86.372 69.7514 86.66C69.5722 86.768 69.4289 86.948 69.2537 87.124C68.967 87.448 68.6484 87.732 68.29 87.804C68.2184 87.84 68.1108 87.84 68.0392 87.84C67.7166 88.092 67.2906 88.376 66.8605 88.376C66.6813 88.376 66.4663 88.304 66.2911 88.196H66.2194C65.7217 88.268 65.65 88.268 64.9731 88.34L64.7939 88.376C64.332 88.448 63.8303 88.52 63.4042 88.52H63.3325C63.7586 88.948 64.2245 89.416 64.7222 89.844L64.8656 89.308C64.9373 89.056 65.1881 88.912 65.435 88.984C65.6859 89.056 65.8292 89.308 65.7575 89.556L65.435 90.808C65.0766 92.204 64.7581 93.532 64.4714 95L64.1847 95.968C63.898 97.008 63.6153 97.976 63.3644 99.084C63.1494 99.872 63.006 100.624 62.8308 101.376C62.5083 102.88 62.1539 104.42 61.6163 105.928C61.3296 106.896 61.1903 107.612 61.0111 108.58L60.2983 111.34C60.0833 112.416 59.9041 113.096 59.6214 114.064L58.9086 117.036C58.2675 119.292 57.6941 121.588 57.1606 123.808C56.838 125.06 56.5195 126.352 56.1969 127.64C55.9819 128.5 55.7709 129.288 55.5559 130.112C55.4125 130.612 55.2692 131.152 55.1298 131.724C54.9148 132.584 54.8073 133.228 54.6321 134.016L54.5604 134.412C54.4529 134.808 54.417 134.948 54.3812 135.128C54.3454 135.308 54.2737 135.452 54.202 135.772C54.0228 136.632 53.8436 137.24 53.5609 138.064C54.4887 138.924 55.3807 139.856 56.3801 140.644C57.8415 141.684 59.3028 142.688 60.6965 143.796C63.7626 145.516 66.9043 147.272 70.2571 148.452C71.8618 149.168 73.5382 149.812 75.3221 150.064C77.0343 150.528 78.7466 150.888 80.5305 151.176C81.4582 151.248 82.386 151.356 83.3138 151.464C83.3855 151.068 83.4572 150.676 83.5288 150.316H83.493C83.3497 150.28 83.2063 150.244 83.0988 150.1C83.0271 149.956 82.9913 149.812 83.0271 149.672C83.4532 148.524 83.6324 146.876 83.7399 145.588L83.7757 145.264C83.9907 143.976 83.9907 143.652 84.0624 142.328C84.0983 141.54 84.1699 140.716 84.2058 139.892C84.2774 138.78 84.3491 137.636 84.4208 136.524C84.4566 136.096 84.4925 135.628 84.5641 135.164C84.6717 134.16 84.7792 133.156 84.7792 132.228C84.815 131.584 84.815 131.008 84.815 130.472C84.815 129.612 84.815 128.788 84.9225 127.748C84.8867 126.564 84.9225 125.132 84.9942 123.484C84.9583 123.376 84.9225 123.268 84.8867 123.16C84.815 122.98 84.7433 122.8 84.6358 122.624C84.5283 122.372 84.385 122.088 84.3133 121.836C84.1699 121.048 84.1341 120.188 84.0983 119.4L84.0624 118.792C84.0983 118.256 84.1341 117.68 84.2058 117.144C84.2416 116.68 84.2774 116.212 84.3133 115.82C84.2774 114.96 84.0624 113.384 83.8872 112.236L83.8514 111.912C83.8155 111.124 83.7797 110.372 83.708 109.584C83.6005 108.116 83.5288 106.612 83.5647 105.104C83.5647 104.924 83.5288 104.744 83.5288 104.532C83.493 104.28 83.493 104.032 83.493 103.744C83.493 103.492 83.5288 103.244 83.6005 102.956C83.6364 102.776 83.6722 102.56 83.6722 102.384C83.7439 101.668 83.7797 100.916 83.8155 100.2L83.8514 99.556C83.9947 98.804 84.1381 98.088 84.2456 97.372C84.4606 96.224 84.6717 95.044 84.9225 93.932L85.03 93.536C85.245 92.82 85.5994 91.672 85.5994 91.28C85.5994 90.78 85.2769 90.456 84.9225 90.028C84.6 89.668 84.2456 89.276 84.0664 88.74C83.6722 87.88 84.7075 87.056 85.3486 86.556L85.3327 86.564Z" fill="#F2E5D1"/>
<path d="M82.2307 154.244C82.3024 154.136 82.3741 154.064 82.4458 153.992C82.3383 153.956 82.2307 153.992 82.1232 154.028C81.8724 154.172 81.3388 154.888 80.9446 155.388C80.7654 155.64 80.5862 155.852 80.4468 156.032C80.4707 156.008 80.4946 155.984 80.5185 155.96C81.0521 155.424 81.4821 154.636 82.2307 154.24V154.244Z" fill="#F5F3F1"/>
<path d="M139.762 87.784C138.762 87.176 137.798 86.172 136.942 85.24L136.727 85.024C136.656 84.952 136.548 84.88 136.441 84.808C136.548 84.916 136.656 85.06 136.763 85.168C137.297 85.776 138.189 87.46 138.296 88.036C138.368 88.108 138.83 88.432 139.367 88.752C139.403 88.788 139.439 88.824 139.475 88.86C139.69 88.86 139.901 88.788 140.188 88.572C140.474 88.392 140.614 88.212 140.649 88.072C140.399 88.072 140.116 88 139.758 87.784H139.762Z" fill="#F5F3F1"/>
<path d="M76.813 160.658C76.7766 160.621 76.7766 160.585 76.7402 160.548L76.7039 160.585C76.7402 160.621 76.7766 160.658 76.813 160.658Z" fill="#F5F3F1"/>
<path d="M135.338 87.604C135.445 88 135.553 88.356 135.66 88.752H136.516C136.158 88.464 135.768 88.072 135.338 87.604Z" fill="#F5F3F1"/>
<path d="M92.0382 51.92C92.3249 51.92 92.6076 51.956 92.8585 51.956C93.3562 52.028 93.8938 52.136 94.3915 52.244C94.6424 52.1 94.8534 51.92 95.0326 51.636C95.176 51.42 95.4587 51.348 95.6737 51.492C95.7812 51.564 95.8529 51.672 95.8887 51.816C96.1396 51.816 96.4223 51.78 96.6732 51.672C96.9599 51.528 97.1709 51.312 97.2067 51.1C97.2426 50.92 97.1351 50.704 96.92 50.564C96.7408 50.456 96.5975 50.492 96.4223 50.6C96.2073 50.744 95.9246 50.708 95.7454 50.492C95.602 50.276 95.6379 49.992 95.8529 49.812C96.3506 49.452 96.924 49.416 97.4218 49.704C97.9553 50.028 98.242 50.636 98.1345 51.244C97.9912 51.78 97.6009 52.176 97.0992 52.464C96.9559 52.536 96.8125 52.572 96.6732 52.608C96.8523 52.644 97.0315 52.68 97.2067 52.716H97.2426C97.3142 52.716 97.3859 52.716 97.4576 52.68C97.5293 52.644 97.5651 52.644 97.6368 52.608C98.1345 52.428 98.6721 52.284 99.134 52.144C100.277 51.716 102.025 51.176 103.594 51.284C104.486 51.392 104.876 51.964 105.198 52.396C105.449 52.72 105.593 52.932 105.84 53.004C106.445 53.22 107.086 53.004 107.803 52.752L108.161 52.644C110.299 52.32 111.836 52.18 112.939 52.216C113.19 52.216 113.401 52.432 113.401 52.716C113.401 52.968 113.15 53.18 112.903 53.18C111.868 53.144 110.407 53.252 108.408 53.576L108.121 53.684C107.552 53.864 106.978 54.08 106.337 54.08C106.086 54.08 105.804 54.044 105.553 53.936C104.983 53.792 104.661 53.328 104.41 52.968C104.123 52.54 103.912 52.324 103.482 52.252C102.554 52.18 101.555 52.396 100.663 52.648C101.089 52.72 101.483 52.828 101.878 53.008C102.519 53.332 102.913 53.76 103.267 54.12C103.339 54.192 103.411 54.264 103.518 54.336C103.98 54.516 104.446 54.696 104.908 54.908C105.266 55.052 105.656 55.16 106.015 55.268C106.728 55.196 107.476 55.016 108.014 54.872C108.3 54.8 108.583 54.692 108.906 54.62C109.439 54.476 109.977 54.296 110.51 54.156C111.331 53.868 112.223 53.62 113.186 53.656C113.72 53.692 114.293 53.8 114.791 53.908C115.647 54.088 116.575 54.268 117.395 54.196C118.215 54.124 119.143 53.768 119.748 53.12C118.785 53.584 117.574 53.764 116.431 53.764C115.719 53.764 115.042 53.692 114.504 53.656C114.253 53.62 114.078 53.404 114.078 53.12C114.114 52.868 114.329 52.692 114.612 52.692C115.575 52.8 118.821 53.088 119.963 51.832C120.286 51.472 120.389 50.972 120.322 50.364C120.214 49.968 120.035 49.612 119.86 49.324C119.752 49.576 119.609 49.788 119.434 50.04C118.793 50.792 117.829 51.188 117.009 51.044C116.794 51.008 116.65 50.828 116.615 50.648C116.579 50.432 116.686 50.252 116.865 50.148C116.973 50.076 117.08 49.968 117.152 49.824C116.794 50.04 116.296 50.148 115.834 50.184C115.229 50.292 114.691 50.184 114.122 49.756C113.728 49.468 113.302 49.148 112.943 48.68C112.836 48.536 112.728 48.392 112.657 48.252C112.195 47.608 111.944 47.212 111.159 47.176C110.339 47.104 109.411 47.14 108.519 47.248L108.022 47.356C106.843 47.608 105.525 47.928 104.49 47.964C103.849 48.036 103.172 48.036 102.742 47.604C102.312 47.172 102.383 46.456 102.491 45.812C102.491 45.596 102.312 45.276 100.994 45.132C100.352 45.024 99.6755 45.096 98.9946 45.132L98.6004 45.168C97.6009 45.132 96.7807 44.988 96.0321 44.808C95.6379 44.736 95.2118 44.7 94.8534 44.7C94.495 44.772 94.1765 44.988 93.9973 45.272C93.7464 45.632 93.7464 46.096 93.9615 46.492C94.069 46.708 93.9973 47.028 93.7823 47.136C93.7106 47.172 93.6389 47.208 93.5673 47.208C93.3881 47.208 93.2447 47.1 93.1412 46.956C92.8903 46.456 92.8187 45.916 92.962 45.416C92.9262 45.452 92.8903 45.452 92.8903 45.488L92.5678 45.74C92.3169 45.956 92.0701 46.168 91.9267 46.384C91.7117 46.708 91.64 47.064 91.5683 47.316C91.64 47.388 91.7117 47.496 91.7834 47.568C91.9625 47.892 91.9267 48.248 91.8192 48.788L91.7834 48.932C91.7475 49.184 91.4967 49.36 91.2498 49.328C90.9989 49.292 90.8237 49.04 90.8556 48.792L90.8914 48.648C90.9272 48.396 90.9989 48.148 90.9631 48.076C90.8914 47.968 90.7839 47.932 90.7122 47.932C90.6047 47.932 90.4614 48.04 90.3897 48.256C90.2463 48.756 90.6405 49.26 91.1383 49.404C91.3533 49.476 91.4967 49.692 91.4608 49.904C91.4608 50.012 91.425 50.12 91.425 50.228V50.3C91.2816 51.016 91.6042 51.588 92.0302 51.948L92.0382 51.92ZM95.817 45.864C100.739 45.04 101.38 45.972 101.738 47.332C101.917 48.048 102.097 48.692 105.378 48.3C105.628 48.264 105.875 48.444 105.911 48.728C105.947 48.98 105.768 49.228 105.485 49.264C104.808 49.336 104.239 49.372 103.773 49.408C103.737 49.444 103.665 49.444 103.594 49.444C102.347 49.552 100.528 49.552 99.2057 48.192C98.9906 47.976 98.7796 47.868 98.5287 47.832C98.9229 48.084 99.134 48.404 99.2773 48.8C99.4924 49.264 99.6715 49.588 100.882 49.624C101.133 49.624 101.344 49.84 101.344 50.088C101.344 50.336 101.129 50.552 100.882 50.552C99.2057 50.516 98.7796 49.908 98.4571 49.192C98.242 48.692 98.0628 48.368 96.494 48.476C96.2789 48.512 96.0679 48.368 95.9962 48.152C95.9246 47.936 95.9962 47.724 96.1754 47.616C97.5651 46.612 98.9946 46.576 99.8866 47.544C100.209 47.868 100.563 48.08 100.994 48.224C100.886 48.044 100.85 47.828 100.779 47.616C100.563 46.864 100.352 46.112 95.9285 46.828C95.6777 46.864 95.4308 46.684 95.395 46.432C95.3591 46.144 95.5383 45.896 95.821 45.86L95.817 45.864ZM92.7151 50.128C92.7868 50.092 93.0377 49.984 93.2845 50.164C93.3562 50.2 93.4996 50.236 93.6429 50.272L93.8579 50.308C94.2521 50.488 94.3557 50.808 94.2521 51.096C94.1446 51.456 93.6827 51.704 93.2885 51.704H93.1093C92.9302 51.668 92.3607 51.488 92.4324 50.592C92.4324 50.304 92.6474 50.16 92.7191 50.128H92.7151Z" fill="#F5F3F1"/>
<path d="M140.156 86.924L140.12 86.888L140.012 86.744C139.726 86.384 139.407 85.992 139.085 85.74C138.87 85.56 138.551 85.416 138.228 85.276C138.834 85.884 139.511 86.496 140.156 86.924Z" fill="#F5F3F1"/>
<path d="M81.6971 158.4C81.3029 158.9 80.626 158.436 80.415 158.292C80.3791 158.256 80.3433 158.256 80.3433 158.22C80.2 158.328 80.0566 158.436 79.9172 158.508C79.9889 158.616 80.0247 158.76 80.0606 158.904C80.1681 159.332 79.9889 159.548 79.8456 159.62C79.4872 159.8 79.2403 159.548 78.9178 159.156C78.8819 159.192 78.8461 159.192 78.8103 159.228C79.0611 159.552 78.9178 159.8 78.8461 159.872C78.7744 159.98 78.6669 160.124 78.3125 160.016C78.3484 160.232 78.3125 160.444 78.0975 160.732C77.9183 160.948 77.7391 161.056 77.5281 161.056H77.4922C77.4206 161.056 77.3489 161.02 77.3131 161.02C77.3489 161.056 77.4206 161.092 77.4564 161.128C77.6356 161.344 77.5998 161.628 77.3847 161.808C77.3131 161.88 77.2055 161.916 77.098 161.916C76.9547 161.916 76.8113 161.844 76.7397 161.736C76.3136 161.236 75.3858 160.84 74.028 160.624C74.0996 160.696 74.1713 160.732 74.2788 160.804C74.4222 160.876 74.5655 160.984 74.7049 161.056C75.4177 161.452 75.9194 161.736 75.8477 162.24C75.8119 162.42 75.7044 162.668 75.2425 162.776C75.1708 162.776 75.0991 162.812 75.0274 162.812C74.1713 162.812 72.1366 162.24 71.7463 162.024C71.5313 161.952 71.2844 161.772 70.9977 161.596C70.711 161.416 70.285 161.096 70.1416 161.132H70.0699C70.1416 161.24 70.2133 161.348 70.3208 161.456C70.5 161.672 70.8185 162.172 70.9619 162.244C70.9977 162.28 71.2486 162.388 71.4955 162.532C72.1007 162.856 72.9927 163.32 73.4944 163.5C74.8482 164.072 75.9911 164.36 77.4883 164C78.3444 163.892 79.2722 163.748 80.1283 163.572C79.093 162.284 78.5594 161.388 78.6669 160.704C78.6669 160.632 78.7027 160.56 78.7744 160.488C79.2722 159.88 79.8456 159.916 80.2358 160.024C80.415 160.096 80.6977 160.276 81.0202 160.452C81.5538 160.596 82.163 161.132 82.6249 161.528L82.9475 161.78C83.1267 161.924 83.27 162.032 83.3735 162.104C83.6244 162.248 83.8713 162.392 84.1221 162.568C84.9424 162.352 85.691 162.208 86.583 162.068C87.4749 161.424 88.5819 160.384 89.8641 158.952C89.6849 158.488 89.5415 157.984 89.7924 157.412C89.8282 157.304 89.8641 157.268 89.8641 157.196C89.8999 157.124 89.8999 157.088 89.9716 156.944C90.0074 156.836 90.0074 156.764 89.9716 156.692C89.8641 156.512 89.5455 156.404 89.2588 156.368C89.223 156.656 89.1513 156.976 89.0438 157.408C88.9363 157.872 88.8288 158.052 88.6496 158.268C88.5779 158.34 88.5062 158.448 88.3987 158.592C88.112 159.056 87.8293 159.524 87.3993 159.668C86.6865 159.848 85.8304 159.308 84.8309 158.628L84.6876 158.556C84.0823 158.232 83.0829 157.516 82.5493 157.16C82.4776 157.124 82.4059 157.124 82.3343 157.088C82.1551 157.16 81.9759 157.232 81.7648 157.34C81.8007 157.772 81.9082 158.128 81.6932 158.416L81.6971 158.4Z" fill="#F5F3F1"/>
<path d="M84.2297 151.556C84.1222 152.164 83.9788 152.74 83.8713 153.132L83.7996 153.42C83.7638 153.564 83.7279 153.636 83.6921 153.708C83.7638 153.78 83.8355 153.816 83.9071 153.888C84.2655 154.068 84.5482 154.388 84.6557 154.676C84.8349 155.072 84.7991 155.572 84.7991 156C84.7991 156.288 84.8349 157.112 84.6916 157.576C84.7991 157.648 84.9066 157.72 85.0141 157.756L85.1933 157.864C86.1569 158.508 86.7622 158.796 86.9414 158.76C87.013 158.724 87.2997 158.296 87.4391 158.08C87.5466 157.9 87.6541 157.756 87.7258 157.684C87.8333 157.54 87.8691 157.468 87.9408 157.184C88.12 156.504 88.1558 156.108 88.1917 155.644C88.2275 155.144 88.2992 154.64 88.5142 153.852C88.8009 153.172 89.0478 152.384 89.2987 151.56C87.5864 151.812 85.91 151.704 84.2336 151.56L84.2297 151.556Z" fill="#F5F3F1"/>
<path d="M88.116 161.912C88.2235 161.912 88.3669 161.876 88.4744 161.876C88.6894 161.876 88.9005 161.876 89.0797 161.84C89.4739 161.804 89.6849 161.768 89.8283 161.732C89.9358 161.696 90.0433 161.696 90.1866 161.696V160.944C90.1508 160.584 90.0791 160.228 90.0074 160.012C89.3664 160.764 88.7253 161.372 88.116 161.912Z" fill="#F5F3F1"/>
<path d="M89.1872 162.808C88.9721 162.808 88.7611 162.844 88.5102 162.844C88.2235 162.844 87.9408 162.88 87.6183 162.916C86.1569 163.132 85.1933 163.312 84.0146 163.596C83.8713 163.74 83.6921 163.776 83.5169 163.704C83.4094 163.74 83.3377 163.74 83.2302 163.776C82.625 163.956 81.9122 164.136 81.1954 164.312C81.1954 164.312 81.1954 164.348 81.1596 164.348C81.0879 164.42 80.9804 164.456 80.8729 164.456C80.8371 164.456 80.8012 164.456 80.7654 164.42C79.6943 164.672 78.5554 164.884 77.5201 164.992C77.4126 165.028 77.3409 165.028 77.2334 165.028C77.3409 165.064 77.4843 165.064 77.5918 165.064C78.2687 165.172 78.9815 165.28 79.6624 165.316C80.0885 165.28 80.5544 165.28 81.0879 165.28C81.4821 165.28 81.6573 165.28 81.8365 165.316C82.1232 165.316 82.4059 165.316 82.6926 165.352C82.9793 165.244 83.3337 165.1 83.7279 164.924C84.7632 164.46 85.9737 163.956 86.7223 163.812C87.4709 163.848 88.2912 164.276 89.434 165.172C89.9318 165.1 90.4693 164.992 90.8954 164.92C90.8596 164.74 90.8237 164.596 90.752 164.456C90.6087 163.884 90.4653 163.344 90.326 162.7C90.1826 162.7 90.111 162.736 90.0034 162.736C89.8243 162.736 89.6092 162.772 89.1832 162.808H89.1872Z" fill="#F5F3F1"/>
<path d="M73.813 161.696C73.7771 161.696 73.7413 161.66 73.7413 161.66C73.4188 161.48 73.2077 161.3 73.0285 161.16C72.8852 161.052 72.7418 160.944 72.6702 160.908C72.6343 160.908 72.5626 160.872 72.5268 160.836C72.2401 160.872 71.9932 160.908 71.7065 160.944H71.6349C71.7782 161.052 71.9216 161.124 72.0291 161.16C72.3158 161.34 73.1002 161.556 73.813 161.696Z" fill="#F5F3F1"/>
<path d="M69.8191 163.632C69.5324 163.416 68.8196 163.168 68.4652 163.132C68.5369 163.24 68.6086 163.348 68.7161 163.456C69.7514 164.78 71.4995 165.032 73.1759 165.248L73.7811 165.32C73.3192 165.176 72.8533 165.032 72.3914 164.82C71.4636 164.568 70.4642 164.068 69.8231 163.636L69.8191 163.632Z" fill="#F5F3F1"/>
<path d="M86.798 165.316C87.1564 165.316 87.4749 165.28 87.7616 165.316H87.9766C87.3356 164.888 86.9413 164.78 86.7303 164.744C86.4078 164.816 85.8025 165.032 85.1973 165.28C85.6592 165.28 86.1609 165.28 86.6586 165.316H86.802H86.798Z" fill="#F5F3F1"/>
<path d="M135.839 86.78C136.48 87.496 136.982 87.964 137.372 88.284C137.301 87.96 136.516 86.384 136.019 85.812C135.557 85.168 134.912 84.736 134.163 84.452C134.45 85.06 134.697 85.672 134.912 86.28C135.373 86.424 135.66 86.568 135.839 86.78Z" fill="#F5F3F1"/>
<path d="M69.7833 162.52C69.6758 162.376 69.5682 162.232 69.4249 162.056C69.3174 161.876 69.2099 161.732 69.1382 161.66C69.0665 161.588 68.8515 161.552 68.6046 161.624C68.4613 161.804 68.3179 161.984 68.2462 162.16C68.7081 162.16 69.3174 162.34 69.7793 162.52H69.7833Z" fill="#F5F3F1"/>
<path d="M80.5544 162.376C80.3393 162.016 79.8774 161.552 79.9491 161.088C79.8774 161.052 79.8058 161.016 79.7341 160.98C79.6624 160.944 79.5549 160.944 79.4474 161.052C79.5191 161.34 79.8416 161.948 80.9804 163.38C81.0163 163.38 81.0521 163.344 81.1238 163.344C80.9446 163.02 80.7654 162.664 80.5544 162.376Z" fill="#F5F3F1"/>
<path d="M88.7213 150.448C87.901 150.448 86.9374 150.412 86.0096 150.376C85.4402 150.376 84.9026 150.34 84.4049 150.34C84.369 150.7 84.2974 151.128 84.1898 151.56C85.8662 151.704 87.5785 151.812 89.2549 151.596C89.3624 151.2 89.4699 150.808 89.5774 150.376C89.3982 150.376 89.2549 150.412 89.0796 150.412C88.9721 150.448 88.8288 150.448 88.7213 150.448Z" fill="#F5F3F1"/>
<path d="M89.223 83.088C88.6894 83.34 88.0444 83.624 87.4391 83.912C87.3316 83.984 87.2599 84.02 87.1524 84.092C87.7935 83.84 88.5063 83.484 89.223 83.088Z" fill="#F5F3F1"/>
<path d="M82.5174 67.252C82.3741 67.396 82.2307 67.576 82.0914 67.752C82.0555 67.86 81.948 67.968 81.8405 68.04C81.733 68.184 81.5896 68.328 81.4821 68.468C81.0879 68.932 80.7694 69.292 80.4827 69.58C81.5538 69.152 82.3382 68.36 82.5174 67.252Z" fill="#F5F3F1"/>
<path d="M89.5416 55.788C89.2907 55.824 89.1155 55.86 89.0797 55.86C88.6854 56.148 88.6536 57.364 88.5819 58.26C88.5819 58.368 88.5819 58.44 88.5461 58.548C88.6536 58.476 88.7253 58.404 88.8328 58.332C89.012 57.544 89.012 56.504 89.438 55.86C89.5097 55.86 89.5455 55.824 89.5455 55.788H89.5416Z" fill="#F5F3F1"/>
<path d="M99.2096 63.204C99.4605 63.204 99.6715 63.42 99.6715 63.668C99.6715 63.916 99.4565 64.132 99.2096 64.132H98.9229C99.138 65.028 99.349 66.068 99.4207 66.964C99.4924 67.932 99.134 68.324 98.9229 68.468C98.7796 68.576 98.6004 68.612 98.461 68.612C98.3217 68.612 98.1743 68.576 98.0668 68.504C97.6049 68.288 97.3182 67.716 97.2824 67C97.2466 66.428 97.2824 65.816 97.3182 65.172C97.0674 66.032 97.1749 66.856 97.1032 67.752C97.1032 67.968 97.0674 68.148 97.0315 68.36L97.0674 68.396C97.0315 68.648 96.9957 68.896 96.9599 69.148C96.924 69.328 96.924 69.544 96.8882 69.72C97.9952 69.432 99.2057 69.04 100.313 68.644C100.739 68.5 101.169 68.356 101.559 68.248C101.487 68.104 101.416 67.96 101.344 67.82C101.165 67.392 100.95 67.068 100.739 66.708C100.452 66.244 100.169 65.776 99.9901 65.168C99.8826 64.772 99.8109 64.38 99.7751 63.984C99.7034 63.412 99.6317 62.872 99.3809 62.48C99.2734 62.444 99.0942 62.444 98.9867 62.444C98.8433 62.444 98.7 62.408 98.5248 62.408C98.5606 62.588 98.6323 62.804 98.7039 63.052C98.7756 63.196 98.9548 63.196 99.2017 63.196L99.2096 63.204Z" fill="#F5F3F1"/>
<path d="M95.4985 75.316C95.4627 75.388 95.4268 75.46 95.391 75.496C95.5702 75.892 95.8887 76.212 96.2471 76.464C95.9604 76.104 95.7494 75.64 95.6419 75.104C95.606 75.176 95.5702 75.248 95.4985 75.32V75.316Z" fill="#F5F3F1"/>
<path d="M85.4043 62.416C85.5835 62.2 85.7627 61.988 85.9737 61.772C84.6199 62.596 83.1545 63.528 82.5134 64.888C82.3343 65.284 82.2626 65.712 82.2267 66.14C82.4418 65.888 82.621 65.676 82.832 65.46C83.2262 64.028 84.0465 63.276 85.4003 62.416H85.4043Z" fill="#F5F3F1"/>
<path d="M66.753 87.424C66.8247 87.496 66.9322 87.496 67.0397 87.424C66.753 87.136 66.542 86.744 66.3628 86.348V86.312C66.2911 86.168 66.2194 86.024 66.1478 85.884C65.9327 85.42 64.7939 84.056 65.1125 83.52C64.8975 83.628 64.5789 83.772 64.5431 83.844C64.5431 83.844 64.5431 83.88 64.5789 83.952C64.6864 84.132 64.7581 84.312 64.8656 84.524C64.9731 84.736 65.0806 84.988 65.1881 85.204C65.3315 85.42 65.4748 85.632 65.6142 85.848C65.7575 86.028 65.8651 86.172 65.9726 86.348C66.1159 86.6 66.4345 87.1 66.6495 87.316C66.7212 87.352 66.7212 87.388 66.757 87.424H66.753Z" fill="#F5F3F1"/>
<path d="M104.952 114.76C104.525 114.188 104.095 113.576 103.634 112.932C102.849 111.82 102.065 110.676 101.28 109.744C99.9622 108.168 98.7477 106.412 97.8558 104.908C97.8558 104.98 97.8199 105.016 97.8199 105.088C98.3177 105.876 98.8194 106.628 99.3171 107.38C99.8866 108.204 100.496 109.028 101.065 109.888C101.814 110.964 102.562 112.036 103.275 113.076C103.598 113.504 103.809 113.828 103.988 114.188C104.203 114.548 104.414 114.904 104.737 115.3C106.126 116.732 107.838 118.308 109.694 118.884H109.802C107.91 118.06 106.126 116.376 104.952 114.764V114.76Z" fill="#F5F3F1"/>
<path d="M92.7868 81.224C93.1094 81.08 93.4279 80.936 93.7504 80.796C93.7504 80.796 93.7504 80.76 93.7146 80.76C93.4637 80.832 93.2527 80.94 93.0018 81.012C92.751 81.156 92.5041 81.3 92.2532 81.44C92.4683 81.368 92.6116 81.296 92.7868 81.224Z" fill="#F5F3F1"/>
<path d="M79.7341 70.048C78.8421 70.372 78.7705 70.512 78.6629 70.908C78.5913 71.16 78.4838 71.552 78.2369 72.02C79.2005 71.304 79.093 70.66 79.7341 70.048Z" fill="#F5F3F1"/>
<path d="M86.1529 124.256C86.1888 124.364 86.2604 124.472 86.2963 124.58C86.3321 124.256 86.3321 123.9 86.3679 123.576C85.7268 122.392 85.3685 120.672 85.476 119.528C85.691 116.484 85.7985 115.048 85.3685 112.432C84.4407 106.592 85.1534 100.356 86.3679 94.516C86.5113 93.764 86.6905 92.976 86.8657 92.224C87.1524 91.148 86.8657 90.72 86.4038 89.896L86.3679 89.86C86.2246 89.644 86.0454 89.464 85.906 89.324C85.691 89.144 85.5477 88.928 85.48 88.68V88.392C85.48 88.356 85.5158 88.32 85.5158 88.284C85.5516 88.212 85.5516 88.14 85.5875 88.032C85.6233 87.996 85.6592 87.96 85.695 87.888C85.7308 87.816 85.7667 87.744 85.8383 87.708C85.9817 87.528 86.125 87.384 86.3002 87.244C86.6586 86.92 87.013 86.636 87.0847 86.132C87.1205 85.808 86.9413 85.488 86.7263 85.128C86.583 84.876 86.4396 84.664 86.3679 84.412C86.2604 84.448 86.1887 84.484 86.0812 84.556C86.1171 84.628 86.1529 84.7 86.1887 84.772C86.5113 85.416 86.8298 86.096 86.6507 86.672C86.6507 86.708 86.6148 86.744 86.579 86.78C86.4356 86.996 86.2206 87.176 85.9379 87.388C85.4043 87.816 84.8668 88.248 85.0101 88.536C85.1535 88.932 85.4362 89.252 85.687 89.54C86.1131 90.04 86.6148 90.58 86.6148 91.44C86.579 91.94 86.3281 92.872 85.9737 93.948L85.8662 94.308C85.6154 95.384 85.4043 96.528 85.1893 97.676C85.0459 98.392 84.9384 99.108 84.7951 99.824L84.7592 100.396C84.7234 101.112 84.6876 101.864 84.6159 102.58C84.6159 102.796 84.5442 103.044 84.5084 103.26C84.4725 103.476 84.4367 103.688 84.4367 103.904C84.4367 104.12 84.4367 104.332 84.4725 104.548C84.5084 104.764 84.5084 104.976 84.5084 105.228C84.4725 106.696 84.5442 108.164 84.6517 109.6C84.6876 110.352 84.7592 111.14 84.7592 111.892L84.7951 112.144C84.9743 113.396 85.2211 114.94 85.2211 115.872C85.1853 116.336 85.1495 116.804 85.1136 117.304C85.0778 117.84 85.0061 118.38 85.0061 118.844L85.042 119.416C85.0778 120.204 85.0778 120.992 85.2211 121.672C85.2928 121.852 85.4003 122.068 85.472 122.28C85.5795 122.496 85.6512 122.676 85.7229 122.888C85.7587 122.996 85.7945 123.068 85.7945 123.176C85.8304 123.248 85.8662 123.32 85.8662 123.392C85.9021 123.464 85.9379 123.572 85.9379 123.644C86.0454 123.86 86.1171 124.076 86.1529 124.252V124.256Z" fill="#F5F3F1"/>
<path d="M68.7121 80.976C69.4607 80.58 69.6041 81.012 69.8191 80.008C71.8538 77.284 72.71 75.316 75.2743 73.668C74.454 74.096 73.6338 74.564 73.0285 74.956C71.6747 75.708 71.0296 76.856 70.2452 78.144L69.8868 78.788C69.6718 79.148 69.4926 79.396 69.3532 79.612C69.2815 79.72 69.2457 79.792 69.2099 79.828C69.1621 79.9 69.1501 79.96 69.174 80.008C69.174 80.116 69.174 80.296 69.1023 80.544C69.0665 80.616 69.0665 80.652 68.9948 80.724C68.8515 80.904 68.7081 80.976 68.6006 81.012C68.4573 81.084 68.2781 81.156 67.8879 81.584C67.2826 82.228 66.8167 82.696 65.8889 83.196C65.8173 83.268 65.7097 83.304 65.6022 83.376H65.6739C67.0278 83.304 67.7445 81.692 68.7041 80.976H68.7121Z" fill="#F5F3F1"/>
<path d="M85.6194 139.196C86.0813 135.256 85.9777 130.42 86.1888 126.192C86.0454 126.156 85.9021 126.084 85.8304 125.94V127.876C85.7229 128.88 85.7229 129.704 85.7229 130.528C85.7229 131.064 85.7229 131.64 85.687 132.284C85.687 133.252 85.5795 134.292 85.472 135.292C85.4362 135.756 85.3645 136.188 85.3287 136.616C85.257 137.692 85.1853 138.836 85.1136 139.948C85.0778 140.772 85.0061 141.596 84.9703 142.384C84.8986 143.744 84.8628 144.068 84.6478 145.392L84.6119 145.68C84.5044 146.828 84.3611 148.224 84.0425 149.372H84.4009C84.4726 148.476 85.1853 146.54 85.257 145.108C85.4003 143.136 85.4003 141.204 85.6154 139.196H85.6194Z" fill="#F5F3F1"/>
<path d="M110.263 106.092C111.868 101.72 114.293 100.216 116.718 97.384C117.646 96.308 118.395 95.164 119.215 94.016C119.322 93.872 119.394 93.764 119.466 93.62C119.322 93.476 119.179 93.368 119.107 93.26C119.107 93.224 119.071 93.224 119.071 93.188C118.61 93.94 118.18 94.62 117.682 95.232C117.184 96.236 116.435 97.276 115.328 98.456L115.185 98.6C114.652 99.172 114.078 99.748 113.58 100.356C113.401 100.536 113.258 100.68 113.118 100.82C112.939 100.964 112.796 101.144 112.657 101.284C112.513 101.428 112.406 101.644 112.298 101.82C112.191 101.996 112.083 102.18 111.94 102.356C111.796 102.532 111.653 102.68 111.514 102.82C111.37 102.964 111.191 103.144 111.088 103.32C110.944 103.5 110.873 103.748 110.765 103.964C110.694 104.144 110.622 104.324 110.514 104.464C110.335 104.788 110.192 105.072 110.052 105.396C110.124 105.648 110.16 105.86 110.267 106.076L110.263 106.092Z" fill="#F5F3F1"/>
<path d="M135.127 87.424C135.091 87.388 134.84 87.208 133.88 86.996C134.203 87.284 134.521 87.64 134.844 88C135.095 88.288 135.342 88.536 135.592 88.788H135.628C135.521 88.392 135.413 88.036 135.306 87.64C135.27 87.532 135.198 87.496 135.127 87.424Z" fill="#F5F3F1"/>
<path d="M123.428 84.308C123.679 84.02 123.786 83.844 123.925 83.628C123.428 83.7 122.926 83.772 122.5 83.844C122.392 84.06 122.285 84.24 122.213 84.38C122.07 84.596 122.034 84.704 121.998 84.952V85.204C121.998 85.348 121.998 85.492 121.962 85.668C122.142 85.524 122.321 85.344 122.496 85.204C122.818 84.88 123.173 84.56 123.424 84.308H123.428Z" fill="#F5F3F1"/>
<path d="M126.709 83.448H126.673C126.816 83.628 126.995 83.808 127.135 83.984C127.493 84.38 127.848 84.808 128.206 85.204C128.17 85.168 128.134 85.132 128.134 85.096C127.672 84.596 127.242 83.948 126.709 83.448Z" fill="#F5F3F1"/>
<path d="M120.824 93.084C121.644 93.764 122.321 94.304 122.894 94.732C123.217 94.948 123.535 95.128 123.858 95.34C124.109 94.944 124.427 94.588 124.786 94.228C124.821 94.156 124.857 94.12 124.893 94.084C124.714 93.94 124.571 93.796 124.431 93.688C123.539 93.008 122.898 92.4 123.185 91V90.856C123.221 90.428 123.256 90.32 123.4 89.924C123.113 89.528 122.902 89.28 122.795 89.208C122.723 89.172 122.369 89.316 122.046 89.852C121.938 90.032 121.938 90.104 121.938 90.248C121.938 90.392 121.938 90.608 121.867 90.928C121.544 91.608 121.118 92.396 120.688 93.076C120.796 93.04 120.796 93.076 120.831 93.076L120.824 93.084Z" fill="#F5F3F1"/>
<path d="M58.833 86.636C58.833 86.384 58.9047 86.172 58.9763 85.992C58.8688 86.136 58.7971 86.28 58.7255 86.388C58.7613 86.424 58.7971 86.496 58.833 86.64V86.636Z" fill="#F5F3F1"/>
<path d="M125.745 90.22C126.171 90.004 126.315 89.932 126.53 89.86C126.637 89.824 126.78 89.752 127.027 89.644C127.207 89.572 127.314 89.536 127.422 89.5C127.386 89.392 127.386 89.248 127.386 89.14C127.422 88.924 127.457 88.46 127.883 88.388C128.278 88.316 128.489 88.64 128.74 89.176C128.847 89.14 128.919 89.104 129.026 89.068C129.05 89.068 129.074 89.056 129.098 89.032C128.955 88.852 128.847 88.604 128.847 88.352C128.847 87.956 128.99 87.744 129.273 87.708C129.452 87.672 129.56 87.708 129.667 87.816C129.667 87.6 129.811 87.492 129.882 87.456C130.241 87.204 130.488 87.348 131.738 88.568C131.917 88.532 132.06 88.496 132.2 88.496C131.985 88.244 131.774 87.96 131.523 87.636C131.38 87.42 131.415 87.136 131.63 86.956C131.845 86.812 132.128 86.848 132.307 87.064C133.343 88.532 133.805 88.784 133.948 88.82C134.055 88.784 134.163 88.712 134.27 88.712C134.235 88.676 134.199 88.64 134.163 88.604C133.737 88.14 133.307 87.672 132.948 87.384C132.626 87.132 132.554 86.74 132.733 86.38C132.913 86.02 133.267 85.844 133.625 85.952C134.159 86.06 134.589 86.168 134.943 86.276C134.728 85.632 134.481 85.024 134.195 84.448C133.769 84.268 133.267 84.16 132.733 84.02C131.841 83.768 130.806 83.624 129.596 83.592C129.632 83.628 129.632 83.7 129.667 83.772C129.739 83.988 129.811 84.168 129.847 84.38C129.954 84.632 130.062 84.88 130.133 85.132C130.241 85.384 130.384 85.668 130.348 85.884C130.348 85.92 130.312 85.956 130.312 85.992V86.136C130.312 86.172 130.312 86.244 130.277 86.28C130.133 86.676 129.635 87.104 129.205 87.212C129.134 87.248 129.026 87.248 128.955 87.248C128.74 87.248 128.56 87.14 128.493 87.068C128.457 87.032 128.421 86.996 128.421 86.96C128.063 86.46 127.207 85.492 126.494 84.632C126.1 84.204 125.781 83.808 125.494 83.484C125.387 83.484 125.315 83.484 125.208 83.52C125.064 83.736 124.921 83.916 124.849 84.056C124.67 84.344 124.527 84.556 124.208 84.952C123.921 85.276 123.531 85.596 123.137 85.92C122.675 86.316 122.209 86.708 121.855 87.14C121.783 87.784 121.711 88.464 121.532 89.076C122.03 88.396 122.779 88.072 123.352 88.324C123.567 88.432 123.85 88.752 124.459 89.544C124.993 89.436 125.208 90.08 125.741 90.224L125.745 90.22Z" fill="#F5F3F1"/>
<path d="M85.2291 82.872C85.1933 82.728 85.1575 82.584 85.1575 82.476C85.0858 81.94 85.0141 81.4 84.6956 81.008C84.6597 80.972 84.588 80.936 84.5522 80.936C84.373 81.044 84.2297 81.152 84.0903 81.26C84.1978 81.548 84.2337 81.832 84.2695 82.084L84.3053 82.3C84.4845 83.448 84.592 83.84 85.3406 83.876C85.4123 83.84 85.484 83.804 85.5198 83.804C85.3765 83.48 85.3048 83.16 85.2331 82.872H85.2291Z" fill="#F5F3F1"/>
<path d="M124.176 90.828V91.08C124.033 91.724 124.14 92.048 124.57 92.476C124.284 91.976 124.248 91.472 124.248 90.864C124.212 90.864 124.176 90.828 124.176 90.828Z" fill="#F5F3F1"/>
<path d="M120.859 90.792L120.895 90.828C120.931 90.72 121.003 90.648 121.039 90.54V90.076C121.003 90.184 120.967 90.328 120.824 90.54C120.788 90.612 120.788 90.72 120.859 90.792Z" fill="#F5F3F1"/>
<path d="M98.461 67.684C98.4252 67.648 98.4969 67.468 98.461 67.04C98.4252 66.504 98.3177 65.928 98.2102 65.356C98.1743 65.928 98.1743 66.468 98.1743 66.968C98.2102 67.468 98.3894 67.648 98.461 67.684Z" fill="#F5F3F1"/>
<path d="M130.308 88.856C130.201 88.784 130.129 88.676 130.058 88.604C130.058 88.64 130.093 88.676 130.093 88.712C130.129 88.748 130.201 88.784 130.308 88.856Z" fill="#F5F3F1"/>
<path d="M59.5458 85.168C60.1152 84.74 60.9355 84.632 61.5805 84.952C62.2574 85.24 62.6517 85.884 62.6517 86.672V86.816C62.6517 87.068 62.58 87.28 62.5083 87.46C63.1136 87.676 63.7905 87.604 64.6108 87.496L64.8258 87.46C65.1483 87.424 65.3235 87.388 65.4669 87.388C65.3594 87.244 65.2877 87.1 65.1443 86.924C65.0368 86.78 64.9293 86.636 64.8218 86.496C64.6426 86.244 64.4634 86.032 64.3241 85.744C64.1807 85.492 64.0732 85.244 63.9657 84.992C63.9299 84.884 63.8582 84.776 63.8223 84.668C62.6079 84.524 61.039 84.452 60.147 84.596C60.1112 84.632 60.0395 84.668 60.0037 84.704H59.9678C59.8962 84.776 59.717 84.956 59.5418 85.168H59.5458Z" fill="#F5F3F1"/>
<path d="M103.562 54.356C103.813 54.572 104.06 54.82 104.346 54.964C104.808 55.252 105.417 55.324 106.059 55.252C105.7 55.144 105.31 55.036 104.952 54.892C104.49 54.712 104.024 54.532 103.562 54.356Z" fill="#F5F3F1"/>
<path d="M124.459 80.76C124.674 81.12 124.853 81.296 125.064 81.332C125.562 81.368 126.171 81.224 126.848 81.008L126.422 80.936C125.673 80.864 125.032 80.792 124.459 80.756V80.76Z" fill="#F5F3F1"/>
<path d="M94.9649 53.496C95.821 53.136 96.8922 52.852 97.2107 52.78C97.0315 52.744 96.8523 52.708 96.6771 52.672C96.4621 52.744 96.2152 52.78 96.0002 52.78C95.7852 52.78 95.606 52.744 95.3949 52.672C95.2874 52.78 95.1441 52.852 95.0366 52.96L95.0007 53.104C95.0007 53.212 95.0007 53.356 94.9649 53.5V53.496Z" fill="#F5F3F1"/>
<path d="M93.5035 54.64H94.073C94.0371 54.424 94.0013 54.176 94.0013 53.888C94.0013 53.708 94.0013 53.528 94.0371 53.352C93.8579 53.388 93.6788 53.424 93.5035 53.424C93.181 53.424 92.8266 53.352 92.4683 53.244C91.9705 53.064 91.4688 52.744 91.0786 52.276C90.9352 53.1 90.7919 53.924 90.6525 54.64V54.712C91.3294 54.64 92.0422 54.604 92.7231 54.604C92.974 54.64 93.2567 54.64 93.5075 54.64H93.5035Z" fill="#F5F3F1"/>
<path d="M92.0382 51.92C92.2532 52.1 92.5001 52.244 92.751 52.348C93.2487 52.528 93.8579 52.528 94.3915 52.204C93.8938 52.096 93.3562 52.024 92.8585 51.916C92.6076 51.952 92.3249 51.952 92.0382 51.916V51.92Z" fill="#F5F3F1"/>
<path d="M81.9441 79.04C81.9082 78.968 81.9082 78.896 81.8724 78.788C81.8724 78.752 81.8724 78.716 81.8365 78.716C81.8007 78.536 81.7649 78.356 81.7649 78.18V78.108C81.729 77.536 81.8724 76.924 82.1591 76.388V76.352C81.8724 76.64 81.5897 76.96 81.3388 77.284C81.4105 79.112 81.6255 80.116 83.1944 80.4C82.4816 80.076 82.0874 79.504 81.948 79.04H81.9441Z" fill="#F5F3F1"/>
<path d="M125.208 82.264H124.921C124.172 82.084 123.814 81.512 123.352 80.724C122.994 80.724 122.747 80.796 122.639 80.868C122.639 81.156 122.675 81.62 122.675 82.088C122.675 82.304 122.711 82.412 122.711 82.552C122.747 82.66 122.747 82.732 122.747 82.84C123.854 82.66 125.136 82.516 126.279 82.48C126.848 82.552 127.668 82.588 128.417 82.624L128.951 82.66C130.555 82.66 131.841 82.804 132.944 83.124C133.088 83.16 133.231 83.196 133.371 83.232C133.012 83.088 132.658 82.908 132.299 82.768C131.837 82.588 131.372 82.408 130.91 82.268C130.587 82.16 130.34 82.016 130.089 81.908C129.946 81.836 129.839 81.764 129.695 81.728C129.444 81.656 129.233 81.62 129.018 81.548C128.485 81.584 127.911 81.764 127.378 81.908C126.665 82.088 125.916 82.268 125.204 82.268L125.208 82.264Z" fill="#F5F3F1"/>
<path d="M126.709 83.448C127.242 83.948 127.637 84.596 128.098 85.096C128.134 85.132 128.17 85.168 128.17 85.204C128.493 85.564 128.775 85.92 128.99 86.208C129.098 86.136 129.241 86.028 129.313 85.956C129.277 85.456 128.708 84.2 128.493 83.664L128.457 83.556H128.385C127.816 83.52 127.207 83.484 126.709 83.448Z" fill="#F7A495"/>
<path d="M129.811 84.344C129.739 84.128 129.667 83.948 129.632 83.736C129.596 83.664 129.596 83.628 129.56 83.556H129.488C129.596 83.844 129.703 84.092 129.811 84.344Z" fill="#F7A495"/>
<path d="M130.308 85.848C130.344 85.632 130.201 85.348 130.093 85.096C130.201 85.456 130.273 85.74 130.273 85.956C130.273 85.92 130.273 85.884 130.308 85.848Z" fill="#F7A495"/>
<path d="M133.092 90.468C133.307 90.324 133.518 90.216 133.697 90.072C133.518 90.18 133.303 90.288 133.128 90.396C133.128 90.42 133.116 90.444 133.092 90.468Z" fill="#F7A495"/>
<path d="M132.63 90.684C132.63 90.684 132.594 90.684 132.594 90.72L132.487 90.792C132.558 90.756 132.63 90.72 132.666 90.684H132.63Z" fill="#F7A495"/>
<path d="M127.883 94.52C127.848 94.556 127.812 94.592 127.74 94.664C127.776 94.628 127.812 94.592 127.883 94.52Z" fill="#F7A495"/>
<path d="M132.948 89.288C132.733 89.108 132.487 88.86 132.236 88.5C132.092 88.5 131.913 88.536 131.774 88.572C131.881 88.68 132.025 88.788 132.132 88.932C132.455 89.148 132.737 89.292 132.952 89.292L132.948 89.288Z" fill="#F7A495"/>
<path d="M125.745 90.22C125.212 90.076 124.997 89.432 124.391 89.54C124.499 89.684 124.606 89.864 124.75 90.04C124.965 90.364 125.391 90.436 125.749 90.22H125.745Z" fill="#F7A495"/>
<path d="M130.667 90.184C130.774 90.364 130.846 90.472 130.954 90.58C131.061 90.508 131.204 90.436 131.312 90.4C131.061 90.292 130.85 90.22 130.671 90.112V90.184H130.667Z" fill="#F7A495"/>
<path d="M129.17 90.04C129.205 90.076 129.205 90.112 129.205 90.148C129.349 90.184 129.528 90.256 129.667 90.292C129.596 90.148 129.56 90.04 129.524 89.896C129.488 89.896 129.416 89.932 129.381 89.932C129.309 90.004 129.237 90.04 129.166 90.04H129.17Z" fill="#F7A495"/>
<path d="M128.56 90.9C128.525 90.864 128.453 90.828 128.417 90.828C128.202 90.684 128.023 90.54 127.883 90.4C127.776 90.436 127.633 90.472 127.422 90.544C127.171 90.652 127.027 90.724 126.924 90.76C126.745 90.832 126.601 90.904 126.247 91.048C125.606 91.444 124.785 91.336 124.248 90.868C124.248 91.476 124.284 91.98 124.57 92.48C124.714 92.624 124.857 92.732 125.068 92.908C125.247 93.052 125.427 93.196 125.602 93.372C125.777 93.548 125.996 93.732 126.207 93.908C126.35 94.052 126.422 94.268 126.315 94.444C126.386 94.48 126.458 94.48 126.494 94.48C126.709 94.372 127.422 93.692 127.493 93.476C127.529 93.368 127.565 93.26 127.565 93.188C127.637 92.972 127.672 92.724 127.959 92.328C128.282 91.9 128.493 91.828 128.779 91.72C128.851 91.684 128.959 91.648 129.03 91.612C128.851 91.396 128.708 91.148 128.568 90.896L128.56 90.9Z" fill="#F7A495"/>
<path d="M104.486 74.42C104.522 74.42 104.593 74.42 104.629 74.456C104.737 74.456 104.844 74.492 104.987 74.492C105.023 74.312 105.059 74.096 105.023 73.884C104.916 72.808 104.561 71.592 104.203 70.552C103.777 68.976 103.49 68.688 102.813 68.832C103.419 70.084 103.956 71.412 104.239 72.736C104.418 73.344 104.526 73.884 104.49 74.42H104.486Z" fill="#F7A495"/>
<path d="M99.0663 70.156V70.192C99.353 70.62 99.5999 71.124 99.8149 71.588C100.209 72.34 100.563 73.128 101.169 73.772C101.276 73.88 102.132 74.2 102.312 74.2C102.738 74.2 103.132 74.272 103.526 74.308C103.526 73.912 103.454 73.484 103.311 72.948C103.06 71.66 102.562 70.44 101.957 69.22C101.531 69.364 101.065 69.508 100.567 69.684C100.106 69.828 99.6038 69.972 99.0703 70.148L99.0663 70.156Z" fill="#F7A495"/>
<path d="M103.773 76.032C103.737 76.068 103.665 76.104 103.63 76.176C103.45 76.356 103.235 76.536 102.953 76.676C102.809 76.784 102.63 76.892 102.455 77C102.988 76.748 103.454 76.428 103.845 76.104C104.378 75.64 104.88 75.208 105.059 74.564V74.492L105.023 74.456C104.844 75.136 104.346 75.568 103.777 76.032H103.773Z" fill="#F08975"/>
<path d="M95.6418 75.1C95.7494 75.636 95.9644 76.068 96.2471 76.46C96.3188 76.496 96.3546 76.532 96.4263 76.568C96.0679 76.172 95.821 75.672 95.6777 75.028C95.6777 75.064 95.6777 75.1 95.6418 75.1Z" fill="#F08975"/>
<path d="M104.629 74.42C104.593 74.42 104.522 74.42 104.486 74.384C104.45 75.028 104.199 75.636 103.63 76.14C103.665 76.104 103.737 76.068 103.773 75.996C104.342 75.532 104.844 75.064 104.987 74.42C104.88 74.456 104.737 74.456 104.629 74.42Z" fill="#F08975"/>
<path d="M97.816 74.348C97.9593 74.348 98.4212 74.312 98.4212 73.812C98.4212 73.384 98.0629 73.312 97.8877 73.312C97.9235 73.312 97.9593 73.348 98.031 73.384C98.2819 73.492 98.3894 73.744 98.3177 73.992C98.246 74.172 98.0668 74.316 97.8916 74.316C97.82 74.316 97.7841 74.316 97.7124 74.28C97.5691 74.208 97.4257 74.172 97.2864 74.1C97.3581 74.28 97.6448 74.352 97.82 74.352L97.816 74.348Z" fill="#F08975"/>
<path d="M101.205 73.736C100.635 73.092 100.241 72.34 99.8507 71.552C99.5999 71.088 99.3888 70.62 99.1021 70.156V70.12C98.4252 70.336 97.7125 70.548 97.0315 70.728C96.8882 71.228 96.8524 71.876 96.6373 72.664C96.6732 72.664 96.709 72.7 96.7448 72.7C97.0674 72.412 97.4576 72.304 97.8518 72.304H97.8877C98.6363 72.304 99.4207 72.804 99.4207 73.772C99.4207 74.74 98.6721 75.24 97.8877 75.24H97.8518C97.1032 75.24 96.2829 74.74 96.2471 73.772V73.664C96.1396 74.128 95.9962 74.596 95.7135 74.988C95.8569 75.632 96.1077 76.136 96.4621 76.528C96.8882 76.78 97.3541 76.956 97.8518 77.064C98.3496 77.208 99.3132 77.064 100.169 76.776C101.097 76.596 101.882 76.276 102.451 75.844C103.235 75.344 103.558 74.876 103.594 74.268C103.2 74.232 102.773 74.16 102.379 74.16C102.128 74.196 101.272 73.836 101.201 73.732L101.205 73.736Z" fill="#F08975"/>
<path d="M124.997 96.132C125.212 96.632 124.853 97.244 124.427 97.924C124.284 98.176 124.14 98.388 124.069 98.532C124.069 98.532 124.033 98.64 123.997 98.64C123.675 99.284 123.069 100.504 122.643 101.256C122.145 102.224 121.859 103.156 121.572 104.192C121.465 104.588 121.321 104.98 121.214 105.376C120.855 106.128 120.429 107.06 120.035 107.956C119.748 108.564 119.466 109.176 119.179 109.784C118.821 110.572 118.43 111.396 118.036 112.184C118.215 112.04 118.395 111.932 118.534 111.824C118.996 110.892 119.498 109.996 120.031 109.1C121.457 106.808 122.066 104.048 123.026 101.54C125.271 97.384 125.984 96.92 124.989 96.128L124.997 96.132Z" fill="#486A6E"/>
<path d="M102.953 83.592C103.522 84.416 103.88 85.456 104.095 86.172C104.772 87.712 105.238 89.468 105.629 91.296C105.7 91.656 105.7 91.904 105.736 92.12C105.808 92.764 105.844 93.088 106.198 93.912C106.767 95.488 107.233 96.848 107.731 98.032C108.265 99.968 108.874 102.404 109.3 104.948C109.443 104.66 109.551 104.412 109.694 104.124C109.694 104.124 109.694 104.088 109.73 104.088C109.125 101.616 108.623 99.216 107.731 96.708C107.126 95.024 106.552 93.912 106.27 92.3C105.378 88.072 104.522 83.344 100.42 81.084C100.313 81.012 100.205 80.976 100.098 80.904C101.276 81.656 102.236 82.552 102.953 83.592Z" fill="#486A6E"/>
<path d="M96.2113 122.072C96.8523 120.28 95.176 119.636 94.8574 118.06V117.988C94.6782 117.736 94.5349 117.488 94.3955 117.236C94.3238 117.952 94.3597 118.168 94.3955 118.24C94.4672 118.456 94.6464 118.704 94.8216 118.992C95.2476 119.708 95.821 120.604 95.4985 121.536L95.4627 121.788C95.3193 122.468 95.176 123.148 95.2118 123.868C95.2476 124.62 95.4627 125.444 95.6737 126.268C95.817 126.732 95.9246 127.236 96.0321 127.736C96.0679 127.916 96.1037 128.096 96.1754 128.272C96.2471 128.56 96.3188 128.844 96.3546 129.132C96.4263 130.1 96.498 131.032 96.5696 131.964V132.392C96.5338 133.216 96.498 134.04 96.3904 134.828C96.2471 135.688 96.0321 136.548 95.7135 137.552C95.4268 138.984 94.8574 140.456 94.3238 141.888C94.073 142.604 93.7903 143.284 93.5752 143.968C93.2885 145.256 93.0058 147.12 92.755 148.624L92.5758 149.808C92.5758 149.88 92.5399 149.988 92.5041 150.06C92.7908 149.988 93.0018 149.88 93.0735 149.736C93.2885 149.34 93.2169 148.552 93.3602 147.764C93.6111 146.332 93.7186 145.256 94.1088 143.824C94.7499 141.424 95.9644 137.588 96.6771 135.188C97.8199 131.64 96.8205 127.916 95.7494 124.44C95.4627 123.292 95.8569 123.044 96.2113 122.076V122.072Z" fill="#486A6E"/>
<path d="M98.923 87.316C98.8513 87.172 98.8154 87.028 98.7438 86.888C98.4571 85.92 98.1027 85.204 97.6368 84.632C97.1749 83.988 96.5657 83.592 95.9246 83.164C95.8171 83.092 95.7095 83.02 95.602 82.948V83.952C95.5662 84.704 95.5304 85.528 95.7812 86.064C96.0679 87.14 97.2784 87.388 98.4571 87.604C98.7079 87.604 98.9548 87.676 99.0982 87.712C99.0265 87.568 98.9548 87.424 98.919 87.316H98.923Z" fill="#486A6E"/>
<path d="M120.824 93.084C120.8 93.06 120.776 93.036 120.752 93.012C120.716 93.084 120.644 93.156 120.608 93.228C121.285 93.656 122.106 94.196 122.89 94.696C122.321 94.336 121.644 93.8 120.82 93.084H120.824Z" fill="#486A6E"/>
<path d="M93.9296 86.888C94.073 86.96 94.288 86.996 94.6065 86.996C94.7499 86.996 94.9291 86.996 95.1043 86.96C94.9968 86.78 94.8893 86.564 94.8534 86.352C94.5667 85.672 94.6026 84.74 94.6384 83.916C94.6384 83.452 94.6742 82.984 94.6384 82.664V82.628C94.6026 82.664 94.6026 82.7 94.5667 82.736C94.6384 82.916 94.6026 83.164 94.4592 83.308C94.3517 83.416 94.2442 83.488 94.1367 83.524C93.8858 83.988 93.6748 84.492 93.4239 85.064C92.8545 86.352 93.4598 86.64 93.9217 86.892L93.9296 86.888Z" fill="#486A6E"/>
<path d="M93.3961 141.488C93.9296 140.092 94.4672 138.656 94.7499 137.224C95.0724 136.22 95.2476 135.396 95.391 134.608C95.4627 133.856 95.4985 133.068 95.5343 132.244L95.5702 131.884C95.4627 131.024 95.391 130.056 95.3552 129.124C95.3193 128.908 95.2476 128.66 95.176 128.444C95.1043 128.228 95.0685 128.048 95.0326 127.836C94.9251 127.372 94.8176 126.904 94.6742 126.44C94.4234 125.544 94.2123 124.72 94.1765 123.824C94.1407 123 94.3199 122.248 94.4632 121.532L94.5349 121.244C94.7141 120.672 94.3199 120.06 93.9655 119.452C93.7863 119.128 93.6071 118.844 93.5036 118.556C93.3602 118.268 93.3602 117.768 93.4677 116.836C93.4677 116.408 93.5036 115.94 93.5752 115.512C92.8625 113.648 92.8983 112.108 93.0058 110.172C93.0058 109.812 93.0417 109.456 93.0417 109.096C93.0775 108.844 93.1133 108.524 93.185 108.2C93.3284 107.484 93.5075 106.696 93.3284 106.192C93.2208 105.904 93.185 105.796 93.0058 105.796C92.9341 105.796 92.7908 105.832 92.6116 105.904C92.3249 106.012 92.0064 106.332 91.6838 106.656C91.5405 106.8 91.433 106.908 91.3254 107.016C91.0388 107.268 90.756 107.552 90.4693 107.84C89.9716 108.34 89.4699 108.844 88.9363 109.2C88.5421 109.452 88.2235 109.596 88.0085 109.596C87.901 109.596 87.7935 109.56 87.7218 109.488C87.6143 109.344 87.5785 109.128 87.6143 108.772C87.6501 108.448 87.7577 108.128 87.901 107.84C87.7577 107.768 87.6501 107.696 87.5785 107.552C87.3993 107.124 87.6143 106.764 88.0045 106.192L88.1837 105.868C88.6456 105.044 89.219 104.184 89.6092 103.612C89.7526 103.396 89.8959 103.216 90.0353 103.004C90.107 102.788 90.1787 102.608 90.2862 102.396C90.4295 102 90.5729 101.716 90.6804 101.464C91.0746 100.532 91.1781 100.28 91.1423 98.668C91.1064 97.308 88.8606 95.836 86.3998 94.476C85.1853 100.316 84.4726 106.552 85.4004 112.392C85.7946 115.008 85.7229 116.404 85.5079 119.488C85.4362 120.636 85.7946 122.356 86.3998 123.536C86.364 123.86 86.364 124.216 86.3281 124.54C86.3998 124.72 86.4715 124.864 86.5432 125.004C86.6865 125.328 86.794 125.504 86.794 125.684C86.794 125.936 86.579 126.148 86.3321 126.148H86.2605C86.0454 130.376 86.1529 135.248 85.691 139.152C85.4402 141.124 85.476 143.056 85.3685 145.064C85.2968 146.532 84.5841 148.432 84.5124 149.328C85.0101 149.328 85.5477 149.364 86.1171 149.364C87.1882 149.4 88.2554 149.436 89.1473 149.4C89.3624 149.4 89.6092 149.364 89.8243 149.328C90.111 149.292 90.3937 149.256 90.6445 149.256C91.0029 149.256 91.3215 149.292 91.5723 149.292H91.6798L91.8232 148.252C92.074 146.712 92.3568 144.812 92.6793 143.488C92.8943 142.916 93.1412 142.196 93.3921 141.48L93.3961 141.488Z" fill="#486A6E"/>
<path d="M119.147 107.596C119.541 106.664 119.967 105.732 120.326 105.016C120.433 104.692 120.541 104.3 120.684 103.904C121.007 102.864 121.289 101.86 121.827 100.824C122.289 100.036 122.862 98.852 123.181 98.208C123.288 97.956 123.468 97.672 123.643 97.42C123.786 97.204 124.001 96.848 124.105 96.596C122.962 95.916 121.25 94.804 120.075 94.052L119.752 93.836C119.645 93.764 119.573 93.692 119.502 93.62C119.43 93.764 119.322 93.872 119.251 94.016C118.43 95.164 117.682 96.308 116.754 97.384C114.329 100.18 111.904 101.72 110.299 106.092C110.299 106.128 110.263 106.128 110.263 106.092C110.192 105.876 110.156 105.664 110.084 105.448C109.905 105.876 109.726 106.272 109.622 106.7C110.586 108.708 111.191 110.532 111.406 112.112C111.765 113.616 111.155 113.94 110.909 114.012C110.837 114.012 110.801 114.048 110.729 114.048C110.335 114.048 109.837 113.688 109.483 112.652C108.878 110.752 108.699 108.352 108.591 106.776V106.668C108.165 103.624 107.412 100.612 106.807 98.356C106.345 97.208 105.844 95.884 105.31 94.308C104.916 93.412 104.884 92.948 104.776 92.3C104.741 92.084 104.705 91.836 104.669 91.548C104.275 89.792 103.849 88.108 103.172 86.604C102.957 85.924 102.638 84.956 102.136 84.24C101.424 83.236 100.46 82.304 99.2455 81.516C98.7836 81.228 98.2102 80.944 97.6766 80.656C97.2147 80.404 96.7488 80.156 96.3228 79.904C96.3228 79.904 96.2869 79.904 96.2869 79.94C96.0361 80.368 95.7533 80.8 95.5025 81.192C95.4308 81.336 95.3233 81.444 95.2516 81.588C95.5742 81.912 96.0002 82.16 96.4303 82.448C97.143 82.912 97.8558 83.38 98.3934 84.132C98.9269 84.776 99.3211 85.6 99.6397 86.676C99.6755 86.784 99.7472 86.892 99.783 87.036C99.8906 87.324 100.034 87.608 100.141 87.932C100.177 88.04 100.141 88.112 100.106 88.22C100.141 88.256 100.177 88.292 100.177 88.364C100.213 88.616 99.9981 89.548 99.7512 90.764C99.4287 92.124 99.0743 93.844 98.9309 95.1C97.7523 101.872 102.32 107.604 106.708 112.44C107.102 112.868 107.42 113.264 107.707 113.624C108.814 114.948 109.455 115.772 110.988 115.772C111.486 115.772 112.023 115.7 112.7 115.52C113.485 115.34 114.91 114.48 116.376 113.512C117.088 112.224 117.73 110.86 118.339 109.536C118.625 108.784 118.872 108.176 119.159 107.6L119.147 107.596Z" fill="#486A6E"/>
<path d="M110.55 112.756C110.55 112.612 110.514 112.468 110.478 112.256C110.371 111.432 110.156 110.572 109.837 109.64C109.945 110.572 110.124 111.504 110.407 112.328C110.407 112.508 110.478 112.652 110.55 112.756Z" fill="#486A6E"/>
<path d="M118.148 112.684C118.291 112.396 118.434 112.148 118.574 111.86V111.824C118.395 111.932 118.215 112.076 118.076 112.184C117.507 113.332 116.897 114.476 116.185 115.516C115.472 116.768 114.58 117.488 113.365 118.42C112.939 118.708 112.473 118.992 112.012 119.244C111.976 119.244 111.976 119.28 111.94 119.28C113.473 119.28 114.795 118.456 115.826 116.844C115.934 116.664 116.041 116.484 116.149 116.308C116.364 115.948 116.575 115.628 116.79 115.268C117.252 114.444 117.718 113.548 118.144 112.688L118.148 112.684Z" fill="#344E52"/>
<path d="M97.1749 105.912C96.8882 107.2 96.498 108.456 96.1037 109.708C95.9246 110.244 95.7454 110.82 95.606 111.356C95.0724 112.824 94.3915 114.976 94.3915 116.944C94.3915 117.052 94.3557 117.124 94.3557 117.232C94.499 117.484 94.6424 117.732 94.8176 117.984C94.6742 117.124 94.8534 114.832 95.2118 113.756C95.391 113.184 95.5702 112.644 95.7454 112.144C96.0679 111.248 96.3506 110.424 96.6373 109.348C96.8882 108.488 97.1709 107.34 97.4218 106.376C97.3501 106.196 97.2784 106.052 97.1709 105.912H97.1749Z" fill="#344E52"/>
<path d="M92.7868 83.088C92.751 83.124 92.751 83.16 92.7151 83.16C92.751 83.16 92.7868 83.16 92.7868 83.088C93.0019 82.98 93.1452 82.908 93.2846 82.872C93.4638 82.8 93.5354 82.728 93.7823 82.548C93.9973 82.368 94.28 82.404 94.4592 82.62C94.4951 82.656 94.4951 82.692 94.5309 82.728C94.5667 82.692 94.5667 82.656 94.6026 82.62C94.5667 82.332 94.4234 82.048 94.28 81.724C94.1009 81.868 93.9575 82.048 93.7823 82.188C93.4239 82.512 93.1054 82.796 92.7828 83.084L92.7868 83.088Z" fill="#344E52"/>
<path d="M115.364 115.048C115.723 114.512 116.077 113.972 116.364 113.4C114.902 114.368 113.473 115.228 112.688 115.408C112.012 115.588 111.442 115.66 110.976 115.66C109.443 115.66 108.802 114.872 107.695 113.512C107.408 113.152 107.09 112.76 106.696 112.328C102.308 107.492 97.7801 101.76 98.919 94.988C99.0265 93.736 99.4167 92.052 99.7392 90.652C100.026 89.432 100.237 88.504 100.165 88.252C100.165 88.18 100.129 88.144 100.094 88.108C100.094 88.144 100.058 88.216 100.022 88.252C99.7353 88.576 99.4884 88.68 99.2375 88.68C99.0583 88.68 98.915 88.644 98.8115 88.608C98.7398 88.572 98.6681 88.572 98.5964 88.536C98.7039 88.752 98.6323 89 98.4173 89.144C98.0947 89.36 97.7762 89.54 97.4536 89.752C97.0276 90.004 96.5975 90.288 96.1356 90.576C95.2437 91.004 94.4592 91.508 93.9615 91.972C93.854 92.044 93.7465 92.116 93.6389 92.116C93.4956 92.116 93.3881 92.08 93.2806 91.972C93.1014 91.792 93.1014 91.472 93.3164 91.292C93.8858 90.756 94.7419 90.18 95.7056 89.716C96.1316 89.464 96.5617 89.18 96.9519 88.928C97.2386 88.748 97.5213 88.568 97.808 88.428C96.8802 88.248 95.7056 87.928 95.0963 86.96C94.9171 86.96 94.7738 86.996 94.5986 86.996C94.2761 86.996 94.065 86.96 93.9217 86.888C93.4598 86.636 92.8505 86.388 93.3881 85.06C93.6389 84.488 93.85 83.984 94.1008 83.52C93.9575 83.628 93.8142 83.7 93.7066 83.736C93.5991 83.772 93.4916 83.844 93.3124 83.952C93.0257 84.132 92.5997 84.38 92.2055 84.38C92.0263 84.38 91.8112 84.308 91.6719 84.128C91.1383 83.556 91.8869 82.696 92.0979 82.444C92.4563 82.12 92.7749 81.8 93.0974 81.512C93.3124 81.296 93.5593 81.084 93.7743 80.868C93.7743 80.868 93.7743 80.832 93.7385 80.832C93.416 80.976 93.0974 81.12 92.7749 81.26C92.6315 81.332 92.4523 81.404 92.2771 81.476C92.2055 81.512 92.1696 81.548 92.0979 81.584C91.8829 81.692 91.7037 81.8 91.4927 81.908C90.8516 82.232 90.2464 82.588 89.6371 82.948C89.5296 82.984 89.3863 83.056 89.2787 83.128C89.2429 83.128 89.2071 83.164 89.2071 83.164C88.5301 83.56 87.7815 83.916 87.1365 84.168C87.1365 84.168 87.1006 84.168 87.1006 84.204C86.9573 84.276 86.8139 84.348 86.6387 84.348C86.5312 84.384 86.4595 84.42 86.352 84.456C86.4237 84.708 86.5671 84.956 86.7104 85.172C86.9254 85.532 87.1365 85.852 87.0688 86.176C86.9971 86.676 86.6427 87 86.2843 87.288C86.2485 87.324 86.2127 87.36 86.141 87.432C86.0335 87.54 85.8901 87.648 85.8185 87.756C85.7826 87.828 85.7109 87.864 85.6751 87.936C85.6393 87.972 85.6034 88.008 85.5676 88.08C85.5318 88.188 85.5318 88.224 85.4959 88.332C85.4959 88.368 85.4601 88.404 85.4601 88.44V88.728C85.4959 88.836 85.5318 88.944 85.6034 89.016C85.6751 89.124 85.7826 89.268 85.8901 89.376C86.0335 89.52 86.2127 89.7 86.352 89.912L86.3879 89.948C86.8856 90.772 87.1365 91.2 86.8498 92.276C86.6706 93.064 86.4914 93.816 86.352 94.568C88.777 95.928 91.0587 97.4 91.0945 98.76C91.1303 100.372 91.0228 100.588 90.6326 101.556C90.5251 101.808 90.3817 102.092 90.2384 102.488C90.1667 102.704 90.095 102.884 89.9875 103.096C91.1303 101.484 92.3767 99.944 93.5195 98.688C93.2686 98.08 93.0576 97.468 92.8067 96.896C92.6275 96.396 92.4842 95.856 92.309 95.356C92.094 94.604 91.8471 93.888 91.6321 93.244C90.8835 93.028 89.0279 92.384 87.7457 91.56C87.5307 91.416 87.459 91.132 87.6024 90.916C87.7457 90.7 88.0284 90.628 88.2434 90.772C88.6018 91.024 89.0637 91.236 89.5256 91.452C89.4181 91.38 89.3106 91.272 89.2031 91.2C88.5978 90.628 87.7417 89.732 87.0648 88.8C86.9214 88.584 86.9573 88.3 87.1723 88.12C87.3873 87.976 87.67 88.012 87.8492 88.228C88.4903 89.124 89.3106 89.948 89.884 90.484C90.1349 90.7 90.4892 90.912 90.8118 91.164C91.4529 91.592 92.094 92.024 92.3807 92.524C92.3807 92.56 92.4165 92.596 92.4165 92.632C92.6674 93.348 92.9501 94.244 93.2009 95.104C93.3443 95.604 93.5235 96.108 93.6628 96.572C93.9854 97.288 94.2681 98.04 94.5906 98.828C94.949 99.76 95.3392 100.728 95.7334 101.624C96.1595 102.556 96.6612 103.452 97.1948 104.348C97.2665 104.42 97.3381 104.528 97.374 104.636C97.4815 104.816 97.589 104.996 97.7324 105.172C97.7324 105.1 97.7682 105.028 97.7682 104.992C98.6243 106.496 99.8707 108.252 101.193 109.828C101.977 110.76 102.762 111.908 103.546 113.016C104.008 113.66 104.438 114.304 104.864 114.844C106.043 116.456 107.823 118.14 109.714 118.928H109.786C110.785 119.036 111.996 118.212 112.677 117.744C113.927 116.812 114.675 116.168 115.352 115.056L115.364 115.048Z" fill="#344E52"/>
<path d="M95.2158 109.388C95.7135 107.812 96.1794 106.344 96.4621 104.732C95.9285 103.836 95.391 102.868 94.9291 101.9C94.5707 101.148 94.288 100.36 93.9655 99.572C92.7868 100.86 91.5046 102.476 90.3618 104.124C90.0034 104.624 89.5415 105.344 89.1155 106.024C89.7207 105.38 90.3977 104.556 90.6127 104.196C90.756 103.98 91.0387 103.908 91.2538 104.052C91.4688 104.196 91.5405 104.48 91.3971 104.696C91.3613 104.732 89.1871 107.848 88.0802 107.848C88.0085 107.848 87.901 107.812 87.8293 107.776C87.686 108.1 87.5785 108.42 87.5426 108.708C87.5068 109.068 87.5426 109.28 87.6501 109.424C87.7218 109.496 87.8293 109.532 87.9368 109.532C88.1518 109.532 88.4704 109.388 88.8646 109.136C89.3982 108.776 89.8999 108.276 90.3977 107.776C90.6844 107.488 90.9671 107.204 91.2538 106.952C91.3613 106.88 91.4688 106.736 91.6121 106.592C91.8988 106.268 92.2532 105.948 92.5399 105.84C92.7549 105.768 92.8625 105.732 92.9341 105.732C93.1133 105.732 93.1492 105.84 93.2567 106.128C93.4359 106.592 93.2567 107.416 93.1133 108.136C93.0416 108.46 92.97 108.78 92.97 109.032C92.97 109.428 92.9341 109.748 92.9341 110.108C92.8266 112.044 92.7908 113.584 93.5035 115.448C93.7186 113.764 94.2522 112.116 94.6822 110.932C94.8614 110.504 95.0406 109.964 95.2158 109.392V109.388Z" fill="#344E52"/>
<path d="M95.2158 81.476L95.2516 81.512C95.3233 81.368 95.4308 81.26 95.5025 81.116C95.7533 80.72 96.0361 80.292 96.2869 79.864C96.1436 79.936 95.9644 80.044 95.7533 80.188C95.7533 80.332 95.6817 80.476 95.5742 80.548C95.3591 80.692 95.1799 80.908 94.9689 81.084C95.0406 81.192 95.1123 81.3 95.2198 81.48C95.1839 81.444 95.2198 81.444 95.2198 81.48L95.2158 81.476Z" fill="#344E52"/>
<path d="M82.4458 161.588C81.9839 161.16 81.3746 160.62 80.8411 160.512C81.2671 160.8 81.7688 161.156 82.3741 161.552L82.4458 161.588Z" fill="#F7A495"/>
<path d="M83.4811 162.448C83.5528 162.52 83.6244 162.592 83.7319 162.7C83.8036 162.7 83.8753 162.664 83.947 162.664C83.6961 162.52 83.4492 162.376 83.1984 162.2C83.3417 162.272 83.4134 162.38 83.4851 162.452L83.4811 162.448Z" fill="#F7A495"/>
<path d="M80.5543 162.376C80.7335 162.7 80.9485 163.02 81.1237 163.344C81.6573 163.2 82.1591 163.092 82.621 162.948C82.5134 162.84 82.4059 162.768 82.1949 162.588L81.8007 162.3C81.2671 161.94 80.3752 161.296 79.9451 161.048C79.8734 161.512 80.3393 162.016 80.5504 162.372L80.5543 162.376Z" fill="#F7A495"/>
<path d="M84.7632 156.036C84.7632 155.608 84.7991 155.104 84.6199 154.712C84.5124 154.388 84.1938 154.104 83.8713 153.924L83.9071 153.96C84.369 154.388 84.4048 155.428 84.3013 157.184V157.4C84.4447 157.508 84.588 157.58 84.6955 157.652C84.8389 157.188 84.7672 156.328 84.7672 156.04L84.7632 156.036Z" fill="#F7A495"/>
<path d="M78.9496 157.864C78.9855 157.864 79.0213 157.9 79.0571 157.9C79.093 157.9 79.093 157.936 79.1288 157.936L79.1647 157.9C79.2722 157.828 79.3438 157.756 79.4514 157.684C79.2722 157.576 79.093 157.504 78.9536 157.432C78.8819 157.504 78.7744 157.576 78.7028 157.648C78.8103 157.72 78.8819 157.792 78.9536 157.864H78.9496Z" fill="#F7A495"/>
<path d="M81.5538 157.288C81.5896 157.324 81.5896 157.36 81.6255 157.396C81.8047 157.288 82.0197 157.216 82.1949 157.144C81.9799 157.108 81.7688 157.18 81.5538 157.288Z" fill="#F7A495"/>
<path d="M76.0627 159.868C76.0269 159.868 76.0269 159.832 75.9911 159.832C75.8477 159.94 75.7402 160.012 75.6327 160.084C75.6685 160.084 75.7044 160.12 75.7402 160.12C75.776 160.084 75.8119 160.048 75.8477 160.012C75.9194 159.976 75.9911 159.94 76.0627 159.868Z" fill="#F7A495"/>
<path d="M77.8427 158.724C77.9502 158.652 78.0577 158.58 78.1294 158.544C78.0935 158.508 78.0577 158.508 78.0218 158.472C77.9502 158.436 77.8785 158.4 77.8427 158.364C77.771 158.436 77.6635 158.508 77.5918 158.58C77.6276 158.616 77.6635 158.652 77.7351 158.688C77.771 158.688 77.8068 158.724 77.8427 158.724Z" fill="#F7A495"/>
<path d="M83.2302 154.604C83.0152 154.424 82.8719 154.28 82.7325 154.176C82.5891 154.068 82.5175 154.032 82.4458 153.996C82.3741 154.068 82.3024 154.14 82.2308 154.248C81.518 154.644 81.0879 155.468 80.4827 156.004C80.4588 156.028 80.4349 156.052 80.411 156.076L80.3752 156.112C80.4827 156.184 80.626 156.292 80.7336 156.4C80.8052 156.436 80.8411 156.508 80.9127 156.58C81.4822 156.22 82.1272 156.008 82.84 156.436C82.9475 156.508 83.1267 156.652 83.3377 156.76C83.4094 155.54 83.3736 154.824 83.2302 154.612V154.604Z" fill="#F7A495"/>
<path d="M115.687 165.6C116.045 165.816 116.507 165.816 116.865 165.6C117.188 165.42 117.327 165.064 117.292 164.632V164.596C117.292 164.168 117.148 163.808 116.83 163.628C116.65 163.52 116.471 163.484 116.26 163.484C116.049 163.484 115.866 163.52 115.691 163.628C115.44 163.772 115.193 164.024 115.193 164.596C115.157 165.168 115.444 165.456 115.691 165.6H115.687Z" fill="#F5F3F1"/>
<path d="M43.4628 165.708C43.9605 165.672 44.4981 165.384 44.4622 164.56C44.3905 163.808 43.8211 163.448 43.2836 163.448H43.1761C42.961 163.484 42.2124 163.592 42.2841 164.632C42.3558 165.42 42.9252 165.708 43.4628 165.708Z" fill="#F5F3F1"/>
<path d="M108.659 172.48C107.623 171.584 106.982 170.368 106.485 169.148C106.126 168.54 105.915 167.86 105.772 167.176C105.7 167.176 105.628 167.212 105.557 167.212C105.628 167.428 105.7 167.64 105.736 167.892C105.844 168.288 105.951 168.68 106.094 169.004C106.202 169.292 106.381 169.54 106.52 169.828L106.7 170.116C107.448 171.62 108.663 172.876 110.303 173.948C109.734 173.516 109.16 173.016 108.663 172.48H108.659Z" fill="#F5F3F1"/>
<path d="M107.412 156.216C108.053 155.536 108.73 154.856 109.411 154.172C110.16 153.6 111.016 153.132 111.908 152.776C111.98 152.74 112.087 152.704 112.159 152.668C111.733 152.812 111.339 152.992 110.944 153.204C109.981 153.6 109.196 154.064 108.519 154.564C107.986 155.064 107.448 155.64 106.879 156.212L106.556 156.536C105.772 157.576 105.059 158.828 104.382 160.44C104.275 160.728 104.167 161.012 104.06 161.3H104.095C104.31 161.372 104.522 161.372 104.772 161.372V161.264C105.413 159.472 106.234 157.716 107.412 156.212V156.216Z" fill="#F5F3F1"/>
<path d="M126.1 159.08C124.921 157.144 123.069 155.712 120.927 154.924C121.353 155.14 121.783 155.352 122.173 155.64C122.317 155.712 122.496 155.82 122.635 155.892C123.85 156.752 124.953 157.792 125.666 159.08C126.092 159.796 126.342 160.476 126.808 161.016C126.988 161.16 127.203 161.268 127.449 161.304H127.593C126.916 160.804 126.593 159.872 126.096 159.084L126.1 159.08Z" fill="#F5F3F1"/>
<path d="M124.71 161.804C125.068 163.024 125.208 164.384 125.068 165.96C124.71 167.536 124.14 168.828 123.392 169.828C123.213 170.152 122.966 170.472 122.715 170.76C123.464 170.08 124.105 169.328 124.606 168.468C125.785 166.104 125.924 163.024 124.535 160.728C124.037 159.58 123.252 158.544 122.181 157.86C123.217 158.864 124.109 160.188 124.714 161.8L124.71 161.804Z" fill="#F5F3F1"/>
<path d="M105.485 165.6C105.449 164.416 105.593 163.236 105.808 162.052C105.7 162.124 105.557 162.16 105.449 162.196C105.198 163.592 105.234 164.812 105.413 166.244C105.485 166.244 105.557 166.208 105.593 166.208C105.557 165.992 105.521 165.812 105.485 165.6Z" fill="#F5F3F1"/>
<path d="M104.45 162.34C104.271 162.34 104.127 162.304 103.952 162.268H103.809C103.558 162.196 103.347 162.052 103.204 161.84C103.06 161.624 103.024 161.376 103.096 161.16C103.132 161.088 103.132 161.052 103.168 160.98C103.06 161.088 102.988 161.16 102.917 161.232C102.773 161.376 102.666 161.52 102.383 161.768C101.527 162.484 100.958 162.952 100.173 163.704L99.8507 164.028C99.3172 164.636 98.7796 165.176 97.9235 165.568C97.1391 166.068 96.2113 166.284 95.2118 166.248C94.8893 166.248 94.7499 166.248 94.5707 166.284C94.3915 166.32 94.1765 166.32 93.8221 166.32C93.5354 166.32 93.3602 166.32 93.2169 166.284L92.755 166.248H92.4324C91.3255 166.212 90.6485 166.212 89.6132 166.248C88.9721 166.212 88.4704 166.212 87.9368 166.212C87.2241 166.284 86.4755 166.284 85.7627 166.284C84.9424 166.284 84.1222 166.248 83.3377 166.248H82.9117C82.7683 166.248 82.6608 166.248 82.5174 166.284C82.1232 166.284 81.9122 166.248 81.733 166.248H78.9138L77.8068 166.284H76.7715C76.4132 166.284 76.2021 166.248 76.0229 166.212C75.5969 166.176 75.1668 166.176 74.7766 166.176H74.7049C74.5257 166.212 74.3107 166.248 73.9205 166.248H72.495C72.1007 166.248 71.9255 166.212 71.7463 166.212C71.5672 166.212 71.4238 166.176 71.1053 166.176C70.3208 166.212 69.6797 166.248 68.9311 166.248H68.2542C67.7565 166.248 67.2906 166.212 66.8645 166.104C65.9367 165.888 65.0806 165.388 64.4037 164.672C64.1528 164.456 64.0453 164.348 63.906 164.244C63.7666 164.14 63.6193 163.992 63.3365 163.744C62.4446 162.956 61.6601 162.24 60.8399 161.416C61.0907 162.06 61.4093 162.668 61.7677 163.244C62.4804 164.464 63.6232 165.324 64.7621 166.148C64.9413 166.256 65.224 166.364 65.5107 166.472C65.6899 166.544 65.869 166.616 66.0084 166.688C66.1876 166.76 66.3309 166.832 66.5061 166.94C66.757 167.084 67.0039 167.192 67.2547 167.264C68.6444 167.552 70.0381 167.588 71.3561 167.588C74.3864 167.516 76.9547 167.516 79.523 167.588C80.5225 167.588 81.2353 167.624 82.2347 167.66C83.2342 167.588 83.9111 167.552 84.9464 167.552C85.3048 167.552 85.48 167.588 85.6592 167.588C85.8025 167.624 85.9817 167.624 86.2644 167.624C87.1205 167.624 87.7616 167.624 88.5461 167.588H90.2583C91.2219 167.588 92.1139 167.624 93.0058 167.48C94.0411 167.372 95.0047 167.408 95.8609 167.444C96.04 167.444 96.2551 167.372 96.5019 167.336C96.717 167.3 96.9638 167.264 97.1789 167.228C99.568 167.084 101.957 166.8 104.346 166.404C104.275 164.972 104.239 163.752 104.454 162.356L104.45 162.34Z" fill="#F5F3F1"/>
<path d="M75.4535 166.212C75.2027 166.212 75.0274 166.212 74.8841 166.248C75.2783 166.248 75.7044 166.248 76.1304 166.284H76.0588C75.9154 166.248 75.7721 166.212 75.4535 166.212Z" fill="#F5F3F1"/>
<path d="M85.7985 166.356C86.5471 166.356 87.2599 166.32 87.9727 166.284H86.6547C85.3725 166.248 84.2297 166.248 82.9435 166.32H83.3696C84.154 166.32 84.9743 166.356 85.7946 166.356H85.7985Z" fill="#F5F3F1"/>
<path d="M80.3752 166.284H81.7649C81.6215 166.248 81.4423 166.248 81.1238 166.248H80.8012C80.7654 166.248 80.7654 166.284 80.7296 166.284H80.3712H80.3752Z" fill="#F5F3F1"/>
<path d="M79.9491 166.284H80.7335C80.7574 166.284 80.7813 166.272 80.8052 166.248C80.411 166.248 80.0924 166.284 79.7341 166.284H79.9491Z" fill="#F5F3F1"/>
<path d="M48.8105 157.432C50.8452 159.008 52.1274 161.624 52.3066 164.56C52.2349 165.956 51.9124 167.32 51.3788 168.644C50.3435 170.22 49.2764 171.368 48.0977 172.156C48.3844 172.012 48.6313 171.904 48.8822 171.728C51.2713 170.116 52.7327 167.536 52.7327 164.956C52.8402 163.56 52.4101 162.16 52.0557 160.944C51.4147 159.476 50.2002 158.184 48.4879 157.112C48.4163 157.076 48.3804 157.076 48.3088 157.04C48.4521 157.184 48.6313 157.292 48.8065 157.436C48.7707 157.4 48.8065 157.4 48.8065 157.436L48.8105 157.432Z" fill="#F5F3F1"/>
<path d="M37.1474 173.628C36.4705 172.984 35.8294 172.376 35.1844 171.728C34.4716 170.796 34.0057 169.72 33.5438 168.684C33.4721 168.504 33.3646 168.288 33.2929 168.112C32.0466 163.596 33.2929 159.12 36.6457 155.968C36.6099 155.968 36.5741 155.968 36.5382 155.932C34.826 157.184 33.5796 158.904 33.0063 160.804C32.5085 161.952 32.2935 163.204 32.2935 164.6C32.401 167.932 33.7907 171.012 36.0365 172.84C36.7493 173.448 37.5337 174.092 38.3898 174.56H38.6048C38.1071 174.272 37.6054 173.988 37.1435 173.628H37.1474Z" fill="#F5F3F1"/>
<path d="M54.3055 168.54C54.3055 168.564 54.3177 168.589 54.3419 168.613C54.3419 168.613 54.3055 168.577 54.3055 168.54Z" fill="#F5F3F1"/>
<path d="M54.5524 169.58C54.6599 169.652 54.7316 169.724 54.8391 169.76C54.8391 169.76 54.875 169.76 54.875 169.796C54.875 169.796 54.875 169.76 54.9108 169.724C54.7675 169.544 54.6241 169.296 54.4847 169.044C54.5564 169.224 54.5564 169.404 54.5564 169.58H54.5524Z" fill="#F5F3F1"/>
<path d="M36.4705 154.424C36.4705 154.244 36.578 154.064 36.7214 153.924C36.6855 153.96 36.6139 153.96 36.578 153.996C36.3988 154.068 36.0803 154.212 35.9728 154.32C36.1878 154.572 36.3988 154.856 36.6497 154.964H36.7572C36.578 154.82 36.4705 154.604 36.4705 154.428V154.424Z" fill="#F5F3F1"/>
<path d="M38.4336 174.56C38.7561 174.74 39.0747 174.884 39.3972 174.988C39.4211 174.988 39.445 175 39.4689 175.024C39.1822 174.88 38.8995 174.736 38.6486 174.596C38.5769 174.56 38.5053 174.56 38.4336 174.56Z" fill="#F5F3F1"/>
<path d="M60.3302 87.568L60.366 87.604C60.5094 87.676 60.6886 87.676 60.8279 87.676L60.2943 87.388C60.3302 87.424 60.3302 87.496 60.3302 87.568Z" fill="#F5F3F1"/>
<path d="M61.1863 85.776C61.043 85.704 60.8996 85.668 60.7602 85.668C60.5094 85.668 60.2983 85.74 60.1191 85.884C60.0116 85.992 59.94 86.1 59.8683 86.244C60.0475 86.172 60.2625 86.172 60.4019 86.244L61.6482 86.96C61.684 86.888 61.684 86.78 61.7199 86.672C61.7199 86.136 61.4332 85.884 61.1863 85.776Z" fill="#F5F3F1"/>
<path d="M60.1908 86.708C60.0833 86.636 59.94 86.708 59.94 86.852C59.94 86.96 59.9041 87.032 59.9041 87.14C60.0116 87.392 60.2267 87.5 60.366 87.568V87.352L60.8996 87.64C61.1146 87.64 61.3257 87.532 61.469 87.424L60.1868 86.708H60.1908Z" fill="#F5F3F1"/>
<path d="M61.688 86.996L60.4417 86.28C60.2625 86.172 60.0833 86.208 59.9081 86.28C59.8723 86.388 59.8364 86.532 59.8364 86.676C59.8364 86.856 59.9081 87 59.9439 87.14C59.9439 87.068 59.9798 86.96 59.9798 86.852C59.9798 86.708 60.1231 86.636 60.2306 86.708L61.477 87.424L61.5128 87.388C61.5845 87.28 61.6203 87.172 61.692 86.992L61.688 86.996Z" fill="#F5F3F1"/>
<path d="M50.6661 153.204C53.1269 154.852 55.0183 157.216 56.0855 160.048C56.3722 161.124 56.619 162.056 56.7982 162.916C56.8341 165.568 56.7624 168.04 55.6554 170.26C55.6554 170.296 55.6196 170.332 55.5837 170.368C55.6912 170.404 55.7988 170.44 55.8704 170.44C56.0855 170.44 56.3323 170.296 56.404 170.116C57.4751 168.004 57.5468 165.528 57.511 163.02C57.3318 162.16 57.1168 161.228 56.8341 160.224C55.7629 157.428 53.9432 155.136 51.554 153.56C50.7696 153.096 49.9135 152.592 48.9857 152.236C48.9857 152.236 48.9857 152.272 48.9499 152.272C49.5193 152.524 50.0568 152.808 50.6621 153.204H50.6661Z" fill="#F7A495"/>
<path d="M43.6778 151.916C42.7859 151.988 41.8581 152.096 40.8944 152.204C40.0742 152.42 39.1822 152.704 38.3261 153.064C37.9 153.244 37.5058 153.46 37.1116 153.672C37.0041 153.744 36.8608 153.816 36.7174 153.888C36.5741 154.032 36.4666 154.212 36.4666 154.388C36.4666 154.564 36.5741 154.784 36.7533 154.96C37.3227 155.14 37.9996 155.14 38.5372 154.888C39.4291 154.388 40.3927 154.028 41.3922 153.812C42.0333 153.74 42.6385 153.704 43.2478 153.704C44.2114 153.704 45.1392 153.812 46.0311 153.992C46.3895 154.1 46.708 154.244 47.0306 154.352L47.0664 154.208C47.2814 153.708 47.4606 153.204 47.6717 152.668C47.2456 152.524 46.8514 152.38 46.4253 152.308C45.4259 152.092 44.5339 151.948 43.6778 151.912V151.916Z" fill="#F7A495"/>
<path d="M47.9185 154.78C48.3446 154.96 48.7388 155.176 49.0614 155.388C49.7383 155.712 50.3435 156.104 50.8453 156.536C53.3419 158.544 54.5883 161.372 54.6241 164.488V164.704C54.6241 165.564 54.5166 166.424 54.3374 167.284C54.2657 167.572 54.2299 167.856 54.2657 168.108V168.216C54.2657 168.324 54.3016 168.432 54.3374 168.576C54.3374 168.6 54.3493 168.624 54.3732 168.648C54.4091 168.756 54.4449 168.9 54.5166 169.008C54.5166 169.032 54.5285 169.056 54.5524 169.08C54.6599 169.332 54.8033 169.58 54.9785 169.76C55.9421 167.752 55.978 165.424 55.978 163.06C55.7988 162.308 55.5837 161.412 55.301 160.408C54.3016 157.792 52.5535 155.572 50.2719 154.068C49.7025 153.708 49.2007 153.424 48.6672 153.172C48.4521 153.708 48.2729 154.212 48.0619 154.712L47.9185 154.784V154.78Z" fill="#F7A495"/>
<path d="M125.638 154.744C127.35 156.788 128.847 158.72 129.349 161.156C129.42 161.372 129.349 161.62 129.241 161.836C129.739 161.836 130.169 161.692 130.062 161.264C129.564 158.9 128.027 156.928 126.53 155.1C125.781 154.492 125.032 153.916 124.248 153.38C123.643 153.056 123.033 152.772 122.392 152.484C122.679 152.628 122.998 152.772 123.284 152.948C124.14 153.592 124.925 154.168 125.638 154.74V154.744Z" fill="#F7A495"/>
<path d="M104.916 161.376C105.521 161.268 106.094 160.804 106.449 160.156C107.126 158.364 108.412 156.824 110.371 155.536C111.191 154.928 112.155 154.496 113.226 154.248C114.19 153.924 115.189 153.748 116.256 153.784C117.897 153.82 119.502 154.212 120.927 154.932C123.029 155.72 124.921 157.152 126.1 159.088C126.597 159.912 126.92 160.808 127.633 161.38C127.883 161.416 128.166 161.416 128.417 161.344C127.919 159.124 126.49 157.296 124.957 155.468C124.316 154.968 123.567 154.392 122.747 153.82C120.537 152.6 118.359 151.992 116.22 152.064C114.652 152.064 113.298 152.28 112.119 152.672C112.047 152.708 111.94 152.744 111.868 152.78C110.976 153.14 110.12 153.604 109.372 154.176C108.695 154.856 108.018 155.536 107.373 156.22C106.194 157.724 105.374 159.48 104.733 161.272V161.38H104.912L104.916 161.376Z" fill="#F7A495"/>
<path d="M107.663 160.372C107.878 159.944 108.057 159.44 108.304 159.048C108.874 158.116 109.587 157.328 110.443 156.648C108.91 157.76 107.91 159.048 107.341 160.552C107.126 160.912 106.879 161.232 106.592 161.484C107.018 161.232 107.412 160.84 107.663 160.372Z" fill="#F7A495"/>
</svg>
