<svg width="25" height="24" viewBox="0 0 25 24" fill="none" xmlns="http://www.w3.org/2000/svg">
<g id="thumbs-down">
<path id="Vector" d="M21.5 3C22.1 3 22.5 3.4 22.5 4L22.5 13C22.5 13.6 22.1 14 21.5 14C20.9 14 20.5 13.6 20.5 13L20.5 4C20.5 3.4 20.9 3 21.5 3Z" fill="#2E313B"/>
<path id="Vector_2" d="M8.2241 2L16.4604 2C18.1273 2 19.5 3.4 19.5 5.1L19.5 13.5C19.5 14.6 19.1078 15.6 18.4214 16.5L14.4994 21C13.9111 21.6 13.0286 22 12.0481 22C10.9695 22 10.0871 21.5 9.4987 20.7C8.9104 19.8 8.7143 18.8 9.0085 17.8L9.5968 15.9L5.4786 15.9C4.4981 15.9 3.6157 15.5 3.1254 14.7C2.5371 13.9 2.341 12.9 2.6351 12L4.6942 4.9C5.1845 3.1 6.5572 2 8.2241 2ZM16.8526 15.1C17.2448 14.6 17.4409 14.1 17.4409 13.5L17.4409 5.1C17.4409 4.5 16.9507 4 16.3624 4L8.126 4C7.3416 4 6.6553 4.5 6.4592 5.3L4.4981 12.4C4.4001 12.7 4.4981 13.1 4.6942 13.4C4.8903 13.7 5.1845 13.8 5.4786 13.8L10.9695 13.8C11.2637 13.8 11.5578 14 11.7539 14.2C11.95 14.4 11.95 14.8 11.852 15.1L10.7734 18.4C10.6754 18.8 10.6754 19.2 10.9695 19.5C11.3617 20.1 12.3422 20.2 12.8325 19.6L16.8526 15.1Z" fill="#2E313B"/>
</g>
</svg>
