<svg width="98" height="131" viewBox="0 0 98 131" fill="none" xmlns="http://www.w3.org/2000/svg">
<path opacity="0.8" d="M52.6722 69.921C53.4142 69.9921 54.1918 70.0631 55.005 70.1342C58.6128 70.4894 62.3587 70.8052 65.5757 69.85C67.5927 69.2145 68.4414 68.4013 68.4059 67.904C68.4059 67.6198 68.0861 66.8422 65.5757 65.5356C63.3494 64.2291 60.839 63.6962 58.0088 63.9804C55.7115 64.1225 53.4142 64.7225 51.2551 65.6422C49.5578 66.5264 47.7894 67.6592 45.9145 69.0013H45.879C45.4211 69.3921 44.9593 69.8144 44.5369 70.2368C45.879 69.8144 47.3671 69.6723 48.9578 69.6723C50.1617 69.7079 51.3972 69.7789 52.6682 69.921H52.6722Z" fill="#F5B731" fill-opacity="0.8"/>
<path opacity="0.8" d="M61.6166 62.6383C63.3139 62.887 64.8691 63.4159 66.3178 64.3001C68.7216 65.5356 69.819 66.6685 69.89 67.8369C69.9611 68.7921 69.3611 70.2052 66.0375 71.2315C62.5363 72.2933 58.4707 71.9025 54.9024 71.5867C54.1247 71.5157 53.3116 71.4446 52.5695 71.3736C50.0946 71.1249 47.9039 71.0539 46.1 71.4091C46.5579 71.3381 47.0197 71.3025 47.5131 71.3025C54.0182 71.3381 60.243 72.6801 66.748 71.3025C73.3952 69.9605 70.565 62.4291 61.6206 62.6423L61.6166 62.6383Z" fill="#F5B731" fill-opacity="0.8"/>
<path opacity="0.8" d="M37.2187 67.2329C37.2187 68.2947 37.2542 69.2855 37.3608 70.2723C37.8542 70.6276 38.316 70.9789 38.7384 71.3696C38.2805 69.9565 37.7476 68.575 37.2187 67.2329Z" fill="#F5B731" fill-opacity="0.8"/>
<path opacity="0.8" d="M85.3395 40.5062C86.0105 41.3193 86.3303 42.3456 86.2237 43.5455C86.1882 44.9231 85.975 46.5494 84.8461 47.8954C82.5843 50.2638 78.9766 51.3256 76.4661 51.9611C74.0622 52.7742 71.3031 53.1294 68.6506 53.4452L67.4822 53.5873L67.0914 53.6939C62.9902 54.7557 58.747 55.8846 54.8945 57.653C51.2867 59.5279 47.9631 62.1805 45.1013 65.5711C44.1461 67.0553 43.2975 68.646 42.5909 70.2723C43.7238 68.9658 44.9948 67.7974 46.4079 66.7711C48.2118 61.8213 53.2327 58.1424 58.7825 56.6583C63.9099 55.2807 69.3177 54.6768 74.5872 53.69C79.5015 52.7703 85.9356 51.6058 87.4552 46.656C88.3749 43.5811 87.3487 41.6351 85.3356 40.5022L85.3395 40.5062Z" fill="#F5B731" fill-opacity="0.8"/>
<path opacity="0.8" d="M46.0961 61.0476C45.4606 62.0739 44.9632 63.0647 44.5408 64.0515C47.4381 60.7634 50.7262 58.1819 54.2984 56.3425C58.3286 54.5031 62.6074 53.3742 66.7796 52.2768L67.273 52.1347L68.5085 51.9571C71.1255 51.6374 73.8136 51.2861 76.1109 50.5085C79.8923 49.5888 82.2962 48.4559 83.8198 46.8652C84.633 45.8744 84.8106 44.6389 84.8461 43.3995C84.9172 42.5153 84.704 41.8443 84.2461 41.3154C83.5041 40.4667 82.0554 39.9733 80.0029 39.8312C76.1859 39.5825 71.836 40.5022 68.0506 41.3864C63.2429 43.4034 59.5996 45.5942 56.8444 48.0691C52.4945 51.215 48.9262 55.5649 46.0961 61.0437V61.0476Z" fill="#F5B731" fill-opacity="0.8"/>
<path opacity="0.8" d="M42.879 56.0623C42.6304 56.9464 42.4212 57.8306 42.1725 58.7148C41.9238 59.6345 41.6791 60.5542 41.4304 61.4739C41.5015 62.5713 41.537 63.7002 41.5725 64.7975C41.608 66.0014 41.6436 67.2369 41.7501 68.4053C41.8567 67.6987 41.9988 66.9922 42.208 66.2856C42.1725 64.9435 42.3501 63.562 42.4922 62.3265C42.6698 60.6292 42.9856 58.9674 43.4474 57.3767C43.1988 56.9859 42.9896 56.528 42.883 56.0702L42.879 56.0623Z" fill="#F5B731" fill-opacity="0.8"/>
<path opacity="0.8" d="M27.6387 51.5703C27.7453 51.6413 27.8519 51.7479 27.9229 51.819C27.8519 51.7479 27.7453 51.6769 27.6387 51.5703Z" fill="#F5B731" fill-opacity="0.8"/>
<path opacity="0.8" d="M29.865 67.4106C29.7939 67.375 29.7229 67.3395 29.6163 67.304C29.5097 67.304 29.4031 67.304 29.3321 67.2685C29.0479 67.1619 28.7321 67.0553 28.4124 66.9487C27.3861 66.7356 26.3282 66.7711 25.302 66.9132C25.8309 67.0908 26.3282 67.304 26.8217 67.5132C27.4572 67.6908 28.1282 67.9711 28.8032 68.2908C29.0163 68.3619 29.1939 68.4329 29.4031 68.504C31.5583 69.3171 33.5399 69.9526 35.4503 70.521C33.6464 69.1079 31.5623 68.1526 29.865 67.4106Z" fill="#F5B731" fill-opacity="0.8"/>
<path opacity="0.8" d="M32.3399 54.1873C31.1715 53.5873 29.9005 53.2676 28.6966 53.2676C27.4611 53.5163 26.4704 54.3649 25.4796 54.9649C25.302 54.7873 25.0888 54.6097 24.8796 54.4005H24.8441C25.0573 54.5781 25.2665 54.7912 25.4796 54.9649C24.0665 56.4491 23.5336 61.6121 26.1506 64.3712C26.2217 64.4067 26.2927 64.4778 26.3638 64.5133V64.5843L26.4348 64.6554C26.3993 64.6554 26.3993 64.6199 26.3638 64.6199H26.3283C26.0085 64.6199 25.6928 64.6554 25.373 64.6554C26.6085 64.9041 27.7769 65.2199 28.8032 65.5396C29.3676 65.6462 29.936 65.8238 30.465 66.0685C32.0557 66.7395 34.0372 67.6592 35.8372 68.9658C35.7661 67.5882 35.8016 66.1711 35.8727 64.758C35.9437 62.6384 36.0503 60.4082 35.6595 58.4306C35.4109 56.7333 34.2109 55.1781 32.336 54.1873H32.3399Z" fill="#F5B731" fill-opacity="0.8"/>
<path opacity="0.8" d="M37.9648 72.6801C37.8937 72.6801 37.8582 72.6801 37.7872 72.6446C37.5385 72.5736 37.2937 72.5025 37.0451 72.467C37.0806 72.7867 37.1516 73.067 37.2582 73.4577C37.3293 73.7064 37.3648 73.9511 37.4358 74.2709C37.9293 74.6261 38.3911 74.9774 38.8134 75.2616L39.3779 75.2261C39.4489 75.013 39.4845 74.7682 39.5555 74.5551C39.1332 73.9196 38.6358 73.2841 38.0358 72.7157C38.0358 72.6801 38.0003 72.6801 37.9648 72.6801Z" fill="#F5B731" fill-opacity="0.8"/>
<path opacity="0.8" d="M40.3331 69.2145C40.2265 67.8369 40.1554 66.3172 40.1199 64.8646C40.0844 63.8383 40.0489 62.8121 39.9778 61.7897C39.9423 61.6476 39.9068 61.5055 39.9423 61.3674C39.8712 60.3411 39.7647 59.3148 39.6226 58.3635C39.2318 56.1373 38.9871 53.5203 38.8805 50.548C38.316 48.002 37.7831 45.4205 37.3608 42.9101C36.7253 37.676 35.2766 32.4815 33.8951 27.4606C33.5754 26.3277 33.2596 25.1988 32.9399 24.0304C32.4465 22.9686 31.9491 21.8752 31.4912 20.7779C29.3716 15.9702 27.1769 11.0203 23.7112 6.99018C20.8811 3.77318 18.2325 1.89824 16.0733 1.54694C19.539 7.13228 21.5876 11.94 23.8178 17.8451C27.5993 27.1448 28.519 37.151 32.8333 46.2731C33.9662 48.6415 35.699 51.223 35.8727 53.8755C35.1661 53.6268 34.2819 53.3821 33.4688 53.2045C35.4503 54.4084 36.7569 56.2439 37.0411 58.2609C37.3608 59.8872 37.3608 61.6555 37.3253 63.4239L38.1029 65.4409C38.845 67.3869 39.6226 69.471 40.3646 71.4881V71.3105C40.3646 70.675 40.3646 69.9684 40.3291 69.2263L40.3331 69.2145Z" fill="#F5B731" fill-opacity="0.8"/>
<path opacity="0.8" d="M41.3909 44.4297C41.0712 35.13 41.0712 26.75 46.5894 18.9385C47.7578 21.591 47.7934 24.7725 47.9315 27.5316C48.1802 31.8104 48.9223 36.0537 49.5222 40.3285C50.0157 39.6575 50.513 39.022 51.0419 38.3826C53.3392 35.4498 55.4984 32.6551 56.947 29.3671C57.6891 27.7763 58.5022 26.1501 59.3153 24.5948C59.7061 23.8528 60.093 23.1107 60.4482 22.3686C60.6969 21.6265 60.7679 20.7779 60.8706 19.9292C60.9061 19.5384 60.9416 19.1516 61.0127 18.7963C61.5416 14.3754 60.0574 11.7268 56.6273 10.7006C52.0998 11.6203 48.567 15.9701 46.2697 19.2937C41.1067 26.9671 41.1067 35.0629 41.3554 44.0429C41.3554 44.0784 41.2844 44.0784 41.2844 44.0429C40.7554 42.4877 40.2581 40.1549 39.8002 37.822C39.4449 40.4746 39.1292 43.1942 39.5515 45.7402C39.587 45.9178 39.5515 46.0599 39.4805 46.1981C39.7647 47.5401 40.0449 48.9217 40.3291 50.2993V50.4414C40.4002 53.0939 40.6489 55.4978 40.9646 57.5464C41.387 55.9201 41.8488 54.2584 42.4133 52.6676C42.058 49.7703 41.7422 47.9664 41.387 44.4297H41.3909Z" fill="#F5B731" fill-opacity="0.8"/>
<path opacity="0.8" d="M34.0017 71.6183C34.5661 72.0407 35.1345 72.467 35.699 72.8893C35.6635 72.6407 35.628 72.3959 35.5924 72.0762C35.0635 71.9341 34.5306 71.7565 34.0017 71.6183Z" fill="#F5B731" fill-opacity="0.8"/>
<path opacity="0.8" d="M15.726 65.9619H15.6194C12.8958 66.104 10.3854 66.8106 8.33677 67.979C7.20391 68.9342 6.35525 70.2052 6.03947 71.9025C5.89737 72.8222 5.89737 73.4222 6.03947 73.884C7.87889 73.5643 10.6341 72.4354 12.438 71.3381C13.9932 70.667 15.126 69.925 16.326 69.1118C17.4944 68.3342 18.7298 67.5211 20.2851 66.8501C21.1337 66.4948 22.3021 66.0725 23.5731 65.7882C21.1337 65.433 18.4456 65.3975 15.726 65.9659V65.9619Z" fill="#F5B731" fill-opacity="0.8"/>
<path opacity="0.8" d="M24.8441 6.07045C28.4519 10.2782 30.7136 15.3346 32.8688 20.2489C33.3622 21.3463 33.8596 22.4397 34.353 23.537C34.353 23.5725 34.3885 23.608 34.3885 23.6436C34.7083 24.8119 35.024 25.9409 35.3438 27.1092C36.4056 30.9262 37.4634 34.8182 38.2095 38.7773C38.2805 38.1418 38.3871 37.4707 38.4581 36.8313C38.6002 35.9471 38.7068 35.0274 38.8134 34.1432C38.8134 33.8945 38.8489 33.6498 38.8844 33.4011C38.7068 32.517 38.4937 31.7749 38.32 31.2104C36.5871 25.554 35.6319 20.991 33.0504 15.5833C30.7492 10.8071 26.9322 -1.18063 18.7298 0.0943326C18.339 0.200908 17.9522 0.343009 17.6325 0.485109C19.8232 1.26272 22.2626 3.13765 24.8441 6.07045Z" fill="#F5B731" fill-opacity="0.8"/>
<path opacity="0.8" d="M49.9841 43.7587C49.8065 44.0429 49.6288 44.3232 49.4552 44.6074C49.6328 44.3232 49.7749 44.0429 49.9841 43.7587Z" fill="#F5B731" fill-opacity="0.8"/>
<path opacity="0.8" d="M62.4297 18.974C62.3586 19.3292 62.3231 19.6805 62.2876 20.0713C62.2165 20.9555 62.11 21.9463 61.7587 22.9015C61.3679 23.7146 60.9811 24.4922 60.5903 25.2343C59.8127 26.7895 58.9995 28.3803 58.2575 29.9355C56.7378 33.4011 54.405 36.3695 52.1748 39.2707C51.3972 40.297 50.584 41.3233 49.8064 42.3811C49.8064 42.4877 49.8419 42.5943 49.8419 42.7008C49.8775 42.985 49.984 43.3008 50.0196 43.6206C49.984 43.6561 49.984 43.6916 49.9485 43.7271C53.13 38.8483 56.7733 34.1827 59.9548 29.4065C62.0073 26.2251 64.3757 22.1594 64.6559 18.4451C64.8336 15.8636 64.3362 12.0821 61.2613 11.0203C60.7324 10.8427 60.235 10.7361 59.7416 10.6295C61.9679 12.3624 62.8876 15.1886 62.4297 18.974Z" fill="#F5B731" fill-opacity="0.8"/>
<path opacity="0.8" d="M22.16 67.8724C22.0534 67.8724 21.9468 67.8369 21.8758 67.8013C21.485 67.9434 21.1337 68.0855 20.8495 68.1921C19.4364 68.8276 18.3391 69.5697 17.1391 70.3473C15.9352 71.1604 14.6642 71.9736 13.0734 72.6801C13.0734 72.6801 10.9182 73.9156 8.51437 74.7327C8.692 74.6972 8.86963 74.6972 9.07883 74.6616C12.3669 74.1327 15.6194 72.6091 18.4141 70.9512C19.9337 70.067 21.3113 68.8316 22.835 67.9119C22.6218 67.9119 22.4126 67.8763 22.1639 67.8763L22.16 67.8724Z" fill="#F5B731" fill-opacity="0.8"/>
<path d="M23.8573 48.1086C24.106 48.4283 24.3507 48.7085 24.5994 49.0283C25.5546 49.9124 26.6165 50.7611 27.6388 51.6098C26.1901 50.3387 24.9507 49.2414 23.8573 48.1086Z" fill="#F5B731" fill-opacity="0.8"/>
<path d="M16.0063 1.54297H15.9708C15.7931 1.72059 15.651 1.89822 15.5129 2.10742C15.6905 1.89427 15.8326 1.71665 16.0063 1.54297Z" fill="#F5B731" fill-opacity="0.8"/>
<path d="M18.6944 39.3733C16.8905 34.8458 13.8511 24.7014 13.109 15.7925C13.6024 23.5014 15.8682 32.5169 18.6944 39.3733Z" fill="#F5B731" fill-opacity="0.8"/>
<path d="M26.3323 64.5843C26.2612 64.5133 26.1902 64.4422 26.1546 64.3712C25.5546 63.9133 24.8836 63.5225 24.1376 63.1673C24.1731 63.2028 24.1731 63.2383 24.2086 63.2738C24.9862 63.6962 25.6928 64.1225 26.3283 64.5804C26.3283 64.6041 26.3283 64.6041 26.3283 64.5804L26.3323 64.5843Z" fill="#F5B731" fill-opacity="0.8"/>
<path d="M11.5538 58.1464C13.6734 59.7016 16.997 60.6924 20.1114 61.7186C20.5021 61.8252 20.9245 61.9318 21.3153 62.0739C17.9917 60.87 14.2102 59.8832 11.5577 58.1503L11.5538 58.1464Z" fill="#F5B731" fill-opacity="0.8"/>
<path d="M22.7955 58.0082C22.5823 59.7056 23.0797 61.5805 24.102 63.2068C24.8441 63.562 25.5151 63.9488 26.1191 64.4107C23.502 61.6515 24.0349 56.4925 25.448 55.0044C25.2349 54.7912 25.0257 54.6136 24.8125 54.4399C23.7152 55.3241 22.9731 56.5241 22.7955 58.0122V58.0082Z" fill="#F5B731" fill-opacity="0.8"/>
<path d="M23.7507 53.4808C21.2048 51.3966 18.0233 49.7703 14.7708 48.602C17.7036 50.4058 20.2851 52.7031 22.4797 54.8583C22.835 54.3649 23.2573 53.8676 23.7507 53.4808Z" fill="#F5B731" fill-opacity="0.8"/>
<path d="M11.234 57.9017L11.2696 57.9372C11.3761 58.0082 11.4827 58.0793 11.5538 58.1503C14.2063 59.9187 17.9878 60.8739 21.3113 62.0739C21.56 62.1449 21.7692 62.216 21.9824 62.2515C21.3824 60.8029 21.1692 59.2477 21.3469 57.7951C21.4179 57.2306 21.56 56.6977 21.7377 56.2043C18.4141 52.8808 14.0997 49.0993 9.07885 47.5441C9.22095 48.8862 9.39858 50.1966 9.57226 51.5742C9.82093 53.2715 10.3143 55.7465 11.234 57.9017Z" fill="#F5B731" fill-opacity="0.8"/>
<path d="M43.4436 57.5109C44.1501 55.0715 45.1053 52.6321 46.1316 50.4414C46.3448 49.9835 46.5895 49.5217 46.8027 49.0993C45.3895 51.7874 44.1856 54.5425 43.408 57.4438C43.408 57.4438 43.4436 57.4793 43.4436 57.5148V57.5109Z" fill="#F5B731" fill-opacity="0.8"/>
<path d="M9.11436 47.5402C8.44333 47.327 7.7723 47.1494 7.06179 47.0468C6.84864 47.0112 6.67102 47.0112 6.49734 46.9757C4.97765 47.0468 3.56454 47.3981 2.99614 48.3533C0.840945 51.9255 8.33675 55.9202 10.7406 57.5109C10.9182 57.653 11.0959 57.7596 11.2696 57.9017C10.3498 55.7465 9.89197 53.2716 9.67881 51.6098C9.43014 50.2322 9.25646 48.8862 9.11436 47.5441V47.5402Z" fill="#F5B731" fill-opacity="0.8"/>
<path d="M23.8573 17.8411C21.6311 11.9361 19.5785 7.12832 16.1128 1.54297C16.0773 1.54297 16.0418 1.54297 16.0063 1.50745C15.8286 1.68507 15.651 1.8627 15.5129 2.0719C13.3932 4.96918 12.7537 9.99006 13.109 15.753C13.8511 24.6264 16.8549 34.7748 18.6943 39.3338C19.614 41.5601 20.6048 43.5771 21.6271 45.2389C22.3692 46.1941 23.1113 47.1139 23.8534 48.0691C24.9507 49.2375 26.1862 50.2953 27.6348 51.5703C27.7414 51.6413 27.848 51.7479 27.9546 51.819C29.19 51.7124 30.465 51.89 31.665 52.3124C30.6387 48.9888 29.3677 45.4521 28.1282 41.9903C27.1375 39.2312 26.1112 36.405 25.231 33.7169C23.4271 29.9355 21.7298 25.5856 20.6364 21.9068C20.5298 21.516 20.743 21.1292 21.1298 20.9871C21.5206 20.8805 21.9074 21.0936 22.0495 21.4805C23.1468 25.0883 24.8086 29.3631 26.6086 33.184C27.5283 35.9432 28.5545 38.7694 29.5414 41.493C30.9545 45.381 32.407 49.4111 33.5004 53.1255C33.536 53.1255 33.5715 53.161 33.5715 53.161C34.4201 53.3386 35.2688 53.5834 35.9754 53.8321C35.7977 51.1795 34.0649 48.6335 32.936 46.2297C28.5506 37.1431 27.6309 27.1369 23.8494 17.8372L23.8573 17.8411ZM19.7917 16.6727C19.7206 16.7083 19.6496 16.7083 19.543 16.7083C19.2233 16.7083 18.9785 16.5306 18.872 16.2149C18.1654 14.1623 17.3167 12.1137 16.6812 10.5229C16.5391 10.1677 16.7168 9.74534 17.072 9.56771C17.4273 9.42561 17.8496 9.60324 18.0273 9.95849C18.6983 11.5492 19.5469 13.6373 20.2535 15.7215C20.3601 16.1438 20.1824 16.5346 19.7956 16.6767L19.7917 16.6727Z" fill="#F5B731" fill-opacity="0.8"/>
<path d="M47.9671 27.5316C47.825 24.7725 47.7894 21.591 46.625 18.9385C41.1107 26.754 41.1107 35.1301 41.4265 44.4298C41.7817 47.9665 42.0975 49.7704 42.4528 52.6321C43.2659 50.2993 44.2566 48.0731 45.7763 46.056C46.8737 44.0035 48.2157 42.1325 49.5933 40.3286C48.9578 36.0498 48.2157 31.8065 47.9671 27.5316Z" fill="#F5B731" fill-opacity="0.8"/>
<path d="M49.8775 42.7324C49.8775 42.6258 49.842 42.5193 49.842 42.4127C48.8157 43.8258 47.825 45.2784 47.0118 46.8336C47.0118 46.8691 46.9763 46.9046 46.9408 46.9402C44.8882 49.6638 43.7948 52.8808 42.8751 56.1333C43.0172 56.5557 43.1949 57.0175 43.4041 57.4754C44.2172 54.5781 45.3856 51.819 46.7987 49.1309C47.7539 47.2915 48.8512 45.4876 50.0157 43.7232C49.9802 43.3008 49.9091 42.9811 49.8736 42.7324H49.8775Z" fill="#F5B731" fill-opacity="0.8"/>
</svg>
