<svg width="180" height="180" viewBox="0 0 180 180" fill="none" xmlns="http://www.w3.org/2000/svg">
<path d="M160.742 125.583C160.255 123.868 160.045 122.958 159.835 122.083C159.624 121.102 159.418 120.157 158.787 118.2C158.23 116.344 157.844 115.469 157.497 114.594C157.151 113.719 156.8 112.844 156.208 110.989C153.695 104.027 151.915 97.9021 149.893 90.8354L149.406 89.1908C147.485 83.839 146.02 78.5185 144.556 73.3386C143.336 69.0337 142.113 64.5921 140.613 60.1115C140.438 59.3771 140.227 58.6075 140.056 57.838C138.973 53.2206 137.859 48.4626 133.53 45.4859C132.412 44.6109 131.228 43.9819 130.005 43.56C126.865 42.4741 123.444 42.685 120.094 42.8959C119.221 42.9663 118.349 43.0014 117.511 43.0366C110.88 42.5483 104.947 42.7202 98.6672 42.9311H98.3165C97.4439 42.9663 96.5712 42.9663 95.6635 43.0014C95.348 43.0014 95.0714 43.0366 94.7558 43.0366C92.8702 43.0366 91.9275 42.9311 91.0236 42.8256C90.077 42.7241 89.103 42.6186 87.1824 42.6186C82.9243 42.6537 79.7142 42.7944 75.947 42.9702C74.7276 43.0053 73.4342 43.0756 72.0395 43.146C70.154 43.146 69.2112 43.0405 68.3074 42.9702C67.3646 42.8647 66.3868 42.7944 64.47 42.7944C62.5533 42.7944 61.6105 42.8647 60.6678 42.8998C59.725 42.935 58.7822 43.0053 56.9356 43.0053C51.0997 42.6186 47.3325 42.5131 41.7499 42.7241C39.8293 42.7241 38.8553 42.8295 37.9125 42.935C37.7022 42.9702 37.4606 42.9702 37.2502 43.0053C36.4828 43.0756 35.6101 43.146 34.1804 43.146H33.4129C32.0182 43.146 31.2157 43.0756 30.4132 43.0405C29.4704 42.9702 28.5276 42.9702 26.5758 42.935C25.3564 43.0405 24.028 43.0405 22.7385 43.0053C18.5856 42.9702 14.2924 42.935 11.5031 46.5055C9.92528 48.6384 9.57466 51.5408 10.5174 54.6581C11.1096 56.5137 11.2498 57.459 11.3901 58.4356C11.5303 59.381 11.7056 60.3263 12.2277 62.1077C12.7848 63.9984 13.1354 64.8734 13.4821 65.8149C13.7977 66.6547 14.1444 67.5649 14.6703 69.315C16.626 74.6668 17.7402 78.3076 19.17 83.7648C19.9024 86.2141 20.6348 88.558 21.3672 90.8315C22.9021 95.695 24.3669 100.312 25.5902 105.633C26.1122 107.418 26.533 108.293 26.9148 109.168C27.3316 110.078 27.7173 110.918 28.2393 112.739C28.7614 114.524 28.9016 115.434 29.0068 116.411C29.147 117.356 29.2522 118.337 29.8093 120.188C30.2963 121.868 30.5768 122.743 30.8573 123.583C31.1728 124.563 31.4494 125.474 32.0455 127.431C34.1025 133.169 39.7241 137.228 45.7586 137.298H46.5261C46.5962 137.333 46.6663 137.369 46.7365 137.369H46.8416C46.8767 137.369 46.9468 137.333 46.9819 137.298C48.135 137.298 48.8675 137.263 49.5648 137.228C50.5076 137.193 51.4504 137.158 53.332 137.158C55.5994 137.087 57.555 137.087 59.4055 137.052C59.4406 137.193 59.5107 137.298 59.651 137.333H59.7561C59.9315 137.333 60.0717 137.228 60.1068 137.052V137.017C62.8299 137.017 65.4089 137.087 68.4476 137.193L71.6577 137.228C75.6003 137.263 79.0558 137.333 83.5204 137.333H83.5905C89.1731 137.052 93.0105 136.982 98.6983 137.052C102.501 137.193 106.061 137.193 109.517 137.158C113.319 137.158 117.231 137.122 121.45 137.333C121.835 137.333 122.182 137.298 122.533 137.298C122.568 137.298 122.603 137.333 122.638 137.333C122.708 137.333 122.743 137.333 122.813 137.298C128.918 137.122 134.746 137.158 140.819 137.298C140.89 137.369 140.995 137.404 141.1 137.404H141.135C141.205 137.404 141.31 137.369 141.345 137.298C144.696 137.369 148.116 137.474 151.743 137.615C152.931 137.58 154.081 137.333 155.164 136.845C156.734 136.181 158.128 135.06 159.176 133.591C161.097 131.282 161.584 128.306 160.746 125.579L160.742 125.583ZM59.651 136.326C57.7654 136.326 55.7435 136.361 53.406 136.431C51.5205 136.431 50.5465 136.466 49.6038 136.501H49.3934C48.7662 136.537 48.1039 136.537 47.126 136.572C46.008 132.025 46.9157 126.493 49.6038 121.735C50.8231 119.739 52.7087 118.063 55.3968 116.555C56.024 116.204 56.7213 115.715 57.5589 115.157C58.8835 114.282 60.3873 113.266 62.0586 112.321C62.1988 112.25 62.3741 112.18 62.5105 112.11C62.5105 112.532 62.4754 112.95 62.4754 113.403C62.23 119.559 61.7079 129.255 59.6471 136.322L59.651 136.326ZM121.59 136.642C117.367 136.466 113.459 136.466 109.657 136.466C106.237 136.466 102.68 136.466 98.8736 136.361C93.1507 136.29 89.3134 136.361 83.7308 136.642C79.2311 136.642 75.7756 136.607 71.798 136.537L68.5879 136.501C65.6232 136.396 63.1104 136.326 60.4574 136.326C62.5144 128.978 63.0403 119.005 63.2857 112.954C63.2857 112.567 63.3208 112.184 63.3208 111.797V111.762C65.4128 110.746 67.2633 109.766 68.8684 108.754C68.8333 109.035 68.8333 109.348 68.7982 109.664C68.5528 113.477 68.6931 121.177 70.0176 122.927C70.0527 122.962 70.0877 122.997 70.1579 123.032C71.1357 123.556 74.7276 123.837 79.648 124.153C81.6738 124.294 83.5905 124.434 84.919 124.575C86.1383 124.575 87.4317 124.434 88.6511 124.329C89.9056 124.188 91.1639 124.083 92.4183 124.083C93.6728 124.083 94.896 124.188 96.1154 124.294C97.44 124.434 98.7334 124.54 99.9528 124.505C103.549 124.294 106.478 123.665 107.526 123.141C110.526 120.692 110.074 113.414 109.758 108.969C111.749 109.985 113.771 110.965 115.797 111.907C116.354 115.09 118.797 128.806 122.252 136.646C122.007 136.646 121.8 136.646 121.59 136.646V136.642ZM69.667 108.231C73.4342 105.711 75.8067 102.98 77.0651 99.5897C77.3806 99.9413 77.7274 100.289 78.0079 100.641C78.2182 100.922 78.4598 101.164 78.7052 101.41C79.8233 102.633 81.0777 103.719 83.0334 103.93H83.0685C83.2438 103.93 83.4191 103.789 83.4542 103.578C83.4892 103.367 83.3139 103.191 83.1035 103.156C81.253 102.98 80.1038 101.863 78.9857 100.601C78.8455 100.426 78.7052 100.285 78.5688 100.113C78.1832 99.66 77.7663 99.1678 77.3144 98.7498C77.4547 98.3279 77.5598 97.8748 77.665 97.4216C78.3273 94.484 78.3624 91.019 77.9105 86.8196C79.3753 87.4486 81.0154 87.765 82.7958 87.765H83.3529C86.6682 87.6947 89.216 86.9954 90.9964 85.7375C91.2769 90.3901 92.7767 94.2066 95.0791 97.4607C94.6935 100.332 92.1145 102.57 89.6017 103.305C89.3913 103.375 89.2861 103.586 89.3563 103.758C89.3913 103.934 89.5666 104.039 89.7069 104.039H89.8121C92.3599 103.27 94.9428 101.101 95.6752 98.3006C98.9905 102.57 103.701 105.789 108.936 108.586C108.901 108.621 108.901 108.692 108.901 108.762V108.973C108.936 109.567 108.971 110.231 109.042 110.934C108.936 110.828 108.796 110.793 108.691 110.828C104.784 111.95 98.9204 113.313 95.2584 113.766C95.048 113.801 94.9077 113.977 94.9428 114.188C94.9779 114.364 95.1181 114.54 95.3285 114.54H95.3635C99.0957 114.086 104.994 112.684 108.936 111.602C109.007 111.567 109.077 111.532 109.112 111.461C109.322 115.52 109.252 120.805 107.086 122.587C106.318 122.973 103.56 123.638 99.8982 123.845C98.71 123.88 97.4906 123.774 96.1661 123.634C94.9467 123.528 93.6884 123.388 92.3988 123.388C91.1094 123.388 89.816 123.528 88.5615 123.634C87.3421 123.739 86.0838 123.88 84.9306 123.88C83.6412 123.739 81.7205 123.598 79.6947 123.458C76.0989 123.212 71.6344 122.899 70.5864 122.442C69.4683 120.762 69.2969 112.961 69.5735 109.391C69.6086 108.969 69.6436 108.586 69.6787 108.305C69.6787 108.27 69.6787 108.235 69.6787 108.235L69.667 108.231ZM71.9343 79.749C72.0395 80.3076 72.2148 80.8702 72.4213 81.3936C70.1189 81.9522 68.4087 80.6944 67.6061 79.8545C67.1192 79.3662 66.6984 78.7685 66.3517 78.1747C65.7245 76.9833 65.479 75.7254 65.7245 74.6746C65.7595 74.4988 65.8647 74.323 65.9348 74.1511C66.2504 73.4167 66.8075 72.9948 67.5048 72.9284C68.4476 72.8581 69.3904 73.487 69.8774 74.6082C69.9124 74.7137 70.0176 74.784 70.0877 74.8191C70.1929 74.8543 70.2981 74.8543 70.4033 74.784C71.5565 74.1902 71.4513 73.3855 71.3461 72.6159C71.276 72.1628 71.2058 71.6706 71.311 71.1119L71.3461 71.0065C72.881 71.0065 73.6485 70.901 74.416 70.8307C75.2185 70.7252 75.9509 70.6549 77.5209 70.6549C80.9063 70.6901 83.5243 70.8307 86.524 70.9713C87.572 71.0065 88.6161 71.0768 89.8043 71.1119C90.2912 72.1276 90.5367 72.6862 90.8522 73.3855C91.0626 73.9089 91.3392 74.4715 91.7249 75.2762C91.795 75.452 92.0404 75.5574 92.2119 75.452C92.3872 75.3817 92.4573 75.2059 92.4222 75.0301V74.9949C92.6677 72.9675 93.7468 71.5299 95.2506 71.1823C96.2284 70.9362 97.1712 71.2526 97.6581 71.987C98.5659 73.5613 98.636 75.9051 97.7633 77.6552C97.2413 78.7412 96.1583 80.0342 94.0312 80.3154C93.9611 80.3154 93.8909 80.3506 93.8559 80.3858C93.8909 79.792 93.8909 79.1631 93.8208 78.4951C93.7858 78.2841 93.6455 78.1435 93.404 78.1435C93.1936 78.1786 93.0533 78.3544 93.0533 78.5654C93.2988 80.9444 92.8079 82.7999 91.6236 84.1633C90.0887 85.9133 87.3305 86.8587 83.3879 86.9642C81.3621 87.0345 79.4805 86.6477 77.8754 85.9133C77.8754 85.8079 77.8403 85.7375 77.8403 85.6321C77.8053 85.4211 77.63 85.2805 77.4235 85.3157C77.2832 85.3157 77.1781 85.4211 77.143 85.5266C74.8757 84.2336 73.2355 82.1319 72.7096 79.5068C72.6745 79.2959 72.4642 79.1552 72.2577 79.2256C72.0123 79.331 71.872 79.542 71.9421 79.749H71.9343ZM131.501 136.466C128.707 136.466 125.918 136.501 123.055 136.607C119.704 129.189 117.262 115.997 116.599 112.149C132.128 116.313 139.838 124.114 140.851 136.572C137.641 136.537 134.571 136.466 131.497 136.466H131.501ZM158.721 133.247C157.08 135.521 154.603 136.853 151.88 136.919C149.332 136.814 146.889 136.744 144.517 136.673C143.539 136.638 142.561 136.603 141.587 136.603C140.262 119.493 126.479 113.93 116.253 111.27C114.928 110.641 113.565 110.012 112.24 109.379C108.403 107.488 104.702 105.426 101.562 102.977C99.3645 101.262 97.4439 99.3709 95.8739 97.238V96.8161L97.479 96.8864C98.7334 96.9568 99.7813 96.9919 100.654 97.0271C102.711 97.0622 103.899 96.9919 104.597 96.5388C104.772 96.4333 104.912 96.2927 105.013 96.152C105.746 95.2067 105.294 93.6676 104.421 90.6245C103.619 87.8587 102.395 83.6984 101.457 77.6786C99.5359 71.1002 97.7594 66.2367 96.1193 63.2288C94.0623 60.2912 91.8262 57.9122 89.4186 56.0918C87.8486 54.9003 86.2085 53.9237 84.4982 53.2206C77.2404 51.365 68.0269 52.3456 63.7026 58.8185C60.7729 65.7797 62.6195 75.6121 63.9831 80.8623L64.0882 81.2139C65.2765 85.8665 66.4608 90.6596 66.2153 95.2458C66.2153 96.2614 67.2633 96.6794 68.3074 96.6794C69.4255 96.6794 70.228 96.7146 70.8903 96.7849C71.4474 96.82 71.9382 96.8904 72.3901 96.9607C73.403 97.1013 74.4822 97.2068 76.5781 97.2068C76.7885 97.2068 76.9638 97.031 76.9638 96.82C76.9638 96.6091 76.7885 96.4333 76.5781 96.4333C74.5211 96.4333 73.4732 96.2927 72.4953 96.1872C71.9032 96.1169 71.276 96.0466 70.4033 95.9762C69.8111 95.9411 69.1489 95.9059 68.2762 95.9059C67.8243 95.9059 66.9516 95.7653 66.9516 95.2418C67.2321 90.5542 66.0089 85.6907 64.8246 80.9991L64.7194 80.6475C63.3948 75.5028 61.5443 65.8461 64.3687 59.1622C68.4515 53.0721 77.3495 52.1659 84.2606 53.912C85.2384 54.3339 86.1812 54.8222 87.0889 55.3808C90.1588 57.2715 92.9871 60.0334 95.4999 63.639C97.0699 66.5766 98.8503 71.3737 100.736 77.8466C101.679 83.8664 102.898 88.0619 103.701 90.8628C104.468 93.4879 104.92 95.0973 104.433 95.7262C104.187 96.0427 103.56 96.2145 102.653 96.2849C102.477 96.2849 102.337 96.32 102.166 96.32C101.012 96.3552 99.4775 96.2849 97.4906 96.1794L95.3285 96.0739C95.2233 96.0739 95.1181 96.1091 95.048 96.1794C93.1274 93.2066 91.908 89.7416 91.6626 85.6125C91.6626 85.4719 91.5924 85.3664 91.4872 85.3313C91.6976 85.1555 91.9041 84.9445 92.0794 84.7727C92.9521 83.757 93.4741 82.4991 93.6845 80.9952C93.7546 81.0655 93.8598 81.1358 93.965 81.1358H94C95.9206 80.8897 97.4556 79.8076 98.3282 78.0575C99.3061 76.0614 99.271 73.4753 98.188 71.6549C97.5257 70.6744 96.2323 70.2213 94.9779 70.5338C93.7585 70.8151 92.395 71.862 91.8028 73.9285C91.6626 73.6472 91.5574 73.3699 91.4522 73.1237C91.1366 72.3893 90.86 71.7604 90.299 70.6393C90.2289 70.4986 90.1237 70.4283 89.9835 70.4283C88.729 70.358 87.5759 70.3229 86.4929 70.2525C83.4931 70.1119 80.8751 69.9713 77.4547 69.9361C75.8496 69.9361 75.0471 70.0416 74.2796 70.1119C73.4771 70.2174 72.7447 70.2877 71.1747 70.2877C70.7228 70.2877 70.6176 70.6744 70.5474 70.8112L70.5124 70.9518C70.3721 71.6862 70.4423 72.28 70.5124 72.737C70.6176 73.3308 70.6526 73.6472 70.302 73.9285C69.815 73.1237 69.1138 72.53 68.3463 72.319C67.7542 70.1861 67.4386 64.9008 68.9736 62.346C69.0787 62.1702 69.0086 61.9241 68.8333 61.8225C68.658 61.7209 68.4165 61.7873 68.3113 61.9631C66.7062 64.6234 66.9166 69.7642 67.5087 72.2487H67.3334C66.6712 72.319 66.079 72.6354 65.6232 73.1589C65.3076 73.5456 65.0661 73.9988 64.8908 74.5926C64.5051 76.2372 65.1012 78.2997 66.4257 79.9092C66.601 80.1201 66.7763 80.2959 66.9477 80.503C68.1671 81.7257 69.6709 82.3937 71.2058 82.3937C71.6227 82.3937 72.0785 82.3585 72.4953 82.2179C72.5304 82.2179 72.6005 82.1827 72.6356 82.1476C73.5784 84.0383 75.1133 85.5774 77.069 86.5579C77.591 91.0346 77.5209 94.6051 76.8235 97.5466C75.2535 104.16 70.4734 107.695 61.6456 111.754C59.9354 112.735 58.3303 113.782 57.0759 114.625C56.2733 115.149 55.5409 115.641 54.9488 115.989C52.1555 117.563 50.1686 119.348 48.8752 121.446C46.117 126.31 45.1782 131.978 46.2923 136.665H45.7703C45.595 136.665 45.4197 136.63 45.2483 136.63C39.7358 136.349 34.6401 132.572 32.7545 127.321C32.1624 125.36 31.8819 124.45 31.5663 123.473C31.2858 122.634 31.0092 121.759 30.5183 120.079C29.9963 118.294 29.8561 117.383 29.7509 116.407C29.6106 115.461 29.5054 114.481 28.9484 112.629C28.3913 110.739 27.9705 109.828 27.5887 108.957C27.203 108.117 26.8213 107.277 26.2992 105.563C25.0798 100.246 23.6111 95.6247 22.0411 90.726C21.3087 88.4525 20.5763 86.1087 19.8439 83.6945C18.4142 78.2021 17.2961 74.5261 15.3443 69.2095C14.7872 67.4595 14.4716 66.5493 14.1249 65.6742C13.7743 64.764 13.4626 63.889 12.9055 62.0334C12.3835 60.3185 12.2433 59.3732 12.103 58.463C11.9628 57.4825 11.7875 56.4668 11.1953 54.58C10.3226 51.6424 10.6382 49.0524 12.068 47.0914C13.973 44.6148 16.8013 44.0561 19.8011 43.9155C20.7438 43.8804 21.7217 43.8804 22.6956 43.8804C23.9851 43.8804 25.3487 43.9155 26.568 43.81C28.4536 43.81 29.3964 43.8804 30.3352 43.9155C31.278 43.9858 32.2559 44.021 34.1375 44.021C36.0192 44.021 37.0321 43.9155 37.9749 43.81C38.8826 43.7046 39.8604 43.5991 41.7421 43.5991C47.3247 43.3882 51.0608 43.5288 56.885 43.8804C58.8056 43.8804 59.7445 43.81 60.6872 43.7749C61.63 43.7397 62.5728 43.6694 64.4545 43.6694C66.3361 43.6694 67.2828 43.7749 68.1866 43.8452C69.1294 43.9507 70.1072 44.021 72.0239 44.021C73.4186 43.9507 74.712 43.9155 75.9665 43.8452C79.5623 43.7046 82.6672 43.5639 86.6448 43.4936H87.1668C88.9121 43.4936 89.89 43.5991 90.7276 43.7046C90.7977 43.7046 90.8327 43.7046 90.9029 43.7397C91.8456 43.8452 92.8235 43.9507 94.7402 43.9507C96.0648 43.9155 97.3932 43.8804 98.6477 43.8452C104.928 43.6694 110.826 43.4936 117.456 43.9507C118.329 43.9155 119.202 43.8804 120.11 43.81C124.784 43.5288 129.218 43.2514 133.02 46.2594C137.138 49.0603 138.151 53.5018 139.265 58.1895C139.44 58.9591 139.616 59.7287 139.822 60.4982C141.322 64.975 142.545 69.4205 143.765 73.7253C145.194 78.9052 146.694 84.2219 148.615 89.6127L149.067 91.2221C151.093 98.2888 152.869 104.414 155.382 111.41C155.974 113.266 156.325 114.176 156.671 115.051C157.022 115.891 157.369 116.801 157.926 118.587C158.518 120.512 158.728 121.423 158.939 122.399C159.149 123.309 159.324 124.22 159.846 125.97C160.789 128.314 160.298 131.044 158.693 133.247H158.721Z" fill="#454138"/>
<path d="M70.0846 114.038C73.1895 114.038 78.7371 114.248 82.4381 114.459H82.4731C82.6835 114.459 82.8238 114.319 82.8588 114.108C82.8588 113.897 82.7186 113.721 82.5082 113.721C78.8111 113.51 73.2246 113.299 70.1196 113.299C69.9093 113.299 69.734 113.475 69.734 113.686C69.6989 113.862 69.8742 114.038 70.0846 114.038Z" fill="#454138"/>
<path d="M83.2406 82.126C84.0431 82.126 84.8106 81.8799 85.3326 81.4619C85.5079 81.3213 85.508 81.0752 85.4028 80.9385C85.2625 80.7627 85.0171 80.7627 84.8807 80.8681C84.2535 81.3916 82.6835 81.6377 81.7057 80.8681C81.5304 80.7275 81.32 80.7627 81.1836 80.9385C81.0473 81.1142 81.0785 81.3252 81.2538 81.4619C81.7758 81.9151 82.5082 82.126 83.2445 82.126H83.2406Z" fill="#454138"/>
<path d="M86.7312 106.865C87.0468 106.865 87.3584 106.83 87.674 106.69C88.5116 106.408 89.0336 105.779 89.1037 105.01C89.2089 104.135 88.9635 103.26 88.3713 102.596C87.7441 101.896 86.8364 101.545 85.7884 101.58C85.056 101.615 84.2885 102.279 83.9379 103.154C83.5522 104.135 83.7626 105.115 84.46 105.85C85.0521 106.514 85.8897 106.865 86.7273 106.865H86.7312ZM84.6041 103.435C84.8495 102.842 85.3716 102.349 85.7923 102.314C86.5948 102.279 87.2922 102.56 87.7831 103.084C88.235 103.572 88.4103 104.24 88.3402 104.904C88.3051 105.393 87.9545 105.779 87.4324 105.955C86.7702 106.201 85.7573 106.096 84.9898 105.326C84.2924 104.627 84.4678 103.857 84.6041 103.435Z" fill="#454138"/>
</svg>
